<?xml version="1.0" encoding="UTF-8" standalone="no"?>
<svg width="45px" height="45px" viewBox="0 0 45 45" version="1.1" xmlns="http://www.w3.org/2000/svg" xmlns:xlink="http://www.w3.org/1999/xlink">
    <!-- Generator: Sketch 50.2 (55047) - http://www.bohemiancoding.com/sketch -->
    <title>高效易用</title>
    <desc>Created with Sketch.</desc>
    <defs></defs>
    <g id="官网" stroke="none" stroke-width="1" fill="none" fill-rule="evenodd">
        <g id="Artboard" transform="translate(-136.000000, -1688.000000)" fill-rule="nonzero">
            <g id="高效易用" transform="translate(136.000000, 1688.000000)">
                <path d="M44.6159344,18.3311669 C44.5088754,17.7363875 43.939929,17.3410131 43.3451569,17.4480734 C42.7503849,17.5551337 42.3550154,18.1240872 42.4620743,18.7188665 C43.5611339,24.6889732 41.9526782,30.8388936 38.0714433,35.5064172 C34.1902083,40.1739409 28.4369103,42.8771716 22.36656,42.8854758 C12.7429022,42.89054 4.41635868,36.1885891 2.36457449,26.7860795 C0.312790288,17.3835698 5.09036515,7.82201123 13.8412434,3.81734621 C22.5921217,-0.187318808 32.9509303,2.44737558 38.7251271,10.1463973 L35.3543361,8.90791241 C34.7952504,8.70271355 34.1756775,8.98960112 33.9704811,9.54869373 C33.7652848,10.1077863 34.0521687,10.727367 34.6112544,10.9325659 L40.83591,13.2372247 C41.1601045,13.3586187 41.5228901,13.3167644 41.8109264,13.1247379 C42.0989627,12.9327113 42.2771299,12.6139259 42.2897655,12.2679757 L42.5051515,5.63400452 C42.5051515,5.34838138 42.3916896,5.07445661 42.189726,4.87249056 C41.9877625,4.6705245 41.7138411,4.55706115 41.4282215,4.55706117 C40.8334495,4.55706117 40.3512915,5.03922513 40.3512915,5.63400452 L40.2543678,8.6817543 C33.2592172,-0.306841575 20.6500855,-2.64943391 10.8933167,3.22690021 C1.13654781,9.10323433 -2.6892968,21.3443302 1.98462871,31.7309601 C6.65855423,42.1175899 18.3574822,47.3724516 29.226221,43.9671923 C40.0949597,40.561933 46.7040869,29.571017 44.6159344,18.3742446 L44.6159344,18.3311669 Z" id="Shape" fill="#3C3C3C"></path>
                <path d="M33.5491736,12.049217 C33.4653423,12.0164057 33.3731278,12 33.2725301,12 C32.9875035,12 32.7527757,12.0902312 32.5683468,12.2706935 C18.4343805,19.2266965 10.7973442,22.9917972 9.65723781,23.5659955 C9.18778223,23.8120805 8.96982071,24.1483967 9.00335325,24.5749441 C9.0368858,24.9194631 9.22969791,25.1491424 9.58178959,25.2639821 L16.8751174,27.5033557 L17.0008644,27.5525727 L17.4284043,26.3221477 L11.0404551,24.3534676 L30.6569919,14.3624161 L19.6918508,26.5190157 C19.205629,27.0604027 18.9625181,27.6428039 18.9625181,28.2662192 L18.9625181,33.409396 C18.9792843,33.5734526 19.050541,33.7129008 19.176288,33.8277405 C19.3020351,33.9425802 19.4529315,34 19.6289773,34 C19.8050232,34 19.9559196,33.9425802 20.0816666,33.8277405 C20.2074137,33.7129008 20.2786703,33.5734526 20.2954366,33.409396 C20.3122029,30.2759135 20.3122029,28.5943326 20.2954366,28.3646532 C20.2954366,28.0365399 20.3876511,27.7658464 20.5720801,27.5525727 C22.4666687,25.4362416 26.3732097,21.1051454 32.2917033,14.5592841 L29.0725793,30.2348993 C29.0558131,30.300522 29.0222805,30.3333333 28.9719817,30.3333333 L21.8798492,28.2416107 L21.7541021,28.2170022 L21.3265622,29.4474273 L21.4523093,29.4966443 L23.8415029,30.1856823 C24.4953874,30.3825503 25.1576551,30.5794183 25.8283059,30.7762864 L28.61989,31.6129754 C28.7540202,31.6457867 28.8797672,31.6621924 28.9971311,31.6621924 C29.3324565,31.6621924 29.6300578,31.5555556 29.889935,31.3422819 C30.1498122,31.1290082 30.3132834,30.8501119 30.3803484,30.5055928 L31.7887152,23.6644295 C33.2138482,16.8068606 33.9347978,13.3042506 33.9515641,13.1565996 L33.9767135,13.082774 C34.0605449,12.5741984 33.9180316,12.2296793 33.5491736,12.049217 Z" id="Shape" fill="#E71A22"></path>
            </g>
        </g>
    </g>
</svg>