<?xml version="1.0" encoding="UTF-8" standalone="no"?>
<svg width="51px" height="43px" viewBox="0 0 51 43" version="1.1" xmlns="http://www.w3.org/2000/svg" xmlns:xlink="http://www.w3.org/1999/xlink">
    <!-- Generator: Sketch 50.2 (55047) - http://www.bohemiancoding.com/sketch -->
    <title>拆条</title>
    <desc>Created with Sketch.</desc>
    <defs></defs>
    <g id="官网" stroke="none" stroke-width="1" fill="none" fill-rule="evenodd">
        <g id="Artboard" transform="translate(-129.000000, -1790.000000)" fill-rule="nonzero" stroke="#FFFFFF">
            <g id="拆条" transform="translate(131.000000, 1791.000000)">
                <path d="M29.0769231,15.8525675 L29.0769231,11.6307692 L38.3479197,11.6307693 C42.7894642,11.6307693 46.500449,14.839862 47.3538462,19.1076923 L43.0351392,19.1076923 C42.2981144,17.2006495 40.4749477,15.8525675 38.3414547,15.8525675 L29.0769231,15.8525675 Z M38.344733,25.6858941 C40.4789809,25.6858941 42.3027927,24.3378121 43.0400784,22.4307692 L47.3538462,22.4307692 C46.5066144,26.6985996 42.7943165,29.9076923 38.3447329,29.9076923 L29.0769231,29.9076923 L29.0769231,25.6858941 L38.344733,25.6858941 Z M18.2769231,25.6858941 L18.2769231,29.9076923 L9.0091132,29.9076923 C4.56599709,29.9076923 0.853699177,26.6985996 -3.55271368e-15,22.4307692 L4.31376773,22.4307692 C5.05105336,24.3378121 6.87486521,25.6858941 9.00911315,25.6858941 L18.2769231,25.6858941 Z M9.0091132,15.8525675 C6.87486532,15.8525675 5.05752089,17.2006495 4.32023515,19.1076923 L-3.55271368e-15,19.1076923 C0.847231755,14.839862 4.55952966,11.6307692 9.0091132,11.6307692 L18.2769231,11.6307692 L18.2769231,15.8525675 L9.0091132,15.8525675 Z" id="Combined-Shape" stroke-width="2.2" fill="#3C3C3C"></path>
                <path d="M23.6768967,0 C24.3663784,0 24.9293497,0.581758812 24.9230241,1.30234647 L24.9230241,6.17457661 C24.9230241,6.89516426 24.3663784,7.47692308 23.6768967,7.47692308 C22.987415,7.47692308 22.4307692,6.89516426 22.4307692,6.17457661 L22.4307692,1.30234647 C22.4307692,0.581758812 22.987415,0 23.6768967,0 Z M15.431391,2.8591438 L18.7408562,6.16860902 C19.229971,6.65772384 19.229971,7.45174138 18.7408562,7.9408562 C18.2517414,8.42997101 17.4577238,8.42997101 16.968609,7.9408562 L13.6591438,4.63139098 C13.170029,4.14227616 13.170029,3.34825862 13.6591438,2.8591438 C14.1482586,2.37002899 14.9422762,2.37002899 15.431391,2.8591438 Z M30.3852371,7.9408562 C29.8961223,8.42997101 29.1021048,8.42997101 28.61299,7.9408562 C28.1238751,7.45174138 28.1238751,6.65772384 28.61299,6.16860902 L31.9224552,2.8591438 C32.41157,2.37002899 33.2055875,2.37002899 33.6947023,2.8591438 C34.1838172,3.34825862 34.1838172,4.14227616 33.6947023,4.63139098 L30.3852371,7.9408562 Z M23.6768967,34.0615385 C24.3663784,34.0615385 24.9293497,34.6432973 24.9230241,35.3638849 L24.9230241,40.2361151 C24.9230241,40.9567027 24.3663784,41.5384615 23.6768967,41.5384615 C22.987415,41.5384615 22.4307692,40.9567027 22.4307692,40.2361151 L22.4307692,35.3638849 C22.4307692,34.6432973 22.987415,34.0615385 23.6768967,34.0615385 Z M16.968609,33.5976053 C17.4577238,33.1084905 18.2517414,33.1084905 18.7408562,33.5976053 C19.229971,34.0867202 19.229971,34.8807377 18.7408562,35.3698525 L15.431391,38.6793177 C14.9422762,39.1684326 14.1482586,39.1684326 13.6591438,38.6793177 C13.170029,38.1902029 13.170029,37.3961854 13.6591438,36.9070706 L16.968609,33.5976053 Z M30.3852372,33.5976053 L33.6947023,36.9070706 C34.1838172,37.3961854 34.1838172,38.1902029 33.6947023,38.6793177 C33.2055875,39.1684325 32.41157,39.1684325 31.9224552,38.6793177 L28.61299,35.3698525 C28.1238751,34.8807377 28.1238751,34.0867202 28.61299,33.5976053 C29.1021048,33.1084905 29.8961223,33.1084905 30.3852372,33.5976053 Z" id="Combined-Shape" stroke-width="0.8" fill="#E71A22"></path>
            </g>
        </g>
    </g>
</svg>