<?xml version="1.0" encoding="UTF-8" standalone="no"?>
<svg width="39px" height="39px" viewBox="0 0 39 39" version="1.1" xmlns="http://www.w3.org/2000/svg" xmlns:xlink="http://www.w3.org/1999/xlink">
    <!-- Generator: Sketch 50.2 (55047) - http://www.bohemiancoding.com/sketch -->
    <title>物品识别</title>
    <desc>Created with Sketch.</desc>
    <defs></defs>
    <g id="官网" stroke="none" stroke-width="1" fill="none" fill-rule="evenodd">
        <g id="Artboard" transform="translate(-377.000000, -1789.000000)" fill-rule="nonzero">
            <g id="物品识别" transform="translate(378.000000, 1790.000000)">
                <path d="M1.48346116,14.3605757 C2.30348553,14.3605757 2.96692233,13.6956195 2.96692233,12.8737171 L2.96692233,4.42340426 C2.96692233,3.63867334 3.71689436,2.97371715 4.59048815,2.97371715 L12.8236976,2.97371715 C13.643722,2.97371715 14.3071588,2.30876095 14.3071588,1.48685857 C14.3071588,0.664956195 13.643722,0 12.8236976,0 L4.59048815,0 C2.06448345,0 0,1.9824781 0,4.42340426 L0,12.8737171 C0,13.6956195 0.663436798,14.3605757 1.48346116,14.3605757 Z M32.4136264,0 L24.2175035,0 C23.3974791,0 22.7340423,0.664956195 22.7340423,1.48685857 C22.7340423,2.30876095 23.3974791,2.97371715 24.2175035,2.97371715 L32.4095057,2.97371715 C33.2830995,2.97371715 34.0330715,3.63867334 34.0330715,4.42340426 L34.0330715,12.8737171 C34.0330715,13.6956195 34.6965083,14.3605757 35.5165327,14.3605757 C36.336557,14.3605757 36.9999938,13.6956195 36.9999938,12.8737171 L36.9999938,4.42340426 C37.0041146,1.9824781 34.9396311,0 32.4136264,0 Z" id="Shape" stroke="#FFFFFF" fill="#3C3C3C"></path>
                <path d="M35.520641,23 C34.7006169,23 34.0371803,23.6445525 34.0371803,24.4412353 L34.0371803,32.7123248 C34.0371803,33.4729768 33.2872086,34.1175293 32.4136151,34.1175293 L24.217495,34.1175293 C23.3974709,34.1175293 22.7340344,34.7620818 22.7340344,35.5587647 C22.7340344,36.3554475 23.3974709,37 24.217495,37 L32.4094944,37 C34.9354982,37 36.9999809,35.0783529 36.9999809,32.7123248 L36.9999809,24.4412353 C37.0041016,23.6445525 36.3406651,23 35.520641,23 Z M12.8278139,34.1175293 L4.59048655,34.1175293 C3.71689306,34.1175293 2.96692129,33.4729768 2.96692129,32.7123248 L2.96692129,24.4412353 C2.96692129,23.6445525 2.30348472,23 1.48346064,23 C0.663436566,23 0,23.6445525 0,24.4412353 L0,32.7123248 C0,35.0783529 2.06448273,37 4.59048655,37 L12.8236931,37 C13.6437172,37 14.3071538,36.3554475 14.3071538,35.5587647 C14.3071538,34.7620818 13.6437172,34.1175293 12.8278139,34.1175293 Z" id="Shape" stroke="#FFFFFF" fill="#3C3C3C"></path>
                <path d="M15.7272758,16.8375009 C15.5079429,16.8375009 15.3181895,17.0257806 15.3181895,17.2579619 L15.3181895,23.8420456 C15.3181895,24.0789566 15.5013671,24.2625066 15.7272758,24.2625066 C15.9466087,24.2625066 16.1363621,24.074227 16.1363621,23.8420456 L16.1363621,17.2579619 C16.1363621,17.0210509 15.9532069,16.8375009 15.7272758,16.8375009 Z M22.2727242,16.8375009 C22.0533913,16.8375009 21.8636379,17.0257806 21.8636379,17.2579619 L21.8636379,23.8420456 C21.8636379,24.0789566 22.0468155,24.2625066 22.2727242,24.2625066 C22.4920571,24.2625066 22.6818105,24.074227 22.6818105,23.8420456 L22.6818105,17.2579619 C22.681833,17.0210509 22.4986553,16.8375009 22.2727242,16.8375009 Z M23.0905377,11.2048403 C23.0744238,9.97640629 22.0895465,9 20.8767631,9 L17.1231919,9 C15.9061893,9 14.9256434,9.98437197 14.9094847,11.2048403 L14.9091031,11.2048403 L14.9091031,11.2354131 L14.9091031,11.827385 L15.7269391,11.827385 L15.7272758,11.1723213 C15.7272758,10.4282321 16.3196969,9.82499058 17.051824,9.82499058 L20.9481311,9.82499058 C21.6797196,9.82499058 22.2727242,10.4269648 22.2727242,11.1723213 L22.2730608,11.8274755 L23.0908968,11.8274755 L23.0905377,11.2048403 Z M25.783824,13.5374934 L23.0909193,13.5374934 L23.0909417,12.7125028 L22.2727017,12.7125028 L22.2727242,13.5374934 L15.7272758,13.5374934 L15.7273207,12.7125028 L14.9090807,12.7125028 L14.9090807,13.5374934 L12.2161535,13.5374934 C10.993428,13.5374934 10,14.5393808 10,15.7753278 L10,25.3246571 C10,26.5644285 10.9911164,27.5614279 12.214201,27.5624915 C12.5290503,28.293727 13.2508538,28.8 14.0909081,28.8 C14.9354958,28.8 15.6535065,28.2909209 15.9673234,27.5624915 L22.0323849,27.5624915 C22.3472341,28.293727 23.0690376,28.8 23.9090919,28.8 C24.7536797,28.8 25.4716903,28.2909209 25.7855072,27.5624915 C27.0074921,27.5615863 28,26.5600384 28,25.3246571 L28,15.7753278 C28,14.5349227 27.0077839,13.5374934 25.783824,13.5374934 Z M27.1818273,25.3896271 C27.1818273,26.1340105 26.5800252,26.7375009 25.8565833,26.7375009 L25.1363733,26.7375009 C25.1362835,27.420965 24.5915981,27.9750094 23.9090919,27.9750094 C23.2313435,27.9750094 22.6818778,27.4187473 22.6818105,26.7375009 L15.3181894,26.7375009 C15.3180997,27.420965 14.7733694,27.9750094 14.0909081,27.9750094 C13.4131597,27.9750094 12.863694,27.4187473 12.8636267,26.7375009 L12.1434166,26.7375009 C11.411469,26.7375009 10.8181726,26.1406636 10.8181726,25.3896271 L10.8181726,15.7104257 C10.8181726,14.9659971 11.4199748,14.3625066 12.1434166,14.3625066 L25.8565609,14.3625066 C26.5884412,14.3625066 27.1818049,14.9594118 27.1818049,15.7104257 L27.1818049,25.3896271 L27.1818273,25.3896271 Z" id="Shape" stroke="#E71A22" stroke-width="0.2" fill="#E71A22"></path>
            </g>
        </g>
    </g>
</svg>