<?xml version="1.0" encoding="UTF-8" standalone="no"?>
<svg width="40px" height="44px" viewBox="0 0 40 44" version="1.1" xmlns="http://www.w3.org/2000/svg" xmlns:xlink="http://www.w3.org/1999/xlink">
    <!-- Generator: Sketch 50.2 (55047) - http://www.bohemiancoding.com/sketch -->
    <title>人物-2</title>
    <desc>Created with Sketch.</desc>
    <defs></defs>
    <g id="解决方案" stroke="none" stroke-width="1" fill="none" fill-rule="evenodd">
        <g id="直播" transform="translate(-151.000000, -490.000000)" fill-rule="nonzero">
            <g id="人物-2" transform="translate(152.000000, 491.000000)">
                <path d="M2.7716432,39.2410246 L2.7716432,36.8831773 C2.7716432,28.8674271 8.92839461,22.2610732 16.772302,21.5167616 L16.7689105,21.5150023 C16.7689105,21.5150023 16.7768805,21.5150023 16.7893725,21.5153428 C17.2701736,21.4699974 17.7565705,21.4445155 18.2491287,21.4445155 C18.323346,21.4445155 18.3963762,21.4487719 18.4702542,21.4496232 C20.2048912,21.3145518 22.8296826,20.9053081 24.2017686,19.6757611 L24.8729456,19.1504581 C27.4957587,17.0940243 29,14.0219444 29,10.7223996 C29,4.8098474 24.1765585,-5.19586826e-10 18.2470373,0 C12.3175726,0 7.49407463,4.8098474 7.49407463,10.7223996 C7.49407463,14.0220011 8.998429,17.0940811 11.6210725,19.1504581 L12.292419,19.6757611 L11.5014657,19.9910223 C4.5146458,22.7762741 0,29.4065209 0,36.8830638 L0,40.6201718 C0,41.3808281 0.621208932,42 1.38548245,42 L21.6324847,42 C20.9704216,41.1479307 20.4083078,40.2221339 19.9572555,39.2409111 L2.7716432,39.2409111 L2.7716432,39.2410246 Z M10.2657744,10.7223996 C10.2657744,6.33098981 13.8459501,2.75863485 18.2470373,2.75863485 C22.6481245,2.75863485 26.2290351,6.33098981 26.2290351,10.7223996 C26.2290351,15.1138094 22.6481245,18.6860509 18.2470373,18.6860509 C13.8459501,18.6860509 10.2657744,15.1138662 10.2657744,10.7223996 Z" id="Shape" stroke="#EAEAEA" fill="#464646"></path>
                <path d="M28.4986009,41.25 C33.8668363,41.25 38.2498464,36.657724 38.25,30.9973559 C38.25,25.3401545 33.8669124,20.75 28.4986009,20.75 C23.1318157,20.75 18.7498464,25.340109 18.75,30.9973559 C18.75,36.6576136 23.1320721,41.25 28.4986009,41.25 Z" id="Shape" stroke="#464646" stroke-width="1.5"></path>
                <path d="M28.8436125,33.5215578 C29.1091237,33.7870704 29.0284045,34.298275 28.6633116,34.6633099 C28.2982187,35.0284047 27.7870767,35.1091243 27.5215655,34.8436117 L24.1563875,31.4784163 C23.8908763,31.2129037 23.9715955,30.7016991 24.3366884,30.3366642 C24.7017813,29.9715694 25.2129233,29.8909096 25.4784345,30.1563624 L28.8436125,33.5215578 Z" id="Shape" fill="#E81A23"></path>
                <path d="M33.6705336,28.3294438 C34.029147,28.6880583 34.1070992,29.1916296 33.8445577,29.454172 L28.4541907,34.8445572 C28.1916492,35.1070996 27.6880797,35.0291471 27.3294664,34.6705325 C26.970853,34.311918 26.8929008,33.8083468 27.1554423,33.5458044 L32.5458093,28.1554191 C32.8083508,27.8929315 33.3119203,27.9708293 33.6705336,28.3294438 Z" id="Shape" fill="#E81A23"></path>
            </g>
        </g>
    </g>
</svg>