<?xml version="1.0" encoding="UTF-8" standalone="no"?>
<svg width="47px" height="48px" viewBox="0 0 47 48" version="1.1" xmlns="http://www.w3.org/2000/svg" xmlns:xlink="http://www.w3.org/1999/xlink">
    <!-- Generator: Sketch 50.2 (55047) - http://www.bohemiancoding.com/sketch -->
    <title>自然语言</title>
    <desc>Created with Sketch.</desc>
    <defs></defs>
    <g id="官网" stroke="none" stroke-width="1" fill="none" fill-rule="evenodd">
        <g id="Artboard" transform="translate(-77.000000, -1786.000000)">
            <g id="自然语言" transform="translate(78.000000, 1787.000000)">
                <path d="M44.1,15.9586815 C44.2285714,15.5756732 44.3571428,15.1926648 44.3571428,14.681987 C44.3571428,13.277623 43.2,12.1285979 41.7857143,12.1285979 C40.3714286,12.1285979 39.2142857,13.277623 39.2142857,14.681987 C39.2142857,16.086351 40.3714286,17.235376 41.7857143,17.235376 C42.1714286,18.8950789 42.4285714,20.6824513 42.4285714,22.3421541 C42.4285714,33.321727 33.4285714,42.1309192 22.5,42.1309192 C19.0285714,42.1309192 15.6857143,41.237233 12.7285714,39.5775302 L12.2142857,39.3221913 L4.8857143,42.1309192 L8.22857142,36.0027855 L7.5857143,35.2367688 C4.49999998,31.6620241 2.7,27.0659239 2.7,22.3421541 C2.7,11.3625813 11.7,2.55338905 22.6285714,2.55338905 C26.8714286,2.55338905 30.8571428,3.83008357 34.2,6.25580317 L32.9142857,7.66016714 L38.9571428,9.06453111 L37.1571429,2.93639739 L35.8714286,4.34076136 C32.0142857,1.53203342 27.2571429,0 22.5,0 C10.0285714,0 0,9.95821729 0,22.3421541 C0,27.3212628 1.67142856,32.1727019 4.8857143,36.1304549 L0.385714273,45.8333333 L11.9571429,42.0032498 C15.1714286,43.6629526 18.9,44.6843083 22.5,44.6843083 C34.9714286,44.6843083 45,34.5984215 45,22.3421541 C45,20.1717734 44.7428572,18.0013928 44.1,15.9586815 Z" id="Shape" stroke="#FFFFFF" stroke-width="0.6" fill="#3C3C3C" fill-rule="nonzero"></path>
                <path d="M26.953125,22.6708333 L29.0364583,29 L32.03125,29 L24.4791667,8.33333333 L21.3541667,8.33333333 L13.8020833,29 L16.6666667,29 L18.8802083,22.6708333 L26.953125,22.6708333 Z M20.5729167,17.375 C21.3541667,15.05 22.1354166,12.8541667 22.7864583,10.4 L22.9166667,10.4 C23.6979167,12.8541667 24.3489583,15.05 25.1302083,17.375 L26.171875,20.475 L19.4010417,20.475 L20.5729167,17.375 Z" id="Shape" stroke="#FFFFFF" stroke-width="0.5" fill="#E71A22" fill-rule="nonzero"></path>
                <polygon id="Path" fill="#E71A22" points="12.5 31.5833333 33.3333333 31.5833333 33.3333333 33.0833333 12.5 33.0833333"></polygon>
            </g>
        </g>
    </g>
</svg>