<?xml version="1.0" encoding="UTF-8" standalone="no"?>
<svg width="46px" height="46px" viewBox="0 0 46 46" version="1.1" xmlns="http://www.w3.org/2000/svg" xmlns:xlink="http://www.w3.org/1999/xlink">
    <!-- Generator: Sketch 50.2 (55047) - http://www.bohemiancoding.com/sketch -->
    <title>文章搜索</title>
    <desc>Created with Sketch.</desc>
    <defs></defs>
    <g id="解决方案" stroke="none" stroke-width="1" fill="none" fill-rule="evenodd">
        <g id="直播" transform="translate(-101.000000, -438.000000)">
            <g id="文章搜索" transform="translate(102.000000, 439.000000)">
                <path d="M35.6215022,1.56215936e-15 L2.37849779,1.56215936e-15 C1.06332842,1.56215936e-15 0,1.06937173 0,2.39201571 L0,40.6079843 C0,41.9306283 1.06332842,43 2.37849779,43 L28.7938144,43 L28.8217968,40.5517016 L3.32989691,40.5517016 C2.99410898,40.5517016 2.40648012,39.9325916 2.40648012,39.5948953 L2.40648012,3.09554974 C2.40648012,2.7578534 2.85419735,2.44829843 3.18998527,2.44829843 L34.6980854,2.44829843 C35.5655376,2.36387435 35.5655376,3.34882199 35.5655376,3.68651832 L35.5655376,22.9070681 L38,22.822644 L38,2.39201571 C38,1.06937173 36.9366716,0 35.6215022,1.56215936e-15 Z" id="Shape" stroke="#FFFFFF" stroke-width="0.7" fill="#464646" fill-rule="nonzero"></path>
                <path d="M30.2561399,13.5 L7.88594819,13.5 C7.38760233,13.5 7,13.1686047 7,12.75 C7,12.3313953 7.38760233,12 7.88594819,12 L30.228454,12 C30.7267999,12 31.1144022,12.3313953 31.1144022,12.75 C31.1144022,13.1686047 30.7267999,13.5 30.2561399,13.5 Z" id="Path" fill="#464646"></path>
                <path d="M30.2561399,21.7348231 L7.88594819,21.7348231 C7.38760233,21.7348231 7,21.4034278 7,20.9848231 C7,20.5662185 7.38760233,20.2348231 7.88594819,20.2348231 L30.228454,20.2348231 C30.7267999,20.2348231 31.1144022,20.5662185 31.1144022,20.9848231 C31.1144022,21.4034278 30.7267999,21.7348231 30.2561399,21.7348231 Z" id="Path" fill="#464646"></path>
                <path d="M22.0057474,31.1341667 L7.88594819,31.1341667 C7.38760233,31.1341667 7,30.8027713 7,30.3841667 C7,29.965562 7.38760233,29.6341667 7.88594819,29.6341667 L21.9780615,29.6341667 C22.4764074,29.6341667 22.8640097,29.965562 22.8640097,30.3841667 C22.8640097,30.8027713 22.4764074,31.1341667 22.0057474,31.1341667 Z" id="Path" fill="#464646"></path>
                <path d="M34.3259644,41.4180044 C29.9515952,41.4180044 26.4078025,37.8412631 26.4078025,33.4881748 C26.4078025,29.1350865 29.9792811,25.5583451 34.3259644,25.5583451 C38.6726477,25.5583451 42.2441263,29.1350865 42.2441263,33.4881748 C42.2441263,37.8412631 38.7003336,41.4180044 34.3259644,41.4180044 Z M34.3259644,27.8319326 C31.2251457,27.8319326 28.7057306,30.3550603 28.7057306,33.4604481 C28.7057306,36.5658359 31.2251457,39.0889636 34.3259644,39.0889636 C37.426783,39.0889636 39.9461982,36.5658359 39.9461982,33.4604481 C39.9738841,30.3550603 37.426783,27.8319326 34.3259644,27.8319326 Z" id="Combined-Shape" fill="#E81A23"></path>
                <path d="M43.7391639,44.9947458 C43.4623051,45.0224725 43.2131321,44.9392924 43.0470168,44.7729324 L39.6970253,41.0575576 C39.3647947,40.6971108 39.5032241,40.0316706 40.00157,39.5880437 C40.4999158,39.1444169 41.164377,39.0612369 41.4689216,39.4216837 L44.8189132,43.1093317 C45.1511438,43.4697785 45.0127144,44.1352188 44.5143685,44.5788456 C44.3205674,44.8283857 44.0160227,44.9670191 43.7391639,44.9947458 Z" id="Path" fill="#E81A23"></path>
            </g>
        </g>
    </g>
</svg>