<?xml version="1.0" encoding="UTF-8" standalone="no"?>
<svg width="45px" height="45px" viewBox="0 0 45 45" version="1.1" xmlns="http://www.w3.org/2000/svg" xmlns:xlink="http://www.w3.org/1999/xlink">
    <!-- Generator: Sketch 50.2 (55047) - http://www.bohemiancoding.com/sketch -->
    <title>精度</title>
    <desc>Created with Sketch.</desc>
    <defs></defs>
    <g id="官网" stroke="none" stroke-width="1" fill="none" fill-rule="evenodd">
        <g id="Artboard" transform="translate(-75.000000, -1688.000000)" fill-rule="nonzero">
            <g id="精度" transform="translate(75.000000, 1688.000000)">
                <path d="M22.5,44 C34.3508402,44 44,34.3508402 44,22.5 C44,10.6491598 34.3508402,1 22.5,1 C10.6491598,1 1,10.6491598 1,22.5 C1,34.3508402 10.6491598,44 22.5,44 Z" id="Shape" stroke="#3C3C3C" stroke-width="2"></path>
                <path d="M38.1428572,23 C37.5142857,23 37.0000001,22.55 37,22 C36.9999999,21.45 37.5142857,21 38.1428572,21 L43.8571428,21 C44.4857143,21 44.9999999,21.45 45,22 C45.0000001,22.55 44.4857143,23 43.8571428,23 L38.1428572,23 Z" id="Shape" fill="#3C3C3C"></path>
                <path d="M1.14285718,23 C0.514285732,23 5.46874996e-08,22.55 0,22 C-5.46874996e-08,21.45 0.514285732,21 1.14285718,21 L6.85714282,21 C7.48571427,21 7.99999995,21.45 8,22 C8.00000005,22.55 7.48571427,23 6.85714282,23 L1.14285718,23 Z" id="Shape" fill="#3C3C3C"></path>
                <path d="M23,45 C22.45,45 22,44.49375 22,43.875 L22,38.25 C22,37.63125 22.45,37.125 23,37.125 C23.55,37.1249999 24,37.63125 24,38.25 L24,43.875 C24,44.49375 23.55,44.9999999 23,45 Z M23,7.87500003 C22.45,7.87500003 22,7.36875001 22,6.74999999 L22,1.12500004 C22,0.506250019 22.45,5.38330076e-08 23,0 C23.55,-5.38330076e-08 24,0.506250019 24,1.12500004 L24,6.74999999 C24,7.36875001 23.55,7.87499998 23,7.87500003 Z" id="Shape" fill="#3C3C3C"></path>
                <path d="M23,29.249972 C26.4547841,29.218424 29.25,26.3940344 29.25,22.9563739 C29.25,20.7453087 28.0531326,18.6802797 26.1276622,17.5790941 C24.1947197,16.4736353 21.8052803,16.4736353 19.8723378,17.5790941 C17.9468674,18.6802797 16.75,20.7453087 16.75,22.9563739 C16.75,26.3940344 19.5452159,29.218424 23,29.249972 Z" id="Shape" stroke="#E71A22" stroke-width="1.5"></path>
            </g>
        </g>
    </g>
</svg>