<?xml version="1.0" encoding="UTF-8" standalone="no"?>
<svg width="43px" height="42px" viewBox="0 0 43 42" version="1.1" xmlns="http://www.w3.org/2000/svg" xmlns:xlink="http://www.w3.org/1999/xlink">
    <!-- Generator: Sketch 50.2 (55047) - http://www.bohemiancoding.com/sketch -->
    <title>功能丰富</title>
    <desc>Created with Sketch.</desc>
    <defs></defs>
    <g id="官网" stroke="none" stroke-width="1" fill="none" fill-rule="evenodd">
        <g id="Artboard" transform="translate(-201.000000, -1689.000000)">
            <g id="功能丰富" transform="translate(201.000000, 1689.000000)">
                <path d="M15.8545235,25.4197771 L1.74013063,25.4197771 C1.27482945,25.4197771 0.9,25.7921687 0.9,26.2485903 L0.9,40.2711867 C0.9,40.7276083 1.27482945,41.1 1.74013063,41.1 L15.8545235,41.1 C16.0785738,41.1 16.2930923,41.0117214 16.4506652,40.8551734 C16.6071048,40.6997512 16.6946541,40.4897631 16.6946541,40.2711867 L16.6946541,26.2485903 C16.6946541,25.7921687 16.3198247,25.4197771 15.8545235,25.4197771 Z M15.8545235,5.20226649 L1.74013063,5.20226649 C1.27482945,5.20226649 0.9,5.57465815 0.9,6.03107975 L0.9,20.0536762 C0.9,20.5100978 1.27482945,20.8824894 1.74013063,20.8824894 L15.8545235,20.8824894 C16.3198247,20.8824894 16.6946541,20.5100978 16.6946541,20.0536762 L16.6946541,6.03107975 C16.6946541,5.57465815 16.3198247,5.20226649 15.8545235,5.20226649 Z M36.9294389,25.4197771 L22.815046,25.4197771 C22.3497448,25.4197771 21.9749154,25.7921687 21.9749154,26.2485903 L21.9749154,40.2711867 C21.9749154,40.7276083 22.3497448,41.1 22.815046,41.1 L36.9294389,41.1 C37.1534892,41.1 37.3680077,41.0117214 37.5255805,40.8551734 C37.6820202,40.6997512 37.7695695,40.4897631 37.7695695,40.2711867 L37.7695695,26.2485903 C37.7695695,25.7921687 37.39474,25.4197771 36.9294389,25.4197771 Z" id="Shape" stroke="#3C3C3C" stroke-width="1.8" fill-rule="nonzero"></path>
                <path d="M41.9605169,10.9821324 L41.9583057,10.9799341 L32.0012553,1.03962079 C31.8154605,0.85439226 31.562407,0.75 31.2981828,0.75 C31.0339586,0.75 30.7809051,0.85439226 30.5954741,1.03925785 L20.6358487,10.9821324 C20.450349,11.1657869 20.3463656,11.4145813 20.3463656,11.6737341 C20.3463656,11.932887 20.450349,12.1816814 20.6367732,12.3662527 L30.5951103,22.2598249 C30.7809051,22.4450534 31.0339586,22.5494457 31.2981828,22.5494457 C31.562407,22.5494457 31.8154605,22.4450534 32.0021782,22.2589064 L41.9605169,12.3653359 C42.1460166,12.1816814 42.25,11.932887 42.25,11.6737341 C42.25,11.4145813 42.1460166,11.1657869 41.9605169,10.9821324 Z" id="Path" stroke="#E71A22" stroke-width="1.5"></path>
            </g>
        </g>
    </g>
</svg>