<?xml version="1.0" encoding="UTF-8" standalone="no"?>
<svg width="42px" height="42px" viewBox="0 0 42 42" version="1.1" xmlns="http://www.w3.org/2000/svg" xmlns:xlink="http://www.w3.org/1999/xlink">
    <!-- Generator: Sketch 50.2 (55047) - http://www.bohemiancoding.com/sketch -->
    <title>稳定</title>
    <desc>Created with Sketch.</desc>
    <defs></defs>
    <g id="官网" stroke="none" stroke-width="1" fill="none" fill-rule="evenodd">
        <g id="Artboard" transform="translate(-258.000000, -1689.000000)" fill-rule="nonzero">
            <g id="稳定" transform="translate(258.000000, 1689.000000)">
                <path d="M21,1 C9.95306599,1 1,9.95306599 1,21 C1,32.046934 9.95306599,41 21,41 C32.046934,41 41,32.046934 41,21 C41,9.95306599 32.046934,1 21,1 Z" id="Shape" stroke="#3C3C3C" stroke-width="2"></path>
                <path d="M30.2184003,24.0172308 C30.08247,24.0172308 29.9465396,24.0272 29.8139246,24.0471385 L23.1798591,12.5293538 C23.5578118,12.0508308 23.7865727,11.4493539 23.7865727,10.7913846 C23.7865727,9.25279999 22.5366763,8 21.0016577,8 C19.466639,8 18.2167426,9.25279999 18.2167426,10.7913846 C18.2167426,11.4626462 18.4521343,12.0774154 18.8466639,12.5592615 L12.2258599,24.0537846 C12.0832988,24.0305231 11.9341069,24.0172308 11.784915,24.0172308 C10.2498964,24.0172308 9,25.2700307 9,26.8086154 C9,28.3472 10.2498964,29.6 11.784915,29.6 C12.9718193,29.6 13.9830087,28.8523077 14.3841691,27.8055385 L27.6158309,27.8055385 C28.0169913,28.8523077 29.0314961,29.6 30.215085,29.6 C31.7501036,29.6 33,28.3472 33,26.8086154 C33,25.2700307 31.753419,24.0172308 30.2184003,24.0172308 Z M13.9465396,25.0540308 L20.5739743,13.5495384 C20.71322,13.5728 20.8557812,13.5827692 21.0016577,13.5827692 C21.1607957,13.5827692 21.3166183,13.5694769 21.4658102,13.5428923 L28.0799834,25.0241231 C27.8843763,25.2567385 27.7285537,25.5225846 27.6191463,25.8116923 L14.3841691,25.8116923 C14.2780771,25.5358769 14.1322006,25.28 13.9465396,25.0540308 Z M21.0016577,9.99384615 C21.4392872,9.99384615 21.7973477,10.3527385 21.7973477,10.7913846 C21.7973477,11.2300308 21.4392872,11.5889231 21.0016577,11.5889231 C20.9055118,11.5889231 20.8159967,11.5723077 20.7297969,11.5424 C20.6966432,11.5158154 20.6601741,11.4925538 20.6237049,11.4692923 C20.5839204,11.4460308 20.5408205,11.4260923 20.4977207,11.4094769 C20.3186904,11.2632615 20.2059677,11.0406154 20.2059677,10.7913846 C20.2059677,10.3527385 20.5640282,9.99384615 21.0016577,9.99384615 Z M11.784915,27.6061538 C11.3472855,27.6061538 10.989225,27.2472615 10.989225,26.8086154 C10.989225,26.3699692 11.3472855,26.0110769 11.784915,26.0110769 C12.2225446,26.0110769 12.5806051,26.3699692 12.5806051,26.8086154 C12.5806051,27.2472615 12.2225446,27.6061538 11.784915,27.6061538 Z M30.2184003,27.6061538 C29.8039785,27.6061538 29.4624948,27.2871385 29.4260257,26.8817231 C29.4293411,26.8584615 29.4293411,26.8318769 29.4293411,26.8086154 C29.429341,26.7853538 29.4293411,26.7587692 29.4260257,26.7355077 C29.4624948,26.3300923 29.8039785,26.0110769 30.2184003,26.0110769 C30.6560298,26.0110769 31.0140904,26.3699692 31.0140904,26.8086154 C31.0140904,27.2472615 30.6560298,27.6061538 30.2184003,27.6061538 Z" id="Shape" stroke="#FFFFFF" stroke-width="0.6" fill="#E71A22"></path>
            </g>
        </g>
    </g>
</svg>