<?xml version="1.0" encoding="UTF-8" standalone="no"?>
<svg width="39px" height="39px" viewBox="0 0 39 39" version="1.1" xmlns="http://www.w3.org/2000/svg" xmlns:xlink="http://www.w3.org/1999/xlink">
    <!-- Generator: Sketch 50.2 (55047) - http://www.bohemiancoding.com/sketch -->
    <title>语音识别</title>
    <desc>Created with Sketch.</desc>
    <defs></defs>
    <g id="官网" stroke="none" stroke-width="1" fill="none" fill-rule="evenodd">
        <g id="Artboard" transform="translate(-310.000000, -1789.000000)">
            <g id="语音识别" transform="translate(311.000000, 1790.000000)">
                <path d="M14.6,12.2430311 L14.6,19.7540175 C14.6,21.7703792 16.1373516,23.4 18.0055749,23.4 C19.8721554,23.4 21.4,21.7749907 21.4,19.7540175 L21.4,12.2430311 C21.4,10.225986 19.8675555,8.60000343 17.999197,8.60000289 C16.1331776,8.5975054 14.6,10.2250479 14.6,12.2430311 Z" id="Shape" stroke="#E71A22" stroke-width="1.2" fill-rule="nonzero"></path>
                <path d="M23.2136991,25.3304586 C24.636041,23.9048593 25.4184948,22.0107063 25.4184948,19.9969226 C25.4184948,19.4452921 24.9742202,19 24.4238501,19 C23.8734801,19 23.4292055,19.4452921 23.4292055,19.9969226 C23.4292055,23.0574751 20.9459092,25.5464585 17.89235,25.5464585 C14.8387908,25.5464585 12.3554946,23.0574751 12.3554946,19.9969226 C12.3554946,19.4452921 11.9112199,19 11.3608499,19 C10.8104798,19 10.3662052,19.4452921 10.3662052,19.9969226 C10.3662052,22.0107063 11.148659,23.9048593 12.5710009,25.3304586 C13.7579436,26.5201196 15.266488,27.2611654 16.9043363,27.4738423 L16.9043363,28.0088574 L12.4914293,28.0088574 C11.9410593,28.0088574 11.4967846,28.4541495 11.4967846,29.00578 C11.4967846,29.5574105 11.9410593,30.0027026 12.4914293,30.0027026 L23.2667468,30.0027026 C23.8171169,30.0027026 24.2613915,29.5574105 24.2613915,29.00578 C24.2613915,28.4541495 23.8171169,28.0088574 23.2667468,28.0088574 L18.8903102,28.0088574 L18.8903102,27.4738423 C20.5215275,27.2578424 22.0300719,26.5167965 23.2136991,25.3304586 Z" id="Path" stroke="#FFFFFF" fill="#E71A22"></path>
                <path d="M1.48346116,14.3605757 C2.30348553,14.3605757 2.96692233,13.6956195 2.96692233,12.8737171 L2.96692233,4.42340426 C2.96692233,3.63867334 3.71689436,2.97371715 4.59048815,2.97371715 L12.8236976,2.97371715 C13.643722,2.97371715 14.3071588,2.30876095 14.3071588,1.48685857 C14.3071588,0.664956195 13.643722,0 12.8236976,0 L4.59048815,0 C2.06448345,0 0,1.9824781 0,4.42340426 L0,12.8737171 C0,13.6956195 0.663436798,14.3605757 1.48346116,14.3605757 Z M32.4136264,0 L24.2175035,0 C23.3974791,0 22.7340423,0.664956195 22.7340423,1.48685857 C22.7340423,2.30876095 23.3974791,2.97371715 24.2175035,2.97371715 L32.4095057,2.97371715 C33.2830995,2.97371715 34.0330715,3.63867334 34.0330715,4.42340426 L34.0330715,12.8737171 C34.0330715,13.6956195 34.6965083,14.3605757 35.5165327,14.3605757 C36.336557,14.3605757 36.9999938,13.6956195 36.9999938,12.8737171 L36.9999938,4.42340426 C37.0041146,1.9824781 34.9396311,0 32.4136264,0 Z" id="Shape" stroke="#FFFFFF" fill="#3C3C3C" fill-rule="nonzero"></path>
                <path d="M35.520641,23 C34.7006169,23 34.0371803,23.6445525 34.0371803,24.4412353 L34.0371803,32.7123248 C34.0371803,33.4729768 33.2872086,34.1175293 32.4136151,34.1175293 L24.217495,34.1175293 C23.3974709,34.1175293 22.7340344,34.7620818 22.7340344,35.5587647 C22.7340344,36.3554475 23.3974709,37 24.217495,37 L32.4094944,37 C34.9354982,37 36.9999809,35.0783529 36.9999809,32.7123248 L36.9999809,24.4412353 C37.0041016,23.6445525 36.3406651,23 35.520641,23 Z M12.8278139,34.1175293 L4.59048655,34.1175293 C3.71689306,34.1175293 2.96692129,33.4729768 2.96692129,32.7123248 L2.96692129,24.4412353 C2.96692129,23.6445525 2.30348472,23 1.48346064,23 C0.663436566,23 0,23.6445525 0,24.4412353 L0,32.7123248 C0,35.0783529 2.06448273,37 4.59048655,37 L12.8236931,37 C13.6437172,37 14.3071538,36.3554475 14.3071538,35.5587647 C14.3071538,34.7620818 13.6437172,34.1175293 12.8278139,34.1175293 Z" id="Shape" stroke="#FFFFFF" fill="#3C3C3C" fill-rule="nonzero"></path>
            </g>
        </g>
    </g>
</svg>