<?xml version="1.0" encoding="UTF-8" standalone="no"?>
<svg width="40px" height="40px" viewBox="0 0 40 40" version="1.1" xmlns="http://www.w3.org/2000/svg" xmlns:xlink="http://www.w3.org/1999/xlink">
    <!-- Generator: Sketch 50.2 (55047) - http://www.bohemiancoding.com/sketch -->
    <title>人物</title>
    <desc>Created with Sketch.</desc>
    <defs></defs>
    <g id="官网" stroke="none" stroke-width="1" fill="none" fill-rule="evenodd">
        <g id="Artboard" transform="translate(-260.000000, -1789.000000)" fill-rule="nonzero">
            <g id="人物" transform="translate(260.000000, 1789.000000)">
                <path d="M20,39 C30.4792028,39 39,30.4792028 39,20 C39,9.52079724 30.4792028,1 20,1 C9.52079724,1 1,9.52079724 1,20 C1,30.4792028 9.52079724,39 20,39 Z" id="Shape" stroke="#3C3C3C" stroke-width="2"></path>
                <path d="M22.9205426,24.0660194 C22.9205426,24.6640777 23.4108527,24.9631068 24.0290698,24.9631068 L29.8914729,24.9631068 C30.4883721,24.9631068 31,24.6640777 31,24.0660194 C31,23.4466019 30.5096899,23.2330097 29.8914729,23.2330097 L24.0077519,23.2330097 C23.4108527,23.2330097 22.9205426,23.4679612 22.9205426,24.0660194 M22.9205426,27.6970874 C22.9205426,28.2951456 23.4108527,28.5941748 24.0290698,28.5941748 L29.8914729,28.5941748 C30.4883721,28.5941748 31,28.2951456 31,27.6970874 C31,27.0776699 30.5096899,26.8640777 29.8914729,26.8640777 L24.0077519,26.8640777 C23.4108527,26.8640777 22.9205426,27.0990291 22.9205426,27.6970874 M26.3953488,20.968932 L26.4806202,20.968932 C27.0775194,20.968932 27.248062,20.8194175 27.248062,20.2 C27.248062,19.8582524 26.9922481,19.5592233 26.7364341,19.3669903 L26.6937984,19.3242718 C25.8410853,18.6621359 24.9670543,18.0427184 23.9437984,17.6582524 C25.244186,16.5475728 26.0542636,14.9029126 26.0542636,13.0660194 C26.0542636,9.71262136 23.3468992,7 20,7 C16.6531008,7 13.9457364,9.71262136 13.9457364,13.0660194 C13.9457364,14.9029126 14.7771318,16.5475728 16.0562016,17.6582524 C11.9418605,19.238835 9,23.2330097 9,27.9320388 C9,28.5300971 9.27713178,29 9.87403101,29 C10.4922481,29 10.5348837,28.5514563 10.5348837,27.9533981 C10.5348837,23.1048544 13.4554264,18.5126214 20,18.6194175 C21.9825581,18.6621359 24.3275194,19.4097087 25.7344961,20.6058252 C26.1395349,20.9048544 26.2248062,20.9262136 26.3953488,20.968932 M20.0213178,17.423301 C16.8875969,17.423301 15.3953488,15.1805825 15.3953488,13.0660194 C15.3953488,10.9514563 17.1007752,8.45242718 20.0213178,8.45242718 C23.4108527,8.45242718 24.6472868,10.9728155 24.6472868,13.0873786 C24.6472868,15.223301 22.6860465,17.5087379 20.0213178,17.423301" id="Shape" fill="#E71A22"></path>
            </g>
        </g>
    </g>
</svg>