<?xml version="1.0" encoding="UTF-8" standalone="no"?>
<svg width="50px" height="39px" viewBox="0 0 50 39" version="1.1" xmlns="http://www.w3.org/2000/svg" xmlns:xlink="http://www.w3.org/1999/xlink">
    <!-- Generator: Sketch 50.2 (55047) - http://www.bohemiancoding.com/sketch -->
    <title>OCR识别</title>
    <desc>Created with Sketch.</desc>
    <defs></defs>
    <g id="官网" stroke="none" stroke-width="1" fill="none" fill-rule="evenodd">
        <g id="Artboard" transform="translate(-195.000000, -1791.000000)" fill-rule="nonzero">
            <g id="OCR识别" transform="translate(196.000000, 1792.000000)">
                <path d="M9.0542166,17.7273796 L1.20571503,17.7273796 C0.543722932,17.7273796 0,18.2610427 0,18.9224557 C0,19.5786066 0.538361376,20.1175319 1.20571503,20.1175319 L9.0542166,20.1175319 C9.7162087,20.1175319 10.2599316,19.5841292 10.2599316,18.9224557 C10.2545701,18.2663048 9.7162087,17.7273796 9.0542166,17.7273796 Z M46.7942324,17.7273796 L38.9457834,17.7273796 C38.2837388,17.7273796 37.7400684,18.2609906 37.7400684,18.9224557 C37.7400684,19.5786066 38.2783772,20.1175319 38.9457834,20.1175319 L46.794285,20.1175319 C47.4562771,20.1175319 48,19.5841292 48,18.9224557 C47.9945859,18.2663048 47.4562245,17.7273796 46.7942324,17.7273796 Z M5.93343416,12.3614158 C5.93343416,12.4094523 5.94967647,13.5564398 7.13914919,13.5564398 C8.32856934,13.5564398 8.34481165,12.4094523 8.34481165,12.3614158 L8.34481165,4.9348861 C8.34481165,3.53182563 9.49670105,2.39010018 10.9122519,2.39010018 L18.4048946,2.39010018 C18.4533587,2.39010018 19.6105571,2.37400119 19.6105571,1.19507615 C19.6105571,0.0160989976 18.4533587,0 18.4048946,0 L10.9068904,0 C8.16188866,0 5.93343419,2.21405335 5.93343416,4.92957185 L5.93343416,12.3614158 Z M42.1903543,13.5564398 C43.3800373,13.5564398 43.3960693,12.4094523 43.3960693,12.3614158 L43.3960693,4.92957185 C43.3960167,2.20879121 41.1622533,0 38.4225605,0 L30.9245563,0 C30.8763025,0 29.7188413,0.0160989976 29.7188413,1.19507615 C29.7188413,2.37400119 30.8763025,2.39010018 30.9245563,2.39010018 L38.417199,2.39010018 C39.8327499,2.39010018 40.9846393,3.53182563 40.9846393,4.9348861 L40.9846393,12.3614158 C40.9846393,12.4094523 41.0008816,13.5564398 42.1903543,13.5564398 Z M7.13914919,23.5755835 C5.94967647,23.5755835 5.93343416,24.7228316 5.93343416,24.7706597 L5.93343416,32.2025036 C5.93343416,34.9233884 8.16719761,37.1320754 10.9068904,37.1320755 L18.4048946,37.1320755 C18.4533587,37.1320755 19.6105571,37.1161849 19.6105571,35.9369993 C19.6105571,34.7580222 18.4533587,34.7419232 18.4048946,34.7419232 L10.9122519,34.7419232 C9.49670105,34.7419232 8.34481165,33.6001977 8.34481165,32.1971373 L8.34481165,24.7706076 C8.34481165,24.7227795 8.32856934,23.5755835 7.13914919,23.5755835 Z M43.3960167,24.7706076 C43.3960167,24.7227795 43.3799847,23.5755314 42.1903017,23.5755314 C41.000829,23.5755314 40.9845867,24.7227795 40.9845867,24.7706076 L40.9845867,32.1971373 C40.9845867,33.6001977 39.8326973,34.7419232 38.4171464,34.7419232 L30.9245563,34.7419232 C30.8763025,34.7419232 29.7188413,34.7580222 29.7188413,35.9369993 C29.7188413,37.1161849 30.8763025,37.1320755 30.9245563,37.1320755 L38.4225605,37.1320755 C41.1676149,37.1320755 43.3960167,34.9180221 43.3960167,32.2025036 L43.3960167,24.7706076 Z" id="Shape" stroke="#FFFFFF" stroke-width="0.4" fill="#3C3C3C"></path>
                <path d="M16.4445124,14.4930969 C17.8061104,14.5352773 18.820369,15.1533333 19.2510401,16.3333657 L19.2510401,16.3193056 C19.5706199,17.1481027 19.7373364,18.3000149 19.7373364,19.4799936 C19.7373364,19.9436027 19.7095769,20.4071044 19.6539516,20.8566534 C19.5706199,21.4607029 19.4594225,22.0366321 19.2510401,22.5423143 C18.6952652,23.9892211 17.319814,24.4808968 15.958163,24.43877 C14.6104713,24.3966433 13.5962127,23.7925938 13.1516353,22.5844947 L13.1516353,22.5985549 C12.8459618,21.7697577 12.6792453,20.6178456 12.6792453,19.4518733 C12.6792453,18.9743114 12.7070048,18.5107023 12.7626301,18.0752672 C12.8459618,17.4712177 12.9432529,16.8812283 13.1516353,16.3754925 L13.1516353,16.3895526 C13.6935569,14.9285857 15.0829145,14.4509701 16.4445124,14.4930969 Z M16.4166998,15.4062012 C16.1527452,15.4062012 15.8331654,15.4202614 15.5553045,15.4905084 C14.8883853,15.6310025 14.2909446,16.0243109 14.0130837,16.7407342 C13.8463672,17.1481027 13.7352228,17.6819052 13.6657443,18.1735809 C13.6101721,18.5809494 13.5962658,19.0445048 13.5962658,19.4518733 C13.5962658,20.4914116 13.7352228,21.5308963 14.02699,22.2754399 C14.1103748,22.4861274 14.2076129,22.6687483 14.3465698,22.837309 C14.7217218,23.2587913 15.2774967,23.4835389 15.9860818,23.5116055 C16.2639427,23.5116055 16.5557099,23.4975454 16.847477,23.4272983 C17.5143962,23.2868579 18.1118369,22.9216162 18.3896979,22.2051929 C18.5564144,21.7556976 18.6675588,21.2218951 18.7370372,20.7442259 C18.7926094,20.3368574 18.820422,19.873302 18.820422,19.4799399 C18.820422,18.4404553 18.6676118,17.4149771 18.3896979,16.6704335 C18.3063131,16.4316258 18.1951687,16.2209382 18.0562648,16.0804441 C17.694966,15.6590691 17.1252849,15.4343215 16.4166998,15.4062012 Z M27.0590106,15.6028822 C26.5866736,15.5607018 26.1281368,15.5326352 25.6835594,15.5326352 C24.4747716,15.5326352 23.3910876,15.7995632 23.0020293,16.7969211 C22.8353128,17.2885968 22.7241684,17.8223993 22.6685963,18.3140213 C22.6130241,18.7495101 22.5852115,19.1709388 22.5852115,19.5923674 C22.5852115,20.6599723 22.7658343,21.7135171 23.0576015,22.4158803 C23.3216091,22.9778031 23.9329031,23.230671 24.6553945,23.3429912 C24.9888275,23.3991781 25.3500732,23.4132382 25.711372,23.4132382 C26.1420431,23.4132382 26.5727673,23.3851716 27.0034915,23.3570513 C27.2396865,23.3711114 27.4620283,23.5396722 27.4758815,23.8066002 C27.4758815,23.9189741 27.4341626,24.0313479 27.3646841,24.1156551 C27.2813524,24.2139688 27.170208,24.2701557 27.0729169,24.2842158 C26.6283395,24.3263426 26.1420431,24.3545165 25.6974657,24.3545165 C25.2805947,24.3545165 24.8915895,24.3263962 24.5164906,24.2702093 C23.5300446,24.1157088 22.6685963,23.68022 22.2517784,22.7952359 C21.8766264,21.9524323 21.668244,20.7583934 21.668244,19.5924211 C21.668244,19.128812 21.6960035,18.6371363 21.7516288,18.2017012 C21.807201,17.6397784 21.9461579,17.0076623 22.1267277,16.48792 C22.6963558,14.9426995 24.0996196,14.6055243 25.6140809,14.6055243 C26.1142835,14.6055243 26.6422458,14.633591 27.1423954,14.6757714 C27.3508308,14.7038917 27.54536,14.9145792 27.5314537,15.1815072 C27.5314537,15.3079412 27.4758815,15.3921948 27.3646841,15.4905621 L27.3785904,15.4905621 C27.2952056,15.574762 27.1979676,15.6169424 27.0590106,15.6028822 Z M35.2561455,23.6239794 C35.2978645,23.7222931 35.3395303,23.8627871 35.3117708,23.9611008 C35.2978645,24.0875348 35.228386,24.1858485 35.0755758,24.2560955 L35.0894821,24.2560955 C34.8810466,24.3965896 34.6031857,24.3122824 34.4781351,24.1156551 C33.7139778,22.8654293 32.8941953,21.5589629 32.1161848,20.2947306 C31.935562,20.3087908 31.7410859,20.3087908 31.5465567,20.3087908 C31.1575515,20.3087908 30.7545869,20.2947306 30.3933412,20.2807241 C30.2961032,20.2807241 30.1849057,20.266664 30.0876677,20.266664 L30.0181892,20.266664 L30.0181892,23.9892211 C30.0181892,24.242089 29.82366,24.4528302 29.5596524,24.4528302 C29.2956447,24.4528302 29.1011686,24.242089 29.1011686,23.9892211 L29.1011686,15.0550196 C29.1011686,14.8723988 29.1984067,14.7178982 29.3790295,14.6476511 C29.3929358,14.633591 29.4067891,14.633591 29.4206954,14.633591 C29.4346017,14.6195308 29.4623612,14.6195308 29.4762676,14.6195308 C29.4901739,14.6195308 29.5040271,14.6054707 29.5179335,14.6054707 L29.642931,14.6054707 C29.8513665,14.6054707 30.2125591,14.5774041 30.3515692,14.5633439 C30.8239061,14.5352773 31.2963493,14.507157 31.754833,14.507157 C32.5189372,14.507157 33.2414816,14.6055243 33.8389223,14.9005191 C34.672505,15.3500143 35.1171355,16.3754925 35.1588013,17.3166635 C35.1727077,17.8364595 35.0754696,18.3843221 34.8253683,18.8618839 C34.6169328,19.2693061 34.3251656,19.5923674 33.8944945,19.8451817 C33.6582995,19.9856758 33.3942918,20.0839894 33.116431,20.1542902 L35.2561455,23.6239794 Z M30.1293335,19.3394995 C30.2265716,19.3394995 30.3238627,19.3535596 30.4211007,19.3535596 C30.7684401,19.3676198 31.1574984,19.3956864 31.5187441,19.3956864 C32.2550887,19.3956864 32.9637269,19.3114329 33.4499702,19.0304447 C33.7000715,18.8899506 33.8946007,18.6792631 34.005745,18.4263951 C34.1863678,18.1314004 34.24194,17.724032 34.2280337,17.3447301 C34.2141274,16.9654819 34.1168894,16.58618 33.9501728,16.2771251 C33.8251753,16.0383174 33.6444993,15.8276299 33.4222106,15.7152024 C32.9915395,15.4904547 32.4080051,15.4202077 31.7549922,15.4202077 C31.324268,15.4202077 30.8935969,15.448328 30.4211538,15.4763946 C30.4072475,15.4623345 30.1849588,15.4904547 30.0182423,15.5044612 L30.0182423,19.3394458 L30.1293335,19.3394458 L30.1293335,19.3394995 Z" id="Shape" stroke="#E71A22" stroke-width="0.2" fill="#E71A22"></path>
            </g>
        </g>
    </g>
</svg>