<?xml version="1.0" encoding="UTF-8" standalone="no"?>
<svg width="47px" height="47px" viewBox="0 0 47 47" version="1.1" xmlns="http://www.w3.org/2000/svg" xmlns:xlink="http://www.w3.org/1999/xlink">
    <!-- Generator: Sketch 50.2 (55047) - http://www.bohemiancoding.com/sketch -->
    <title>拆条</title>
    <desc>Created with Sketch.</desc>
    <defs></defs>
    <g id="官网" stroke="none" stroke-width="1" fill="none" fill-rule="evenodd">
        <g id="Artboard" transform="translate(-134.000000, -1851.000000)" stroke="#EAEAEA">
            <g id="拆条" transform="translate(135.000000, 1852.000000)">
                <path d="M4.22,24.6372625 L4.22,36.5559382 C4.22,38.8806799 6.115,40.7754694 8.44,40.7754694 L16.41,40.7754694 L16.41,44.9950006 L8.44,44.9950006 C3.795,44.9950006 0,41.2004222 0,36.5609377 L0,8.43906233 C0,3.79457838 3.795,0 8.44,0 L16.41,0 L16.41,4.21953116 L8.44,4.21953116 C6.115,4.21953116 4.22,6.11432063 4.22,8.43906233 L4.22,24.6372625 Z M40.78,20.357738 L40.78,8.43906233 C40.78,6.11432063 38.885,4.21953116 36.56,4.21953116 L28.595,4.21953116 L28.595,0 L36.565,0 C41.205,0 45,3.79457838 45,8.43906233 L45,36.5609377 C45,41.2004222 41.205,45 36.56,45 L28.595,45 L28.595,40.7804688 L36.565,40.7804688 C38.89,40.7804688 40.785,38.8856794 40.785,36.5609377 L40.785,20.357738 L40.78,20.357738 Z" id="Shape" stroke-width="2" fill="#3C3C3C" fill-rule="nonzero"></path>
                <path d="M20.6671309,0 L24.8115925,0 L24.8115925,4.125 L20.6671309,4.125 L20.6671309,0 Z M20.6671309,40.875 L24.8115925,40.875 L24.8115925,45 L20.6671309,45 L20.6671309,40.875 Z" id="Shape" fill="#3C3C3C" fill-rule="nonzero"></path>
                <path d="M37.3404255,22.5 C37.3404255,21.87 37.0591045,21.305 36.6220522,20.915 L36.6270758,20.91 L29.4533895,14.48 L29.4483659,14.485 C29.0665731,14.145 28.5692377,13.93 28.0116192,13.93 C26.8210284,13.93 25.8615228,14.89 25.8615228,16.075 C25.8615228,16.705 26.1428438,17.27 26.5798961,17.66 L26.5748725,17.665 L29.5789793,20.36 L15.8997442,20.36 L18.9038509,17.67 L18.8988273,17.665 C19.3358796,17.275 19.6172006,16.71 19.6172006,16.08 C19.6172006,14.895 18.6526714,13.94 17.4671042,13.94 C16.9145093,13.94 16.4121503,14.155 16.0303575,14.495 L16.0253339,14.49 L8.85164763,20.905 L8.85667122,20.91 C8.4196189,21.3 8.13829787,21.865 8.13829787,22.495 C8.13829787,23.125 8.4196189,23.69 8.85667122,24.08 L8.85164763,24.085 L16.0253339,30.51 L16.0303575,30.505 C16.4121503,30.845 16.9094857,31.06 17.4671042,31.06 C18.657695,31.06 19.6172006,30.1 19.6172006,28.915 C19.6172006,28.285 19.3358796,27.72 18.8988273,27.33 L18.9038509,27.325 L15.8997442,24.63 L29.5789793,24.63 L26.5748725,27.32 L26.5798961,27.325 C26.1428438,27.715 25.8615228,28.28 25.8615228,28.91 C25.8615228,30.095 26.826052,31.05 28.0116192,31.05 C28.5642141,31.05 29.0665731,30.835 29.4483659,30.495 L29.4533895,30.5 L36.6270758,24.075 L36.6220522,24.07 C37.0641281,23.695 37.3404255,23.13 37.3404255,22.5 Z" id="Path" stroke-width="2.5" fill="#E71A22"></path>
            </g>
        </g>
    </g>
</svg>