<?xml version="1.0" encoding="UTF-8" standalone="no"?>
<svg width="39px" height="39px" viewBox="0 0 39 39" version="1.1" xmlns="http://www.w3.org/2000/svg" xmlns:xlink="http://www.w3.org/1999/xlink">
    <!-- Generator: Sketch 50.2 (55047) - http://www.bohemiancoding.com/sketch -->
    <title>Group 4</title>
    <desc>Created with Sketch.</desc>
    <defs></defs>
    <g id="解决方案" stroke="none" stroke-width="1" fill="none" fill-rule="evenodd">
        <g id="直播" transform="translate(-103.000000, -495.000000)">
            <g id="Group-4" transform="translate(103.000000, 495.000000)">
                <path d="M17.2628461,27.1587703 L27.7680371,20.9250071 C28.3915106,20.4505529 28.3915106,19.5551024 27.8392277,19.2730595 L17.2095981,12.9597 L17.2025891,12.9554852 C16.4385499,12.4903471 15.75,12.8629525 15.75,13.6301459 L15.75,26.2568651 C15.75,27.0064407 16.4628928,27.4550195 17.2628461,27.1587703 Z" id="Path" stroke="#E81A23" stroke-width="1.5"></path>
                <path d="M22.9107595,38.7027206 L22.6501674,37.2255301 C21.6177636,37.4076571 20.5651054,37.5 19.5,37.5 C9.5588745,37.5 1.5,29.4411255 1.5,19.5 C1.5,9.5588745 9.5588745,1.5 19.5,1.5 C29.4411255,1.5 37.5,9.5588745 37.5,19.5 C37.5,21.6776119 37.113864,23.7998374 36.3690719,25.7948289 L37.7743353,26.3194573 C38.5667913,24.1967936 39,21.8989875 39,19.5 C39,8.73044738 30.2695526,0 19.5,0 C8.73044738,0 0,8.73044738 0,19.5 C0,30.2695526 8.73044738,39 19.5,39 C20.663534,39 21.8032666,38.8980941 22.9107595,38.7027206 Z M22.6501674,37.2255301 C21.6177636,37.4076571 20.5651054,37.5 19.5,37.5 C9.5588745,37.5 1.5,29.4411255 1.5,19.5 C1.5,9.5588745 9.5588745,1.5 19.5,1.5 C29.4411255,1.5 37.5,9.5588745 37.5,19.5 C37.5,21.6776119 37.113864,23.7998374 36.3690719,25.7948289 L37.7743353,26.3194573 C38.5667913,24.1967936 39,21.8989875 39,19.5 C39,8.73044738 30.2695526,0 19.5,0 C8.73044738,0 0,8.73044738 0,19.5 C0,30.2695526 8.73044738,39 19.5,39 C20.663534,39 21.8032666,38.8980941 22.9107595,38.7027206 L22.6501674,37.2255301 Z" id="Oval-2" fill="#464646" fill-rule="nonzero"></path>
                <g id="设置-4" transform="translate(23.000000, 25.000000)" fill="#E81A23" fill-rule="nonzero">
                    <path d="M6.99979669,5.19519992 C6.00484435,5.19519992 5.19530201,6.00502547 5.19530201,7 C5.19530201,7.99497453 6.00484435,8.80480008 6.99979669,8.80480008 C7.99515564,8.80480008 8.80469798,7.99497453 8.80469798,7 C8.80469798,6.00502547 7.99515564,5.19519992 6.99979669,5.19519992 M6.99979669,9.69230769 C5.5157035,9.69230769 4.30769231,8.48481433 4.30769231,6.99959751 C4.30769231,5.51558817 5.51529691,4.30769231 6.99979669,4.30769231 C8.48429648,4.30769231 9.69230769,5.51518567 9.69230769,7 C9.69230769,8.48441184 8.48470309,9.69230769 6.99979669,9.69230769" id="Shape"></path>
                    <path d="M8.09383889,0 L5.90572349,0 C5.38057579,0 4.9503923,0.488814727 4.9503923,1.01353356 L4.9503923,1.59102706 C4.95039884,1.69960734 4.86198877,1.78796305 4.75214904,1.78914843 C4.69950774,1.78910435 4.64907554,1.76822926 4.61210966,1.73118279 L4.20293208,1.32282782 C4.02451694,1.1443455 3.78108211,1.04413528 3.52724204,1.04467926 C3.28217311,1.04467926 3.03797943,1.13725126 2.85198962,1.32282782 L1.30411678,2.86800148 C0.932836277,3.24270033 0.932836277,3.84208523 1.30411678,4.21678408 L1.71329437,4.62513904 C1.77018537,4.68180695 1.78681505,4.76702509 1.75618142,4.84142874 C1.72579012,4.91512348 1.65332773,4.96333085 1.57281735,4.96341614 L0.995154885,4.96341614 C0.470007183,4.96341614 0,5.39253492 0,5.91725374 L0,8.10264492 C0,8.62736374 0.469569564,9.05648251 0.995154885,9.05648251 L1.57325499,9.05648251 C1.65334,9.05648251 1.72598544,9.10493141 1.75661906,9.17890249 C1.78727478,9.25285867 1.77040698,9.33775688 1.71373199,9.39475961 L1.30455441,9.80311457 C0.93327391,10.1778134 0.93327391,10.7771983 1.30455441,11.1518972 L2.85198962,12.6970708 C3.03797943,12.8826474 3.28261073,12.9752194 3.52724204,12.9752194 C3.77231097,12.9752194 4.01737989,12.8826474 4.20293208,12.6970708 L4.61167204,12.2887159 C4.66821899,12.2313215 4.75451507,12.2139329 4.82927794,12.2448682 C4.9040408,12.2758036 4.95207118,12.3487739 4.9503923,12.4288716 L4.9503923,13.0063651 C4.9503923,13.5310839 5.38057579,14 5.90572349,14 L8.09383889,14 C8.61942421,14 9.04917009,13.5306513 9.04917007,13.0063651 L9.04917007,12.4288716 C9.04916588,12.3201244 9.13783999,12.2317 9.24785096,12.2307502 C9.29949048,12.2307502 9.35025476,12.2510815 9.38789034,12.2887159 L9.7966303,12.6970708 C9.98262011,12.8826474 10.227689,12.9752194 10.4723203,12.9752194 C10.7173893,12.9752194 10.9624582,12.8826474 11.1480104,12.6970708 L12.6954456,11.1518972 C13.0667261,10.7771983 13.0667261,10.1778134 12.6954456,9.80311457 L12.286268,9.39475961 C12.2294103,9.33767529 12.2125306,9.25254687 12.2433809,9.1784699 C12.2737722,9.10477516 12.3462346,9.0565678 12.426745,9.05648251 L13.0048451,9.05648251 C13.5299928,9.05648251 14,8.62736373 14,8.10264492 L14,5.91725374 C14,5.39253491 13.5299928,4.96341614 13.0048451,4.96341614 L12.426745,4.96341614 C12.3459678,4.96343524 12.273257,4.91500667 12.2429433,4.84099617 C12.2125107,4.76687094 12.2297275,4.68194897 12.2867056,4.62513904 L12.6954456,4.21678408 C13.0667261,3.84208523 13.0667261,3.24270033 12.6954456,2.86800148 L11.1480104,1.32282782 C10.9695952,1.1443455 10.7261604,1.04413528 10.4723203,1.04467926 C10.2272514,1.04467926 9.98262011,1.13725126 9.7966303,1.32282782 L9.38789034,1.73118279 C9.33152387,1.78788268 9.24594224,1.80500724 9.17170454,1.77444074 C9.09714995,1.74335653 9.04881622,1.67100898 9.04917007,1.59102706 L9.04917007,1.01353356 C9.04917007,0.488814727 8.6194242,7.73855833e-17 8.09383889,0 Z M8.09383889,0.953837595 L8.09383889,1.59102706 C8.09383889,2.05864541 8.37391767,2.47651711 8.80628926,2.65517241 C9.23748797,2.83495135 9.73603922,2.7359786 10.0635804,2.40557409 L10.4723203,1.99721913 L12.0197555,3.54239278 L11.6110156,3.95074774 C11.2798351,4.28139296 11.1812177,4.77595456 11.3606952,5.20609319 C11.5362146,5.63574873 11.9579798,5.91710784 12.426745,5.91725374 L13.0446688,5.91725374 L13.0446688,8.10264492 L12.426745,8.10264492 C11.9584883,8.10264492 11.5401207,8.38165863 11.3606952,8.81337289 C11.181022,9.24363208 11.2796515,9.73842473 11.6110156,10.0691509 L12.0197555,10.4775059 L10.4723203,12.0226795 L10.0635804,11.6143246 C9.73603922,11.2839201 9.23748797,11.1849473 8.80628926,11.3647262 C8.37303689,11.5444897 8.09189281,11.9644181 8.09383889,12.4288716 L8.09383889,13.0461624 L5.90572349,13.0461624 L5.90572349,12.4288716 C5.90786158,11.964488 5.6268703,11.5445298 5.19371074,11.3647262 C4.76249922,11.185073 4.26402169,11.2840311 3.93641962,11.6143246 L3.52724204,12.0226795 L1.98024445,10.4775059 L2.38898441,10.0691509 C2.72026508,9.73866023 2.81829265,9.24551971 2.63886719,8.81380546 C2.46340761,8.38429603 2.04186063,8.10296706 1.57325499,8.10264492 L0.955331193,8.10264492 L0.955331193,5.91725374 L1.57325499,5.91725374 C2.04151168,5.91725374 2.45987935,5.63824003 2.63886719,5.20609319 C2.8185675,4.77612434 2.72029969,4.28158658 2.38942203,3.95074774 L1.98024445,3.54239278 L3.52724204,1.99721913 L3.93641962,2.40557409 C4.26396078,2.7359786 4.76251203,2.83495135 5.19371074,2.65517241 C5.62679153,2.47527488 5.90774329,2.05537578 5.90572349,1.59102706 L5.90572349,0.953837595 L8.09383889,0.953837595 Z" id="Shape"></path>
                </g>
            </g>
        </g>
    </g>
</svg>