<?xml version="1.0" encoding="UTF-8" standalone="no"?>
<svg width="37px" height="37px" viewBox="0 0 37 37" version="1.1" xmlns="http://www.w3.org/2000/svg" xmlns:xlink="http://www.w3.org/1999/xlink">
    <!-- Generator: Sketch 50.2 (55047) - http://www.bohemiancoding.com/sketch -->
    <title>翻译</title>
    <desc>Created with Sketch.</desc>
    <defs></defs>
    <g id="官网" stroke="none" stroke-width="1" fill="none" fill-rule="evenodd">
        <g id="Artboard" transform="translate(-509.000000, -850.000000)" fill-rule="nonzero">
            <g id="翻译" transform="translate(510.000000, 851.000000)">
                <path d="M30.6833333,35 L4.31666667,35 C1.93925587,34.9840971 0.0159029458,33.0607441 0,30.6833333 L0,4.31666667 C0.0159029458,1.93925587 1.93925587,0.0159029458 4.31666667,0 L30.6541667,0 C33.0429598,-5.37998263e-05 34.9839678,1.9279273 35,4.31666667 L35,30.6541667 C35.0000538,33.0429598 33.0720727,34.9839678 30.6833333,35 Z" id="Shape" stroke="#3C3C3C" stroke-width="1.8"></path>
                <path d="M11.7931526,22.8296623 L11.7931526,13.5491924 L7,13.5491924 L7,15.5756241 L9.66619116,15.5756241 L9.66619116,23.8281938 C9.66662188,24.3069339 9.44643288,24.7602452 9.06704708,25.061674 L9.87589158,27 C11.43754,25.8358176 12.8911314,24.5385491 14.2196862,23.123348 L13.6504993,20.8619677 C12.9914408,21.5961821 12.3623395,22.2422907 11.7931526,22.8296623 Z M11.9429387,11.845815 L13.4407989,10.3480176 C12.2762673,9.11287678 10.992058,7.99160138 9.60627675,7 L8.07845934,8.46842878 C9.48903892,9.44078496 10.7763022,10.574586 11.9129815,11.845815 L11.9429387,11.845815 Z M26.1726106,9.4082232 L26.1726106,7.58737151 L14.8787447,7.58737151 L14.8787447,9.49632893 L16.2867332,9.49632893 C16.8414053,10.9563094 17.7576127,12.2582017 18.9529244,13.2848752 C17.1535427,13.9995591 15.2873672,14.5405424 13.3808845,14.9001468 L14.4293866,16.69163 C16.6643465,16.2555308 18.837122,15.5553648 20.9001427,14.6064611 C22.5777461,15.5462555 24.6747504,16.133627 27.2510699,16.4273128 L28,14.5477239 C26.2650569,14.4062911 24.5599503,14.0205365 22.9372325,13.4023495 C24.3877128,12.4064674 25.511745,11.0188315 26.1726106,9.4082232 Z M20.8701854,12.2863436 C19.8214781,11.5651632 18.9763332,10.5951667 18.4136947,9.46696035 L23.8659058,9.46696035 C23.1241662,10.6380588 22.0940238,11.6075638 20.8701854,12.2863436 Z" id="Shape" stroke="#FFFFFF" stroke-width="0.3" fill="#E71A22"></path>
                <polygon id="Shape" stroke="#FFFFFF" stroke-width="0.3" fill="#E71A22" points="21.7777778 19.5123762 25.9444444 19.5123762 25.9444444 17.7425743 21.7777778 17.7425743 21.7777778 16 19.7777778 16 19.7777778 17.7425743 15.8888889 17.7425743 15.8888889 19.5123762 19.7777778 19.5123762 19.7777778 21.5 15 21.5 15 23.3787129 19.7777778 23.3787129 19.7777778 27 21.7777778 27 21.7777778 23.3787129 27 23.3787129 27 21.5 21.7777778 21.5"></polygon>
            </g>
        </g>
    </g>
</svg>