<?xml version="1.0" encoding="UTF-8" standalone="no"?>
<svg width="47px" height="47px" viewBox="0 0 47 47" version="1.1" xmlns="http://www.w3.org/2000/svg" xmlns:xlink="http://www.w3.org/1999/xlink">
    <!-- Generator: Sketch 50.2 (55047) - http://www.bohemiancoding.com/sketch -->
    <title>高效</title>
    <desc>Created with Sketch.</desc>
    <defs></defs>
    <g id="官网" stroke="none" stroke-width="1" fill="none" fill-rule="evenodd">
        <g id="Artboard" transform="translate(-233.000000, -842.000000)" stroke="#FFFFFF">
            <g id="高效" transform="translate(234.000000, 843.000000)">
                <path d="M39.8219048,2.13270139 C41.4063308,2.13270139 42.1457295,2.34597155 42.5682431,2.4526066 C42.8851283,3.41232224 43.3076418,7.03791465 41.9344727,11.943128 C40.8781888,15.8886256 38.1318505,22.9265403 31.2660049,26.5521327 C30.6322345,26.8720379 30.2097209,27.6184834 30.1040925,28.3649289 C29.8928357,34.2298578 27.6746394,37.9620853 25.6676999,40.2014218 C25.8789567,34.6563981 23.9776456,29.3246445 20.1750234,25.5924171 C19.8581382,25.2725119 19.5412531,24.9526067 19.2243679,24.7393365 C15.8442592,21.7535545 11.4078666,20.1540285 6.65458887,20.1540285 L5.70393332,20.1540285 L3.80262221,20.2606635 C5.59830494,18.1279621 9.08404197,15.6753555 15.3161172,15.6753555 L16.3724012,15.6753555 C17.2174284,15.6753555 17.9568271,15.2488152 18.2737123,14.5023697 C22.2875913,5.97156395 33.2729444,2.13270139 39.8219048,2.13270139 Z M39.8219048,0 C33.0616876,0 20.9144222,3.83886256 16.3724012,13.542654 L15.3161172,13.542654 C2.95759504,13.542654 0,22.6066351 0,22.6066351 L5.8095617,22.2867298 L6.65458887,22.2867298 C10.7740963,22.2867298 14.7879753,23.6729857 17.8511987,26.3388626 C18.1680839,26.5521327 18.3793407,26.8720379 18.6962259,27.085308 C22.1819629,30.6042654 23.8720172,35.6161138 23.555132,40.521327 L23.2382468,45 C23.2382468,45 31.6885184,40.7345972 32.2166604,28.471564 C45.4202097,21.5402844 46.4764937,2.34597155 43.8357838,0.746445482 C42.9907566,0.213270109 41.6175875,2.84132907e-15 39.8219048,2.84132907e-15 Z" id="Shape" stroke-width="0.3" fill="#3C3C3C" fill-rule="nonzero"></path>
                <path d="M32.5,16 C30.025,16 28,13.975 28,11.5 C28,9.02500001 30.025,7 32.5,7 C34.975,7 36.9999999,9.02500001 37,11.5 C37.0000001,13.975 34.975,16 32.5,16 Z M32.5,8.4614853 C30.8288169,8.4614853 29.4614853,9.82881691 29.4614854,11.5 C29.4614854,13.1711831 30.828817,14.5385147 32.5,14.5385147 C34.171183,14.5385147 35.5385146,13.1711831 35.5385146,11.5 C35.5385146,9.82881691 34.171183,8.4614853 32.5,8.4614853 Z" id="Shape" stroke-width="0.2" fill="#E71A22" fill-rule="nonzero"></path>
                <path d="M11.8005993,28 C12.9449222,28 14.0892451,28.4094488 15.3375974,29.6377953 C19.4987716,33.7322835 14.7134212,37.6220473 13.2570102,38.8503937 C11.3844819,40.3858268 8.78374793,41 6.80719017,41 C5.76689657,41 4.83063237,40.7952756 4.41451496,40.3858268 C3.37422136,39.3622047 4.31048557,33.3228347 7.01524885,30.6614173 C8.05554245,29.6377953 9.72001214,28 11.8005993,28 Z M11.8005993,30.0472441 C10.6562763,30.0472441 9.30389468,31.2755906 8.26360113,32.0944882 C6.4951021,33.8346457 5.76689662,37.5196851 5.87092596,38.8503937 C6.07898464,38.9527559 6.39107271,38.9527559 6.70316078,38.9527559 C8.15957179,38.9527559 10.2401589,38.5433071 11.8005993,37.3149606 C12.5288048,36.7007874 14.7134212,34.9606299 14.8174506,33.2204724 C14.8174506,32.9133858 14.92148,32.1968504 13.777157,31.0708661 C13.1529809,30.4566929 12.4247754,30.0472441 11.8005993,30.0472441 Z" id="Combined-Shape" stroke-width="0.3" fill="#3C3C3C"></path>
            </g>
        </g>
    </g>
</svg>