<?xml version="1.0" encoding="UTF-8" standalone="no"?>
<svg width="51px" height="50px" viewBox="0 0 51 50" version="1.1" xmlns="http://www.w3.org/2000/svg" xmlns:xlink="http://www.w3.org/1999/xlink">
    <!-- Generator: Sketch 50.2 (55047) - http://www.bohemiancoding.com/sketch -->
    <title>精准</title>
    <desc>Created with Sketch.</desc>
    <defs></defs>
    <g id="官网" stroke="none" stroke-width="1" fill="none" fill-rule="evenodd">
        <g id="Artboard" transform="translate(-102.000000, -841.000000)">
            <g id="精准" transform="translate(103.000000, 841.000000)">
                <path d="M42.5955148,23.3778388 C42.5955148,22.4438835 41.8383296,21.6863575 40.9047944,21.6863575 C39.9712593,21.6863575 39.2140742,22.4438835 39.2140742,23.3778388 C39.2140742,23.6214793 39.2658595,23.8553182 39.3589331,24.0625527 C39.4681021,24.6954579 39.612961,25.8163444 39.612961,27.5029248 C39.612961,37.9528627 31.9522345,45.6170374 21.5,45.6170374 C11.0484653,45.6170374 3.38703904,37.9528627 3.38703904,27.5029248 C3.38703904,17.0522868 11.0484653,9.38881231 21.5,9.38881231 C23.1704261,9.38881231 23.3985613,9.31109936 24.8562478,9.61705026 L24.8611464,9.58064419 C24.9080331,9.58624514 24.9549198,9.59604677 25.0018064,9.59604677 C25.8933535,9.59604677 26.6197474,8.87002601 26.6197474,7.97737758 C26.6197474,7.20934984 26.0857989,6.57154375 25.369902,6.40491604 L25.3852977,6.30619965 C23.5490186,5.97994535 23.4664421,6.00024875 21.5,6.00024875 C9.62716856,6.00024875 0,15.6254495 0,27.4973239 C0,39.3747992 9.62716856,49 21.5,49 C33.3728314,49 43,39.3747992 43,27.4973239 C43,25.6350142 42.8495427,24.7577683 42.5906162,23.4296474 C42.5906162,23.4142448 42.5955148,23.3932414 42.5955148,23.3778388 M21.2669661,20.5857745 C21.3292485,20.5913754 21.3859324,20.606778 21.4531133,20.606778 C22.3873483,20.606778 23.1445334,19.8492519 23.1445334,18.9152966 C23.1445334,17.9967439 22.4132409,17.2546205 21.5,17.2294163 L21.5,17.1818083 C15.7994174,17.1818083 11.1779286,21.8053773 11.1779286,27.5029248 C11.1779286,33.2053732 15.7994174,37.8233412 21.5,37.8233412 C27.1697914,37.8233412 31.7653875,33.2515809 31.8171728,27.5960403 C31.8220714,27.5393309 31.8325684,27.4875223 31.8325684,27.4252119 C31.8325684,26.4905565 31.0753833,25.7330305 30.1418481,25.7330305 C29.208313,25.7330305 28.450428,26.4905565 28.450428,27.4252119 C28.450428,27.4511162 28.4560264,27.4770205 28.4560264,27.5029248 L28.4301338,27.5029248 C28.4301338,31.7778358 25.7743873,34.4347777 21.5,34.4347777 C17.2263125,34.4347777 14.5698662,31.7785359 14.5698662,27.5029248 C14.5698662,23.3050267 17.1381375,20.6844909 21.2669661,20.5857745" id="Shape" stroke="#FFFFFF" stroke-width="1.4" fill="#3C3C3C" fill-rule="nonzero"></path>
                <path d="M9.05363893,33.3353166 C8.83884688,33.1325967 8.53402644,33 8.19730624,33 C7.53520792,33 7,33.4915002 7,34.0964726 C7,34.4266893 7.59829867,35.1878453 7.69328924,35.3249044 C7.70392248,35.3529537 7.7301512,35.3720782 7.74574669,35.4001275 C7.85633269,35.5607735 8.16611532,35.8113047 8.16611532,35.8113047 C8.3553875,35.919677 8.56025517,36 8.801276,36 C9.46408317,36 10,35.5091373 10,34.9041649 C10,34.7862303 9.96313798,34.6727582 9.92627601,34.5637484 L9.05363893,33.3353166" id="Path" stroke="#FFFFFF" fill="#3C3C3C"></path>
                <path d="M38.7736663,18.7898927 L46.6164138,11.8096639 L37.4445386,11.9191074 L37.9255753,3.23417806 L30.5210517,10.6371733 L30.5210517,18.4593781 L38.7736663,18.7898927 Z M30.1013436,19.7170101 L20.836094,28 L20,27.0465798 L29.2598087,18.768454 L29.2598087,10.1060271 L39.3679221,0 L38.779172,10.6296532 L50,10.4957606 L39.2286051,20.0825541 L30.1013436,19.7170101 Z" id="Path" fill="#E71A22" fill-rule="nonzero"></path>
            </g>
        </g>
    </g>
</svg>