<?xml version="1.0" encoding="UTF-8" standalone="no"?>
<svg width="53px" height="49px" viewBox="0 0 53 49" version="1.1" xmlns="http://www.w3.org/2000/svg" xmlns:xlink="http://www.w3.org/1999/xlink">
    <!-- Generator: Sketch 50.2 (55047) - http://www.bohemiancoding.com/sketch -->
    <title>集成</title>
    <desc>Created with Sketch.</desc>
    <defs></defs>
    <g id="官网" stroke="none" stroke-width="1" fill="none" fill-rule="evenodd">
        <g id="Artboard" transform="translate(-164.000000, -841.000000)" stroke="#FFFFFF">
            <g id="集成" transform="translate(165.000000, 842.000000)">
                <path d="M8.38720422,10.3049159 C8.4261171,11.2574779 8.53660396,12.2270248 8.71393215,13.2111637 C13.7731906,11.6057583 21.4586007,12.69064 28.9836852,16.5372509 C36.5391521,20.3984537 41.9676738,26.0361378 43.6524379,31.1169351 C44.5368003,30.6521526 45.3664158,30.1376991 46.1377204,29.5746252 C43.9233673,23.8750129 38.1911382,17.9302559 30.3077163,13.901596 C22.4121999,9.8656401 14.2542262,8.72256581 8.38720422,10.3049159 Z M34.1644733,6.22284948 C31.9366819,5.08461969 29.6870384,4.17694254 27.4738539,3.49503195 C27.4969329,4.43183457 27.2976943,5.38562225 26.848268,6.27987478 C26.8348881,6.30783295 26.8203396,6.33328127 26.8057326,6.3611811 C28.7930355,6.99703956 30.8227569,7.82825488 32.8403838,8.85967167 C43.833447,14.4779777 50.3224323,23.8568021 47.3330352,29.807571 C44.3436965,35.7583398 33.0092984,36.0277654 22.0162351,30.4094594 C11.0219449,24.7911534 4.53418657,15.4135546 7.52358372,9.46272745 C8.88769628,6.74705044 11.9900342,5.2144296 16.0046629,4.88435992 C15.7972627,3.92972033 15.8306521,2.93855089 16.1018283,2 C10.8543157,2.36158831 6.69151419,4.4196357 4.84636601,8.09400331 C1.1257457,15.5009312 8.21957499,26.6719962 20.692204,33.0451142 C33.1636061,39.4205669 46.2896326,38.5833397 50.0103113,31.1763535 C53.73099,23.7693673 46.6370439,12.5983605 34.1644733,6.22284948 Z M3.2393109,18.2190597 C2.77895867,16.8017736 2.41694038,15.3929508 2.15822238,14.0010547 C1.70394665,14.5422406 1.31037739,15.1319885 0.989667486,15.7715241 C-2.73095288,23.1772262 4.36293488,34.349517 16.8355055,40.7238024 C18.7316611,41.692182 20.6435921,42.4942718 22.5348982,43.1325233 C22.5006903,42.1468296 22.7149824,41.1683518 23.1580885,40.286978 C23.165392,40.2724444 23.1726955,40.2603039 23.1799405,40.245712 C21.519424,39.6632601 19.83466,38.944928 18.159595,38.0882059 C7.80900321,32.7975182 1.45370064,24.1771245 3.2393109,18.2190597 Z M34.0794025,42.1168658 C34.2130268,43.065809 34.1170884,44.0559598 33.7623736,45 C39.5430978,44.8713574 44.1772359,42.7890874 46.1535543,38.8526485 C46.4620528,38.2410127 46.6941278,37.6027612 46.8568491,36.9426218 C45.5474249,37.6100572 44.1553839,38.1961863 42.6891981,38.699725 C40.9509727,40.8354599 37.8705452,41.9785343 34.0794025,42.1168658 Z" id="Shape" fill="#3C3C3C" fill-rule="nonzero"></path>
                <path d="M20.1927581,7.56775479 C22.163004,8.56543932 24.5689459,7.77733754 25.5676713,5.80773154 C26.5652061,3.83688752 25.7780483,1.43096037 23.8078024,0.432627304 C21.8375565,-0.565646767 19.4316146,0.222455012 18.4328892,2.19206101 C17.4341043,4.16290502 18.2224527,6.56889112 20.1927581,7.56775479 Z" id="Path" fill="#E71A22"></path>
                <path d="M29.8073854,39.4330755 C27.8372684,38.4340596 25.4314839,39.2222815 24.4328238,41.1921876 C23.4341638,43.1620937 24.2224606,45.5696257 26.1925776,46.5674622 C28.1626946,47.5652988 30.5684791,46.7783151 31.5671391,44.8071708 C32.5658587,42.8372647 31.7775619,40.430912 29.8073854,39.4330755 Z" id="Path" fill="#E71A22"></path>
            </g>
        </g>
    </g>
</svg>