<?xml version="1.0" encoding="UTF-8" standalone="no"?>
<svg width="39px" height="40px" viewBox="0 0 39 40" version="1.1" xmlns="http://www.w3.org/2000/svg" xmlns:xlink="http://www.w3.org/1999/xlink">
    <!-- Generator: Sketch 50.2 (55047) - http://www.bohemiancoding.com/sketch -->
    <title>文稿配音</title>
    <desc>Created with Sketch.</desc>
    <defs></defs>
    <g id="官网" stroke="none" stroke-width="1" fill="none" fill-rule="evenodd">
        <g id="Artboard" transform="translate(-451.000000, -849.000000)">
            <g id="文稿配音" transform="translate(451.000000, 850.000000)">
                <polygon id="Shape" stroke="#FFFFFF" stroke-width="2" fill="#3C3C3C" fill-rule="nonzero" points="22.8561392 37.9974083 18.1438608 37.9974083 18.1438608 3.79758974 5.14194475 3.79758974 4 0 36 0 34.8580552 3.79758974 21.8561392 3.79758974 21.8561392 38"></polygon>
                <path d="M0.901609994,16 C1.39749549,16 1.79999995,16.7458493 1.79999995,17.6679438 L1.79999995,22.3320562 C1.79999995,23.2515964 1.39749549,24 0.899999976,24 C0.402504462,24 0,23.2541507 0,22.3320562 L0,17.6679438 C0,16.7484036 0.402504462,16 0.901609994,16 Z" id="Path" fill="#E71A22"></path>
                <path d="M6.89999998,14.0024586 C7.39660711,14.0024586 7.79999995,14.6490836 7.79999995,15.4481448 L7.79999995,23.5518552 C7.79999995,24.3509164 7.39660711,25 6.89999998,25 C6.40339285,25 6,24.3509164 6,23.5518552 L6,15.4481448 C6,14.6490836 6.40339285,14 6.89999998,14 L6.89999998,14.0024586 Z" id="Path" fill="#E71A22"></path>
                <path d="M12.9,11 C13.3966071,11 13.8,11.7883487 13.8,12.7598491 L13.8,28.2401509 C13.8,29.2116513 13.3966071,30 12.9,30 C12.4033928,30 12,29.2116513 12,28.2401509 L12,12.7625035 C12,11.7910031 12.4033928,11.0026544 12.9,11.0026544 L12.9,11 Z" id="Path" fill="#E71A22"></path>
                <path d="M26.9,11 C27.3966071,11 27.8,11.7883487 27.8,12.7598491 L27.8,28.2401509 C27.8,29.2116513 27.3966071,30 26.9,30 C26.4033928,30 26,29.2116513 26,28.2401509 L26,12.7625035 C26,11.7910031 26.4033928,11.0026544 26.9,11.0026544 L26.9,11 Z" id="Path" fill="#E71A22"></path>
                <path d="M32.9,14 C33.3966071,14 33.8,14.6490836 33.8,15.4481448 L33.8,23.5518552 C33.8,24.3509164 33.3966071,25 32.9,25 C32.4033928,25 32,24.3509164 32,23.5518552 L32,15.4506035 C32,14.6515422 32.4033928,14.0024586 32.9,14.0024586 L32.9,14 Z" id="Path" fill="#E71A22"></path>
                <path d="M37.9,16 C38.3974955,16 38.8,16.7458493 38.8,17.6679438 L38.8,22.3320562 C38.8,23.2515964 38.3974955,24 37.89839,24 C37.4025045,24 37,23.2541507 37,22.3320562 L37,17.6704981 C37,16.7509579 37.4025045,16.0025543 37.9,16.0025543 L37.9,16 Z" id="Path" fill="#E71A22"></path>
            </g>
        </g>
    </g>
</svg>