<?xml version="1.0" encoding="UTF-8" standalone="no"?>
<svg width="34px" height="41px" viewBox="0 0 34 41" version="1.1" xmlns="http://www.w3.org/2000/svg" xmlns:xlink="http://www.w3.org/1999/xlink">
    <!-- Generator: Sketch 50.2 (55047) - http://www.bohemiancoding.com/sketch -->
    <title>文本审核</title>
    <desc>Created with Sketch.</desc>
    <defs></defs>
    <g id="官网" stroke="none" stroke-width="1" fill="none" fill-rule="evenodd">
        <g id="Artboard" transform="translate(-394.000000, -848.000000)" fill-rule="nonzero">
            <g id="文本审核" transform="translate(394.000000, 848.000000)">
                <path d="M3.89896586,40 C3.40230521,40 3,39.6030354 3,39.1147234 L3,33.8860709 C3,33.3961702 3.40230521,33 3.89896586,33 C4.39477198,33 3.94868937,33.3961702 3.94868941,33.8860213 L3.94868941,38.954766 L30.0497522,38.954766 L30.0497522,33.8860213 C30.0497522,33.3962199 29.6028653,33 30.1002801,33 C30.5960862,33 31,33.3961702 31,33.8860213 L31,39.1147234 C30.9984416,39.6030354 30.5953321,40 30.0994758,40 L3.89896586,40 Z" id="Shape" stroke="#E71A22" stroke-width="0.3" fill="#E71A22"></path>
                <path d="M0.96976037,33.2 L33.031922,33.2 C33.1310232,33.2 33.2001083,33.1334882 33.1999987,33.0680553 L33.1999987,30.3129063 C33.1999987,29.2341578 32.2826154,28.3447527 31.1450308,28.3447527 C26.3917434,28.3447527 20.0148902,24.7361148 20.0003439,21.1245343 C20.0047459,20.9369194 20.008651,20.544375 20.008651,19.9528817 C20.008651,19.2633786 20.0261891,19.0097376 20.140382,18.6356004 C20.3717887,17.8774281 20.8804803,17.2719129 22.6030292,15.5988621 C24.5460826,13.9961933 25.6574303,11.6653915 25.6574303,9.19733946 C25.6574303,6.95909825 24.7628754,4.85729818 23.1333292,3.27186165 C21.4967975,1.67746404 19.3209297,0.8 16.9999993,0.8 C14.6779741,0.8 12.5014792,1.67757707 10.8655965,3.27216547 C9.23698499,4.85741651 8.34256843,6.95934846 8.34256843,9.19739171 C8.34256843,11.6673359 9.45385811,13.9975784 11.4483316,15.6443253 C13.7782726,17.9114525 14.0007439,18.3156546 14.0007439,20.2130261 L14.0007439,21.1318617 C14.0007439,24.7259903 7.61560657,28.3439171 2.85578267,28.3439171 C1.71778807,28.3439171 0.8,29.2337132 0.8,30.3120707 L0.8,33.0672197 C0.8,33.1329959 0.869636848,33.2 0.96976037,33.2 Z" id="Shape" stroke="#3C3C3C" stroke-width="1.6"></path>
            </g>
        </g>
    </g>
</svg>