<?xml version="1.0" encoding="UTF-8" standalone="no"?>
<svg width="43px" height="41px" viewBox="0 0 43 41" version="1.1" xmlns="http://www.w3.org/2000/svg" xmlns:xlink="http://www.w3.org/1999/xlink">
    <!-- Generator: Sketch 50.2 (55047) - http://www.bohemiancoding.com/sketch -->
    <title>语音识别</title>
    <desc>Created with Sketch.</desc>
    <defs></defs>
    <g id="官网" stroke="none" stroke-width="1" fill="none" fill-rule="evenodd">
        <g id="Artboard" transform="translate(-560.000000, -846.000000)" stroke="#FFFFFF">
            <g id="语音识别" transform="translate(561.000000, 847.000000)">
                <path d="M16,12.2430311 L16,19.7540175 C16,22.0941832 18.2473868,24 21.0069686,24 C23.7665505,24 26,22.097138 26,19.7540175 L26,12.2430311 C26,9.90286544 23.7595819,8.00000343 21,8.00000343 C18.2404181,7.99704868 16,9.90286544 16,12.2430311 Z M18.2222222,12.460514 C18.2222222,11.1772242 19.4664005,10.1333333 21,10.1333333 C22.5335995,10.1333333 23.7777778,11.1772242 23.7777778,12.460514 L23.7777778,19.5367023 C23.7777778,20.8199921 22.5402528,21.8666667 21.0066534,21.8666667 C19.4730539,21.8666667 18.2222222,20.8227758 18.2222222,19.5367023 L18.2222222,12.460514 Z" id="Shape" stroke-width="0.5" fill="#E71A22" fill-rule="nonzero"></path>
                <path d="M1.64383534,15 C2.55251099,15 3.28767069,14.3054357 3.28767069,13.446937 L3.28767069,4.62036238 C3.28767069,3.80069025 4.11872078,3.10612597 5.08675714,3.10612597 L14.2100433,3.10612597 C15.1187189,3.10612597 15.8538786,2.41156169 15.8538786,1.55306299 C15.8538786,0.69456428 15.1187189,0 14.2100433,0 L5.08675714,0 C2.28767085,0 0,2.07075065 0,4.62036238 L0,13.446937 C0,14.3054357 0.735159695,15 1.64383534,15 Z M35.9178022,0 L26.835612,0 C25.9269363,0 25.1917766,0.69456428 25.1917766,1.55306299 C25.1917766,2.41156169 25.9269363,3.10612597 26.835612,3.10612597 L35.913236,3.10612597 C36.8812724,3.10612597 37.7123225,3.80069025 37.7123225,4.62036238 L37.7123225,13.446937 C37.7123225,14.3054357 38.4474822,15 39.3561578,15 C40.2648335,15 40.9999932,14.3054357 40.9999932,13.446937 L40.9999932,4.62036238 C41.0045594,2.07075065 38.7168885,0 35.9178022,0 Z" id="Shape" stroke-width="1.4" fill="#3C3C3C" fill-rule="nonzero"></path>
                <path d="M26.6563877,25.9042585 C28.1682819,24.3494413 29,22.2836001 29,20.0872848 C29,19.4856539 28.5277533,19 27.9427313,19 C27.3577093,19 26.8854626,19.4856539 26.8854626,20.0872848 C26.8854626,23.4252492 24.245815,26.1398369 21,26.1398369 C17.754185,26.1398369 15.1145374,23.4252492 15.1145374,20.0872848 C15.1145374,19.4856539 14.6422907,19 14.0572687,19 C13.4722467,19 13,19.4856539 13,20.0872848 C13,22.2836001 13.8317181,24.3494413 15.3436123,25.9042585 C16.6052863,27.2017517 18.2088106,28.0099668 19.9497797,28.2419209 L19.9497797,28.8254304 L15.2590308,28.8254304 C14.6740088,28.8254304 14.2017621,29.3110843 14.2017621,29.9127152 C14.2017621,30.5143461 14.6740088,31 15.2590308,31 L26.7127753,31 C27.2977974,31 27.7700441,30.5143461 27.7700441,29.9127152 C27.7700441,29.3110843 27.2977974,28.8254304 26.7127753,28.8254304 L22.060793,28.8254304 L22.060793,28.2419209 C23.7947137,28.0063425 25.3982379,27.1981275 26.6563877,25.9042585 Z" id="Path" stroke-width="0.5" fill="#E71A22"></path>
                <path d="M39.3607103,24 C38.452035,24 37.7168755,24.6905919 37.7168755,25.5441807 L37.7168755,34.4060623 C37.7168755,35.2210466 36.8858257,35.9116385 35.9177897,35.9116385 L26.8356026,35.9116385 C25.9269273,35.9116385 25.1917678,36.6022305 25.1917678,37.4558193 C25.1917678,38.3094081 25.9269273,39 26.8356026,39 L35.9132235,39 C38.7123088,39 40.9999788,36.9410924 40.9999788,34.4060623 L40.9999788,25.5441807 C41.0045451,24.6905919 40.2693856,24 39.3607103,24 Z M14.2146045,35.9116385 L5.08675537,35.9116385 C4.11871934,35.9116385 3.28766954,35.2210466 3.28766954,34.4060623 L3.28766954,25.5441807 C3.28766954,24.6905919 2.5525101,24 1.64383477,24 C0.735159438,24 0,24.6905919 0,25.5441807 L0,34.4060623 C0,36.9410924 2.28767005,39 5.08675537,39 L14.2100383,39 C15.1187137,39 15.8538731,38.3094081 15.8538731,37.4558193 C15.8538731,36.6022305 15.1187137,35.9116385 14.2146045,35.9116385 Z" id="Shape" stroke-width="1.4" fill="#3C3C3C" fill-rule="nonzero"></path>
            </g>
        </g>
    </g>
</svg>