<?xml version="1.0" encoding="UTF-8" standalone="no"?>
<svg width="43px" height="44px" viewBox="0 0 43 44" version="1.1" xmlns="http://www.w3.org/2000/svg" xmlns:xlink="http://www.w3.org/1999/xlink">
    <!-- Generator: Sketch 50.2 (55047) - http://www.bohemiancoding.com/sketch -->
    <title>知识库</title>
    <desc>Created with Sketch.</desc>
    <defs></defs>
    <g id="官网" stroke="none" stroke-width="1" fill="none" fill-rule="evenodd">
        <g id="Artboard" transform="translate(-335.000000, -845.000000)" fill-rule="nonzero">
            <g id="知识库" transform="translate(336.000000, 846.000000)">
                <path d="M39.3338229,1 L32.6661771,1 C31.7473965,1 31,1.78191676 31,2.7430296 L31,40.2569239 C31,41.2180832 31.747441,42 32.6661771,42 L39.3338229,42 C40.2526035,42 41,41.2180367 41,40.2569239 L41,2.74307609 C41.0000445,1.7819633 40.2526035,1 39.3338229,1 Z" id="Shape" stroke="#3C3C3C" stroke-width="1.5"></path>
                <polygon id="Shape" fill="#E71A22" points="34 6 38 6 38 7 34 7"></polygon>
                <polygon id="Shape" fill="#E71A22" points="34 9 38 9 38 10 34 10"></polygon>
                <polygon id="Shape" fill="#E71A22" points="34 12 38 12 38 13 34 13"></polygon>
                <polygon id="Shape" fill="#E71A22" points="34 15 38 15 38 16 34 16"></polygon>
                <path d="M18.7617368,2.54379663 C18.5304386,2.14881443 18.1612406,1.86874446 17.7221184,1.75521005 L11.1433514,0.054122698 C10.7040933,-0.0595035822 10.2477505,0.00709224908 9.85802393,0.241555541 C9.46829731,0.475972876 9.19199921,0.850149655 9.07993017,1.29519358 L0.0528642081,37.1540674 C-0.178434004,38.0728143 0.3709446,39.010989 1.27737624,39.2453604 L7.85614319,40.9464478 C7.99639948,40.9826851 8.13688232,41 8.27537124,41 C9.03225663,41 9.72411204,40.4820222 9.91960981,39.7053769 L18.9465851,3.84641125 C19.0586995,3.40141328 18.9930351,2.93877887 18.7617368,2.54379663 Z" id="Shape" stroke="#3C3C3C" stroke-width="1.5"></path>
                <path d="M26.3338303,1 L19.6662142,1 C18.7474377,1 18,1.78191676 18,2.7430296 L18,40.2569239 C18,41.2180832 18.7474822,42 19.6662142,42 L26.3338303,42 C27.2526068,42 28,41.2180367 28,40.2569239 L28,2.74307609 C28.0000445,1.7819633 27.2526068,1 26.3338303,1 Z" id="Shape" stroke="#3C3C3C" stroke-width="1.5" fill="#FFFFFF"></path>
                <polygon id="Shape" fill="#E71A22" points="21 6 25 6 25 7 21 7"></polygon>
                <polygon id="Shape" fill="#E71A22" points="21 9 25 9 25 10 21 10"></polygon>
                <polygon id="Shape" fill="#E71A22" points="21 12 25 12 25 13 21 13"></polygon>
                <polygon id="Shape" fill="#E71A22" points="21 15 25 15 25 16 21 16"></polygon>
                <polygon id="Shape" fill="#E71A22" points="11.2717481 6 15 6.94340318 14.7282519 8 11 7.05659682"></polygon>
                <polygon id="Shape" fill="#E71A22" points="10.2717481 9 14 9.94340318 13.7282519 11 10 10.0565968"></polygon>
                <polygon id="Shape" fill="#E71A22" points="9.27174813 12 13 12.9434032 12.7282519 14 9 13.0565968"></polygon>
                <polygon id="Shape" fill="#E71A22" points="8.27174813 15 12 15.9434032 11.7282519 17 8 16.0565968 8.27174813 15"></polygon>
            </g>
        </g>
    </g>
</svg>