<?xml version="1.0" encoding="UTF-8" standalone="no"?>
<svg width="46px" height="46px" viewBox="0 0 46 46" version="1.1" xmlns="http://www.w3.org/2000/svg" xmlns:xlink="http://www.w3.org/1999/xlink">
    <!-- Generator: Sketch 50.2 (55047) - http://www.bohemiancoding.com/sketch -->
    <title>功能丰富</title>
    <desc>Created with Sketch.</desc>
    <defs></defs>
    <g id="官网" stroke="none" stroke-width="1" fill="none" fill-rule="evenodd">
        <g id="Artboard" transform="translate(-40.000000, -843.000000)">
            <g id="功能丰富" transform="translate(41.000000, 844.000000)">
                <path d="M13.9492754,44 L5.12318841,44 C2.30519677,43.9726312 0.0274945578,41.7053478 0,38.9002463 L0,30.114532 C0.0274945578,27.3094306 2.30519677,25.0421471 5.12318841,25.0147783 L13.9492754,25.0147783 C16.767267,25.0421471 19.0449692,27.3094306 19.0724638,30.114532 L19.0724638,38.9002463 C19.0449692,41.7053478 16.767267,43.9726312 13.9492754,44 Z M13.9492754,21.9852217 L5.12318841,21.9852217 C2.30519677,21.9578529 0.0274945578,19.6905694 2.84217094e-14,16.885468 L2.84217094e-14,8.09975369 C0.0274945578,5.29465224 2.30519677,3.02736879 5.12318841,3 L13.9492754,3 C16.767267,3.02736879 19.0449692,5.29465224 19.0724638,8.09975369 L19.0724638,16.885468 C19.0449692,19.6905694 16.767267,21.9578529 13.9492754,21.9852217 Z M36.8768116,44 L28.0507246,44 C25.232733,43.9726312 22.9550308,41.7053478 22.9275362,38.9002463 L22.9275362,30.114532 C22.9550308,27.3094306 25.232733,25.0421471 28.0507246,25.0147783 L36.8768116,25.0147783 C39.6948032,25.0421471 41.9725054,27.3094306 42,30.114532 L42,38.9002463 C41.9725054,41.7053478 39.6948032,43.9726312 36.8768116,44 Z" id="Shape" stroke="#3C3C3C" stroke-width="1.7" fill-rule="nonzero"></path>
                <path d="M33,21.9999932 C31.6702237,22.0021822 30.3951347,21.4723747 29.460342,20.529243 L23.4625883,14.5481921 C21.5124706,12.5967645 21.5124706,9.44001867 23.4625883,7.48859107 L29.460342,1.45851517 C31.4172193,-0.486171724 34.5827807,-0.486171724 36.539658,1.45851517 L42.5374117,7.48859107 C44.4875294,9.44001867 44.4875294,12.5967645 42.5374117,14.5481921 L36.539658,20.529243 C35.6048653,21.4723747 34.3297763,22.0021822 33,21.9999932 Z" id="Combined-Shape" stroke="#E71A22" stroke-width="1.5"></path>
            </g>
        </g>
    </g>
</svg>