<?xml version="1.0" encoding="UTF-8" standalone="no"?>
<svg width="41px" height="41px" viewBox="0 0 41 41" version="1.1" xmlns="http://www.w3.org/2000/svg" xmlns:xlink="http://www.w3.org/1999/xlink">
    <!-- Generator: Sketch 50.2 (55047) - http://www.bohemiancoding.com/sketch -->
    <title>厂商</title>
    <desc>Created with Sketch.</desc>
    <defs></defs>
    <g id="官网" stroke="none" stroke-width="1" fill="none" fill-rule="evenodd">
        <g id="Artboard" transform="translate(-515.000000, -1526.000000)">
            <g id="厂商" transform="translate(516.000000, 1527.000000)">
                <path d="M18.7778519,39 L18.7778519,38.9996953 L0,39 L0,15.1661999 C0,14.3685837 0.646770573,13.7218973 1.44451377,13.7218973 L18.7778519,10.8327698 L18.7778519,1.44430256 C18.7778519,0.646599328 19.4245355,0 20.2222351,0 L37.5555733,0 C38.35336,0 39,0.646599328 39,1.44430256 L39,39 L18.7778519,39 Z M18.7778519,12.2773771 L1.44451377,15.1661999 L1.44451377,37.555175 L18.7778519,37.555175 L18.7778519,12.2773771 Z M37.5555733,1.44430256 L20.2222351,1.44430256 L20.2222351,37.5553927 L37.5555733,37.5553927 L37.5555733,1.44430256 Z" id="Shape" stroke="#3C3C3C" stroke-width="0.2" fill="#3C3C3C" fill-rule="nonzero"></path>
                <path d="M24.5556023,7.22225286 L33.2222061,7.22225286 C33.6210995,7.22225286 33.9445065,7.54544369 33.9445065,7.94425177 C33.9445065,8.34327752 33.6210995,8.66646835 33.2222061,8.66646835 L24.5556023,8.66646835 C24.1567089,8.66646835 23.833389,8.34327752 23.833389,7.94425177 C23.833389,7.54544369 24.1567525,7.22225286 24.5556023,7.22225286 Z" id="Path" fill="#E71A22"></path>
                <path d="M24.5556023,17.3332414 L33.2222061,17.3332414 C33.6210995,17.3332414 33.9445065,17.656737 33.9445065,18.0555451 C33.9445065,18.4543532 33.6210995,18.7778487 33.2222061,18.7778487 L24.5556023,18.7778487 C24.1567089,18.7778487 23.833389,18.4543532 23.833389,18.0555451 C23.833389,17.656737 24.1567525,17.3332414 24.5556023,17.3332414 Z" id="Path" fill="#E71A22"></path>
                <path d="M24.5556023,26.7221005 L33.2222061,26.7221005 C33.6210995,26.7221005 33.9445065,27.045509 33.9445065,27.4443171 C33.9445065,27.8431252 33.6210995,28.1666207 33.2222061,28.1666207 L24.5556023,28.1666207 C24.1567089,28.1666207 23.833389,27.8431252 23.833389,27.4443171 C23.833389,27.045509 24.1567525,26.7221005 24.5556023,26.7221005 Z" id="Path" fill="#E71A22"></path>
                <path d="M7.22230768,20.2221513 C7.62120104,20.2221513 7.94452103,20.5455598 7.94452103,20.9443679 L7.94452103,27.4443171 C7.94452103,27.8431252 7.62120104,28.1666207 7.22230768,28.1666207 C6.82341431,28.1666207 6.50000726,27.8431252 6.50000726,27.4443171 L6.50000726,20.9443679 C6.50000726,20.5455598 6.82341431,20.2221513 7.22230768,20.2221513 Z" id="Path" fill="#E71A22"></path>
                <path d="M12.2778447,20.2221513 C12.676651,20.2221513 13.000058,20.5455598 13.000058,20.9443679 L13.000058,27.4443171 C13.000058,27.8431252 12.676651,28.1666207 12.2778447,28.1666207 C11.8789513,28.1666207 11.5555443,27.8431252 11.5555443,27.4443171 L11.5555443,20.9443679 C11.5555443,20.5455598 11.8789513,20.2221513 12.2778447,20.2221513 Z" id="Path" fill="#E71A22"></path>
            </g>
        </g>
    </g>
</svg>