<svg xmlns="http://www.w3.org/2000/svg" viewBox="0 0 66 44.23"><defs><style>.cls-1{fill:#e71a22;}.cls-1,.cls-3{stroke:#fff;}.cls-2{fill:none;stroke:#3c3c3c;}.cls-2,.cls-3{stroke-width:2px;}.cls-3{fill:#3c3c3c;}</style></defs><title>资源 1</title><g id="图层_2" data-name="图层 2"><g id="图层_1-2" data-name="图层 1"><g id="官网"><g id="Artboard"><g id="混合云架构"><path id="Shape" class="cls-1" d="M28.63,28.92a1.54,1.54,0,0,1,0,3.06H25.88V35a1.38,1.38,0,1,1-2.75,0V32H20.38a1.54,1.54,0,0,1,0-3.06h2.75V25.87a1.38,1.38,0,1,1,2.75,0v3.05Z"/><path id="Shape-2" data-name="Shape" class="cls-2" d="M38.78,43.23C43,43.23,47,40.39,48,34.88l0-.19c.31-5.27-2.36-8.9-6.35-10.57L41,23.86l0-.73C40.71,16.35,37.24,10.9,30.36,10a15.25,15.25,0,0,0-1.77-.1c-4.9,0-8,2.23-9.77,5.51l-.31.57-.6,0a10.56,10.56,0,0,0-6.37,1.65,7.26,7.26,0,0,0-3.23,5.54l-.06.68-.59.24A10.43,10.43,0,0,0,1,34.18c.15,6,4.14,9,9,9h0l28.8.08Z"/><path id="Shape-3" data-name="Shape" class="cls-3" d="M53,36.56h-.27l.09-4.48c.28,0,7.1.07,8.09-5.42a7,7,0,0,0-5.28-7.47l-1.75-.42L54,16.83c.06-1,.4-10.21-7.73-11.3a9.38,9.38,0,0,0-8,3.37L35,6.07a13.47,13.47,0,0,1,11.68-5c8.72,1.17,11.2,9,11.41,14.27,3.19,1.37,7.28,4.91,6.88,11.73l0,.26C63.75,34.66,56.74,36.56,53,36.56Z"/></g></g></g></g></g></svg>