<?xml version="1.0" encoding="UTF-8" standalone="no"?>
<svg width="60px" height="60px" viewBox="0 0 60 60" version="1.1" xmlns="http://www.w3.org/2000/svg" xmlns:xlink="http://www.w3.org/1999/xlink">
    <!-- Generator: Sketch 50.2 (55047) - http://www.bohemiancoding.com/sketch -->
    <title>工具</title>
    <desc>Created with Sketch.</desc>
    <defs></defs>
    <g id="官网" stroke="none" stroke-width="1" fill="none" fill-rule="evenodd">
        <g id="Artboard" transform="translate(-575.000000, -1460.000000)" stroke-width="2">
            <g id="工具" transform="translate(575.000000, 1460.000000)">
                <path d="M56.2100667,10.0566566 C56.0636318,10.0566566 55.9244336,10.0920325 55.7971551,10.1602176 C55.8046488,10.1562294 55.7252457,10.2230044 55.6225314,10.3250691 C55.5865825,10.3607908 55.5483857,10.3999171 55.5078265,10.4424928 C55.4073959,10.5479166 55.1073368,10.8792635 55.0875257,10.8991778 L45.0925846,20.7603092 L39.2295032,14.8972343 L39.9370428,14.1901272 L49.5517265,4.58132072 C49.6072934,4.52573812 49.9171333,3.81986296 49.9171333,3.78032913 C49.9171333,3.4518395 49.7357515,3.1562431 49.4518652,3.0052547 C46.9992433,1.70592968 44.1668813,1.00043085 41.2432,1 C31.4621147,1 23.4990667,8.96477902 23.4990667,18.7499792 C23.4990667,20.4875172 23.7469761,22.1836627 24.2305181,23.8097417 L24.40198,24.3863421 L13.8516016,34.7550292 L13.4424667,34.7550292 C13.3878842,34.7550292 13.3434284,34.7542413 13.2601392,34.7522502 C13.1847108,34.7504915 13.1586149,34.7500292 13.125,34.7500292 C6.44141783,34.7500292 1,40.191441 1,46.8750146 C1,53.5585882 6.44141783,59 13.125,59 C19.8082666,59 25.25,53.5597036 25.25,46.8792146 C25.25,46.7370351 25.2492893,46.6769919 25.2461148,46.6098213 L25.225246,46.1682379 L35.756903,35.6337976 L36.3292373,35.8056864 C37.8286517,36.2560046 39.5238711,36.500025 41.2390667,36.500025 C51.0344028,36.500025 59,28.5376613 59.0000001,18.7504653 C58.9987645,15.8050948 58.2828163,12.9655501 56.9374659,10.4301071 C56.8302712,10.2322997 56.528974,10.0566566 56.2100667,10.0566566 Z" id="Shape" stroke="#3C3C3C" fill-rule="nonzero"></path>
                <path d="M13.1288565,42.2500875 C13.1277514,42.2500875 13.1277234,42.2500875 13.1264583,42.2500875 C13.1260271,42.2500875 13.1260271,42.2500875 13.1256,42.2500875 C10.5731263,42.2500875 8.50393333,44.3192612 8.50393333,46.8717479 C8.50393333,46.8735479 8.50393333,46.8735479 8.50393333,46.8752146 C8.50393333,46.8766146 8.50393333,46.8766146 8.50393333,46.8784146 C8.50393333,49.4308843 10.5731094,51.500075 13.1256,51.500075 C13.1274,51.500075 13.1274,51.500075 13.1289163,51.500075 C15.6807244,51.4996914 17.7493497,49.4310514 17.7497333,46.8792812 C17.7497333,46.8756479 17.7497333,46.8756479 17.7497333,46.8717479 C17.7497333,44.3195804 15.6809756,42.2505118 13.1288582,42.2500875 Z" id="Path" stroke="#E71A22"></path>
            </g>
        </g>
    </g>
</svg>