<?xml version="1.0" encoding="UTF-8" standalone="no"?>
<svg width="40px" height="40px" viewBox="0 0 40 40" version="1.1" xmlns="http://www.w3.org/2000/svg" xmlns:xlink="http://www.w3.org/1999/xlink">
    <!-- Generator: Sketch 50.2 (55047) - http://www.bohemiancoding.com/sketch -->
    <title>效率异常</title>
    <desc>Created with Sketch.</desc>
    <defs></defs>
    <g id="官网" stroke="none" stroke-width="1" fill="none" fill-rule="evenodd">
        <g id="Artboard" transform="translate(-470.000000, -1530.000000)" fill-rule="nonzero" stroke="#FFFFFF">
            <g id="效率异常" transform="translate(471.000000, 1531.000000)">
                <path d="M23.1475451,35.0417697 C22.8415976,35.113157 22.5295795,35.1765954 22.2199815,35.2298959 C21.4105885,35.3708273 20.8753957,36.099562 21.0251086,36.8580958 C21.0991037,37.2311994 21.3254368,37.5420166 21.6327789,37.7448888 C21.9495139,37.9536747 22.3526312,38.0478338 22.7634187,37.9762929 C23.1321636,37.9122017 23.5038207,37.836859 23.8684639,37.7516473 C24.6677666,37.5654412 25.1547231,36.8072914 24.9553384,36.0593946 C24.7564458,35.3108451 23.947422,34.8553331 23.1476681,35.0417313 L23.1475451,35.0417697 Z" id="Shape" stroke-width="0.7" fill="#E71A22"></path>
                <path d="M34.3887034,13.9670123 C34.4825124,14.285007 34.6616222,14.5446385 34.8879127,14.7240361 C35.2233707,14.9897566 35.6623611,15.0791861 36.0813153,14.9233989 C36.7836115,14.6611164 37.1641876,13.8094026 36.9317832,13.0200284 C36.8258936,12.6601563 36.7084759,12.2991244 36.5833606,11.9476609 C36.3086371,11.1751868 35.5295848,10.7991188 34.8423158,11.1080836 C34.1558201,11.4169241 33.8212461,12.2933668 34.0962274,13.0660894 C34.2013434,13.3615093 34.2998667,13.6647578 34.3887034,13.967178 L34.3887034,13.9670123 Z" id="Shape" stroke-width="0.7" fill="#E71A22"></path>
                <path d="M27.6077167,32.2802555 C27.3356497,32.4771092 27.0548461,32.6675963 26.7718795,32.8460473 C26.0337998,33.3125293 25.7810723,34.3461973 26.2066673,35.1546173 C26.3222374,35.3744745 26.4761048,35.5541802 26.6532558,35.6915503 C27.129023,36.0583042 27.7751555,36.1133266 28.3131823,35.7736656 C28.6495444,35.5611045 28.9839132,35.3350666 29.3079337,35.1002455 C30.0184038,34.5859443 30.2138764,33.5373589 29.7443011,32.7586807 C29.2747682,31.9796307 28.3182292,31.7656289 27.6076743,32.2803484 L27.6077167,32.2802555 Z" id="Shape" stroke-width="0.7" fill="#E71A22"></path>
                <path d="M37.9857457,18.4248338 C37.953302,17.6062742 37.2589657,16.9691817 36.4344029,17.0011525 C35.6108667,17.033368 34.96881,17.7230248 35.0011715,18.5412583 C35.0134919,18.8540343 35.0167774,19.1716222 35.0095083,19.4841535 C34.997845,19.9973998 35.2507827,20.4550233 35.64368,20.729997 C35.8777675,20.8937252 36.1618347,20.9926962 36.4698445,20.9996287 C37.294202,21.0177754 37.9772857,20.3685715 37.995602,19.5496856 C38.0037334,19.176271 38.0006533,18.7979629 37.9858278,18.424793 L37.9857457,18.4248338 Z" id="Shape" stroke-width="0.7" fill="#E71A22"></path>
                <path d="M34.3435494,28.3148912 C33.6168014,27.7930811 32.5885624,27.9347683 32.0442351,28.6289452 C31.8357156,28.8948626 31.6162688,29.1574097 31.3915391,29.4101912 C30.8040901,30.0706638 30.8870825,31.0626907 31.5772561,31.6252483 C31.6165849,31.6571809 31.6564104,31.6865208 31.6976357,31.7140459 C32.3837003,32.1769601 33.3373454,32.0705758 33.8921484,31.4476099 C34.1605868,31.1459141 34.4222974,30.8322922 34.6713649,30.5147382 C35.2156922,29.8205182 35.0684462,28.8358371 34.3436397,28.3148048 L34.3435494,28.3148912 Z" id="Shape" stroke-width="0.7" fill="#E71A22"></path>
                <path d="M36.0565229,23.0692915 C35.3472134,22.8207362 34.5918996,23.2620056 34.3696135,24.0547435 C34.284563,24.3576095 34.1902598,24.6618405 34.0884805,24.9599083 C33.86501,25.6159387 34.0791168,26.337779 34.5699893,26.7246135 C34.6600363,26.7953043 34.7592249,26.8552819 34.8669259,26.9007821 C35.5613571,27.1969885 36.3390254,26.807548 36.6037627,26.0311075 C36.7245655,25.6767849 36.8367449,25.3147273 36.9381171,24.9547378 C37.1602181,24.1618758 36.7656103,23.3178882 36.0564489,23.0693329 L36.0565229,23.0692915 Z" id="Shape" stroke-width="0.7" fill="#E71A22"></path>
                <path d="M16.1289043,34.9464657 C14.7669445,34.6993994 13.4604047,34.2787647 12.2214749,33.6921357 C12.2068554,33.6844347 12.1937021,33.6756336 12.1783285,33.6684827 C11.8863573,33.5296957 11.5949726,33.3809651 11.3123847,33.225676 C11.3114631,33.2245335 11.30962,33.2237719 11.30807,33.2230949 C10.7897269,32.9347733 10.2839088,32.6157747 9.7924169,32.2663531 C2.62630403,27.1672844 0.903296884,17.1299369 5.9515922,9.89147491 C7.04939557,8.31806179 8.37780173,7.00538207 9.85877019,5.96502956 C9.8770341,5.95216637 9.89525612,5.93943012 9.91335247,5.92652462 C15.1322226,2.29428235 22.2184937,2.04945867 27.7600822,5.78194071 L26.5698701,7.51897864 C26.2389415,8.00249059 26.4426092,8.35478957 27.0218181,8.30219437 L32.191803,7.83467678 C32.7718078,7.78203927 33.1185707,7.2752128 32.9626572,6.70948647 L31.5743488,1.65687761 C31.418938,1.09047427 31.0209859,1.02264635 30.6898059,1.50598904 L29.4968291,3.24713135 C25.4300514,0.489585749 20.5524147,-0.561895118 15.7110545,0.2861443 C15.2235003,0.371405224 14.7426065,0.475749361 14.2684989,0.597187996 C14.2647707,0.597865006 14.2618803,0.598161198 14.2589481,0.598922834 C14.2406004,0.60349265 14.2220851,0.609501112 14.2041982,0.614409433 C10.0295126,1.69737126 6.38707752,4.15677866 3.78790541,7.6659744 C3.76595521,7.69220853 3.74346044,7.71789259 3.72280882,7.74641163 C3.63643225,7.86404208 3.55060026,7.98429595 3.46661141,8.10459213 C3.32925508,8.30172893 3.19382568,8.50381636 3.06430273,8.7059461 C3.04809142,8.73036077 3.03573396,8.75507162 3.02149146,8.77969786 C0.876655035,12.1369049 -0.157852997,16.0182022 0.0195079927,19.9694853 C0.0198012206,19.9824754 0.0192566545,19.9955925 0.0195079927,20.0088788 C0.0367246595,20.3948167 0.0669690229,20.7861707 0.108104708,21.1714316 C0.110324862,21.1962271 0.115728634,21.2197955 0.120001383,21.2446333 C0.162477539,21.6319675 0.215886907,22.0203173 0.282742868,22.4085401 C0.962445141,26.3694706 2.81221052,29.9336734 5.5839263,32.7070018 C5.59037731,32.713518 5.596954,32.7206266 5.60353068,32.7273121 C5.60579272,32.7298932 5.60834799,32.7312049 5.61052626,32.7336168 C6.35528324,33.4754926 7.16526248,34.1618113 8.03740603,34.7822908 C10.3199339,36.4068604 12.8615077,37.480725 15.5909567,37.9754922 C16.419158,38.1258307 17.210245,37.5689055 17.3588696,36.7327984 C17.5074524,35.8959296 16.956561,35.0962118 16.128611,34.9462964 L16.1289043,34.9464657 Z" id="Shape" fill="#3C3C3C"></path>
                <path d="M18.2302976,7.00008612 C17.5506581,7.00008612 17,7.56785934 17,8.26710102 L17,20.8903554 L28.2055051,26.858455 C28.3858535,26.9546987 28.5789495,27 28.7689945,27 C29.2139931,27 29.6439034,26.7502831 29.862453,26.3145812 C30.1741652,25.6927221 29.9382704,24.9288012 29.3347408,24.6076874 L19.4591324,19.3473988 L19.4591324,8.2670149 C19.4590488,7.56768709 18.9090176,7 18.230214,7 L18.2302976,7.00008612 Z" id="Shape" fill="#E71A22"></path>
            </g>
        </g>
    </g>
</svg>