<?xml version="1.0" encoding="UTF-8" standalone="no"?>
<svg width="46px" height="50px" viewBox="0 0 46 50" version="1.1" xmlns="http://www.w3.org/2000/svg" xmlns:xlink="http://www.w3.org/1999/xlink">
    <!-- Generator: Sketch 50.2 (55047) - http://www.bohemiancoding.com/sketch -->
    <title>Group</title>
    <desc>Created with Sketch.</desc>
    <defs></defs>
    <g id="官网" stroke="none" stroke-width="1" fill="none" fill-rule="evenodd">
        <g id="Artboard" transform="translate(-518.000000, -1469.000000)">
            <g id="Group" transform="translate(519.000000, 1470.000000)">
                <g id="资源-55" fill-rule="nonzero" stroke="#FFFFFF">
                    <path d="M1.40036167,44.3867514 L23.1059674,44.3867514 C27.8799277,49.2044162 35.6455696,49.2044162 40.4195298,44.3867514 C45.1934901,39.5690866 45.1934901,31.732352 40.4195298,26.9146872 C39.5920434,26.0796253 38.6372513,25.3730344 37.6188065,24.7949147 L37.6188065,1.4774172 C37.6188065,0.706590836 36.9822785,0.0642355305 36.2184448,0.0642355305 L29.9168174,0.0642355305 C29.4712477,-1.80963753e-15 29.0893309,0.192706592 28.7710669,0.449648714 L24.9518987,4.49648714 L12.7305606,4.49648714 L8.59312836,0.513884244 C8.33851715,0.192706592 7.95660033,0.0642355305 7.57468351,0 L1.40036167,0 C0.636528032,0 0,0.642355305 0,1.41318167 L0,42.9093342 C0,43.7443961 0.636528032,44.3867514 1.40036167,44.3867514 Z M41.2470163,35.6507193 C41.2470163,40.9180328 37.0459313,45.1575777 31.8264015,45.1575778 C26.6068717,45.1575778 22.4057866,40.9180328 22.4057866,35.6507193 C22.4057866,30.3834058 26.6068716,26.1438608 31.8264015,26.1438608 C36.9822785,26.1438608 41.2470163,30.3834058 41.2470163,35.6507193 Z M2.80072334,41.5603881 L2.80072334,2.89059887 L6.93815548,2.89059887 L11.0755877,6.87320177 C11.2665461,7.00167283 11.4575045,7.13014389 11.6484629,7.19437942 C11.8394213,7.32285048 12.0303797,7.38708601 12.2849909,7.38708601 L25.4611211,7.38708601 C25.9066908,7.45132154 26.2886076,7.25861495 26.6068716,7.00167283 L30.4260398,2.9548344 L34.8180831,2.9548344 L34.8180831,23.7671462 C32.908499,23.1890264 30.8079565,23.1890264 28.8983725,23.7029106 C28.7074141,23.5744396 28.5164557,23.510204 28.3254973,23.510204 L9.356962,23.510204 C8.59312836,23.6386751 8.02025314,24.4095015 8.14755874,25.1803278 C8.27486435,25.8226831 8.72043397,26.2723319 9.356962,26.4008029 L23.8698011,26.4008029 C22.2148282,27.8139846 21.0054249,29.676815 20.2415913,31.732352 L9.16600359,31.732352 C8.40216995,31.860823 7.82929473,32.5674139 7.95660033,33.3382402 C8.02025314,33.9805955 8.52947556,34.4944798 9.16600359,34.5587153 L19.6687161,34.5587153 C19.6687161,34.9441285 19.5414104,35.3295417 19.5414104,35.7149548 C19.5414104,37.7704918 20.1142857,39.8260287 21.0690777,41.6246236 L2.80072334,41.5603881 Z" id="Shape" fill="#3C3C3C"></path>
                    <path d="M9.20486814,17.9646643 L28.203718,17.9646643 C28.9536727,17.8358854 29.5161386,17.1276011 29.3911462,16.3549274 C29.32865,15.7110326 28.8286802,15.2603063 28.203718,15.1315273 L9.20486814,15.1315273 C8.45491354,15.2603063 7.89244759,15.9685905 8.01744002,16.7412642 C8.07993624,17.385159 8.57990597,17.9002749 9.20486814,17.9646643 Z M13.7045958,0 C13.0171374,0.0643894781 12.4546714,0.708284259 12.5171676,1.41656852 C12.4546714,2.12485278 13.0171374,2.76874756 13.7045958,2.83313704 L23.7039904,2.83313704 C24.3914488,2.76874756 24.9539148,2.12485278 24.8914185,1.41656852 C24.9539148,0.708284259 24.3914488,0.0643894781 23.7039904,0 L13.7045958,0 Z" id="Shape" fill="#050505"></path>
                </g>
                <path d="M31.231405,30 L32.768595,30 L32.5041322,38.6280992 L31.4793388,38.6280992 L31.231405,30 Z M31.9917355,39.8347107 C32.2727273,39.8347107 32.5206612,39.9173554 32.7190083,40.1157025 C32.9008264,40.2975207 33,40.5289256 33,40.8099174 C33,41.107438 32.9008264,41.338843 32.7190083,41.5206612 C32.5206612,41.7024793 32.2727273,41.8016529 31.9917355,41.8016529 C31.7107438,41.8016529 31.4793388,41.7024793 31.2809917,41.5206612 C31.0826446,41.322314 31,41.0909091 31,40.8099174 C31,40.5289256 31.0826446,40.2975207 31.2809917,40.1157025 C31.4793388,39.9173554 31.7107438,39.8347107 31.9917355,39.8347107 Z" id="！" fill="#E71A22"></path>
            </g>
        </g>
    </g>
</svg>