<?xml version="1.0" encoding="UTF-8" standalone="no"?>
<svg width="45px" height="39px" viewBox="0 0 45 39" version="1.1" xmlns="http://www.w3.org/2000/svg" xmlns:xlink="http://www.w3.org/1999/xlink">
    <!-- Generator: Sketch 50.2 (55047) - http://www.bohemiancoding.com/sketch -->
    <title>培训-2</title>
    <desc>Created with Sketch.</desc>
    <defs></defs>
    <g id="解决方案" stroke="none" stroke-width="1" fill="none" fill-rule="evenodd">
        <g id="直播" transform="translate(-148.000000, -259.000000)">
            <g id="培训-2" transform="translate(149.000000, 260.000000)">
                <path d="M26.8196721,34.9473684 L14.2295082,34.9473684 C13.7951639,34.9473684 13.442623,34.4993476 13.442623,33.9473684 C13.442623,33.3953893 13.7951639,32.9473684 14.2295082,32.9473684 L26.8196721,32.9473684 C27.2540164,32.9473684 27.6065574,33.3953893 27.6065574,33.9473684 C27.6065574,34.4993476 27.2540164,34.9473684 26.8196721,34.9473684 M29.9672131,38 C29.5328689,38 29.1803279,37.6227193 29.1803279,37.1578947 L29.1803279,30.4210526 C29.1803279,29.9562281 29.5328689,29.5789474 29.9672131,29.5789474 C30.4015574,29.5789474 30.7540984,29.9562281 30.7540984,30.4210526 L30.7540984,37.1578947 C30.7540984,37.6227193 30.4015574,38 29.9672131,38 M11.0819672,38 C10.647623,38 10.295082,37.6227193 10.295082,37.1578947 L10.295082,30.4210526 C10.295082,29.9562281 10.647623,29.5789474 11.0819672,29.5789474 C11.5163115,29.5789474 11.8688525,29.9562281 11.8688525,30.4210526 L11.8688525,37.1578947 C11.8688525,37.6227193 11.5163115,38 11.0819672,38" id="Shape" fill="#464646" fill-rule="nonzero"></path>
                <path d="M35.2131148,9.92982456 L24.7213115,9.92982456 C24.2869672,9.92982456 23.9344262,9.55254386 23.9344262,9.0877193 C23.9344262,8.62289474 24.2869672,8.24561404 24.7213115,8.24561404 L35.2131148,8.24561404 C35.647459,8.24561404 36,8.62289474 36,9.0877193 C36,9.55254386 35.647459,9.92982456 35.2131148,9.92982456" id="Path" fill="#E81A23"></path>
                <path d="M35.2131148,14.4210526 L24.7213115,14.4210526 C24.2869672,14.4210526 23.9344262,14.0437719 23.9344262,13.5789474 C23.9344262,13.1141228 24.2869672,12.7368421 24.7213115,12.7368421 L35.2131148,12.7368421 C35.647459,12.7368421 36,13.1141228 36,13.5789474 C36,14.0437719 35.647459,14.4210526 35.2131148,14.4210526" id="Path" fill="#E81A23"></path>
                <path d="M13.1803279,25.6266667 C7.67004098,25.6266667 4,25.0989474 4,22.5164912 C4,20.4123684 6.86844262,18.1689912 10.5279918,17.4144737 C10.6413115,17.3403509 10.8154918,16.8687719 10.8364754,16.565614 C10.6664754,16.4667982 10.5322131,16.3028947 10.4671311,16.1030263 C10.1901639,15.5056579 9.9404918,15.0341228 9.72434426,14.6276316 C9.14098361,13.5295614 8.72131148,12.7390789 8.72131148,11.2479825 C8.72131148,8.15807018 10.5552869,6 13.1803279,6 C15.7634016,6 17.6393443,8.24337719 17.6393443,11.3333333 C17.6393443,13.3476316 16.8881148,15.3709649 15.677377,16.615 C15.4863934,16.830614 15.5053279,17.0596491 15.5388525,17.1742105 C15.5829508,17.3403509 15.702541,17.4683333 15.8473361,17.5042982 C19.4838115,18.2521053 22.3606557,20.4707456 22.3606557,22.5524123 C22.3606557,25.1034211 18.6906148,25.6266667 13.1803279,25.6266667 Z M11.7786066,15.1441228 C12.085,15.3327632 12.3368033,15.6898246 12.3955328,16.2377632 C12.4983607,17.2078509 11.9506967,18.7910088 10.857418,19.0604825 C7.67008197,19.7207018 5.57377049,21.577807 5.57377049,22.5187281 C5.57377049,22.8533333 6.12352459,23.944693 13.1803279,23.944693 C20.0440574,23.944693 20.7868852,22.9701316 20.7868852,22.5524123 C20.7868852,21.6294737 18.6843443,19.8015351 15.5158197,19.150307 C14.7897541,18.9639035 14.2336885,18.3913158 14.0280738,17.6525 C13.8161475,16.8755263 14.0133607,16.0424123 14.5631557,15.4248684 C15.4864344,14.477193 16.0655738,12.8805702 16.0655738,11.3333333 C16.0655738,9.15061404 14.9051639,7.68421053 13.1803279,7.68421053 C11.4281967,7.68421053 10.295082,9.08324561 10.295082,11.2479825 C10.295082,12.292193 10.5447951,12.7637719 11.092459,13.7945175 C11.2959836,14.1762719 11.5268033,14.609693 11.7786066,15.1441228 Z" id="Combined-Shape" fill="#E81A23"></path>
                <path d="M41.2037975,35 L34.5632911,35 C34.1126246,35 33.7468354,34.6266493 33.7468354,34.1666667 C33.7468354,33.706684 34.1126246,33.3333333 34.5632911,33.3333333 L41.2037975,33.3333333 C41.3496539,33.3333333 41.3670886,33.1377604 41.3670886,33.0555556 L41.3670886,1.94444444 C41.3670886,1.87999132 41.3540338,1.66666667 41.2037975,1.66666667 L2.01392405,1.66666667 C1.82014339,1.66666667 1.63291139,1.8422309 1.63291139,1.94444444 L1.63291139,33.0555556 C1.63291139,33.1577691 1.82014339,33.3333333 2.01392405,33.3333333 L8.43670886,33.3333333 C8.8873754,33.3333333 9.25316456,33.706684 9.25316456,34.1666667 C9.25316456,34.6266493 8.8873754,35 8.43670886,35 L2.01392405,35 C0.942751187,35 0,34.0911458 0,33.0555556 L0,1.94444444 C0,0.908854167 0.942751187,0 2.01392405,0 L41.2037975,0 C42.2292573,0 43,0.835546875 43,1.94444444 L43,33.0555556 C43,34.1644531 42.2292573,35 41.2037975,35" id="Shape" stroke="#464646" stroke-width="0.3" fill="#464646" fill-rule="nonzero"></path>
            </g>
        </g>
    </g>
</svg>