<?xml version="1.0" encoding="UTF-8" standalone="no"?>
<svg width="44px" height="45px" viewBox="0 0 44 45" version="1.1" xmlns="http://www.w3.org/2000/svg" xmlns:xlink="http://www.w3.org/1999/xlink">
    <!-- Generator: Sketch 50.2 (55047) - http://www.bohemiancoding.com/sketch -->
    <title>知识库</title>
    <desc>Created with Sketch.</desc>
    <defs></defs>
    <g id="解决方案" stroke="none" stroke-width="1" fill="none" fill-rule="evenodd">
        <g id="直播" transform="translate(-196.000000, -258.000000)">
            <g id="知识库" transform="translate(196.000000, 258.000000)">
                <path d="M34.8223956,1.97150417 L42.1293115,1.97150417 L42.1293115,43.2614749 L34.8223956,43.2614749 L34.8223956,1.97150417 Z M33.2523333,43.2614749 C33.2523333,44.2798194 33.9658949,45 34.9744104,45 L42.2801918,45 C43.2875729,45 44,44.2798194 44,43.2614749 L44,1.97150417 C44,0.969214646 43.6993739,0.66761036 42.7090094,0.66761036 L34.5444583,0.66761036 C33.5529594,0.66761036 33.2523333,0.969214646 33.2523333,1.97150417 L33.2523333,43.2614749 Z M21.9374475,1.97150417 L29.2443634,1.97150417 L29.2443634,43.2614749 L21.9374475,43.2614749 L21.9374475,1.97150417 Z M20.2187738,43.2614749 C20.2187738,44.2798194 20.9312009,45 21.9374475,45 L29.2443634,45 C30.25061,45 30.9630372,44.2798194 30.9630372,43.2614749 L30.9630372,1.97150417 C30.9630372,0.969214646 30.6658144,0.66761036 29.6743155,0.66761036 L21.5074955,0.66761036 C20.5182655,0.66761036 20.2187738,0.969214646 20.2187738,1.97150417 L20.2187738,43.2614749 Z M12.53409,1.4783869 L19.5812196,3.43250744 L8.77569653,43.2500071 L1.72856696,41.2958865 L12.53409,1.4783869 Z M0.0711528704,40.8371728 C-0.195440087,41.8188202 0.304847122,42.7052845 1.27479171,42.973632 L8.32078684,44.9277526 C9.29073143,45.1961001 10.1676521,44.691515 10.4342451,43.7110144 L21.2397681,3.89236797 C21.5006889,2.92562876 21.2908178,2.55407063 20.3367554,2.28916344 L12.461486,0.105686025 C11.5062891,-0.160367945 11.1375967,0.0517871607 10.8766759,1.01852637 L0.0711528704,40.8371728 Z" id="Shape" fill="#464646" fill-rule="nonzero"></path>
                <path d="M23.4417125,13.7065485 C23.4417125,14.3166378 24.028217,14.5769578 24.7327031,14.5769578 L26.4513768,14.5769578 C27.153594,14.5769578 27.7412329,14.3166378 27.7412329,13.7065485 C27.7412329,13.0987528 27.153594,12.8384327 26.4513768,12.8384327 L24.7327031,12.8384327 C24.028217,12.8372859 23.4417125,13.097606 23.4417125,13.7065485 Z" id="Path" fill="#E81A23"></path>
                <path d="M23.4417125,18.0528612 C23.4417125,18.6618037 24.028217,18.920977 24.7327031,18.920977 L26.4513768,18.920977 C27.153594,18.920977 27.7412329,18.6606569 27.7412329,18.0528612 C27.7412329,17.4450655 27.153594,17.1835987 26.4513768,17.1835987 L24.7327031,17.1835987 C24.028217,17.1835987 23.4417125,17.4439187 23.4417125,18.0528612 Z" id="Path" fill="#E81A23"></path>
                <path d="M23.4417125,22.1824317 C23.4417125,22.7890806 24.028217,23.0516942 24.7327031,23.0516942 L26.4513768,23.0516942 C27.153594,23.0516942 27.7412329,22.7890806 27.7412329,22.1824317 C27.7412329,21.5723424 27.153594,21.3120223 26.4513768,21.3120223 L24.7327031,21.3120223 C24.028217,21.3120223 23.4417125,21.5723424 23.4417125,22.1824317 Z" id="Path" fill="#E81A23"></path>
                <path d="M23.4417125,9.36138256 C23.4417125,9.97032506 24.028217,10.2294983 24.7327031,10.2294983 L26.4513768,10.2294983 C27.153594,10.2294983 27.7412329,9.96917827 27.7412329,9.36138256 C27.7412329,8.75244007 27.153594,8.49212002 26.4513768,8.49212002 L24.7327031,8.49212002 C24.028217,8.49097324 23.4417125,8.75129329 23.4417125,9.36138256 Z" id="Path" fill="#E81A23"></path>
                <path d="M10.9141124,13.1973762 C10.7541566,13.7845298 11.2521749,14.1927851 11.9305689,14.3808577 L13.5891174,14.8395714 C14.2675114,15.0287909 14.9005279,14.9347545 15.0593492,14.3464542 C15.2181706,13.7581538 14.7212867,13.3510453 14.0428927,13.1629727 L12.3843442,12.704259 C11.7070846,12.5161863 11.0729337,12.6102226 10.9141124,13.1973762 Z" id="Path" fill="#E81A23"></path>
                <path d="M9.77627094,17.3888731 C9.61744961,17.9760266 10.1143335,18.3831351 10.7927275,18.5712077 L12.4501416,19.0310683 C13.12967,19.2202877 13.761552,19.1251046 13.9215078,18.5368042 C14.0814636,17.9507974 13.5845797,17.5425422 12.9050513,17.3544695 L11.2476372,16.894609 C10.5681087,16.7065364 9.93622672,16.8005727 9.77627094,17.3888731 Z" id="Path" fill="#E81A23"></path>
                <path d="M8.69628586,21.3705083 C8.53746452,21.9576619 9.03434842,22.3659172 9.71274241,22.5539898 L11.3701565,23.0127035 C12.0485505,23.2007762 12.681567,23.1055931 12.8403883,22.5184395 C13.0003441,21.9312859 12.5034602,21.5241774 11.8239317,21.3361048 L10.1665177,20.8762443 C9.4892581,20.6893184 8.8551072,20.7833548 8.69628586,21.3705083 Z" id="Path" fill="#E81A23"></path>
                <path d="M12.0519538,9.0070262 C11.8931325,9.593033 12.3888819,10.0012882 13.0684104,10.1893609 L14.7269589,10.6492214 C15.4053529,10.837294 16.0372349,10.7432577 16.1971907,10.1549573 C16.356012,9.56780375 15.8591281,9.1606953 15.1818686,8.97262267 L13.52332,8.51276214 C12.8437916,8.32468951 12.2107751,8.41872582 12.0519538,9.0070262 Z" id="Path" fill="#E81A23"></path>
                <path d="M36.3266606,13.7065485 C36.3266606,14.3166378 36.915434,14.5769578 37.6176512,14.5769578 L39.3363249,14.5769578 C40.0419454,14.5769578 40.6273155,14.3166378 40.6273155,13.7065485 C40.6273155,13.0987528 40.0419454,12.8384327 39.3363249,12.8384327 L37.6176512,12.8384327 C36.9142995,12.8372859 36.3266606,13.097606 36.3266606,13.7065485 Z" id="Path" fill="#E81A23"></path>
                <path d="M36.3266606,18.0528612 C36.3266606,18.6618037 36.915434,18.920977 37.6176512,18.920977 L39.3363249,18.920977 C40.0419454,18.920977 40.6273155,18.6606569 40.6273155,18.0528612 C40.6273155,17.4450655 40.0419454,17.1835987 39.3363249,17.1835987 L37.6176512,17.1835987 C36.9142995,17.1835987 36.3266606,17.4439187 36.3266606,18.0528612 Z" id="Path" fill="#E81A23"></path>
                <path d="M36.3266606,22.1824317 C36.3266606,22.7890806 36.915434,23.0516942 37.6176512,23.0516942 L39.3363249,23.0516942 C40.0419454,23.0516942 40.6273155,22.7890806 40.6273155,22.1824317 C40.6273155,21.5723424 40.0419454,21.3120223 39.3363249,21.3120223 L37.6176512,21.3120223 C36.9142995,21.3120223 36.3266606,21.5723424 36.3266606,22.1824317 Z" id="Path" fill="#E81A23"></path>
                <path d="M36.3266606,9.36138256 C36.3266606,9.97032506 36.915434,10.2294983 37.6176512,10.2294983 L39.3363249,10.2294983 C40.0419454,10.2294983 40.6273155,9.96917827 40.6273155,9.36138256 C40.6273155,8.75244007 40.0419454,8.49212002 39.3363249,8.49212002 L37.6176512,8.49212002 C36.9142995,8.49097324 36.3266606,8.75129329 36.3266606,9.36138256 Z" id="Path" fill="#E81A23"></path>
            </g>
        </g>
    </g>
</svg>