<?xml version="1.0" encoding="UTF-8" standalone="no"?>
<svg width="45px" height="45px" viewBox="0 0 45 45" version="1.1" xmlns="http://www.w3.org/2000/svg" xmlns:xlink="http://www.w3.org/1999/xlink">
    <!-- Generator: Sketch 50.2 (55047) - http://www.bohemiancoding.com/sketch -->
    <title>交换</title>
    <desc>Created with Sketch.</desc>
    <defs></defs>
    <g id="解决方案" stroke="none" stroke-width="1" fill="none" fill-rule="evenodd">
        <g id="直播" transform="translate(-89.000000, -256.000000)" fill-rule="nonzero">
            <g id="交换" transform="translate(90.000000, 257.000000)">
                <path d="M21.5,43 C9.62586357,43 0,33.3740982 0,21.5000246 C0,9.6259511 9.62586357,0 21.5,0 C33.3741364,0 43,9.62590182 43,21.5000246 C43,33.3741475 33.3741364,43 21.5,43 Z" id="Shape" stroke="#464646" stroke-width="2"></path>
                <path d="M18.6336004,34.7711937 L18.6336004,8.22880625 C18.6336004,8.13051586 18.6336004,8.03217505 18.5854126,7.98305509 L18.5854126,7.88476469 C18.5854126,7.83559426 18.5372247,7.7864743 18.5372247,7.73730392 C18.4890368,7.68813349 18.4890368,7.68813349 18.4890368,7.63901353 C18.4408489,7.5898431 18.4408489,7.54072313 18.4408489,7.54072318 C18.392661,7.44243279 18.3445226,7.39326241 18.2963347,7.34409198 C18.2481468,7.29492155 18.1518205,7.24580158 18.1036326,7.19663115 C18.1036326,7.19663115 18.0554447,7.19663115 18.0073062,7.14746077 C17.9591183,7.14746077 17.9591183,7.09829034 17.9109799,7.09829034 C17.862792,7.09829034 17.8146535,7.09829034 17.7664657,7.04911996 L17.6701393,7.04911996 C17.5738129,6.99994953 17.3811108,6.99994953 17.2365966,7.04911996 L17.1402703,7.04911996 C17.0920823,7.09829039 17.0439439,7.09829039 16.995756,7.09829034 C16.9475681,7.14746077 16.9475681,7.14746077 16.8994297,7.14746077 C16.8512418,7.1966312 16.8031033,7.1966312 16.8031034,7.19663115 C16.706777,7.24580158 16.6585892,7.29492155 16.6104013,7.34409198 L8.32514944,15.7983257 C7.89161685,16.2864653 7.89161685,17.0305452 8.32514944,17.5186847 C8.80683058,18.0101871 9.52940174,18.0101871 10.0111323,17.5186847 L16.2732837,11.1288516 L16.2732837,34.7711937 C16.2732837,35.4593272 16.7549649,36 17.4293976,36 C18.1037314,36 18.6336005,35.4593272 18.6336004,34.7711937 Z M23.3543327,8.22880625 L23.3543327,35.0169449 C23.3543327,35.0661153 23.4025206,35.0661153 23.4025206,35.1152353 C23.4025206,35.1644057 23.4025206,35.1644057 23.4507084,35.2135257 C23.4507084,35.2626961 23.4988963,35.2626961 23.4988963,35.311816 C23.5470843,35.3609865 23.5470843,35.4101064 23.5470842,35.4101064 C23.5952721,35.5083968 23.6434106,35.5575672 23.6915985,35.6067376 C23.7397864,35.655908 23.8361127,35.705028 23.8843005,35.7541984 C23.8843005,35.7541984 23.9324884,35.7541984 23.9806269,35.8033688 C24.0288148,35.8033688 24.0288148,35.8525392 24.0769532,35.8525392 C24.1250917,35.8525392 24.1732796,35.8525392 24.2214675,35.9017096 L24.3177938,35.9017096 C24.462308,35.95088 24.6068223,35.95088 24.7513365,35.9017096 L24.8476629,35.9017096 C24.8958508,35.8525392 24.9439892,35.8525392 24.9921771,35.8525392 C25.040365,35.8033688 25.040365,35.8033688 25.0885034,35.8033688 C25.1366913,35.7541984 25.1848298,35.7541984 25.1848298,35.7541984 C25.2811561,35.705028 25.329344,35.655908 25.3775319,35.6067376 L33.6627837,27.1525543 C33.9036242,26.9068032 34,26.6118816 34,26.31696 C34,26.0220384 33.9036736,25.6779969 33.6627837,25.4321953 C33.1843981,24.9898232 32.4551864,24.9898232 31.9768008,25.4321953 L25.7146494,31.8711988 L25.7146494,8.22880625 C25.7146494,7.54067272 25.1847803,6.99999995 24.558585,7 C23.8842017,7 23.3543327,7.54067276 23.3543327,8.22880625 Z" id="Shape" fill="#E81A23"></path>
            </g>
        </g>
    </g>
</svg>