<?xml version="1.0" encoding="UTF-8" standalone="no"?>
<svg width="42px" height="40px" viewBox="0 0 42 40" version="1.1" xmlns="http://www.w3.org/2000/svg" xmlns:xlink="http://www.w3.org/1999/xlink">
    <!-- Generator: Sketch 50.2 (55047) - http://www.bohemiancoding.com/sketch -->
    <title>发布-3</title>
    <desc>Created with Sketch.</desc>
    <defs></defs>
    <g id="解决方案" stroke="none" stroke-width="1" fill="none" fill-rule="evenodd">
        <g id="直播" transform="translate(-259.000000, -106.000000)" fill-rule="nonzero">
            <g id="发布-3" transform="translate(260.000000, 107.000000)">
                <path d="M12.5987349,38 C12.3554077,37.9997037 12.1150926,37.9467962 11.8946466,37.8449888 C11.3318462,37.5873955 10.9597893,37.0428348 10.9283417,36.4306579 L10.3344997,24.9870454 L0.785145634,19.0795812 C0.260563459,18.7548832 -0.039801554,18.1705109 0.00425939302,17.5603354 C0.0483972865,16.9500762 0.429825634,16.4140608 0.995884408,16.1654295 L37.651282,0.141441332 C38.1903457,-0.095895191 38.8225621,-0.0313396544 39.3045323,0.31096043 C39.7864039,0.654818448 40.0494579,1.22476691 39.9922658,1.80922329 L36.6906914,36.4339197 C36.640051,36.9796233 36.3149281,37.4672464 35.8281303,37.7287791 C35.3412833,37.9903118 34.7515792,38 34.2582298,37.7481068 L21.8949364,31.425754 L13.6124289,37.6609617 C13.3159266,37.8837416 12.9581435,38 12.5987349,38 Z" id="Shape" stroke="#464646" stroke-width="2"></path>
                <path d="M18.3600279,24.7991154 C17.7053936,24.1916388 17.6451983,23.5612255 18.2726267,22.9289359 L30.9902772,10.100854 C31.616884,9.46856438 32.1265278,9.56204714 32.7819836,10.1679349 C33.4357964,10.7738226 33.171123,11.0530865 32.5429215,11.6853294 L19.825271,24.5134113 C19.5152065,24.8243864 18.6781395,25.0935545 18.3600279,24.7991154 Z" id="Shape" fill="#E81A23"></path>
            </g>
        </g>
    </g>
</svg>