<?xml version="1.0" encoding="UTF-8" standalone="no"?>
<svg width="41px" height="41px" viewBox="0 0 41 41" version="1.1" xmlns="http://www.w3.org/2000/svg" xmlns:xlink="http://www.w3.org/1999/xlink">
    <!-- Generator: Sketch 50.2 (55047) - http://www.bohemiancoding.com/sketch -->
    <title>聚合</title>
    <desc>Created with Sketch.</desc>
    <defs></defs>
    <g id="解决方案" stroke="none" stroke-width="1" fill="none" fill-rule="evenodd">
        <g id="直播" transform="translate(-203.000000, -206.000000)" fill-rule="nonzero">
            <g id="聚合" transform="translate(204.000000, 207.000000)">
                <path d="M19.5,0 C8.73044738,6.93639404e-16 1.3192572e-15,8.73044738 0,19.5 C-1.3192572e-15,30.2695526 8.73044738,39 19.5,39 C30.2695526,39 39,30.2695526 39,19.5 C39,8.73044738 30.2695526,6.34239901e-15 19.5,0 Z" id="Shape" stroke="#464646" stroke-width="2"></path>
                <path d="M13.0968661,23.1597765 L11.0626781,21.1575419 L18.1145299,21.2122905 L18.0507123,28.1184358 L16.008547,26.077095 C13.4717949,28.5251397 12.4905983,31.0357542 12.9612536,34 C10.9749288,31.027933 10.0017094,27.0703911 13.0649573,23.1441341 M21.9276353,26.3039106 L19.9014245,28.2592179 L19.957265,21.3452514 L27.0011396,21.4078212 L24.9190883,23.4100559 C27.4159544,25.8972067 29.9766382,26.8592179 33,26.3977654 C29.968661,28.3452514 25.9321937,29.2994413 21.9276353,26.2960894 M24.8472934,16.824581 L26.8655271,18.8111732 L19.7339031,18.7564246 L19.8376068,11.8659218 L21.9037037,13.8994413 C24.4404558,11.4592179 25.4216524,8.95642458 24.9509972,6 C26.9612536,8.96424581 27.9424501,12.9061453 24.8472934,16.824581 M16.048433,13.7977654 L18.0746439,11.8189944 L18.0108262,18.8111732 L10.982906,18.7486034 L13.0569801,16.722905 C10.5680912,14.2044693 8.01538462,13.2346369 5,13.7039106 C8.02336182,11.7329609 12.0438746,10.7709497 16.0404558,13.8055866" id="Shape" fill="#E81A23"></path>
            </g>
        </g>
    </g>
</svg>