<?xml version="1.0" encoding="UTF-8" standalone="no"?>
<svg width="33px" height="38px" viewBox="0 0 33 38" version="1.1" xmlns="http://www.w3.org/2000/svg" xmlns:xlink="http://www.w3.org/1999/xlink">
    <!-- Generator: Sketch 50.2 (55047) - http://www.bohemiancoding.com/sketch -->
    <title>内容</title>
    <desc>Created with Sketch.</desc>
    <defs></defs>
    <g id="解决方案" stroke="none" stroke-width="1" fill="none" fill-rule="evenodd">
        <g id="直播" transform="translate(-150.000000, -208.000000)">
            <g id="内容" transform="translate(151.000000, 209.000000)">
                <path d="M31.0197027,8.24030466 L22.6583406,0.358344099 C22.4684147,0.17067027 22.225591,0.0456321813 21.9625051,3.49877552e-05 L1.23358347,3.49877552e-05 C0.903334035,-0.00293873503 0.586264279,0.129416242 0.356141869,0.366306955 C0.126019458,0.603197668 0.00290856166,0.923969825 0.0154514674,1.25399438 L0.0154514674,34.5734522 C0.00290856166,34.9034768 0.126019458,35.2242489 0.356141869,35.4611396 C0.586264279,35.6980304 0.903334035,35.8303853 1.23358347,35.8274116 L30.3253717,35.8274116 C30.6556211,35.8303853 30.9726909,35.6980304 31.2028133,35.4611396 C31.4329357,35.2242489 31.5560466,34.9034768 31.5435037,34.5734522 L31.5435037,9.13598996 C31.3301915,8.86181812 31.1540651,8.56064672 31.0197027,8.24030466 Z M22.4848716,3.40367408 L28.7553684,9.49433406 L22.4848716,9.49433406 L22.4848716,3.4036041 L22.4848716,3.40367408 Z M28.9295372,33.3194928 L2.45171544,33.3194928 L2.45171544,2.50791883 L20.0465083,2.50791883 L20.0465083,10.7482235 C20.0339654,11.078248 20.1570763,11.3990202 20.3871987,11.6359109 C20.6173211,11.8728016 20.9343909,12.0051566 21.2646403,12.0021829 L29.1072397,12.0021829 L29.1072397,33.3194928 L28.9295022,33.3194228 L28.9295372,33.3194928 Z" id="Shape" stroke="#FFFFFF" stroke-width="0.6" fill="#464646" fill-rule="nonzero"></path>
                <polygon id="Path" fill="#E81A23" points="15.6920433 10.2108123 6.98314829 10.2108123 6.98314829 12.2108123 15.6920433 12.2108123 15.6920433 10.2108123"></polygon>
                <polygon id="Path" fill="#E81A23" points="6.98314829 19.7345687 24.4009733 19.7345687 24.4009733 17.7345687 6.98314829 17.7345687"></polygon>
                <polygon id="Path" fill="#E81A23" points="6.98314829 27.2583252 24.4009733 27.2583252 24.4009733 25.2583252 6.98314829 25.2583252"></polygon>
            </g>
        </g>
    </g>
</svg>