<?xml version="1.0" encoding="UTF-8" standalone="no"?>
<svg width="54px" height="44px" viewBox="0 0 54 44" version="1.1" xmlns="http://www.w3.org/2000/svg" xmlns:xlink="http://www.w3.org/1999/xlink">
    <!-- Generator: Sketch 50.2 (55047) - http://www.bohemiancoding.com/sketch -->
    <title>传播-2</title>
    <desc>Created with Sketch.</desc>
    <defs></defs>
    <g id="解决方案" stroke="none" stroke-width="1" fill="none" fill-rule="evenodd">
        <g id="直播" transform="translate(-253.000000, -258.000000)" stroke="#FFFFFF">
            <g id="传播-2" transform="translate(254.000000, 259.000000)">
                <path d="M45.0044376,21.00049 C45.0044376,16.8513368 43.7292049,12.8684298 41.3123353,9.48050885 C40.7536619,8.69652714 39.6692803,8.51628135 38.8902606,9.0797682 C38.1129759,9.64325505 37.9342698,10.7369795 38.4946782,11.5227112 C40.4830002,14.3121461 41.5326816,17.5898196 41.5326816,21.00224 C41.5326816,24.4146604 40.4830002,27.6905839 38.4946782,30.4800188 C37.9342698,31.2657505 38.1112409,32.357725 38.8902606,32.9229618 C39.1973574,33.1434567 39.5512996,33.2502042 39.9017717,33.2502042 C40.443095,33.2502042 40.9722732,32.9964601 41.3106002,32.5222212 C43.7274699,29.1325503 45.0044376,25.1496432 45.0044376,21.00049 Z M12.9327683,9.0797682 C12.1520136,8.51453139 11.0693671,8.69302722 10.5106937,9.48050885 C8.09902906,12.8684298 6.82379634,16.8513368 6.82379634,21.00049 C6.82379634,25.1496432 8.09902906,29.1325503 10.5106937,32.5204712 C10.8507557,32.9964601 11.3816689,33.2502042 11.9212572,33.2502042 C12.2717293,33.2502042 12.6256715,33.1434567 12.9327683,32.9212119 C13.7100531,32.357725 13.8887591,31.2640005 13.3300857,30.4782689 C11.3434987,27.6905839 10.2938174,24.4129104 10.2938174,21.00049 C10.2938174,17.5880697 11.3434987,14.3103961 13.3300857,11.5209612 C13.8887591,10.7369795 13.7100531,9.64325505 12.9327683,9.0797682 Z M44.3607487,0.59771613 C43.7257349,-0.130266883 42.6309432,-0.202015208 41.9126489,0.434969927 C41.1926195,1.07195506 41.1197491,2.17792926 41.7512929,2.90416231 C46.1217844,7.93179499 48.528244,14.357645 48.528244,21.00049 C48.528244,27.643335 46.1200494,34.0691851 41.7512929,39.0968177 C41.1197491,39.8230508 41.1926195,40.929025 41.9126489,41.5660101 C42.2423009,41.8565033 42.6500284,42 43.0577558,42 C43.5383537,42 44.0206867,41.7987547 44.3624837,41.4032639 C49.2881786,35.7386461 52,28.4920652 52,21.00049 C52,13.5089148 49.2864436,6.2640839 44.3607487,0.59771613 Z M3.46828601,21.00049 C3.46828601,14.357645 5.87474559,7.93179499 10.241767,2.90416231 C10.8733109,2.1761793 10.8021754,1.07195506 10.0804111,0.434969927 C9.35864669,-0.203765168 8.26385506,-0.130266883 7.63404624,0.59771613 C2.71008642,6.26233394 0,13.5089148 0,21.00049 C0,28.4920652 2.71008642,35.7386461 7.63404624,41.4032639 C7.97584332,41.7987547 8.45644123,42 8.93877415,42 C9.34476661,42 9.75249408,41.8565033 10.0821461,41.5660101 C10.8039104,40.929025 10.8750459,39.8230508 10.2435021,39.0968177 C5.87474559,34.070935 3.46828601,27.643335 3.46828601,21.00049 Z" id="Shape" fill="#464646" fill-rule="nonzero"></path>
                <path d="M26.084148,8.75077588 C19.3870074,8.75077588 13.9390744,14.2456477 13.9390744,21.00049 C13.9390744,24.4654092 15.4138334,27.7885816 17.986854,30.1142774 C18.7016783,30.7600123 19.7982049,30.6987637 20.4366888,29.9777805 C21.0769077,29.2585473 21.0161823,28.1525731 20.303093,27.5068382 C18.4639818,25.846127 17.4108305,23.4731823 17.4108305,21.00049 C17.4108305,16.1758526 21.302459,12.2506942 26.085883,12.2506942 C30.869307,12.2506942 34.7609356,16.1758526 34.7609356,21.00049 C34.7609356,25.8251274 30.869307,29.7502858 26.085883,29.7502858 L25.4786293,29.7502858 C24.7429849,29.7502858 24.0871509,30.2192749 23.8425144,30.9192586 C23.4278469,32.1092308 22.7668079,33.1767059 21.8819526,34.0919345 C21.2139735,34.7849184 21.2278536,35.8926425 21.9149178,36.5663768 C22.2515098,36.8971191 22.6887324,37.0633652 23.1259551,37.0633652 C23.5770578,37.0633652 24.0281606,36.8866193 24.3682226,36.5348775 C25.3155384,35.5531504 26.078943,34.4489262 26.6462914,33.2362045 C33.0849154,32.9404614 38.2326916,27.5645869 38.2326916,20.9987401 C38.2292216,14.2456477 32.7812886,8.75077588 26.084148,8.75077588 Z" id="Path" fill="#E81A23"></path>
            </g>
        </g>
    </g>
</svg>