<?xml version="1.0" encoding="UTF-8" standalone="no"?>
<svg width="60px" height="44px" viewBox="0 0 60 44" version="1.1" xmlns="http://www.w3.org/2000/svg" xmlns:xlink="http://www.w3.org/1999/xlink">
    <!-- Generator: Sketch 50.2 (55047) - http://www.bohemiancoding.com/sketch -->
    <title>宣传设计</title>
    <desc>Created with Sketch.</desc>
    <defs></defs>
    <g id="解决方案" stroke="none" stroke-width="1" fill="none" fill-rule="evenodd">
        <g id="直播" transform="translate(-320.000000, -257.000000)">
            <g id="宣传设计" transform="translate(320.000000, 257.000000)">
                <path d="M37.5578682,10.3604004 C37.5578682,11.3374164 37.6012021,12.3176982 37.5522327,13.2882687 C37.471969,14.7817449 37.8813992,15.8412209 38.9974916,16.7956346 C41.5909909,19.0098948 41.7234687,22.7863838 39.2014382,25.119457 C37.8597536,26.3631897 37.4615091,27.6990508 37.5393819,29.518199 C37.6196456,31.3833685 37.5795138,33.2590656 37.5538123,35.1275008 C37.508045,38.1612479 36.3871709,39.3193409 33.7647681,38.5984709 C31.6466603,38.0125707 29.6176111,36.9926703 27.5597011,36.1214901 C22.5148716,33.9880141 17.4965546,31.7639995 12.4260236,29.6976001 C9.74342297,28.6058104 9.42783294,29.0066375 9.95535331,32.1915112 C10.6346489,36.2944457 11.5885488,40.1694655 15.5269347,41.798685 C16.0657262,42.0193375 16.54987,42.5357118 16.2608352,43.3123572 C15.9942573,44.0324108 15.3495007,44.0760256 14.7906434,43.9370167 C11.9763762,43.2396085 10.2942113,40.9331769 9.09623291,38.1992337 C8.18169639,36.1037434 7.54014182,33.8207306 7.69430787,31.3954861 C7.84044757,29.1383415 6.94597695,28.1742595 5.00607169,28.0134217 C0.895887268,27.6715928 0.0166582366,26.5062379 0.010254214,21.7956173 C0.010254214,20.739364 -0.0243274827,19.679888 0.0335221473,18.6276739 C0.168433475,16.0747646 1.58717969,14.3243259 3.7848254,14.225752 C8.23305661,14.0212563 12.4284145,12.6627928 16.5514496,10.8703291 C21.6445228,8.65606885 26.7488243,6.47163002 31.850607,4.26699508 C36.2787722,2.35494504 37.5514642,3.339266 37.5514642,8.65602588 L37.5514642,10.3604004 L37.5578682,10.3604004 Z M35.7111201,21.0383515 C35.7111201,17.219107 35.7255505,13.3957804 35.7111201,9.57649296 C35.6910541,5.98030742 35.1209257,5.56246408 32.1396417,6.84254973 C25.7772066,9.57649296 19.4372284,12.3734736 13.0410656,15.0047608 C9.54989357,16.436016 9.50818206,16.3074918 9.50818206,20.4298489 C9.50250383,25.6706372 9.50818206,25.6641487 13.7468311,27.4768084 C19.9802749,30.1415407 26.2118545,32.810828 32.4415698,35.48467 C34.9948947,36.5765028 35.6829851,36.0673475 35.7086865,32.9875362 C35.7456164,29.0034147 35.7175241,25.022516 35.7175241,21.0415742 L35.7111201,21.0383515 Z M7.65895768,21.1337456 C7.65895768,20.4823586 7.6678379,19.8342373 7.65895768,19.1828933 C7.613233,16.5443012 7.11700695,16.0505293 4.84469044,16.3438447 C3.23881876,16.5483404 2.24478704,17.5350677 1.93244168,19.3606615 C1.42498726,22.3119916 2.03281401,24.5392288 3.56000163,25.4540238 C5.97602434,26.9086979 7.63568975,25.7506479 7.65498721,22.5948222 C7.66058005,22.1099452 7.65498721,21.6210289 7.65498721,21.1337026 L7.65895768,21.1337456 Z" id="Shape" fill="#464646" fill-rule="nonzero"></path>
                <path d="M49.2301914,42.7199685 C48.5324522,42.7199685 47.9656112,42.047612 47.9656112,41.1683105 C47.9656112,40.495954 48.3582203,40.0304566 48.7500608,39.7718612 C54.1562051,35.9444954 57.4699004,28.9104699 57.4699004,21.3592108 C57.4699004,13.8079516 54.1136397,6.77388318 48.750872,2.94651738 C48.2810923,2.64156206 48.0008927,2.11422659 48.0097136,1.551658 C48.0097136,0.724135699 48.57664,-4.29706282e-08 49.2743791,0 C49.53609,0 49.7561321,0.103472499 50.0588287,0.3103316 C56.2068998,4.65493107 60,12.7233809 60,21.3090644 C60,29.9465272 56.163566,37.9632407 50.0154949,42.3077972 C49.7103647,42.6181718 49.4919877,42.7216013 49.2301914,42.7216014 L49.2301914,42.7199685 Z" id="Path" fill="#E81A23"></path>
                <path d="M44.914438,34.0308984 C44.2166989,34.0308984 43.6498578,33.358499 43.6498578,32.4792404 C43.6498578,31.9135792 43.8682349,31.444816 44.2600327,31.1345274 C47.2244955,29.1691082 49.0559594,25.4452149 49.0559594,21.410947 C49.0559594,17.4284584 47.2686406,13.7562154 44.4342647,11.7391459 C44.0416556,11.4805076 43.8240471,10.9633169 43.8240471,10.3943899 C43.8240471,9.56682465 44.3909309,8.84273188 45.08867,8.84273192 C45.3062786,8.84273192 45.6555537,8.99789775 45.8297857,9.1013702 C49.4052346,11.6356734 51.6719583,16.3422977 51.6719582,21.3592537 C51.6719582,26.4795963 49.3610895,31.2379569 45.6555537,33.7723031 C45.5680321,33.7723031 45.2195682,34.0308984 44.914438,34.0308984 Z" id="Path" fill="#E81A23"></path>
            </g>
        </g>
    </g>
</svg>