<?xml version="1.0" encoding="UTF-8" standalone="no"?>
<svg width="42px" height="42px" viewBox="0 0 42 42" version="1.1" xmlns="http://www.w3.org/2000/svg" xmlns:xlink="http://www.w3.org/1999/xlink">
    <!-- Generator: Sketch 50.2 (55047) - http://www.bohemiancoding.com/sketch -->
    <title>指挥图</title>
    <desc>Created with Sketch.</desc>
    <defs></defs>
    <g id="解决方案" stroke="none" stroke-width="1" fill="none" fill-rule="evenodd">
        <g id="直播" transform="translate(-90.000000, -207.000000)">
            <g id="指挥图" transform="translate(91.000000, 208.000000)">
                <path d="M39.9850124,1.34387401 C39.9944065,0.98742951 39.8578085,0.642591472 39.6068114,0.389115111 C39.3558142,0.13563875 39.0121579,-0.00452108713 38.6553244,0.00105220259 L1.33255752,0.00105220259 C0.985609253,-0.0132281485 0.648541566,0.118373477 0.403205747,0.363899812 C0.145988861,0.618491642 0.00089215079,0.964982797 1.00882175e-05,1.32673163 L1.00882175e-05,29.1688563 C-0.00138353975,29.5307723 0.141664916,29.8783155 0.397486693,30.1345452 C0.678605589,30.3931269 1.04768721,30.5351156 1.42978202,30.5316776 L6.6513092,30.5745336 C7.11525862,30.5315417 7.54362025,30.307796 7.84373897,29.9516929 L15.6102602,18.774844 L19.0674488,21.5947698 C19.6259609,22.0537523 20.4456458,21.998653 20.9375905,21.4690589 L27.7089904,14.1692509 C28.3899074,14.5848937 29.1729558,14.8034826 29.9708896,14.8006629 C32.3808747,14.8006629 34.3345536,12.8486757 34.3345536,10.4407776 C34.3345536,8.03287941 32.3808747,6.08089227 29.9708896,6.08089227 C27.5609046,6.08089227 25.6072257,8.03287941 25.6072257,10.4407776 C25.6033585,10.9757318 25.6795001,11.5082619 25.8331296,12.020736 L19.7851943,18.4977085 L16.3537416,15.6406408 C16.0241507,15.3639275 15.6115402,15.2050593 15.1813286,15.1892241 C14.7230456,15.2859551 14.3242681,15.5656834 14.0775447,15.9634894 L5.89353005,27.7317513 L2.85955396,27.7317513 L2.85955396,2.85811988 L37.1369066,2.85811988 L37.1369066,27.7317513 L18.5327141,27.7317513 C17.7116672,27.7317377 17.0447508,28.394247 17.0400322,29.2145694 L17.0400322,37.1400752 L9.15055053,37.1400752 C8.61775059,37.1579595 8.13915763,37.4705216 7.90895708,37.9509419 C7.67875653,38.4313622 7.73518429,38.9998437 8.05534521,39.4257293 C8.30694289,39.7817555 8.71436876,39.9953892 9.15055053,40 L27.4916651,40 C27.7771396,40.0000692 28.0553478,39.9100798 28.2866183,39.7428639 C28.367549,39.671091 28.422054,39.623321 28.4724886,39.5714398 C28.5211847,39.5204866 28.566103,39.4660584 28.6068872,39.408587 C28.786954,39.141301 28.8866789,38.8423856 28.8928416,38.5343242 C28.8982699,37.9261985 28.4989453,37.3883937 27.9148776,37.217216 C27.7767627,37.1613056 27.6292458,37.1322156 27.4802269,37.131504 L19.8967165,37.131504 L19.8967165,30.5716766 L38.7010771,30.5716766 C39.0633068,30.573069 39.4111513,30.4301444 39.667603,30.1745441 C39.9038985,29.9094691 40.0225496,29.560009 39.9964506,29.2059982 L39.9850124,1.34387401 Z" id="Shape" stroke="#FFFFFF" stroke-width="0.8" fill="#464646" fill-rule="nonzero"></path>
                <path d="M29.7133424,6.11924308 L29.7407236,6.10556434 L29.9766087,6.10556434 C32.3675456,6.10556434 34.3061339,8.04247393 34.3061339,10.4322064 C34.3061339,12.8219388 32.3675456,14.7588484 29.9766087,14.7588484 C27.5856718,14.7588484 25.6470835,12.8219388 25.6470851,10.4304627 C25.6510914,8.13282397 27.4469204,6.25520782 29.7133424,6.11924308 Z" id="Path" stroke="#E81A23" stroke-width="2" fill="#FFFFFF"></path>
            </g>
        </g>
    </g>
</svg>