<?xml version="1.0" encoding="UTF-8" standalone="no"?>
<svg width="42px" height="51px" viewBox="0 0 42 51" version="1.1" xmlns="http://www.w3.org/2000/svg" xmlns:xlink="http://www.w3.org/1999/xlink">
    <!-- Generator: Sketch 50.2 (55047) - http://www.bohemiancoding.com/sketch -->
    <title>推广</title>
    <desc>Created with Sketch.</desc>
    <defs></defs>
    <g id="解决方案" stroke="none" stroke-width="1" fill="none" fill-rule="evenodd">
        <g id="直播" transform="translate(-462.000000, -254.000000)">
            <g id="推广" transform="translate(462.000000, 254.000000)">
                <path d="M20.9971347,27.8176641 C15.1633238,27.8176641 14,31.2970076 14,34.7706565 C14,38.2443055 15.1690544,46.3646717 16.3323782,48.6823359 C17.5014327,51 18.6647564,51 18.6647564,51 L23.3295129,51 C23.3295129,51 24.4985673,51 25.6618911,48.6823359 C26.8309456,46.3646717 27.9942693,38.25 27.9942693,34.7706565 C27.9942693,31.2913131 26.8309456,27.8176641 20.9971347,27.8176641 Z M23.5759312,47.6459357 C23.277937,48.2438589 23.0200573,48.5456677 22.8825215,48.6823359 L19.1117479,48.6823359 C18.9684814,48.5456677 18.7163324,48.2438589 18.4183381,47.6459357 C17.5587393,45.9432782 16.3323782,38.3581956 16.3323782,34.7706565 C16.3323782,31.3482582 17.5530086,30.1353283 20.9971347,30.1353283 C24.4412607,30.1353283 25.6618911,31.3482582 25.6618911,34.7706565 C25.6676218,38.3638901 24.4355301,45.9432782 23.5759312,47.6459357 Z M20.9971347,0 C9.3982808,0 0,9.34468513 0,20.8646717 C0,29.1900402 4.9226361,36.3594238 12.017192,39.7077937 C11.9083095,38.7283385 11.8223496,37.8058285 11.7593123,36.9744305 C6.13753582,33.7741179 2.33237822,27.7664136 2.33237822,20.8646717 C2.33237822,10.6202546 10.6876791,2.31766414 20.9971347,2.31766414 C31.3065903,2.31766414 39.6618911,10.6202546 39.6618911,20.8646717 C39.6618911,27.7607191 35.8681948,33.7627289 30.252149,36.957347 C30.1948424,37.777356 30.1146132,38.7055605 30.0057307,39.6907101 C37.0888252,36.3366458 42,29.1786512 42,20.8646717 C42,9.33899062 32.5959885,6.47390434e-15 20.9971347,0 Z" id="Shape" fill="#464646" fill-rule="nonzero"></path>
                <path d="M25.6676218,20.8646717 C25.6676218,23.4271996 23.5759312,25.5 21.0028653,25.5 C18.4297994,25.5 16.3381089,23.4271996 16.3381089,20.8646717 C16.3381089,18.3078383 18.4240688,16.2293435 21.0028653,16.2293435 C23.5759312,16.2293435 25.6676218,18.3021438 25.6676218,20.8646717 Z M18.6647564,20.8646717 C18.6647564,22.1459357 19.7077364,23.1823359 20.9971347,23.1823359 C22.286533,23.1823359 23.3295129,22.1459357 23.3295129,20.8646717 C23.3295129,19.5834078 22.286533,18.5470076 20.9971347,18.5470076 C19.7077364,18.5470076 18.6647564,19.5834078 18.6647564,20.8646717 Z" id="Combined-Shape" fill="#E81A23"></path>
                <path d="M20.9971347,8.11467173 C13.9083095,8.11467173 8.16618911,13.8262617 8.16618911,20.8646717 C8.16618911,24.645824 9.82808023,28.0283609 12.4584527,30.3631085 C12.773639,29.6000447 13.1805158,28.9223984 13.6790831,28.3358642 C11.7191977,26.4395936 10.4985673,23.7973426 10.4985673,20.8646717 C10.4985673,15.1018312 15.1977077,10.4323359 20.9971347,10.4323359 C26.7965616,10.4323359 31.495702,15.1018312 31.495702,20.8646717 C31.495702,23.8315096 30.2406877,26.5079276 28.2406877,28.4041983 C28.739255,28.996427 29.1404011,29.6740732 29.4670487,30.4257481 C32.1375358,28.0910004 33.8338109,24.6742966 33.8338109,20.8589772 C33.8338109,13.8205672 28.0859599,8.11467173 20.9971347,8.11467173 Z" id="Path" fill="#464646"></path>
            </g>
        </g>
    </g>
</svg>