<?xml version="1.0" encoding="UTF-8" standalone="no"?>
<svg width="54px" height="52px" viewBox="0 0 54 52" version="1.1" xmlns="http://www.w3.org/2000/svg" xmlns:xlink="http://www.w3.org/1999/xlink">
    <!-- Generator: Sketch 50.2 (55047) - http://www.bohemiancoding.com/sketch -->
    <title>企业</title>
    <desc>Created with Sketch.</desc>
    <defs></defs>
    <g id="解决方案" stroke="none" stroke-width="1" fill="none" fill-rule="evenodd">
        <g id="直播" transform="translate(-510.000000, -252.000000)">
            <g id="企业" transform="translate(510.000000, 252.000000)">
                <path d="M51.867,49.1306611 L49.356,49.1306611 L49.356,16.8641333 C49.356,14.3466944 47.574,12.912025 45.414,12.912025 L33.966,12.912025 L33.966,3.95210828 C33.966,1.43466944 32.184,0 30.024,0 L7.155,0 C4.644,0 3.213,1.7865695 3.213,3.95210828 L3.213,49.1306611 L1.431,49.1306611 C0.729,49.1306611 0,49.8344612 0,50.5653306 C0,51.2961999 0.702,52 1.431,52 L52.569,52 C53.271,52 54,51.2961999 54,50.5653306 C53.298,49.8615305 52.569,49.1306611 51.867,49.1306611 Z M45.414,15.4294638 C46.116,15.4294638 46.845,16.1332639 46.845,16.8641333 L46.845,49.1306611 L33.966,49.1306611 L33.966,15.4294638 L45.414,15.4294638 Z M5.724,3.95210828 C5.724,3.24830817 6.426,2.51743883 7.155,2.51743883 L30.402,2.51743883 C31.104,2.51743883 31.833,3.22123894 31.833,3.95210828 L31.833,49.1306611 L5.724,49.1306611 L5.724,3.95210828 Z" id="Shape" fill="#464646" fill-rule="nonzero"></path>
                <path d="M15.741,22.250911 L10.719,22.250911 C10.017,22.250911 9.288,22.9547111 9.288,23.3336804 C9.288,24.0374805 9.99,24.7683498 10.719,24.7683498 L15.714,24.7683498 C16.416,24.7683498 17.145,24.0645497 17.145,23.3336804 C17.145,22.602811 16.443,22.250911 15.741,22.250911 Z" id="Path" fill="#E81A23"></path>
                <path d="M15.741,34.0801666 L10.719,34.0801666 C10.017,34.0801666 9.288,34.7839667 9.288,35.514836 C9.288,36.2186361 9.99,36.9495055 10.719,36.9495055 L15.714,36.9495055 C16.416,36.9495055 17.145,36.2457054 17.145,35.514836 C17.172,34.8110359 16.443,34.0801666 15.741,34.0801666 Z" id="Path" fill="#E81A23"></path>
                <path d="M40.041,41.9573139 C40.743,41.9573139 41.472,41.2535138 41.472,40.5226445 L41.472,35.514836 C41.472,34.8110359 40.77,34.0801666 40.041,34.0801666 C39.312,34.0801666 38.61,34.7839667 38.61,35.514836 L38.61,40.5226445 C38.61,41.2535138 39.339,41.9573139 40.041,41.9573139 Z" id="Path" fill="#E81A23"></path>
                <path d="M40.041,28.3414888 C40.743,28.3414888 41.472,27.6376887 41.472,26.9068194 L41.472,21.8990109 C41.472,21.1952108 40.77,20.4643415 40.041,20.4643415 C39.312,20.4643415 38.61,21.1681416 38.61,21.8990109 L38.61,26.9068194 C38.61,27.9895888 39.339,28.3414888 40.041,28.3414888 Z" id="Path" fill="#E81A23"></path>
                <path d="M26.46,34.0801666 L21.465,34.0801666 C20.763,34.0801666 20.034,34.7839667 20.034,35.514836 C20.034,36.2186361 20.736,36.9495055 21.465,36.9495055 L26.46,36.9495055 C27.162,36.9495055 27.891,36.2457054 27.891,35.514836 C27.891,34.8110359 27.189,34.0801666 26.46,34.0801666 Z" id="Path" fill="#E81A23"></path>
                <path d="M26.46,10.0697553 L21.465,10.0697553 C20.763,10.0697553 20.034,10.7735554 20.034,11.5044248 C20.034,12.2082249 20.736,12.9390942 21.465,12.9390942 L26.46,12.9390942 C27.162,12.9390942 27.891,12.2352941 27.891,11.5044248 C27.891,10.4216554 27.189,10.0697553 26.46,10.0697553 Z" id="Path" fill="#E81A23"></path>
                <path d="M15.741,10.0697553 L10.719,10.0697553 C10.017,10.0697553 9.288,10.7735554 9.288,11.5044248 C9.288,12.2082249 9.99,12.9390942 10.719,12.9390942 L15.714,12.9390942 C16.416,12.9390942 17.145,12.2352941 17.145,11.5044248 C17.172,10.4216554 16.443,10.0697553 15.741,10.0697553 Z" id="Path" fill="#E81A23"></path>
                <path d="M26.46,22.250911 L21.465,22.250911 C20.763,22.250911 20.034,22.9547111 20.034,23.3336804 C20.034,24.0374805 20.736,24.7683498 21.465,24.7683498 L26.46,24.7683498 C27.162,24.7683498 27.891,24.0645497 27.891,23.3336804 C27.891,22.602811 27.189,22.250911 26.46,22.250911 Z" id="Path" fill="#E81A23"></path>
            </g>
        </g>
    </g>
</svg>