<?xml version="1.0" encoding="UTF-8"?>
<svg width="50px" height="50px" viewBox="0 0 50 50" version="1.1" xmlns="http://www.w3.org/2000/svg" xmlns:xlink="http://www.w3.org/1999/xlink">
    <title>5</title>
    <defs>
        <linearGradient x1="134.308334%" y1="11.3080471%" x2="5.74562241%" y2="64.138872%" id="linearGradient-1">
            <stop stop-color="#FFFFFF" offset="0%"></stop>
            <stop stop-color="#FFD3D3" offset="100%"></stop>
        </linearGradient>
        <path d="M34.0218971,12.0758106 C34.0338863,11.8623475 34.0406002,11.6479131 34.0406002,11.4314387 C34.0406002,5.26043808 29.1135116,0.257777291 23.0351704,0.257777291 C16.9568292,0.257777291 12.0297406,5.26043808 12.0297406,11.4314387 C12.0297406,11.4639803 12.0306997,11.4960362 12.0311793,11.5284806 C11.4163473,11.4129039 10.792333,11.3547648 10.1669999,11.354796 C4.55192205,11.354796 0,15.9765261 0,21.6773737 C0,27.37827 4.55192205,32 10.1669999,32 C10.3078492,32 10.4477394,31.9961144 10.58715,31.9902861 C10.7088646,31.9966001 10.8310587,32 10.9541639,32 L33.3449379,32 C33.4800324,32 33.6137362,31.9956287 33.7469124,31.9883433 C38.9672093,31.7379674 43.1238709,27.3724416 43.1238709,22.0238201 C43.1243504,16.7688892 39.1123747,12.4630554 34.0218971,12.0758106 Z" id="path-2"></path>
        <filter x="-8.2%" y="-11.1%" width="116.3%" height="122.2%" filterUnits="objectBoundingBox" id="filter-3">
            <feGaussianBlur stdDeviation="3" in="SourceAlpha" result="shadowBlurInner1"></feGaussianBlur>
            <feOffset dx="0" dy="0" in="shadowBlurInner1" result="shadowOffsetInner1"></feOffset>
            <feComposite in="shadowOffsetInner1" in2="SourceAlpha" operator="arithmetic" k2="-1" k3="1" result="shadowInnerInner1"></feComposite>
            <feColorMatrix values="0 0 0 0 1   0 0 0 0 0   0 0 0 0 0  0 0 0 0.184140079 0" type="matrix" in="shadowInnerInner1"></feColorMatrix>
        </filter>
        <filter x="-58.3%" y="-58.3%" width="216.7%" height="216.7%" filterUnits="objectBoundingBox" id="filter-4">
            <feOffset dx="0" dy="0" in="SourceAlpha" result="shadowOffsetOuter1"></feOffset>
            <feGaussianBlur stdDeviation="2.5" in="shadowOffsetOuter1" result="shadowBlurOuter1"></feGaussianBlur>
            <feColorMatrix values="0 0 0 0 1   0 0 0 0 0   0 0 0 0 0  0 0 0 0.333916084 0" type="matrix" in="shadowBlurOuter1" result="shadowMatrixOuter1"></feColorMatrix>
            <feMerge>
                <feMergeNode in="shadowMatrixOuter1"></feMergeNode>
                <feMergeNode in="SourceGraphic"></feMergeNode>
            </feMerge>
        </filter>
        <rect id="path-5" x="0" y="0" width="18" height="18"></rect>
    </defs>
    <g id="页面-1" stroke="none" stroke-width="1" fill="none" fill-rule="evenodd">
        <g id="首页-助力用户轻松搭建视频业务" transform="translate(-1151.000000, -65.000000)">
            <g id="5" transform="translate(1151.000000, 65.000000)">
                <rect id="矩形" x="0" y="0" width="50" height="50"></rect>
                <g id="编组-10" transform="translate(2.000000, 9.000000)">
                    <ellipse id="椭圆形" fill="#FF0000" cx="35.1924733" cy="10.945594" rx="10.8075267" ry="10.945594"></ellipse>
                    <g id="路径" fill-rule="nonzero">
                        <use fill-opacity="0" fill="#FFFFFF" xlink:href="#path-2"></use>
                        <use fill="black" fill-opacity="1" filter="url(#filter-3)" xlink:href="#path-2"></use>
                        <use stroke="url(#linearGradient-1)" stroke-width="1.04651163" xlink:href="#path-2"></use>
                    </g>
                    <g id="听鉴小助手logo" filter="url(#filter-4)" transform="translate(13.000000, 11.000000)">
                        <mask id="mask-6" fill="white">
                            <use xlink:href="#path-5"></use>
                        </mask>
                        <g id="蒙版"></g>
                        <path d="M11.8247202,2.02400931 C12.3665302,2.02400931 12.8118595,2.44619616 12.8472575,2.98503263 L12.8490845,3.02371521 L12.8494659,3.0514116 L12.8494659,12.7371328 C12.8494659,15.4023068 10.6945021,17.5628571 8.03621945,17.5628571 C5.43387699,17.5628571 3.30905027,15.4904802 3.2255056,12.8943081 L3.22360038,12.8154775 L3.22297297,12.7371328 L3.22297297,11.0430597 C3.22297297,10.4756411 3.68176727,10.0156574 4.24771871,10.0156574 C4.78952876,10.0156574 5.23485804,10.4378443 5.27025599,10.9766807 L5.27208302,11.0153633 L5.27246446,11.0430597 L5.27246446,12.7371328 C5.27246446,14.2674695 6.50983972,15.5080526 8.03621945,15.5080526 C9.52715071,15.5080526 10.7451378,14.3233545 10.7981574,12.8395051 L10.7995868,12.7844126 L10.7999745,12.7371328 L10.7999745,3.0514116 C10.7999745,2.48399298 11.2587687,2.02400931 11.8247202,2.02400931 Z M11.8247202,2.36956897 C12.1928316,2.36956897 12.4938825,2.66328567 12.5045086,3.03121416 L12.5045086,3.03121416 L12.5042011,12.8112205 C12.46474,15.2513756 10.4794689,17.2172975 8.03621945,17.2172975 C5.59583916,17.2172975 3.60774466,15.2542354 3.56823823,12.8112768 L3.56823823,12.8112768 L3.56763347,12.7357331 L3.56763347,11.0430597 L3.56852404,11.0079722 C3.5867387,10.6477071 3.88385855,10.3612171 4.24771871,10.3612171 C4.61583012,10.3612171 4.91688105,10.6549338 4.92750708,11.0228623 L4.92750708,11.0228623 L4.92779831,12.7371328 L4.92831228,12.7943834 C4.95876482,14.4891512 6.33856068,15.8536122 8.03621945,15.8536122 C9.73380573,15.8536122 11.1167414,14.4880893 11.1442246,12.7886133 L11.1442246,12.7886133 L11.1446406,3.0514116 L11.1455255,3.01632407 C11.1637402,2.65605897 11.46086,2.36956897 11.8247202,2.36956897 Z M13.2531922,-1.36327016 C13.5236135,-0.893672559 13.3825886,-0.297207244 12.9367379,0.0034696258 L12.9018423,0.0260080815 L12.8781036,0.0401907139 L9.18742072,2.17630084 L9.10832145,12.7371328 C9.10832145,13.2787597 8.69028781,13.7224964 8.16005369,13.7617171 L8.12199313,13.7638265 L8.08357571,13.7645351 C7.54176567,13.7645351 7.09643639,13.3423482 7.06103844,12.8035118 L7.05921141,12.7648292 L7.05883484,12.7358343 L7.12907447,3.36796334 L5.41397555,4.36077879 C4.94747841,4.63080926 4.35723919,4.49130675 4.05742067,4.05353355 L4.03493751,4.01927226 L4.01414684,3.98472345 C3.74372557,3.51512585 3.88475044,2.91866054 4.33060112,2.61798367 L4.36549677,2.59544521 L4.38922981,2.58126582 L11.8533635,-1.7393255 C12.3434918,-2.02303481 12.9702165,-1.8546691 13.2531922,-1.36327016 Z" stroke="#FFFFFF" stroke-width="0.3" fill="#FFFFFF" fill-rule="nonzero" mask="url(#mask-6)" transform="translate(8.306757, 7.842857) rotate(-330.000000) translate(-8.306757, -7.842857) "></path>
                    </g>
                </g>
            </g>
        </g>
    </g>
</svg>