<?xml version="1.0" encoding="UTF-8"?>
<svg width="50px" height="50px" viewBox="0 0 50 50" version="1.1" xmlns="http://www.w3.org/2000/svg" xmlns:xlink="http://www.w3.org/1999/xlink">
    <title>3</title>
    <defs>
        <linearGradient x1="134.308334%" y1="11.3080471%" x2="5.74562241%" y2="64.138872%" id="linearGradient-1">
            <stop stop-color="#FFFFFF" offset="0%"></stop>
            <stop stop-color="#FFD3D3" offset="100%"></stop>
        </linearGradient>
        <path d="M34.0218971,12.0758106 C34.0338863,11.8623475 34.0406002,11.6479131 34.0406002,11.4314387 C34.0406002,5.26043808 29.1135116,0.257777291 23.0351704,0.257777291 C16.9568292,0.257777291 12.0297406,5.26043808 12.0297406,11.4314387 C12.0297406,11.4639803 12.0306997,11.4960362 12.0311793,11.5284806 C11.4163473,11.4129039 10.792333,11.3547648 10.1669999,11.354796 C4.55192205,11.354796 0,15.9765261 0,21.6773737 C0,27.37827 4.55192205,32 10.1669999,32 C10.3078492,32 10.4477394,31.9961144 10.58715,31.9902861 C10.7088646,31.9966001 10.8310587,32 10.9541639,32 L33.3449379,32 C33.4800324,32 33.6137362,31.9956287 33.7469124,31.9883433 C38.9672093,31.7379674 43.1238709,27.3724416 43.1238709,22.0238201 C43.1243504,16.7688892 39.1123747,12.4630554 34.0218971,12.0758106 Z" id="path-2"></path>
        <filter x="-8.2%" y="-11.1%" width="116.3%" height="122.2%" filterUnits="objectBoundingBox" id="filter-3">
            <feGaussianBlur stdDeviation="3" in="SourceAlpha" result="shadowBlurInner1"></feGaussianBlur>
            <feOffset dx="0" dy="0" in="shadowBlurInner1" result="shadowOffsetInner1"></feOffset>
            <feComposite in="shadowOffsetInner1" in2="SourceAlpha" operator="arithmetic" k2="-1" k3="1" result="shadowInnerInner1"></feComposite>
            <feColorMatrix values="0 0 0 0 1   0 0 0 0 0   0 0 0 0 0  0 0 0 0.184140079 0" type="matrix" in="shadowInnerInner1"></feColorMatrix>
        </filter>
        <path d="M21.7089705,11.1551606 C21.7574107,11.194447 21.8016311,11.2386674 21.8409175,11.2871076 L26.378939,16.8824931 C26.6916942,17.2681205 26.6326195,17.8342715 26.246992,18.1470266 C26.0868391,18.2769153 25.8869026,18.3478011 25.6806988,18.3478011 L23.7123217,18.3471088 L23.7125451,25.3704109 C23.7125451,25.8669231 23.3100424,26.2694257 22.8135303,26.2694257 L19.4718242,26.2694257 C18.9753121,26.2694257 18.5728095,25.8669231 18.5728095,25.3704109 L18.5723217,18.3471088 L16.6046558,18.3478011 C16.1081436,18.3478011 15.705641,17.9452985 15.705641,17.4487864 C15.705641,17.2425825 15.7765268,17.042646 15.9064155,16.8824931 L20.444437,11.2871076 C20.7571922,10.9014801 21.3233431,10.8424054 21.7089705,11.1551606 Z" id="path-4"></path>
        <filter x="-69.1%" y="-49.0%" width="238.2%" height="197.9%" filterUnits="objectBoundingBox" id="filter-5">
            <feOffset dx="0" dy="0" in="SourceAlpha" result="shadowOffsetOuter1"></feOffset>
            <feGaussianBlur stdDeviation="2.5" in="shadowOffsetOuter1" result="shadowBlurOuter1"></feGaussianBlur>
            <feColorMatrix values="0 0 0 0 1   0 0 0 0 0   0 0 0 0 0  0 0 0 0.333916084 0" type="matrix" in="shadowBlurOuter1"></feColorMatrix>
        </filter>
    </defs>
    <g id="页面-1" stroke="none" stroke-width="1" fill="none" fill-rule="evenodd">
        <g id="首页-助力用户轻松搭建视频业务" transform="translate(-659.000000, -65.000000)">
            <g id="3" transform="translate(659.000000, 65.000000)">
                <rect id="矩形" x="0" y="0" width="50" height="50"></rect>
                <g id="编组-10" transform="translate(2.000000, 9.000000)">
                    <ellipse id="椭圆形" fill="#FF0000" cx="35.1924733" cy="10.945594" rx="10.8075267" ry="10.945594"></ellipse>
                    <g id="路径" fill-rule="nonzero">
                        <use fill-opacity="0" fill="#FFFFFF" xlink:href="#path-2"></use>
                        <use fill="black" fill-opacity="1" filter="url(#filter-3)" xlink:href="#path-2"></use>
                        <use stroke="url(#linearGradient-1)" stroke-width="1.04651163" xlink:href="#path-2"></use>
                    </g>
                    <g id="形状结合" fill-rule="nonzero">
                        <use fill="black" fill-opacity="1" filter="url(#filter-5)" xlink:href="#path-4"></use>
                        <use fill="#FFFFFF" xlink:href="#path-4"></use>
                    </g>
                </g>
            </g>
        </g>
    </g>
</svg>