<?xml version="1.0" encoding="UTF-8" standalone="no"?>
<svg width="44px" height="45px" viewBox="0 0 44 45" version="1.1" xmlns="http://www.w3.org/2000/svg" xmlns:xlink="http://www.w3.org/1999/xlink">
    <!-- Generator: Sketch 50.2 (55047) - http://www.bohemiancoding.com/sketch -->
    <title>paascloud</title>
    <desc>Created with Sketch.</desc>
    <defs></defs>
    <g id="官网" stroke="none" stroke-width="1" fill="none" fill-rule="evenodd">
        <g id="首页-copy-2" transform="translate(-494.000000, -826.000000)">
            <g id="Group-5" transform="translate(372.000000, 799.000000)">
                <g id="paascloud" transform="translate(123.000000, 28.000000)">
                    <path d="M2.73656045,21.5007227 C2.73656045,17.8816174 3.76988567,14.5024369 5.55923133,11.634903 C4.76854905,11.1611913 4.06764204,10.5541575 3.48820238,9.84124903 L3.47652639,9.82535041 C1.27706154,13.187187 0,17.1965312 0,21.4992773 C0,25.8020235 1.27706154,29.8113677 3.47652639,33.1732043 C4.05740696,32.4563208 4.74629044,31.8550637 5.52420336,31.3838863 L5.55923133,31.365097 C3.70871021,28.4010686 2.73108265,24.9840577 2.73656045,21.4992773 L2.73656045,21.5007227 Z M21.7100462,2.71143827 C29.5023109,2.71143827 36.1970324,7.36395415 39.1189492,14.0153608 C40.0594675,13.7775123 41.0365774,13.7157491 42,13.8332493 C38.8810508,5.74518504 30.9734858,0 21.7115057,0 C19.7616152,0 17.8701046,0.254378004 16.0720019,0.732782091 C16.5638531,1.45400155 16.9447823,2.29518336 17.1637071,3.19851434 L17.1739236,3.2505462 C18.6590592,2.89065592 20.1825518,2.70916524 21.7115057,2.70999294 L21.7100462,2.71143827 Z M39.1174897,28.9860845 C36.1970324,35.6389365 29.5023109,40.2900071 21.7085867,40.2900071 C20.1454634,40.2900071 18.626125,40.1021142 17.1710046,39.7494538 C16.9567537,40.6582966 16.5769062,41.5208193 16.0501095,42.2946792 L16.0676234,42.2672179 C17.8657261,42.745622 19.7572367,43 21.7071272,43 C30.9705668,43 38.8781318,37.254815 41.9956215,29.1667507 C41.6808846,29.2050207 41.3640469,29.2238464 41.0469472,29.2231186 L41.0454877,29.2231186 C40.3799562,29.2231186 39.7319387,29.1407348 39.1145707,28.9846392 L39.1174897,28.9860845 Z" id="Shape" stroke="#FFFFFF" stroke-width="0.8" fill="#3C3C3C" fill-rule="nonzero"></path>
                    <path d="M6,36.5 C5.99999998,37.393164 6.47649729,38.2184815 7.24999998,38.6650635 C8.02350268,39.1116455 8.97649732,39.1116455 9.75000002,38.6650635 C10.5235027,38.2184815 11,37.393164 11,36.5 C11,35.606836 10.5235027,34.7815185 9.75000001,34.3349365 C8.97649731,33.8883545 8.02350269,33.8883545 7.24999999,34.3349365 C6.47649729,34.7815185 5.99999999,35.606836 6,36.5 Z" id="Path" fill="#3C3C3C"></path>
                    <path d="M6,5.49999999 C5.99999998,6.39316396 6.47649729,7.21848152 7.24999998,7.66506351 C8.02350268,8.1116455 8.97649732,8.1116455 9.75000002,7.66506351 C10.5235027,7.21848152 11,6.39316396 11,5.49999999 C11,4.60683602 10.5235027,3.78151848 9.75000001,3.33493649 C8.97649731,2.8883545 8.02350269,2.8883545 7.24999999,3.33493649 C6.47649729,3.78151848 5.99999999,4.60683602 6,5.49999999 Z" id="Path" fill="#3C3C3C"></path>
                    <path d="M38,21.5 C38,22.8807119 39.1192881,24 40.5,24 C41.8807119,24 43,22.8807119 43,21.5 C43,20.1192881 41.8807119,19 40.5,19 C39.1192881,19 38,20.1192881 38,21.5 Z" id="Path" fill="#3C3C3C"></path>
                    <path d="M28.0167713,20.4758713 C28.0167713,20.6186327 28.0089515,20.7593834 27.995267,20.900134 C29.703879,21.2077748 31,22.6615282 31,24.4168901 C31,26.3954424 29.3559008,28 27.3286346,28 L15.6713654,28 C13.6440992,28 12,26.3974531 12,24.4168901 C12,22.6394102 13.3332647,21.1735925 15.0751106,20.8941019 C15.0453508,20.7499938 15.0302815,20.6030869 15.0301471,20.4557641 C15.0301471,19.1809651 16.0877662,18.1494638 17.3936619,18.1494638 C18.0857084,18.1494638 18.7034674,18.4450402 19.1355078,18.9075067 C19.7884556,17.208445 21.4618788,16 23.428542,16 C25.964091,16 28.0187262,18.0046917 28.0187262,20.477882 L28.0167713,20.4758713 Z" id="Combined-Shape" stroke="#E71A22" stroke-width="1.5"></path>
                </g>
            </g>
        </g>
    </g>
</svg>