<?xml version="1.0" encoding="UTF-8" standalone="no"?>
<svg width="52px" height="53px" viewBox="0 0 52 53" version="1.1" xmlns="http://www.w3.org/2000/svg" xmlns:xlink="http://www.w3.org/1999/xlink">
    <!-- Generator: Sketch 50.2 (55047) - http://www.bohemiancoding.com/sketch -->
    <title>20、媒资搜索</title>
    <desc>Created with Sketch.</desc>
    <defs></defs>
    <g id="官网" stroke="none" stroke-width="1" fill="none" fill-rule="evenodd">
        <g id="Artboard" transform="translate(-73.000000, -1597.000000)" stroke="#EAEAEA">
            <g id="20、媒资搜索" transform="translate(75.000000, 1599.000000)">
                <path d="M5.85909907,5.9059922 C9.59296603,2.12713672 14.6869196,-7.53311665e-16 20.0024541,0 C25.3179887,3.76655833e-16 30.4119423,2.12713672 34.1458092,5.9059922 C41.359098,13.1881079 41.906731,24.6311344 35.7991594,32.5521055 L38.995079,35.7735232 C39.5176296,35.5898001 40.0778039,35.6712228 40.4435893,36.04702 L47.635976,43.5546141 C48.1877895,44.109959 48.1020912,45.0891196 47.4478578,45.7446771 L44.7494064,48.3877845 C44.0993534,49.0475174 43.1253191,49.2249772 42.5818664,48.6675446 L35.134475,41.4000432 C34.7665994,41.0305092 34.6850815,40.4709889 34.8606585,39.9406972 L31.583221,36.627418 C23.6413571,42.3337662 12.7213995,41.4105076 5.85282846,34.4519695 C-1.95198761,26.5664903 -1.95198761,13.7914713 5.85909907,5.9059922 Z M10.0569126,30.4141333 C12.69415,33.1091061 16.2958761,34.6266667 20.0547945,34.6266667 C23.813713,34.6266667 27.4154391,33.1091061 30.0526765,30.4141333 C35.5714823,24.8047592 35.5714823,15.707626 30.0526765,10.0898577 C27.4145968,7.39646392 23.813186,5.88 20.0547945,5.88 C16.296403,5.88 12.6949922,7.39646392 10.0569126,10.0898577 C4.53810677,15.707626 4.53810677,24.8047592 10.0569126,30.4141333 Z" id="Shape" stroke-width="3.8" fill="#3C3C3C" fill-rule="nonzero"></path>
                <path d="M29.5886105,8.74036528 C30.1371298,9.25975729 30.1371298,10.0934687 29.5886105,10.6128607 C29.3267232,10.860551 28.969267,11 28.5962383,11 C28.2232095,11 27.8657533,10.860551 27.6038661,10.6128607 L27.6038661,10.6106732 C25.5943574,8.71609008 22.8552818,7.65013388 19.9975353,7.65054484 C17.1397888,7.65095579 14.4010659,8.71769974 12.3921841,10.6128607 C12.1311026,10.8600331 11.7747156,10.999393 11.4026482,10.9998041 C11.0305809,11.0002151 10.6738407,10.8616431 10.4121318,10.6150482 C9.86262274,10.0968867 9.86262274,9.2629017 10.4121318,8.74474026 C12.9411508,6.34979319 16.3947756,5.00082274 19.9993891,5.00000038 C23.6040025,4.99917801 27.0583349,6.34657245 29.5886105,8.74036528 Z" id="Path" stroke-width="1.5" fill="#E71A22"></path>
            </g>
        </g>
    </g>
</svg>