<?xml version="1.0" encoding="UTF-8" standalone="no"?>
<svg width="58px" height="58px" viewBox="0 0 58 58" version="1.1" xmlns="http://www.w3.org/2000/svg" xmlns:xlink="http://www.w3.org/1999/xlink">
    <!-- Generator: Sketch 50.2 (55047) - http://www.bohemiancoding.com/sketch -->
    <title>音频-2</title>
    <desc>Created with Sketch.</desc>
    <defs></defs>
    <g id="官网" stroke="none" stroke-width="1" fill="none" fill-rule="evenodd">
        <g id="Artboard" transform="translate(-288.000000, -1491.000000)" fill-rule="nonzero">
            <g id="音频-2" transform="translate(288.000000, 1491.000000)">
                <path d="M3.20061007,39.8989943 L3.2006254,39.8990305 C4.61101145,43.233685 6.62913864,46.2271167 9.2010508,48.7990289 C11.7728943,51.3708724 14.7664112,53.3890764 18.1009883,54.7994623 C21.5535802,56.2598131 25.2191424,57 29.0000399,57 C32.7807707,57 36.4462741,56.2597977 39.8990125,54.7994619 C43.2336793,53.3889937 46.2271209,51.3708598 48.7990289,48.7990289 C51.3709411,46.2271167 53.3890683,43.233685 54.7994623,39.8990117 C56.2598093,36.4464286 57,32.7808673 57,29.0000399 C57,25.219309 56.2597977,21.5538057 54.7994619,18.1010672 C53.3889106,14.7662038 51.3707923,11.7727372 48.7990289,9.20105081 C46.2271167,6.62913865 43.2336851,4.61101145 39.8989943,3.20061006 C36.446463,1.74020789 32.7809122,1 29.0000399,1 C25.2191759,1 21.5536216,1.74020469 18.1009771,3.20062218 C14.7662933,4.61105314 11.7728084,6.62921626 9.20104021,9.20106141 C6.62919725,11.7728273 4.61104476,14.7663159 3.20061006,18.1010854 C1.74019622,21.5536444 1,25.2191179 1,29.0000399 C1,32.780912 1.7402079,36.4464627 3.20061007,39.8989943 Z" id="Shape" stroke="#3C3C3C" stroke-width="2"></path>
                <path d="M21.2807016,29.99992 C21.2807016,24.5990231 23.6155328,19.717091 27.3714508,16.2111194 L26.054424,14 C26.0064332,14.0450334 25.9574027,14.0859875 25.9094119,14.131021 C16.6968627,22.8949503 16.6968627,37.1048898 25.9094119,45.868979 C25.9583624,45.9140124 26.007473,45.9559264 26.054424,46 L27.3724906,43.7889606 C23.6156128,40.2840287 21.2807016,35.4020166 21.2807016,29.99992 Z M37,25.3689914 L35.741042,23.2149837 C33.8641228,24.929935 32.6901884,27.3350263 32.6901884,30.0008798 C32.6901884,32.6659333 33.8641228,35.0699848 35.741042,36.7849361 L37,34.6309284 C35.7040091,33.4710166 34.8910454,31.826935 34.8910454,30.0009597 C34.8910454,28.1740247 35.7040091,26.5301031 37,25.3689914 Z M32.2631505,39.1380349 C29.7563523,36.8230906 28.1964123,33.58604 28.1964123,30.0010398 C28.1964123,26.4150798 29.7563524,23.1771493 32.2631505,20.8622049 L30.8462229,18.5571791 C30.7983121,18.6011727 30.7472819,18.6430867 30.7003309,18.6881201 C27.5244614,21.7101619 25.7755176,25.7281393 25.7755176,30.0000799 C25.7755176,34.2730603 27.5244614,38.2911176 30.7003309,41.3121196 C30.7472819,41.3571531 30.7983121,41.3981071 30.8452631,41.4430606 L32.2631505,39.1380349 Z" id="Shape" fill="#E71A22"></path>
            </g>
        </g>
    </g>
</svg>