<?xml version="1.0" encoding="UTF-8" standalone="no"?>
<svg width="65px" height="66px" viewBox="0 0 65 66" version="1.1" xmlns="http://www.w3.org/2000/svg" xmlns:xlink="http://www.w3.org/1999/xlink">
    <!-- Generator: Sketch 50.2 (55047) - http://www.bohemiancoding.com/sketch -->
    <title>图标-引用</title>
    <desc>Created with Sketch.</desc>
    <defs></defs>
    <g id="官网" stroke="none" stroke-width="1" fill="none" fill-rule="evenodd">
        <g id="Artboard" transform="translate(-138.000000, -1406.000000)" stroke="#FFFFFF" stroke-width="4">
            <g id="图标-引用" transform="translate(140.000000, 1409.000000)">
                <path d="M46.189063,0 C51.8441308,0.330617784 56.9489759,3.12306625 59.5880076,9.33359382 C62.2728912,15.6407635 61.075647,21.5155868 56.4496996,26.5257175 C53.173836,30.0760437 49.6534289,33.3974806 46.2145362,36.7901275 C44.7218021,38.2651914 42.3273139,38.3160556 41.0332714,36.9528932 C39.7239449,35.5795579 39.8665952,33.687407 41.4408438,32.1055281 C44.8186006,28.7179676 48.2422092,25.376185 51.5792088,21.958106 C56.6127287,16.8055553 54.3812694,8.61640758 47.4270643,6.7649481 C44.5332998,6.001984 41.7567125,6.53097248 39.5558212,8.58080259 C36.0201301,11.871721 32.6882253,15.3762692 29.1627234,18.6773604 C28.4189037,19.3742009 27.1809024,19.9794858 26.2129178,19.9133622 C23.6248327,19.7607694 22.3104114,16.6173575 24.1037303,14.7455523 C27.9351381,10.7069644 31.9150956,6.81148054 36.0354141,3.06711558 C38.552174,0.803655528 41.8331323,0.0254321158 46.189063,0.00508643708 L46.189063,0 Z M0.000913923699,45.3251523 C-0.0444871048,41.142399 1.6033249,37.1184745 4.57082014,34.1655311 C7.91800896,30.7525385 11.321239,27.3904101 14.7193744,24.0231954 C16.3343803,22.4260573 18.3162013,22.303983 19.6815691,23.6773183 C21.1080727,25.1116908 20.9654223,26.9173724 19.2841859,28.6111526 C16.0490795,31.8562932 12.7630266,35.0556558 9.55848811,38.3364013 C5.5999406,42.3851973 5.43181698,47.8480201 9.07959051,51.5204205 C12.5745244,55.0300552 18.351864,55.050401 21.9996375,51.4949883 C25.3111637,48.2600207 28.5462701,44.9334973 31.8527017,41.6934433 C33.8396174,39.7504281 36.8607483,40.4421822 37.3854979,43.0566057 C37.5427251,44.1463471 37.2381178,45.2522209 36.5448796,46.108462 C32.9480527,49.8927639 29.3563204,53.717757 25.4385301,57.1561817 C20.6393644,61.3677434 15.0199591,62.0645839 9.16110496,59.5111975 C3.49584777,57.0442803 0.0161978512,51.4848155 0.000913923699,45.3251523 Z" id="Shape" fill="#3C3C3C" fill-rule="nonzero"></path>
                <path d="M19.3911737,35.8643977 L35.9640889,19.3131638 C36.8650608,18.4136472 38.1782559,18.0623459 39.4090064,18.3915919 C40.6397568,18.7208378 41.6010823,19.6806107 41.9308609,20.9093733 C42.2606395,22.1381359 41.9087699,23.4492101 41.0077981,24.3487267 L24.4348829,40.8948742 C23.5339111,41.7943909 22.2207159,42.1456921 20.9899655,41.8164462 C19.759215,41.4872002 18.7978895,40.5274274 18.4681109,39.2986648 C18.1383323,38.0699021 18.4902018,36.758828 19.3911737,35.8593114 L19.3911737,35.8643977 Z" id="Path" fill="#E71A22"></path>
            </g>
        </g>
    </g>
</svg>