<?xml version="1.0" encoding="UTF-8" standalone="no"?>
<svg width="45px" height="45px" viewBox="0 0 45 45" version="1.1" xmlns="http://www.w3.org/2000/svg" xmlns:xlink="http://www.w3.org/1999/xlink">
    <!-- Generator: Sketch 50.2 (55047) - http://www.bohemiancoding.com/sketch -->
    <title>搜索引擎传播</title>
    <desc>Created with Sketch.</desc>
    <defs></defs>
    <g id="官网" stroke="none" stroke-width="1" fill="none" fill-rule="evenodd">
        <g id="Artboard" transform="translate(-258.000000, -1599.000000)">
            <g id="搜索引擎传播" transform="translate(258.000000, 1599.000000)">
                <path d="M33.75,22.5 C33.75,16.287 28.713,11.25 22.5,11.25 C16.287,11.25 11.25,16.287 11.25,22.5 L8.43899999,22.5 C8.43899999,14.733 14.733,8.43899999 22.5,8.43899999 C30.267,8.43899999 36.564,14.733 36.564,22.5 L33.75,22.5 Z M21.093,28.125 C21.108,28.125 21.117,28.131 21.129,28.131 L25.026,18.948 C25.326,18.24 26.229,17.832 27.045,18.039 C27.861,18.246 28.278,18.984 27.978,19.695 L23.919,29.256 C24.765,30.027 25.314,31.11 25.314,32.343 C25.314,34.674 23.424,36.561 21.093,36.561 C18.765,36.561 16.875,34.674 16.875,32.343 C16.875,30.015 18.765,28.125 21.093,28.125 Z M21.093,33.753 C21.87,33.753 22.5,33.123 22.5,32.346 C22.5,31.569 21.87,30.942 21.093,30.942 C20.316,30.942 19.689,31.569 19.689,32.346 C19.689,33.123 20.316,33.753 21.093,33.753 Z" id="Shape" stroke="#EAEAEA" fill="#E71A22" fill-rule="nonzero"></path>
                <path d="M22.5,44 C34.3747721,44 44,34.3756585 44,22.5 C44,10.6243415 34.3747721,1 22.5,1 C10.6252279,1 1,10.6243415 1,22.5 C1,34.3756585 10.6252279,44 22.5,44 Z" id="Path" stroke="#3C3C3C" stroke-width="2"></path>
            </g>
        </g>
    </g>
</svg>