<?xml version="1.0" encoding="UTF-8" standalone="no"?>
<svg width="57px" height="49px" viewBox="0 0 57 49" version="1.1" xmlns="http://www.w3.org/2000/svg" xmlns:xlink="http://www.w3.org/1999/xlink">
    <!-- Generator: Sketch 50.2 (55047) - http://www.bohemiancoding.com/sketch -->
    <title>图片</title>
    <desc>Created with Sketch.</desc>
    <defs></defs>
    <g id="官网" stroke="none" stroke-width="1" fill="none" fill-rule="evenodd">
        <g id="Artboard" transform="translate(-359.000000, -1497.000000)">
            <g id="图片" transform="translate(359.000000, 1497.000000)">
                <path d="M12.2141835,16.3332137 C12.2141835,18.5883437 14.037025,20.4166368 16.2856972,20.4166368 C18.5343695,20.4166368 20.3570917,18.5884634 20.3570917,16.3332137 C20.3570917,14.0780837 18.5342502,12.2499103 16.2856972,12.2499103 C14.0371443,12.2499103 12.2141835,14.0780837 12.2141835,16.3332137 Z M10.1785459,40.896677 C9.97342034,40.8962987 9.76954522,40.8646337 9.57391403,40.8027681 C8.501107,40.4679259 7.90053069,39.3266634 8.23439625,38.2505988 C8.38504727,37.764665 12.0615047,26.3293099 19.8867695,26.5335169 C22.113852,26.588666 23.9785609,27.1522391 25.7821984,27.6973894 C28.0988603,28.395665 30.1020537,28.9978784 32.7565175,28.5731948 C34.0573885,28.3628866 34.5947462,27.0522291 35.512966,24.1080349 C36.7241381,20.2267852 38.5542558,14.3631601 46.6238067,14.3631601 C47.7495741,14.3631601 48.6594443,15.2778449 48.6594443,16.404752 C48.6594443,17.531659 47.7494549,18.4463439 46.6238067,18.4463439 C41.7909267,18.4463439 40.7283778,21.061797 39.3970904,25.3288509 C38.4749344,28.289195 37.3225674,31.9744921 33.3999155,32.6032632 C29.8190016,33.1749711 27.0525336,32.3399593 24.6076452,31.6069912 C22.9912779,31.1191434 21.4624623,30.6576139 19.7809679,30.6168204 C19.7504321,30.6147867 19.7198964,30.6147867 19.6893606,30.6147867 C15.7441647,30.6147867 12.8900257,36.9868359 12.1185207,39.4613659 C11.8499014,40.3351375 11.0457137,40.896677 10.1785459,40.896677 Z" id="Shape" stroke="#FFFFFF" stroke-width="1.5" fill="#E71A22" fill-rule="nonzero"></path>
                <path d="M49.5371087,48 C53.0983804,48 56.0001033,45.0897895 56,41.5152796 L56,7.48472042 C56,3.91014584 53.0983096,1 49.5371087,1 L7.46289127,1 C3.90169042,1 1,3.91014584 1,7.48472042 L1,41.5152796 C1,45.0898542 3.90169042,48 7.46289127,48 L49.5371087,48 Z" id="Path" stroke="#3C3C3C" stroke-width="2"></path>
            </g>
        </g>
    </g>
</svg>