<?xml version="1.0" encoding="UTF-8" standalone="no"?>
<svg width="49px" height="60px" viewBox="0 0 49 60" version="1.1" xmlns="http://www.w3.org/2000/svg" xmlns:xlink="http://www.w3.org/1999/xlink">
    <!-- Generator: Sketch 50.2 (55047) - http://www.bohemiancoding.com/sketch -->
    <title>定位-2</title>
    <desc>Created with Sketch.</desc>
    <defs></defs>
    <g id="官网" stroke="none" stroke-width="1" fill="none" fill-rule="evenodd">
        <g id="Artboard" transform="translate(-319.000000, -1412.000000)" fill-rule="nonzero">
            <g id="定位-2" transform="translate(319.000000, 1412.000000)">
                <path d="M23.988727,15.7500992 L23.9863794,15.7501064 C19.5741096,15.7567974 15.7808913,18.8790998 14.9261808,23.2078062 C14.0714703,27.5365127 16.3932728,31.8662403 20.4718651,33.5494712 C24.550457,35.2327018 29.2501037,33.80072 31.6970919,30.1291455 C34.1440804,26.4575705 33.6570149,21.5687984 30.5320644,18.450528 C28.8000062,16.7113211 26.4432589,15.7386939 23.988727,15.7500992 Z M23.982931,14.25011 C23.9833222,14.2501094 23.9837135,14.2501087 23.9841048,14.2501082 L23.9817572,14.2501154 C23.9821484,14.2501136 23.9825397,14.2501118 23.982931,14.25011 Z" id="Shape" stroke="#E71A22" stroke-width="1.5"></path>
                <path d="M24.5000003,58.5754047 L41.1152292,41.7171219 C50.2949236,32.3100876 50.2949236,17.3895164 41.1152292,7.98248208 L41.1151428,7.98239354 C36.7619201,3.52025694 30.7654976,1 24.5,1 C18.2345024,1 12.2380799,3.52025694 7.88477085,7.98248208 C-1.29492362,17.3895164 -1.29492362,32.3100876 7.88129148,41.7135741 L24.5000003,58.5754047 Z" id="Shape" stroke="#3C3C3C" stroke-width="2"></path>
            </g>
        </g>
    </g>
</svg>