<?xml version="1.0" encoding="UTF-8" standalone="no"?>
<svg width="45px" height="45px" viewBox="0 0 45 45" version="1.1" xmlns="http://www.w3.org/2000/svg" xmlns:xlink="http://www.w3.org/1999/xlink">
    <!-- Generator: Sketch 50.2 (55047) - http://www.bohemiancoding.com/sketch -->
    <title>Group 2</title>
    <desc>Created with Sketch.</desc>
    <defs></defs>
    <g id="解决方案" stroke="none" stroke-width="1" fill="none" fill-rule="evenodd">
        <g id="直播" transform="translate(-159.000000, -436.000000)">
            <g id="Group-2" transform="translate(159.000000, 437.000000)">
                <path d="M39.3696699,0.00381181229 L10.4570066,0.00381181229 C9.54398302,0.00381181229 8.80236771,0.750425466 8.80236771,1.66801896 C8.80236771,2.56138739 9.49898647,3.20949579 10.4570066,3.20949579 L39.4900118,3.20949579 C40.2140198,3.20949579 40.8060479,3.80203198 40.8060479,4.53279652 L40.8060479,37.0113431 C40.8060479,37.9753805 41.4513495,38.6755503 42.3414484,38.6755503 C43.2553247,38.6755503 44,37.9289366 44,37.0113431 L44,4.65652995 C44.0000502,2.09032764 41.9223334,0 39.3692685,0 L39.3696699,0.00381181229 Z" id="Shape" stroke="#EAEAEA" stroke-width="1.5" fill="#464646" fill-rule="nonzero"></path>
                <path d="M12.4804465,20.9263479 C13.3259,20.9263479 14.113766,20.5973283 14.7073993,20.0013314 C15.3010327,19.4053345 15.6251382,18.6125277 15.6236333,17.7720732 C15.6236333,16.0301252 14.214795,14.6126326 12.4804967,14.6126326 C10.7472017,14.6126326 9.33560437,16.0296738 9.33560437,17.7720732 C9.33565453,19.5129179 10.7479541,20.9295077 12.4804967,20.9295077 L12.4804465,20.9263479 Z" id="Path" fill="#E81A23"></path>
                <path d="M6.82407477,38.2685891 C7.30835197,38.2685891 7.76468818,38.0584881 8.08352658,37.6877392 L13.2724259,31.6054911 L19.2173875,36.0323092 C19.504924,36.2477268 19.8454831,36.3594229 20.2030978,36.3594229 C20.7101994,36.3594229 21.1836914,36.129711 21.505038,35.7310757 L32.1635508,22.2903247 C32.7300458,21.5711962 32.6113593,20.5210419 31.8985377,19.9491196 C31.6083426,19.716248 31.2408959,19.588151 30.8679312,19.588151 C30.3592245,19.588151 29.8873376,19.8178629 29.5726628,20.2154951 L19.9149594,32.3981474 L14.013991,28.0056858 C13.7267054,27.7902683 13.3855443,27.6761145 13.0282807,27.6761145 C12.5440035,27.6761145 12.0852093,27.8912813 11.7675247,28.2602246 L5.57325107,35.5197208 C4.97766134,36.217132 5.05922698,37.2692925 5.75113039,37.8652894 C6.04900049,38.1263985 6.43430536,38.2659309 6.83270287,38.2659309 L6.82407477,38.2685891 Z" id="Path" stroke="#EAEAEA" fill="#E81A23"></path>
                <path d="M34.7844867,6.7322883 L3.14489234,6.7322883 C1.79102832,6.7322883 0.75,7.73632726 0.75,9.01483575 L0.75,40.838503 C0.75,42.1674439 1.82667013,43.25 3.14489234,43.25 L35.0312404,43.25 C36.304584,43.25 37.3038846,42.2044884 37.3038846,40.838503 L37.3038846,9.01481325 C37.3039219,7.76949324 36.1860981,6.7322883 34.7844867,6.7322883 Z" id="Path" stroke="#464646" stroke-width="1.5"></path>
            </g>
        </g>
    </g>
</svg>