<?xml version="1.0" encoding="UTF-8" standalone="no"?>
<svg width="55px" height="55px" viewBox="0 0 55 55" version="1.1" xmlns="http://www.w3.org/2000/svg" xmlns:xlink="http://www.w3.org/1999/xlink">
    <!-- Generator: Sketch 50.2 (55047) - http://www.bohemiancoding.com/sketch -->
    <title>提取</title>
    <desc>Created with Sketch.</desc>
    <defs></defs>
    <g id="官网" stroke="none" stroke-width="1" fill="none" fill-rule="evenodd">
        <g id="Artboard" transform="translate(-70.000000, -1412.000000)">
            <g id="提取" transform="translate(70.000000, 1412.000000)">
                <path d="M43.5147846,47.8766225 L11.4595766,47.8766225 C10.4709225,47.8766225 9.68506931,47.0766711 9.68506931,46.0989526 C9.68506931,45.1212342 10.4835976,44.3212827 11.4595766,44.3212826 L43.5021096,44.3212826 C44.4907637,44.3212826 45.2766169,45.1212341 45.2766169,46.0989526 C45.289292,47.0766711 44.4907637,47.8766225 43.5147846,47.8766225 Z M37.6082101,16.2975856 C38.3053381,16.995956 38.3053381,18.1387438 37.6082101,18.8371141 C36.9110822,19.5354844 35.7830026,19.5354844 35.0858747,18.8371141 L29.2680255,11.8026201 L29.2680255,38.9374822 C29.2680255,39.9152007 28.4694972,40.7151522 27.4935182,40.7151522 C26.5048641,40.7151522 25.7190109,39.9152007 25.7190108,38.9374822 L25.7190108,11.7137366 L19.8504615,18.8244165 C19.1533336,19.5227868 18.0252539,19.5227868 17.328126,18.8244165 C16.6309981,18.1260461 16.6309981,16.9832583 17.328126,16.2848879 L26.1246125,5.63156588 C26.492189,5.26333427 26.9865161,5.09826489 27.4808431,5.12366015 C27.9624951,5.09826489 28.4568221,5.2506366 28.8370737,5.63156588 L37.6082101,16.2975856 Z" id="Shape" stroke="#FFFFFF" fill="#E71A22" fill-rule="nonzero"></path>
                <path d="M47.7272459,53.5 C48.0850525,53.5 48.2396634,53.4975302 49.5088961,53.4741857 C50.020543,53.4647752 50.3776325,53.4589484 50.7390818,53.4545989 C50.8613947,53.4531702 50.8613947,53.4531702 50.9689803,53.452181 C52.3899894,53.4174604 53.5171636,52.2454646 53.4997806,50.8173878 L53.4997804,50.8173681 C53.4817225,49.080711 53.4757107,48.3800917 53.4757107,47.7635665 L53.4757107,7.2727895 C53.4757107,6.65202806 53.4691687,5.8459314 53.4517129,4.07899673 C53.443049,2.638239 52.2655378,1.4828125 50.8235093,1.50021558 C49.0539169,1.51830486 48.3426184,1.52432656 47.7272459,1.52432656 L7.24846485,1.52432656 C6.59492859,1.52432656 5.75523981,1.531317 4.12683489,1.5483078 C2.73032523,1.5656867 1.5944061,2.68764047 1.55960899,4.09030094 C1.5235317,5.31911498 1.5,6.56851845 1.5,7.26076004 L1.5,47.7515371 C1.5,48.3742477 1.50678906,49.2017234 1.52394178,50.9030825 C1.54135938,52.3338687 2.68742697,53.4793088 4.10238336,53.4879706 C4.18988173,53.487985 4.18988173,53.487985 4.27740485,53.4880542 C4.73651805,53.4884849 5.17465265,53.4902865 5.84755373,53.4940005 C6.83571057,53.4994547 6.95030199,53.5 7.24846485,53.5 L47.7272459,53.5 Z M55.4996724,50.7965829 L55.4996725,50.7965928 L55.4996724,50.7965829 Z" id="Path" stroke="#3C3C3C" stroke-width="2"></path>
            </g>
        </g>
    </g>
</svg>