<?xml version="1.0" encoding="UTF-8" standalone="no"?>
<svg width="63px" height="59px" viewBox="0 0 63 59" version="1.1" xmlns="http://www.w3.org/2000/svg" xmlns:xlink="http://www.w3.org/1999/xlink">
    <!-- Generator: Sketch 50.2 (55047) - http://www.bohemiancoding.com/sketch -->
    <title>搜索-2</title>
    <desc>Created with Sketch.</desc>
    <defs></defs>
    <g id="官网" stroke="none" stroke-width="1" fill="none" fill-rule="evenodd">
        <g id="Artboard" transform="translate(-221.000000, -1412.000000)" fill-rule="nonzero">
            <g id="搜索-2" transform="translate(221.000000, 1413.000000)">
                <path d="M61.7747906,54.4954243 L52.4167455,38.3733742 C58.1658257,34.6505912 61.9676056,28.2027763 61.9676056,20.8708151 C61.9676056,9.34402983 52.5727566,0 40.983834,0 C29.3949114,0 20,9.34409188 20,20.8708151 C20,32.3975383 29.394849,41.7418163 40.9837716,41.7418163 C44.0019405,41.7418163 46.8705857,41.1067822 49.4638256,39.9658302 L58.8672206,56.1648786 C59.3307625,56.9635884 60.3574041,57.2370843 61.160228,56.7759632 C61.9633014,56.3149663 62.238395,55.2937619 61.7747906,54.4954864 L61.7747906,54.4954243 Z M40.9837716,38.4025356 C31.2489544,38.4025356 23.3574509,30.5532403 23.3574509,20.8708151 C23.3574509,11.1883899 31.2490168,3.33921873 40.9837716,3.33921873 C50.7185265,3.33921873 58.6102795,11.1883279 58.6102795,20.8708151 C58.6102795,30.5533023 50.7185888,38.4025356 40.9837716,38.4025356 Z" id="Shape" stroke="#FFFFFF" fill="#3C3C3C"></path>
                <path d="M0.974259823,4 L19.0257402,4 C19.563708,4 20,3.73771527 20,3.4139744 L20,2.5860256 C20,2.26235904 19.5638316,2 19.0257402,2 L0.974259823,2 C0.436291981,2 0,2.26228473 0,2.5860256 L0,3.4139744 C0,3.73764096 0.436168438,4 0.974259823,4 Z" id="Shape" fill="#E71A22"></path>
                <path d="M19.026046,28 L0.973953974,28 C0.436108014,28 0,28.2623188 0,28.5861018 L0,29.4141583 C0,29.737644 0.436046242,30 0.973953974,30 L19.026046,30 C19.563892,30 20,29.7376812 20,29.4141583 L20,28.5861018 C20,28.2623932 19.5639538,28 19.026046,28 Z" id="Shape" fill="#E71A22"></path>
                <path d="M19.026046,52 L0.973953974,52 C0.436108014,52 0,52.2622847 0,52.5860256 L0,53.4139744 C0,53.7375666 0.436046242,54 0.973953974,54 L19.026046,54 C19.563892,54 20,53.737641 20,53.4139744 L20,52.5860256 C20,52.262359 19.5639538,52 19.026046,52 Z" id="Shape" fill="#E71A22"></path>
            </g>
        </g>
    </g>
</svg>