<?xml version="1.0" encoding="UTF-8" standalone="no"?>
<svg width="60px" height="60px" viewBox="0 0 60 60" version="1.1" xmlns="http://www.w3.org/2000/svg" xmlns:xlink="http://www.w3.org/1999/xlink">
    <!-- Generator: Sketch 50.2 (55047) - http://www.bohemiancoding.com/sketch -->
    <title>添加转场</title>
    <desc>Created with Sketch.</desc>
    <defs></defs>
    <g id="官网" stroke="none" stroke-width="1" fill="none" fill-rule="evenodd">
        <g id="Artboard" transform="translate(-214.000000, -1490.000000)" stroke="#FFFFFF">
            <g id="添加转场" transform="translate(215.000000, 1491.000000)">
                <path d="M54.2569612,43.2572809 L55.4787227,42.9977733 C56.1575334,42.8532104 56.8619037,43.0817699 57.3265042,43.5973558 C57.7911047,44.1129416 57.9453515,44.837224 57.7311413,45.4973727 C57.5169312,46.1575215 56.9668076,46.6532443 56.287997,46.7978072 L51.8539213,47.7385221 C50.1043648,48.1094136 48.3850847,46.9929006 48.0123014,45.2437463 L47.0682129,40.8106437 C46.8488734,39.7625604 47.5190067,38.7346244 48.5664833,38.5124053 C49.6139598,38.2901862 50.6437336,38.9574919 50.8688307,40.0043538 L51.0743606,40.9697867 C53.0706908,37.2963764 54.1135217,33.1808192 54.1073551,29.0000011 C54.1073551,15.1336046 42.8663965,3.89264595 29.0000001,3.89264595 C24.1725998,3.88558206 19.4465087,5.27706296 15.3931112,7.89885858 C15.3541851,7.92863707 15.3156482,7.95854532 15.2740621,7.98572873 C14.3754507,8.57454946 13.1696488,8.32341452 12.580828,7.42480314 C11.9920073,6.52619175 12.2431422,5.32038975 13.1417535,4.73156897 C13.1482412,4.72735197 13.1547289,4.72423788 13.1612166,4.72015064 L13.1547289,4.71002984 C17.8642982,1.62871651 23.3719931,-0.00844242801 29.0000001,3.27393611e-05 C45.0162219,3.27393611e-05 57.9999682,12.9837792 57.9999682,29.0000011 C58.0073789,33.9962957 56.7176466,38.9089431 54.2569612,43.2572809 Z M29.0000001,54.1073563 C33.8726006,54.1147275 38.6410443,52.6973234 42.7184772,50.0295845 L42.7350208,50.0549513 C42.7539,50.0415867 42.7713519,50.0269894 42.7908149,50.0142086 C43.4031191,49.6070775 44.1926554,49.5799778 44.8314341,49.9441672 C45.4702128,50.3083566 45.8490614,51.0015923 45.8105983,51.7358898 C45.7721353,52.4701872 45.3229342,53.1200491 44.6496026,53.4155092 C39.9822561,56.4163297 34.5487821,58.0080344 29.0000001,57.9999695 C12.9837783,57.9999695 3.19404999e-05,45.016223 3.19404999e-05,29.0000011 C-0.0074059064,23.999892 1.28429161,19.0836214 3.74855355,14.732925 L2.53496652,14.9906808 C1.49443394,15.1968218 0.481282615,14.5289337 0.260613266,13.491385 C0.0399439179,12.4538364 0.693601066,11.4314458 1.72796293,11.1962912 L6.14958223,10.2570685 C7.89532183,9.88743289 9.6102528,11.0027029 9.98036774,12.748341 L10.9218611,17.1751505 C11.069135,17.8535381 10.8421759,18.558873 10.3269232,19.0240763 C9.81167053,19.4892795 9.08689101,19.6432353 8.42702643,19.4276474 C7.76716185,19.2120596 7.2730859,18.659885 7.13188317,17.9802078 L6.92888339,17.024701 C4.93049858,20.6994421 3.88651761,24.8170325 3.89264512,29.0000011 C3.89264512,42.8663976 15.1336037,54.1073563 29.0000001,54.1073563 Z" id="Shape" stroke-width="1.5" fill="#3C3C3C" fill-rule="nonzero"></path>
                <path d="M34.7606036,39.4093726 L17.2438443,39.4093726 C15.4523186,39.4093726 14,37.9570541 14,36.1655283 L14,21.2438443 C14,19.4523186 15.4523186,18 17.2438443,18 L34.7606036,18 C36.5521293,18 38.0044479,19.4523186 38.0044479,21.2438443 L38.0044479,23.6268373 L42.5515391,21.001594 C42.9396425,20.7746543 43.3818616,20.6568144 43.8314303,20.6605362 C43.8354527,20.6605362 43.8393453,20.6599524 43.8433677,20.6599524 C44.0691378,20.6603946 44.2930918,20.7003111 44.5051119,20.7778985 C44.8581493,20.895545 45.165668,21.1204403 45.3847776,21.4212177 C45.6473241,21.7604542 45.7897466,22.1772927 45.7896743,22.606259 L45.7896743,34.7382368 C45.7900248,35.0585228 45.7109363,35.373896 45.5594911,35.656115 C45.5393792,35.698804 45.5180347,35.7411686 45.4940952,35.7826249 C45.2266726,36.2455215 44.7683174,36.5398679 44.2425552,36.6432168 C44.2397654,36.6438007 44.2371055,36.6446441 44.2343158,36.645228 C44.2242599,36.6471094 44.2138796,36.6480826 44.2037588,36.6498343 C44.084964,36.6725498 43.9643142,36.6841696 43.8433677,36.6845434 L43.8382424,36.6845434 C43.3899028,36.6868509 42.9491652,36.5687518 42.5620492,36.3425773 L38.0044479,33.713182 L38.0044479,36.1655283 C38.0044479,37.9570541 36.5521293,39.4093726 34.7606036,39.4093726 Z M34.1118347,23.1901509 C34.1118347,22.4735406 33.5309073,21.8926132 32.814297,21.8926132 L19.1901509,21.8926132 C18.4735406,21.8926132 17.8926132,22.4735406 17.8926132,23.1901509 L17.8926132,34.2192217 C17.8926132,34.935832 18.4735406,35.5167594 19.1901509,35.5167594 L32.814297,35.5167594 C33.5309073,35.5167594 34.1118347,34.935832 34.1118347,34.2192217 L34.1118347,23.1901509 Z M41.8970611,31.4561151 L41.8970611,25.8742375 L38.0044479,28.1216377 L38.0044479,29.2103368 L41.8970611,31.4561151 Z" id="Combined-Shape" stroke-width="2" fill="#E71A22"></path>
            </g>
        </g>
    </g>
</svg>