<?xml version="1.0" encoding="UTF-8" standalone="no"?>
<svg width="72px" height="54px" viewBox="0 0 72 54" version="1.1" xmlns="http://www.w3.org/2000/svg" xmlns:xlink="http://www.w3.org/1999/xlink">
    <!-- Generator: Sketch 50.2 (55047) - http://www.bohemiancoding.com/sketch -->
    <title>人物信息</title>
    <desc>Created with Sketch.</desc>
    <defs></defs>
    <g id="官网" stroke="none" stroke-width="1" fill="none" fill-rule="evenodd">
        <g id="Artboard" transform="translate(-63.000000, -1493.000000)" stroke="#FFFFFF">
            <g id="人物信息" transform="translate(65.000000, 1495.000000)">
                <path d="M43.0908893,49.5926059 C43.0908893,39.5875052 36.208056,31.1804322 26.9303753,28.7810292 C32.5010128,26.6191862 36.4648393,21.2207655 36.4648393,14.9013866 C36.4648393,6.68398379 29.7737186,-4.92259735e-08 21.5456811,0 C13.3172653,0 6.62614459,6.68398384 6.62614459,14.9013866 C6.62614459,21.2207654 10.5899711,26.6191861 16.160514,28.7810292 C6.88254959,31.1804322 0,39.5875052 0,49.5926059 L0.00406694056,49.5926059 C0.00406694056,49.618865 0.00293199645,49.6450297 0.00293194716,49.6708165 C0.00293194716,49.7811426 0.00558018294,49.8904296 0.00699888772,50 L4.47077256,50 C4.46850267,49.8904296 4.46698938,49.7807647 4.46670567,49.6708165 C4.46670567,40.2498394 12.1139305,32.6127819 21.5470998,32.612782 C30.9799854,32.612782 38.6272102,40.2498394 38.6272102,49.6708165 C38.6272102,49.7811426 38.6250348,49.890713 38.6231433,50 L43.0868224,50 C43.0883357,49.8904296 43.0908893,49.7807647 43.0908893,49.6708165 C43.0908893,49.6450297 43.089849,49.618865 43.0898489,49.5926059 L43.0908893,49.5926059 Z M11.1574481,14.9013866 C11.1574481,9.18039443 15.8180417,4.52695806 21.5456811,4.52695806 C27.2728476,4.52695806 31.9335358,9.18001657 31.9335358,14.9013866 C31.9335358,20.6204896 27.2728476,25.2750595 21.5456811,25.2750595 C15.8180417,25.2750595 11.1574481,20.6204897 11.1574481,14.9013866 Z" id="Shape" stroke-width="2.4" fill="#3C3C3C" fill-rule="nonzero"></path>
                <polygon id="Path" fill="#E71A22" points="38.8810615 9.8694223 60 9.8694223 60 12.8694223 38.8810615 12.8694223"></polygon>
                <polygon id="Path" fill="#E71A22" points="38.8810615 19.4579665 60 19.4579665 60 22.4579665 38.8810615 22.4579665"></polygon>
                <polygon id="Path" fill="#E71A22" points="44.4202041 29.6907092 60 29.6907092 60 32.6907092 44.4202041 32.6907092"></polygon>
                <path d="M64.0541567,0 L34,0 L34,4.41494756 L61.8790745,4.41494756 C62.750862,4.41494756 63.457701,5.10162974 63.457701,5.94890312 L63.457701,44.0511906 C63.457701,44.8983703 62.750862,45.5854272 61.8790745,45.5854272 L50.38918,45.5854272 L50.38918,50 L64.0541567,50 C66.2334808,50 68,48.2830604 68,46.165111 L68,3.83526372 C68,1.71722075 66.2334808,0 64.0541567,0 Z" id="Shape" stroke-width="2.4" fill="#3C3C3C" fill-rule="nonzero"></path>
            </g>
        </g>
    </g>
</svg>