<?xml version="1.0" encoding="UTF-8" standalone="no"?>
<svg width="54px" height="54px" viewBox="0 0 54 54" version="1.1" xmlns="http://www.w3.org/2000/svg" xmlns:xlink="http://www.w3.org/1999/xlink">
    <!-- Generator: Sketch 50.2 (55047) - http://www.bohemiancoding.com/sketch -->
    <title>语音-3</title>
    <desc>Created with Sketch.</desc>
    <defs></defs>
    <g id="官网" stroke="none" stroke-width="1" fill="none" fill-rule="evenodd">
        <g id="Artboard" transform="translate(-141.000000, -1494.000000)">
            <g id="语音-3" transform="translate(141.000000, 1494.000000)">
                <path d="M27,8.93826638e-16 C12.0405406,8.93826638e-16 0,12.0405406 0,27 C0,41.9594594 12.0405406,54 27,54 C41.9594594,54 54,41.9594594 54,27 C54,12.0405406 41.9594594,0 27,8.93826638e-16 Z M27,51.8108108 C13.5,51.8108108 2.18918917,40.8648649 2.18918917,27 C2.18918917,13.5 13.1351351,2.18918917 27,2.18918917 C40.5,2.18918917 51.8108108,13.1351351 51.8108108,27 C51.8108108,40.5 40.5,51.8108108 27,51.8108108 Z" id="Shape" fill="#3C3C3C" fill-rule="nonzero"></path>
                <path d="M28.9123249,40.2095238 L28.9123249,43.8285714 L36.013432,43.8285714 C36.7235427,43.8285714 37.0785981,44.1904762 37.0785981,44.9142857 C37.0785981,45.6380952 36.7235427,46 36.013432,46 L19.3258303,46 C18.6157196,46 18.2606642,45.6380952 18.2606642,44.9142857 C18.2606642,44.1904762 18.6157196,43.8285714 19.3258303,43.8285714 L26.4269374,43.8285714 L26.4269374,40.2095238 C19.3258303,39.847619 14,33.695238 14,26.4571428 C14,25.7333333 14.3550554,25.3714285 15.0651661,25.3714286 C15.7752768,25.3714287 16.1303322,25.7333334 16.1303321,26.4571428 C16.1303321,32.9714285 21.1011071,38.0380951 27.4921034,38.0380952 C33.8830999,38.0380952 38.8538748,32.9714285 38.8538749,26.4571428 C38.8538749,25.7333333 39.2089303,25.3714285 39.9190409,25.3714286 C40.6291515,25.3714287 40.984207,25.7333334 40.984207,26.4571428 C41.3392624,33.695238 35.6583767,39.4857142 28.9123249,40.2095238 Z" id="Shape" stroke="#FFFFFF" stroke-width="0.6" fill="#E71A22" fill-rule="nonzero"></path>
                <path d="M35.15,16.2725801 C35.15,12.3585693 31.442597,8.714608 27.4456444,8.714608 C23.4486919,8.714608 19.7412889,12.3585694 19.7412889,16.2725801 L19.7412889,26.5083722 C19.7412889,30.422383 23.4486919,34.0663445 27.4456444,34.0663444 C31.442597,34.0663443 35.15,30.4223829 35.15,26.5083722 L35.15,16.2725801 Z" id="Path" stroke="#E71A22" stroke-width="1.7"></path>
            </g>
        </g>
    </g>
</svg>