<?xml version="1.0" encoding="UTF-8" standalone="no"?>
<svg width="283px" height="160px" viewBox="0 0 283 160" version="1.1" xmlns="http://www.w3.org/2000/svg" xmlns:xlink="http://www.w3.org/1999/xlink">
    <!-- Generator: Sketch 50.2 (55047) - http://www.bohemiancoding.com/sketch -->
    <title>Shape</title>
    <desc>Created with Sketch.</desc>
    <defs>
        <rect id="path-1" x="0" y="0" width="282.658836" height="160"></rect>
    </defs>
    <g id="官网" stroke="none" stroke-width="1" fill="none" fill-rule="evenodd">
        <g id="PAAS-2-Copy" transform="translate(-667.000000, -1443.000000)">
            <g id="Group-60" transform="translate(361.000000, 1177.000000)">
                <g id="Group-58" transform="translate(306.000000, 266.000000)">
                    <g id="Shape">
                        <mask id="mask-2" fill="white">
                            <use xlink:href="#path-1"></use>
                        </mask>
                        <use id="Mask" fill="#F7F8FA" xlink:href="#path-1"></use>
                        <path d="M265.346532,78.9774617 L227.806257,78.9774617 L227.806257,62.894448 C231.599652,62.3027942 234.503987,58.9912906 234.503987,54.9944684 C234.503987,50.5793135 230.960258,47 226.588389,47 C222.216521,47 218.672928,50.5793135 218.672928,54.9944684 C218.672928,58.991428 221.577535,62.3027942 225.370793,62.894448 L225.370793,78.9774617 L187.653332,78.9774617 C185.635745,78.9774617 184,80.629368 184,82.6671952 L184,138.25821 C184,140.296174 185.635881,141.948081 187.653332,141.948081 L210.879307,141.948081 L210.879307,149.573384 L202.96371,149.573384 C200.946395,149.573384 199.31065,151.22529 199.31065,153.26298 L199.31065,173.310266 C199.31065,175.348231 200.946395,177 202.963982,177 L249.969522,177 C251.987245,177 253.622854,175.348094 253.622854,173.310404 L253.622854,153.263117 C253.622854,151.22529 251.987245,149.573384 249.969522,149.573384 L242.053925,149.573384 L242.053925,141.948081 L265.346668,141.948081 C267.364391,141.948081 269,140.296174 269,138.258347 L269,82.6671952 C269,80.629368 267.364255,78.9774617 265.346532,78.9774617 Z M206.999931,119 C202.581683,119 199,115.418454 199,110.999931 C199,106.581821 202.581546,103 207.000069,103 C211.418591,103 215,106.581821 215,111.000069 C215,115.418317 211.418179,119 206.999931,119 Z M246.999794,119 C242.581683,119 239,115.418454 239,110.999931 C239,106.581821 242.581683,103 247.000069,103 C251.418454,103 255,106.581821 255,111.000069 C255,115.418317 251.418179,119 246.999931,119 L246.999794,119 Z M161,110.5 C161,119.060586 167.71572,126 176,126 L176,95 C167.715854,95 161,101.939691 161,110.5 Z M277,95 L277,126 C285.284294,126 292,119.060586 292,110.5 C292,101.939414 285.284294,95 277,95 Z" fill="#EAEBED" fill-rule="nonzero" mask="url(#mask-2)"></path>
                    </g>
                </g>
            </g>
        </g>
    </g>
</svg>