<?xml version="1.0" encoding="UTF-8" standalone="no"?>
<svg width="283px" height="160px" viewBox="0 0 283 160" version="1.1" xmlns="http://www.w3.org/2000/svg" xmlns:xlink="http://www.w3.org/1999/xlink">
    <!-- Generator: Sketch 50.2 (55047) - http://www.bohemiancoding.com/sketch -->
    <title>架构-2 copy</title>
    <desc>Created with Sketch.</desc>
    <defs>
        <rect id="path-1" x="0" y="0" width="283" height="160"></rect>
    </defs>
    <g id="官网" stroke="none" stroke-width="1" fill="none" fill-rule="evenodd">
        <g id="PAAS-2-Copy" transform="translate(-361.000000, -1443.000000)">
            <g id="Group-60" transform="translate(361.000000, 1177.000000)">
                <g id="Group-59" transform="translate(0.000000, 266.000000)">
                    <g id="架构-2-copy">
                        <mask id="mask-2" fill="white">
                            <use xlink:href="#path-1"></use>
                        </mask>
                        <use id="Mask" fill="#F7F8FA" xlink:href="#path-1"></use>
                        <g id="平台-2" mask="url(#mask-2)" fill="#EAEBED" fill-rule="nonzero">
                            <g transform="translate(167.000000, 59.000000)" id="Shape">
                                <path d="M24.1538462,2.99760217e-15 L60.8461538,2.99760217e-15 C66.2820513,2.99760217e-15 69,2.66666668 69,8.00000003 L69,20.0000001 C69,25.3333334 66.2820513,28.0000001 60.8461538,28 L24.1538462,28 C18.7179487,28 16,25.3333334 16,20.0000001 L16,8.00000003 C16,2.66666668 18.7179487,0 24.1538462,2.99760217e-15 Z"></path>
                                <path d="M8.20689657,16 L110.793103,16 C115.325647,16 119,19.6595855 119,24.1739131 L119,101.826087 C119,106.340414 115.325647,110 110.793103,110 L8.20689657,110 C3.67435275,110 5.55076528e-16,106.340414 0,101.826087 L0,24.1739131 C-5.55076528e-16,19.6595855 3.67435275,16 8.20689657,16 Z M36.9310344,81.3913044 L36.9310344,93.6521739 L106.689655,93.6521739 L106.689655,81.3913044 L36.9310344,81.3913044 Z M61.5517241,52.7826087 L61.5517241,65.0434783 L106.689655,65.0434783 L106.689655,52.7826087 L61.5517241,52.7826087 Z"></path>
                            </g>
                        </g>
                    </g>
                </g>
            </g>
        </g>
    </g>
</svg>