<?xml version="1.0" encoding="UTF-8" standalone="no"?>
<svg width="283px" height="160px" viewBox="0 0 283 160" version="1.1" xmlns="http://www.w3.org/2000/svg" xmlns:xlink="http://www.w3.org/1999/xlink">
    <!-- Generator: Sketch 50.2 (55047) - http://www.bohemiancoding.com/sketch -->
    <title>运维</title>
    <desc>Created with Sketch.</desc>
    <defs>
        <rect id="path-1" x="0" y="0" width="283" height="160"></rect>
    </defs>
    <g id="官网" stroke="none" stroke-width="1" fill="none" fill-rule="evenodd">
        <g id="PAAS-2-Copy" transform="translate(-1278.000000, -1265.000000)">
            <g id="Group-60" transform="translate(361.000000, 1177.000000)">
                <g id="Group-55" transform="translate(917.000000, 88.000000)">
                    <g id="运维">
                        <mask id="mask-2" fill="white">
                            <use xlink:href="#path-1"></use>
                        </mask>
                        <use id="Mask" fill="#F7F8FA" xlink:href="#path-1"></use>
                        <g mask="url(#mask-2)" fill="#EAEBED" fill-rule="nonzero" id="Shape">
                            <g transform="translate(185.000000, 64.000000)">
                                <path d="M102.86178,27.6377999 L97.2965523,33.2336147 C91.3585846,39.1944552 81.7103823,39.1944552 75.7800038,33.2336147 C69.8419116,27.2651851 69.8419116,17.5561763 75.7800038,11.5953359 C75.7800038,11.5953359 78.2737312,9.08631376 81.3453556,5.99952105 C84.4169799,2.90501479 82.3640465,-0.736905411 76.8289269,0.129874807 C70.0470681,1.20952442 64.207884,4.63098616 60.0262499,9.51964162 C54.5367898,14.9330681 52.0277596,24.6422013 53.8980552,33.6138186 L7.21531258,80.5549396 C1.28493397,86.5156556 1.28493397,96.2171996 7.21531258,102.185505 C13.1456912,108.154059 22.801607,108.154059 28.73211,102.185505 L75.4151015,55.2367948 C84.3255366,57.1147979 93.9663986,54.5983111 100.88536,47.6566042 C105.416594,43.1023687 108.389559,36.9819074 108.929261,30.1695894 C109.552693,26.6188634 105.933653,24.5508827 102.86178,27.6377999 Z M21.5547432,94.9703399 C20.6424251,95.8978333 19.3650803,96.4606744 17.9660599,96.4606744 C15.1681434,96.4606744 12.9024644,94.1796999 12.9024644,91.3667386 C12.9024644,88.5535284 15.1681434,86.2650893 17.9660599,86.2650893 C19.3650803,86.2650893 20.6424251,86.8352706 21.5547432,87.7628885 C22.4822396,88.6752036 23.0449581,89.9526687 23.0449581,91.3667386 C23.0449581,92.7808085 22.4822396,94.05056 21.5547432,94.9703399 Z M16.4908988,28.5652933 L34.0616998,46.2499992 L41.2312284,39.0347099 L23.6608009,21.3575931 L19.722269,13.7849918 L7.16965306,4.76771518 L0,11.9905937 L8.96405703,24.6117203 L16.4908988,28.5652933 Z M75.3008906,66.0712369 C74.8369558,65.6073035 74.2136483,65.3260074 73.5066112,65.3260074 C72.8069143,65.3260074 72.1761422,65.607428 71.7197964,66.0712369 L60.9538707,76.8905007 C60.4977738,77.3541852 60.2088876,77.9927934 60.2088877,78.6999526 C60.2088877,79.399274 60.4977739,80.0380065 60.9538707,80.4942263 L86.3330593,106.017651 C90.2942342,109.994116 96.7187799,109.994116 100.672241,106.017651 C104.641005,102.041311 104.641005,95.5785914 100.672241,91.5946619 L75.3008906,66.0712369 Z"></path>
                            </g>
                        </g>
                    </g>
                </g>
            </g>
        </g>
    </g>
</svg>