<?xml version="1.0" encoding="UTF-8" standalone="no"?>
<svg width="283px" height="160px" viewBox="0 0 283 160" version="1.1" xmlns="http://www.w3.org/2000/svg" xmlns:xlink="http://www.w3.org/1999/xlink">
    <!-- Generator: Sketch 50.2 (55047) - http://www.bohemiancoding.com/sketch -->
    <title>租户管理</title>
    <desc>Created with Sketch.</desc>
    <defs>
        <rect id="path-1" x="0" y="0" width="282.658836" height="160"></rect>
    </defs>
    <g id="官网" stroke="none" stroke-width="1" fill="none" fill-rule="evenodd">
        <g id="PAAS-2-Copy" transform="translate(-972.000000, -1265.000000)">
            <g id="Group-60" transform="translate(361.000000, 1177.000000)">
                <g id="Group-54" transform="translate(611.000000, 88.000000)">
                    <g id="租户管理">
                        <mask id="mask-2" fill="white">
                            <use xlink:href="#path-1"></use>
                        </mask>
                        <use id="Mask" fill="#F7F8FA" xlink:href="#path-1"></use>
                        <g mask="url(#mask-2)" fill="#EAEBED" fill-rule="nonzero" id="Shape">
                            <g transform="translate(169.000000, 55.000000)">
                                <path d="M125.854079,108.493995 L117.29859,108.493995 L117.29859,51.4263825 C117.29859,50.5578937 116.446198,49.6894048 116.446198,49.6894048 L96.7464755,29.8246964 L96.7464755,9.94419725 C96.7464755,7.35452143 95.0416918,5.61754374 92.4687312,5.61754374 C89.8957706,5.61754374 88.1909869,7.33873072 88.1909869,9.94419725 L88.1909869,21.1871801 L68.491264,1.29089023 C66.7706953,-0.430296745 64.2135197,-0.430296745 62.492951,1.29089023 L13.6856248,49.7051955 C12.8332329,50.5736844 12.8332329,51.4421732 12.8332329,52.2948714 L12.8332329,109.346693 L4.27774431,109.346693 C1.70478371,109.346693 0,111.06788 0,113.673346 C0,116.263022 1.70478371,118 4.27774431,118 L126.722256,118 C129.295216,118 131,116.278813 131,113.673346 C131,111.083671 128.427039,108.493995 125.854079,108.493995 Z M65.0659116,24.629554 C69.8014219,24.629554 73.6214002,28.4982771 73.6214002,33.2670704 C73.6214002,38.0358636 69.7856368,41.9045867 65.0659116,41.9045867 C60.3461863,41.9045867 56.4946379,38.0516543 56.4946379,33.2828611 C56.4946379,28.5140678 60.3304013,24.629554 65.0659116,24.629554 Z M77.3624533,108.493995 L52.5168093,108.493995 L52.5168093,70.4383928 L77.3624533,70.4383928 L77.3624533,108.493995 Z"></path>
                            </g>
                        </g>
                    </g>
                </g>
            </g>
        </g>
    </g>
</svg>