<?xml version="1.0" encoding="UTF-8" standalone="no"?>
<svg width="283px" height="160px" viewBox="0 0 283 160" version="1.1" xmlns="http://www.w3.org/2000/svg" xmlns:xlink="http://www.w3.org/1999/xlink">
    <!-- Generator: Sketch 50.2 (55047) - http://www.bohemiancoding.com/sketch -->
    <title>架构-2</title>
    <desc>Created with Sketch.</desc>
    <defs>
        <rect id="path-1" x="0" y="0" width="283" height="160"></rect>
    </defs>
    <g id="官网" stroke="none" stroke-width="1" fill="none" fill-rule="evenodd">
        <g id="PAAS-2-Copy" transform="translate(-361.000000, -1265.000000)">
            <g id="Group-60" transform="translate(361.000000, 1177.000000)">
                <g id="Group-52" transform="translate(0.000000, 88.000000)">
                    <g id="架构-2">
                        <mask id="mask-2" fill="white">
                            <use xlink:href="#path-1"></use>
                        </mask>
                        <use id="Mask" fill="#F7F8FA" xlink:href="#path-1"></use>
                        <g opacity="0.8" mask="url(#mask-2)" fill="#E7E8E9" fill-rule="nonzero" id="Shape">
                            <g transform="translate(163.000000, 53.000000)">
                                <path d="M117.9,78.6 L101.306667,78.6 L84.7133333,50.6533333 C89.08,48.9066667 91.7,43.6666667 91.7,39.3 L91.7,13.1 C91.7,6.11333333 85.5866667,0 78.6,0 L52.4,0 C45.4133333,0 39.3,6.11333333 39.3,13.1 L39.3,39.3 C39.3,43.6666667 41.92,48.0333333 45.4133333,50.6533333 L29.6933333,78.6 L13.1,78.6 C6.11333333,78.6 0,84.7133333 0,91.7 L0,117.9 C0,124.886667 6.11333333,131 13.1,131 L39.3,131 C46.2866667,131 52.4,124.886667 52.4,117.9 L52.4,109.166667 L78.6,109.166667 L78.6,117.9 C78.6,124.886667 84.7133333,131 91.7,131 L117.9,131 C124.886667,131 131,124.886667 131,117.9 L131,91.7 C131,84.7133333 124.886667,78.6 117.9,78.6 Z M52.375,99 L52.375,91.1666667 C52.375,84.2037037 47.125,78.9814815 41,78.1111111 L55.875,52 L75.125,52 L90,78.1111111 C83,78.9814815 77.75,84.2037037 77.75,91.1666667 L77.75,99 L52.375,99 Z"></path>
                            </g>
                        </g>
                    </g>
                </g>
            </g>
        </g>
    </g>
</svg>