<?xml version="1.0" encoding="UTF-8" standalone="no"?>
<svg width="283px" height="160px" viewBox="0 0 283 160" version="1.1" xmlns="http://www.w3.org/2000/svg" xmlns:xlink="http://www.w3.org/1999/xlink">
    <!-- Generator: Sketch 50.2 (55047) - http://www.bohemiancoding.com/sketch -->
    <title>容器-3</title>
    <desc>Created with Sketch.</desc>
    <defs>
        <rect id="path-1" x="0" y="0" width="282.658836" height="160"></rect>
    </defs>
    <g id="官网" stroke="none" stroke-width="1" fill="none" fill-rule="evenodd">
        <g id="PAAS-2-Copy" transform="translate(-667.000000, -1265.000000)">
            <g id="Group-60" transform="translate(361.000000, 1177.000000)">
                <g id="Group-53" transform="translate(306.000000, 88.000000)">
                    <g id="容器-3">
                        <mask id="mask-2" fill="white">
                            <use xlink:href="#path-1"></use>
                        </mask>
                        <use id="Mask" fill="#F7F8FA" xlink:href="#path-1"></use>
                        <g id="容器组" mask="url(#mask-2)" fill="#EAEBED" fill-rule="nonzero">
                            <g transform="translate(187.000000, 61.000000)" id="Shape">
                                <path d="M101.037756,59.4413488 L5.94831402,59.4413488 C2.67465174,59.4413488 0,62.1160005 0,65.3896628 L0,101.051686 C0,104.325348 2.67465174,107 5.94831402,107 L101.051686,107 C104.325348,107 107,104.325348 107,101.051686 L107,65.3896628 C106.98607,62.1160005 104.311418,59.4413488 101.037756,59.4413488 Z M23.7793256,95.103372 C17.2180706,95.103372 11.896628,89.7819294 11.896628,83.2206744 C11.896628,76.6594193 17.2180706,71.3379768 23.7793256,71.3379768 C30.3405807,71.3379768 35.6620232,76.6594193 35.6620232,83.2206744 C35.6620232,89.7819294 30.3405807,95.103372 23.7793256,95.103372 Z M101.037756,1.97963996e-15 L5.94831402,1.97963996e-15 C2.67465174,1.97963996e-15 0,2.67465174 0,5.94831402 L0,41.6103372 C0,44.8839995 2.67465174,47.5586512 5.94831402,47.5586512 L101.051686,47.5586512 C104.325348,47.5586512 107,44.8839995 107,41.6103372 L107,5.94831402 C106.98607,2.67465174 104.311418,0 101.037756,0 Z M23.7793256,35.6620232 C17.2180706,35.6620232 11.896628,30.3405807 11.896628,23.7793256 C11.896628,17.2180706 17.2180706,11.896628 23.7793256,11.896628 C30.3405807,11.896628 35.6620232,17.2180706 35.6620232,23.7793256 C35.6620232,30.3405807 30.3405807,35.6620232 23.7793256,35.6620232 Z"></path>
                            </g>
                        </g>
                    </g>
                </g>
            </g>
        </g>
    </g>
</svg>