<?xml version="1.0" encoding="UTF-8" standalone="no"?>
<svg width="283px" height="160px" viewBox="0 0 283 160" version="1.1" xmlns="http://www.w3.org/2000/svg" xmlns:xlink="http://www.w3.org/1999/xlink">
    <!-- Generator: Sketch 50.2 (55047) - http://www.bohemiancoding.com/sketch -->
    <title>devops</title>
    <desc>Created with Sketch.</desc>
    <defs>
        <rect id="path-1" x="0" y="0" width="283" height="160"></rect>
    </defs>
    <g id="官网" stroke="none" stroke-width="1" fill="none" fill-rule="evenodd">
        <g id="PAAS-2-Copy" transform="translate(-1278.000000, -1443.000000)">
            <g id="Group-60" transform="translate(361.000000, 1177.000000)">
                <g id="Group-56" transform="translate(917.000000, 266.000000)">
                    <g id="devops">
                        <mask id="mask-2" fill="white">
                            <use xlink:href="#path-1"></use>
                        </mask>
                        <use id="Mask" fill="#F7F8FA" xlink:href="#path-1"></use>
                        <g mask="url(#mask-2)" fill="#EAEBED" fill-rule="nonzero" id="Shape">
                            <g transform="translate(178.000000, 50.000000)">
                                <path d="M30,30 L49.2877733,102 L102,49.2919663 L30,30 Z M47.9040853,47.9040853 L77.5338788,55.8456163 L55.8456163,77.5338788 L47.9040853,47.9040853 Z"></path>
                                <path d="M7.32233047,42.6776695 C17.0854378,52.4407768 32.9145622,52.4407768 42.6776695,42.6776695 C52.4407768,32.9145622 52.4407768,17.0854378 42.6776695,7.32233047 C32.9145622,-2.44077682 17.0854378,-2.44077682 7.32233047,7.32233047 C-2.44077682,17.0854378 -2.44077682,32.9145622 7.32233047,42.6776695 Z"></path>
                                <path d="M92.3940671,58.6059328 C96.18313,62.3954275 101.706092,63.8755256 106.88237,62.4886516 C112.058647,61.1017776 116.101778,57.0586473 117.488652,51.88237 C118.875526,46.7060926 117.395428,41.1831301 113.605933,37.3940672 C109.81687,33.6045725 104.293908,32.1244744 99.1176301,33.5113484 C93.9413527,34.8982224 89.8982224,38.9413527 88.5113484,44.11763 C87.1244744,49.2939074 88.6045725,54.8168699 92.3940671,58.6059328 Z"></path>
                                <path d="M35.2976222,121.849312 C43.6937988,130.050229 57.3066909,130.050229 65.7028675,121.849312 C74.0990442,113.648396 74.0990442,100.352083 65.7028675,92.1511659 C60.2714936,86.8461029 52.3550935,84.77424 44.9356987,86.7160278 C37.5163039,88.6578156 31.7210969,94.3182504 29.7330761,101.565101 C27.7450552,108.811952 29.8662482,116.54425 35.2976222,121.849312 Z"></path>
                            </g>
                        </g>
                    </g>
                </g>
            </g>
        </g>
    </g>
</svg>