<?xml version="1.0" encoding="UTF-8" standalone="no"?>
<svg width="283px" height="160px" viewBox="0 0 283 160" version="1.1" xmlns="http://www.w3.org/2000/svg" xmlns:xlink="http://www.w3.org/1999/xlink">
    <!-- Generator: Sketch 50.2 (55047) - http://www.bohemiancoding.com/sketch -->
    <title>微服务管理</title>
    <desc>Created with Sketch.</desc>
    <defs>
        <rect id="path-1" x="0" y="0" width="282.658836" height="160"></rect>
    </defs>
    <g id="官网" stroke="none" stroke-width="1" fill="none" fill-rule="evenodd">
        <g id="PAAS-2-Copy" transform="translate(-972.000000, -1443.000000)">
            <g id="Group-60" transform="translate(361.000000, 1177.000000)">
                <g id="Group-57" transform="translate(611.000000, 266.000000)">
                    <g id="微服务管理">
                        <mask id="mask-2" fill="white">
                            <use xlink:href="#path-1"></use>
                        </mask>
                        <use id="Mask" fill="#F7F8FA" xlink:href="#path-1"></use>
                        <g mask="url(#mask-2)" fill="#EAEBED" fill-rule="nonzero" id="Shape">
                            <g transform="translate(177.000000, 55.000000)">
                                <path d="M74.9166667,54.25 L96.875,54.25 C111.858333,54.25 124,42.1083333 124,27.125 C124,12.1416667 111.858333,0 96.875,0 C81.8916667,0 69.75,12.1416667 69.75,27.125 L69.75,49.0833333 C69.75,51.925 72.075,54.25 74.9166667,54.25 Z M27.125,0 C12.1416667,0 0,12.1416667 0,27.125 C0,42.1083333 12.1416667,54.25 27.125,54.25 L49.0833333,54.25 C51.925,54.25 54.25,51.925 54.25,49.0833333 L54.25,27.125 C54.25,12.1416667 42.1083333,0 27.125,0 Z M49.0833333,69.75 L27.125,69.75 C12.1416667,69.75 0,81.8916667 0,96.875 C0,111.858333 12.1416667,124 27.125,124 C42.1083333,124 54.25,111.858333 54.25,96.875 L54.25,74.9166667 C54.25,72.075 51.925,69.75 49.0833333,69.75 Z M96.875,69.75 L74.9166667,69.75 C72.075,69.75 69.75,72.075 69.75,74.9166667 L69.75,96.875 C69.75,111.858333 81.8916667,124 96.875,124 C111.858333,124 124,111.858333 124,96.875 C124,81.8916667 111.858333,69.75 96.875,69.75 Z M96.875,113.666667 C87.575,113.666667 80.0833333,106.175 80.0833333,96.875 L80.0833333,80.0833333 L96.875,80.0833333 C106.175,80.0833333 113.666667,87.575 113.666667,96.875 C113.666667,106.175 106.175,113.666667 96.875,113.666667 Z"></path>
                            </g>
                        </g>
                    </g>
                </g>
            </g>
        </g>
    </g>
</svg>