<?xml version="1.0" encoding="UTF-8" standalone="no"?>
<svg width="550px" height="371px" viewBox="0 0 550 371" version="1.1" xmlns="http://www.w3.org/2000/svg" xmlns:xlink="http://www.w3.org/1999/xlink">
    <!-- Generator: Sketch 50.2 (55047) - http://www.bohemiancoding.com/sketch -->
    <title>03</title>
    <desc>Created with Sketch.</desc>
    <defs>
        <path d="M436,1957 C478.5,1957 510.5,1975.5 532.5,2013.5 C551.5,2045.5 561,2088.5 561,2142.5 C561,2196.5 551.5,2239.5 532.5,2271.5 C510.5,2309 478.5,2328 436,2328 C393,2328 361,2309 339.5,2271.5 C320.5,2239.5 311,2196.5 311,2142.5 C311,2088.5 320.5,2045.5 339.5,2013.5 C361,1975.5 393,1957 436,1957 Z M436,1992 C404,1992 381,2009 367,2043.5 C357,2067.5 352,2100.5 352,2142.5 C352,2184 357,2217 367,2241.5 C381,2275.5 404,2293 436,2293 C468,2293 491,2275.5 505,2241.5 C515,2217 520.5,2184 520.5,2142.5 C520.5,2100.5 515,2067.5 505,2043.5 C491,2009 468,1992 436,1992 Z M739.5,1957 C773.5,1957 801.5,1965.5 822.5,1983 C843,2000.5 853.5,2024 853.5,2054 C853.5,2094 834,2121 795,2134 C816,2140.5 832,2150.5 843,2164.5 C855,2178.5 861,2196 861,2217 C861,2249.5 849.5,2276 827,2296.5 C804,2317.5 774,2328 737,2328 C703,2328 675.5,2319 654,2302 C628.5,2281 614.5,2250.5 611.5,2210.5 L653,2210.5 C654,2238.5 663.5,2260 681,2274.5 C696,2286.5 714.5,2293 737,2293 C762.5,2293 783,2285.5 798.5,2271 C812.5,2257 820,2239.5 820,2218.5 C820,2197 813,2180.5 799,2168.5 C785,2156.5 766,2151 741,2151 L712,2151 L712,2119 L739.5,2119 C763.5,2119 781.5,2113.5 794,2103 C806.5,2092 813,2076.5 813,2056.5 C813,2036.5 806.5,2021 794.5,2010 C781.5,1998 763,1992.5 740,1992.5 C716,1992.5 697.5,1998.5 684,2011.5 C670,2024.5 662,2043 659.5,2067 L619,2067 C622,2032.5 635,2005.5 657,1986 C678,1966.5 705.5,1957 739.5,1957 Z" id="path-1"></path>
    </defs>
    <g id="官网" stroke="none" stroke-width="1" fill="none" fill-rule="evenodd" opacity="0.151834239">
        <g id="PAAS" transform="translate(-311.000000, -1957.000000)">
            <g id="03">
                <use fill="#000000" xlink:href="#path-1"></use>
                <use fill="#A7CDC8" xlink:href="#path-1"></use>
            </g>
        </g>
    </g>
</svg>