<?xml version="1.0" encoding="UTF-8" standalone="no"?>
<svg width="564px" height="371px" viewBox="0 0 564 371" version="1.1" xmlns="http://www.w3.org/2000/svg" xmlns:xlink="http://www.w3.org/1999/xlink">
    <!-- Generator: Sketch 50.2 (55047) - http://www.bohemiancoding.com/sketch -->
    <title>04</title>
    <desc>Created with Sketch.</desc>
    <defs>
        <path d="M1175,2494 C1217.5,2494 1249.5,2512.5 1271.5,2550.5 C1290.5,2582.5 1300,2625.5 1300,2679.5 C1300,2733.5 1290.5,2776.5 1271.5,2808.5 C1249.5,2846 1217.5,2865 1175,2865 C1132,2865 1100,2846 1078.5,2808.5 C1059.5,2776.5 1050,2733.5 1050,2679.5 C1050,2625.5 1059.5,2582.5 1078.5,2550.5 C1100,2512.5 1132,2494 1175,2494 Z M1175,2529 C1143,2529 1120,2546 1106,2580.5 C1096,2604.5 1091,2637.5 1091,2679.5 C1091,2721 1096,2754 1106,2778.5 C1120,2812.5 1143,2830 1175,2830 C1207,2830 1230,2812.5 1244,2778.5 C1254,2754 1259.5,2721 1259.5,2679.5 C1259.5,2637.5 1254,2604.5 1244,2580.5 C1230,2546 1207,2529 1175,2529 Z M1517,2501 L1555.5,2501 L1555.5,2743.5 L1613.5,2743.5 L1613.5,2777 L1555.5,2777 L1555.5,2858 L1516.5,2858 L1516.5,2777 L1337,2777 L1337,2738 L1517,2501 Z M1515,2554.5 L1371.5,2743.5 L1516.5,2743.5 L1516.5,2554.5 L1515,2554.5 Z" id="path-1"></path>
    </defs>
    <g id="官网" stroke="none" stroke-width="1" fill="none" fill-rule="evenodd" opacity="0.15">
        <g id="PAAS" transform="translate(-1050.000000, -2494.000000)">
            <g id="04">
                <use fill="#000000" xlink:href="#path-1"></use>
                <use fill="#A7CDC8" xlink:href="#path-1"></use>
            </g>
        </g>
    </g>
</svg>