<?xml version="1.0" encoding="UTF-8" standalone="no"?>
<svg width="422px" height="371px" viewBox="0 0 422 371" version="1.1" xmlns="http://www.w3.org/2000/svg" xmlns:xlink="http://www.w3.org/1999/xlink">
    <!-- Generator: Sketch 50.2 (55047) - http://www.bohemiancoding.com/sketch -->
    <title>01</title>
    <desc>Created with Sketch.</desc>
    <defs>
        <path d="M436,873 C478.5,873 510.5,891.5 532.5,929.5 C551.5,961.5 561,1004.5 561,1058.5 C561,1112.5 551.5,1155.5 532.5,1187.5 C510.5,1225 478.5,1244 436,1244 C393,1244 361,1225 339.5,1187.5 C320.5,1155.5 311,1112.5 311,1058.5 C311,1004.5 320.5,961.5 339.5,929.5 C361,891.5 393,873 436,873 Z M436,908 C404,908 381,925 367,959.5 C357,983.5 352,1016.5 352,1058.5 C352,1100 357,1133 367,1157.5 C381,1191.5 404,1209 436,1209 C468,1209 491,1191.5 505,1157.5 C515,1133 520.5,1100 520.5,1058.5 C520.5,1016.5 515,983.5 505,959.5 C491,925 468,908 436,908 Z M701,880 L733,880 L733,1237 L692,1237 L692,930 C669.5,953 641.5,969 608,979 L608,938 C624,933.5 641,926.5 658,916.5 C675,905.5 689,893.5 701,880 Z" id="path-1"></path>
    </defs>
    <g id="官网" stroke="none" stroke-width="1" fill="none" fill-rule="evenodd" opacity="0.15">
        <g id="PAAS" transform="translate(-311.000000, -873.000000)">
            <g id="01">
                <use fill="#000000" xlink:href="#path-1"></use>
                <use fill="#A7CDC8" xlink:href="#path-1"></use>
            </g>
        </g>
    </g>
</svg>