<?xml version="1.0" encoding="UTF-8" standalone="no"?>
<svg width="550px" height="371px" viewBox="0 0 550 371" version="1.1" xmlns="http://www.w3.org/2000/svg" xmlns:xlink="http://www.w3.org/1999/xlink">
    <!-- Generator: Sketch 50.2 (55047) - http://www.bohemiancoding.com/sketch -->
    <title>05</title>
    <desc>Created with Sketch.</desc>
    <defs>
        <path d="M435,3042 C477.5,3042 509.5,3060.5 531.5,3098.5 C550.5,3130.5 560,3173.5 560,3227.5 C560,3281.5 550.5,3324.5 531.5,3356.5 C509.5,3394 477.5,3413 435,3413 C392,3413 360,3394 338.5,3356.5 C319.5,3324.5 310,3281.5 310,3227.5 C310,3173.5 319.5,3130.5 338.5,3098.5 C360,3060.5 392,3042 435,3042 Z M435,3077 C403,3077 380,3094 366,3128.5 C356,3152.5 351,3185.5 351,3227.5 C351,3269 356,3302 366,3326.5 C380,3360.5 403,3378 435,3378 C467,3378 490,3360.5 504,3326.5 C514,3302 519.5,3269 519.5,3227.5 C519.5,3185.5 514,3152.5 504,3128.5 C490,3094 467,3077 435,3077 Z M637.5,3049 L845,3049 L845,3085.5 L671,3085.5 L659,3205 L661,3205 C671,3193 684,3184 699.5,3178 C713.5,3172 728.5,3169.5 745,3169.5 C779,3169.5 806.5,3180 827.5,3201.5 C848.5,3223.5 859.5,3253.5 859.5,3292 C859.5,3328 846.5,3357.5 821,3380.5 C797,3402 767,3413 732,3413 C700.5,3413 673.5,3404.5 651.5,3387.5 C626.5,3368.5 613,3342.5 610.5,3310 L651,3310 C653,3332.5 662,3350 678,3362 C692,3372.5 710.5,3378 732.5,3378 C757.5,3378 778,3370 794.5,3354 C810.5,3338 819,3317.5 819,3292.5 C819,3264 811,3242 796,3226.5 C781.5,3210.5 761,3203 735,3203 C718,3203 703,3206.5 689.5,3214 C675.5,3221 664.5,3232 657.5,3246 L618.5,3246 L637.5,3049 Z" id="path-1"></path>
    </defs>
    <g id="官网" stroke="none" stroke-width="1" fill="none" fill-rule="evenodd" opacity="0.15">
        <g id="PAAS" transform="translate(-310.000000, -3042.000000)">
            <g id="05">
                <use fill="#000000" xlink:href="#path-1"></use>
                <use fill="#A7CDC8" xlink:href="#path-1"></use>
            </g>
        </g>
    </g>
</svg>