<?xml version="1.0" encoding="UTF-8" standalone="no"?>
<svg width="544px" height="371px" viewBox="0 0 544 371" version="1.1" xmlns="http://www.w3.org/2000/svg" xmlns:xlink="http://www.w3.org/1999/xlink">
    <!-- Generator: Sketch 50.2 (55047) - http://www.bohemiancoding.com/sketch -->
    <title>02</title>
    <desc>Created with Sketch.</desc>
    <defs>
        <path d="M1175,1415 C1217.5,1415 1249.5,1433.5 1271.5,1471.5 C1290.5,1503.5 1300,1546.5 1300,1600.5 C1300,1654.5 1290.5,1697.5 1271.5,1729.5 C1249.5,1767 1217.5,1786 1175,1786 C1132,1786 1100,1767 1078.5,1729.5 C1059.5,1697.5 1050,1654.5 1050,1600.5 C1050,1546.5 1059.5,1503.5 1078.5,1471.5 C1100,1433.5 1132,1415 1175,1415 Z M1175,1450 C1143,1450 1120,1467 1106,1501.5 C1096,1525.5 1091,1558.5 1091,1600.5 C1091,1642 1096,1675 1106,1699.5 C1120,1733.5 1143,1751 1175,1751 C1207,1751 1230,1733.5 1244,1699.5 C1254,1675 1259.5,1642 1259.5,1600.5 C1259.5,1558.5 1254,1525.5 1244,1501.5 C1230,1467 1207,1450 1175,1450 Z M1480,1415 C1513,1415 1540,1424.5 1561.5,1443.5 C1582.5,1462.5 1593.5,1488 1593.5,1519 C1593.5,1550 1581.5,1578 1558.5,1603 C1546,1616 1521.5,1635.5 1484.5,1660.5 C1439,1691 1413,1718.5 1406.5,1742.5 L1594,1742.5 L1594,1779 L1356,1779 C1356,1746.5 1367.5,1717 1391.5,1690.5 C1405.5,1674.5 1431,1653 1469,1627 C1497,1607 1515.5,1592.5 1525,1582.5 C1543,1563 1552.5,1541.5 1552.5,1518.5 C1552.5,1496.5 1546,1480 1533,1468 C1520,1456 1501.5,1450 1478.5,1450 C1454,1450 1435,1458 1422,1475 C1408,1491 1400.5,1515 1400,1546.5 L1359,1546.5 C1359,1506.5 1370.5,1474.5 1392.5,1451 C1414.5,1427 1444,1415 1480,1415 Z" id="path-1"></path>
    </defs>
    <g id="官网" stroke="none" stroke-width="1" fill="none" fill-rule="evenodd" opacity="0.15">
        <g id="PAAS" transform="translate(-1050.000000, -1415.000000)">
            <g id="02">
                <use fill="#000000" xlink:href="#path-1"></use>
                <use fill="#A7CDC8" xlink:href="#path-1"></use>
            </g>
        </g>
    </g>
</svg>