<?xml version="1.0" encoding="UTF-8" standalone="no"?>
<svg width="283px" height="275px" viewBox="0 0 283 275" version="1.1" xmlns="http://www.w3.org/2000/svg" xmlns:xlink="http://www.w3.org/1999/xlink">
    <!-- Generator: Sketch 50.2 (55047) - http://www.bohemiancoding.com/sketch -->
    <title>Group 24</title>
    <desc>Created with Sketch.</desc>
    <defs>
        <linearGradient x1="25.1456096%" y1="0%" x2="88.2551937%" y2="93.7178609%" id="linearGradient-1">
            <stop stop-color="#56BCF7" offset="0%"></stop>
            <stop stop-color="#2175AA" offset="100%"></stop>
        </linearGradient>
        <linearGradient x1="10.1021795%" y1="15.9137832%" x2="100%" y2="83.4948138%" id="linearGradient-2">
            <stop stop-color="#7FD1FF" offset="0%"></stop>
            <stop stop-color="#00A4FF" offset="100%"></stop>
        </linearGradient>
    </defs>
    <g id="官网" stroke="none" stroke-width="1" fill="none" fill-rule="evenodd">
        <g id="PAAS-2-Copy" transform="translate(-497.000000, -4780.000000)">
            <g id="Group-44" transform="translate(498.000000, 4781.000000)">
                <g id="Group-24" transform="translate(140.500000, 136.500000) scale(-1, 1) translate(-140.500000, -136.500000) ">
                    <polygon id="Path-19" stroke="#79D0FF" stroke-width="2" points="82.6121049 22 34 50.2728232 34 107.964382 82.6121049 136 132 107.964382 132 50.2728232"></polygon>
                    <polygon id="Path-19-Copy-2" stroke="#79D0FF" stroke-width="2" points="139.612105 120 91 148.272823 91 205.964382 139.612105 234 189 205.964382 189 148.272823"></polygon>
                    <g id="Group-15" transform="translate(139.000000, 115.500000) rotate(-360.000000) translate(-139.000000, -115.500000) translate(111.000000, 91.000000)">
                        <polygon id="Path-42" fill="#329EE2" points="2.73170732 14.6064143 8.37373667 11.1621622 9.56097561 15.2162162"></polygon>
                        <path d="M11.5766398,6.73635268 L22.8605225,0.263121297 C27.4423498,-0.505930481 31.7266745,0.699905513 35.7134967,3.88062928 C39.7003189,7.06135304 43.2390532,12.140695 46.3296997,19.1186552 C50.5234915,22.224693 53.2457365,25.5556236 54.4964346,29.1114468 C56.7260361,36.2097628 56.4759702,40.8245074 53.7462367,42.9556809 L40.9054322,48.6754895 C44.5807818,44.8916605 45.4826426,40.7864904 43.6110148,36.3599793 C42.3358584,32.3303085 39.5182275,28.8718729 35.1581219,25.9846725 C33.3930962,20.1585903 30.5058592,15.2369941 26.496411,11.2198841 C20.3654365,6.70045092 15.3921794,5.20594046 11.5766398,6.73635268 Z" id="Path-41" fill="url(#linearGradient-1)"></path>
                        <path d="M7.53265661,13.961127 C2.51088554,12.840641 5.74765064e-14,14.5087031 0,18.9653136 C-5.7288223e-14,23.421924 1.7057081,27.1764193 5.11712429,30.2287993 L37.16608,48.9564188 C39.8266729,49.1677216 41.8326384,48.6106511 43.1839766,47.2852072 C44.5353148,45.9597634 45.1616951,43.934929 45.0631175,41.2107043 C44.5916182,37.7833303 43.6689924,34.872247 42.2952402,32.4774542 C39.9441733,28.5485552 37.5306729,26.2728135 35.0547392,25.6502292 C32.0167274,15.7088685 27.0663137,9.47099078 20.203498,6.9365962 C12.5743409,4.07587386 8.35072712,6.41738414 7.53265661,13.961127 Z" id="Path-39" fill="url(#linearGradient-2)"></path>
                    </g>
                    <polygon id="Path-19-Copy" stroke="#79D0FF" stroke-width="2" points="196.612105 22 148 50.2728232 148 107.964382 196.612105 136 246 107.964382 246 50.2728232"></polygon>
                    <polygon id="Path-19-Copy-3" stroke="#79D0FF" stroke-width="2" fill-opacity="0.1" fill="#00A4FF" points="140.044817 45 83 78.2329677 83 146.045853 140.044817 179 198 146.045853 198 78.2329677"></polygon>
                    <path d="M142,176.718826 L142,112.668419 L198,79.2384039 L198,144.881873 L142,176.718826 Z" id="Path-20" stroke="#79D0FF" stroke-width="2" fill-opacity="0.2" fill="#00A4FF"></path>
                    <path d="M81,79 L115,99" id="Path-21" stroke="#79D0FF" stroke-width="2"></path>
                    <path d="M0,30 L34,50" id="Path-21-Copy" stroke-opacity="0.316293025" stroke="#2E9EF7" stroke-width="2" stroke-linecap="round" stroke-dasharray="3"></path>
                    <path d="M246,52 L281,33" id="Path-22" stroke-opacity="0.316293025" stroke="#2E9EF7" stroke-width="2" stroke-linecap="round" stroke-dasharray="3"></path>
                    <path d="M138.5,234 L138.5,273" id="Path-23" stroke-opacity="0.316293025" stroke="#2E9EF7" stroke-width="2" stroke-linecap="round" stroke-dasharray="3"></path>
                    <path d="M46.5,99 L46.5,116.858686" id="Path-24" stroke="#79D0FF" stroke-width="2"></path>
                    <path d="M46.5,90 L46.5,96.8308075" id="Path-24-Copy" stroke="#79D0FF" stroke-width="2"></path>
                    <path d="M46.5,84 L46.5,86.8308075" id="Path-24-Copy-2" stroke="#79D0FF" stroke-width="2"></path>
                    <g id="Group-11" opacity="0.383099724" transform="translate(16.000000, 0.000000)" stroke="#2E9EF7" stroke-width="2">
                        <polygon id="Path-25" fill-opacity="0.124518795" fill="#2E9EF7" points="12.3553098 0 0 7.53577491 0 22.1051593 12.6609933 29.6464223 25.8528705 22.1051593 25.8528705 7.53577491"></polygon>
                        <polyline id="Path-26" points="0 6.81818182 13.1030155 14.5981353 25.4649244 6.81818182"></polyline>
                        <path d="M12.8387583,14.5173136 L12.8387583,29.0347608" id="Path-27"></path>
                    </g>
                    <g id="Group-11-Copy" opacity="0.703756893" transform="translate(209.000000, 155.000000)" stroke="#79D0FF" stroke-width="2">
                        <polygon id="Path-25" fill-opacity="0.124518795" fill="#2E9EF7" points="12.3553098 0 0 7.53577491 0 22.1051593 12.6609933 29.6464223 25.8528705 22.1051593 25.8528705 7.53577491"></polygon>
                        <polyline id="Path-26" points="0 6.81818182 13.1030155 14.5981353 25.4649244 6.81818182"></polyline>
                        <path d="M12.8387583,14.5173136 L12.8387583,29.0347608" id="Path-27"></path>
                    </g>
                </g>
            </g>
        </g>
    </g>
</svg>