<?xml version="1.0" encoding="UTF-8" standalone="no"?>
<svg width="472px" height="327px" viewBox="0 0 472 327" version="1.1" xmlns="http://www.w3.org/2000/svg" xmlns:xlink="http://www.w3.org/1999/xlink">
    <!-- Generator: Sketch 50.2 (55047) - http://www.bohemiancoding.com/sketch -->
    <title>Group 82</title>
    <desc>Created with Sketch.</desc>
    <defs>
        <circle id="path-1" cx="29.5" cy="29.5" r="29.5"></circle>
        <filter x="-7.3%" y="-7.3%" width="114.6%" height="114.6%" filterUnits="objectBoundingBox" id="filter-3">
            <feMorphology radius="3" operator="erode" in="SourceAlpha" result="shadowSpreadInner1"></feMorphology>
            <feGaussianBlur stdDeviation="2.5" in="shadowSpreadInner1" result="shadowBlurInner1"></feGaussianBlur>
            <feOffset dx="0" dy="0" in="shadowBlurInner1" result="shadowOffsetInner1"></feOffset>
            <feComposite in="shadowOffsetInner1" in2="SourceAlpha" operator="arithmetic" k2="-1" k3="1" result="shadowInnerInner1"></feComposite>
            <feColorMatrix values="0 0 0 0 0   0 0 0 0 0.811764706   0 0 0 0 0.462745098  0 0 0 0.15 0" type="matrix" in="shadowInnerInner1"></feColorMatrix>
        </filter>
        <radialGradient cx="50%" cy="50%" fx="50%" fy="50%" r="64.8777129%" id="radialGradient-4">
            <stop stop-color="#FFFFFF" stop-opacity="0" offset="0%"></stop>
            <stop stop-color="#FFFFFF" stop-opacity="0.271427763" offset="100%"></stop>
        </radialGradient>
        <circle id="path-5" cx="25.5" cy="25.5" r="25.5"></circle>
        <filter x="-8.4%" y="-8.4%" width="116.9%" height="116.9%" filterUnits="objectBoundingBox" id="filter-7">
            <feMorphology radius="3" operator="erode" in="SourceAlpha" result="shadowSpreadInner1"></feMorphology>
            <feGaussianBlur stdDeviation="2.5" in="shadowSpreadInner1" result="shadowBlurInner1"></feGaussianBlur>
            <feOffset dx="0" dy="0" in="shadowBlurInner1" result="shadowOffsetInner1"></feOffset>
            <feComposite in="shadowOffsetInner1" in2="SourceAlpha" operator="arithmetic" k2="-1" k3="1" result="shadowInnerInner1"></feComposite>
            <feColorMatrix values="0 0 0 0 0   0 0 0 0 0.811764706   0 0 0 0 0.462745098  0 0 0 0.1 0" type="matrix" in="shadowInnerInner1"></feColorMatrix>
        </filter>
        <circle id="path-8" cx="25" cy="25" r="25"></circle>
        <filter x="-8.0%" y="-8.0%" width="116.0%" height="116.0%" filterUnits="objectBoundingBox" id="filter-10">
            <feMorphology radius="3" operator="erode" in="SourceAlpha" result="shadowSpreadInner1"></feMorphology>
            <feGaussianBlur stdDeviation="2.5" in="shadowSpreadInner1" result="shadowBlurInner1"></feGaussianBlur>
            <feOffset dx="0" dy="0" in="shadowBlurInner1" result="shadowOffsetInner1"></feOffset>
            <feComposite in="shadowOffsetInner1" in2="SourceAlpha" operator="arithmetic" k2="-1" k3="1" result="shadowInnerInner1"></feComposite>
            <feColorMatrix values="0 0 0 0 0   0 0 0 0 0.811764706   0 0 0 0 0.462745098  0 0 0 0.16 0" type="matrix" in="shadowInnerInner1"></feColorMatrix>
        </filter>
        <filter x="-78.9%" y="-176.5%" width="257.9%" height="452.9%" filterUnits="objectBoundingBox" id="filter-11">
            <feGaussianBlur stdDeviation="10" in="SourceGraphic"></feGaussianBlur>
        </filter>
        <circle id="path-12" cx="9" cy="9" r="9"></circle>
        <circle id="path-14" cx="8" cy="8" r="8"></circle>
        <circle id="path-16" cx="4" cy="4" r="4"></circle>
        <circle id="path-18" cx="19" cy="19" r="19"></circle>
        <circle id="path-20" cx="19" cy="19" r="19"></circle>
        <filter x="-10.0%" y="-10.0%" width="120.0%" height="120.0%" filterUnits="objectBoundingBox" id="filter-22">
            <feMorphology radius="3" operator="erode" in="SourceAlpha" result="shadowSpreadInner1"></feMorphology>
            <feGaussianBlur stdDeviation="2" in="shadowSpreadInner1" result="shadowBlurInner1"></feGaussianBlur>
            <feOffset dx="0" dy="0" in="shadowBlurInner1" result="shadowOffsetInner1"></feOffset>
            <feComposite in="shadowOffsetInner1" in2="SourceAlpha" operator="arithmetic" k2="-1" k3="1" result="shadowInnerInner1"></feComposite>
            <feColorMatrix values="0 0 0 0 0   0 0 0 0 0.811764706   0 0 0 0 0.462745098  0 0 0 0.1 0" type="matrix" in="shadowInnerInner1"></feColorMatrix>
        </filter>
        <circle id="path-23" cx="8.5" cy="8.5" r="8.5"></circle>
        <circle id="path-25" cx="11" cy="11" r="11"></circle>
    </defs>
    <g id="官网" stroke="none" stroke-width="1" fill="none" fill-rule="evenodd">
        <g id="PAAS-2-Copy" transform="translate(-1053.000000, -3429.000000)">
            <g id="Group-30" transform="translate(388.000000, 3430.000000)">
                <g id="Group-82" transform="translate(665.000000, 0.000000)">
                    <g id="Group-39-Copy-5" opacity="0.5" transform="translate(49.000000, 266.000000)" fill="#00CF76">
                        <polygon id="Rectangle-16" points="0 0.364740586 113.5 2.22044605e-16 113.5 0.750108683 0 0.510496227"></polygon>
                        <polygon id="Rectangle-16-Copy" transform="translate(170.250000, 0.500000) scale(-1, 1) translate(-170.250000, -0.500000) " points="113.5 0.364740586 227 2.22044605e-16 227 0.750108683 113.5 0.510496227"></polygon>
                    </g>
                    <g id="Group-39-Copy-4" opacity="0.5" transform="translate(0.000000, 208.000000)" fill="#00CF76">
                        <polygon id="Rectangle-16" points="0 0.488749075 135 0 135 1 0 0.647748945"></polygon>
                    </g>
                    <g id="Group-39-Copy-3" opacity="0.5" transform="translate(19.000000, 73.000000)" fill="#00CF76">
                        <polygon id="Rectangle-16" points="0 0.364740586 113.5 2.22044605e-16 113.5 0.750108683 0 0.510496227"></polygon>
                        <polygon id="Rectangle-16-Copy" transform="translate(170.250000, 0.500000) scale(-1, 1) translate(-170.250000, -0.500000) " points="113.5 0.364740586 227 0 227 0.750108683 113.5 0.510496227"></polygon>
                    </g>
                    <g id="Group-39-Copy-8" opacity="0.144990809" transform="translate(35.000000, 17.000000)" fill="#00CF76">
                        <polygon id="Rectangle-16" points="0 1.36474059 113.5 0 113.5 2.75010868 0 1.51049623"></polygon>
                        <polygon id="Rectangle-16-Copy" transform="translate(170.250000, 1.375054) scale(-1, 1) translate(-170.250000, -1.375054) " points="113.5 1.36474059 227 0 227 2.75010868 113.5 1.51049623"></polygon>
                    </g>
                    <g id="Group-39-Copy" opacity="0.5" transform="translate(107.000000, 180.000000) rotate(90.000000) translate(-107.000000, -180.000000) translate(-38.500000, 125.500000)" fill="#00CF76">
                        <polygon id="Rectangle-16" points="0 26.0197375 87.3 25.6385542 87.3 26.4217967 0 26.1672492"></polygon>
                        <polygon id="Rectangle-16-Copy" transform="translate(130.626744, 26.138554) scale(-1, 1) translate(-130.626744, -26.138554) " points="86.9767442 26.0197375 174.276744 25.6385542 174.276744 26.4217967 86.9767442 26.1672492"></polygon>
                        <polygon id="Rectangle-16-Copy-2" transform="translate(203.346512, 108.451807) scale(-1, 1) translate(-203.346512, -108.451807) " points="174.246512 108.33299 232.446512 107.951807 232.446512 108.73505 174.246512 108.480502"></polygon>
                        <polygon id="Rectangle-16-Copy-3" transform="translate(261.900000, 0.500000) scale(-1, 1) translate(-261.900000, -0.500000) " points="232.8 0.381183244 291 -2.22044605e-16 291 0.783242522 232.8 0.528694977"></polygon>
                    </g>
                    <g id="Group-39-Copy-2" opacity="0.5" transform="translate(95.000000, 170.500000) rotate(90.000000) translate(-95.000000, -170.500000) translate(60.000000, 170.000000)" fill="#00CF76">
                        <polygon id="Rectangle-16" points="0 0.488749075 34.6634615 0 34.6634615 1 0 0.647748945"></polygon>
                        <polygon id="Rectangle-16-Copy" transform="translate(51.995192, 0.500000) scale(-1, 1) translate(-51.995192, -0.500000) " points="34.6634615 0.488749075 69.3269231 0 69.3269231 1 34.6634615 0.647748945"></polygon>
                    </g>
                    <g id="Group-39-Copy-6" opacity="0.5" transform="translate(178.500000, 182.500000) rotate(90.000000) translate(-178.500000, -182.500000) translate(130.000000, 182.000000)" fill="#00CF76">
                        <polygon id="Rectangle-16" points="0 0.488749075 48.5 0 48.5 1 0 0.647748945"></polygon>
                        <polygon id="Rectangle-16-Copy" transform="translate(72.750000, 0.500000) scale(-1, 1) translate(-72.750000, -0.500000) " points="48.5 0.488749075 97 0 97 1 48.5 0.647748945"></polygon>
                    </g>
                    <g id="Oval-39" transform="translate(174.000000, 243.000000)">
                        <mask id="mask-2" fill="white">
                            <use xlink:href="#path-1"></use>
                        </mask>
                        <g id="Mask">
                            <use fill="black" fill-opacity="1" filter="url(#filter-3)" xlink:href="#path-1"></use>
                            <use stroke-opacity="0.3" stroke="#00CF76" stroke-width="0.6" xlink:href="#path-1"></use>
                        </g>
                    </g>
                    <g id="Oval-39-Copy-3" transform="translate(399.000000, 76.000000)">
                        <mask id="mask-6" fill="white">
                            <use xlink:href="#path-5"></use>
                        </mask>
                        <g id="Mask">
                            <use fill="url(#radialGradient-4)" fill-rule="evenodd" xlink:href="#path-5"></use>
                            <use fill="black" fill-opacity="1" filter="url(#filter-7)" xlink:href="#path-5"></use>
                            <use stroke-opacity="0.4" stroke="#00CF76" stroke-width="0.6" xlink:href="#path-5"></use>
                        </g>
                    </g>
                    <g id="Oval-39-Copy-5" transform="translate(393.000000, 207.000000)">
                        <mask id="mask-9" fill="white">
                            <use xlink:href="#path-8"></use>
                        </mask>
                        <g id="Mask">
                            <use fill="url(#radialGradient-4)" fill-rule="evenodd" xlink:href="#path-8"></use>
                            <use fill="black" fill-opacity="1" filter="url(#filter-10)" xlink:href="#path-8"></use>
                            <circle stroke-opacity="0.6" stroke="#00CF76" stroke-width="1" stroke-linejoin="square" cx="25" cy="25" r="24.5"></circle>
                        </g>
                        <ellipse id="Oval-39" fill="#FFFFFF" opacity="0.724724265" filter="url(#filter-11)" mask="url(#mask-9)" cx="28" cy="51.5" rx="19" ry="8.5"></ellipse>
                    </g>
                    <g id="Oval-39-Copy-6" transform="translate(368.000000, 263.000000)">
                        <mask id="mask-13" fill="white">
                            <use xlink:href="#path-12"></use>
                        </mask>
                        <use id="Mask" stroke-opacity="0.2" stroke="#00CF76" stroke-width="0.3" xlink:href="#path-12"></use>
                    </g>
                    <g id="liveData" transform="translate(373.000000, 268.000000)" fill="#00CF76" fill-rule="nonzero" stroke="#00CF76" stroke-width="0.2">
                        <path d="M7.18258149,2.07622753 L5.56291639,2.07622753 L7.40431895,0.33246218 C7.48360247,0.257430939 7.48468151,0.134477837 7.40667182,0.0581262917 C7.32856471,-0.0184205739 7.20107177,-0.0195533863 7.12178016,0.0558528544 L4.98827319,2.07622753 L3.09229223,2.07622753 L0.958785275,0.0558528544 C0.879591008,-0.0191783863 0.752089947,-0.0182252614 0.673885509,0.0581262917 C0.59587579,0.134477845 0.596954862,0.257430947 0.676246487,0.33246218 L2.51764904,2.07622753 L0.817515877,2.07622753 C0.366755201,2.07622753 0,2.42918059 0,2.86323521 L0,7.21299231 C8.1133355e-06,7.64703129 0.366755201,8 0.817515877,8 L7.18258149,8 C7.63335026,8 8,7.64703912 8,7.21299231 L8,2.8632274 C7.99999191,2.42918059 7.63335026,2.07622753 7.18258149,2.07622753 Z M7.59703497,7.21299231 C7.59703497,7.43295324 7.41110167,7.61198444 7.18257335,7.61198444 L0.817507767,7.61198444 C0.588873979,7.61198444 0.402948791,7.43295324 0.402948791,7.21299231 L0.402948791,2.8632274 C0.402948791,2.64327431 0.588882094,2.46424309 0.817507767,2.46424309 L7.18256526,2.46424309 C7.41109358,2.46424309 7.59702688,2.64327431 7.59702688,2.8632274 L7.59702688,7.21299231 L7.59703497,7.21299231 Z M5.47669065,4.91521812 L3.04419755,3.56171539 C2.9819933,3.52731034 2.9055136,3.52731034 2.84330935,3.56171539 C2.78113538,3.59629922 2.74283977,3.66023063 2.74285715,3.72941221 L2.74285715,6.43623836 C2.74285715,6.50542988 2.78112234,6.56933556 2.84330935,6.6039352 C2.87386681,6.62088592 2.90850336,6.62981609 2.94376154,6.62983425 C2.97848336,6.62983425 3.01311619,6.62114148 3.04420565,6.6039352 L5.47669065,5.25061176 C5.53886464,5.21602793 5.57716023,5.15209653 5.57714286,5.08291496 C5.57714286,5.01371567 5.53888576,4.94980999 5.47669065,4.91521812 Z M3.14464974,6.10084477 L3.14464974,4.06480584 L4.97446203,5.08291496 L3.14464974,6.10084477 Z" id="Combined-Shape"></path>
                    </g>
                    <g id="Oval-39-Copy-7" transform="translate(456.000000, 118.000000)">
                        <mask id="mask-15" fill="white">
                            <use xlink:href="#path-14"></use>
                        </mask>
                        <circle stroke-opacity="0.2" stroke="#00CF76" stroke-width="0.5" cx="8" cy="8" r="7.75"></circle>
                    </g>
                    <g id="Oval-39-Copy-8" transform="translate(429.000000, 135.000000)">
                        <mask id="mask-17" fill="white">
                            <use xlink:href="#path-16"></use>
                        </mask>
                        <use id="Mask" stroke="#00CF76" stroke-width="0.3" fill="url(#radialGradient-4)" xlink:href="#path-16"></use>
                    </g>
                    <g id="Combined-Shape" transform="translate(417.458974, 230.645202) rotate(11.000000) translate(-417.458974, -230.645202) translate(401.958974, 213.645202)" fill="#00CF76" fill-rule="nonzero" opacity="0.983398438" stroke="#00CF76" stroke-width="0.1">
                        <path d="M10.0602811,21.1081625 C11.9777367,22.5579596 13.9343807,23.277046 15.9383195,23.277046 C17.9316163,23.277046 19.7844301,22.5657651 21.5173988,21.1287479 L20.8248392,20.2865103 L21.4760478,19.7533371 L23.1607748,21.802172 L22.5095661,22.3353454 L22.0517237,21.7785527 C20.1731968,23.3347699 18.1340871,24.1175937 15.9383195,24.1175937 C13.7317754,24.1175937 11.5914546,23.3272692 9.52558468,21.758419 L9.05118655,22.3353454 L8.39997777,21.802172 L10.0847047,19.7533371 L10.7359135,20.2865103 L10.0602811,21.1081625 Z M12.030912,29.7891295 C10.3697394,32.6344961 8.93912695,34.0179577 7.62024138,33.8863534 C6.18049982,33.7426897 5.15774595,30.6534263 4.12908996,24.2816134 C2.9085417,22.5525227 2.06654151,20.5332228 1.72748607,18.3393943 C1.71737883,18.3454651 1.44849092,18.5087325 0.920822329,18.8291964 L0.881583881,17.9417088 C0.846659165,17.1517884 1.08394899,16.3709371 1.58077037,15.6083438 C1.58658853,15.4499194 1.59582209,15.2894995 1.60849561,15.123441 C1.40510991,15.1829419 1.20309313,15.246712 0.998089085,15.3163502 L0,15.6553927 L0.32808596,14.6555603 C0.745766928,13.3826897 1.3230985,12.3367841 2.07712311,11.5170669 C2.2371667,11.3473872 2.38396613,11.2009028 2.53059755,11.0664977 C4.47324766,6.11091481 9.0807808,2.62628694 14.4477235,2.16265297 C14.6440369,2.00559779 14.8618674,1.8446598 15.1761211,1.62074833 C16.1421934,0.955927767 16.9870149,0.515143136 17.7462233,0.28900231 L18.7164726,0 L18.3962746,0.958523122 C18.3344057,1.14372961 18.2941852,1.33928342 18.2762075,1.54230004 C18.4279258,1.42129024 18.5932528,1.30384147 18.7718009,1.1901203 C19.3335948,0.832301448 20.0105338,0.580083674 20.8016038,0.433487352 L22.037216,0.204511154 L21.3341042,1.24391275 C21.0805258,1.61877505 20.9091134,1.9468026 20.8180696,2.21934465 C20.7924923,2.29591129 20.7748465,2.36886704 20.7641114,2.43773493 C21.0683466,2.41654195 21.3932925,2.44686465 21.7348371,2.54860181 C22.1460521,2.67294384 22.5833416,2.88963314 23.0349542,3.19381448 L24.4613943,4.15458606 L23.0256942,4.15458606 C26.6832782,6.37960188 29.1815349,10.1866675 29.6909203,14.5266064 C30.0592731,15.0031717 30.3422682,15.5313408 30.545625,16.1187367 C30.8803354,17.0873044 31.0291641,18.0960371 30.9952929,19.1437794 L30.9622442,20.1660804 L30.1487641,19.5437568 C29.9629288,19.4015901 29.7864345,19.2823104 29.6179506,19.1855832 C29.7242635,19.5095483 29.8109372,19.8579556 29.8809947,20.238568 C30.0333767,21.051724 30.0534761,21.7008539 29.9968439,22.2609377 C29.9911892,22.3168611 29.9869014,22.3532694 29.9780883,22.4240269 C29.9697351,22.6816814 29.8245035,22.8729272 29.6215978,22.9546673 C29.5189704,22.9960106 29.4239864,23.0047316 29.3213195,22.99821 C29.2111262,22.9912101 29.0848607,22.9636196 28.9256751,22.9165551 C28.7425203,22.8624041 28.5044678,22.7782878 28.2079184,22.6632321 C27.9120569,23.232835 27.5798777,23.7774719 27.2148345,24.2946468 C26.1811711,30.7287532 25.1555174,33.8470681 23.7088612,33.9914219 C22.3767431,34.1243465 20.9306448,32.711651 19.2481204,29.8081123 C18.1009117,30.1067008 16.9024232,30.2640987 15.6750809,30.2640987 C14.4169254,30.2640987 13.1950659,30.0991392 12.030912,29.7891295 Z M17.2158326,1.6263685 C16.7798597,1.83777288 16.3024423,2.12193632 15.7810281,2.48070546 C15.4223355,2.73636224 15.1994313,2.90318005 14.9907576,3.07669989 L14.8611517,3.184472 L14.6929108,3.19700515 C9.62180382,3.57477859 5.258822,6.86761437 3.46847199,11.5597194 L3.42222898,11.680912 L3.32478011,11.7667109 C3.17191406,11.901302 3.0186256,12.0519068 2.848378,12.2323448 C2.40245353,12.7171554 2.02228625,13.3075615 1.70645532,14.0051942 C1.83050739,13.9722034 1.95577413,13.9403682 2.08304273,13.909394 L2.82028699,13.7299659 L2.7305804,14.4818769 C2.6714391,14.9775931 2.63791838,15.3885313 2.62884056,15.7870943 L2.62525746,15.944411 L2.53559389,16.0738575 C2.31800578,16.3879872 2.16035208,16.6967996 2.0607233,17.0016782 L2.6096852,16.7825669 L2.67903518,17.4777655 C3.34126842,24.1163216 8.94764887,29.2134141 15.6750809,29.2134141 C20.7722618,29.2134141 25.3306227,26.2808803 27.4769313,21.7698978 L27.6909169,21.3201559 L28.1524688,21.5092266 C28.485518,21.6456574 28.75865,21.7512368 28.9706543,21.8258059 C28.9824394,21.4340041 28.9488748,20.980764 28.8456723,20.430033 C28.756109,19.9434617 28.6388028,19.5278031 28.4868141,19.1581293 L28.4227589,19.0023312 L28.4614123,18.8384081 C28.4785169,18.765871 28.4949259,18.6860132 28.5128642,18.5896309 C28.5202054,18.5501855 28.5276451,18.5088939 28.5368489,18.4567896 C28.5404819,18.4362224 28.5564227,18.3453995 28.5607237,18.3210794 L28.6513504,17.8086347 L29.165742,17.8941817 C29.3540542,17.9254995 29.5509733,17.9838045 29.7372422,18.0697441 C29.7963343,18.0954321 29.8555292,18.1230331 29.9148944,18.1525462 C29.8611257,17.5732298 29.7398243,17.0100023 29.5502867,16.4615282 C29.3693183,15.9388014 29.114481,15.4792169 28.7770144,15.0676467 L28.6775163,14.9463001 L28.6609444,14.7903874 C28.1724996,10.1949781 25.2750844,6.22588705 21.1106974,4.32773665 L19.7427177,3.70420399 L20.2635123,3.57428598 C19.6774146,3.52173956 19.5726569,2.62497266 19.8191495,1.88708902 C19.8280618,1.86040953 19.8374393,1.83353052 19.8472813,1.80645225 C19.6639357,1.88653057 19.4943614,1.97638441 19.3383276,2.07576568 C18.9032382,2.35288378 18.5831294,2.64264216 18.3813832,2.93148024 L17.9342312,3.57166305 L17.5080409,2.9173988 C17.3094507,2.61253413 17.2123942,2.22873193 17.2123942,1.79054568 C17.2123942,1.73559613 17.2135409,1.6808601 17.2158326,1.6263685 Z M15.8330241,19.8097867 C12.1984576,19.8097867 9.25205934,16.8697398 9.25205934,13.243008 C9.25205934,9.61627615 12.1984576,6.67622913 15.8330241,6.67622913 C19.4675905,6.67622913 22.4139886,9.61627615 22.4139886,13.243008 C22.4139886,16.8697398 19.4675905,19.8097867 15.8330241,19.8097867 Z M15.8330241,18.969239 C19.002366,18.969239 21.5716252,16.4055182 21.5716252,13.243008 C21.5716252,10.0804978 19.002366,7.51677682 15.8330241,7.51677682 C12.6636821,7.51677682 10.0944228,10.0804978 10.0944228,13.243008 C10.0944228,16.4055182 12.6636821,18.969239 15.8330241,18.969239 Z M15.7803763,10.8789676 C17.0649806,10.8789676 18.0968759,11.9086385 18.0968759,13.1904737 C18.0968759,14.4723089 17.0649806,15.5019799 15.7803763,15.5019799 C14.495772,15.5019799 13.4638767,14.4723089 13.4638767,13.1904737 C13.4638767,11.9086385 14.495772,10.8789676 15.7803763,10.8789676 Z M14.9906605,13.0084605 C15.4450495,13.0084605 15.8085607,12.6457329 15.8085607,12.1923234 C15.8085607,11.7389138 15.4450495,11.3761861 14.9906605,11.3761861 C14.5362715,11.3761861 14.1727603,11.7389138 14.1727603,12.1923234 C14.1727603,12.6457329 14.5362715,13.0084605 14.9906605,13.0084605 Z M14.6221265,26.254116 L14.6221265,25.4135683 L16.8859784,25.4135683 L16.8859784,26.254116 L14.6221265,26.254116 Z M25.3203834,26.3456705 C25.0355806,26.6195273 24.7586164,26.8720041 24.4921376,27.0987709 C24.2589365,27.2972193 24.0355227,27.4744692 23.8228117,27.6285096 C23.726452,27.7014708 23.6287639,27.7732134 23.5298088,27.8437484 C22.6941683,28.4393902 21.8018035,28.9280727 20.9094351,29.318495 C20.7039217,29.4084099 20.5078136,29.4888869 20.3231239,29.5601899 C21.7270167,31.9172221 22.875363,33.0186671 23.6040883,32.9459516 C23.6245201,32.9439128 23.6603891,32.9274324 23.7151169,32.882453 C23.7991955,32.813351 23.8949259,32.6997061 23.9969783,32.5409768 C24.2280354,32.1815973 24.4684188,31.6284137 24.7103531,30.8879566 C25.1095682,29.6661295 25.5058082,27.9593101 25.8965366,25.7738054 C25.7061999,25.9684172 25.5135808,26.1598987 25.3203834,26.3456705 Z M6.61874962,30.7828881 C6.86068385,31.5233454 7.10106721,32.0765289 7.33212443,32.4359083 C7.43417682,32.5946376 7.52990708,32.7082825 7.61398573,32.7773845 C7.66871344,32.8223639 7.70458252,32.8388443 7.72501425,32.8408831 C8.45373953,32.9135986 9.60208586,31.8121536 11.0059787,29.4551214 C10.821289,29.3838184 10.6251809,29.3033414 10.4196676,29.2134265 C9.52729908,28.8230042 8.63493426,28.3343217 7.79929383,27.7386799 C7.70033873,27.6681449 7.60265068,27.5964023 7.50629088,27.5234411 C7.29357988,27.3694007 7.07016618,27.1921508 6.83696498,26.9937025 C6.57048623,26.7669356 6.29352199,26.5144588 6.0087191,26.240602 C5.81552184,26.0548302 5.62290275,25.8633487 5.43256602,25.6687369 C5.82329451,27.8542416 6.21953435,29.5610612 6.61874962,30.7828881 Z"></path>
                    </g>
                    <g id="Oval-39-Copy" transform="translate(169.000000, 24.000000)">
                        <mask id="mask-19" fill="white">
                            <use xlink:href="#path-18"></use>
                        </mask>
                        <use id="Mask" stroke-opacity="0.6" stroke="#00CF76" stroke-width="0.6" xlink:href="#path-18"></use>
                    </g>
                    <g id="Oval-39-Copy-9" transform="translate(336.000000, 0.000000)">
                        <mask id="mask-21" fill="white">
                            <use xlink:href="#path-20"></use>
                        </mask>
                        <g id="Mask">
                            <use fill="black" fill-opacity="1" filter="url(#filter-22)" xlink:href="#path-20"></use>
                            <use stroke-opacity="0.5" stroke="#00CF76" stroke-width="0.6" xlink:href="#path-20"></use>
                        </g>
                    </g>
                    <g id="Oval-39-Copy-2" transform="translate(234.000000, 49.000000)">
                        <mask id="mask-24" fill="white">
                            <use xlink:href="#path-23"></use>
                        </mask>
                        <use id="Mask" stroke-opacity="0.4" stroke="#00CF76" stroke-width="0.6" xlink:href="#path-23"></use>
                    </g>
                    <g id="Oval-39-Copy-4" transform="translate(29.000000, 181.000000)">
                        <mask id="mask-26" fill="white">
                            <use xlink:href="#path-25"></use>
                        </mask>
                        <use id="Mask" stroke="#00CF76" stroke-width="0.6" xlink:href="#path-25"></use>
                    </g>
                    <g id="投稿" opacity="0.598517923" transform="translate(33.000000, 185.000000)" fill="#00CF76" fill-rule="nonzero">
                        <path d="M13.4408124,10.9316743 L8.69410032,10.9118744 L13.729998,6.00764988 C14.0244067,5.71543597 14.0244067,5.23982483 13.729998,4.94733515 L8.96638045,0.219269031 C8.67197176,-0.0732206505 8.19282482,-0.072958674 7.89841613,0.219269031 L0.444349632,7.61759098 C0.150204845,7.91009446 0.149940913,8.38567797 0.444349632,8.67790569 L2.74926402,10.965028 L0.559187647,10.9316605 C0.250276582,10.9316605 0,11.1800968 0,11.4867332 L0,11.4449411 C0,11.7515913 0.250276582,12 0.559187647,12 L13.4408124,12 C13.7494734,12 14,11.7515913 14,11.4449411 L14,11.4867194 C14,11.1801106 13.7494734,10.9316743 13.4408124,10.9316743 Z M4.33755408,11.138742 L3.54227923,10.3493457 L1.26675574,8.09093933 C1.23137616,8.05556199 1.2308526,7.9981242 1.26675574,7.96251302 L8.28989691,0.991387121 C8.32578692,0.955749959 8.38364036,0.956269638 8.41928173,0.991387121 L12.90758,5.44669542 C12.9432214,5.48233258 12.9432214,5.53923772 12.9078418,5.57462804 L8.09746232,10.3493326 L7.30220058,11.138729 L4.33755408,11.138729 L4.33755408,11.138742 Z M8.78202466,1.79817942 C8.58547897,1.77505656 8.40262998,1.91328355 8.37769537,2.1100002 L7.69376535,7.50112843 L2.32763372,8.1018815 C2.12889325,8.12419084 1.98609238,8.30187978 2.00855435,8.49913413 C2.02939105,8.68279334 2.18618029,8.81830404 2.36791801,8.81830404 C2.38136463,8.81830404 2.39506129,8.81775253 2.40875795,8.8161117 L8.05806039,8.18378357 C8.2244345,8.16529358 8.35603908,8.03604274 8.37686191,7.87168703 L9.09614493,2.19976156 C9.12110729,2.00279672 8.9804595,1.82295686 8.78202466,1.79817942 Z" id="Shape"></path>
                    </g>
                    <g id="cloudCollection" transform="translate(237.000000, 53.000000)" fill="#00CF76" fill-rule="nonzero">
                        <path d="M4.18081181,3.80860037 C4.18081181,3.62891021 4.31710887,3.48324256 4.48523985,3.48324256 C4.65337083,3.48324256 4.7896679,3.62891021 4.7896679,3.80860037 C4.7896679,3.92483951 4.73164424,4.03224893 4.63745387,4.09036852 C4.54326351,4.1484881 4.42721619,4.1484881 4.33302583,4.09036852 C4.23883547,4.03224893 4.18081181,3.92483951 4.18081181,3.80860037 Z M4.99261993,3.59807473 L6.94095941,3.59807473 L6.94095941,3.98084863 L4.99261993,3.98084863 L4.99261993,3.59807473 Z M4.18081181,4.91864471 C4.18081181,4.73895456 4.31710887,4.59328689 4.48523985,4.59328689 C4.65337083,4.59328689 4.7896679,4.73895456 4.7896679,4.91864471 C4.7896679,5.03488384 4.73164424,5.14229326 4.63745387,5.20041285 C4.54326351,5.25853243 4.42721619,5.25853243 4.33302583,5.20041285 C4.23883547,5.14229326 4.18081181,5.03488384 4.18081181,4.91864471 Z M5.01239366,4.70811906 L6.94095941,4.70811906 L6.94095941,5.10507704 L5.01239366,5.10507704 L5.01239366,4.70811906 Z M4.48602702,5.68598203 C4.65458603,5.68598203 4.79123091,5.83557003 4.79124228,6.01999842 C4.79124228,6.20451237 4.65459735,6.35404686 4.48602702,6.35404686 C4.31744537,6.35404686 4.18081181,6.20451237 4.18081181,6.01999842 C4.18081181,5.83555932 4.31744537,5.68598203 4.48602702,5.68598203 Z M8.40280867,3.21326385 C8.33485213,3.35014708 8.18747076,3.44496516 8.01660517,3.44496516 C7.78122181,3.44496516 7.5904059,3.26502276 7.5904059,3.04305256 C7.5904059,2.87304079 7.70234535,2.72768405 7.86051232,2.66894969 C7.64401966,1.44180505 6.67318738,0.53588347 5.53557144,0.53588347 C4.41251561,0.53588347 3.44803427,1.4195511 3.2171918,2.62939791 C3.37719259,2.68728243 3.49077491,2.83352037 3.49077491,3.00477517 C3.49077491,3.22674537 3.299959,3.40668777 3.06457565,3.40668777 C2.8797982,3.40668777 2.72248478,3.29580096 2.66338286,3.1407433 C2.60277899,3.13367733 2.54462144,3.13011351 2.48777136,3.13011351 C1.43800767,3.13011351 0.568265683,4.08472635 0.568265683,5.28085347 C0.568265683,6.38914933 1.31968255,7.30273526 2.28021087,7.41884999 L2.44125536,7.42508982 L8.60396275,7.46406585 L8.83675961,7.45787823 C9.74371009,7.28812869 10.4317343,6.4053053 10.4317343,5.34909234 C10.4317343,4.15839399 9.56593463,3.20810387 8.52112008,3.20810387 C8.48281902,3.20810387 8.44364887,3.20982516 8.40280875,3.21326368 L8.40280867,3.21326385 Z M8.52112008,2.6722204 C9.90054744,2.6722204 11,3.87896479 11,5.34909234 C11,6.66008972 10.119967,7.77906382 8.91938199,7.98857313 L8.61006438,8 L2.42768138,7.96089949 L2.23377608,7.95338644 C0.955180247,7.80701734 0,6.65094609 0,5.28085347 C0,3.8052967 1.10339552,2.59423004 2.48777136,2.59423004 C2.54029095,2.59423004 2.59290999,2.59632373 2.64602287,2.60043103 C2.89950531,1.11651327 4.09725021,0 5.53557144,0 C7.00063754,0 8.21090766,1.15703084 8.43614289,2.67409367 C8.46458,2.67284949 8.49285828,2.6722204 8.52112008,2.6722204 Z M5.01239366,5.82155683 L6.94095941,5.82155683 L6.94095941,6.21854692 L5.01239366,6.21854692 L5.01239366,5.82155683 Z" id="Combined-Shape"></path>
                    </g>
                    <g id="提交和审批送审" transform="translate(204.859792, 272.241235) rotate(-22.000000) translate(-204.859792, -272.241235) translate(191.859792, 256.741235)" fill="#00CF76" fill-rule="nonzero" opacity="0.766429228">
                        <path d="M22.3189779,0 L6.30053998,0 L0,6.75952845 L0,26.8786583 C0,29.0001103 1.85249573,30.719457 3.88989859,30.719457 L15.768471,30.719457 C15.4192019,30.0365713 15.1589621,29.3016893 15.0014487,28.5252101 L3.97207955,28.5252101 C2.97563546,28.5252101 2.16409851,27.6828688 2.16409851,26.6464078 L2.16409851,9.71638886 L7.58119321,9.71638886 C8.57763729,9.71638886 9.38917424,8.87404761 9.38917424,7.83758659 L9.38917424,2.19424692 L22.0313446,2.19424692 C23.0277887,2.19424692 23.8393257,3.03658817 23.8393257,4.0730492 L23.8393257,18.3131225 C24.5926511,18.3651189 25.3151588,18.5176416 26,18.7602913 L26,3.63974609 C25.900698,1.61188756 24.2913209,4.92608599e-16 22.3189779,0 Z M7.58461741,6.78379343 C7.58461741,7.02297675 7.49216383,7.24829436 7.32437771,7.41814918 C7.15659159,7.58453757 6.93401818,7.68159746 6.69774792,7.68159746 L2.16409851,7.68159746 L7.58119321,2.19771335 L7.58119321,6.78379343 L7.58461741,6.78379343 Z M5.10720086,17.6742081 C4.63087159,17.5680089 4.28723404,17.0971922 4.28723404,16.5520362 C4.28723404,16.0068802 4.63087159,15.5360635 5.10720086,15.4298643 L15.63748,15.4298643 C16.1138092,15.5396034 16.4574468,16.0068802 16.4574468,16.5520362 C16.4574468,17.0971922 16.1172116,17.5680089 15.63748,17.6742081 L5.10720086,17.6742081 Z M12.6579416,20.9087581 C13.137442,21.016038 13.4833673,21.4728432 13.4833673,22.0057826 C13.4833673,22.538722 13.140867,22.9989878 12.6579416,23.1028072 L5.11265979,23.1028072 C4.63315935,22.9955272 4.28723404,22.538722 4.28723404,22.0057826 C4.28723404,21.4728432 4.63315935,21.0125774 5.11265979,20.9087581 L12.6579416,20.9087581 Z M11.6304407,12.1498645 C11.1372402,12.0910336 10.7707649,11.6203858 10.7981649,11.0770645 C10.7502149,10.5164399 11.1201152,10.018107 11.6304407,9.95927602 L20.795749,9.95927602 C21.3026494,10.018107 21.6759747,10.5164399 21.6280248,11.0770645 C21.6519997,11.6203858 21.2889494,12.0910336 20.795749,12.1498645 L11.6304407,12.1498645 Z M25.4845782,25.2795532 C25.7688535,25.7744255 25.4160782,26.3869597 24.8543776,26.3869597 L23.3610762,26.3869597 L23.3610762,29.868369 C23.3610762,30.4947457 22.8610258,31 22.2411002,31 C21.6211747,31 21.1211242,30.4947457 21.1211242,29.868369 L21.1211242,26.3869597 L19.6346729,26.3869597 C19.0729724,26.3869597 18.7201971,25.7709647 19.0010473,25.2795532 L21.6108996,20.7115013 C21.89175,20.2200896 22.5938755,20.2200896 22.8747259,20.7115013 L25.4845782,25.2795532 Z" id="Combined-Shape"></path>
                    </g>
                    <g id="Internet" transform="translate(412.000000, 89.000000)" fill="#00CF76" fill-rule="nonzero">
                        <path d="M13.4933333,26 C9.29333333,26 6,20.293 6,13 C6,5.707 9.29333333,0 13.4933333,0 C17.6933333,0 21,5.707 21,13 C20.9866666,20.293 17.6933333,26 13.4933333,26 Z M13.4933333,1.625 C10.3333333,1.625 7.66666666,6.838 7.66666666,13 C7.66666666,19.162 10.3333333,24.375 13.4933333,24.375 C16.6533333,24.375 19.3333334,19.162 19.3333334,13 C19.3333334,6.838 16.6533333,1.625 13.4933333,1.625 Z" id="Shape"></path>
                        <path d="M13.0066465,26 C9.04531722,26 5.32326284,24.297 2.78429003,21.307 L2.18610271,20.605 L2.9836858,20.111 C5.4960725,18.538 9.15166162,17.641 13.0066465,17.641 C16.8749245,17.641 20.5305136,18.538 23.0296073,20.111 L23.8271903,20.605 L23.2290031,21.307 C20.6900302,24.297 16.9679758,26 13.0066465,26 Z M4.73836859,20.995 C6.91842901,23.153 9.88277946,24.375 13.0066465,24.375 C16.1305136,24.375 19.0948641,23.153 21.2749245,20.995 C19.081571,19.89 16.1305136,19.266 13.0066465,19.266 C9.88277946,19.266 6.93172206,19.89 4.73836859,20.995 Z M13.0066465,8.775 C8.99214502,8.775 5.25679758,7.813 2.74441088,6.149 L2,5.655 L2.54501511,4.966 C5.09728097,1.807 8.89909365,0 13.0066465,0 C17.1141994,0 20.916012,1.807 23.4549849,4.966 L24,5.655 L23.2555891,6.149 C20.7564955,7.813 17.021148,8.775 13.0066465,8.775 Z M4.47250755,5.278 C6.67915408,6.474 9.73655589,7.15 13.0066465,7.15 C16.2767372,7.15 19.334139,6.474 21.5407855,5.278 C19.347432,2.951 16.2767372,1.625 13.0066465,1.625 C9.73655589,1.625 6.66586102,2.951 4.47250755,5.278 Z" id="Shape"></path>
                        <path d="M3.458,22 L3.003,21.4383358 C1.066,19.0312035 0,15.9955424 0,12.8796434 C0,9.85735513 0.962,6.99554234 2.782,4.61515601 L3.25,4 L3.874,4.44130758 C6.071,5.97919762 9.399,6.86181277 13,6.86181277 C16.601,6.86181277 19.929,5.97919762 22.126,4.45468053 L22.75,4.01337296 L23.218,4.62852898 C25.038,6.99554234 26,9.85735513 26,12.8796434 C26,15.9955424 24.934,19.0312035 22.997,21.4249629 L22.542,21.9866271 L21.944,21.5854383 C19.747,20.141159 16.497,19.3120357 13.013,19.3120357 C9.529,19.3120357 6.279,20.141159 4.082,21.5854383 L3.458,22 Z M13,17.653789 C16.471,17.653789 19.76,18.4294205 22.165,19.806835 C23.595,17.8142645 24.375,15.3803863 24.375,12.8796434 C24.375,10.4858841 23.686,8.21248143 22.373,6.26002972 C19.942,7.71768202 16.575,8.5334324 13,8.5334324 C9.425,8.5334324 6.058,7.71768202 3.627,6.26002972 C2.314,8.21248143 1.625,10.4858841 1.625,12.8796434 C1.625,15.3670134 2.405,17.8008915 3.835,19.806835 C6.24,18.4294205 9.529,17.653789 13,17.653789 Z" id="Shape"></path>
                        <polygon id="Combined-Shape" points="14.3152174 12.6847826 26 12.6847826 26 14.3152174 14.3152174 14.3152174 14.3152174 26 12.6847826 26 12.6847826 14.3152174 1 14.3152174 1 12.6847826 12.6847826 12.6847826 12.6847826 1 14.3152174 1"></polygon>
                    </g>
                    <g id="mediaApproval" transform="translate(180.000000, 34.000000)" fill="#00CF76" fill-rule="nonzero">
                        <path d="M1.1249614,16.0119646 C1.1619198,16.0165387 1.21573638,16.0198059 1.29030155,16.0191525 L7.01625781,16.0191525 L7.01625781,17.1463415 L1.29030155,17.1463415 C0.84485574,17.1463415 0.525198134,17.0424441 0.313822091,16.8300752 C0.102446047,16.6177061 0,16.2955588 0,15.8459901 L0,1.30035136 C0,0.851436093 0.102446065,0.529288742 0.313822091,0.316266366 C0.524549738,0.103243971 0.844207344,0 1.29030155,0 L12.9529417,0 C13.3983875,0 13.7180452,0.103897418 13.9294211,0.316266366 C14.1407972,0.528635313 14.2432432,0.850782646 14.2432432,1.30035136 L14.2432432,8.87048725 L13.1247657,8.27454732 L13.1247657,1.29969791 C13.1247657,1.2232451 13.1215238,1.17031621 13.1176335,1.13306998 C13.0806751,1.12914931 13.0275069,1.12588209 12.9522933,1.12588209 L1.29030155,1.12588209 C1.21508798,1.12588209 1.16191978,1.12914931 1.1249614,1.13306998 C1.12107106,1.17031622 1.11782909,1.22389853 1.11782909,1.29969791 L1.11782909,15.8453367 C1.11782907,15.9211361 1.12107104,15.9747184 1.1249614,16.0119646 Z M11.7642133,3.30678478 C11.8454436,3.40051447 11.8922324,3.5222329 11.8928821,3.64069683 C11.8928821,3.75916074 11.8460935,3.88087917 11.764863,3.97460886 C11.6777841,4.07484759 11.5647114,4.13017413 11.44579,4.13017413 L2.74503926,4.13017413 C2.62611795,4.13017411 2.51304524,4.07484757 2.42596624,3.97460886 C2.34473583,3.88087917 2.29794713,3.75916074 2.29794713,3.64069683 C2.29794713,3.5222329 2.34473583,3.40051447 2.42596624,3.30678478 C2.51304523,3.20654607 2.62611795,3.15121951 2.74503926,3.15121951 L11.4451402,3.15121951 C11.5640615,3.15121953 11.6771342,3.20654608 11.7642133,3.30678478 Z M11.7642133,6.7149007 C11.6771342,6.81513942 11.5640615,6.87046596 11.44579,6.87046596 L2.74503926,6.87046596 C2.62611795,6.87046594 2.51304524,6.8151394 2.42596624,6.7149007 C2.34473583,6.621171 2.29794713,6.49945258 2.29794713,6.38098866 C2.29794713,6.26252473 2.34473583,6.1408063 2.42596624,6.04707661 C2.51304523,5.9468379 2.62611795,5.89151134 2.74503926,5.89151134 L11.4451402,5.89151134 C11.5640615,5.89151136 11.6771342,5.94683792 11.7642133,6.04707661 C11.8454436,6.1408063 11.8922324,6.26252473 11.8922324,6.38098866 C11.8922324,6.49945258 11.8454437,6.621171 11.7642133,6.7149007 Z M8.32784232,8.63180318 C8.44676364,8.6318032 8.55983634,8.68712975 8.64691534,8.78736846 C8.7274959,8.88109814 8.77428461,9.00281656 8.77428461,9.12128049 C8.77428461,9.23974441 8.72814575,9.36146284 8.64691534,9.45519253 C8.55983636,9.55543125 8.44676364,9.61075777 8.32784232,9.61075777 L2.74438941,9.61075777 C2.6254681,9.61075777 2.51239539,9.55543125 2.42531639,9.45519253 C2.344086,9.36146284 2.2972973,9.23974441 2.2972973,9.12128049 C2.29729728,9.00281656 2.34408598,8.88109814 2.42531639,8.78736846 C2.51239538,8.68712973 2.6254681,8.63180318 2.74438941,8.63180318 L8.32784232,8.63180318 Z M7.11848408,11.372095 C7.2374054,11.372095 7.35047812,11.4274215 7.43820695,11.5276603 C7.51878751,11.6213899 7.56557622,11.7431084 7.56557622,11.8615723 C7.56557624,11.9800363 7.51878753,12.1017547 7.43755712,12.1954844 C7.35047812,12.2957231 7.2374054,12.3510496 7.11848408,12.3510496 L2.74438941,12.3510496 C2.6254681,12.3510496 2.51239539,12.295723 2.42531639,12.1954844 C2.344086,12.1017547 2.2972973,11.9800363 2.2972973,11.8615723 C2.29729728,11.7431084 2.34408598,11.6213899 2.42531639,11.5276603 C2.51239538,11.4274215 2.6254681,11.372095 2.74438941,11.372095 L7.11848408,11.372095 Z M16.7205674,15.9290507 C16.900574,16.1106519 17,16.3508343 17,16.6053364 L17,18.0425251 C17,18.5704056 16.5711035,19 16.0440806,19 L8.94584322,19 C8.41882037,19 7.98992385,18.5704056 7.98992385,18.0425251 L7.98992385,16.6053364 C7.98992385,16.077456 8.41882037,15.6478615 8.94584322,15.6478615 L9.88941561,15.6478615 L11.7284718,13.0709458 C11.3593609,12.9238422 11.0422374,12.6778017 10.807644,12.354955 C10.5496563,12.0002142 10.4131892,11.5810341 10.4131892,11.1416762 C10.4131892,9.99153473 11.3470139,9.05553952 12.4952868,9.05553952 C13.6435598,9.05553952 14.5773845,9.99153473 14.5773845,11.1416762 C14.5773845,11.5803832 14.4415673,12.0002142 14.1835795,12.354955 C13.9489861,12.6771509 13.6318626,12.9238423 13.2627517,13.0709458 L15.1011582,15.6478615 L16.0447305,15.6478615 C16.3001188,15.6478615 16.539911,15.7481002 16.7205674,15.9290507 Z M12.4121069,13.6515492 L10.9870008,15.6485124 L14.0016234,15.6485124 L12.5700188,13.6417856 L12.4121069,13.6515492 Z M12.5063342,12.3315226 C13.1548777,12.3250136 13.6832002,11.7912751 13.6832002,11.1416762 C13.6832002,10.4849174 13.149679,9.95052791 12.494637,9.95052791 C11.839595,9.95052791 11.3060738,10.4849174 11.3060738,11.1416762 C11.3060738,11.7912751 11.8343963,12.3250136 12.4835897,12.3315226 L12.5063342,12.3315226 Z M16.1064656,16.6059873 C16.1064656,16.5727914 16.0772226,16.5435008 16.0440806,16.5435008 L8.94519337,16.5435008 C8.91205137,16.5435008 8.88280843,16.5727914 8.88280843,16.6059873 L8.88280843,18.043176 C8.88280843,18.0763719 8.91205137,18.1056625 8.94519337,18.1056625 L16.0434308,18.1056625 C16.0765728,18.1056625 16.1058157,18.0763719 16.1058157,18.043176 L16.1058157,17.9780859 L16.1064656,17.9780859 L16.1064656,16.6059873 Z" id="Combined-Shape"></path>
                    </g>
                    <g id="exchangeOfData" transform="translate(431.000000, 137.000000)" fill="#00CF76" fill-rule="nonzero">
                        <path d="M2.55512858,3.55784643 C2.41437542,3.59219006 2.2588294,3.60963318 2.0904362,3.60963318 C1.34587044,3.60963318 1.09371532,3.27531296 1.08169151,3.25865906 C1.04131007,3.20111475 0.960643797,3.18563119 0.900846709,3.22438717 C0.840718435,3.26333148 0.824476627,3.34222901 0.864582074,3.40060288 C0.877571842,3.41951678 1.19303368,3.86380925 2.0904408,3.86380925 C2.31203501,3.86380925 2.51608567,3.83646529 2.69873818,3.78279971 L2.83743064,4 L3.20745963,3.33010404 L2.42488592,3.35379797 L2.55512858,3.55784643 Z M3.39401356,2.04974322 C3.7304379,2.05992719 3.9999946,2.32796939 4,2.657271 L4,2.96011814 L2.32956579,2.96011814 L2.32956579,2.657271 C2.32956579,2.32800386 2.59907369,2.05996688 2.93543403,2.04974548 C2.73284649,1.96382986 2.59124705,1.76753171 2.59124705,1.53905137 C2.59124705,1.23136198 2.84801116,0.982068509 3.16471849,0.982068509 C3.48143332,0.982068509 3.73819914,1.2313603 3.73819914,1.53905137 C3.73819914,1.76753074 3.59660151,1.96382668 3.39401356,2.04974322 Z M1.06451936,2.04973986 C1.40090007,2.05994223 1.67040661,2.32798206 1.67040661,2.65726652 L1.67040661,2.75681403 L1.67040886,2.96011365 L0,2.96011365 L0,2.65726652 C0,2.3279806 0.2695424,2.0599335 0.605935894,2.04973935 C0.403352832,1.96382078 0.261759457,1.7675273 0.261759457,1.53905137 C0.261759457,1.2313603 0.518525287,0.982068509 0.835240102,0.982068509 C1.15192131,0.982068509 1.40867935,1.23136787 1.40867935,1.53905137 C1.40867935,1.76752312 1.26708849,1.96382034 1.06451936,2.04973986 Z M1.4351935,0.442193929 L1.56540396,0.646202033 L0.78290845,0.669895958 L1.15296964,0 L1.29162529,0.217236165 C1.47430539,0.163530233 1.67836066,0.13618626 1.89988127,0.13618626 C2.79728839,0.13618626 3.11271343,0.580492195 3.12574,0.59939263 C3.16583165,0.657806854 3.14963583,0.736704396 3.08943397,0.775608351 C3.06717565,0.790078505 3.04197808,0.79697055 3.01703808,0.79697055 C2.97506973,0.79697055 2.93392934,0.777460279 2.90863057,0.741376816 C2.89660675,0.724691522 2.64445163,0.390330959 1.89988588,0.390330959 C1.73152487,0.390330959 1.57590524,0.407841327 1.4351935,0.442193929 Z M0.46641062,1.53905137 C0.46641062,1.73668375 0.63146989,1.89694818 0.835240102,1.89694818 C1.03897393,1.89694818 1.20402819,1.73667889 1.20402819,1.53905137 C1.20402819,1.34141224 1.03898506,1.18116353 0.835240102,1.18116353 C0.631458759,1.18116353 0.46641062,1.34140739 0.46641062,1.53905137 Z M1.04462651,2.24853361 L0.625812298,2.24853361 C0.393159284,2.24853361 0.204651163,2.43156449 0.204651163,2.65726652 L0.204651163,2.76101862 L1.46575319,2.76101862 L1.4657508,2.65532641 C1.4646744,2.43050876 1.2766045,2.24853361 1.04462651,2.24853361 Z M3.16471849,1.89694818 C3.36848871,1.89694818 3.53354798,1.73668375 3.53354798,1.53905137 C3.53354798,1.34140739 3.36849985,1.18116353 3.16471849,1.18116353 C2.96094525,1.18116353 2.79589821,1.34140847 2.79589821,1.53905137 C2.79589821,1.73668267 2.96095637,1.89694818 3.16471849,1.89694818 Z M3.79534884,2.76102311 L3.79534884,2.6572726 C3.79534513,2.4315629 3.60683412,2.24853808 3.3741555,2.24853808 L2.9553643,2.24853808 C2.72272048,2.24853808 2.53421695,2.43156896 2.53421695,2.657271 L2.53421695,2.76102311 L3.79534884,2.76102311 Z" id="Combined-Shape"></path>
                    </g>
                    <g id="UGC" transform="translate(460.000000, 123.000000)" fill="#00CF76" fill-rule="nonzero">
                        <path d="M7.68,0 L0.319999997,0 C0.14328,0 0,0.134325 0,0.299999997 L0,5.7 C0,5.86567498 0.14328,6 0.319999997,6 L7.68,6 C7.85672,6 8,5.86567498 8,5.7 L8,0.299999997 C8,0.134325 7.85672,0 7.68,0 Z M7.55112235,5.57254601 L0.448877655,5.57254601 L0.448877655,0.427453988 L7.55112235,0.427453988 L7.55112235,5.57254601 Z M3.70315285,1.10741984 L3.47058824,1.10741984 L3.47058824,1.807104 C3.47058824,1.95524393 3.51569545,2.06918153 3.607354,2.14965129 C3.69422608,2.22564433 3.81983049,2.26380368 3.9810049,2.26380368 C4.1409218,2.26380368 4.26628188,2.22544947 4.35615216,2.14824907 C4.44652553,2.06900049 4.49142157,1.95490758 4.49142157,1.807104 L4.49142157,1.10741984 L4.25885694,1.10741984 L4.25885694,1.81017975 C4.25885694,1.89959813 4.23643569,1.96507214 4.19312812,2.00825314 C4.14961588,2.04873042 4.07828984,2.07013047 3.9810049,2.07013047 C3.88215445,2.07013047 3.8109054,2.04875353 3.76865207,2.00802803 C3.72486583,1.96587523 3.70315285,1.90135715 3.70315285,1.81017975 L3.70315285,1.10741984 Z M5.21238118,1.81166802 L5.52471404,1.81166802 L5.52471404,2.00859795 C5.48844208,2.02742868 5.45159824,2.04177256 5.41173122,2.05237269 C5.36416173,2.06417466 5.31296231,2.07013047 5.25842988,2.07013047 C5.1199371,2.07013047 5.01963012,2.03512564 4.95599431,1.96579513 C4.89672114,1.90047371 4.86655157,1.80479372 4.86655157,1.67946026 C4.86655157,1.54813963 4.89988937,1.44959173 4.96725569,1.37961055 C5.02762086,1.31336208 5.10928122,1.28110066 5.21546345,1.28110066 C5.30201624,1.28110066 5.37047369,1.29748243 5.42080149,1.33012521 C5.47036353,1.36327824 5.50333533,1.41215817 5.51855886,1.47732682 L5.52193741,1.49178973 L5.75579647,1.49178973 L5.75206282,1.47040789 C5.72991573,1.34357598 5.67490675,1.24839148 5.58610412,1.18357567 C5.49494216,1.11794746 5.37203357,1.08588957 5.21546345,1.08588957 C5.03375659,1.08588957 4.88981914,1.14409358 4.78404333,1.26158117 C4.68377914,1.37070076 4.63398694,1.51010746 4.63398694,1.67946026 C4.63398694,1.84753523 4.68394145,1.98540967 4.78435957,2.09153046 C4.8924682,2.2065094 5.04339208,2.26380368 5.23694667,2.26380368 C5.34416906,2.26380368 5.44035753,2.25134963 5.52855988,2.22609376 C5.61354698,2.20027143 5.68621408,2.16509111 5.74975624,2.11840741 L5.75727867,2.11288077 L5.75727867,1.62107056 L5.21238118,1.62107056 L5.21238118,1.81166802 Z M6.46479502,1.08588957 C6.26976612,1.08588957 6.12074,1.14566738 6.01813933,1.26660958 C5.92815188,1.37089207 5.88331847,1.50837668 5.88331847,1.6763845 C5.88331847,1.84705012 5.92623808,1.98308752 6.01323745,2.08468697 C6.11335537,2.20356036 6.26656302,2.26380368 6.46810012,2.26380368 C6.59966522,2.26380368 6.71304282,2.22863375 6.80749059,2.15831885 C6.90862745,2.08334316 6.97230345,1.9795436 6.99964784,1.84594765 L7.00412573,1.82407024 L6.77686118,1.82407024 L6.77303094,1.83781883 C6.75081576,1.91755975 6.71322408,1.976958 6.66088757,2.01563519 C6.61122467,2.05028889 6.54553157,2.0685926 6.46644757,2.0685926 C6.34401055,2.0685926 6.25355859,2.03288195 6.19603518,1.96343555 C6.1429751,1.89808094 6.1158831,1.80205305 6.1158831,1.6763845 C6.1158831,1.55330627 6.14317176,1.45908722 6.19776318,1.39231754 C6.25653114,1.31748472 6.34277494,1.28110066 6.46148992,1.28110066 C6.54206871,1.28110066 6.60536749,1.29618639 6.65371067,1.32711592 C6.70404655,1.35834671 6.73776,1.40664138 6.75648702,1.47489905 L6.76027725,1.48871397 L6.98672745,1.48871397 L6.98324573,1.46750598 C6.96417392,1.35133512 6.90991169,1.25842117 6.82078255,1.1914279 C6.72817459,1.12120574 6.60828812,1.08588957 6.46479502,1.08588957 Z M1.17647059,2.72392638 C1.08983769,2.72392638 1.01960784,2.78984764 1.01960784,2.87116564 L1.01960784,2.90797546 C1.01960784,2.98929346 1.08983769,3.05521472 1.17647059,3.05521472 L6.78431373,3.05521472 C6.87094663,3.05521472 6.94117647,2.98929346 6.94117647,2.90797546 L6.94117647,2.87116564 C6.94117647,2.78984764 6.87094663,2.72392638 6.78431373,2.72392638 L1.17647059,2.72392638 Z M1.17647059,1.91411043 C1.08983769,1.91411043 1.01960784,1.98003169 1.01960784,2.06134969 L1.01960784,2.09815951 C1.01960784,2.17947751 1.08983769,2.24539877 1.17647059,2.24539877 L2.8627451,2.24539877 C2.949378,2.24539877 3.01960784,2.17947751 3.01960784,2.09815951 L3.01960784,2.06134969 C3.01960784,1.98003169 2.949378,1.91411043 2.8627451,1.91411043 L1.17647059,1.91411043 Z M1.17647059,1.06748466 C1.08983769,1.06748466 1.01960784,1.13340593 1.01960784,1.21472393 L1.01960784,1.25153374 C1.01960784,1.33285174 1.08983769,1.39877301 1.17647059,1.39877301 L2.8627451,1.39877301 C2.949378,1.39877301 3.01960784,1.33285174 3.01960784,1.25153374 L3.01960784,1.21472393 C3.01960784,1.13340593 2.949378,1.06748466 2.8627451,1.06748466 L1.17647059,1.06748466 Z M1.17647059,3.57055215 C1.08983769,3.57055215 1.01960784,3.63647341 1.01960784,3.71779141 L1.01960784,3.75460123 C1.01960784,3.83591923 1.08983769,3.90184049 1.17647059,3.90184049 L6.78431373,3.90184049 C6.87094663,3.90184049 6.94117647,3.83591923 6.94117647,3.75460123 L6.94117647,3.71779141 C6.94117647,3.63647341 6.87094663,3.57055215 6.78431373,3.57055215 L1.17647059,3.57055215 Z M1.17647059,4.41717791 C1.08983769,4.41717791 1.01960784,4.48309918 1.01960784,4.56441718 L1.01960784,4.60122699 C1.01960784,4.68254499 1.08983769,4.74846626 1.17647059,4.74846626 L6.78431373,4.74846626 C6.87094663,4.74846626 6.94117647,4.68254499 6.94117647,4.60122699 L6.94117647,4.56441718 C6.94117647,4.48309918 6.87094663,4.41717791 6.78431373,4.41717791 L1.17647059,4.41717791 Z" id="Combined-Shape"></path>
                    </g>
                    <g id="receiveManuscript" transform="translate(344.000000, 11.000000)" fill="#00CF76" fill-rule="nonzero">
                        <path d="M16.5784958,7 L11.9733492,7 C11.6970436,7 11.5128265,7.18078358 11.5128265,7.45196866 L11.5128265,7.76834481 L9.34842606,7.18078352 C8.93394765,7.04519102 8.51948925,7.09036242 8.10503084,7.27116554 L6.17085177,8.0847209 C5.48008776,8.35592558 5.06562935,9.03388834 5.06562935,9.75706173 L5.06562935,10.7514202 L4.3748454,10.9322037 C3.9143427,11.0677963 3.40777577,11.1129677 2.90120885,11.0225857 L1.1052025,10.7514202 C0.828896879,10.7062096 0.552591284,10.7965916 0.322349899,10.9773947 C0.0920686417,11.1581783 0,11.4293829 0,11.7005876 L0,12.3333595 C0,12.8757492 0.368394182,13.3728893 0.921025317,13.5085015 L6.26298021,14.909618 C6.53928582,15 6.86165564,15 7.13796126,15 C7.55241964,15 8.01292234,14.909618 8.42740069,14.7740254 L11.4667624,13.5536729 L11.4667624,13.779667 C11.4667624,14.0508521 11.6509793,14.2316552 11.927285,14.2316552 L16.5324315,14.2316552 C16.8087371,14.2316552 16.9929542,14.0508716 16.9929542,13.779667 L16.9929542,7.45194912 C17.0389786,7.18080312 16.8548014,7 16.5784958,7 Z M8.10503084,13.9152791 C7.59846396,14.0960822 7.0458527,14.1412928 6.53928582,14.0057003 L1.19733093,12.6045445 C1.05915819,12.5593536 0.967069617,12.4237414 0.967069617,12.2881489 L0.967069617,11.6101665 L1.0131139,11.6101665 L2.80912028,11.8813712 C3.40779572,11.9717532 4.05251544,11.9265622 4.65119087,11.7909501 L8.88790341,10.660999 C9.11818463,10.6158276 9.2563175,10.3446229 9.21027326,10.1186484 C9.16420901,9.89263468 8.88790341,9.71185118 8.65764213,9.80225271 L6.03271889,10.5254065 L6.03271889,9.71185118 C6.03271889,9.35026444 6.26298021,9.03386877 6.58533014,8.89827625 L8.51948925,8.0847013 C8.70368636,7.99433888 8.93394765,7.99433888 9.1181647,8.03952989 L11.5128265,8.71747318 L11.5128265,12.6044859 L8.10503084,13.9152791 Z M16.1179532,13.3277374 L12.4338519,13.3277374 L12.4338519,7.90393732 L16.1179532,7.90393732 L16.1179532,13.3277374 Z" id="Shape" transform="translate(8.500000, 11.000000) scale(-1, 1) translate(-8.500000, -11.000000) "></path>
                        <path d="M11.5543015,11 L19.2567788,11 C19.6665912,11 20,10.6826456 20,10.2926102 L20,0.707389759 C20,0.317334815 19.6665912,0 19.2567788,0 L8.66576702,0 C8.25597514,0 7.92254574,0.317334834 7.92254574,0.707389759 L7.92254574,7.6494859 L8.23917509,7.74581898 C9.65191118,8.17563382 10.5505338,8.54129203 10.9101105,8.83272107 C11.2614519,9.11746814 11.4152679,9.64835827 11.3672763,10.4107143 C11.3601197,10.5260133 11.382636,10.6412325 11.432871,10.7463712 L11.5543015,11 Z M19.089539,10.1334334 L12.286055,10.1334334 C12.2821844,9.25146442 12.0185498,8.59288778 11.5003805,8.17292961 C11.0615795,7.81726532 10.2325251,7.45760353 8.8330068,7.01820632 L8.8330068,0.86654707 L19.089539,0.86654707 L19.089539,10.1334334 Z M2.951557,9.11378404 C2.951557,9.36371061 2.73854399,9.56631571 2.47577848,9.56631571 C2.21301299,9.56631571 2,9.36371061 2,9.11378404 C2,8.86385747 2.21303361,8.66125237 2.47577848,8.66125237 C2.73852336,8.66125237 2.95155698,8.86385747 2.951557,9.11378404 Z M10.6676121,2.1395744 L10.6676121,2.97445729 L17.4202117,2.97445729 L17.4202117,2.1395744 L10.6676121,2.1395744 Z M12.1384754,4.50956451 L12.1384754,5.34853769 L17.3533543,5.34853769 L17.3533543,4.50956451 L12.1384754,4.50956451 Z M13.2750516,6.87955462 L13.2750516,7.71859563 L17.2884116,7.71859563 L17.2884116,6.87955462 L13.2750516,6.87955462 Z" id="Combined-Shape"></path>
                    </g>
                    <g id="Group-9" transform="translate(199.000000, 57.000000)">
                        <g id="Group-8" opacity="0.237591912" transform="translate(29.000000, 0.000000)">
                            <path d="M6.12005884,6.05473329 C6.11287976,6.05381526 6.1082656,6.05354058 6.10613895,6.05371007 C6.11425187,6.0530635 6.12252498,6.0522179 6.1309395,6.05117592 L6.12005884,6.05473329 Z M6.50144093,135.506997 C6.50144093,137.796742 8.53795839,140.643176 10.4833221,141.342431 L150.051054,191.509637 C150.063528,191.426185 150.073447,148.316543 150.080814,62.1807112 C150.080814,59.8909657 148.044296,57.0445318 146.098933,56.3452766 L6.53120047,6.17807079 L6.50144093,135.506997 Z M8.46390566,0.514266899 L148.118349,50.7126408 C152.792835,52.3928709 156.582255,57.6893305 156.582255,62.5426145 L156.582255,191.428119 C156.582255,196.281402 152.792835,198.853671 148.118349,197.173441 L8.46390566,146.975067 C3.78941964,145.294837 0,139.998377 0,135.145093 L0,6.25958921 C0,1.40630523 3.78941964,-1.16596318 8.46390566,0.514266899 Z" id="Rectangle-55" fill-opacity="0.6" fill="#00CF76" fill-rule="nonzero" opacity="0.4"></path>
                            <g id="Group-7" transform="translate(99.277439, 136.327869)" fill="#00CF76" fill-opacity="0.3">
                                <rect id="Rectangle-2" x="0" y="0" width="2.4412485" height="4.86885246"></rect>
                                <rect id="Rectangle-2-Copy-2" x="6.50999601" y="3.24590164" width="2.4412485" height="4.86885246"></rect>
                                <rect id="Rectangle-2-Copy-4" x="13.019992" y="6.49180328" width="2.4412485" height="4.86885246"></rect>
                                <rect id="Rectangle-2-Copy-6" x="19.529988" y="9.73770492" width="2.4412485" height="4.86885246"></rect>
                                <rect id="Rectangle-2-Copy-8" x="26.0399841" y="12.9836066" width="2.4412485" height="4.86885246"></rect>
                                <rect id="Rectangle-2-Copy" x="0" y="8.1147541" width="2.4412485" height="14.6065574"></rect>
                                <rect id="Rectangle-2-Copy-3" x="6.50999601" y="11.3606557" width="2.4412485" height="14.6065574"></rect>
                                <rect id="Rectangle-2-Copy-5" x="13.019992" y="14.6065574" width="2.4412485" height="14.6065574"></rect>
                                <rect id="Rectangle-2-Copy-7" x="19.529988" y="17.852459" width="2.4412485" height="14.6065574"></rect>
                                <rect id="Rectangle-2-Copy-9" x="26.0399841" y="21.0983607" width="2.4412485" height="14.6065574"></rect>
                            </g>
                            <polygon id="Path-129-Copy-4" fill-opacity="0.3" fill="#00CF76" points="22.784986 111.983607 22.784986 115.333791 29.7842256 117.854025 29.7842256 114.760043"></polygon>
                            <polygon id="Path-129-Copy-6" fill-opacity="0.3" fill="#00CF76" points="22.784986 121.721311 22.784986 125.071496 29.7842256 127.59173 29.7842256 124.497748"></polygon>
                            <polygon id="Path-129-Copy-5" fill-opacity="0.3" fill="#00CF76" points="32.5499801 116.852459 32.5499801 120.202644 84.4705871 140.477137 84.4705871 137.383156"></polygon>
                            <polygon id="Path-129-Copy-7" fill-opacity="0.3" fill="#00CF76" points="32.5499801 126.590164 32.5499801 129.940349 84.4705871 150.214842 84.4705871 147.120861"></polygon>
                            <g id="Group-4" transform="translate(22.784986, 38.950820)" fill="#00CF76" fill-opacity="0.3">
                                <polygon id="Path-129" points="0 0 0 3.35018484 6.99923955 5.87041818 6.99923955 2.77643688"></polygon>
                                <polygon id="Path-129-Copy-2" points="0 8.1147541 0 11.4649389 6.99923955 13.9851723 6.99923955 10.891191"></polygon>
                                <polygon id="Path-129-Copy-4" points="0 16.2295082 0 19.579693 6.99923955 22.0999264 6.99923955 19.0059451"></polygon>
                                <polygon id="Path-129-Copy" points="9.76499402 3.24590164 9.76499402 6.59608648 40.7746251 18.7795222 40.7746251 15.6855409"></polygon>
                                <polygon id="Path-129-Copy-3" points="9.76499402 12.9836066 9.76499402 16.3337914 40.7746251 28.5172271 40.7746251 25.4232458"></polygon>
                                <polygon id="Path-129-Copy-5" points="9.76499402 21.0983607 9.76499402 24.4485455 40.7746251 36.6319812 40.7746251 33.5379999"></polygon>
                            </g>
                            <g id="Group-4-Copy-2" transform="translate(89.512445, 64.918033)" fill="#14D287" fill-opacity="0.3">
                                <polygon id="Path-129" points="0 0 0 3.35018484 6.99923955 5.87041818 6.99923955 2.77643688"></polygon>
                                <polygon id="Path-129-Copy-2" points="0 8.1147541 0 11.4649389 6.99923955 13.9851723 6.99923955 10.891191"></polygon>
                                <polygon id="Path-129-Copy-4" points="0 16.2295082 0 19.579693 6.99923955 22.0999264 6.99923955 19.0059451"></polygon>
                                <polygon id="Path-129-Copy" points="9.76499402 3.24590164 9.76499402 6.59608648 40.7746251 18.7795222 40.7746251 15.6855409"></polygon>
                                <polygon id="Path-129-Copy-3" points="9.76499402 12.9836066 9.76499402 16.3337914 40.7746251 28.5172271 40.7746251 25.4232458"></polygon>
                                <polygon id="Path-129-Copy-5" points="9.76499402 21.0983607 9.76499402 24.4485455 40.7746251 36.6319812 40.7746251 33.5379999"></polygon>
                            </g>
                            <g id="Group-4-Copy" transform="translate(22.784986, 74.655738)" fill="#00CF76" fill-opacity="0.3">
                                <polygon id="Path-129" points="0 0 0 3.35018484 6.99923955 5.87041818 6.99923955 2.77643688"></polygon>
                                <polygon id="Path-129-Copy-2" points="0 8.1147541 0 11.4649389 6.99923955 13.9851723 6.99923955 10.891191"></polygon>
                                <polygon id="Path-129-Copy-4" points="0 16.2295082 0 19.579693 6.99923955 22.0999264 6.99923955 19.0059451"></polygon>
                                <polygon id="Path-129-Copy" points="9.76499402 3.24590164 9.76499402 6.59608648 40.7746251 18.7795222 40.7746251 15.6855409"></polygon>
                                <polygon id="Path-129-Copy-3" points="9.76499402 12.9836066 9.76499402 16.3337914 40.7746251 28.5172271 40.7746251 25.4232458"></polygon>
                                <polygon id="Path-129-Copy-5" points="9.76499402 21.0983607 9.76499402 24.4485455 40.7746251 36.6319812 40.7746251 33.5379999"></polygon>
                            </g>
                            <g id="Group-4-Copy-3" transform="translate(89.512445, 100.622951)" fill="#00CF76" fill-opacity="0.3">
                                <polygon id="Path-129" points="0 0 0 3.35018484 6.99923955 5.87041818 6.99923955 2.77643688"></polygon>
                                <polygon id="Path-129-Copy-2" points="0 8.1147541 0 11.4649389 6.99923955 13.9851723 6.99923955 10.891191"></polygon>
                                <polygon id="Path-129-Copy-4" points="0 16.2295082 0 19.579693 6.99923955 22.0999264 6.99923955 19.0059451"></polygon>
                                <polygon id="Path-129-Copy" points="9.76499402 3.24590164 9.76499402 6.59608648 40.7746251 18.7795222 40.7746251 15.6855409"></polygon>
                                <polygon id="Path-129-Copy-3" points="9.76499402 12.9836066 9.76499402 16.3337914 40.7746251 28.5172271 40.7746251 25.4232458"></polygon>
                                <polygon id="Path-129-Copy-5" points="9.76499402 21.0983607 9.76499402 24.4485455 40.7746251 36.6319812 40.7746251 33.5379999"></polygon>
                            </g>
                        </g>
                        <g id="Group-8" transform="translate(0.000000, 25.000000)">
                            <path d="M2.50144094,129.507187 C2.50157395,130.912841 3.97145211,133.033163 5.15983963,133.460325 L142.069595,182.672129 C142.063362,169.777144 142.076203,110.09721 142.080814,56.1807112 C142.080814,54.7750583 140.610856,52.6545645 139.422415,52.2273828 L2.53054611,3.02200812 L2.50144094,129.507187 Z M2.50144094,129.507187 L2.50144088,129.507457 L2.50144093,129.506997 C2.50144093,129.50706 2.50144093,129.507124 2.50144094,129.507187 Z" id="Rectangle-55" stroke="#00CF76" stroke-width="4" opacity="0.714384191" fill-rule="nonzero"></path>
                            <g id="Group-7" transform="translate(93.277439, 130.327869)" fill="#00CF76" fill-opacity="0.2">
                                <rect id="Rectangle-2" x="0" y="0" width="2.4412485" height="4.86885246"></rect>
                                <rect id="Rectangle-2-Copy-2" x="6.50999601" y="3.24590164" width="2.4412485" height="4.86885246"></rect>
                                <rect id="Rectangle-2-Copy-4" x="13.019992" y="6.49180328" width="2.4412485" height="4.86885246"></rect>
                                <rect id="Rectangle-2-Copy-6" x="19.529988" y="9.73770492" width="2.4412485" height="4.86885246"></rect>
                                <rect id="Rectangle-2-Copy-8" x="26.0399841" y="12.9836066" width="2.4412485" height="4.86885246"></rect>
                                <rect id="Rectangle-2-Copy" x="0" y="8.1147541" width="2.4412485" height="14.6065574"></rect>
                                <rect id="Rectangle-2-Copy-3" x="6.50999601" y="11.3606557" width="2.4412485" height="14.6065574"></rect>
                                <rect id="Rectangle-2-Copy-5" x="13.019992" y="14.6065574" width="2.4412485" height="14.6065574"></rect>
                                <rect id="Rectangle-2-Copy-7" x="19.529988" y="17.852459" width="2.4412485" height="14.6065574"></rect>
                                <rect id="Rectangle-2-Copy-9" x="26.0399841" y="21.0983607" width="2.4412485" height="14.6065574"></rect>
                            </g>
                            <polygon id="Path-129-Copy-4" fill-opacity="0.2" fill="#00CF76" points="16.784986 105.983607 16.784986 109.333791 23.7842256 111.854025 23.7842256 108.760043"></polygon>
                            <polygon id="Path-129-Copy-6" fill-opacity="0.2" fill="#00CF76" points="16.784986 115.721311 16.784986 119.071496 23.7842256 121.59173 23.7842256 118.497748"></polygon>
                            <polygon id="Path-129-Copy-5" fill-opacity="0.2" fill="#00CF76" points="26.5499801 110.852459 26.5499801 114.202644 78.4705871 134.477137 78.4705871 131.383156"></polygon>
                            <polygon id="Path-129-Copy-7" fill-opacity="0.2" fill="#00CF76" points="26.5499801 120.590164 26.5499801 123.940349 78.4705871 144.214842 78.4705871 141.120861"></polygon>
                            <g id="Group-4" transform="translate(16.784986, 32.950820)" fill="#00CF76" fill-opacity="0.2">
                                <polygon id="Path-129" points="0 0 0 3.35018484 6.99923955 5.87041818 6.99923955 2.77643688"></polygon>
                                <polygon id="Path-129-Copy-2" points="0 8.1147541 0 11.4649389 6.99923955 13.9851723 6.99923955 10.891191"></polygon>
                                <polygon id="Path-129-Copy-4" points="0 16.2295082 0 19.579693 6.99923955 22.0999264 6.99923955 19.0059451"></polygon>
                                <polygon id="Path-129-Copy" points="9.76499402 3.24590164 9.76499402 6.59608648 40.7746251 18.7795222 40.7746251 15.6855409"></polygon>
                                <polygon id="Path-129-Copy-3" points="9.76499402 12.9836066 9.76499402 16.3337914 40.7746251 28.5172271 40.7746251 25.4232458"></polygon>
                                <polygon id="Path-129-Copy-5" points="9.76499402 21.0983607 9.76499402 24.4485455 40.7746251 36.6319812 40.7746251 33.5379999"></polygon>
                            </g>
                            <g id="Group-4-Copy-2" transform="translate(83.512445, 58.918033)" fill="#00CF76" fill-opacity="0.2">
                                <polygon id="Path-129" points="0 0 0 3.35018484 6.99923955 5.87041818 6.99923955 2.77643688"></polygon>
                                <polygon id="Path-129-Copy-2" points="0 8.1147541 0 11.4649389 6.99923955 13.9851723 6.99923955 10.891191"></polygon>
                                <polygon id="Path-129-Copy-4" points="0 16.2295082 0 19.579693 6.99923955 22.0999264 6.99923955 19.0059451"></polygon>
                                <polygon id="Path-129-Copy" points="9.76499402 3.24590164 9.76499402 6.59608648 40.7746251 18.7795222 40.7746251 15.6855409"></polygon>
                                <polygon id="Path-129-Copy-3" points="9.76499402 12.9836066 9.76499402 16.3337914 40.7746251 28.5172271 40.7746251 25.4232458"></polygon>
                                <polygon id="Path-129-Copy-5" points="9.76499402 21.0983607 9.76499402 24.4485455 40.7746251 36.6319812 40.7746251 33.5379999"></polygon>
                            </g>
                            <g id="Group-4-Copy" transform="translate(16.784986, 68.655738)" fill="#00CF76" fill-opacity="0.2">
                                <polygon id="Path-129" points="0 0 0 3.35018484 6.99923955 5.87041818 6.99923955 2.77643688"></polygon>
                                <polygon id="Path-129-Copy-2" points="0 8.1147541 0 11.4649389 6.99923955 13.9851723 6.99923955 10.891191"></polygon>
                                <polygon id="Path-129-Copy-4" points="0 16.2295082 0 19.579693 6.99923955 22.0999264 6.99923955 19.0059451"></polygon>
                                <polygon id="Path-129-Copy" points="9.76499402 3.24590164 9.76499402 6.59608648 40.7746251 18.7795222 40.7746251 15.6855409"></polygon>
                                <polygon id="Path-129-Copy-3" points="9.76499402 12.9836066 9.76499402 16.3337914 40.7746251 28.5172271 40.7746251 25.4232458"></polygon>
                                <polygon id="Path-129-Copy-5" points="9.76499402 21.0983607 9.76499402 24.4485455 40.7746251 36.6319812 40.7746251 33.5379999"></polygon>
                            </g>
                            <g id="Group-4-Copy-3" transform="translate(83.512445, 94.622951)" fill="#00CF76" fill-opacity="0.2">
                                <polygon id="Path-129" points="0 0 0 3.35018484 6.99923955 5.87041818 6.99923955 2.77643688"></polygon>
                                <polygon id="Path-129-Copy-2" points="0 8.1147541 0 11.4649389 6.99923955 13.9851723 6.99923955 10.891191"></polygon>
                                <polygon id="Path-129-Copy-4" points="0 16.2295082 0 19.579693 6.99923955 22.0999264 6.99923955 19.0059451"></polygon>
                                <polygon id="Path-129-Copy" points="9.76499402 3.24590164 9.76499402 6.59608648 40.7746251 18.7795222 40.7746251 15.6855409"></polygon>
                                <polygon id="Path-129-Copy-3" points="9.76499402 12.9836066 9.76499402 16.3337914 40.7746251 28.5172271 40.7746251 25.4232458"></polygon>
                                <polygon id="Path-129-Copy-5" points="9.76499402 21.0983607 9.76499402 24.4485455 40.7746251 36.6319812 40.7746251 33.5379999"></polygon>
                            </g>
                        </g>
                    </g>
                </g>
            </g>
        </g>
    </g>
</svg>