<?xml version="1.0" encoding="UTF-8" standalone="no"?>
<svg width="330px" height="299px" viewBox="0 0 330 299" version="1.1" xmlns="http://www.w3.org/2000/svg" xmlns:xlink="http://www.w3.org/1999/xlink">
    <!-- Generator: Sketch 50.2 (55047) - http://www.bohemiancoding.com/sketch -->
    <title>Group 28</title>
    <desc>Created with Sketch.</desc>
    <defs>
        <ellipse id="path-1" cx="164" cy="233.5" rx="139" ry="64.5"></ellipse>
        <filter x="-3.6%" y="-7.8%" width="107.2%" height="115.5%" filterUnits="objectBoundingBox" id="filter-2">
            <feMorphology radius="7" operator="erode" in="SourceAlpha" result="shadowSpreadInner1"></feMorphology>
            <feGaussianBlur stdDeviation="6" in="shadowSpreadInner1" result="shadowBlurInner1"></feGaussianBlur>
            <feOffset dx="0" dy="0" in="shadowBlurInner1" result="shadowOffsetInner1"></feOffset>
            <feComposite in="shadowOffsetInner1" in2="SourceAlpha" operator="arithmetic" k2="-1" k3="1" result="shadowInnerInner1"></feComposite>
            <feColorMatrix values="0 0 0 0 1   0 0 0 0 0.447058824   0 0 0 0 0.42745098  0 0 0 0.233384284 0" type="matrix" in="shadowInnerInner1"></feColorMatrix>
        </filter>
        <linearGradient x1="50%" y1="0%" x2="50%" y2="100%" id="linearGradient-3">
            <stop stop-color="#FF726D" stop-opacity="0.195397418" offset="0%"></stop>
            <stop stop-color="#FF726D" offset="100%"></stop>
        </linearGradient>
        <linearGradient x1="50%" y1="0%" x2="50%" y2="100%" id="linearGradient-4">
            <stop stop-color="#FFFFFF" stop-opacity="0" offset="0%"></stop>
            <stop stop-color="#FFD7D6" stop-opacity="0.265200408" offset="47.9836525%"></stop>
            <stop stop-color="#FF726D" stop-opacity="0.472231658" offset="100%"></stop>
        </linearGradient>
        <linearGradient x1="50%" y1="0%" x2="50%" y2="100%" id="linearGradient-5">
            <stop stop-color="#FF726D" offset="0%"></stop>
            <stop stop-color="#FF726D" stop-opacity="0.317198822" offset="100%"></stop>
        </linearGradient>
        <linearGradient x1="0%" y1="50%" x2="125.254774%" y2="50%" id="linearGradient-6">
            <stop stop-color="#FFD1D0" offset="0%"></stop>
            <stop stop-color="#FF726D" offset="100%"></stop>
        </linearGradient>
        <linearGradient x1="0%" y1="50%" x2="125.254774%" y2="50%" id="linearGradient-7">
            <stop stop-color="#FFCDCB" offset="0%"></stop>
            <stop stop-color="#FF726D" offset="100%"></stop>
        </linearGradient>
        <linearGradient x1="0%" y1="50%" x2="125.254774%" y2="50%" id="linearGradient-8">
            <stop stop-color="#FFC9C7" offset="0%"></stop>
            <stop stop-color="#FF726D" offset="100%"></stop>
        </linearGradient>
        <linearGradient x1="0%" y1="50%" x2="125.254774%" y2="50%" id="linearGradient-9">
            <stop stop-color="#FFBEBB" offset="0%"></stop>
            <stop stop-color="#FF726D" offset="100%"></stop>
        </linearGradient>
        <linearGradient x1="0%" y1="50%" x2="125.254774%" y2="50%" id="linearGradient-10">
            <stop stop-color="#FFCDCC" offset="0%"></stop>
            <stop stop-color="#FF726D" offset="100%"></stop>
        </linearGradient>
        <linearGradient x1="0%" y1="50%" x2="125.254774%" y2="50%" id="linearGradient-11">
            <stop stop-color="#FFC9C7" offset="0%"></stop>
            <stop stop-color="#FF726D" offset="100%"></stop>
        </linearGradient>
    </defs>
    <g id="官网" stroke="none" stroke-width="1" fill="none" fill-rule="evenodd">
        <g id="PAAS-2-Copy" transform="translate(-1131.000000, -4305.000000)">
            <g id="Group-39" transform="translate(388.000000, 4305.000000)">
                <g id="Group-28" transform="translate(743.000000, 0.000000)">
                    <g id="Oval-20-Copy">
                        <use fill="black" fill-opacity="1" filter="url(#filter-2)" xlink:href="#path-1"></use>
                        <use stroke="#FF726D" stroke-width="1" xlink:href="#path-1"></use>
                    </g>
                    <ellipse id="Oval-20" stroke="#FF726D" cx="164.5" cy="197.5" rx="117.5" ry="54.5"></ellipse>
                    <ellipse id="Oval-20-Copy-2" stroke="url(#linearGradient-3)" cx="165" cy="163.5" rx="109" ry="50.5"></ellipse>
                    <path d="M56.958935,174.438211 L0,0 L330,0 L272.904062,174.438211 C254.334826,200.812737 218.713258,214 166.039356,214 C113.365454,214 77.0053136,200.812737 56.958935,174.438211 Z" id="Path-67" fill="url(#linearGradient-4)"></path>
                    <g id="Group-25" opacity="0.627068015" transform="translate(68.000000, 131.000000)" stroke="url(#linearGradient-5)" stroke-width="0.5">
                        <ellipse id="Oval-7" opacity="0.618336397" cx="97.5" cy="33.2134328" rx="97.5" ry="33.2134328"></ellipse>
                        <ellipse id="Oval-7-Copy" opacity="0.618336397" cx="97.5" cy="36.4566269" rx="95.55" ry="32.5491642"></ellipse>
                        <ellipse id="Oval-7-Copy" opacity="0.618336397" cx="97.5" cy="39.6998209" rx="93.6" ry="31.8848955"></ellipse>
                        <ellipse id="Oval-7-Copy" opacity="0.618336397" cx="97.5" cy="42.9430149" rx="91.65" ry="31.2206269"></ellipse>
                        <ellipse id="Oval-7-Copy" opacity="0.618336397" cx="97.5" cy="46.186209" rx="89.7" ry="30.5563582"></ellipse>
                        <ellipse id="Oval-7-Copy" opacity="0.618336397" cx="97.5" cy="49.429403" rx="87.75" ry="29.8920896"></ellipse>
                        <ellipse id="Oval-7-Copy" opacity="0.618336397" cx="97.5" cy="52.672597" rx="85.8" ry="29.2278209"></ellipse>
                        <ellipse id="Oval-7-Copy" opacity="0.618336397" cx="97.5" cy="55.915791" rx="83.85" ry="28.5635522"></ellipse>
                        <ellipse id="Oval-7-Copy" opacity="0.618336397" cx="97.5" cy="59.1589851" rx="81.9" ry="27.8992836"></ellipse>
                        <ellipse id="Oval-7-Copy" opacity="0.618336397" cx="97.5" cy="62.4021791" rx="79.95" ry="27.2350149"></ellipse>
                        <ellipse id="Oval-7-Copy" opacity="0.618336397" cx="97.5" cy="65.6453731" rx="78" ry="26.5707463"></ellipse>
                        <ellipse id="Oval-7-Copy" opacity="0.618336397" cx="97.5" cy="68.8885672" rx="76.05" ry="25.9064776"></ellipse>
                        <ellipse id="Oval-7-Copy" opacity="0.618336397" cx="97.5" cy="72.1317612" rx="74.1" ry="25.242209"></ellipse>
                        <ellipse id="Oval-7-Copy" opacity="0.618336397" cx="97.5" cy="75.3749552" rx="72.15" ry="24.5779403"></ellipse>
                        <ellipse id="Oval-7-Copy" opacity="0.618336397" cx="97.5" cy="78.6181493" rx="70.2" ry="23.9136716"></ellipse>
                        <ellipse id="Oval-7-Copy" opacity="0.618336397" cx="97.5" cy="81.8613433" rx="68.25" ry="23.249403"></ellipse>
                        <ellipse id="Oval-7-Copy" opacity="0.618336397" cx="97.5" cy="85.1045373" rx="66.3" ry="22.5851343"></ellipse>
                        <ellipse id="Oval-7-Copy" opacity="0.618336397" cx="97.5" cy="88.3477313" rx="64.35" ry="21.9208657"></ellipse>
                        <ellipse id="Oval-7-Copy" opacity="0.618336397" cx="97.5" cy="91.5909254" rx="62.4" ry="21.256597"></ellipse>
                        <ellipse id="Oval-7-Copy" opacity="0.618336397" cx="97.5" cy="94.8341194" rx="60.45" ry="20.5923284"></ellipse>
                        <ellipse id="Oval-7-Copy" opacity="0.618336397" cx="97.5" cy="98.0773134" rx="58.5" ry="19.9280597"></ellipse>
                    </g>
                    <g id="Group-27" transform="translate(77.000000, 42.000000)">
                        <g id="Group-26" transform="translate(0.000000, 51.643836)">
                            <path d="M86,78.3561644 C133.496488,78.3561644 172,60.8155395 172,39.1780822 C172,17.5406249 133.496488,0 86,0 C38.5035115,0 0,17.5406249 0,39.1780822 C0,48.7551425 7.54314283,57.5296008 20.0705182,64.3357224" id="Oval-21" stroke="#FF726D" stroke-dasharray="1"></path>
                            <polygon id="Path-68" fill="#FFADAA" points="21.2600433 61.3458299 18.2994389 67.0108461 24.2582082 67.0108461"></polygon>
                        </g>
                        <g id="yunying" transform="translate(46.103093, 32.054795)" fill="#FF726D" fill-rule="nonzero">
                            <path d="M63.5828512,23.7196849 L46.5976043,38.7828811 L28.631204,25.4139994 C27.7434264,24.7534479 26.5590438,24.8421367 25.7617183,25.6294558 L11.411189,39.7924563 C10.4537783,40.7372392 10.3762606,42.3538417 11.2379922,43.4036329 C12.0996352,44.4531326 13.5741558,44.5382271 14.5313893,43.5934443 L27.5239847,30.7705861 L45.4099437,44.0794353 C45.7961541,44.3670465 46.2522895,44.5207325 46.7191521,44.5205477 C47.2531062,44.5208216 47.7709405,44.3199636 48.1859651,43.9515991 L66.5158572,27.6959133 C67.5172094,26.8078601 67.6725107,25.1979602 66.8625166,24.0998906 C66.0526111,23.001918 64.5843806,22.8314375 63.5828512,23.7196849 Z" id="Shape"></path>
                            <path d="M76.1290214,6.02696157 L43.1813399,6.02696157 L43.1813399,2.45604642 C43.1813399,1.10942487 42.0810797,-0.0252158088 40.7370461,0.000426303954 C39.4340968,0.0250646329 38.3853971,1.09090049 38.3853971,2.40202461 L38.3853971,6.02696157 L5.43771566,6.02696157 C2.43454652,6.02696157 0,8.46569987 0,11.4740398 L0,56.3305815 C0,59.3389215 2.43454652,61.777751 5.43771566,61.777751 L38.3855793,61.777751 L38.3855793,64.5168944 L23.4942621,75.820321 C22.4386391,76.621523 22.2313952,78.1281111 23.0312201,79.1855517 C23.8312271,80.2427185 25.3350435,80.450593 26.3905754,79.6492998 L38.3854882,70.544251 C38.3854882,70.544251 39.1645431,69.9720942 39.8440298,69.5010459 C40.4036695,69.1124387 41.1457773,69.114369 41.7033948,69.5058823 L43.181431,70.5441597 L55.1762527,79.6492086 C55.5921368,79.9659257 56.1002565,80.1372362 56.6226785,80.136865 C57.3475311,80.136865 58.0639118,79.8088102 58.5356992,79.1855517 C59.335524,78.1282024 59.1282801,76.621523 58.0726571,75.820321 L43.181431,64.5167119 L43.181431,61.7775685 L76.1291125,61.7775685 C79.1323727,61.7775685 81.5670103,59.338739 81.5670103,56.330399 L81.5670103,11.4738573 C81.5669192,8.46551736 79.1322816,6.02687031 76.1290214,6.02687031 L76.1290214,6.02696157 Z M76.7709764,56.330399 C76.7706248,56.6853907 76.4834029,56.9730663 76.1290214,56.9733681 L5.43771566,56.9733681 C5.08339047,56.9729658 4.7962533,56.6853343 4.79585169,56.330399 L4.79585169,11.4738573 C4.7962533,11.1189221 5.08339047,10.8312905 5.43771566,10.8308882 L76.1291125,10.8308882 C76.4834732,10.8312402 76.7706658,11.1188865 76.7710675,11.4738573 L76.7710675,56.3302165 L76.7709764,56.330399 Z" id="Shape"></path>
                        </g>
                        <ellipse id="Oval-22" fill="url(#linearGradient-6)" cx="30.1443299" cy="23.1506849" rx="5.31958763" ry="5.34246575"></ellipse>
                        <ellipse id="Oval-22-Copy-3" fill="url(#linearGradient-7)" cx="49.6494845" cy="115.753425" rx="5.31958763" ry="5.34246575"></ellipse>
                        <ellipse id="Oval-22-Copy-4" fill="url(#linearGradient-8)" cx="33.6907216" cy="74.7945205" rx="1.77319588" ry="1.78082192"></ellipse>
                        <ellipse id="Oval-22-Copy-5" fill="url(#linearGradient-9)" cx="141.85567" cy="97.9452055" rx="1.77319588" ry="1.78082192"></ellipse>
                        <ellipse id="Oval-22-Copy" fill="url(#linearGradient-10)" cx="99.2989691" cy="3.56164384" rx="3.54639175" ry="3.56164384"></ellipse>
                        <ellipse id="Oval-22-Copy-2" fill="url(#linearGradient-11)" cx="143.628866" cy="44.5205479" rx="3.54639175" ry="3.56164384"></ellipse>
                    </g>
                </g>
            </g>
        </g>
    </g>
</svg>