<?xml version="1.0" encoding="UTF-8" standalone="no"?>
<svg width="445px" height="288px" viewBox="0 0 445 288" version="1.1" xmlns="http://www.w3.org/2000/svg" xmlns:xlink="http://www.w3.org/1999/xlink">
    <!-- Generator: Sketch 50.2 (55047) - http://www.bohemiancoding.com/sketch -->
    <title>Group 23</title>
    <desc>Created with Sketch.</desc>
    <defs>
        <linearGradient x1="10.8732855%" y1="82.3595658%" x2="79.5662325%" y2="7.37768977%" id="linearGradient-1">
            <stop stop-color="#7BB0FF" offset="0%"></stop>
            <stop stop-color="#A8CBFF" offset="100%"></stop>
        </linearGradient>
        <linearGradient x1="10.8732855%" y1="82.3595658%" x2="79.5662325%" y2="7.37768977%" id="linearGradient-2">
            <stop stop-color="#7BB0FF" offset="0%"></stop>
            <stop stop-color="#9EC5FF" offset="100%"></stop>
        </linearGradient>
        <linearGradient x1="10.8732855%" y1="82.3595658%" x2="79.5662325%" y2="7.37768977%" id="linearGradient-3">
            <stop stop-color="#7BB0FF" offset="0%"></stop>
            <stop stop-color="#A5C9FF" offset="100%"></stop>
        </linearGradient>
        <linearGradient x1="3.09352864%" y1="65.3165278%" x2="91.5999187%" y2="24.4653761%" id="linearGradient-4">
            <stop stop-color="#7BB0FF" offset="0%"></stop>
            <stop stop-color="#A8CAFD" offset="100%"></stop>
        </linearGradient>
        <linearGradient x1="41.8218726%" y1="10.0802516%" x2="100%" y2="100%" id="linearGradient-5">
            <stop stop-color="#EFF6FF" stop-opacity="0.34949615" offset="0%"></stop>
            <stop stop-color="#7BB0FF" stop-opacity="0.591457201" offset="100%"></stop>
        </linearGradient>
        <radialGradient cx="50%" cy="50%" fx="50%" fy="50%" r="64.8777129%" id="radialGradient-6">
            <stop stop-color="#FFFFFF" stop-opacity="0" offset="0%"></stop>
            <stop stop-color="#FFFFFF" stop-opacity="0.271427763" offset="100%"></stop>
        </radialGradient>
        <circle id="path-7" cx="25" cy="25" r="25"></circle>
        <filter x="-8.0%" y="-8.0%" width="116.0%" height="116.0%" filterUnits="objectBoundingBox" id="filter-9">
            <feMorphology radius="3" operator="erode" in="SourceAlpha" result="shadowSpreadInner1"></feMorphology>
            <feGaussianBlur stdDeviation="2.5" in="shadowSpreadInner1" result="shadowBlurInner1"></feGaussianBlur>
            <feOffset dx="0" dy="0" in="shadowBlurInner1" result="shadowOffsetInner1"></feOffset>
            <feComposite in="shadowOffsetInner1" in2="SourceAlpha" operator="arithmetic" k2="-1" k3="1" result="shadowInnerInner1"></feComposite>
            <feColorMatrix values="0 0 0 0 0.482352941   0 0 0 0 0.690196078   0 0 0 0 1  0 0 0 0.160637455 0" type="matrix" in="shadowInnerInner1"></feColorMatrix>
        </filter>
        <circle id="path-10" cx="15.5" cy="15.5" r="15.5"></circle>
        <filter x="-11.3%" y="-11.3%" width="122.6%" height="122.6%" filterUnits="objectBoundingBox" id="filter-12">
            <feMorphology radius="2" operator="erode" in="SourceAlpha" result="shadowSpreadInner1"></feMorphology>
            <feGaussianBlur stdDeviation="2.5" in="shadowSpreadInner1" result="shadowBlurInner1"></feGaussianBlur>
            <feOffset dx="0" dy="0" in="shadowBlurInner1" result="shadowOffsetInner1"></feOffset>
            <feComposite in="shadowOffsetInner1" in2="SourceAlpha" operator="arithmetic" k2="-1" k3="1" result="shadowInnerInner1"></feComposite>
            <feColorMatrix values="0 0 0 0 0.482352941   0 0 0 0 0.690196078   0 0 0 0 1  0 0 0 0.160637455 0" type="matrix" in="shadowInnerInner1"></feColorMatrix>
        </filter>
        <circle id="path-13" cx="37.5" cy="37.5" r="37.5"></circle>
        <filter x="-5.3%" y="-5.3%" width="110.7%" height="110.7%" filterUnits="objectBoundingBox" id="filter-15">
            <feMorphology radius="3" operator="erode" in="SourceAlpha" result="shadowSpreadInner1"></feMorphology>
            <feGaussianBlur stdDeviation="2.5" in="shadowSpreadInner1" result="shadowBlurInner1"></feGaussianBlur>
            <feOffset dx="0" dy="0" in="shadowBlurInner1" result="shadowOffsetInner1"></feOffset>
            <feComposite in="shadowOffsetInner1" in2="SourceAlpha" operator="arithmetic" k2="-1" k3="1" result="shadowInnerInner1"></feComposite>
            <feColorMatrix values="0 0 0 0 0.482352941   0 0 0 0 0.690196078   0 0 0 0 1  0 0 0 0.160637455 0" type="matrix" in="shadowInnerInner1"></feColorMatrix>
        </filter>
        <circle id="path-16" cx="15.5" cy="15.5" r="15.5"></circle>
        <filter x="-11.3%" y="-11.3%" width="122.6%" height="122.6%" filterUnits="objectBoundingBox" id="filter-18">
            <feMorphology radius="2" operator="erode" in="SourceAlpha" result="shadowSpreadInner1"></feMorphology>
            <feGaussianBlur stdDeviation="2.5" in="shadowSpreadInner1" result="shadowBlurInner1"></feGaussianBlur>
            <feOffset dx="0" dy="0" in="shadowBlurInner1" result="shadowOffsetInner1"></feOffset>
            <feComposite in="shadowOffsetInner1" in2="SourceAlpha" operator="arithmetic" k2="-1" k3="1" result="shadowInnerInner1"></feComposite>
            <feColorMatrix values="0 0 0 0 0.482352941   0 0 0 0 0.690196078   0 0 0 0 1  0 0 0 0.160637455 0" type="matrix" in="shadowInnerInner1"></feColorMatrix>
        </filter>
    </defs>
    <g id="官网" stroke="none" stroke-width="1" fill="none" fill-rule="evenodd">
        <g id="PAAS-2-Copy" transform="translate(-1050.000000, -5212.000000)">
            <g id="Group-42" transform="translate(388.000000, 5212.000000)">
                <g id="Group-23" transform="translate(662.000000, 0.000000)">
                    <g id="Group-18" transform="translate(82.000000, 18.000000)">
                        <path d="M86.8128461,8.27471161 L92.1274417,21.8036891 M89.8975618,7.1768388 L94.9752348,20.7965082 M93.1284383,6.11443076 L97.7276984,19.9030117 M96.2643215,5.17258176 L100.622237,19.0393308 M99.5444829,4.2737489 L103.415801,18.2841398 M102.723647,3.49029318 L106.349861,17.566114 M106.044816,2.75730485 L109.177582,16.9511041 M109.259265,2.13421342 L112.143837,16.3805252 M112.488123,1.5908297 L115.123624,15.8853144 M115.85471,1.10776085 L117.989735,15.4855154 M119.106757,0.726931087 L120.99053,15.1397572 M122.493366,0.413523218 L123.872991,14.8833122 M125.760422,0.19620588 L126.887305,14.6878688 M129.158508,0.0532510802 L129.778952,14.5754137 M132.432356,-6.65964766e-06 L132.799259,14.5307724 M135.833343,0.027853437 L135.692906,14.5625855 M139.105749,0.138789771 L138.711668,14.6688572 M142.374392,0.330638461 L141.726786,14.8516152 M145.76379,0.612247265 L144.609803,15.1017771 M149.01871,0.967721332 L147.612022,15.4349045 M152.389702,1.41917457 L150.478974,15.828452 M155.622714,1.93738057 L153.4608,16.3111166 M158.966794,2.55754011 L156.304561,16.8470703 M162.169766,3.23717524 L159.258552,17.4780667 M165.354928,3.99582784 L162.195619,18.1837427 M168.64337,4.86383244 L164.990835,18.9328461 M171.786499,5.7812137 L167.888982,19.784339 M175.027217,6.81325558 L170.643372,20.6718292 M178.120407,7.8870588 L173.495365,21.6670131 M181.305222,9.08053467 L176.202084,22.6906829 M184.340695,10.3080597 L179.000804,23.8270729 M187.344855,11.6102877 L181.769838,25.0340481 M190.431689,13.0381186 L184.391585,26.2591362 M193.366793,14.4893189 L187.096871,27.6029085 M196.378044,16.0703591 L189.654283,28.9571432 M199.236709,17.6668823 L192.289067,30.4343578 M202.164777,19.3971431 L194.775789,31.9143718 M204.939813,21.1349742 L197.333494,33.5213409 M207.777309,23.0100902 L199.743347,35.1234547 M210.461736,24.8848589 L202.217589,36.8561666 M213.098951,26.8254461 L204.647132,38.6510503 M215.788566,28.9070904 L206.929188,40.4305265 M218.325181,30.9774521 L209.26604,42.3445156 M220.90688,33.1915363 L211.456554,44.2355159 M223.336516,35.3864658 L213.694884,46.2638324 M225.803784,37.7274035 L215.788411,48.2616559 M228.120328,40.0413807 L217.922633,50.3992363 M230.378911,42.4119391 L220.001999,52.5902428 M232.664565,44.9304707 L221.938757,54.7404251 M234.801468,47.4112819 L223.906086,57.0325511 M236.957777,50.0414191 L225.733255,59.2765839 M238.967624,52.6262442 L227.583636,61.6641075 M240.989145,55.3613506 L229.296675,63.9964128 M242.866882,58.0436887 L231.02549,66.473374 M244.677681,60.7716382 L232.690974,68.9933788 M246.489416,63.6499678 L234.223077,71.44837 M248.16118,66.465273 L235.760608,74.0484103 M249.826099,69.4309581 L237.168433,76.5767022 M251.354623,72.3265386 L238.574175,79.2502876 M252.868522,75.3720957 L239.854224,81.8455958 M254.249961,78.340669 L241.124667,84.5860523 M255.557536,81.3424873 L242.325244,87.3578515 M256.839899,84.4925133 L243.405734,90.0424127 M257.995341,87.5561156 L244.466363,92.8707112 M259.117909,90.766573 L245.411696,95.6057766 M260.118311,93.8842544 L246.32973,98.4835146 M261.078252,97.147042 L247.137559,101.262286 M261.921098,100.310961 L247.910707,104.18228 M262.715987,103.617846 L248.579023,106.99785 M263.399155,106.820046 L249.205356,109.952811 M264.0029,110.038146 L249.756588,112.922719 M264.548759,113.395108 L250.210456,115.780735 M264.990411,116.639436 L250.612656,118.774461 M265.367011,120.019585 L250.923504,121.651533 M265.645459,123.28198 L251.17567,124.661606 M265.851849,126.676787 L251.342726,127.550583 M265.966391,129.949044 L251.444228,130.569488 M265.999953,133.223114 L251.469174,133.590017 M265.952397,136.623829 L251.417665,136.483392 M265.821777,139.895471 L251.29171,139.50139 M265.603511,143.289521 L251.096049,142.388587 M265.309036,146.550507 L250.819506,145.39652 M264.920611,149.929325 L250.480181,148.270364 M264.46302,153.171452 L250.053743,151.260724 M263.925374,156.401249 L249.551638,154.239335 M263.285859,159.741628 L248.996329,157.079395 M262.586967,162.940416 L248.346075,160.029202 M261.780517,166.244479 L247.649901,162.838039 M260.922136,169.404214 L246.853122,165.751679 M259.950785,172.663624 L246.017813,168.522312 M258.935073,175.776358 L245.076499,171.392513 M257.801271,178.982889 L244.104133,174.118057 M256.630782,182.040792 L243.020634,176.937654 M255.385016,185.068789 L241.866003,179.728898 M254.015068,188.181735 L240.690649,182.37329 M252.619061,191.143477 L239.398044,185.103373 M251.094518,194.183713 L238.092351,187.685882 M249.551782,197.07175 L236.664998,190.34799 M247.87649,200.031606 L235.232212,192.862199 M246.190904,202.838674 L233.673676,195.449686 M244.436407,205.603172 L232.050041,197.996853 M242.544893,208.429717 L230.431529,200.395755 M240.654005,211.102786 L228.682697,202.85864 M238.622934,213.830794 L226.946635,205.173877 M236.600409,216.405711 L225.076973,207.546333 M234.434905,219.028295 L223.227677,209.772151 M232.285831,221.498583 L221.241851,212.048257 M230.076321,223.914941 L219.198954,214.27331 M227.721139,226.368572 L217.186887,216.353199 M225.393262,228.671127 L215.035407,218.473432 M222.917832,231.003406 L212.922181,220.450439 M220.477443,233.186367 L210.667489,222.460559 M217.888011,235.391407 L208.458358,224.32977 M215.341247,237.449283 L206.106082,226.224761 M212.644346,239.521519 L203.806537,227.981532 M209.997612,241.449134 L201.36255,229.756664 M207.304021,243.310679 L198.874335,231.469287 M204.460001,245.175842 L196.44871,233.047472 M201.676466,246.900012 L193.878064,234.633673 M198.742364,248.620016 L191.376802,236.088989 M195.875886,250.202474 L188.730142,237.544809 M192.859106,251.772977 L186.159461,238.87364 M189.916893,253.209744 L183.443393,240.195446 M186.940057,254.573283 L180.694673,241.447989 M183.8145,255.914242 L178.030987,242.578983 M180.773042,257.126833 L175.223142,243.692668 M177.58408,258.309155 L172.506407,244.689485 M174.48565,259.367745 L169.646446,245.661533 M171.24133,260.388446 L166.883414,246.521697 M168.09372,261.290374 L163.978476,247.349681 M164.924782,262.114161 L161.053463,248.10377 M161.613356,262.889873 L158.233352,248.75291 M158.407097,263.553758 L155.274331,249.359959 M155.060884,264.162211 L152.425383,249.867726 M151.825368,264.664523 L149.439741,250.32622 M148.452812,265.10418 L146.569038,250.691354 M145.196176,265.443656 L143.564228,251.000149 M141.932159,265.70247 L140.552533,251.232681 M138.536223,265.889192 L137.662426,251.38007 M135.263328,265.984046 L134.642883,251.461884 M131.862287,266.000007 L131.749037,251.465038 M128.588746,265.930663 L128.729183,251.395931 M125.191183,265.77582 L125.83879,251.254843 M121.92523,265.542451 L122.826164,251.034988 M118.539719,265.217194 L119.946407,250.750011 M115.289567,264.820387 L116.948527,250.379957 M112.050243,264.343306 L113.960972,249.934029 M108.698475,263.766288 L111.110916,249.432471 M105.487136,263.12741 L108.149369,248.83788 M102.16856,262.382808 L105.327869,248.194893 M98.9932829,261.583739 L102.399724,247.453123 M95.7162737,260.673432 L99.6137909,246.670307 M92.5850447,259.716181 L96.7263565,245.78321 M89.4784715,258.681774 L93.8623164,244.823201 M86.278567,257.529439 L91.1433986,243.832302 M83.2277523,256.34059 L88.330891,242.730441 M80.0897388,255.029021 L85.6647561,241.60526 M77.102356,253.688718 L82.9108012,240.3643 M74.0341527,252.221224 L80.304075,239.107634 M71.1177157,250.732839 L77.6155467,237.730672 M68.2390064,249.172776 L74.9627669,236.285992 M65.2889098,247.480397 L72.4583166,234.836119 M62.4920258,245.777975 L69.8810138,233.260747 M59.6306242,243.939586 L67.451956,231.687854 M56.9226004,242.099086 L64.9565631,229.985721 M54.1571153,240.119324 L62.6089343,228.29372 M51.5447628,238.145375 L60.2016798,226.469076 M48.8821737,236.029236 L57.941314,224.662172 M46.3720632,233.926801 L55.6282064,222.719572 M43.914742,231.762931 L53.3650686,220.718951 M41.4175347,229.453992 L51.2475337,218.746551 M39.0717812,227.169646 L49.0871536,216.635393 M36.6936608,224.738214 L47.0705723,214.559911 M34.4653752,222.339138 L45.0183421,212.343486 M32.2123438,219.791349 L43.1077254,210.17008 M30.1071308,217.283575 L41.1687673,207.853922 M28.064608,214.724508 L39.2891298,205.489344 M26.0080297,212.015694 L37.5480164,203.177885 M24.0963662,209.357442 L35.7888364,200.72238 M22.1784002,206.548764 L34.165107,198.327024 M20.4024046,203.798014 L32.5307749,195.786722 M18.6278921,200.89656 L31.0284642,193.313422 M16.9920316,198.060228 L29.523059,190.694666 M15.4268427,195.184316 L28.0845084,188.038572 M13.8738409,192.15854 L26.7731787,185.458895 M12.4547965,189.207771 L25.4690946,182.734271 M11.0556899,186.107816 L24.2879819,180.092452 M9.78635961,183.089612 L23.1216189,177.3061 M8.54467998,179.923302 L22.0736575,174.608706 M7.42825691,176.845253 L21.0479264,171.76758 M6.34713865,173.620577 L20.1357196,169.021317 M5.38643119,170.490425 L19.2531802,166.132509 M4.50345227,167.337483 L18.4441454,163.222239 M3.66602829,164.041137 L17.7418491,160.414923 M2.94222604,160.847888 L17.0791892,157.467883 M2.27138411,157.513638 L16.5176959,154.629065 M1.70857956,154.288113 L16.0030643,151.652612 M1.20601367,150.924373 L15.5837682,148.789348 M0.805622857,147.674683 L15.2184489,145.79091 M0.485743012,144.416103 L14.9292503,142.784155 M0.235632644,141.024262 L14.7272955,139.897379 M0.0795185065,137.753736 L14.5886411,136.879939 M4.65782555e-05,134.353603 L14.5308257,133.986699 M0.00809142196,131.079357 L14.5430607,130.966107 M0.0994596341,127.679512 L14.629527,128.073594 M0.271643791,124.409782 L14.7926205,125.057388 M0.524656091,121.145331 L15.0321189,122.046265 M0.869513506,117.761814 L15.3366966,119.168502 M1.28586659,114.514145 L15.7262962,116.173106 M1.80019599,111.152201 L16.173932,113.314115 M2.37884334,107.929484 L16.7126596,110.341925 M3.06134796,104.597597 L17.3022394,107.508812 M3.80083479,101.407936 L17.9887496,104.567245 M4.618992,98.2375625 L18.7496084,101.644003 M5.54826031,94.9659328 L19.5513856,98.8634499 M6.52433244,91.8405558 L20.457304,95.9818676 M7.61671913,88.6197046 L21.3966734,93.2447473 M8.74825189,85.547185 L22.4453893,90.4120166 M10.0010015,82.3852407 L23.5200147,87.7251319 M11.2851495,79.3733063 L24.7089098,84.9483236 M12.6951017,76.2782484 L25.9161193,82.318352 M14.1286357,73.3344748 L27.2422254,79.604397 M74.5463697,13.531502 L81.2460147,26.4308398 M77.6196826,12.0747548 L83.8650659,25.200049 M80.6136174,10.7491473 L86.6289815,23.9814393 M83.7562141,9.44855999 L89.3061135,22.8827245" id="Path-44" stroke-opacity="0.508803216" stroke="#7BB0FF"></path>
                        <circle id="Oval-34" stroke="#7BB0FF" stroke-width="6" cx="132.5" cy="132.5" r="96.5"></circle>
                        <circle id="Oval-34" stroke="#7BB0FF" opacity="0.421357996" cx="132.5" cy="132.5" r="109.5"></circle>
                        <path d="M23.5117274,133.51438 C22.6768234,133.51438 22,132.836369 22,132 C22,131.163631 22.6768234,130.48562 23.5117274,130.48562 C24.3466313,130.48562 25.0234547,131.163631 25.0234547,132 C25.0234547,132.836369 24.3466313,133.51438 23.5117274,133.51438 Z M27.9381964,101.086284 C27.1397737,100.842182 26.6907555,99.9959123 26.9352862,99.1960886 C27.1798168,98.3962649 28.0252975,97.9457637 28.8237202,98.189866 C29.6221428,98.4339683 30.071161,99.2802375 29.8266303,100.080061 C29.5820997,100.879885 28.736619,101.330386 27.9381964,101.086284 Z M41.7091678,71.407127 C41.017001,70.9402546 40.835028,69.9996831 41.3027196,69.3063017 C41.7704112,68.6129203 42.7106622,68.4292985 43.402829,68.8961709 C44.0949958,69.3630433 44.2769688,70.3036148 43.8092772,70.9969961 C43.3415855,71.6903775 42.4013345,71.8739993 41.7091678,71.407127 Z M63.6004388,47.1137506 C63.0750167,46.4649084 63.1759915,45.5122316 63.8259724,44.9858875 C64.4759532,44.4595434 65.4288055,44.5588478 65.9542276,45.20769 C66.4796497,45.8565323 66.3786749,46.8092091 65.7286941,47.3355532 C65.0787133,47.8618973 64.1258609,47.7625929 63.6004388,47.1137506 Z M91.656704,30.3396937 C91.3575012,29.5602437 91.7479273,28.6853972 92.5287451,28.3856694 C93.3095628,28.0859415 94.1850925,28.4748331 94.4842953,29.2542831 C94.7834982,30.0337331 94.3930721,30.9085797 93.6122543,31.2083075 C92.8314366,31.5080354 91.9559069,31.1191437 91.656704,30.3396937 Z M123.410835,22.6200804 C123.352595,21.7872103 123.981741,21.0647399 124.816073,21.0063977 C125.650405,20.9480556 126.373977,21.5759346 126.432217,22.4088048 C126.490457,23.241675 125.86131,23.9641453 125.026979,24.0224875 C124.192647,24.0808297 123.469075,23.4529506 123.410835,22.6200804 Z M156.024741,24.6195076 C156.212554,23.8060022 157.02544,23.2990451 157.840373,23.4871872 C158.655306,23.6753293 159.163687,24.487325 158.975875,25.3008305 C158.788062,26.1143359 157.975176,26.6212931 157.160243,26.433151 C156.34531,26.2450088 155.836929,25.4330131 156.024741,24.6195076 Z M186.600587,36.1596641 C187.018039,35.4366161 187.943625,35.1894754 188.667942,35.6076599 C189.392259,36.0258444 189.641022,36.9509962 189.22357,37.6740443 C188.806118,38.3970923 187.880532,38.644233 187.156215,38.2260485 C186.431898,37.807864 186.183135,36.8827122 186.600587,36.1596641 Z M212.421814,56.2145466 C213.032424,55.6451435 213.989823,55.6794169 214.560226,56.2910985 C215.130628,56.9027801 215.098033,57.8602385 214.487423,58.4296416 C213.876813,58.9990448 212.919413,58.9647713 212.349011,58.3530897 C211.778609,57.7414081 211.811203,56.7839497 212.421814,56.2145466 Z M231.1945,83.0016778 C231.944907,82.63568 232.850452,82.9483725 233.217092,83.700096 C233.583732,84.4518196 233.272628,85.3579117 232.522221,85.7239095 C231.771814,86.0899074 230.866269,85.7772149 230.499629,85.0254914 C230.132989,84.2737678 230.444093,83.3676757 231.1945,83.0016778 Z M241.25115,114.140533 C242.075775,114.009925 242.85033,114.57371 242.981167,115.399782 C243.112004,116.225854 242.549578,117.001396 241.724953,117.132004 C240.900328,117.262611 240.125773,116.698826 239.994936,115.872754 C239.864099,115.046682 240.426525,114.27114 241.25115,114.140533 Z M241.724953,146.867996 C242.549578,146.998604 243.112004,147.774146 242.981167,148.600218 C242.85033,149.42629 242.075775,149.990075 241.25115,149.859467 C240.426525,149.72886 239.864099,148.953318 239.994936,148.127246 C240.125773,147.301174 240.900328,146.737389 241.724953,146.867996 Z M232.522221,178.27609 C233.272628,178.642088 233.583732,179.54818 233.217092,180.299904 C232.850452,181.051627 231.944907,181.36432 231.1945,180.998322 C230.444093,180.632324 230.132989,179.726232 230.499629,178.974509 C230.866269,178.222785 231.771814,177.910093 232.522221,178.27609 Z M214.487423,205.570358 C215.098033,206.139762 215.130628,207.09722 214.560226,207.708901 C213.989823,208.320583 213.032424,208.354857 212.421814,207.785453 C211.811203,207.21605 211.778609,206.258592 212.349011,205.64691 C212.919413,205.035229 213.876813,205.000955 214.487423,205.570358 Z M189.22357,226.325956 C189.641022,227.049004 189.392259,227.974156 188.667942,228.39234 C187.943625,228.810525 187.018039,228.563384 186.600587,227.840336 C186.183135,227.117288 186.431898,226.192136 187.156215,225.773951 C187.880532,225.355767 188.806118,225.602908 189.22357,226.325956 Z M158.975875,238.69917 C159.163687,239.512675 158.655306,240.324671 157.840373,240.512813 C157.02544,240.700955 156.212554,240.193998 156.024741,239.380492 C155.836929,238.566987 156.34531,237.754991 157.160243,237.566849 C157.975176,237.378707 158.788062,237.885664 158.975875,238.69917 Z M126.432217,241.591195 C126.373977,242.424065 125.650405,243.051944 124.816073,242.993602 C123.981741,242.93526 123.352595,242.21279 123.410835,241.37992 C123.469075,240.547049 124.192647,239.91917 125.026979,239.977512 C125.86131,240.035855 126.490457,240.758325 126.432217,241.591195 Z M94.4842953,234.745717 C94.1850925,235.525167 93.3095628,235.914059 92.5287451,235.614331 C91.7479273,235.314603 91.3575012,234.439756 91.656704,233.660306 C91.9559069,232.880856 92.8314366,232.491965 93.6122543,232.791692 C94.3930721,233.09142 94.7834982,233.966267 94.4842953,234.745717 Z M65.9542276,218.79231 C65.4288055,219.441152 64.4759532,219.540457 63.8259724,219.014112 C63.1759915,218.487768 63.0750167,217.535092 63.6004388,216.886249 C64.1258609,216.237407 65.0787133,216.138103 65.7286941,216.664447 C66.3786749,217.190791 66.4796497,218.143468 65.9542276,218.79231 Z M43.402829,195.103829 C42.7106622,195.570701 41.7704112,195.38708 41.3027196,194.693698 C40.835028,194.000317 41.017001,193.059745 41.7091678,192.592873 C42.4013345,192.126001 43.3415855,192.309622 43.8092772,193.003004 C44.2769688,193.696385 44.0949958,194.636957 43.402829,195.103829 Z M28.8237202,165.810134 C28.0252975,166.054236 27.1798168,165.603735 26.9352862,164.803911 C26.6907555,164.004088 27.1397737,163.157818 27.9381964,162.913716 C28.736619,162.669614 29.5820997,163.120115 29.8266303,163.919939 C30.071161,164.719762 29.6221428,165.566032 28.8237202,165.810134 Z" id="Oval-35" fill="#94BFFF" opacity="0.554917279"></path>
                        <path d="M59.3679907,90.1405977 C52.1391026,102.594115 48,117.063688 48,132.5 C48,179.168061 85.8319386,217 132.5,217 C179.168061,217 217,179.168061 217,132.5 C217,85.8319386 179.168061,48 132.5,48" id="Oval-34" stroke="url(#linearGradient-1)" stroke-width="5" stroke-dasharray="32,3"></path>
                        <path d="M64.5607961,93.1483659 C57.8452018,104.717609 54,118.159757 54,132.5 C54,175.854353 89.1456471,211 132.5,211 C175.854353,211 211,175.854353 211,132.5 C211,89.1456471 175.854353,54 132.5,54" id="Oval-34" stroke="url(#linearGradient-2)" stroke-width="5" stroke-dasharray="29.5,3"></path>
                        <path d="M69.7536015,96.1561341 C63.551301,106.841104 60,119.255827 60,132.5 C60,172.540644 92.4593556,205 132.5,205 C172.540644,205 205,172.540644 205,132.5 C205,92.4593556 172.540644,60 132.5,60" id="Oval-34" stroke="url(#linearGradient-3)" stroke-width="5" stroke-dasharray="27,3"></path>
                        <path d="M133,194 C166.68937,194 194,166.68937 194,133 C194,99.3106303 166.68937,72 133,72 C99.3106303,72 72,99.3106303 72,133 C72,166.68937 99.3106303,194 133,194 Z" id="Oval-34" stroke="url(#linearGradient-4)" stroke-width="2" stroke-dasharray="2,3"></path>
                        <g id="yun" transform="translate(106.000000, 115.000000)" fill="#7BB0FF" fill-rule="nonzero">
                            <path d="M44.2518226,34 L9.1988488,34 C3.95436439,34 0,29.8095094 0,24.2506338 C0,19.5441957 2.80509462,15.7801389 6.93061496,14.7735561 C7.97032757,9.73455989 12.4213098,6.04183133 17.6582024,6.04183133 C19.2068156,6.04183133 20.7319125,6.36843011 22.1289974,6.99428818 C24.7628126,2.64891501 29.424453,0 34.5824028,0 C42.6206249,0 49.1635002,6.53854899 49.1635002,14.5800912 C49.1635002,14.9903671 49.1463414,15.400643 49.1129496,15.8023791 C52.1075934,17.5333034 54,20.751493 54,24.2506339 C54.0000618,29.6274102 49.6280224,34 44.2518226,34 Z" id="Shape"></path>
                        </g>
                        <path d="M131,133 L31,81.0872823 C39.8313267,63.0609123 52.6091762,48.7103723 69.3335485,38.0356622 C86.0579208,27.3609521 105.182466,21.3490647 126.707185,20 L131,133 Z" id="Path-46" fill="url(#linearGradient-5)" opacity="0.463752298"></path>
                    </g>
                    <circle id="Oval-6" fill="#7BB0FF" opacity="0.812844669" cx="109.5" cy="181.5" r="2.5"></circle>
                    <g id="Group-19" opacity="0.887580423" transform="translate(0.000000, 238.000000)">
                        <mask id="mask-8" fill="white">
                            <use xlink:href="#path-7"></use>
                        </mask>
                        <g id="Mask">
                            <use fill="url(#radialGradient-6)" fill-rule="evenodd" xlink:href="#path-7"></use>
                            <use fill="black" fill-opacity="1" filter="url(#filter-9)" xlink:href="#path-7"></use>
                            <circle stroke-opacity="0.22" stroke="#7BB0FF" stroke-width="1" stroke-linejoin="square" cx="25" cy="25" r="24.5"></circle>
                        </g>
                        <g id="keji" transform="translate(11.000000, 11.000000)" fill="#7BB0FF" fill-rule="nonzero">
                            <path d="M14.5133474,21 L14.5120357,21 C14.3024305,21 14.0898872,20.9979837 13.8803345,20.994178 C10.2215041,20.9266585 6.78439879,20.2827658 4.20182156,19.1811064 C1.45890553,18.0109193 -0.0332525365,16.4342794 0.000562367693,14.7419313 C0.0334066346,13.0973686 1.51173968,11.6064701 4.16352073,10.5440521 C6.64874567,9.54837239 9.96032398,9 13.4880396,9 C13.6971726,9 13.9096897,9.00194065 14.1195572,9.00569594 C17.7784662,9.07306423 21.2155716,9.71695696 23.7983062,10.8188936 C26.541091,11.9890807 28.0333541,13.5655442 27.9994342,15.2577915 C27.9666949,16.9026062 26.488047,18.3933787 23.8363709,19.4558218 C21.3516706,20.451552 18.0402497,21 14.5133736,21 M13.4880396,10.1333651 C10.1125042,10.1333651 6.96220905,10.6507375 4.61754288,11.5901636 C2.45582872,12.4562986 1.20305079,13.6129263 1.17996536,14.7637573 C1.15625033,15.9533005 2.43219239,17.1859412 4.68068677,18.145177 C7.1225216,19.1869787 10.3978453,19.7963682 13.902869,19.8608885 C14.1049189,19.8647194 14.3098021,19.8665341 14.5121144,19.8665341 L14.5133211,19.8665341 C17.8882007,19.8665341 21.0379187,19.3491617 23.3825062,18.4098868 C25.5439318,17.5438022 26.7968671,16.3870737 26.8198738,15.2361419 C26.8436413,14.0464223 25.5676993,12.813832 23.3192573,11.854823 C20.8771864,10.8127692 17.6019677,10.2035562 14.0970227,10.1389854 C13.8940514,10.1352631 13.6910479,10.1333896 13.4880396,10.1333651" id="Shape"></path>
                            <path d="M19.6318638,26 C18.1392324,26 16.3269172,25.131313 14.3905776,23.488114 C12.4775446,21.8646041 10.6113266,19.6288767 8.99424202,17.022977 C7.05429544,13.8971006 5.71025626,10.6091446 5.21002195,7.76530947 C4.67840949,4.74486282 5.16386277,2.53360588 6.57721639,1.53891363 C7.08527001,1.18147338 7.68798778,1 8.36824287,1 C9.86089947,1 11.6734165,1.86847209 13.6095038,3.51188602 C15.5226629,5.13553021 17.3888053,7.371177 19.0058646,9.97718421 C20.9456599,13.1031143 22.2895225,16.3906674 22.7900847,19.2346368 C23.3215458,22.2553252 22.8359917,24.4663941 21.4227389,25.4611132 C20.9146349,25.8186609 20.3121946,26 19.6318638,26 M8.36824287,2.20794228 C7.91419296,2.20794228 7.52204176,2.32199438 7.20271106,2.54676781 C6.20915371,3.24601516 5.88924288,5.06711507 6.32487956,7.54292667 C6.79802373,10.2321495 8.08215687,13.3623773 9.94068169,16.3568493 C11.4930173,18.8585818 13.2763254,20.9976899 15.0975445,22.543437 C16.8059385,23.9934513 18.4164397,24.7920577 19.631889,24.7920577 C20.0859137,24.7920577 20.4781406,24.6779788 20.7973452,24.4534471 C21.7908521,23.754146 22.1109899,21.9330461 21.6750758,19.4570733 C21.2020325,16.7680117 19.9179498,13.6378376 18.0595511,10.6432313 C16.5070894,8.1415256 14.7239074,6.00225633 12.9025622,4.45661669 C11.1939916,3.00665617 9.58376784,2.20794228 8.36824287,2.20794228" id="Shape"></path>
                            <path d="M8.66579432,27 C8.07558296,27 7.5317985,26.8661353 7.04588532,26.5950619 C5.45376211,25.7075638 4.754572,23.5014541 5.07671945,20.3825754 C5.38003642,17.4463766 6.54890652,13.9843119 8.36821308,10.6345686 C10.3538827,6.97872345 12.9092557,3.87248023 15.379134,2.11233969 C15.6540159,1.91644875 16.0336017,1.98332631 16.2268848,2.26166302 C16.4201949,2.54021901 16.3542341,2.92454569 16.0792711,3.12043663 C13.7556267,4.77642359 11.3336633,7.73183599 9.43438127,11.2289566 C7.69156004,14.4380378 6.57368918,17.7343613 6.28671361,20.5110132 C6.02273506,23.0673256 6.51316647,24.8914658 7.63228188,25.5151538 C8.75137023,26.1389241 10.5347203,25.5824151 12.5250975,23.9881254 C14.6866266,22.2566545 16.8369277,19.535615 18.5796948,16.3265613 C20.4789768,12.8295503 21.6468729,9.17521263 21.7837998,6.30029997 C21.8001683,5.96032079 22.0851417,5.69790861 22.4208439,5.71435391 C22.7563837,5.73079921 23.0154111,6.01968833 22.9992862,6.35966751 C22.8537287,9.41567034 21.6314514,13.2650493 19.6458089,16.9208122 C17.8266105,20.2706378 15.5656533,23.1239248 13.2796698,24.9551091 C11.5929072,26.3062002 10.009117,27 8.66579432,27" id="Shape"></path>
                            <path d="M17,3.00005307 C17,3.78546284 17.3232443,4.56591074 17.8785866,5.12145548 C18.4339554,5.67678796 19.2145498,6 20.0000796,6 C20.7855563,6 21.5659915,5.67678796 22.1213869,5.12145548 C22.6768618,4.56591074 23,3.78540978 23,3.00005307 C23,2.21459022 22.6768618,1.43398312 22.1213869,0.878650652 C21.5659915,0.323424316 20.7855563,0 20.0000796,0 C19.2145498,0 18.4339289,0.323424316 17.8785866,0.878597584 C17.3232178,1.43395659 17.0000265,2.21456369 17.0000265,3" id="Shape"></path>
                        </g>
                    </g>
                    <g id="Group-20" opacity="0.397920496" transform="translate(35.000000, 52.000000)">
                        <mask id="mask-11" fill="white">
                            <use xlink:href="#path-10"></use>
                        </mask>
                        <g id="Mask">
                            <use fill="url(#radialGradient-6)" fill-rule="evenodd" xlink:href="#path-10"></use>
                            <use fill="black" fill-opacity="1" filter="url(#filter-12)" xlink:href="#path-10"></use>
                            <circle stroke-opacity="0.223562047" stroke="#7BB0FF" stroke-width="1" stroke-linejoin="square" cx="15.5" cy="15.5" r="15"></circle>
                        </g>
                        <g id="jiankong-2" transform="translate(8.000000, 9.000000)" fill="#7BB0FF" fill-rule="nonzero">
                            <path d="M14.2666667,0 L1.73333333,0 C0.8,0 0,0.791208792 0,1.71428571 L0,10.2857143 C0,11.2087912 0.8,12 1.73333333,12 L14.2666667,12 C15.2,12 16,11.2087912 16,10.2857143 L16,1.71428571 C16,0.791208792 15.2,0 14.2666667,0 Z M15,10.2857143 C15,10.6813187 14.6666667,11.010989 14.2666667,11.010989 L1.73333333,11.010989 C1.33333333,11.010989 1,10.6813187 1,10.2857143 L1,1.71428571 C1,1.31868131 1.33333333,0.989010989 1.73333333,0.989010989 L14.2666667,0.989010989 C14.6666667,0.989010989 15,1.31868131 15,1.71428571 L15,10.2857143 Z" id="Shape"></path>
                            <path d="M3.46666667,4.58947368 L4.53333333,4.58947368 L4.53333333,9.70526316 L3.46666667,9.70526316 L3.46666667,4.58947368 Z M6.13333333,7.11578948 L7.2,7.11578948 L7.2,9.64210526 L6.13333333,9.64210526 L6.13333333,7.11578948 Z M8.8,2 L9.86666667,2 L9.86666667,9.64210526 L8.8,9.64210526 L8.8,2 Z M11.4666667,5.85263157 L12.5333333,5.85263157 L12.5333333,9.70526316 L11.4666667,9.70526316 L11.4666667,5.85263157 Z M2,12.9894737 L14,12.9894737 L14,14 L2,14 L2,12.9894737 Z" id="Shape"></path>
                        </g>
                    </g>
                    <g id="Group-21" opacity="0.525677849" transform="translate(370.000000, 0.000000)">
                        <mask id="mask-14" fill="white">
                            <use xlink:href="#path-13"></use>
                        </mask>
                        <g id="Mask">
                            <use fill="url(#radialGradient-6)" fill-rule="evenodd" xlink:href="#path-13"></use>
                            <use fill="black" fill-opacity="1" filter="url(#filter-15)" xlink:href="#path-13"></use>
                            <circle stroke-opacity="0.223562047" stroke="#7BB0FF" stroke-width="1" stroke-linejoin="square" cx="37.5" cy="37.5" r="37"></circle>
                        </g>
                        <g id="jiankong-3" mask="url(#mask-14)" fill="#7BB0FF" fill-rule="nonzero">
                            <g transform="translate(21.000000, 17.000000)" id="Shape">
                                <path d="M23.64945,35.75 L28.05,35.75 C28.9611712,35.7501374 29.6997474,36.4776344 29.6997474,37.375 C29.6997474,38.2723656 28.9611712,38.9998626 28.05,39 L4.95,39 C4.03882881,38.9998626 3.30025259,38.2723656 3.30025259,37.375 C3.30025259,36.4776344 4.03882881,35.7501374 4.95,35.75 L9.35054999,35.75 L10.7877,31.500625 C4.30463548,29.1424715 -0.000418291499,23.0563957 0,16.25 C1.64868119e-15,7.27512501 7.38705001,0 16.5,0 C25.61295,0 33,7.27512501 33,16.25 C33,23.24725 28.5087,29.211 22.2123,31.500625 L23.64945,35.75 Z M16.5,29.25 C23.7901587,29.25 29.7,23.4297017 29.7,16.25 C29.7,9.07029824 23.7901587,3.24999999 16.5,3.24999999 C9.2098413,3.24999999 3.3,9.07029824 3.3,16.25 C3.3,23.4297017 9.2098413,29.25 16.5,29.25 Z M16.5,26 C12.8549206,26 9.89999999,23.0898509 9.89999999,19.5 C9.89999999,15.9101491 12.8549206,13 16.5,13 C20.1450793,13 23.0999999,15.9101492 23.0999999,19.5 C23.0999999,23.0898508 20.1450793,26 16.5,26 Z M16.5,22.75 C17.6789765,22.75 18.7683957,22.1305535 19.3578839,21.125 C19.9473721,20.1194465 19.9473721,18.8805535 19.3578839,17.875 C18.7683957,16.8694465 17.6789765,16.25 16.5,16.25 C14.6774603,16.25 13.2,17.7050746 13.2,19.5 C13.2,21.2949254 14.6774603,22.75 16.5,22.75 Z M17.325,11.375 C15.9580952,11.375 14.85,10.2836941 14.85,8.93750001 C14.85,7.59130593 15.9580952,6.50000001 17.325,6.50000001 C18.6919047,6.50000001 19.8,7.59130593 19.8,8.93750001 C19.8,10.2836941 18.6919047,11.375 17.325,11.375 Z M19.2753,32.5 L13.6983,32.5 L12.6258,35.75 L20.37585,35.75 L19.2753,32.5 Z"></path>
                            </g>
                        </g>
                    </g>
                    <g id="Group-22" opacity="0.662454044" transform="translate(368.000000, 252.000000)">
                        <mask id="mask-17" fill="white">
                            <use xlink:href="#path-16"></use>
                        </mask>
                        <g id="Mask">
                            <use fill="url(#radialGradient-6)" fill-rule="evenodd" xlink:href="#path-16"></use>
                            <use fill="black" fill-opacity="1" filter="url(#filter-18)" xlink:href="#path-16"></use>
                            <circle stroke-opacity="0.223562047" stroke="#7BB0FF" stroke-width="1" stroke-linejoin="square" cx="15.5" cy="15.5" r="15"></circle>
                        </g>
                        <g id="monitor" transform="translate(7.000000, 7.000000)" fill="#7BB0FF" fill-rule="nonzero">
                            <path d="M9,3 C7.39734615,3 5.89061538,3.56605979 4.75736538,4.59389417 C3.62411538,5.62171111 3,6.98828485 3,8.44185884 C3,8.75010974 3.27551923,9 3.61538462,9 C3.95525,9 4.23076923,8.75010974 4.23076923,8.44185884 C4.23076923,7.28645432 4.72684615,6.20020698 5.62765385,5.38321042 C6.52844231,4.56621386 7.72609615,4.11626487 9,4.11626487 C10.2739038,4.11626487 11.4715577,4.56619641 12.3723462,5.38321042 C13.2731346,6.20020698 13.7692308,7.28645432 13.7692308,8.44185884 C13.7692308,8.75010974 14.04475,9 14.3846154,9 C14.7244808,9 15,8.75010974 15,8.44185884 C15,6.98828485 14.3758846,5.62171111 13.2426346,4.59387673 C12.1093846,3.56604234 10.6026538,3 9,3 Z" id="Shape"></path>
                            <path d="M8.5,0 C3.80557143,0 0,3.76804624 0,8.41618497 C0,10.1069176 0.503643973,11.6811387 1.37032143,13 L15.6296975,13 C16.496356,11.6811387 17,10.1069176 17,8.41618497 C17,3.76804624 13.1944286,0 8.5,0 Z M14.9373839,11.7976879 L2.06261607,11.7976879 C1.50596094,10.7609379 1.21428571,9.60399422 1.21428571,8.41618497 C1.21428571,7.44178613 1.40675,6.49718208 1.78632812,5.60857948 C2.15321317,4.74969653 2.67871429,3.97809393 3.3482221,3.31520665 C4.01771094,2.65230058 4.79699777,2.132 5.66443415,1.76871387 C6.56188616,1.39287861 7.51589732,1.20231214 8.5,1.20231214 C9.48410268,1.20231214 10.4381138,1.39287861 11.3355658,1.76871387 C12.2030022,2.13198121 12.9822891,2.65230058 13.6517779,3.31520665 C14.3212857,3.97809393 14.8467679,4.74969653 15.2136719,5.60857948 C15.59325,6.49718208 15.7857143,7.44178613 15.7857143,8.41618497 C15.7857143,9.60399422 15.4940391,10.7609379 14.9373839,11.7976879 Z" id="Shape"></path>
                            <path d="M8.62620703,8.25240721 C8.45449156,8.25232268 8.2842917,8.28453103 8.12448067,8.34735312 L6.93809023,7.16096715 C6.7234866,6.94632997 6.37555636,6.94636432 6.16095273,7.16094997 C5.94634909,7.3755528 5.94634909,7.72349891 6.16095273,7.93808456 L7.34736033,9.12448771 C7.284538,9.28429814 7.25232953,9.45449737 7.25241407,9.62621219 C7.25241407,10.384938 7.86747835,11 8.62620703,11 C9.38493572,11 10,10.384938 10,9.62621219 C10,8.86748636 9.38491854,8.25240721 8.62620703,8.25240721 Z" id="Shape"></path>
                        </g>
                    </g>
                </g>
            </g>
        </g>
    </g>
</svg>