<?xml version="1.0" encoding="UTF-8" standalone="no"?>
<svg width="470px" height="384px" viewBox="0 0 470 384" version="1.1" xmlns="http://www.w3.org/2000/svg" xmlns:xlink="http://www.w3.org/1999/xlink">
    <!-- Generator: Sketch 50.2 (55047) - http://www.bohemiancoding.com/sketch -->
    <title>Group 4</title>
    <desc>Created with Sketch.</desc>
    <defs>
        <linearGradient x1="50%" y1="0%" x2="50%" y2="100%" id="linearGradient-1">
            <stop stop-color="#FFFFFF" stop-opacity="0.0748980978" offset="0%"></stop>
            <stop stop-color="#FFBE93" offset="100%"></stop>
        </linearGradient>
        <ellipse id="path-2" cx="206" cy="216.22" rx="206" ry="71.78"></ellipse>
        <filter x="-4.9%" y="-13.9%" width="109.7%" height="127.9%" filterUnits="objectBoundingBox" id="filter-3">
            <feGaussianBlur stdDeviation="13.5" in="SourceAlpha" result="shadowBlurInner1"></feGaussianBlur>
            <feOffset dx="0" dy="-12" in="shadowBlurInner1" result="shadowOffsetInner1"></feOffset>
            <feComposite in="shadowOffsetInner1" in2="SourceAlpha" operator="arithmetic" k2="-1" k3="1" result="shadowInnerInner1"></feComposite>
            <feColorMatrix values="0 0 0 0 1   0 0 0 0 0.737254902   0 0 0 0 0.564705882  0 0 0 0.262171649 0" type="matrix" in="shadowInnerInner1"></feColorMatrix>
        </filter>
        <ellipse id="path-4" cx="203.091765" cy="68.295" rx="68.253584" ry="68.295"></ellipse>
        <filter x="-6.1%" y="-6.1%" width="112.2%" height="112.2%" filterUnits="objectBoundingBox" id="filter-5">
            <feGaussianBlur stdDeviation="8" in="SourceAlpha" result="shadowBlurInner1"></feGaussianBlur>
            <feOffset dx="0" dy="0" in="shadowBlurInner1" result="shadowOffsetInner1"></feOffset>
            <feComposite in="shadowOffsetInner1" in2="SourceAlpha" operator="arithmetic" k2="-1" k3="1" result="shadowInnerInner1"></feComposite>
            <feColorMatrix values="0 0 0 0 1   0 0 0 0 0.738708196   0 0 0 0 0.566366793  0 0 0 1 0" type="matrix" in="shadowInnerInner1"></feColorMatrix>
        </filter>
        <linearGradient x1="50%" y1="0%" x2="50%" y2="100%" id="linearGradient-6">
            <stop stop-color="#FFFFFF" stop-opacity="0.0748980978" offset="0%"></stop>
            <stop stop-color="#FFA163" offset="100%"></stop>
        </linearGradient>
        <ellipse id="path-7" cx="205.515294" cy="197.79" rx="153.167059" ry="53.35"></ellipse>
        <filter x="-6.5%" y="-18.7%" width="113.1%" height="137.5%" filterUnits="objectBoundingBox" id="filter-8">
            <feGaussianBlur stdDeviation="13.5" in="SourceAlpha" result="shadowBlurInner1"></feGaussianBlur>
            <feOffset dx="0" dy="-12" in="shadowBlurInner1" result="shadowOffsetInner1"></feOffset>
            <feComposite in="shadowOffsetInner1" in2="SourceAlpha" operator="arithmetic" k2="-1" k3="1" result="shadowInnerInner1"></feComposite>
            <feColorMatrix values="0 0 0 0 1   0 0 0 0 0.639215686   0 0 0 0 0.392156863  0 0 0 0.314424819 0" type="matrix" in="shadowInnerInner1"></feColorMatrix>
        </filter>
        <linearGradient x1="50%" y1="0%" x2="50%" y2="100%" id="linearGradient-9">
            <stop stop-color="#EEEEEE" stop-opacity="0" offset="0%"></stop>
            <stop stop-color="#FCDAC2" offset="100%"></stop>
        </linearGradient>
        <linearGradient x1="50%" y1="0%" x2="50%" y2="98.6836163%" id="linearGradient-10">
            <stop stop-color="#FFF0E6" offset="0%"></stop>
            <stop stop-color="#FBB282" offset="100%"></stop>
        </linearGradient>
        <linearGradient x1="50%" y1="0%" x2="50%" y2="100%" id="linearGradient-11">
            <stop stop-color="#FFA163" stop-opacity="0.148522418" offset="0%"></stop>
            <stop stop-color="#FFA163" offset="100%"></stop>
        </linearGradient>
        <linearGradient x1="6.37802113%" y1="1.08802307%" x2="106.053299%" y2="96.3727319%" id="linearGradient-12">
            <stop stop-color="#C8C8C8" stop-opacity="0" offset="0%"></stop>
            <stop stop-color="#FFA163" stop-opacity="0.3" offset="100%"></stop>
        </linearGradient>
    </defs>
    <g id="官网" stroke="none" stroke-width="1" fill="none" fill-rule="evenodd">
        <g id="PAAS-2-Copy" transform="translate(-1054.000000, -2541.000000)">
            <g id="Group-32" transform="translate(388.000000, 2542.000000)">
                <g id="Group-4" transform="translate(658.000000, 0.000000)">
                    <g id="Group-3" transform="translate(65.000000, 0.000000)">
                        <g id="Oval-4">
                            <use fill="black" fill-opacity="1" filter="url(#filter-3)" xlink:href="#path-2"></use>
                            <use stroke="url(#linearGradient-1)" stroke-width="1" xlink:href="#path-2"></use>
                        </g>
                        <g id="Oval-5">
                            <use fill="black" fill-opacity="1" filter="url(#filter-5)" xlink:href="#path-4"></use>
                            <use stroke="#FFA163" stroke-width="0.6" xlink:href="#path-4"></use>
                        </g>
                        <g id="Oval-4-Copy">
                            <use fill="black" fill-opacity="1" filter="url(#filter-8)" xlink:href="#path-7"></use>
                            <use stroke="url(#linearGradient-6)" stroke-width="1" xlink:href="#path-7"></use>
                        </g>
                        <g id="Group-2" transform="translate(92.094118, 140.560000)">
                            <path d="M114.875294,77.6 C178.319167,77.6 229.750588,62.834351 229.750588,44.62 C229.750588,42.5006892 229.750588,38.1952861 229.750588,31.7037907 C188.081032,18.3279302 149.789267,11.64 114.875294,11.64 C79.7124396,11.64 41.4206749,18.3279302 0,31.7037907 C0,38.2667384 0,42.5721415 0,44.62 C0,62.834351 51.431421,77.6 114.875294,77.6 Z" id="Oval-4-Copy-3" fill="#FFBE93"></path>
                            <ellipse id="Oval-4-Copy-2" fill="#FFE8D8" cx="114.875294" cy="32.98" rx="114.875294" ry="32.98"></ellipse>
                        </g>
                        <path d="M130.326589,175.039654 C127.949355,172.506908 90.0004922,129.650357 16.48,46.47 L394.015902,46.47 C321.293839,131.396127 284.540227,174.252678 283.755068,175.039654 C282.577328,176.220118 273.468607,189.895028 208.640892,193.221537 C141.174536,190.129693 133.892439,178.838773 130.326589,175.039654 Z" id="Path-60" fill="url(#linearGradient-9)" opacity="0.504250919"></path>
                        <g id="管理系统_智能检测" transform="translate(128.931765, 35.800000)">
                            <ellipse id="Oval-16" stroke="url(#linearGradient-11)" stroke-width="0.8" fill="url(#linearGradient-10)" opacity="0.504250919" cx="78.0376471" cy="134.83" rx="78.0376471" ry="22.31"></ellipse>
                            <polygon id="Shape" fill="#FFA163" fill-rule="nonzero" points="64.9505882 39.77 83.3694118 39.77 83.3694118 42.68 64.9505882 42.68"></polygon>
                            <path d="M56.5052044,3.88 C55.8155478,3.88 55.2564706,4.41298465 55.2564706,5.07045455 L55.2564706,28.8795455 C55.2564706,29.5342955 55.8184008,30.07 56.5052044,30.07 L90.8453838,30.07 C91.5350405,30.07 92.0941176,29.5370153 92.0941176,28.8795455 L92.0941176,5.07045455 C92.0941176,4.41298465 91.5350405,3.88 90.8453838,3.88 L56.5052044,3.88 Z M56.4033803,0 L90.947208,0 C93.722194,0 95.9717647,2.17141896 95.9717647,4.85 L95.9717647,29.1 C95.9717647,31.778581 93.722194,33.95 90.947208,33.95 L56.4033803,33.95 C55.070785,33.95 53.7927693,33.4390193 52.8504821,32.5294679 C51.908195,31.6199165 51.3788235,30.3863 51.3788235,29.1 L51.3788235,4.85 C51.3788235,2.17141896 53.6283942,6.73072709e-16 56.4033803,0 Z" id="Shape" fill="#FFA163" fill-rule="nonzero"></path>
                            <path d="M65.7724808,23.3866641 C65.4201041,23.9269037 64.8268317,24.2509605 64.1919182,24.2499979 L61.0307928,24.2499979 C59.9832881,24.2499979 59.1341176,23.3813963 59.1341176,22.3099219 C59.1341176,21.2384475 59.9832881,20.3698459 61.0307928,20.3698459 L63.1771969,20.3698459 L68.9336062,11.5327999 C69.2854812,10.9937173 69.8773128,10.67 70.5110077,10.67 C71.1447026,10.67 71.7365342,10.9937173 72.0884092,11.5327999 L77.8511407,20.3698459 L86.3197955,20.3698459 C87.3673002,20.369846 88.2164706,21.2384476 88.2164706,22.3099219 C88.2164706,23.3813962 87.3673002,24.2499978 86.3197955,24.2499979 L76.8364195,24.2499979 C76.201506,24.2509605 75.6082335,23.9269037 75.2558568,23.3866641 L70.5141688,16.1081457 L65.7724808,23.3834306 L65.7724808,23.3866641 Z" id="Shape" fill="#FFA163" fill-rule="nonzero"></path>
                        </g>
                        <text id="CC云管理系统" font-family="PingFangSC-Medium, PingFang SC" font-size="12" font-weight="400" fill="#FFA163">
                            <tspan x="166.112706" y="101.896321">CC云管理系统</tspan>
                        </text>
                        <path d="M15.0258824,43.075 L132.324706,176.935" id="Path-59" stroke="url(#linearGradient-12)"></path>
                        <path d="M283.552941,40.165 L396.974118,174.995" id="Path-59-Copy" stroke="url(#linearGradient-12)" transform="translate(340.263529, 107.580000) scale(-1, 1) translate(-340.263529, -107.580000) "></path>
                    </g>
                    <circle id="Oval-17" stroke="#FFA163" cx="139.5" cy="103.5" r="20.5"></circle>
                    <g id="镜像" transform="translate(128.000000, 92.000000)" fill="#FFA163" fill-rule="nonzero">
                        <path d="M8.625,19.1304348 L8.625,2.86956522 L0,19.1304348 L8.625,19.1304348 Z M7.1875,17.7753623 L2.325875,17.7753623 L7.1875,8.60965217 L7.1875,17.7753623 Z" id="Shape"></path>
                        <polygon id="Shape" points="14.375 2.86956522 14.375 19.1304348 23 19.1304348"></polygon>
                        <polygon id="Shape" points="10.5416667 0 12.4583333 0 12.4583333 1.91304348 10.5416667 1.91304348 10.5416667 0"></polygon>
                        <polygon id="Shape" points="10.5416667 15.3043478 12.4583333 15.3043478 12.4583333 18.173913 10.5416667 18.173913 10.5416667 15.3043478"></polygon>
                        <polygon id="Shape" points="10.5416667 9.56521739 12.4583333 9.56521739 12.4583333 12.4347826 10.5416667 12.4347826 10.5416667 9.56521739"></polygon>
                        <polygon id="Shape" points="10.5416667 3.82608696 12.4583333 3.82608696 12.4583333 6.69565217 10.5416667 6.69565217 10.5416667 3.82608696"></polygon>
                        <polygon id="Shape" points="10.5416667 20.0869565 12.4583333 20.0869565 12.4583333 22 10.5416667 22 10.5416667 20.0869565"></polygon>
                    </g>
                    <path d="M33,224 C44.5979797,224 54,214.59798 54,203 C54,191.40202 44.5979797,182 33,182 C21.4020203,182 12,191.40202 12,203 C12,214.59798 21.4020203,224 33,224 Z" id="Oval-17-Copy" stroke="#FFA263" stroke-dasharray="2"></path>
                    <ellipse id="Oval-17-Copy-2" stroke="#FFA163" cx="228.5" cy="264" rx="23.5" ry="24"></ellipse>
                    <g id="集群" transform="translate(217.000000, 253.000000)" fill="#FFA163" fill-rule="nonzero">
                        <path d="M21.5625,23 L17.9681111,23 C17.1744938,22.9992955 16.5313156,22.3561173 16.5306111,21.5625 L16.5306111,17.9681111 C16.5313156,17.1744938 17.1744938,16.5313156 17.9681111,16.5306111 L19.0465556,16.5306111 L19.0465556,14.375 L12.2181111,14.375 L12.2181111,16.5306111 L13.2965556,16.5306111 C14.0901729,16.5313156 14.7333511,17.1744938 14.7340556,17.9681111 L14.7340556,21.5625 C14.7333511,22.3561173 14.0901729,22.9992955 13.2965556,23 L9.70344444,23 C8.90982711,22.9992955 8.26664894,22.3561173 8.26594444,21.5625 L8.26594444,17.9681111 C8.26664894,17.1744938 8.90982711,16.5313156 9.70344444,16.5306111 L10.7818889,16.5306111 L10.7818889,14.375 L3.95344444,14.375 L3.95344444,16.5306111 L5.03188888,16.5306111 C5.82550621,16.5313156 6.46868438,17.1744938 6.46938888,17.9681111 L6.46938888,21.5625 C6.46868438,22.3561173 5.82550621,22.9992955 5.03188888,23 L1.4375,23 C0.643882669,22.9992955 0.000704500087,22.3561173 0,21.5625 L0,17.9681111 C0.000704500087,17.1744938 0.643882669,16.5313156 1.4375,16.5306111 L2.51594444,16.5306111 L2.51594444,14.375 C2.51664894,13.5813827 3.15982711,12.9382045 3.95344444,12.9375 L10.7818889,12.9375 L10.7818889,10.0625 L5.75,10.0625 C4.95638267,10.0617955 4.3132045,9.41861733 4.3125,8.625 L4.3125,1.4375 C4.3132045,0.643882669 4.95638267,0.000704500087 5.75,0 L17.25,0 C18.0436173,0.000704500087 18.6867955,0.643882669 18.6875,1.4375 L18.6875,8.625 C18.6867955,9.41861733 18.0436173,10.0617955 17.25,10.0625 L12.2181111,10.0625 L12.2181111,12.9375 L19.0465556,12.9375 C19.8401729,12.9382045 20.4833511,13.5813827 20.4840556,14.375 L20.4840556,16.5306111 L21.5625,16.5306111 C22.3561173,16.5313156 22.9992955,17.1744938 23,17.9681111 L23,21.5625 C22.9992955,22.3561173 22.3561173,22.9992955 21.5625,23 Z M1.4375,17.9681111 L1.4375,21.5625 L5.03188888,21.5625 L5.03188888,17.9681111 L1.4375,17.9681111 Z M17.25,8.625 L17.25,1.4375 L5.75,1.4375 L5.75,8.625 L17.25,8.625 Z M9.70344444,17.9681111 L9.70344444,21.5625 L13.2978333,21.5625 L13.2978333,17.9681111 L9.70344444,17.9681111 Z M21.5625,17.9681111 L17.9681111,17.9681111 L17.9681111,21.5625 L21.5612222,21.5625 L21.5612222,17.9681111 L21.5625,17.9681111 Z M10.7806111,5.75 L7.90561112,5.75 L7.90561112,4.3125 L10.7806111,4.3125 L10.7806111,5.75 Z M15.0931111,5.75 L12.2181111,5.75 L12.2181111,4.3125 L15.0931111,4.3125 L15.0931111,5.75 Z" id="Shape"></path>
                    </g>
                    <path d="M432,144 C443.59798,144 453,134.59798 453,123 C453,111.40202 443.59798,102 432,102 C420.40202,102 411,111.40202 411,123 C411,134.59798 420.40202,144 432,144 Z" id="Oval-17-Copy-3" stroke="#FFA163" stroke-dasharray="2"></path>
                    <g id="弹性伸缩" transform="translate(423.000000, 113.000000)" fill="#FFA163" fill-rule="nonzero">
                        <path d="M17.4352875,0 L1.56479607,0 C0.700408655,0 0,0.708512526 0,1.58255944 L0,8.05264047 L0,8.30765005 L0,16.4173349 C0,17.2915931 0.700617545,18 1.56479607,18 L2.70690294,18 L2.71713856,17.987746 C2.75860325,17.9956689 2.80125862,18 2.84497933,18 L11.1157548,18 L14.3199208,18 L17.4353084,18 C18.2995913,18 19,17.2913818 19,16.4173349 L19,1.58253831 C18.9999582,0.708406889 18.2993616,0 17.4352875,0 Z M17.6310175,15.8238619 C17.6310175,16.260991 17.2809177,16.6153001 16.8484106,16.6153001 L14.3198999,16.6153001 L12.2842654,16.6153001 L3.86440501,16.6153001 L2.84497933,16.6153001 L2.15146405,16.6153001 C1.71937478,16.6153001 1.36896156,16.2613079 1.36896156,15.8238619 L1.36896156,8.30765005 L1.36896156,8.05264047 L1.36896156,2.17603243 C1.36896156,1.73890334 1.71906145,1.38459426 2.15146405,1.38459426 L16.8484106,1.38459426 C17.2806043,1.38459426 17.6310175,1.73869206 17.6310175,2.17603243 L17.6310175,15.8238619 Z M5.19764636,3.98009315 L6.53590107,4.03001756 C6.92569008,4.00001643 7.21761406,3.65605985 7.18795166,3.26181969 C7.15835192,2.86764292 6.8182161,2.57232197 6.42848976,2.60232309 L3.15559897,2.48024808 C2.76580996,2.51024921 2.47384421,2.85420579 2.50350661,3.24844595 C2.50361105,3.2497136 2.50386172,3.25087562 2.50396616,3.25214327 C2.50402883,3.25336867 2.50396616,3.25457294 2.50407061,3.25584059 L2.50515684,3.26169293 C2.50954353,3.3085961 2.51810803,3.35408372 2.53085033,3.39771212 L3.11866719,6.50948392 C3.14826693,6.90372408 3.48834008,7.19902391 3.87812909,7.16904391 C4.2679181,7.13904278 4.55984208,6.7950862 4.53022146,6.40090942 L4.28304175,5.09231098 L6.99673362,7.84523128 C7.2673508,8.12612211 7.71191081,8.13199557 7.98963025,7.85826698 C8.2673497,7.58455951 8.27309418,7.13496516 8.002477,6.85403208 L5.19764636,3.98009315 Z M13.8209658,3.98009315 L12.482711,4.03001756 C12.092922,4.00001643 11.8009981,3.65605985 11.8306605,3.26181969 C11.8602184,2.86764292 12.2002916,2.57232197 12.5900806,2.60232309 L15.8629714,2.48024808 C16.2527604,2.51024921 16.5447888,2.85420579 16.5151264,3.24844595 C16.5150219,3.2497136 16.5147086,3.25087562 16.5147086,3.25214327 C16.5146042,3.25336867 16.5147086,3.25457294 16.5144997,3.25584059 L16.5134553,3.26169293 C16.5090686,3.3085961 16.5005041,3.35408372 16.4877618,3.39771212 L15.8999449,6.50948392 C15.8702825,6.90372408 15.5302094,7.19902391 15.1404204,7.16904391 C14.7506313,7.13904278 14.4587074,6.7950862 14.4883698,6.40090942 L14.7355913,5.09231098 L12.0218994,7.84523128 C11.7512822,8.12612211 11.3066595,8.13193219 11.0290445,7.85826698 C10.7512206,7.58455951 10.7455806,7.13492291 11.0160933,6.85403208 L13.8209658,3.98009315 Z M5.19764636,14.0508376 L6.53590107,14.0009766 C6.92569008,14.0309777 7.21761406,14.3749343 7.18795166,14.7691744 C7.15835192,15.1634146 6.8182161,15.4586722 6.42848976,15.4287767 L3.15559897,15.5506827 C2.76580996,15.5207872 2.47384421,15.1768306 2.50350661,14.7825904 C2.50361105,14.7813228 2.50386172,14.7801608 2.50396616,14.7788931 C2.50402883,14.7776255 2.50396616,14.7763578 2.50407061,14.7751958 L2.50515684,14.7692801 C2.50954353,14.7223769 2.51810803,14.676847 2.53085033,14.6333243 L3.11866719,11.5214468 C3.14826693,11.1272067 3.48834008,10.8319491 3.87812909,10.8619502 C4.2679181,10.8919513 4.55984208,11.2359079 4.53022146,11.6301481 L4.28304175,12.9386831 L6.99673362,10.1857628 C7.2673508,9.90487201 7.71191081,9.89906194 7.98963025,10.1727694 C8.2673497,10.4464769 8.27309418,10.8960712 8.002477,11.176962 L5.19764636,14.0508376 Z M13.8209658,14.0508376 L12.482711,14.0009766 C12.092922,14.0309777 11.8009981,14.3749343 11.8306605,14.7691744 C11.8602184,15.1634146 12.2002916,15.4586722 12.5900806,15.4287767 L15.8629714,15.5506827 C16.2527604,15.5207872 16.5447888,15.1768306 16.5151264,14.7825904 C16.5150219,14.7813228 16.5147086,14.7801608 16.5147086,14.7788931 C16.5146042,14.7776255 16.5147086,14.7763578 16.5144997,14.7751958 L16.5134553,14.7692801 C16.5090686,14.7223769 16.5005041,14.676847 16.4877618,14.6333243 L15.8999449,11.5214468 C15.870387,11.1272067 15.5302094,10.8319491 15.1405248,10.8619502 C14.7507358,10.8919513 14.4588118,11.2359079 14.4884742,11.6300424 L14.7355913,12.9386831 L12.0218994,10.1857628 C11.7512822,9.90487201 11.3066595,9.89906194 11.0290445,10.1727694 C10.7512206,10.4464769 10.7455806,10.8960712 11.0160933,11.176962 L13.8209658,14.0508376 Z" id="Shape"></path>
                    </g>
                    <text id="镜像管理" font-family="PingFangSC-Medium, PingFang SC" font-size="12" font-weight="400" fill="#FFA163">
                        <tspan x="116" y="143">镜像管理</tspan>
                    </text>
                    <text id="实例管理" font-family="PingFangSC-Medium, PingFang SC" font-size="12" font-weight="400" fill="#FFA163">
                        <tspan x="8" y="244">实例管理</tspan>
                    </text>
                    <text id="集群管理" font-family="PingFangSC-Medium, PingFang SC" font-size="12" font-weight="400" fill="#FFA163">
                        <tspan x="204" y="308">集群管理</tspan>
                    </text>
                    <text id="弹性管理" font-family="PingFangSC-Medium, PingFang SC" font-size="12" font-weight="400" fill="#FFA163">
                        <tspan x="407" y="164">弹性管理</tspan>
                    </text>
                    <g id="实例" transform="translate(25.000000, 195.000000)" fill="#FFA163" fill-rule="nonzero">
                        <path d="M14.8219317,1.13989072 L14.8219317,0 L1.17808657,0 L1.17808657,1.13989074 L0,1.13989072 L0,17 L16,17 L16,1.13989072 L14.8219317,1.13989072 Z M14.8675961,15.9053633 L1.15068792,15.8872689 L1.15068792,3.38351965 L14.8675961,3.38351965 L14.8675961,15.9053633 Z" id="Shape"></path>
                        <polygon id="Shape" points="2.82352941 6.61111111 3.76470588 6.61111111 3.76470588 7.55555556 2.82352941 7.55555556 2.82352941 6.61111111"></polygon>
                        <polygon id="Shape" points="6.58823529 6.61111111 12.2352941 6.61111111 12.2352941 7.55555556 6.58823529 7.55555556 6.58823529 6.61111111"></polygon>
                        <polygon id="Shape" points="2.82352941 9.44444444 3.76470588 9.44444444 3.76470588 10.3888889 2.82352941 10.3888889"></polygon>
                        <polygon id="Shape" points="6.58823529 9.44444444 12.2352941 9.44444444 12.2352941 10.3888889 6.58823529 10.3888889"></polygon>
                        <polygon id="Shape" points="2.82352941 12.2777778 3.76470588 12.2777778 3.76470588 13.2222222 2.82352941 13.2222222"></polygon>
                        <polygon id="Shape" points="6.58823529 12.2777778 12.2352941 12.2777778 12.2352941 13.2222222 6.58823529 13.2222222"></polygon>
                    </g>
                    <polygon id="Rectangle-35" fill="#FFA56C" points="32 257 33 257 32.5 322"></polygon>
                    <polygon id="Rectangle-35-Copy" fill="#FFA163" points="228 318 229 318 228.5 383"></polygon>
                    <polygon id="Rectangle-35-Copy-3" fill="#FFA163" points="432 174 433 174 432.5 239"></polygon>
                    <polygon id="Rectangle-35-Copy-2" fill="#FFA163" points="139 150 140 150 139.5 197"></polygon>
                    <circle id="Oval-18" stroke-opacity="0.5" stroke="#FFA163" stroke-width="0.5" cx="96" cy="207" r="3"></circle>
                    <circle id="Oval-18-Copy" fill="#FFA163" opacity="0.522518382" cx="171" cy="295" r="5"></circle>
                </g>
            </g>
        </g>
    </g>
</svg>