<?xml version="1.0" encoding="UTF-8" standalone="no"?>
<svg width="469px" height="257px" viewBox="0 0 469 257" version="1.1" xmlns="http://www.w3.org/2000/svg" xmlns:xlink="http://www.w3.org/1999/xlink">
    <!-- Generator: Sketch 50.2 (55047) - http://www.bohemiancoding.com/sketch -->
    <title>Group 15</title>
    <desc>Created with Sketch.</desc>
    <defs>
        <linearGradient x1="100%" y1="100%" x2="0%" y2="100%" id="linearGradient-1">
            <stop stop-color="#7B2C81" offset="0%"></stop>
            <stop stop-color="#7B2C81" stop-opacity="0.386152627" offset="100%"></stop>
        </linearGradient>
    </defs>
    <g id="官网" stroke="none" stroke-width="1" fill="none" fill-rule="evenodd">
        <g id="PAAS-2-Copy" transform="translate(-393.000000, -3908.000000)">
            <g id="Group-37" transform="translate(390.000000, 3908.000000)">
                <g id="Group-15">
                    <g id="Group-12" transform="translate(32.000000, 0.000000)">
                        <g id="Group-10">
                            <polygon id="Path-65" fill="#FFFFFF" opacity="0.1" points="71.651665 43.075 70.1785714 197.487368 303.910763 179.470787 303.910763 56.6315548"></polygon>
                            <g id="Group-39-Copy-6" opacity="0.5" transform="translate(303.957305, 115.827922) rotate(90.000000) translate(-303.957305, -115.827922) translate(209.457305, 114.827922)" fill="#7B2C81">
                                <polygon id="Rectangle-16" points="0 0.623155071 94.4220779 0 94.4220779 1.275 0 0.825879905"></polygon>
                                <polygon id="Rectangle-16-Copy" transform="translate(141.633117, 0.637500) scale(-1, 1) translate(-141.633117, -0.637500) " points="94.4220779 0.623155071 188.844156 0 188.844156 1.275 94.4220779 0.825879905"></polygon>
                            </g>
                            <g id="Group-39-Copy-14" opacity="0.2" transform="translate(76.225964, 24.563812) rotate(174.000000) translate(-76.225964, -24.563812) translate(-0.274036, 23.563812)" fill="#7B2C81">
                                <polygon id="Rectangle-16" points="0 0.623155071 76.079002 0 76.079002 1.275 0 0.825879905"></polygon>
                                <polygon id="Rectangle-16-Copy" transform="translate(114.118503, 0.637500) scale(-1, 1) translate(-114.118503, -0.637500) " points="76.079002 0.623155071 152.158004 0 152.158004 1.275 76.079002 0.825879905"></polygon>
                            </g>
                            <g id="Group-39-Copy-15" opacity="0.2" transform="translate(77.501938, 42.413812) rotate(174.000000) translate(-77.501938, -42.413812) translate(1.001938, 41.413812)" fill="#7B2C81">
                                <polygon id="Rectangle-16" points="0 0.623155071 76.079002 0 76.079002 1.275 0 0.825879905"></polygon>
                                <polygon id="Rectangle-16-Copy" transform="translate(114.118503, 0.637500) scale(-1, 1) translate(-114.118503, -0.637500) " points="76.079002 0.623155071 152.158004 0 152.158004 1.275 76.079002 0.825879905"></polygon>
                            </g>
                            <g id="Group-39-Copy-16" opacity="0.2" transform="translate(94.290244, 200.786386) rotate(192.000000) translate(-94.290244, -200.786386) translate(17.790244, 199.786386)" fill="#7B2C81">
                                <polygon id="Rectangle-16" points="0 0.623155071 76.079002 0 76.079002 1.275 0 0.825879905"></polygon>
                                <polygon id="Rectangle-16-Copy" transform="translate(114.118503, 0.637500) scale(-1, 1) translate(-114.118503, -0.637500) " points="76.079002 0.623155071 152.158004 0 152.158004 1.275 76.079002 0.825879905"></polygon>
                            </g>
                            <g id="Group-39-Copy-17" opacity="0.2" transform="translate(321.465556, 185.511334) rotate(201.000000) translate(-321.465556, -185.511334) translate(244.965556, 184.511334)" fill="#7B2C81">
                                <polygon id="Rectangle-16" points="0 0.623155071 76.079002 0 76.079002 1.275 0 0.825879905"></polygon>
                                <polygon id="Rectangle-16-Copy" transform="translate(114.118503, 0.637500) scale(-1, 1) translate(-114.118503, -0.637500) " points="76.079002 0.623155071 152.158004 0 152.158004 1.275 76.079002 0.825879905"></polygon>
                            </g>
                            <g id="Group-39-Copy-7" opacity="0.5" transform="translate(71.730032, 128.902597) rotate(90.000000) translate(-71.730032, -128.902597) translate(-56.269968, 127.902597)" fill="#721E79">
                                <polygon id="Rectangle-16" points="0 0.623155071 127.597403 0 127.597403 1.275 0 0.825879905"></polygon>
                                <polygon id="Rectangle-16-Copy" transform="translate(191.396104, 0.637500) scale(-1, 1) translate(-191.396104, -0.637500) " points="127.597403 0.623155071 255.194805 0 255.194805 1.275 127.597403 0.825879905"></polygon>
                            </g>
                            <g id="Group-39-Copy-12" opacity="0.5" transform="translate(222.435023, 197.530010) rotate(176.000000) translate(-222.435023, -197.530010) translate(79.935023, 196.530010)" fill="#7B2C81">
                                <polygon id="Rectangle-16" points="0 0.623155071 142.287766 0 142.287766 1.275 0 0.825879905"></polygon>
                                <polygon id="Rectangle-16-Copy" transform="translate(213.431648, 0.637500) scale(-1, 1) translate(-213.431648, -0.637500) " points="142.287766 0.623155071 284.575531 0 284.575531 1.275 142.287766 0.825879905"></polygon>
                            </g>
                            <g id="Group-39-Copy-11" opacity="0.696748621" transform="translate(110.009253, 123.838312) rotate(90.000000) translate(-110.009253, -123.838312) translate(-3.990747, 122.838312)" fill="#7B2C81">
                                <polygon id="Rectangle-16" points="0 0.623155071 113.561688 0 113.561688 1.275 0 0.825879905"></polygon>
                                <polygon id="Rectangle-16-Copy" transform="translate(170.342532, 0.637500) scale(-1, 1) translate(-170.342532, -0.637500) " points="113.561688 0.623155071 227.123377 0 227.123377 1.275 113.561688 0.825879905"></polygon>
                            </g>
                            <g id="Group-39-Copy-9" opacity="0.5" transform="translate(189.341447, 187.151227) rotate(176.000000) translate(-189.341447, -187.151227) translate(10.341447, 186.151227)">
                                <polygon id="Rectangle-16" fill="url(#linearGradient-1)" points="0 0.623155071 178.636364 0 178.636364 1.275 0 0.825879905"></polygon>
                                <polygon id="Rectangle-16-Copy" fill="#7B2C81" transform="translate(267.954545, 0.637500) scale(-1, 1) translate(-267.954545, -0.637500) " points="178.636364 0.623155071 357.272727 0 357.272727 1.275 178.636364 0.825879905"></polygon>
                            </g>
                            <g id="Group-39-Copy-10" opacity="0.5" transform="translate(183.184668, 48.847560) rotate(183.000000) translate(-183.184668, -48.847560) translate(4.184668, 47.847560)" fill="#7B2C81">
                                <polygon id="Rectangle-16" points="0 0.623155071 178.636364 0 178.636364 1.275 0 0.825879905"></polygon>
                                <polygon id="Rectangle-16-Copy" transform="translate(267.954545, 0.637500) scale(-1, 1) translate(-267.954545, -0.637500) " points="178.636364 0.623155071 357.272727 0 357.272727 1.275 178.636364 0.825879905"></polygon>
                            </g>
                            <g id="Group-39-Copy-13" opacity="0.5" transform="translate(188.288564, 32.272560) rotate(183.000000) translate(-188.288564, -32.272560) translate(9.288564, 31.272560)" fill="#7B2C81">
                                <polygon id="Rectangle-16" points="0 0.623155071 178.636364 0 178.636364 1.275 0 0.825879905"></polygon>
                                <polygon id="Rectangle-16-Copy" transform="translate(267.954545, 0.637500) scale(-1, 1) translate(-267.954545, -0.637500) " points="178.636364 0.623155071 357.272727 0 357.272727 1.275 178.636364 0.825879905"></polygon>
                            </g>
                            <polygon id="Path-61" stroke="#7B2C81" stroke-width="0.8" fill-opacity="0.05" fill="#7B2C81" points="111.00974 22.675 111.00974 204.826955 335.327531 190.591371 335.327531 39.392369 161.166614 35.620275 161.166614 22.675"></polygon>
                        </g>
                        <g id="Group-11" transform="translate(131.000000, 58.000000)" fill="#7B2C81" opacity="0.20099954">
                            <rect id="Rectangle-38" x="0" y="0" width="12.7835052" height="12.7272727"></rect>
                            <rect id="Rectangle-38-Copy-2" x="0" y="21.6363636" width="12.7835052" height="12.7272727"></rect>
                            <rect id="Rectangle-38-Copy-4" x="0" y="43.2727273" width="12.7835052" height="12.7272727"></rect>
                            <rect id="Rectangle-38-Copy" x="19.1752577" y="3.81818182" width="61.3608247" height="2.54545455"></rect>
                            <rect id="Rectangle-38-Copy-3" x="19.1752577" y="25.4545455" width="61.3608247" height="2.54545455"></rect>
                            <rect id="Rectangle-38-Copy-5" x="19.1752577" y="47.0909091" width="61.3608247" height="2.54545455"></rect>
                            <rect id="Rectangle-38-Copy-6" x="84.371134" y="47.0909091" width="39.628866" height="2.54545455"></rect>
                            <rect id="Rectangle-38-Copy-7" x="84.371134" y="25.4545455" width="39.628866" height="2.54545455"></rect>
                            <rect id="Rectangle-38-Copy-8" x="84.371134" y="3.81818182" width="39.628866" height="2.54545455"></rect>
                        </g>
                        <circle id="Oval-19" stroke-opacity="0.3" stroke="#7B2C81" stroke-width="1.8" cx="187" cy="138" r="16.1"></circle>
                        <g id="cunchukongjian" transform="translate(179.000000, 130.000000)" fill="#7B2C81" fill-opacity="0.3" fill-rule="nonzero">
                            <path d="M13.939875,0 L3.06012273,0 C1.37305306,0 0,1.37321903 0,3.06049263 L0,13.9395074 C0,15.6288336 1.37305306,17 3.06012273,17 L13.939875,17 C15.628997,17 16.9999977,15.626781 16.9999977,13.9395074 L16.9999977,3.06254528 C17.0020501,1.37321903 15.628997,2.91698298e-16 13.939875,0 Z M4.90522691,1.6544313 L12.0947708,1.6544313 L12.0947708,7.30536102 C12.0947708,7.53730983 11.9080027,7.72410046 11.676082,7.72410046 L5.32391574,7.72410046 C5.09199497,7.72410046 4.90522691,7.53730983 4.90522691,7.30536102 L4.90522691,1.6544313 Z M15.3478188,13.94156 C15.3478188,14.7174596 14.7156807,15.349674 13.939875,15.349674 L3.06012273,15.349674 C2.28431697,15.349674 1.65217894,14.7174596 1.65217894,13.94156 L1.65217894,3.06254528 C1.65217894,2.28664574 2.28226457,1.6544313 3.06012273,1.6544313 L3.25099558,1.6544313 L3.25099558,7.30536102 C3.25099558,8.44868389 4.18073105,9.37853176 5.32391574,9.37853176 L11.676082,9.37853176 C12.8192666,9.37853176 13.7490021,8.44868389 13.7490021,7.30536102 L13.7490021,1.6544313 L13.939875,1.6544313 C14.7156807,1.6544313 15.3478188,2.28664574 15.3478188,3.06254528 L15.3478188,13.94156 Z M10.6621982,5.97935281 L9.01001931,5.97935281 L9.01001931,3.61265395 L10.6621982,3.61265395 L10.6621982,5.97935281 Z" id="Shape"></path>
                        </g>
                        <g id="yewu" opacity="0.3" transform="translate(262.000000, 121.000000)" stroke="#7B2C81">
                            <path d="M23.953,11.2060909 L20.4741818,11.2060909 L20.4741818,9.75413635 C20.4741818,8.63522726 19.4348636,7.7272727 18.1544546,7.72727274 L15.8355,7.72727274 C14.5643636,7.72727274 13.5157727,8.63445456 13.5157727,9.75413635 L13.5157727,11.2060909 L10.047,11.2060909 C8.76756142,11.209912 7.73144025,12.2463784 7.72804544,13.5258182 L7.72804544,23.953 C7.73101587,25.2323148 8.76691478,26.2689042 10.0462273,26.2727273 L23.953,26.2727273 C25.2325648,26.2689083 26.2689083,25.2325648 26.2727273,23.953 L26.2727273,13.5258182 C26.2723008,12.2448449 25.2339733,11.2065174 23.953,11.2060909 Z M14.5543182,9.55245456 C14.5543182,9.07877274 15.2196364,8.68468182 15.8447727,8.68468182 L18.1645,8.68468182 C18.7896364,8.68468182 19.4549546,9.08804547 19.4549546,9.55245456 L19.4549546,11.1960454 L14.5535454,11.1960454 L14.5535454,9.55245456 L14.5543182,9.55245456 Z M8.74572726,13.5258182 C8.74572726,12.8805909 9.4017727,12.2353636 10.0361818,12.2353636 L23.953,12.2353636 C24.599,12.2353636 25.2442273,12.8906364 25.2442273,13.5258182 L25.2542727,15.9660909 L19.3243636,15.9660909 L19.3243636,14.6856818 C19.3245687,14.3781379 19.202541,14.0831201 18.9851471,13.8655812 C18.7677532,13.6480423 18.4728167,13.5258181 18.1652727,13.5258182 L15.8455454,13.5258182 C15.2003182,13.5258182 14.6756364,14.0404545 14.6756364,14.6856818 L14.6756364,15.9761364 L8.74572726,15.9761364 L8.74572726,13.5258182 Z M18.4272273,14.4237273 L18.4272273,18.4272273 L15.5828182,18.4171818 L15.5828182,14.4237273 L18.4272273,14.4237273 Z M25.2542727,23.953 C25.2542727,24.5982273 24.599,25.2442273 23.9638182,25.2442273 L10.0570454,25.2442273 C9.41181818,25.2442273 8.76659088,24.5881818 8.76659091,23.953 L8.76659091,16.8740454 L14.6965,16.8740454 L14.6965,18.1652727 C14.6964999,18.4728167 14.8187242,18.7677532 15.036263,18.9851471 C15.2538019,19.202541 15.5488198,19.3245687 15.8563636,19.3243636 L18.1753182,19.3243636 C18.8205454,19.3243636 19.3351818,18.7996818 19.3351818,18.1652727 L19.3351818,16.8740454 L25.2650909,16.8740454 L25.2542727,23.953 Z" id="Shape" stroke-width="0.5" fill="#7B2C81" fill-rule="nonzero"></path>
                            <path d="M17,0.8 C8.05319145,0.8 0.8,8.05319145 0.8,17 C0.8,25.9468086 8.05319145,33.2 17,33.2 C25.9468086,33.2 33.2,25.9468086 33.2,17 C33.2,8.05319145 25.9468086,0.8 17,0.8 Z" id="Path" stroke-width="1.6"></path>
                        </g>
                        <g id="tongji-shengchanxiaoshuai" opacity="0.3" transform="translate(216.000000, 121.000000)" fill="#7B2C81" fill-rule="nonzero">
                            <path d="M17,0 C7.65,0 0,7.65 0,17 C0,26.35 7.65,34 17,34 C26.35,34 34,26.35 34,17 C34,7.65 26.35,0 17,0 Z M17,31.96 C8.67,31.96 2.04,25.33 2.04,17 C2.04,8.67 8.84,2.04 17,2.04 C25.33,2.04 31.96,8.67 31.96,17 C31.96,25.33 25.33,31.96 17,31.96 Z M26.5455,14.671 L24.48,13.9825 L24.429,13.855 L25.4065,11.9085 C25.5935,11.5345 25.517,11.0925 25.228,10.8035 L23.205,8.7805 C22.916,8.4915 22.4655,8.415 22.1,8.602 L20.145,9.5795 L20.0175,9.5285 L19.329,7.463 C19.2015,7.072 18.836,6.8085 18.4195,6.8085 L15.5805,6.8085 C15.164,6.8085 14.7985,7.072 14.671,7.463 L13.9825,9.5285 L13.855,9.5795 L11.9,8.602 C11.526,8.415 11.084,8.4915 10.795,8.7805 L8.7805,10.795 C8.4915,11.084 8.415,11.5345 8.602,11.9 L9.5795,13.855 L9.5285,13.9825 L7.463,14.671 C7.072,14.7985 6.8085,15.164 6.8085,15.5805 L6.8085,18.4195 C6.8085,18.836 7.072,19.2015 7.463,19.329 L9.5285,20.0175 L9.5795,20.145 L8.602,22.1 C8.415,22.474 8.4915,22.916 8.7805,23.205 L10.7865,25.211 C11.084,25.5085 11.526,25.5765 11.8915,25.3895 L13.8465,24.412 L13.974,24.463 L14.6625,26.5285 C14.79,26.9195 15.1555,27.183 15.572,27.183 L18.411,27.183 C18.8275,27.183 19.193,26.9195 19.3205,26.5285 L20.009,24.463 L20.1365,24.412 L22.0915,25.3895 C22.457,25.5765 22.9075,25.5 23.1965,25.211 L25.2025,23.205 C25.4915,22.916 25.568,22.4655 25.381,22.1 L24.4035,20.145 L24.4545,20.0175 L26.52,19.329 C26.911,19.2015 27.1745,18.836 27.1745,18.4195 L27.1745,15.5805 C27.2,15.164 26.9365,14.7985 26.5455,14.671 Z M25.279,17.731 L23.4345,18.3515 C23.1455,18.445 22.9245,18.6745 22.831,18.955 C22.746,19.21 22.6355,19.482 22.4995,19.737 C22.3635,20.009 22.3635,20.3235 22.4995,20.5955 L23.375,22.338 L22.3465,23.3665 L20.604,22.491 C20.332,22.355 20.0175,22.355 19.7455,22.491 C19.482,22.6185 19.2185,22.729 18.9635,22.8225 C18.6745,22.916 18.4535,23.1455 18.36,23.426 L17.748,25.2705 L16.286,25.2705 L15.674,23.426 C15.5805,23.137 15.351,22.916 15.0705,22.8225 C14.8155,22.7375 14.5435,22.627 14.2885,22.491 C14.0165,22.355 13.702,22.355 13.43,22.491 L11.6875,23.3665 L10.625,22.338 L11.5005,20.5955 C11.6365,20.3235 11.6365,20.009 11.5005,19.737 C11.373,19.482 11.2625,19.2185 11.169,18.955 C11.0755,18.666 10.846,18.445 10.5655,18.3515 L8.721,17.731 L8.721,16.269 L10.5655,15.6485 C10.8545,15.555 11.0755,15.3255 11.169,15.045 C11.254,14.7815 11.3645,14.518 11.492,14.263 C11.628,13.991 11.628,13.6765 11.492,13.4045 L10.625,11.662 L11.6535,10.6335 L13.396,11.509 C13.668,11.645 13.991,11.645 14.2545,11.509 C14.518,11.3815 14.7815,11.271 15.0365,11.186 C15.3255,11.0925 15.5465,10.863 15.64,10.5825 L16.2605,8.738 L17.7225,8.738 L18.343,10.5825 C18.4365,10.8715 18.666,11.0925 18.9465,11.186 C19.2015,11.271 19.4735,11.3815 19.7285,11.5175 C20.0005,11.6535 20.315,11.6535 20.587,11.5175 L22.3295,10.642 L23.358,11.6705 L22.4825,13.413 C22.3465,13.685 22.3465,13.9995 22.4825,14.2715 C22.61,14.5265 22.7205,14.79 22.814,15.0535 C22.9075,15.3425 23.137,15.5635 23.4175,15.657 L25.262,16.2775 L25.279,17.731 Z M17,13.2005 C14.9005,13.2005 13.2005,14.909 13.2005,17 C13.2005,19.0995 14.909,20.7995 17,20.7995 C19.0995,20.7995 20.7995,19.091 20.7995,17 C20.7995,14.9005 19.0995,13.2005 17,13.2005 Z M17,18.887 C15.963,18.887 15.113,18.0455 15.113,17 C15.113,15.963 15.9545,15.113 17,15.113 C18.037,15.113 18.887,15.9545 18.887,17 C18.8785,18.037 18.037,18.887 17,18.887 Z" id="Shape"></path>
                        </g>
                    </g>
                    <g id="Group-13" opacity="0.55" transform="translate(0.000000, 43.000000)" fill="#721E79" fill-rule="nonzero">
                        <path d="M29.2459597,20.5802105 L29.2425987,5.8050576 C29.2425987,4.72460153 28.3586528,3.84484939 27.2730462,3.84484937 L9.17064054,3.84484937 C8.08503395,3.84484937 7.20108805,4.72460151 7.20108805,5.8050576 L7.20108805,25.5008014 C7.20108805,26.5812575 8.08503395,27.4610096 9.17064054,27.4610096 L22.5810747,27.4610096 L22.5810747,27.4643547 L29.2459597,20.5802105 Z M22.5239375,25.0559078 L22.5104935,21.6640117 C22.5407426,20.9582029 22.9474249,20.503274 23.5490459,20.503274 C23.572573,20.503274 23.5927391,20.503274 23.6162661,20.5066191 L26.9503891,20.5266895 L22.5239375,25.0559078 Z M9.17064054,25.7817869 C9.01603404,25.7817869 8.88831562,25.6546744 8.88831562,25.5008014 L8.88831562,5.8050576 C8.88831562,5.6511846 9.01603404,5.52407213 9.17064054,5.52407211 L27.2730462,5.52407211 C27.4276527,5.52407211 27.5553711,5.65118458 27.5553711,5.8050576 L27.5553711,18.8775723 L23.6935694,18.8240513 C23.6465152,18.8207062 23.5994611,18.8207062 23.5490459,18.8207063 C22.0197859,18.8207063 20.8736811,20.0015143 20.8199049,21.6272159 L20.8199049,21.6472863 L20.8703201,25.785132 L9.17064054,25.785132 L9.17064054,25.7817869 Z M12.8307816,10.9397327 L23.1759737,10.9129721 C23.4549376,10.9129721 23.9355622,10.5349798 23.9355622,10.0733608 C23.9355622,9.60839672 23.4549376,9.2337494 23.1759737,9.2337494 L12.8307816,9.26050992 C12.5518177,9.26050992 12.0711931,9.6083967 12.0711931,10.0733608 C12.0711931,10.5349798 12.5484566,10.9397327 12.8307816,10.9397327 Z M12.8307816,15.3117329 L23.1759737,15.2849723 C23.4549376,15.2849723 23.9355622,14.910325 23.9355622,14.445361 C23.9355622,13.9803969 23.4549376,13.6057496 23.1759737,13.6057496 L12.8307816,13.6325101 C12.5518177,13.6325101 12.0711931,13.9803969 12.0711931,14.445361 C12.0711931,14.90698 12.5484566,15.3117329 12.8307816,15.3117329 Z M18.6150817,18.2252846 L12.7870885,18.2252846 C12.3904892,18.2252846 12.0678321,18.603277 12.0678321,19.064896 C12.0678321,19.526515 12.3904892,19.9045074 12.7870885,19.9045074 L18.6117206,19.9045074 C19.0083199,19.9045074 19.330977,19.526515 19.330977,19.064896 C19.3309771,18.603277 19.00832,18.2252846 18.6150817,18.2252846 Z" id="Shape" transform="translate(18.223524, 15.654602) rotate(-21.000000) translate(-18.223524, -15.654602) "></path>
                        <g id="cunchu" transform="translate(48.667992, 71.841859) rotate(22.000000) translate(-48.667992, -71.841859) translate(38.667992, 60.841859)">
                            <path d="M16.8437805,0 L3.01454686,0 C1.3565461,0 2.20792005e-08,1.35008634 0,3.00019186 L0,18.0011512 C0,19.6512567 1.35654608,21.001343 3.01454686,21.001343 L16.8814623,21.001343 C18.5394631,21.001343 19.8960092,19.6512567 19.8960092,18.0011512 L19.8960092,3.00019186 C19.8583273,1.35008634 18.5017813,0 16.8437805,0 Z M4.52182027,1.50009594 L15.3741889,1.50009594 L15.3741889,7.23796288 L4.52182027,7.23796288 L4.52182027,1.50009594 Z M18.3510539,18.0011512 C18.3510539,18.8262039 17.6727809,19.5012471 16.8437805,19.5012471 L3.01454686,19.5012471 C2.18554647,19.5012471 1.50727343,18.8262039 1.50727343,18.0011512 L1.50727343,3.00019186 C1.50727343,2.17513909 2.18554647,1.50009592 3.01454686,1.50009594 L3.01454686,8.73805879 L16.8814623,8.73805879 L16.8814623,1.50009594 C17.7104627,1.50009594 18.3887358,2.17513911 18.3887358,3.00019186 L18.3887358,18.0011512 L18.3510539,18.0011512 Z" id="Shape"></path>
                            <path d="M12.7113392,2.21066769 C12.4073724,2.21066769 12.1586723,2.53606971 12.1586723,2.93378328 L12.1586723,5.35622055 C12.1586723,5.75393412 12.4073724,6.07933614 12.7113392,6.07933614 C13.015306,6.07933614 13.2640061,5.75393412 13.2640061,5.35622055 L13.2640061,2.93378328 C13.2640061,2.53606971 13.015306,2.21066769 12.7113392,2.21066769 Z" id="Shape"></path>
                        </g>
                        <g id="xitong" transform="translate(20.057636, 111.550827) rotate(-24.000000) translate(-20.057636, -111.550827) translate(4.557636, 97.050827)">
                            <path d="M20.722583,11.5645383 L20.722583,11.4308442 C20.722583,11.096609 20.722583,10.7623738 20.655736,10.4281386 L22.5943002,8.48957431 C22.260065,7.08578643 21.5915945,5.81569262 20.78943,4.6124459 L18.0487013,4.9466811 C17.7813131,4.67929292 17.513925,4.41190477 17.2465368,4.21136365 L17.2465368,1.4706349 C16.0432901,0.735317449 14.7063492,0.267388142 13.2357143,0 L11.4976912,2.13910533 L11.3639971,2.13910533 C11.0297619,2.13910533 10.6955267,2.13910533 10.3612915,2.20595239 L8.42272728,0.267388142 C7.0189394,0.601623339 5.74884559,1.27009377 4.54559884,2.07225828 L4.81298702,4.81298703 C4.54559884,5.08037521 4.2782107,5.34776335 4.07766957,5.61515153 L1.33694083,5.61515153 C0.735317448,6.81839829 0.200541126,8.15533911 0,9.559127 L2.07225831,11.2971501 L2.07225831,11.4308442 C2.07225831,11.7650794 2.07225831,12.0993146 2.13910533,12.4335498 L0.200541126,14.372114 C0.534776322,15.7759019 1.20324675,17.0459957 2.00541126,18.2492425 L4.74613996,17.9818543 C5.01352814,18.2492425 5.28091628,18.5166306 5.54830447,18.7171717 L5.54830447,21.4579005 C6.75155122,22.1932179 8.08849205,22.6611472 9.55912698,22.9285354 L11.2971501,20.8562771 L11.4308442,20.8562771 C11.7650794,20.8562771 12.0993146,20.8562771 12.4335498,20.7894301 L14.372114,22.7279943 C15.7759019,22.3937591 17.0459957,21.7252886 18.2492424,20.9231241 L17.9818543,18.1823954 C18.2492424,17.9150072 18.5166306,17.6476191 18.7171717,17.3802309 L21.4579005,17.3802309 C22.1932179,16.1769842 22.6611472,14.8400433 22.9285354,13.3694084 L20.722583,11.5645383 Z M11.4308442,16.4443723 C8.69011546,16.4443723 6.48416308,14.23842 6.48416308,11.4976912 C6.48416308,8.75696245 8.69011546,6.55101011 11.4308442,6.55101011 C14.1715729,6.55101011 16.3775253,8.75696249 16.3775253,11.4976912 C16.3775253,14.2384199 14.1715729,16.4443723 11.4308442,16.4443723 Z" id="Shape"></path>
                            <path d="M30.8492265,23.6759967 L29.3611376,22.6697988 C29.3611376,22.4685592 29.428778,22.2673196 29.428778,21.9990002 C29.428778,21.7306807 29.428778,21.5294411 29.3611376,21.3282016 L30.7815861,20.2549238 C30.9168669,20.1207641 30.9168669,19.9866043 30.8492265,19.8524446 L29.4964184,17.5717293 C29.428778,17.5046494 29.2934972,17.4375696 29.090576,17.5046495 L27.4672063,18.1754481 C27.1290043,17.9071286 26.7231619,17.705889 26.3173195,17.5046495 L26.0467579,15.8276529 C26.1143983,15.6264134 25.9114771,15.4922536 25.7761963,15.4922536 L23.1382205,15.4922536 C23.0029397,15.4922536 22.8000185,15.6264134 22.8000185,15.7605731 L22.5294569,17.5717293 C22.1236145,17.705889 21.7854125,17.9742085 21.3795701,18.2425279 L19.8238408,17.5717293 C19.6209196,17.5046494 19.4856388,17.5717293 19.350358,17.7058891 L17.9975499,19.9866043 C17.9299095,20.0536842 17.9975499,20.2549238 18.1328307,20.3890835 L19.5532792,21.3952814 C19.5532792,21.596521 19.4856388,21.7977606 19.4856388,22.06608 C19.4856388,22.3343995 19.4856388,22.5356391 19.5532792,22.7368787 L18.1328307,23.8101564 C17.9975499,23.9443161 17.9975499,24.0784759 18.0651903,24.2126356 L19.4179984,26.4933509 C19.4856388,26.5604307 19.6209196,26.6275106 19.8238408,26.5604307 L21.4472104,25.8896321 C21.7854124,26.1579516 22.1912549,26.3591912 22.5970973,26.5604307 L22.8676589,28.2374272 C22.8676589,28.371587 23.0029397,28.5057467 23.205861,28.5057467 L25.8438367,28.5057467 C25.9791175,28.5057467 26.1820387,28.371587 26.1820387,28.2374272 L26.4526003,26.5604307 C26.8584427,26.3591912 27.2642851,26.1579516 27.6024871,25.8896321 L29.2258568,26.5604307 C29.3611376,26.6275106 29.5640588,26.5604307 29.6316992,26.426271 L30.9845073,24.1455557 C30.9845073,23.9443162 30.9845073,23.7430766 30.8492265,23.6759967 Z M24.4910286,24.2797154 C23.2058609,24.2797154 22.1912549,23.2735175 22.1912549,21.9990002 C22.1912549,20.7915626 23.2735014,19.7182849 24.4910286,19.7182849 C25.7761963,19.7182849 26.7908023,20.7244828 26.7908023,21.9990002 C26.7908023,23.2735175 25.7085558,24.2797154 24.4910286,24.2797154 Z" id="Shape"></path>
                        </g>
                    </g>
                    <g id="Group-14" opacity="0.526482077" transform="translate(390.000000, 51.000000)" fill="#7B2C81" fill-rule="nonzero">
                        <g id="dianpu" transform="translate(34.739697, 14.739697) rotate(-20.000000) translate(-34.739697, -14.739697) translate(23.239697, 3.239697)">
                            <path d="M20.3430095,3.78186161e-16 L2.65699052,3.78186161e-16 C1.19905213,3.78186161e-16 0,1.18542654 0,2.65699052 L0,20.3430095 C0,21.8009479 1.18542654,23 2.65699052,23 L20.3430095,23 C21.8145735,23 23,21.8145735 23,20.3430095 L23,2.65699052 C23,1.19905213 21.8145735,0 20.3430095,3.78186161e-16 Z M21.4603081,20.3430095 C21.4603081,20.9697867 20.9561611,21.4739336 20.3293839,21.4739336 L2.64336493,21.4739336 C2.01658768,21.4739336 1.51244076,20.9697867 1.51244076,20.3430095 L1.51244076,2.65699052 C1.51244076,2.03021327 2.01658768,1.52606635 2.64336493,1.52606635 L20.3293839,1.52606635 C20.9561611,1.52606635 21.4603081,2.03021327 21.4603081,2.65699052 L21.4603081,20.3430095 Z" id="Shape"></path>
                            <path d="M18.2175649,5.27891156 L9.03792415,5.27891156 C8.73053892,4.53061224 7.9760479,4 7.09580838,4 C5.93612774,4 5,4.91156463 5,6.04081633 C5,7.17006803 5.93612774,8.08163265 7.09580838,8.08163265 C7.9760479,8.08163265 8.73053892,7.55102041 9.03792415,6.80272109 L18.2175649,6.80272109 C18.6506986,6.80272109 19,6.46258503 19,6.04081633 C19,5.61904762 18.6506986,5.27891156 18.2175649,5.27891156 Z M7.0259481,6.85714286 C6.56487026,6.85714286 6.18762475,6.48979592 6.18762475,6.04081633 C6.18762475,5.59183673 6.56487026,5.2244898 7.0259481,5.2244898 C7.48702595,5.2244898 7.86427146,5.59183673 7.86427146,6.04081633 C7.87824351,6.48979592 7.500998,6.85714286 7.0259481,6.85714286 Z M18.2175649,17.1972789 L9.03792415,17.1972789 C8.73053892,16.4489796 7.9760479,15.9183673 7.09580838,15.9183673 C5.93612774,15.9183673 5,16.829932 5,17.9591837 C5,19.0884354 5.93612774,20 7.09580838,20 C7.9760479,20 8.73053892,19.4693878 9.03792415,18.7210884 L18.2175649,18.7210884 C18.6506986,18.7210884 19,18.3809524 19,17.9591837 C19,17.537415 18.6506986,17.1972789 18.2175649,17.1972789 Z M7.0259481,18.7755102 C6.56487026,18.7755102 6.18762475,18.4081633 6.18762475,17.9591837 C6.18762475,17.5102041 6.56487026,17.1428571 7.0259481,17.1428571 C7.48702595,17.1428571 7.86427146,17.5102041 7.86427146,17.9591837 C7.87824351,18.4081633 7.500998,18.7755102 7.0259481,18.7755102 Z M18.2175649,11.2380952 L16.5548902,11.2380952 C16.247505,10.4897959 15.493014,9.95918367 14.6127745,9.95918367 C13.7325349,9.95918367 12.9780439,10.4897959 12.6706587,11.2380952 L5.81037924,11.2380952 C5.37724551,11.2380952 5.02794411,11.5782313 5.02794411,12 C5.02794411,12.4217687 5.37724551,12.7619048 5.81037924,12.7619048 L12.6706587,12.7619048 C12.9780439,13.5102041 13.7325349,14.0408163 14.6127745,14.0408163 C15.493014,14.0408163 16.247505,13.5102041 16.5548902,12.7619048 L18.2175649,12.7619048 C18.6506986,12.7619048 19,12.4217687 19,12 C19,11.5782313 18.6506986,11.2380952 18.2175649,11.2380952 Z M14.6127745,12.8027211 C14.1516966,12.8027211 13.7744511,12.4353741 13.7744511,11.9863946 C13.7744511,11.537415 14.1516966,11.170068 14.6127745,11.170068 C15.0738523,11.170068 15.4510978,11.537415 15.4510978,11.9863946 C15.4510978,12.4353741 15.0738523,12.8027211 14.6127745,12.8027211 Z" id="Shape"></path>
                        </g>
                        <g id="shengchan" transform="translate(66.051694, 55.465907) rotate(15.000000) translate(-66.051694, -55.465907) translate(52.551694, 39.965907)">
                            <path d="M13.5,31 L0,23.259773 L0,7.74022699 L13.5,0 L27,7.74022699 L27,23.259773 L13.5,31 Z M1.88921283,22.1651955 L13.5,28.8499369 L25.1501458,22.1651955 L25.1501458,8.83480454 L13.5,2.15006305 L1.88921283,8.83480454 L1.88921283,22.1651955 Z" id="Shape"></path>
                            <path d="M15.6713041,8.00763775 C16.1034633,7.96823028 16.6141969,8.0864527 17.0856433,8.24408259 C17.4392281,8.362305 17.4785153,8.51993489 17.2427921,8.7957872 C16.9284945,9.15045445 16.6141969,9.46571423 16.2998993,9.82038149 C15.8284529,10.4114936 15.8677401,11.0420131 16.3784737,11.5543103 C16.9284945,12.1060149 17.5570897,12.1848298 18.1856848,11.7119402 C18.5392696,11.4360879 18.8928544,11.1208281 19.207152,10.7661608 C19.4821624,10.4903085 19.6393112,10.4903085 19.7571728,10.8843832 C20.6214912,13.2882391 19.0892904,15.9679472 16.5749097,16.4802443 C16.0248889,16.5984668 15.4355809,16.6378742 14.8855601,16.4802443 C14.4926881,16.3620219 14.2569649,16.4802443 13.9426674,16.7560967 C12.5283282,18.2141731 11.113989,19.6328421 9.66036266,21.0515112 C9.18891627,21.6426232 8.63889549,22.036698 7.89243871,21.9972905 C7.14598192,21.957883 6.59596114,21.6426232 6.24237635,20.9726962 C5.88879156,20.3027692 5.92807875,19.6328421 6.32095074,19.0023226 C6.47809954,18.7658778 6.67453554,18.5294329 6.91025873,18.3323956 L11.113989,14.115796 C11.4282866,13.8005362 11.506861,13.5246839 11.4282866,13.0912017 C10.917553,10.4903085 12.9212002,8.00763775 15.6713041,8.00763775 Z" id="Shape"></path>
                        </g>
                        <g id="chengben" transform="translate(47.825741, 120.825741) rotate(12.000000) translate(-47.825741, -120.825741) translate(35.325741, 108.325741)">
                            <path d="M18.3273751,9.90566038 C18.2851461,9.73413379 18.2006882,9.60548885 18.1162302,9.43396226 L17.9895433,9.21955403 C18.2851461,8.79073756 18.454062,8.3619211 18.454062,7.89022298 L18.454062,5.18867925 C18.454062,4.80274443 18.3696041,4.45969125 18.1584592,4.07375643 L18.1162302,3.94511149 C18.2006882,3.73070326 18.2429172,3.55917667 18.2429172,3.34476844 C18.2429172,1.15780446 13.5977299,0 9.24814551,0 C4.89856109,0 0.253373849,1.15780446 0.253373849,3.34476844 C0.253373849,3.55917667 0.295602824,3.77358491 0.380060774,3.94511149 L0.337831799,4.07375643 C0.126686925,4.45969125 0.0422289749,4.80274443 0.0422289749,5.18867925 L0.0422289749,7.89022298 C0.0422289749,8.3619211 0.211144875,8.83361921 0.506747699,9.21955403 L0.380060774,9.43396226 C0.1689159,9.81989708 0.0422289749,10.2058319 0.0422289749,10.5917667 L0.0422289749,13.2933105 C0.0422289749,13.7650086 0.211144875,14.193825 0.464518724,14.6226415 L0.337831799,14.7941681 C0.126686925,15.1801029 0,15.5660377 0,15.9519726 L0,18.6535163 C0,21.0548885 4.05398159,22.941681 9.20591653,22.941681 C10.2616409,22.941681 11.2751363,22.8559177 12.2041738,22.7272727 C12.1619448,22.6415094 12.0774868,22.5557461 12.0352579,22.4699828 C13.386585,24.0137221 15.3713469,25 17.5672536,25 C21.6634641,25 24.9995531,21.6123499 24.9995531,17.4528302 C25.0417821,13.5077187 22.0857539,10.2915952 18.3273751,9.90566038 Z M9.29037448,1.54373928 C14.0200197,1.54373928 16.89159,2.74442539 16.89159,3.60205832 C16.89159,4.45969125 13.9777907,5.66037736 9.29037448,5.66037736 C4.56072929,5.66037736 1.689159,4.45969125 1.689159,3.60205832 C1.689159,2.74442539 4.60295827,1.54373928 9.29037448,1.54373928 Z M1.5202431,5.61749571 C2.91379927,6.90394511 6.12320136,7.54716981 9.24814551,7.54716981 C12.3730896,7.54716981 15.5824917,6.90394511 16.9760479,5.61749571 L16.9760479,7.84734134 C16.9760479,9.39108062 13.8088748,11.1063465 9.24814551,11.1063465 C4.68741622,11.1063465 1.5202431,9.39108062 1.5202431,7.84734134 L1.5202431,5.61749571 Z M1.60470105,10.7632933 C3.04048619,12.1783877 5.95428546,13.0789022 9.37483243,13.0789022 C10.177183,13.0789022 10.9373045,12.9931389 11.6974261,12.9073756 C11.1062204,13.7221269 10.6839307,14.6655232 10.4727858,15.6946827 C10.4305568,15.9519726 10.3460989,16.2521441 10.3460989,16.5523156 C10.050496,16.5523156 9.71266423,16.5951973 9.41706141,16.5951973 C4.85633212,16.5951973 1.64693002,14.8799314 1.64693002,13.3361921 L1.60470105,10.7632933 Z M9.33260346,21.2692967 C4.72964519,21.2692967 1.5202431,19.8542024 1.5202431,18.5248714 L1.5202431,16.4236707 C2.95602824,17.5814751 5.91205649,18.3533448 9.33260346,18.3533448 C9.67043526,18.3533448 9.96603808,18.3533448 10.3038699,18.3104631 C10.4305568,19.0823328 10.6839307,19.8113208 11.0639914,20.4545455 C11.1906784,20.7118353 11.3595943,20.9262436 11.5707391,21.1406518 C10.8528466,21.2264151 10.134954,21.2692967 9.33260346,21.2692967 Z M17.6094825,23.4562607 C15.8780946,23.4562607 14.3578515,22.7272727 13.2598981,21.5265866 C13.0065243,21.2692967 12.7953794,20.9691252 12.5842345,20.6689537 C11.9930289,19.7255575 11.6551971,18.6106346 11.6551971,17.4099485 L11.6551971,17.3670669 C11.6551971,17.0240137 11.6974261,16.6809605 11.739655,16.3379074 C11.781884,16.0377358 11.866342,15.7375643 11.9507999,15.4373928 C12.6686925,13.2933105 14.5267674,11.7066895 16.807132,11.406518 C17.0605059,11.3636364 17.3138797,11.3636364 17.5672536,11.3636364 L17.7783984,11.3636364 C20.9455716,11.4922813 23.521539,14.1509434 23.521539,17.4099485 C23.563768,20.754717 20.9033426,23.4562607 17.6094825,23.4562607 Z" id="Shape"></path>
                            <path d="M21.9051522,15.7763578 L21.14637,15.086262 C21.0199063,14.971246 20.7669789,14.971246 20.6405152,15.086262 L16.5093677,18.8434505 L14.3594848,16.8881789 C14.2330211,16.7731629 13.9800937,16.7731629 13.85363,16.8881789 L13.0948478,17.5782748 C12.9683841,17.6932907 12.9683841,17.9233227 13.0948478,18.0383387 L16.2142857,20.913738 C16.3407494,21.028754 16.5515222,21.028754 16.7201405,20.913738 L21.9051522,16.2364217 C22.0316159,16.0830671 22.0316159,15.8913738 21.9051522,15.7763578" id="Shape"></path>
                        </g>
                        <g id="xitong-2" transform="translate(12.743015, 72.743015) rotate(-10.000000) translate(-12.743015, -72.743015) translate(1.743015, 61.743015)">
                            <path d="M11.1846928,13.4231363 L12.2157761,14.4692985 L11.5538208,15.1579551 C11.5538208,15.1579551 11.0701448,15.6876754 11.7002237,16.3630311 L16.8873435,21.7262664 C16.8873435,21.7262664 17.383783,22.189752 17.9311255,21.7924786 L20.5278926,19.1704565 C20.5278926,19.1704565 20.9861278,18.5348011 20.3751403,17.9521695 L15.2325309,12.6551015 C15.2325309,12.6551015 14.6724464,12.0857033 14.0487169,12.5756558 L13.3741061,13.2907793 L12.2921198,12.1783824 L11.1846712,13.4231813 L11.1846928,13.4231363 Z M10.4718561,10.3376061 L4.90921571,4.63005376 L4.90921571,2.86881302 L1.62509585,0.842678445 L0,2.48475065 L1.98150342,5.76894001 L3.7254018,5.78219593 L9.21165525,11.3970467 L10.4718561,10.3376511 L10.4718561,10.3376061 Z M1.4977627,19.9385812 C1.4977627,19.9385812 1.4977627,19.0645663 2.37609366,19.0645663 C2.37609366,19.0645663 3.16531733,19.0910782 3.19073645,19.9385812 C3.19073645,19.9385812 3.16527414,20.7331279 2.34421718,20.7860842 L1.61231071,21.5409306 C1.61231071,21.5409306 2.68153342,22.5738368 3.89083123,21.5409306 L13.8068358,10.4833314 C13.8068358,10.4833314 14.888822,11.2381328 16.5181724,11.2249218 C16.5181724,11.2249218 18.5081633,11.3043451 20.0695926,9.89180259 C20.0695926,9.89180259 23.1161722,7.40665349 21.5546997,3.5177243 L18.0075341,7.08442215 L15.0034564,3.99451075 L18.5506653,0.463177012 C18.5506653,0.463177012 16.2933741,-0.91404629 13.2383287,1.08117277 C13.2383287,1.08117277 11.6599029,2.22888882 11.1846928,4.2947013 C11.1846928,4.2947013 10.4718993,6.74900229 12.0673215,8.95611396 L0.916621615,18.4730824 C0.916621615,18.4730824 0.220738155,19.1793986 0.560170851,20.2211346 L1.49782749,19.9386711 L1.4977627,19.9385812 Z M1.4977627,19.9385812 C1.4977627,19.9385812 1.565619,20.7684696 2.34428197,20.7860842 L1.61237549,21.5409306 C1.61237549,21.5409306 0.649839653,20.6811153 0.560127658,20.2210448 L1.49780589,19.9385812 L1.4977627,19.9385812 Z" id="Shape"></path>
                        </g>
                    </g>
                </g>
            </g>
        </g>
    </g>
</svg>