<?xml version="1.0" encoding="UTF-8" standalone="no"?>
<svg width="42px" height="43px" viewBox="0 0 42 43" version="1.1" xmlns="http://www.w3.org/2000/svg" xmlns:xlink="http://www.w3.org/1999/xlink">
    <!-- Generator: Sketch 50.2 (55047) - http://www.bohemiancoding.com/sketch -->
    <title>Group</title>
    <desc>Created with Sketch.</desc>
    <defs></defs>
    <g id="官网" stroke="none" stroke-width="1" fill="none" fill-rule="evenodd">
        <g id="PAAS-2-Copy" transform="translate(-571.000000, -975.000000)">
            <g id="Group-61" transform="translate(493.000000, 680.000000)">
                <g id="Group-51" transform="translate(0.000000, 295.000000)">
                    <g id="Group" transform="translate(78.000000, 0.000000)">
                        <path d="M14.6938077,42 L40,17.0429914 L40,2 C40,1.44771525 39.5522847,1 39,1 L2,1 C1.44771525,1 1,1.44771525 1,2 L1,41 C1,41.5522847 1.44771525,42 2,42 L14.6938077,42 Z" id="Rectangle-29" stroke="#00A4FF" stroke-width="2"></path>
                        <circle id="Oval-13" stroke="#00A4FF" stroke-width="2" cx="29" cy="30" r="12"></circle>
                        <polygon id="Shape" fill="#00A4FF" fill-rule="nonzero" points="27.9158986 31.8626292 25.4953917 29.323486 24 30.8921713 27.9158986 35 35 27.5686854 33.5046083 26"></polygon>
                        <circle id="Oval-14" stroke="#00A4FF" stroke-width="1.5" cx="10.5" cy="11.5" r="2.75"></circle>
                        <circle id="Oval-14-Copy" stroke="#00A4FF" stroke-width="1.5" cx="10.5" cy="22.5" r="2.75"></circle>
                        <circle id="Oval-14-Copy-2" stroke="#00A4FF" stroke-width="1.5" cx="10.5" cy="33.5" r="2.75"></circle>
                        <rect id="Rectangle-33" fill="#00A4FF" x="17" y="10" width="20" height="2"></rect>
                    </g>
                </g>
            </g>
        </g>
    </g>
</svg>