<?xml version="1.0" encoding="UTF-8" standalone="no"?>
<svg width="45px" height="46px" viewBox="0 0 45 46" version="1.1" xmlns="http://www.w3.org/2000/svg" xmlns:xlink="http://www.w3.org/1999/xlink">
    <!-- Generator: Sketch 50.2 (55047) - http://www.bohemiancoding.com/sketch -->
    <title>微服务开发运维场景</title>
    <desc>Created with Sketch.</desc>
    <defs></defs>
    <g id="官网" stroke="none" stroke-width="1" fill="none" fill-rule="evenodd">
        <g id="PAAS-2-Copy" transform="translate(-939.000000, -973.000000)">
            <g id="Group-61" transform="translate(493.000000, 680.000000)">
                <g id="Group-50" transform="translate(370.000000, 294.000000)">
                    <g id="微服务开发运维场景" transform="translate(77.000000, 0.000000)">
                        <path d="M35.0894569,27.1242038 C35.5686901,27.1242038 36,26.6942675 36,26.2165605 L36,24.7834395 C36,24.3057325 35.5686901,23.8757962 35.0894569,23.8757962 L33.5559105,23.8757962 C33.4600639,23.589172 33.3642173,23.3503185 33.2204473,23.111465 L34.3226837,22.0127389 C34.658147,21.6783439 34.7060703,21.1050955 34.3226837,20.7229299 L33.3162939,19.7197452 C32.9808307,19.3853503 32.4057508,19.3375796 32.0223642,19.7197452 L30.9201278,20.8184713 L30.1533546,20.4840764 L30.1533546,18.9076433 C30.1533546,18.4299363 29.7220447,18 29.2428115,18 L27.8051118,18 C27.3258786,18 26.8945687,18.4299363 26.8945687,18.9076433 L26.8945687,20.4363057 L26.1277955,20.7707006 L25.0255591,19.6719745 C24.6900958,19.3375796 24.115016,19.2898089 23.7316294,19.6719745 L22.6773163,20.7229299 C22.341853,21.0573248 22.2939297,21.6305732 22.6773163,22.0127389 L23.7795527,23.111465 L23.4920128,23.8280255 L21.9105431,23.8280255 C21.4313099,23.8280255 21,24.2579618 21,24.7356688 L21,26.1687898 C21,26.6464968 21.4313099,27.0764331 21.9105431,27.0764331 L23.4440895,27.0764331 C23.5399361,27.3630573 23.6357827,27.6019108 23.7795527,27.8407643 L22.6773163,28.9872611 C22.341853,29.3216561 22.2939297,29.8949045 22.6773163,30.2770701 L23.6837061,31.2802548 C24.0191693,31.6146497 24.5942492,31.6624204 24.9776358,31.2802548 L26.0798722,30.1815287 L26.8466454,30.5159236 L26.8466454,32.044586 C26.798722,32.522293 27.1821086,32.9522293 27.7092652,33 L29.1948882,33 C29.6741214,33 30.1054313,32.5700637 30.1054313,32.0923567 L30.1054313,30.5159236 L30.8242812,30.2292994 L31.9265176,31.3280255 C32.2619808,31.6624204 32.8370607,31.7101911 33.2204473,31.3280255 L34.2268371,30.3248408 C34.5623003,29.9904459 34.6102236,29.4171975 34.2268371,29.0350318 L33.2204473,27.888535 C33.3642173,27.6496815 33.4600639,27.410828 33.5559105,27.1242038 L35.0894569,27.1242038 Z M33.7476038,29.6082803 C33.7476038,29.656051 32.6453674,30.7070064 32.6453674,30.7070064 L31.0638978,29.1305732 L30.7763578,29.3216561 L29.9616613,29.7038217 L29.6261981,29.7993631 L29.2907348,29.8949045 L29.2907348,32.0923567 L27.7092652,32.0923567 L27.7092652,29.8949045 L27.3738019,29.7993631 C26.9904153,29.7038217 26.5591054,29.5127389 26.2236422,29.3216561 L25.9361022,29.1305732 L24.3067093,30.6592357 C24.3067093,30.6592357 23.2523962,29.6082803 23.2523962,29.5605096 L24.7859425,28.0318471 L24.5942492,27.7452229 C24.4025559,27.410828 24.2108626,26.9808917 24.115016,26.5987261 L24.0191693,26.2643312 L21.8146965,26.2643312 L21.8146965,24.8312102 L24.115016,24.8312102 L24.2108626,24.4968153 L24.3067093,24.2101911 C24.4025559,23.9235669 24.5463259,23.6369427 24.6900958,23.3980892 L24.8817891,23.111465 C24.8817891,23.111465 23.3003195,21.5350318 23.3003195,21.4872611 L24.3546326,20.4363057 L25.9361022,22.0127389 L26.2236422,21.8216561 C26.5591054,21.6305732 26.9904153,21.4394904 27.3738019,21.343949 L27.7092652,21.2484076 L27.7092652,18.9076433 L29.2907348,18.9076433 L29.2907348,21.1050955 L29.6261981,21.2006369 C30.0095847,21.2961783 30.4408946,21.4872611 30.7763578,21.6783439 L31.0638978,21.8694268 L32.6932907,20.3407643 L33.7476038,21.3917197 C33.7955272,21.3917197 32.1182109,22.9681529 32.1182109,22.9681529 L32.3099042,23.2547771 C32.5015974,23.589172 32.6932907,24.0191083 32.7891374,24.4012739 L32.884984,24.7356688 L35.1373802,24.7356688 L35.1373802,26.1687898 L32.8370607,26.1687898 L32.7412141,26.5031847 C32.6453674,26.8853503 32.4536741,27.3152866 32.2619808,27.6496815 L32.0702875,27.9363057 C32.1182109,27.9363057 33.7476038,29.5605096 33.7476038,29.6082803 Z" id="Shape" fill="#00A4FF" fill-rule="nonzero"></path>
                        <path d="M0.350065154,18.7729725 C0.593449846,18.8221409 0.788157599,18.6746357 0.836834538,18.4287937 C2.63788126,6.92338785 13.2494538,-0.599377543 24.6885344,1.0231797 C32.7689061,2.15405293 40.3625085,9.1359659 42.0175244,17.9862781 L38.8535235,15.9212053 C38.6588157,15.7737001 38.3667541,15.8228685 38.2207233,16.0687105 C38.0746924,16.3145525 38.1233694,16.5603945 38.3667541,16.7078997 L42.358263,19.313825 C42.358263,19.313825 43.0884171,19.7071722 42.9910632,18.8713093 C41.2873704,6.82505104 30.2377053,-1.53357717 18.3118554,0.236485278 C9.01456019,1.61320051 1.61566555,8.8901239 0.00932658452,18.2812885 C-0.0393503539,18.5271305 0.106680461,18.7238041 0.350065154,18.7729725 Z" id="Shape" stroke="#00A4FF" fill="#00A4FF" fill-rule="nonzero"></path>
                        <path d="M28.7029759,23.001455 C27.1963992,23.001455 26,24.2099336 26,25.7317214 C26,27.2535091 27.1963992,28.4619877 28.7029759,28.4619877 C30.2095527,28.4619877 31.4059519,27.2535091 31.4059519,25.7317214 C31.4059519,24.2099336 30.2095527,23.001455 28.7029759,23.001455 Z" id="Path" stroke="#00A4FF"></path>
                        <path d="M42.6104622,24.3742298 C42.367001,24.3250598 42.1722321,24.5217397 42.1235399,24.7675895 C40.662773,36.3225307 30.291328,44.3864045 18.848654,42.9604756 C10.6196671,41.9770763 3.26714042,35.4866413 1.02729785,26.8327279 L4.14360056,29.0945462 L4.38706171,29.1928861 C4.63052286,29.1928861 4.82529178,28.9470363 4.77659955,28.7011865 C4.77659955,28.5536766 4.72790732,28.4553367 4.63052286,28.4061667 L0.637760006,25.455969 C0.540375547,25.357629 0.442991087,25.357629 0.296914397,25.357629 C0.296914397,25.357629 -0.0439312118,25.406799 0.00476101803,25.8001587 C2.14721913,37.7484596 13.4438165,45.8123334 25.2760283,43.6488551 C34.5762442,41.9279064 41.7826943,34.6999219 43,24.7675895 C43,24.5709096 42.8052311,24.3742298 42.6104622,24.3742298 Z M36.1830878,20.5881427 L36.1830878,11 L9.98666814,11 C9.74320699,11 9.54843807,11.1966798 9.54843807,11.4425297 C9.54843807,11.6883795 9.74320699,11.8850593 9.98666814,11.8850593 L35.3066277,11.8850593 L35.3066277,20.5881427 C35.3066277,20.8339925 35.5013966,21.0306723 35.7448577,21.0306723 C35.9883189,21.0306723 36.1830878,20.8339925 36.1830878,20.5881427 Z" id="Shape" stroke="#00A4FF" fill="#00A4FF" fill-rule="nonzero"></path>
                        <path d="M7.44875346,13 C7.19944598,13 7,13.1958042 7,13.4405594 L7,34 L24.5512465,34 C24.800554,34 25,33.8041958 25,33.5594406 C25,33.3146853 24.800554,33.1188811 24.5512465,33.1188811 L7.89750693,33.1188811 L7.89750693,13.4405594 C7.89750693,13.1958042 7.69806094,13 7.44875346,13 Z" id="Shape" stroke="#00A4FF" fill="#00A4FF" fill-rule="nonzero"></path>
                        <path d="M18.8598131,18.1538462 C18.7196262,17.9487179 18.4392523,17.9487179 18.2523364,18.1538462 L14.1401869,22.6666667 C13.953271,22.8205128 13.953271,23.1282051 14.1401869,23.3333333 L18.2523364,27.8461538 C18.4392523,28.0512821 18.6728972,28.0512821 18.8598131,27.8461538 C19.046729,27.6410256 19.046729,27.3846154 18.8598131,27.1794872 L15.0280374,22.974359 L18.8598131,18.7692308 C19,18.6153846 19,18.3076923 18.8598131,18.1538462 Z" id="Shape" stroke="#00A4FF" fill="#00A4FF" fill-rule="nonzero"></path>
                    </g>
                </g>
            </g>
        </g>
    </g>
</svg>