<?xml version="1.0" encoding="UTF-8" standalone="no"?>
<svg width="45px" height="45px" viewBox="0 0 45 45" version="1.1" xmlns="http://www.w3.org/2000/svg" xmlns:xlink="http://www.w3.org/1999/xlink">
    <!-- Generator: Sketch 50.2 (55047) - http://www.bohemiancoding.com/sketch -->
    <title>Group Copy</title>
    <desc>Created with Sketch.</desc>
    <defs></defs>
    <g id="官网" stroke="none" stroke-width="1" fill="none" fill-rule="evenodd">
        <g id="PAAS-2-Copy" transform="translate(-570.000000, -766.000000)">
            <g id="Group-61" transform="translate(493.000000, 680.000000)">
                <g id="Group-46" transform="translate(0.000000, 86.000000)">
                    <g id="Group-Copy" transform="translate(77.000000, 0.000000)">
                        <path d="M29.9085409,25.2833842 C31.2892528,25.2833842 32.4085409,24.164096 32.4085409,22.7833842 C32.4085409,21.4026723 31.2892528,20.2833842 29.9085409,20.2833842 C28.527829,20.2833842 27.4085409,21.4026723 27.4085409,22.7833842 C27.4085409,24.164096 28.527829,25.2833842 29.9085409,25.2833842 Z" id="Oval-3" stroke="#00A4FF" stroke-width="0.5"></path>
                        <path d="M39.81754,35.2442709 C42.5188376,31.5802823 44,27.1535776 44,22.5 C44,10.6258779 34.3741221,1 22.5,1 C10.6258779,1 1,10.6258779 1,22.5 C1,34.3741221 10.6258779,44 22.5,44 C24.3911129,44 26.2489446,43.7560666 28.0411067,43.2794458 L39.81754,35.2442709 Z" id="Oval" stroke="#00A4FF" stroke-width="2"></path>
                        <path d="M27.9492366,44.3250009 C28.5015213,44.3250009 28.9492366,43.8772856 28.9492366,43.3250009 C28.9492366,42.7727161 28.5015213,42.3250009 27.9492366,42.3250009 C27.3969518,42.3250009 26.9492366,42.7727161 26.9492366,43.3250009 C26.9492366,43.8772856 27.3969518,44.3250009 27.9492366,44.3250009 Z" id="Oval-2" fill="#00A4FF"></path>
                        <path d="M33,42 C33.5522847,42 34,41.5522847 34,41 C34,40.4477153 33.5522847,40 33,40 C32.4477153,40 32,40.4477153 32,41 C32,41.5522847 32.4477153,42 33,42 Z" id="Oval-2-Copy-2" fill="#00A4FF"></path>
                        <path d="M29.8595056,23.7701366 C30.4117904,23.7701366 30.8595056,23.3224213 30.8595056,22.7701366 C30.8595056,22.2178518 30.4117904,21.7701366 29.8595056,21.7701366 C29.3072209,21.7701366 28.8595056,22.2178518 28.8595056,22.7701366 C28.8595056,23.3224213 29.3072209,23.7701366 29.8595056,23.7701366 Z" id="Oval-2-Copy-4" fill="#00A4FF"></path>
                        <path d="M37,39 C37.5522847,39 38,38.5522847 38,38 C38,37.4477153 37.5522847,37 37,37 C36.4477153,37 36,37.4477153 36,38 C36,38.5522847 36.4477153,39 37,39 Z" id="Oval-2-Copy-3" fill="#00A4FF"></path>
                        <path d="M39.7828659,36.2993416 C40.3351506,36.2993416 40.7828659,35.8516264 40.7828659,35.2993416 C40.7828659,34.7470569 40.3351506,34.2993416 39.7828659,34.2993416 C39.2305811,34.2993416 38.7828659,34.7470569 38.7828659,35.2993416 C38.7828659,35.8516264 39.2305811,36.2993416 39.7828659,36.2993416 Z" id="Oval-2-Copy" fill="#00A4FF"></path>
                        <path d="M14.7874329,20.1387996 C13.5664624,20.1348507 12.4859999,20.9215664 12.1246585,22.077642 C11.763317,23.2337175 12.2058017,24.4881475 13.2151517,25.1691551 C14.2245016,25.8501627 15.5641065,25.7981072 16.5165764,25.0408655 L20.9892941,29.4744356 C20.0421804,30.591573 20.1386138,32.247097 21.2091463,33.2487559 C22.2796787,34.2504147 23.9526024,34.2504147 25.0231349,33.2487559 C26.0936673,32.247097 26.1901007,30.591573 25.242987,29.4744356 L27.3064315,27.4290515 C29.488445,28.6225133 32.2182859,28.1092365 33.8078368,26.2066283 C35.3973877,24.3040201 35.3973877,21.549822 33.8078368,19.6472138 C32.2182859,17.7446056 29.488445,17.2313287 27.3064315,18.4247905 L25.3121527,16.4479667 C26.2018753,15.3177374 26.0679886,13.6999313 25.0043399,12.728542 C23.9406911,11.7571527 22.3031177,11.7571527 21.2394689,12.728542 C20.1758201,13.6999313 20.0419334,15.3177374 20.931656,16.4479667 L16.5857421,20.790123 C16.0836109,20.3677833 15.4459666,20.1368371 14.7874329,20.1387996 Z M12.5510741,22.8926408 C12.5510741,21.6683443 13.552326,20.6758558 14.7874329,20.6758558 C16.0225398,20.6758558 17.0237918,21.6683443 17.0237918,22.8926408 C17.0237918,24.1169374 16.0225398,25.1094259 14.7874329,25.1094259 C13.5549469,25.1031766 12.5573785,24.1143395 12.5510741,22.8926408 Z M23.133432,33.4509367 C21.8983251,33.4509367 20.8970732,32.4584482 20.8970732,31.2341516 C20.8970732,30.009855 21.8983251,29.0173666 23.133432,29.0173666 C24.3685389,29.0173666 25.3697909,30.009855 25.3697909,31.2341516 C25.3634864,32.4558503 24.3659181,33.4446874 23.133432,33.4509367 Z M34.4650854,22.8926408 C34.4650854,25.4169637 32.4006484,27.4633317 29.8540362,27.4633317 C27.3074241,27.4633317 25.242987,25.4169637 25.242987,22.8926408 C25.242987,20.368318 27.3074241,18.32195 29.8540362,18.32195 C32.4006484,18.32195 34.4650854,20.368318 34.4650854,22.8926408 Z M24.632023,22.8926408 C24.6326777,24.5685116 25.4590014,26.1384364 26.8453266,27.0976764 L24.8625755,29.0630734 C23.851835,28.2609163 22.4150291,28.2609163 21.4042886,29.0630734 L16.9315708,24.6295033 C17.7847191,23.6130706 17.7847191,22.1379308 16.9315708,21.1214981 L21.3120676,16.7793418 C22.355006,17.6835103 23.9118581,17.6835103 24.9547964,16.7793418 L26.8453266,18.6533251 C25.4576771,19.624547 24.6391266,21.2088851 24.6550782,22.8926408 L24.632023,22.8926408 Z M23.133432,12.5171726 C24.3685389,12.5171727 25.3697908,13.5096611 25.3697908,14.7339577 C25.3697908,15.9582543 24.3685388,16.9507427 23.133432,16.9507427 C21.8983251,16.9507427 20.8970731,15.9582542 20.8970731,14.7339577 C20.9033775,13.512259 21.9009459,12.5234218 23.133432,12.5171726 Z" id="Shape" stroke="#00A4FF" stroke-width="0.5" fill="#00A4FF" fill-rule="nonzero"></path>
                    </g>
                </g>
            </g>
        </g>
    </g>
</svg>