<?xml version="1.0" encoding="UTF-8" standalone="no"?>
<svg width="48px" height="48px" viewBox="0 0 48 48" version="1.1" xmlns="http://www.w3.org/2000/svg" xmlns:xlink="http://www.w3.org/1999/xlink">
    <!-- Generator: Sketch 50.2 (55047) - http://www.bohemiancoding.com/sketch -->
    <title>效率-2</title>
    <desc>Created with Sketch.</desc>
    <defs></defs>
    <g id="官网" stroke="none" stroke-width="1" fill="none" fill-rule="evenodd">
        <g id="PAAS-2-Copy" transform="translate(-1314.000000, -762.000000)" fill="#00A4FF" fill-rule="nonzero">
            <g id="Group-61" transform="translate(493.000000, 680.000000)">
                <g id="Group-48" transform="translate(746.000000, 82.000000)">
                    <g id="效率-2" transform="translate(75.000000, 0.000000)">
                        <path d="M41.3562656,48 L42.1005,46.2488906 L1.75110937,46.2488906 L1.75110937,5.89959375 L0,6.64373437 L2.80223437,0 L5.60446875,6.64373437 L3.85335937,5.89959375 L3.85335937,44.1466406 L42.1005,44.1466406 L41.3562656,42.3955312 L48,45.1977187 L41.3562656,48 Z M7.35703125,41.34375 L14.3644688,41.34375 L14.3644688,32.9347969 L7.35703125,32.9347969 L7.35703125,41.34375 Z M24.875625,41.3437031 L24.875625,25.2266719 L17.8681406,25.2266719 L17.8681406,41.3437031 L24.875625,41.3437031 Z M29.7807656,41.34375 L36.7881094,41.34375 L36.7881094,18.2192344 L29.7807656,18.2192344 L29.7807656,41.34375 Z M7.12092187,22.80075 L7.59323437,24.8496562 C15.2082187,23.0923594 26.6709375,18 34.5661875,9.384375 L37.1911875,11.3386875 L38.189625,2.80298438 L30.2986875,6.20578125 L32.8724531,8.12292187 C25.3107656,16.287375 14.3925,21.1230937 7.12096875,22.80075 L7.12092187,22.80075 Z" id="Shape"></path>
                    </g>
                </g>
            </g>
        </g>
    </g>
</svg>