<?xml version="1.0" encoding="UTF-8" standalone="no"?>
<svg width="45px" height="45px" viewBox="0 0 45 45" version="1.1" xmlns="http://www.w3.org/2000/svg" xmlns:xlink="http://www.w3.org/1999/xlink">
    <!-- Generator: Sketch 50.2 (55047) - http://www.bohemiancoding.com/sketch -->
    <title>运维中心</title>
    <desc>Created with Sketch.</desc>
    <defs></defs>
    <g id="官网" stroke="none" stroke-width="1" fill="none" fill-rule="evenodd">
        <g id="PAAS-2-Copy" transform="translate(-938.000000, -766.000000)" fill="#00A4FF" fill-rule="nonzero">
            <g id="Group-61" transform="translate(493.000000, 680.000000)">
                <g id="Group-47" transform="translate(370.000000, 86.000000)">
                    <g id="运维中心" transform="translate(75.000000, 0.000000)">
                        <path d="M23.7576735,32.4097734 L28.257817,32.4097734 C28.6486661,32.4097734 28.8673982,32.5168059 28.9513052,32.8153319 C29.0434596,33.1630056 29.1051348,33.5434442 28.7974756,33.8183066 C28.6744836,33.9297078 28.4683018,33.9919614 28.2954676,33.9919614 C24.6604513,34.0009415 21.0253156,34.0023977 17.3900602,33.9963301 C16.9335915,33.9963301 16.7008749,33.7465876 16.7008749,33.2922455 L16.7008749,33.1943144 C16.7008749,32.6059996 16.9070568,32.4054047 17.4997848,32.4054047 L22.2466294,32.4054047 C22.2466294,32.1826024 22.2509323,31.9776388 22.2466294,31.7723111 L22.2204532,30.8050139 C21.8912794,30.7915438 21.561747,30.7686082 21.2282702,30.7649677 C19.345023,30.760599 17.4571142,30.7427603 15.5735083,30.7693364 C14.1904762,30.7871751 13.1853844,29.7576243 13.0358577,28.5849995 C13.0152017,28.4536857 13.0032223,28.3211159 13,28.1881783 L13,16.5857088 C13,15.3821392 13.7684309,14.3616898 14.8789444,14.0850071 C15.1140025,14.0294165 15.3547591,14.0025286 15.5960987,14.0049147 C20.5308376,14.0005461 25.46725,13.9990899 30.4053356,14.0005461 C31.9156627,14.0005461 33,15.0927145 33,16.6079162 L33,28.1619663 C33,29.4277895 32.2111302,30.4486029 31.0199369,30.7103593 C30.8047906,30.7595069 30.572074,30.7595069 30.3483219,30.7595069 C28.2542312,30.7638755 26.1615749,30.7624193 24.0703529,30.7551382 C23.8243689,30.7551382 23.7322146,30.8086544 23.7454819,31.071503 C23.7763196,31.5083704 23.7587493,31.940505 23.7587493,32.4086812 L23.7576735,32.4097734 Z M23.00251,29.1736783 L30.1059237,29.1736783 C30.9618474,29.1736783 31.4756885,28.6567185 31.4756885,27.8051912 L31.4756885,16.9785254 C31.4756885,16.1317308 30.9532415,15.6056696 30.1059237,15.6056696 L15.8998135,15.6056696 C15.0524957,15.6056696 14.5300487,16.1360995 14.5300487,16.9828941 L14.5300487,27.7564077 C14.5300487,28.6745573 15.0263196,29.1736783 15.9525244,29.1736783 L23.00251,29.1736783 Z" id="Shape"></path>
                        <path d="M22.5009545,0 C10.0781101,0 0,10.0766286 0,22.5 C0,34.9233714 10.0699968,45 22.4990455,45 C34.9280942,45 45,34.9233714 45,22.5 C45,10.0766286 34.9237989,0 22.5009545,0 Z M22.5009545,43.1243239 C11.1089723,43.1243239 1.87750556,33.8924655 1.87750556,22.5 C1.87750556,11.1075345 11.1089723,1.87567616 22.5009545,1.87567616 C33.8929367,1.87567616 43.1248807,11.1075345 43.1248807,22.5 C43.1248807,33.8924655 33.8929367,43.1243239 22.5009545,43.1243239 Z" id="Shape"></path>
                        <path d="M19.7777778,24.4674767 L19.7777778,19.8570407 L21.3333333,19.8570407 L21.3333333,24.3245175 C21.5888333,24.2798427 21.849,24.226233 22.1111111,24.1626161 L22.1111111,19.7090779 C22.1111111,19.3962218 21.8351444,19.1426018 21.4947222,19.1426018 L19.6171667,19.1426018 C19.4536228,19.142507 19.2967419,19.2021473 19.1810625,19.3083924 C19.065383,19.4146376 19.0003888,19.5587771 19.0003889,19.7090779 L19.0003889,24.413867 C19.25768,24.4507516 19.5177674,24.4686786 19.7781667,24.4674767 L19.7777778,24.4674767 Z M21.3333333,25.7755539 L21.3333333,26.2852036 L19.7777778,26.2852036 L19.7777778,25.8956397 C19.5178795,25.8958869 19.2581843,25.8822829 19,25.8548963 L19,26.4338813 C19.0001031,26.5841201 19.0651428,26.7281678 19.1808111,26.8343357 C19.2964794,26.9405035 19.4533013,27.0000947 19.6167778,26.9999999 L21.4935556,26.9999999 C21.8336741,26.9998027 22.109341,26.7464583 22.1095556,26.4338813 L22.1095556,25.6343816 C21.847963,25.6901357 21.5887037,25.7371931 21.3317778,25.7755539 L21.3333333,25.7755539 Z M23.6666667,23.6754824 L23.6666667,17.7144389 L25.2222222,17.7144389 L25.2222222,22.9299499 C25.4960217,22.768874 25.756037,22.5888175 26,22.3913509 L26,17.5664761 C26.0000001,17.2537595 25.7242703,17.0001973 25.384,17 L23.5033334,17 C23.3398568,17 23.1830759,17.0596821 23.0674806,17.165917 C22.9518852,17.2721519 22.8869444,17.4162373 22.8869444,17.5664761 L22.8869444,23.9467476 C23.1525555,23.8638313 23.4123333,23.7726947 23.6647222,23.6754824 L23.6666667,23.6754824 Z M25.2222222,24.5822015 L25.2222222,26.2852036 L23.6666667,26.2852036 L23.6666667,25.21015 C23.5702223,25.2423159 23.4731297,25.2737669 23.3753889,25.3045031 C23.2133519,25.3547771 23.0514445,25.4024302 22.8896667,25.4474624 L22.8896667,26.4356682 C22.890943,26.7465742 23.1646461,26.9984328 23.5029444,26.9999999 L25.3797222,26.9999999 C25.7199925,26.9998026 25.9957223,26.7462404 25.9957222,26.4335238 L25.9957222,24.1683345 C25.7507222,24.3112937 25.491463,24.4492494 25.2179445,24.5822015 L25.2222222,24.5822015 Z" id="Shape"></path>
                        <path d="M27.9477282,20.8686628 C27.7933265,20.4382443 27.3168972,20.145968 26.6320971,20 L26.6320971,20.7002382 C27.0030901,20.8023137 27.2139628,20.9465804 27.2640004,21.0864239 C27.3354826,21.290575 27.1367619,21.7267778 26.5252312,22.2456618 C25.8104086,22.8536917 24.7024335,23.4239537 23.4893795,23.81082 C22.4586052,24.1395032 21.4020974,24.3211977 20.5139303,24.3211977 C19.418822,24.3211977 18.824447,24.0544403 18.7354516,23.8063967 C18.6639693,23.6097312 18.8516102,23.1939435 19.4184646,22.6961551 L19.4184646,21.8115005 C18.3730365,22.5552909 17.8197638,23.374277 18.0527959,24.0231371 C18.2829688,24.664852 19.2290366,25 20.5142877,25 C21.4514201,25 22.5690453,24.8220483 23.7206246,24.4555971 C26.4530341,23.5845526 28.345527,21.9789044 27.9470134,20.8693433 L27.9477282,20.8686628 Z" id="Shape"></path>
                    </g>
                </g>
            </g>
        </g>
    </g>
</svg>