<?xml version="1.0" encoding="UTF-8" standalone="no"?>
<svg width="46px" height="46px" viewBox="0 0 46 46" version="1.1" xmlns="http://www.w3.org/2000/svg" xmlns:xlink="http://www.w3.org/1999/xlink">
    <!-- Generator: Sketch 50.2 (55047) - http://www.bohemiancoding.com/sketch -->
    <title>devops-2</title>
    <desc>Created with Sketch.</desc>
    <defs></defs>
    <g id="官网" stroke="none" stroke-width="1" fill="none" fill-rule="evenodd">
        <g id="PAAS-2-Copy" transform="translate(-1313.000000, -973.000000)" fill="#00A4FF" fill-rule="nonzero" stroke="#00A4FF" stroke-width="0.5">
            <g id="Group-61" transform="translate(493.000000, 680.000000)">
                <g id="Group-49" transform="translate(746.000000, 294.000000)">
                    <g id="devops-2" transform="translate(75.000000, 0.000000)">
                        <path d="M30.3522501,40.8354827 C27.7181042,42.0058845 24.9077635,42.5992041 22,42.5992041 C17.7180045,42.5992041 13.6376566,41.30417 10.1607157,38.8545326 C11.031816,37.4043665 10.8400423,35.4923152 9.58429748,34.2530146 C8.88338432,33.5572465 7.93512001,33.1678995 6.94751854,33.1703819 C5.9433201,33.1673197 4.98039489,33.5697095 4.27694884,34.2863669 C2.82328652,35.7591335 2.83842652,38.1398721 4.31095906,39.5933295 C5.01187222,40.2890976 5.96013653,40.6784446 6.94773799,40.6759622 C7.78153675,40.6759622 8.5705737,40.4025612 9.22093674,39.9044712 C12.9642544,42.5827474 17.3717586,44 22.0004388,44 C25.105681,44 28.1069178,43.3658677 30.9214274,42.1158154 C31.2750148,41.9587414 31.4344231,41.5448455 31.2775473,41.1911672 C31.1197646,40.8379451 30.7060004,40.678894 30.3522501,40.8354827 Z M5.29506102,38.5962718 C4.37239685,37.6852278 4.36274233,36.1935908 5.27377724,35.2706981 C5.71463941,34.8214871 6.31811977,34.5691905 6.94751854,34.5709584 C7.56633366,34.5694998 8.16045732,34.8135751 8.59953721,35.2496335 C9.52220138,36.1606774 9.5318559,37.6523144 8.62082104,38.5752072 C8.17995886,39.0244182 7.5764785,39.2767147 6.94707973,39.2749469 C6.32826931,39.2763814 5.73415446,39.0323098 5.29506102,38.5962718 Z M44,22.0002194 C44,18.9151332 43.3739927,15.9312009 42.1388734,13.1313645 C41.9825515,12.7776359 41.569314,12.6173072 41.2153316,12.7730469 C40.8615402,12.9288304 40.7010199,13.3419237 40.8567981,13.6957203 L40.8572369,13.6965979 C42.0127065,16.3173852 42.5989987,19.1110779 42.5989987,22.0002194 C42.5989987,26.237276 41.3329411,30.276413 38.9340142,33.7288132 C38.3440079,33.3632476 37.6636174,33.1697603 36.9695404,33.1701625 C35.965342,33.1671002 35.0024168,33.5694901 34.2989707,34.2861474 C32.8453084,35.758914 32.860229,38.1398721 34.3325421,39.5933295 C35.0335587,40.2889151 35.9817745,40.6781633 36.969321,40.6757428 C37.9734037,40.6785464 38.9361645,40.2761923 39.6396713,39.5597578 C40.341378,38.8531374 40.7310841,37.8950608 40.7218543,36.899255 C40.7177507,36.0989449 40.4556641,35.3212954 39.9745073,34.681767 C42.6073367,30.9601349 44,26.5892304 44,22.0002194 Z M38.6424041,38.5754266 C38.2017196,39.0246337 37.5983731,39.2769404 36.9691016,39.2751663 C36.3502676,39.2767211 35.7561086,39.0326313 35.3170829,38.5964912 C34.3944187,37.6854473 34.3847642,36.1938103 35.2960185,35.2709175 C35.7368237,34.8216223 36.3403412,34.5693102 36.9697598,34.5711778 C37.588575,34.5697192 38.1826986,34.8137945 38.6217785,35.2498529 C39.0670944,35.686922 39.3189239,36.2840648 39.3210724,36.9080319 C39.3265987,37.5321615 39.0822204,38.1325654 38.6424041,38.5754266 Z M13.914785,3.04800376 C16.4732307,1.95527764 19.1936089,1.40101534 21.9997806,1.40101534 C26.259834,1.40101534 30.3169233,2.67981209 33.780699,5.10246054 C33.4068695,5.70180302 33.2110733,6.39504848 33.2161294,7.1014033 C33.2196578,8.09717299 33.6214314,9.05014044 34.3318839,9.74786311 C35.0329005,10.4434487 35.9811162,10.8326969 36.9686628,10.8302764 C37.9727455,10.8330801 38.9355062,10.4307259 39.639013,9.71429141 C40.3408864,9.00778122 40.7306221,8.04963187 40.721196,7.05378855 C40.7177166,6.05800889 40.3159354,5.10502337 39.6054416,4.40732874 C38.9046005,3.71174859 37.9565197,3.32249108 36.9691016,3.32491546 C36.1646914,3.32375991 35.381604,3.58353408 34.7373734,4.06524838 C31.003052,1.40606206 26.6126626,0 21.9997806,0 C19.0031517,0 16.0978018,0.592003029 13.3642584,1.7597718 C13.1341402,1.85811489 12.9739671,2.07175547 12.9440748,2.3202172 C12.9141824,2.56867892 13.0191122,2.81421455 13.2193381,2.96433318 C13.4195639,3.11445181 13.6846668,3.14634686 13.914785,3.04800376 Z M38.6211203,5.40438645 C39.0666062,5.84152021 39.3184563,6.43886986 39.3204141,7.0630043 C39.3262537,7.68721562 39.0819222,8.28777777 38.6419652,8.73061849 C38.201236,9.17970648 37.5978801,9.43185891 36.9686628,9.42991932 C36.3498743,9.43146026 35.7557462,9.18746205 35.3166441,8.75146363 C34.8713282,8.31439454 34.6194988,7.71725175 34.6173502,7.09328464 C34.6116038,6.46922032 34.8559301,5.868829 35.2957991,5.42610935 C35.736649,4.97693324 36.3401759,4.72477545 36.9695404,4.72680848 C37.5881503,4.72464486 38.1822675,4.9683877 38.6211203,5.40438645 Z M1.40100137,22.0002194 C1.40100137,17.7789614 2.65850158,13.7521119 5.04141067,10.3071721 C5.61797218,10.649913 6.27633979,10.83071 6.94707973,10.8304958 C7.95128808,10.8336079 8.91423187,10.4312103 9.61764939,9.71451082 C11.0713117,8.24196364 11.0561717,5.86144437 9.58363922,4.40732874 C8.88279802,3.71174858 7.93471729,3.32249107 6.94729914,3.32491546 C5.9431007,3.32185324 4.98017548,3.72424307 4.27672943,4.44090044 C2.94067663,5.79408157 2.8487393,7.91239043 3.98511927,9.37528299 C1.37840101,13.0855051 0,17.4362227 0,22.0002194 C0,24.69583 0.482286783,27.3295633 1.43303679,29.8272543 C1.57070037,30.1888672 1.97544095,30.3704128 2.33705019,30.2327479 C2.69865943,30.0950829 2.88020327,29.6903383 2.74253969,29.3287254 C1.8523498,26.9903354 1.40100137,24.5248995 1.40100137,22.0002194 Z M5.27399664,5.42545108 C5.71487508,4.97631708 6.31838341,4.72416707 6.94773799,4.72615021 C7.5700152,4.72615021 8.15674621,4.96707657 8.59975666,5.40416704 C9.52220142,6.31521099 9.53207535,7.80728685 8.62104044,8.73017963 C8.18016201,9.1793136 7.5766537,9.4314636 6.94729914,9.42948046 C6.3913192,9.43022585 5.85330995,9.23260372 5.43000478,8.87214626 C5.39406535,8.8270985 5.35272351,8.78664058 5.30690974,8.75168308 C5.29879116,8.74575864 5.28979491,8.74224788 5.28145696,8.73654289 C4.37305516,7.82396299 4.36778904,6.34329711 5.27399664,5.42545108 Z M22,9.29409654 C14.9941156,9.29409654 9.29422326,14.9940457 9.29422326,22 C9.29422326,29.0059543 14.9941156,34.7059035 22,34.7059035 C29.0058845,34.7059035 34.7059962,29.0059543 34.7059962,22 C34.7059962,14.9940456 29.0058845,9.2940965 22,9.29409654 Z M22,10.6953313 C25.9410157,10.6953313 29.415543,12.7236768 31.4394798,15.790112 L25.6279023,19.2894687 C25.4932312,19.1069704 25.3451513,18.9347589 25.1848919,18.7742637 C24.338069,17.9340625 23.1926866,17.463864 21.9997806,17.4667225 C20.778046,17.4667225 19.6322309,17.9452839 18.7740764,18.8150763 C18.629297,18.9640357 18.494915,19.1227591 18.3718783,19.290127 L12.5600814,15.7903314 C14.5844571,12.7236768 18.0589843,10.6953313 22,10.6953313 Z M22,25.1324816 C21.1757285,25.1344326 20.3843075,24.809497 19.7992101,24.228898 C18.5702346,23.0154893 18.5577276,21.0283953 19.7709048,19.7994076 C20.3580621,19.2012254 21.1618105,18.8653709 22,18.8679573 C22.829191,18.8679573 23.6105482,19.1887536 24.2007899,19.7713214 C24.7938988,20.3537367 25.1293753,21.1492174 25.1324504,21.9804713 C25.1401395,22.8116092 24.8147335,23.6112246 24.2288758,24.2008119 C23.6419083,24.7991675 22.8381803,25.1351256 22,25.1324816 Z M10.6952246,22.0002194 C10.6936641,20.2675157 11.0930397,18.5579489 11.862104,17.0052761 L17.7175656,20.5314024 C17.1734022,22.1266071 17.5376406,23.9647128 18.8151081,25.2261752 C19.4906339,25.8942991 20.3603688,26.33136 21.299609,26.4746916 L21.299609,33.2811904 C15.3912671,32.9180455 10.6952246,27.9983643 10.6952246,22.0002194 Z M22.7006104,33.2811904 L22.7006104,26.4746916 C23.6595511,26.3287797 24.5455298,25.8764719 25.226143,25.1853625 C26.0737082,24.3317158 26.5443991,23.1743752 26.5332323,21.971475 C26.529384,21.4804875 26.4457929,20.9933865 26.2857257,20.5292082 L32.1381154,17.0052761 C32.9069542,18.5580299 33.3063172,20.267543 33.3049948,22.0002194 C33.3047754,27.9983643 28.6087329,32.9180455 22.7006104,33.2811904 Z" id="Shape"></path>
                    </g>
                </g>
            </g>
        </g>
    </g>
</svg>