<?xml version="1.0" encoding="UTF-8" standalone="no"?>
<svg width="460px" height="357px" viewBox="0 0 460 357" version="1.1" xmlns="http://www.w3.org/2000/svg" xmlns:xlink="http://www.w3.org/1999/xlink">
    <!-- Generator: Sketch 50.2 (55047) - http://www.bohemiancoding.com/sketch -->
    <title>Group 38</title>
    <desc>Created with Sketch.</desc>
    <defs>
        <radialGradient cx="-809%" cy="-542%" fx="-809%" fy="-542%" r="3947%" id="radialGradient-1">
            <stop stop-color="#25D8EF" offset="0%"></stop>
            <stop stop-color="#24C9E8" offset="8%"></stop>
            <stop stop-color="#2092D0" offset="39%"></stop>
            <stop stop-color="#1D6BBE" offset="66%"></stop>
            <stop stop-color="#1C52B3" offset="87%"></stop>
            <stop stop-color="#1B49AF" offset="100%"></stop>
        </radialGradient>
        <radialGradient cx="-860%" cy="-480%" fx="-860%" fy="-480%" r="3939%" id="radialGradient-2">
            <stop stop-color="#25D8EF" offset="0%"></stop>
            <stop stop-color="#24C9E8" offset="8%"></stop>
            <stop stop-color="#2092D0" offset="39%"></stop>
            <stop stop-color="#1D6BBE" offset="66%"></stop>
            <stop stop-color="#1C52B3" offset="87%"></stop>
            <stop stop-color="#1B49AF" offset="100%"></stop>
        </radialGradient>
        <radialGradient cx="-841%" cy="-507%" fx="-841%" fy="-507%" r="3944%" id="radialGradient-3">
            <stop stop-color="#25D8EF" offset="0%"></stop>
            <stop stop-color="#24C9E8" offset="8%"></stop>
            <stop stop-color="#2092D0" offset="39%"></stop>
            <stop stop-color="#1D6BBE" offset="66%"></stop>
            <stop stop-color="#1C52B3" offset="87%"></stop>
            <stop stop-color="#1B49AF" offset="100%"></stop>
        </radialGradient>
        <radialGradient cx="-757%" cy="-670%" fx="-757%" fy="-670%" r="3957%" gradientTransform="translate(-7.570000,-6.700000),scale(1.000000,0.500000),translate(7.570000,6.700000)" id="radialGradient-4">
            <stop stop-color="#25D8EF" offset="0%"></stop>
            <stop stop-color="#24C9E8" offset="8%"></stop>
            <stop stop-color="#2092D0" offset="39%"></stop>
            <stop stop-color="#1D6BBE" offset="66%"></stop>
            <stop stop-color="#1C52B3" offset="87%"></stop>
            <stop stop-color="#1B49AF" offset="100%"></stop>
        </radialGradient>
        <radialGradient cx="-766%" cy="-651%" fx="-766%" fy="-651%" r="3952%" id="radialGradient-5">
            <stop stop-color="#25D8EF" offset="0%"></stop>
            <stop stop-color="#24C9E8" offset="8%"></stop>
            <stop stop-color="#2092D0" offset="39%"></stop>
            <stop stop-color="#1D6BBE" offset="66%"></stop>
            <stop stop-color="#1C52B3" offset="87%"></stop>
            <stop stop-color="#1B49AF" offset="100%"></stop>
        </radialGradient>
        <radialGradient cx="-787%" cy="-611%" fx="-787%" fy="-611%" r="3968%" id="radialGradient-6">
            <stop stop-color="#25D8EF" offset="0%"></stop>
            <stop stop-color="#24C9E8" offset="8%"></stop>
            <stop stop-color="#2092D0" offset="39%"></stop>
            <stop stop-color="#1D6BBE" offset="66%"></stop>
            <stop stop-color="#1C52B3" offset="87%"></stop>
            <stop stop-color="#1B49AF" offset="100%"></stop>
        </radialGradient>
        <radialGradient cx="-28.5509142%" cy="11.4247877%" fx="-28.5509142%" fy="11.4247877%" r="156.53056%" gradientTransform="translate(-0.285509,0.114248),scale(1.000000,0.405660),rotate(-0.000000),translate(0.285509,-0.114248)" id="radialGradient-7">
            <stop stop-color="#C1CEDF" offset="0%"></stop>
            <stop stop-color="#8BA6D2" offset="100%"></stop>
        </radialGradient>
        <radialGradient cx="-782%" cy="-573%" fx="-782%" fy="-573%" r="3926%" gradientTransform="translate(-7.820000,-5.730000),scale(1.000000,0.500000),translate(7.820000,5.730000)" id="radialGradient-8">
            <stop stop-color="#25D8EF" offset="0%"></stop>
            <stop stop-color="#24C9E8" offset="8%"></stop>
            <stop stop-color="#2092D0" offset="39%"></stop>
            <stop stop-color="#1D6BBE" offset="66%"></stop>
            <stop stop-color="#1C52B3" offset="87%"></stop>
            <stop stop-color="#1B49AF" offset="100%"></stop>
        </radialGradient>
        <radialGradient cx="-767%" cy="-625%" fx="-767%" fy="-625%" r="3929%" id="radialGradient-9">
            <stop stop-color="#25D8EF" offset="0%"></stop>
            <stop stop-color="#24C9E8" offset="8%"></stop>
            <stop stop-color="#2092D0" offset="39%"></stop>
            <stop stop-color="#1D6BBE" offset="66%"></stop>
            <stop stop-color="#1C52B3" offset="87%"></stop>
            <stop stop-color="#1B49AF" offset="100%"></stop>
        </radialGradient>
        <radialGradient cx="-884%" cy="-445%" fx="-884%" fy="-445%" r="7872%" gradientTransform="translate(-8.840000,-4.450000),scale(0.500000,1.000000),translate(8.840000,4.450000)" id="radialGradient-10">
            <stop stop-color="#25D8EF" offset="0%"></stop>
            <stop stop-color="#24C9E8" offset="8%"></stop>
            <stop stop-color="#2092D0" offset="39%"></stop>
            <stop stop-color="#1D6BBE" offset="66%"></stop>
            <stop stop-color="#1C52B3" offset="87%"></stop>
            <stop stop-color="#1B49AF" offset="100%"></stop>
        </radialGradient>
        <radialGradient cx="-820%" cy="-527%" fx="-820%" fy="-527%" r="3920%" id="radialGradient-11">
            <stop stop-color="#25D8EF" offset="0%"></stop>
            <stop stop-color="#24C9E8" offset="8%"></stop>
            <stop stop-color="#2092D0" offset="39%"></stop>
            <stop stop-color="#1D6BBE" offset="66%"></stop>
            <stop stop-color="#1C52B3" offset="87%"></stop>
            <stop stop-color="#1B49AF" offset="100%"></stop>
        </radialGradient>
        <radialGradient cx="-860%" cy="-502%" fx="-860%" fy="-502%" r="3951%" id="radialGradient-12">
            <stop stop-color="#25D8EF" offset="0%"></stop>
            <stop stop-color="#24C9E8" offset="8%"></stop>
            <stop stop-color="#2092D0" offset="39%"></stop>
            <stop stop-color="#1D6BBE" offset="66%"></stop>
            <stop stop-color="#1C52B3" offset="87%"></stop>
            <stop stop-color="#1B49AF" offset="100%"></stop>
        </radialGradient>
        <radialGradient cx="-731.914389%" cy="-712%" fx="-731.914389%" fy="-712%" r="3894%" gradientTransform="translate(-7.319144,-7.120000),scale(1.000000,0.500000),translate(7.319144,7.120000)" id="radialGradient-13">
            <stop stop-color="#25D8EF" offset="0%"></stop>
            <stop stop-color="#24C9E8" offset="8%"></stop>
            <stop stop-color="#2092D0" offset="39%"></stop>
            <stop stop-color="#1D6BBE" offset="66%"></stop>
            <stop stop-color="#1C52B3" offset="87%"></stop>
            <stop stop-color="#1B49AF" offset="100%"></stop>
        </radialGradient>
        <radialGradient cx="79.2832163%" cy="7.04349182%" fx="79.2832163%" fy="7.04349182%" r="232.477012%" gradientTransform="translate(0.792832,0.070435),scale(1.000000,0.399946),translate(-0.792832,-0.070435)" id="radialGradient-14">
            <stop stop-color="#FFFFFF" offset="0%"></stop>
            <stop stop-color="#E2E8F5" offset="10%"></stop>
            <stop stop-color="#9CB0DC" offset="34%"></stop>
            <stop stop-color="#6584C9" offset="57%"></stop>
            <stop stop-color="#3D64BB" offset="76%"></stop>
            <stop stop-color="#2450B2" offset="91%"></stop>
            <stop stop-color="#1B49AF" offset="100%"></stop>
        </radialGradient>
        <radialGradient cx="-433%" cy="62.7192982%" fx="-433%" fy="62.7192982%" r="4557%" gradientTransform="translate(-4.330000,0.627193),scale(1.000000,0.101865),translate(4.330000,-0.627193)" id="radialGradient-15">
            <stop stop-color="#FFFFFF" offset="0%"></stop>
            <stop stop-color="#E2E8F5" offset="10%"></stop>
            <stop stop-color="#9CB0DC" offset="34%"></stop>
            <stop stop-color="#6584C9" offset="57%"></stop>
            <stop stop-color="#3D64BB" offset="76%"></stop>
            <stop stop-color="#2450B2" offset="91%"></stop>
            <stop stop-color="#1B49AF" offset="100%"></stop>
        </radialGradient>
        <linearGradient x1="121.539348%" y1="-6.10798873%" x2="426.986221%" y2="-6.10798873%" id="linearGradient-16">
            <stop stop-color="#A5B8D6" offset="0%"></stop>
            <stop stop-color="#1FB4C7" offset="13%"></stop>
            <stop stop-color="#147581" offset="37%"></stop>
            <stop stop-color="#0B434A" offset="58%"></stop>
            <stop stop-color="#051E22" offset="77%"></stop>
            <stop stop-color="#010809" offset="91%"></stop>
            <stop stop-color="#000000" offset="100%"></stop>
        </linearGradient>
        <radialGradient cx="73.441247%" cy="13.7560882%" fx="73.441247%" fy="13.7560882%" r="213.136343%" gradientTransform="translate(0.734412,0.137561),scale(1.000000,0.365482),translate(-0.734412,-0.137561)" id="radialGradient-17">
            <stop stop-color="#C1CEDF" offset="0%"></stop>
            <stop stop-color="#C0CDDF" offset="100%"></stop>
        </radialGradient>
        <linearGradient x1="-124%" y1="117.202124%" x2="36%" y2="25.202124%" id="linearGradient-18">
            <stop stop-color="#2571F1" offset="0%"></stop>
            <stop stop-color="#1449B4" offset="43%"></stop>
            <stop stop-color="#062983" offset="81%"></stop>
            <stop stop-color="#011D70" offset="100%"></stop>
        </linearGradient>
        <linearGradient x1="-146%" y1="132.053942%" x2="33%" y2="25.0539416%" id="linearGradient-19">
            <stop stop-color="#2571F1" offset="0%"></stop>
            <stop stop-color="#1449B4" offset="43%"></stop>
            <stop stop-color="#062983" offset="81%"></stop>
            <stop stop-color="#011D70" offset="100%"></stop>
        </linearGradient>
        <linearGradient x1="-154%" y1="128.04456%" x2="45%" y2="18.04456%" id="linearGradient-20">
            <stop stop-color="#2571F1" offset="0%"></stop>
            <stop stop-color="#1449B4" offset="43%"></stop>
            <stop stop-color="#062983" offset="81%"></stop>
            <stop stop-color="#011D70" offset="100%"></stop>
        </linearGradient>
        <linearGradient x1="-176.087217%" y1="250.912539%" x2="51.4062337%" y2="47.4834486%" id="linearGradient-21">
            <stop stop-color="#2571F1" offset="0%"></stop>
            <stop stop-color="#1449B4" offset="43%"></stop>
            <stop stop-color="#062983" offset="81%"></stop>
            <stop stop-color="#011D70" offset="100%"></stop>
        </linearGradient>
        <linearGradient x1="53.2451417%" y1="-85.1084341%" x2="47.7054666%" y2="120.68655%" id="linearGradient-22">
            <stop stop-color="#0064B8" offset="0%"></stop>
            <stop stop-color="#003C82" offset="33%"></stop>
            <stop stop-color="#001F5B" offset="63%"></stop>
            <stop stop-color="#000D42" offset="86%"></stop>
            <stop stop-color="#000639" offset="100%"></stop>
        </linearGradient>
        <linearGradient x1="-43585.0713%" y1="-27.44998%" x2="-43666.4099%" y2="93.3788605%" id="linearGradient-23">
            <stop stop-color="#4B3E37" offset="0%"></stop>
            <stop stop-color="#0054A3" offset="17%"></stop>
            <stop stop-color="#00347C" offset="53%"></stop>
            <stop stop-color="#002163" offset="82%"></stop>
            <stop stop-color="#001A5A" offset="100%"></stop>
        </linearGradient>
        <linearGradient x1="-54502.4904%" y1="-203.309933%" x2="-54504.023%" y2="21.0789563%" id="linearGradient-24">
            <stop stop-color="#0064B8" offset="0%"></stop>
            <stop stop-color="#003C82" offset="33%"></stop>
            <stop stop-color="#001F5B" offset="63%"></stop>
            <stop stop-color="#000D42" offset="86%"></stop>
            <stop stop-color="#000639" offset="100%"></stop>
        </linearGradient>
        <linearGradient x1="6.93642748%" y1="50.084516%" x2="102.064576%" y2="50.084516%" id="linearGradient-25">
            <stop stop-color="#FFCA75" offset="0%"></stop>
            <stop stop-color="#FFCA75" offset="100%"></stop>
        </linearGradient>
        <linearGradient x1="95.5675163%" y1="39.8774195%" x2="-30.0318648%" y2="60.4807924%" id="linearGradient-26">
            <stop stop-color="#C0CDDF" offset="0%"></stop>
            <stop stop-color="#708BB7" offset="100%"></stop>
        </linearGradient>
        <linearGradient x1="111.254237%" y1="22.1015876%" x2="-51.4580765%" y2="104.300213%" id="linearGradient-27">
            <stop stop-color="#C1CEDF" offset="0%"></stop>
            <stop stop-color="#708BB7" offset="100%"></stop>
        </linearGradient>
        <linearGradient x1="73.7089202%" y1="-83.4226045%" x2="66.4788732%" y2="-40.2847672%" id="linearGradient-28">
            <stop stop-color="#FFFFFF" offset="0%"></stop>
            <stop stop-color="#A8CDE3" offset="100%"></stop>
        </linearGradient>
        <linearGradient x1="84.6153846%" y1="-184%" x2="48.4949833%" y2="86.8571429%" id="linearGradient-29">
            <stop stop-color="#FFFFFF" offset="0%"></stop>
            <stop stop-color="#A8CDE3" offset="100%"></stop>
        </linearGradient>
        <linearGradient x1="9.36454849%" y1="-3.35195531%" x2="94.9832776%" y2="111.731844%" id="linearGradient-30">
            <stop stop-color="#FFFFFF" offset="0%"></stop>
            <stop stop-color="#A8CDE3" offset="100%"></stop>
        </linearGradient>
        <linearGradient x1="17.4464152%" y1="4.30726889%" x2="128.213158%" y2="159.773317%" id="linearGradient-31">
            <stop stop-color="#FFFFFF" offset="0%"></stop>
            <stop stop-color="#A8CDE3" offset="100%"></stop>
        </linearGradient>
        <linearGradient x1="58.2631539%" y1="32.1435732%" x2="40.9831385%" y2="70.95492%" id="linearGradient-32">
            <stop stop-color="#C0CDDF" offset="0%"></stop>
            <stop stop-color="#708BB7" offset="41.4175397%"></stop>
            <stop stop-color="#708BB7" offset="100%"></stop>
        </linearGradient>
        <linearGradient x1="24.0000727%" y1="2.04178457%" x2="15.0000727%" y2="10.0417846%" id="linearGradient-33">
            <stop stop-color="#FFFFFF" offset="0%"></stop>
            <stop stop-color="#9ED3F0" offset="100%"></stop>
        </linearGradient>
        <linearGradient x1="25%" y1="3%" x2="16%" y2="11%" id="linearGradient-34">
            <stop stop-color="#FFFFFF" offset="0%"></stop>
            <stop stop-color="#9ED3F0" offset="100%"></stop>
        </linearGradient>
        <linearGradient x1="18%" y1="2%" x2="11%" y2="7%" id="linearGradient-35">
            <stop stop-color="#FFFFFF" offset="0%"></stop>
            <stop stop-color="#9ED3F0" offset="100%"></stop>
        </linearGradient>
        <linearGradient x1="17%" y1="2%" x2="10%" y2="7%" id="linearGradient-36">
            <stop stop-color="#FFFFFF" offset="0%"></stop>
            <stop stop-color="#9ED3F0" offset="100%"></stop>
        </linearGradient>
        <linearGradient x1="1.04178457%" y1="23.0000727%" x2="10.0417846%" y2="15.0000727%" id="linearGradient-37">
            <stop stop-color="#FFFFFF" offset="0%"></stop>
            <stop stop-color="#9ED3F0" offset="100%"></stop>
        </linearGradient>
        <linearGradient x1="1%" y1="16%" x2="7%" y2="10%" id="linearGradient-38">
            <stop stop-color="#FFFFFF" offset="0%"></stop>
            <stop stop-color="#9ED3F0" offset="100%"></stop>
        </linearGradient>
        <linearGradient x1="1.03344889%" y1="30.0334489%" x2="13.0334489%" y2="19.0334489%" id="linearGradient-39">
            <stop stop-color="#FFFFFF" offset="0%"></stop>
            <stop stop-color="#9ED3F0" offset="100%"></stop>
        </linearGradient>
        <linearGradient x1="2%" y1="30%" x2="14%" y2="20%" id="linearGradient-40">
            <stop stop-color="#FFFFFF" offset="0%"></stop>
            <stop stop-color="#9ED3F0" offset="100%"></stop>
        </linearGradient>
        <linearGradient x1="17%" y1="2%" x2="11%" y2="8%" id="linearGradient-41">
            <stop stop-color="#FFFFFF" offset="0%"></stop>
            <stop stop-color="#9ED3F0" offset="100%"></stop>
        </linearGradient>
        <linearGradient x1="4.04178457%" y1="23.0000727%" x2="13.0417846%" y2="15.0000727%" id="linearGradient-42">
            <stop stop-color="#FFFFFF" offset="0%"></stop>
            <stop stop-color="#9ED3F0" offset="100%"></stop>
        </linearGradient>
        <linearGradient x1="2%" y1="31%" x2="14%" y2="20%" id="linearGradient-43">
            <stop stop-color="#FFFFFF" offset="0%"></stop>
            <stop stop-color="#9ED3F0" offset="100%"></stop>
        </linearGradient>
        <linearGradient x1="2.02504456%" y1="36.0250446%" x2="16.0250446%" y2="24.0250446%" id="linearGradient-44">
            <stop stop-color="#FFFFFF" offset="0%"></stop>
            <stop stop-color="#9ED3F0" offset="100%"></stop>
        </linearGradient>
        <linearGradient x1="100.502513%" y1="49.961627%" x2="-114.572864%" y2="49.961627%" id="linearGradient-45">
            <stop stop-color="#8AA4CF" offset="0%"></stop>
            <stop stop-color="#7B96C1" offset="100%"></stop>
        </linearGradient>
        <linearGradient x1="85.969499%" y1="49.961627%" x2="-48.989899%" y2="49.961627%" id="linearGradient-46">
            <stop stop-color="#708BB7" offset="0%"></stop>
            <stop stop-color="#BFD8FF" offset="100%"></stop>
        </linearGradient>
        <linearGradient x1="103.526448%" y1="28.8732394%" x2="-61.4609572%" y2="93.6619718%" id="linearGradient-47">
            <stop stop-color="#A8C4F1" offset="0%"></stop>
            <stop stop-color="#708BB7" offset="100%"></stop>
        </linearGradient>
    </defs>
    <g id="官网" stroke="none" stroke-width="1" fill="none" fill-rule="evenodd">
        <g id="视频云" transform="translate(-385.000000, -1415.000000)">
            <g id="Group-38" transform="translate(385.000000, 1415.000000)">
                <path d="M237.166451,217.142235 L171.281349,255.001345 C168.956502,256.332885 166.099755,256.332885 163.774908,255.001345 C161.437822,253.642533 160,251.143914 160,248.441386 C160,245.738858 161.437822,243.240239 163.774908,241.881427 L229.702904,203.979442 C232.034508,202.673519 234.877741,202.673519 237.209345,203.979442 C239.56296,205.340326 241.008816,207.855405 240.99996,210.57325 C240.991103,213.291095 239.528886,215.796706 237.166451,217.142235 Z" id="Shape" fill="#507896" fill-rule="nonzero" opacity="0.136339614" style="mix-blend-mode: multiply;"></path>
                <path d="M168,79 C168.238084,78.6523473 168.505374,78.3182342 168.8,78 C168.505374,78.3182342 168.238084,78.6523473 168,79 Z" id="Shape" fill="url(#radialGradient-1)" fill-rule="nonzero"></path>
                <path d="M170,76.88 C170.286773,76.5665504 170.594121,76.2725654 170.92,76 C170.594121,76.2725654 170.286773,76.5665504 170,76.88 Z" id="Shape" fill="url(#radialGradient-2)" fill-rule="nonzero"></path>
                <path d="M169,77.76 C169,77.52 169.4,77.24 169.64,77 C169.4,77.12 169.2,77.52 169,77.76 Z" id="Shape" fill="url(#radialGradient-3)" fill-rule="nonzero"></path>
                <path d="M166,86 C166,85.35 166.24,84.7 166.4,84 C166.24,84.8 166.12,85.45 166,86 Z" id="Shape" fill="url(#radialGradient-4)" fill-rule="nonzero"></path>
                <path d="M166,83.76 C166.069099,83.4983853 166.162852,83.2439128 166.28,83 C166.162852,83.2439128 166.069099,83.4983853 166,83.76 Z" id="Shape" fill="url(#radialGradient-5)" fill-rule="nonzero"></path>
                <path d="M167,81.6 C167.090884,81.3919743 167.197876,81.1913643 167.32,81 C167.197876,81.1913643 167.090884,81.3919743 167,81.6 Z" id="Shape" fill="url(#radialGradient-6)" fill-rule="nonzero"></path>
                <path d="M165.984788,237.465227 L165.554953,87.8915038 C165.492735,87.1916643 165.492735,86.4876944 165.554953,85.787855 C165.554953,85.229744 165.812854,84.6716331 165.984788,84.0705906 C166.059042,83.7898021 166.159788,83.5166793 166.285674,83.2548901 C166.388559,82.8882827 166.517847,82.5295843 166.672526,82.1815999 C166.770189,81.9583279 166.885161,81.7430152 167.016395,81.5376257 C167.260199,80.9861432 167.547669,80.4549681 167.876066,79.9491562 C168.131908,79.4864722 168.419136,79.0418079 168.735738,78.6182764 L169.294525,77.9313706 C169.294525,77.673781 169.72436,77.3732597 169.982262,77.1156701 L170.240164,76.8580804 C170.548326,76.5216581 170.878599,76.2061268 171.228786,75.9135851 C171.819511,75.3906583 172.452043,74.916833 173.120064,74.496842 L236.134001,38.1767014 C240.43236,35.6866681 243.999997,37.6615221 243.999997,42.4698622 L243.999997,49.2530563 L243.999997,40.5808715 C244.002549,37.1547969 242.171904,33.9885178 239.199661,32.2782213 C236.227417,30.5679248 232.566702,30.5743506 229.600496,32.2950711 L227.795185,33.3254297 L165.03915,69.559707 C164.526128,69.8489298 164.037385,70.1791502 163.577708,70.547134 L163.104888,70.9764501 L162.417151,71.5774926 L162.116266,71.8780139 L161.858364,72.1785351 L161.557479,72.4790564 L160.912725,73.2518253 L160.912725,73.509415 L160.912725,73.7670046 L160.482889,74.4539104 C160.314821,74.6664401 160.170675,74.8967947 160.053054,75.1408161 C159.927647,75.3122161 159.826406,75.500008 159.752168,75.698927 C159.620935,75.9043164 159.505963,76.1196291 159.4083,76.3429011 L158.548628,77.1156701 L158.290727,77.8455074 C158.179099,78.0789675 158.092646,78.3236223 158.032825,78.5753448 L158.032825,78.9187976 C158.032825,78.9187976 158.032825,78.9187976 158.032825,79.1763873 C158.013058,79.4765843 158.013058,79.7777541 158.032825,80.0779511 C158.012242,80.2634201 158.012242,80.4505929 158.032825,80.636062 C158.03185,80.8077884 158.03185,80.9795148 158.03185,81.1512413 C157.989383,81.6655475 157.989383,82.1824729 158.03185,82.6967792 L158.461686,232.313434 C158.478186,236.1308 160.523512,239.652128 163.833209,241.5613 C167.142906,243.470471 171.218819,243.480128 174.537547,241.586661 L176.12794,240.642166 L174.623514,241.500798 C169.509443,244.548942 165.984788,242.445294 165.984788,237.465227 Z" id="Shape" fill="url(#radialGradient-7)" fill-rule="nonzero"></path>
                <path d="M167.56,80.4324324 L167.8,80 C167.494397,80.6368544 167.226882,81.305643 167,82 C167.2,81.4594595 167.36,80.9189189 167.56,80.4324324 Z" id="Shape" fill="url(#radialGradient-8)" fill-rule="nonzero"></path>
                <path d="M167.36,82 C167.216058,82.3242221 167.095744,82.6584266 167,83 C167.100963,82.6601172 167.221157,82.3262458 167.36,82 Z" id="Shape" fill="url(#radialGradient-9)" fill-rule="nonzero"></path>
                <path d="M171.454545,75.7272727 C171.947794,75.4647971 172.463842,75.2219509 173,75 C172.293578,75.2964483 171.624684,75.6308951 171,76 L171.454545,75.7272727 Z" id="Shape" fill="url(#radialGradient-10)" fill-rule="nonzero"></path>
                <path d="M169.08,78.52 C169.204632,78.3291633 169.352424,78.1545001 169.52,78 L169,78.64 L169.08,78.52 Z" id="Shape" fill="url(#radialGradient-11)" fill-rule="nonzero"></path>
                <path d="M170,77.24 L170.24,77 L170,77.24 Z" id="Shape" fill="url(#radialGradient-12)" fill-rule="nonzero"></path>
                <path d="M166.043424,86.2857143 C166.062848,86.1915074 166.062848,86.0942069 166.043424,86 C165.985525,86.6653577 165.985525,87.3346423 166.043424,88 C166.004176,87.4292731 166.004176,86.8564411 166.043424,86.2857143 Z" id="Shape" fill="url(#radialGradient-13)" fill-rule="nonzero"></path>
                <g id="Group" opacity="0.2" style="mix-blend-mode: multiply;" transform="translate(157.000000, 31.000000)" fill-rule="nonzero">
                    <path d="M2.14814815,204.568463 L1.71851852,54.5583878 C1.71851852,54.0417056 1.71851852,53.5250234 1.71851852,53.0083411 C1.71851852,52.4916589 1.71851852,53.0083411 1.71851852,52.75 L1.71851852,52.3194315 L1.71851852,51.8027492 C1.76973086,51.4968484 1.8414991,51.1947631 1.93333333,50.8985553 C1.97160217,50.7779857 2.04675598,50.6725404 2.14814815,50.5971574 C2.14814815,50.5971574 2.14814815,50.5971574 2.14814815,50.5971574 C2.14814815,50.5971574 2.14814815,50.3388162 2.14814815,50.2096457 L2.40592593,49.4776792 C2.52407084,49.2563147 2.62462891,49.0259654 2.70666667,48.7887695 L2.96444444,48.1859736 C3.0956148,47.979985 3.21053211,47.7640442 3.30814815,47.5401208 L3.65185185,46.9803817 L4.03851852,46.3345289 L4.51111111,45.6456193 L4.51111111,45.3872782 L4.51111111,45.1289371 L5.15555556,44.3539137 L5.4562963,44.0094589 L5.71407407,43.7511178 L6.01481481,43.4066629 L6.70222222,42.803867 L7.13185185,42.4163553 C7.59806342,42.0434099 8.08582445,41.6983556 8.59259259,41.3829909 L72.2637037,4.56938173 L74.1111111,3.49296041 C77.37621,1.57725562 81.4666193,1.79746855 84.5081481,4.05269949 C81.6459992,0.0182000883 76.1838849,-1.1588143 71.92,1.34011777 L70.1155556,2.37348223 L7.34666667,38.713466 C6.83389127,39.0035325 6.34538285,39.3347162 5.88592593,39.7037736 L5.41333333,40.1343421 L4.72592593,40.7371381 L4.42518519,41.038536 L4.16740741,41.339934 L3.86666667,41.641332 L3.22222222,42.4163553 L3.22222222,42.6746964 L3.22222222,42.9330376 L2.79259259,43.6219472 C2.62460447,43.835097 2.48052771,44.0661236 2.36296296,44.3108569 C2.2376169,44.4827569 2.13642432,44.6710967 2.06222222,44.8705959 C1.93105187,45.0765845 1.81613455,45.2925254 1.71851852,45.5164487 L0.859259259,46.2914721 L0.601481481,47.0234386 C0.489907975,47.2575798 0.403496165,47.5029483 0.343703704,47.7554051 L0.343703704,48.0998599 C0.343703704,48.0998599 0.343703704,48.0998599 0.343703704,48.358201 C0.323946298,48.6592738 0.323946298,48.9613222 0.343703704,49.2623949 C0.32313052,49.448405 0.32313052,49.6361239 0.343703704,49.822134 C0.342729097,49.9943614 0.342729097,50.1665888 0.342729097,50.3388162 C0.30028286,50.8546229 0.30028286,51.3730563 0.342729097,51.8888629 L0.772358727,201.941995 C0.744763548,205.336579 2.34235264,208.53874 5.06865502,210.553365 C3.47815745,208.925147 2.45397283,206.826318 2.14814815,204.568463 Z" id="Shape" fill="url(#radialGradient-14)"></path>
                    <path d="M85.6681481,8.70283959 C86.0897675,9.65017992 86.2952496,10.6798356 86.2696296,11.7168193 L86.2696296,18.519802 L86.2696296,9.65009036 C86.2895923,9.42088955 86.2895923,9.19038151 86.2696296,8.96118071 C86.081116,8.8493833 85.8789378,8.76254615 85.6681481,8.70283959 Z" id="Shape" fill="url(#radialGradient-15)"></path>
                </g>
                <path d="M234.185885,37.0681813 L171.573172,73.283281 C170.907134,73.7045471 170.276478,74.1798109 169.687506,74.7043253 C169.338358,74.9977552 169.009065,75.3142445 168.701816,75.6516882 L168.44468,75.9100599 C168.187543,76.1684316 167.973263,76.4698653 167.758983,76.728237 C167.544702,76.9866087 167.373278,77.2019184 167.201854,77.4172282 C166.878021,77.8210396 166.591148,78.2534156 166.344732,78.7090867 C166.017309,79.2164342 165.730693,79.749222 165.487611,80.3023788 C165.356767,80.5083918 165.242136,80.7243582 165.144763,80.948308 L164.759058,82.0248568 C164.759058,82.2832285 164.544778,82.5416002 164.459065,82.8430338 C164.459065,83.4028392 164.159073,83.9626445 164.030505,84.5224499 C163.989832,85.2252014 163.989832,85.9297339 164.030505,86.6324854 L164.244785,236.91869 C164.031308,238.920707 164.938725,240.876881 166.601869,242 C165.976721,240.900293 165.665325,239.648727 165.701891,238.382796 L165.273331,88.3549634 C165.211297,87.6529992 165.211297,86.9468921 165.273331,86.2449279 C165.273331,85.6851225 165.530467,85.1253172 165.701891,84.5224499 C165.775925,84.2408089 165.876372,83.9668569 166.001884,83.7042728 C166.104464,83.3365524 166.233368,82.976765 166.387588,82.6277241 C166.484962,82.4037742 166.599593,82.1878078 166.730437,81.9817948 C166.973518,81.428638 167.260135,80.8958503 167.587558,80.3885027 C167.842642,79.924414 168.129017,79.4783997 168.44468,79.0535823 L169.001809,78.3645911 C169.001809,78.1062194 169.430369,77.8047857 169.687506,77.546414 L169.944642,77.2880423 C170.251891,76.9505986 170.581184,76.6341093 170.930332,76.3406794 C171.519304,75.816165 172.14996,75.3409012 172.815998,74.9196351 L235.642992,38.5322876 C237.200474,37.4028185 239.232436,37.1741454 241,37.9294203 C239.80003,35.8193847 237.18581,35.3026413 234.185885,37.0681813 Z" id="Shape" fill="url(#linearGradient-16)" fill-rule="nonzero"></path>
                <path d="M236.73406,38.0355814 C241.039237,35.5993707 244.569482,37.608176 244.569482,42.5233379 L245,191.474112 C244.754674,196.995641 241.835783,202.058812 237.164578,205.065603 L174.26594,240.924914 C169.960763,243.403865 166.430518,241.437801 166.430518,236.65086 L166,85.2211351 C166.185787,81.2932651 168.270073,77.6960093 171.59673,75.5617736 L236.73406,38.0355814 Z" id="Shape" fill="#708BB7" fill-rule="nonzero"></path>
                <path d="M236.251799,42.5991196 C238.625899,41.2224768 240.568345,42.297979 240.568345,45.0082445 L241,194.890231 C240.813536,197.863135 239.208356,200.566753 236.683453,202.160626 L173.661871,238.42656 C171.330935,239.760183 169.345324,238.68468 169.345324,236.060455 L169,86.0494084 C169.186464,83.0765043 170.791644,80.3728868 173.316547,78.7790136 L184.151079,72.5411008 L187.561151,70.5621768 C188.510791,70.0459357 189.244604,70.5621768 189.244604,71.5516388 L189.244604,73.3154624 C189.244604,74.9072056 190.410072,75.552507 191.791367,74.7351253 L217.690647,59.7641347 C219.175711,58.8134485 220.120588,57.2173559 220.23741,55.4621259 L220.23741,53.7413224 C220.294396,52.5417556 220.919072,51.4402814 221.920863,50.7729363 L225.374101,48.7940123 L236.251799,42.5991196 Z" id="Shape" fill="url(#radialGradient-17)" fill-rule="nonzero"></path>
                <path d="M193,69.4154253 C193,70.2066047 193,70.9538296 193.807098,70.997784 C194.614197,71.0417384 194.866415,70.4263767 194.967302,69.6351974 C195.068189,68.844018 194.967302,68.0967931 194.210647,68.0088842 C193.453993,67.9209754 193.151331,68.4923827 193,69.4154253 Z" id="Shape" fill="url(#linearGradient-18)" fill-rule="nonzero"></path>
                <path d="M196,67.3882397 C196,68.2376183 196,68.9528845 196.74915,68.9975886 C197.498299,69.0422927 197.797959,68.4611389 197.947789,67.6117603 C198.097619,66.7623817 197.947789,66.0471155 197.198639,66.0024114 C196.44949,65.9577073 196.099887,66.5388611 196,67.3882397 Z" id="Shape" fill="url(#linearGradient-19)" fill-rule="nonzero"></path>
                <path d="M215,57.3651207 C215,58.2006066 215,58.9041737 215.749357,58.9921196 C216.498715,59.0800655 216.798457,58.4204713 216.948329,57.5849854 C217.0982,56.7494995 216.948329,56.0459324 216.149014,56.0019594 C215.3497,55.9579865 215,56.6615536 215,57.3651207 Z" id="Shape" fill="url(#linearGradient-20)" fill-rule="nonzero"></path>
                <path d="M211.072005,59 L210.718617,59 L200.86793,64.9829145 C200.470368,64.9829145 200.116981,65.612695 200.028634,66.3324441 C199.940287,67.0521932 200.028634,67.9068953 200.691236,67.9518796 C200.816268,68.0160401 200.963765,68.0160401 201.088797,67.9518796 L211.072005,62.1039181 C211.654763,61.7837548 212.01283,61.1586583 211.999648,60.4844826 C211.999648,59.8097178 211.557913,59.0449843 211.072005,59 Z" id="Shape" fill="url(#linearGradient-21)" fill-rule="nonzero"></path>
                <g id="Group" opacity="0.3" style="mix-blend-mode: multiply;" transform="translate(177.000000, 83.000000)" fill="#002F7B" fill-rule="nonzero">
                    <polygon id="Shape" style="mix-blend-mode: multiply;" points="54.2246154 0.5525 0.0338461538 31.365 0.0338461538 33.1925 54.2246154 2.3375"></polygon>
                </g>
                <g id="Group" opacity="0.3" style="mix-blend-mode: multiply;" transform="translate(177.000000, 90.000000)" fill="#002F7B" fill-rule="nonzero">
                    <polygon id="Shape" style="mix-blend-mode: multiply;" points="54.2246154 0.8075 0.0338461538 31.6625 0.0338461538 33.4475 54.2246154 2.635"></polygon>
                </g>
                <g id="Group" opacity="0.3" style="mix-blend-mode: multiply;" transform="translate(177.000000, 97.000000)" fill="#002F7B" fill-rule="nonzero">
                    <polygon id="Shape" style="mix-blend-mode: multiply;" points="54.2246154 0 0.0338461538 30.9135484 0.0338461538 32.7445161 54.2246154 1.83096774"></polygon>
                </g>
                <g id="Group" opacity="0.3" style="mix-blend-mode: multiply;" transform="translate(188.000000, 109.000000)" fill="#002F7B" fill-rule="nonzero">
                    <polygon id="Shape" style="mix-blend-mode: multiply;" points="33.83 0.168 0.5525 19.11 0.5525 20.916 33.83 1.932"></polygon>
                </g>
                <path d="M221.016241,130.336175 L186.943633,150.019023 C185.740341,150.707377 184.999438,151.97984 185.000329,153.356549 L185.000329,191.86647 C184.986834,192.626508 185.389579,193.334251 186.052908,193.716166 C186.716236,194.098082 187.536234,194.094341 188.195985,193.706388 L221.232164,174.836527 C222.978631,173.891322 224.045376,172.058142 223.995975,170.08697 L223.995975,132.004938 C224.043329,131.28373 223.669834,130.599321 223.034831,130.243695 C222.399828,129.88807 221.615415,129.924007 221.016241,130.336175 Z" id="Shape" fill="#9BB1D1" fill-rule="nonzero"></path>
                <path d="M215.212715,158.688391 L199.466877,156.01844 C199.099637,155.955248 198.722844,156.056262 198.439182,156.293951 C198.15552,156.531641 197.99455,156.881236 198.000141,157.247465 L198.000141,175.047144 C198.009008,175.434526 198.250592,175.779963 198.615497,175.927033 C198.980402,176.074104 199.399327,175.994876 199.682573,175.725227 L215.687247,160.298839 C215.956626,160.059675 216.0635,159.690484 215.962541,159.347853 C215.861582,159.005222 215.570485,158.749207 215.212715,158.688391 Z" id="Shape" fill="#FFFFFF" fill-rule="nonzero"></path>
                <path d="M211.817044,148.802753 C211.817044,148.802753 211.372167,148.505598 211.238704,148.420697 L209.904073,147.741485 C207.878836,146.885282 206.227817,145.384879 205.232864,143.496411 C204.922379,142.513585 204.922379,141.465234 205.232864,140.482408 C205.397184,139.759303 205.842209,139.122329 206.47852,138.699477 C207.306436,138.097995 208.453328,138.097995 209.281245,138.699477 C210.437925,139.803196 210.882802,141.034268 212.439872,141.75593 C212.439872,141.75593 213.24065,142.392692 213.374113,142.095536 C213.863478,141.034268 212.039482,139.208886 211.950507,138.487223 C211.902682,138.393428 211.902682,138.283864 211.950507,138.190068 C212.973724,137.17125 216.132351,140.397507 216.710691,144.302975 C216.689571,144.599788 216.689571,144.897627 216.710691,145.19444 C217.155568,146.89247 218.223273,147.147175 218.490199,147.953739 C220.581121,153.811941 215.820937,155.170365 211.817044,148.802753 Z" id="Shape" fill="#F6E1CB" fill-rule="nonzero"></path>
                <path d="M279.118154,282.011424 C270.056197,278.808562 270.426913,284.132237 271.621444,285.300849 C276.852665,290.451397 284.390565,287.8112 284.472947,289.15294 C284.494062,289.267292 284.494062,289.384843 284.472947,289.499195 C284.472947,290.408115 289.003925,289.932014 289.498214,289.239504 C289.992503,288.546993 290.322028,282.400961 289.498214,281.92486 C286.206879,282.963219 282.697824,282.963219 279.406489,281.92486 L279.118154,282.011424 Z" id="Shape" fill="#373946" fill-rule="nonzero"></path>
                <path d="M290,288.269374 C290,288.269374 290,289.399502 289.621086,289.525072 C287.866744,290.158309 285.944331,290.158309 284.189989,289.525072 C283.895278,289.525072 284.189989,288.93908 283.93738,288.771653 C283.68477,288.604227 274.464535,289.608785 271.30692,284.878989 C271.30692,284.878989 270.928006,284.25114 271.012209,284 C273.902601,286.757157 277.83855,288.157938 281.832303,287.850808 C282.926943,287.850808 284.77941,287.850808 284.989918,288.227517 C285.200425,288.604227 284.989918,288.855366 284.989918,288.897223 C286.689521,289.189407 288.438382,288.955634 290,288.227517 L290,288.269374 Z" id="Shape" fill="url(#linearGradient-22)" fill-rule="nonzero"></path>
                <path d="M277,143.460311 C268.573529,150.965835 265.573529,146.760933 262,147.348715 C263.828943,145.353411 264.484322,142.511752 263.720588,139.888404 L271.264706,136 L277,139.16498 C276.563069,140.638853 276.563069,142.212508 277,143.686381 L277,143.460311 Z" id="Shape" fill="#F6E1CB" fill-rule="nonzero"></path>
                <path d="M256,119 C257.261932,121.275549 257.807758,123.886073 257.564677,126.483389 C257.18408,140.338349 267.544776,143.588278 273,136.019365 L267.840796,125.328809 L256,119 Z" id="Shape" fill="#F6E1CB" fill-rule="nonzero"></path>
                <path d="M278.647749,137.990353 C277.896157,139.07332 276.722547,139.78864 275.415854,139.960206 C274.109161,140.131771 272.790776,139.743644 271.785277,138.891379 C271.527196,138.640834 271.310094,138.351259 271.14192,138.033259 C269.855207,135.973771 269.683645,135.029839 268.139588,134.643685 C268.139588,134.643685 269.769426,131.03958 267.281779,129.237528 C266.754042,128.862611 266.073577,128.777289 265.469667,129.01031 C264.865757,129.243331 264.418819,129.763667 264.279448,130.39599 C260.462197,128.508126 258.446346,119.66949 255.701357,119.326241 C254.972219,119.326241 254.972219,116.623163 255.01511,116.108291 C255.705414,113.06421 258.040182,110.662337 261.062664,109.886921 C269.361827,107.114136 278.417213,111.033396 282.078986,118.982993 C284.069694,125.501383 282.791812,132.580224 278.647749,137.990353 Z" id="Shape" fill="url(#linearGradient-23)" fill-rule="nonzero"></path>
                <path d="M258.950436,124.595628 C260.447672,127.612022 263.706362,131.459016 265.203598,131.284153 C265.511853,131.284153 265.203598,130.759563 265.643962,130.36612 C266.023095,129.954961 266.617162,129.816197 267.141198,130.016393 C269.563198,130.978142 268.902652,134.387978 269.034761,135 C269.788377,134.065006 270.122652,132.864056 269.959525,131.677596 C269.741942,130.491805 269.040841,129.447807 268.021925,128.79235 C266.216435,127.655738 263.61829,127.961749 262.032981,126.825137 C261.108217,126.213115 261.064181,123.284153 260.403636,122.453552 C259.125563,121.082077 257.639828,119.916889 256,119 C256.239549,119.643136 256.518981,120.27093 256.836691,120.879781 C257.131351,121.603008 257.36697,122.348579 257.541272,123.10929 C257.541272,123.10929 257.981636,123.065574 258.950436,124.595628 Z" id="Shape" fill="#F6E1CB" fill-rule="nonzero" opacity="0.47" style="mix-blend-mode: multiply;"></path>
                <path d="M259.885756,291.085121 C259.677747,292.447064 252.147808,291.808653 250.733345,292.915232 C247.696408,295.256071 254.352708,300.66128 265.876426,299.852627 C265.876426,299.852627 265.876426,299.852627 265.876426,299.852627 C265.876426,299.852627 265.876426,299.554702 265.876426,299.554702 C265.876426,299.554702 265.876426,299.554702 266.167639,299.980309 C267.927402,300.059002 269.689662,299.901608 271.409474,299.512141 C272.321405,296.722106 272.172876,293.683057 270.993456,291 C267.734685,293.482798 263.269333,293.482798 260.010562,291 L259.885756,291.085121 Z" id="Shape" fill="#373946" fill-rule="nonzero"></path>
                <path d="M271.789272,298.691768 C271.873741,298.985366 271.873741,299.295725 271.789272,299.589323 C270.011457,300.013128 268.167241,300.110002 266.35249,299.874909 C266.35249,299.874909 266.35249,299.874909 266.35249,299.630121 C262.705445,299.788782 259.054428,299.417477 255.521073,298.528576 C254.425287,298.202192 250.463602,297.141444 250,294 C251.348659,298.528576 261.084291,299.507727 266.099617,299.099747 C266.099617,299.099747 266.478927,298.732566 266.605364,299.099747 C268.424351,299.221201 270.25114,299.027785 272,298.528576 L271.789272,298.691768 Z" id="Shape" fill="url(#linearGradient-24)" fill-rule="nonzero"></path>
                <path d="M291.03672,195 C293.724452,207.512242 289.884835,229.827889 290.354121,241.652172 C290.823408,253.476455 292.44458,280.349826 290.354121,283.875612 C287.028793,285.374796 283.227158,285.374796 279.90183,283.875612 C279.348736,283.665534 278.977437,283.138231 278.963257,282.542693 C279.219232,278.242954 278.963257,269.643475 278.963257,261.903944 C278.963257,245.521937 273.417144,238.55636 273.417144,218.906551 C273.417144,215.939731 272.478571,214.606811 273.417144,211.98397 C274.758926,208.823995 276.908223,206.079188 279.645856,204.029453 C283.229498,201.019635 287.32509,198.052815 290.908733,195 L291.03672,195 Z" id="Shape" fill="#69727B" fill-rule="nonzero"></path>
                <path d="M291.981832,195 C288.869225,203.176193 282.269623,209.519227 274,212.282765 C274.473301,216.850363 274.473301,221.454966 274,226.022564 C274,227.837254 274.301131,229.479117 274.473206,231.293807 C274.645281,233.108497 275.978862,239.675948 276.538106,242.441191 C277.973672,247.306785 278.839887,252.32381 279.11923,257.390783 C279.46338,266.334614 279.721492,279.555929 279.592436,283.31493 C279.592436,284.265482 281.055073,284.827172 281.872429,285 C281.872429,274.111858 281.872429,265.513682 281.872429,256.526644 C281.872429,246.286606 275.3766,230.861738 277.312443,215.264042 C277.570555,213.19011 278.904136,212.844455 280.538848,211.893903 C282.326869,210.912725 284.012951,209.754805 285.57204,208.43735 C289.825789,205.328569 292.235179,200.277575 291.981832,195 Z" id="Shape" fill="#00009C" fill-rule="nonzero" opacity="0.23" style="mix-blend-mode: multiply;"></path>
                <path d="M258.042557,200.949416 C254.751151,215.684568 254.123921,230.904825 256.191457,245.867892 C256.612161,249.15878 260.398504,280.443579 259.977799,290.444458 C261.492336,293.478912 269.822289,294.205472 271.75753,290.444458 C271.989427,289.593285 272.130474,288.719229 272.178235,287.837391 C273.608631,269.972574 270.116782,251.723107 270.074711,244.585728 C270.074711,233.730074 277.268762,220.395569 275.754225,211.292205 C286.440124,207.018325 291.320298,199.496297 290.983734,193 C281.771838,200.581804 269.670228,203.505918 258.084628,200.949416 L258.042557,200.949416 Z" id="Shape" fill="#69727B" fill-rule="nonzero"></path>
                <path d="M257,200.943933 C257,201.329297 257,201.843116 257,202.22848 C257.016838,202.513682 257.016838,202.799644 257,203.084845 C268.236775,205.518931 279.968747,203.046412 289.304089,196.276743 C290.282568,195.468906 290.894523,194.294552 290.999842,193.022556 C291.08463,192.508737 257,200.943933 257,200.943933 Z" id="Shape" fill="#189E98" fill-rule="nonzero" opacity="0.2" style="mix-blend-mode: multiply;"></path>
                <path d="M288.332244,161.318917 C288.65669,153.131107 284.284005,145.451301 277,141.415947 C278.318925,140.650659 279.797589,140.1874 281.325284,140.060851 C285.062357,139.657482 288.726801,141.280866 290.884161,144.295525 C293.020643,147.972616 293.565763,152.333711 292.398011,156.406695 C290.955855,161.361753 288.514505,165.98378 285.218039,170 C286.256108,165.299511 288.375497,165.468898 288.505255,160.683716" id="Shape" fill="#FFCA75" fill-rule="nonzero"></path>
                <path d="M293.903449,199.696453 C294.762245,195.886737 289.60947,187.839247 289.60947,176.795352 C289.60947,169.860812 292.701135,158.859723 291.799399,151.967989 C290.468266,141.523375 283.812599,140.239201 277.672209,141.309346 C274.1481,144.979799 268.879865,146.412107 263.974416,145.03345 C260.242044,146.069745 257.037981,148.469115 255,151.75396 C258.168943,153.316299 260.286608,156.417929 260.582173,159.929868 C260.925691,163.011885 257.275809,186.769102 257.962845,202.735664 C266.442516,207.906271 276.982485,208.406608 285.916648,204.062644 C292.915834,200.252928 293.64581,201.109044 293.903449,199.696453 Z" id="Shape" fill="url(#linearGradient-25)" fill-rule="nonzero"></path>
                <path d="M259.966743,163.790313 L259.966743,164.096022 C261.231028,161.707398 261.340968,158.849743 260.264136,156.365943 C259.103001,153.877198 256.894768,152.074095 254.273778,151.474593 C251.852144,152.784776 236.175249,160.514855 236.090279,162.392784 C235.155613,159.816091 222.792533,152.260703 219.096354,146.102843 C215.740054,145.229387 211.916421,150.208083 212.001391,150.16441 C216.589751,157.152052 230.142405,174.577486 239.149185,175.887669 C248.155965,177.197852 256.652927,166.672716 259.966743,163.790313 Z" id="Shape" fill="#FFCA75" fill-rule="nonzero"></path>
                <path d="M288.71632,175 C287.075317,180.517004 288.288426,186.427973 292,191 C291.676257,189.841823 290.751276,188.126005 290.150039,186.495979 C288.927951,182.805429 288.457443,178.936093 288.762569,175.085791 L288.71632,175 Z" id="Shape" fill="#F9C844" fill-rule="nonzero" opacity="0.23" style="mix-blend-mode: multiply;"></path>
                <path d="M263.153348,144.750286 C268.143966,146.041488 273.480012,144.643526 277.062635,141.106266 C278.036051,140.964578 279.026584,140.964578 280,141.106266 C278.406019,144.46937 275.181398,146.883983 271.360691,147.575426 C267.517987,148.461363 263.464519,147.950057 260,146.142384 C260.993521,145.610111 261.814255,145.364447 262.548596,145.036895 L263.153348,144.750286 Z" id="Shape" fill="#522262" fill-rule="nonzero" opacity="0.44" style="mix-blend-mode: screen;"></path>
                <path d="M252,154 C249.119178,156.301255 235.704005,164.217573 236.004986,165 C238.924784,163.766813 241.617776,161.990493 243.959496,159.753138 C244.260477,159.200837 252,154 252,154 Z" id="Shape" fill="#F6E1CB" fill-rule="nonzero" opacity="0.47" style="mix-blend-mode: multiply;"></path>
                <path d="M327.906068,27.345433 L375.864311,55.1967712 C377.204266,55.9739757 378.021119,57.4186642 377.999584,58.9732239 L377.999584,92.1459272 C378.002382,92.5963897 377.76272,93.0132072 377.37296,93.2357443 C376.9832,93.4582813 376.504194,93.4517942 376.120544,93.2187831 L370.269894,89.8285586 C369.910429,89.6300791 369.4731,89.638427 369.121395,89.8504815 C368.769691,90.0625361 368.556559,90.4463724 368.561676,90.8585002 L368.561676,97.9393489 C368.538384,98.4119625 368.220964,98.818413 367.769669,98.9534985 C367.318374,99.0885839 366.831366,98.9229216 366.554518,98.5401482 L355.365685,82.0181679 C354.783498,81.1239062 353.99159,80.3870733 353.05959,79.8724561 L326.75302,64.6379028 C325.663194,64.0160004 324.993361,62.8503759 325.002096,61.5909922 L325.002096,28.9332596 C324.968538,28.2264567 325.340144,27.5626146 325.958674,27.2244161 C326.577204,26.8862176 327.333717,26.9332296 327.906068,27.345433 Z" id="Shape" fill="url(#linearGradient-26)" fill-rule="nonzero"></path>
                <path d="M363.712484,62.3306628 C366.169038,63.8950289 367.755394,66.5229241 368,69.4331954 C368,71.8867976 365.984868,72.7477107 363.712484,71.2841585 C361.251024,69.7246238 359.663039,67.0940278 359.424968,64.1816259 C359.210593,61.7280237 361.225725,60.8671106 363.712484,62.3306628 Z M346.562421,56.9069106 C346.806944,59.8058548 348.395001,62.4206257 350.849937,63.9663976 C353.336696,65.4299498 355.137453,64.5690367 355.137453,62.1154345 C354.905995,59.2008855 353.316352,56.5675448 350.849937,55.0129019 C348.663304,53.5493497 346.691047,54.4102628 346.691047,56.9069106 L346.562421,56.9069106 Z M334,49.5891497 C334.270015,52.4910589 335.850103,55.1085713 338.287516,56.6916824 C340.774275,58.1121889 342.575032,57.2512758 342.575032,54.7976736 C342.336961,51.8852717 340.748976,49.2546757 338.287516,47.695141 C336.058008,46.2746345 334.128625,47.0925019 334.128625,49.5891497 L334,49.5891497 Z" id="Shape" fill="#FFFFFF" fill-rule="nonzero"></path>
                <path d="M335.666174,38.1262395 L291.036342,64.0984723 C289.802445,64.8580021 289.035163,66.200571 289,67.6616051 L289,98.5277792 C289.003743,98.9553109 289.231628,99.3486522 289.598473,99.5607757 C289.965318,99.7728991 290.415901,99.7718737 290.781799,99.5580827 L296.169621,96.3813137 C296.504494,96.2046157 296.905425,96.2135712 297.232266,96.4050497 C297.559107,96.5965283 297.766416,96.9439076 297.781725,97.3257585 L297.781725,103.936872 C297.74664,104.398944 298.033853,104.823529 298.472234,104.957642 C298.910615,105.091754 299.382178,104.899301 299.605949,104.494953 L309.957354,89.0833309 C310.511891,88.2634488 311.235597,87.5750593 312.078544,87.0656534 L336.387378,72.8560516 C337.400633,72.285381 338.020486,71.1959655 337.999483,70.0227171 L337.999483,39.6287654 C337.971204,39.0737215 337.679203,38.5668508 337.215833,38.2684655 C336.752464,37.9700803 336.175034,37.9170845 335.666174,38.1262395 Z" id="Shape" fill="url(#linearGradient-27)" fill-rule="nonzero"></path>
                <path d="M306.55615,73.5166382 C306.268827,76.3629999 304.675996,78.8909879 302.278075,80.3063879 C300.010695,81.7264662 298,80.8832947 298,78.5312899 C298.274084,75.6686883 299.86864,73.1214214 302.278075,71.6971628 C304.716578,70.3214619 306.55615,71.120256 306.55615,73.5166382 Z M314.085561,64.6411485 C311.676127,66.0654071 310.081571,68.612674 309.807487,71.4752756 C309.807487,73.8272803 311.647059,74.6260744 314.085561,73.2503735 C316.483483,71.8349736 318.076313,69.3069856 318.363636,66.4606239 C318.106952,63.9754868 316.352941,63.309825 314.085561,64.6855259 L314.085561,64.6411485 Z M325.721925,57.6295116 C323.324004,59.0449115 321.731173,61.5728995 321.44385,64.4192612 C321.44385,66.8156435 323.326203,67.6144375 325.721925,66.2387366 C328.119846,64.8233367 329.712677,62.2953487 330,59.448987 C329.871658,57.0969822 328.032086,56.2981881 325.721925,57.673889 L325.721925,57.6295116 Z" id="Shape" fill="#FFFFFF" fill-rule="nonzero"></path>
                <g id="Group-20" transform="translate(338.000000, 213.000000)" fill-rule="nonzero">
                    <path d="M77.8629533,54.1405439 L77.8629533,53.8827071 C78.1136869,53.3829383 78.3286881,52.8659649 78.5063351,52.3356861 C78.7206472,51.7129603 78.8364253,51.0604834 78.8494721,50.4019098 C78.8747374,50.1016327 78.8747374,49.7997581 78.8494721,49.4994809 L78.8494721,49.1986713 L78.8494721,48.7689432 L78.6350115,48.5111064 C78.6546593,48.4118026 78.6546593,48.3096005 78.6350115,48.2102968 L78.3776588,48.2102968 L52.6423841,33.2557605 C51.3996371,32.6491727 49.9213619,32.7989424 48.8249851,33.6425158 L48.5247402,33.6425158 L45.0933702,31.6657668 L44.0639593,31.0641475 C45.0306087,29.5585057 45.4822471,27.7787201 45.350723,25.9933565 L45.350723,25.6925468 C45.3300258,25.4494757 45.3300258,25.2050803 45.350723,24.9620091 L45.350723,24.3603899 C45.299144,24.1114495 45.2274202,23.8671298 45.1362624,23.6298522 C45.1542621,23.4297178 45.1542621,23.2283672 45.1362624,23.0282329 C45.0396199,22.7767474 44.9249415,22.5325973 44.7931254,22.2976952 C44.7098071,22.1029133 44.609328,21.9159583 44.4928805,21.7390487 C44.3513687,21.471889 44.1938081,21.2135776 44.0210671,20.9655383 L43.635038,20.4068918 L43.0345483,19.6763541 L42.5627349,19.1606804 C42.3365808,18.8860661 42.0772408,18.6406732 41.7906767,18.4301427 C41.6402346,18.2509376 41.4672221,18.0920445 41.2759712,17.9574419 C40.9667715,17.6623018 40.6371081,17.3894589 40.2894523,17.1409586 L39.3458256,13.1015149 L37.6301406,12.0271948 C27.6991065,6.4787193 15.7084132,6.06281458 5.41815518,10.9099018 C4.92384658,11.1898445 4.4507572,11.5058306 4.00271508,11.8553035 C3.84955708,11.9565266 3.70598266,12.0716022 3.57379384,12.199086 L2.8017356,12.8436781 L2.37281435,13.2734061 L1.77232461,13.9179982 L1.42918762,14.390699 L0.957374248,15.0352911 L0.700021501,15.5509648 L0.356884506,16.1955569 C0.338449107,16.3669519 0.338449107,16.5398355 0.356884506,16.7112305 C0.215536429,16.925883 0.100338233,17.1567128 0.0137475111,17.3987954 L0.0137475111,17.9144691 C-0.00458250371,18.1432895 -0.00458250371,18.3732135 0.0137475111,18.602034 C0.0137475111,18.602034 0.0137475111,18.9887892 0.0137475111,19.1606804 L0.0137475111,19.5044629 C0.637188269,24.0472703 3.55598606,27.9463211 7.7343299,29.8179361 C16.9616505,34.8497913 27.91133,35.6333824 37.758817,31.9665764 L44.0639593,35.6192648 L44.0639593,36.1779113 C44.0447618,36.2916984 44.0447618,36.4079066 44.0639593,36.5216937 C44.0428108,36.8508113 44.0428108,37.1809508 44.0639593,37.5100683 C44.0268845,38.2857255 44.2705826,39.0487145 44.7502333,39.6587085 L45.2649387,40.0454638 L47.6240056,41.4205935 L48.3960638,41.8932944 L50.197533,42.9246417 L51.1840519,43.526261 L55.4732643,46.1476021 L70.6141843,55 L71.0859976,55 L71.3862425,55 L72.244085,55 L72.930359,55 L73.2306038,55 C73.6039749,54.8635711 73.9631214,54.6908565 74.302907,54.4843263 C74.7967077,54.2086406 75.2572457,53.8770063 75.6754549,53.4959518 L75.9328077,53.238115 C76.3546916,52.8441209 76.7555732,52.4281411 77.1337872,51.9919036 C77.2898475,52.7348525 77.5346663,53.4562623 77.8629533,54.1405439 Z" id="Shape" fill="#96B0DA" opacity="0.5" style="mix-blend-mode: multiply;"></path>
                    <path d="M47.9605263,14.8639222 C47.3265605,10.283866 44.3803853,6.35886673 40.1717569,4.487447 C30.2033199,-1.08818281 18.1702447,-1.49064496 7.85481838,3.40656417 C4.47496964,4.97182796 2.26110803,8.31668191 2.13157895,12.0536268 C2.79062539,16.6336123 5.72625396,20.5608565 9.92034841,22.4733373 C19.8887854,28.0489671 31.9218606,28.4514293 42.2372869,23.5542201 C45.6037392,21.9732734 47.8114217,18.6377553 47.9605263,14.9071575 L47.9605263,14.8639222 Z M36.9873981,20.4412776 C29.8092457,23.8178758 21.4543634,23.5284144 14.5247591,19.663042 C12.2245575,18.4922874 10.4216991,16.5273988 9.44699778,14.1289219 C10.1455396,12.3797451 11.4426083,10.9385584 13.1047072,10.0648024 C20.2828596,6.68820423 28.6377419,6.97766564 35.5673462,10.843038 C37.8675477,12.0137926 39.6704062,13.9786812 40.6451075,16.3771581 C39.9465656,18.1263349 38.649497,19.5675216 36.9873981,20.4412776 Z" id="Shape" fill="url(#linearGradient-28)"></path>
                    <path d="M52.2236842,28.0392157 L43.4122074,22.6470588 C42.8415397,23.1367327 42.2256243,23.5700887 41.5729185,23.9411765 L39.4342105,25.0196078 L48.2456874,30.1960784 L52.2236842,27.8666667 L52.2236842,28.0392157 Z" id="Shape" fill="url(#linearGradient-29)"></path>
                    <path d="M39.4342105,25.1352832 L48.2456874,30.1960784 L52.2236842,27.8765473 L43.4122074,22.6470588 C42.8415397,23.1257902 42.2256243,23.5494624 41.5729185,23.9122576 L39.4342105,25.1352832 Z" id="Shape" fill="url(#linearGradient-30)"></path>
                    <path d="M7.84511002,3.41522697 C-0.50778827,8.35658655 0.396391442,16.8956027 9.9118065,22.4437959 C19.8808245,28.0403611 31.9173794,28.4598706 42.2469952,23.5707726 C50.5998935,18.5860678 49.6957138,10.0903969 40.1802988,4.49885846 C30.2062323,-1.09095003 18.1663618,-1.49443563 7.84511002,3.41522697 Z M36.9941417,20.4932592 C29.8119356,23.878444 21.4523351,23.5882465 14.5188174,19.7130445 C7.93122237,15.8553164 7.28537972,9.91701589 13.0979636,6.49274039 C20.2688696,3.07260132 28.6386243,3.34700965 35.5732878,7.2296098 C42.1608829,11.1306832 42.8067255,17.0256384 36.9941417,20.4932592 Z" id="Shape" fill="url(#linearGradient-31)"></path>
                    <path d="M79.8032861,41.5069803 L54.4553757,26.2585966 C53.2313344,25.6400897 51.77531,25.7928022 50.6954357,26.6529513 C47.9576064,28.3715461 46.1581617,31.3252416 45.8370862,34.6276807 C45.761755,35.6338634 46.2135066,36.6044255 47.0199887,37.169078 L72.367899,52.461279 C73.6049828,53.0875194 75.0770613,52.9348386 76.1700856,52.0669242 C78.9013807,50.348551 80.6875312,47.3909591 80.9861886,44.0921948 C81.0869144,43.0692063 80.6310594,42.0729425 79.8032861,41.5069803 Z" id="Shape" fill="url(#linearGradient-32)"></path>
                    <path d="M77.1640537,49.2026839 C76.0745911,50.0449125 74.6056386,50.1944435 73.3707289,49.5888226 L47.7977533,34.6581258 C46.9549454,34.1107122 46.4926679,33.1301671 46.6043477,32.126772 C46.6213332,31.4696521 46.7362731,30.8188275 46.9453207,30.1960784 C46.2736246,31.3283132 45.8927656,32.6111782 45.8371585,33.9287526 C45.7611584,34.9139724 46.2169211,35.8643136 47.030564,36.4172021 L72.6035397,51.3908033 C73.8516076,52.0039966 75.3367567,51.8544967 76.439486,51.0046646 C78.5869475,49.6327398 80.1979063,47.5564306 81,45.1267753 C80.1174638,46.814244 78.7902873,48.2244435 77.1640537,49.2026839 Z" id="Shape" opacity="0.3" style="mix-blend-mode: multiply;"></path>
                    <path d="M81,43.9736743 C80.7038848,47.320358 78.9329376,50.3209133 76.2248908,52.0642484 C73.5441278,53.6645818 71.4078947,52.731054 71.4078947,49.8860169 C71.7195736,46.5447303 73.5071675,43.5588039 76.2248908,41.8398966 C78.863767,40.0617484 81,41.173091 81,43.9736743 Z" id="Shape" fill="#415B85"></path>
                    <path d="M36.5114245,20.3495734 C29.2990558,23.6628779 20.9043481,23.3788423 13.9417122,19.5859256 C7.3264517,15.8101117 6.67789674,9.9979037 12.5148913,6.64633852 C19.7159125,3.29882194 28.1208171,3.56740355 35.0846036,7.36756141 C41.6998641,11.1858002 42.348419,16.9555833 36.5114245,20.3495734 Z" id="Shape" fill="#BCD3C2" opacity="0.5"></path>
                    <path d="M30.9078947,5.04362401 C29.5833821,4.68927466 28.2292263,4.44506349 26.8605929,4.31372549 L20.25,21.9171603 C21.8029165,22.271434 23.3811849,22.515401 24.9718521,22.6470588 L30.9078947,5.04362401 Z" id="Shape" fill="#BCD3C2" opacity="0.2" style="mix-blend-mode: color-dodge;"></path>
                    <polygon id="Shape" fill="#BCD3C2" opacity="0.2" style="mix-blend-mode: color-dodge;" points="36.4897413 7.54901961 31.9736842 22.6470588 33.1930196 22.3371284 37.3026316 8.16888046"></polygon>
                </g>
                <path d="M459.998331,190.480866 C460.009526,190.614722 459.964026,190.747131 459.872917,190.845833 C459.781808,190.944534 459.653456,191.000464 459.519134,190.999997 C459.381452,190.999997 459.249409,190.945303 459.152053,190.847947 C459.054697,190.750591 459.000003,190.618548 459.000003,190.480866 C458.999536,190.346544 459.055466,190.218192 459.154167,190.127083 C459.252869,190.035974 459.385278,189.990474 459.519134,190.001669 C459.783787,190.001669 459.998331,190.216213 459.998331,190.480866 Z" id="Shape" fill="url(#linearGradient-33)" fill-rule="nonzero"></path>
                <path d="M195,356.5 C195,356.776142 194.776142,357 194.5,357 C194.223858,357 194,356.776142 194,356.5 C194,356.223858 194.223858,356 194.5,356 C194.776142,356 195,356.223858 195,356.5 Z" id="Shape" fill="url(#linearGradient-34)" fill-rule="nonzero"></path>
                <path d="M291.721698,351.361071 C291.721698,351.560486 291.56014,351.722143 291.360849,351.722143 C291.161558,351.722143 291,351.560486 291,351.361071 C291,351.161657 291.161558,351 291.360849,351 C291.456552,351 291.548336,351.038041 291.616008,351.105755 C291.68368,351.173469 291.721698,351.265309 291.721698,351.361071 Z" id="Shape" fill="url(#linearGradient-35)" fill-rule="nonzero"></path>
                <path d="M35.7216981,272.361071 C35.7216981,272.456834 35.6836802,272.548673 35.6160079,272.616387 C35.5483355,272.684102 35.4565522,272.722143 35.3608491,272.722143 C35.1615576,272.722143 35,272.560486 35,272.361071 C35,272.161657 35.1615576,272 35.3608491,272 C35.5601405,272 35.7216981,272.161657 35.7216981,272.361071 Z" id="Shape" fill="url(#linearGradient-36)" fill-rule="nonzero"></path>
                <path d="M151.022784,56.7601255 C150.918967,56.1705209 151.175673,55.5756422 151.675866,55.2467038 C152.176059,54.9177654 152.823941,54.9177654 153.324134,55.2467038 C153.824327,55.5756422 154.081033,56.1705209 153.977216,56.7601255 C153.850961,57.4771675 153.228046,58 152.5,58 C151.771954,58 151.149039,57.4771675 151.022784,56.7601255 Z" id="Shape" fill="#C0CDDF" fill-rule="nonzero"></path>
                <path d="M41.0016686,61.5 C40.9904741,61.3710775 41.0359744,61.2435486 41.1270835,61.1484853 C41.2181926,61.0534219 41.3465448,60.9995527 41.4808677,61.0000028 C41.7675765,61.0000028 42,61.2238592 42,61.5 C42,61.7761408 41.7675765,61.9999972 41.4808677,61.9999972 C41.3465448,62.0004473 41.2181926,61.9465781 41.1270835,61.8515147 C41.0359744,61.7564514 40.9904741,61.6289225 41.0016686,61.5 Z" id="Shape" fill="url(#linearGradient-37)" fill-rule="nonzero"></path>
                <path d="M193,0.361071429 C193,0.161657185 193.161558,3.66318023e-17 193.360849,0 C193.56014,-3.66318023e-17 193.721698,0.161657185 193.721698,0.361071429 C193.721698,0.560485672 193.56014,0.722142857 193.360849,0.722142857 C193.161558,0.722142857 193,0.560485672 193,0.361071429 Z" id="Shape" fill="url(#linearGradient-38)" fill-rule="nonzero"></path>
                <path d="M79.008574,86.4242632 C79.0389784,86.1690821 79.2567869,85.9831969 79.504287,86.0012047 C79.767067,86.0007332 79.9845427,86.2128489 80,86.4847001 C80,86.6209455 79.9477732,86.7516107 79.854809,86.8479507 C79.7618448,86.9442908 79.6357583,86.9984141 79.504287,86.9984141 C79.3588074,87.0106457 79.2161875,86.9516179 79.1188637,86.8388943 C79.02154,86.7261708 78.9807289,86.5727429 79.008574,86.4242632 Z" id="Shape" fill="#C0CDDF" fill-rule="nonzero"></path>
                <path d="M131.000866,48.0285721 C130.992763,47.7611836 131.041797,47.4991548 131.136376,47.3044226 C131.230956,47.1096905 131.362687,46.9995376 131.500433,47.0000015 C131.78103,47.0303606 132.000433,47.4820957 131.999999,48.0285721 C131.985394,48.5528625 131.770054,48.9715988 131.500433,49 C131.22453,49 131.000866,48.5650769 131.000866,48.0285721 Z" id="Shape" fill="#C0CDDF" fill-rule="nonzero"></path>
                <path d="M332.000983,109.500491 C331.992247,109.365525 332.042062,109.233334 332.137698,109.137698 C332.233334,109.042062 332.365525,108.992247 332.500491,109.000983 C332.776362,109.000983 333,109.22462 333,109.500491 C332.985396,109.770082 332.770082,109.985396 332.500491,110 C332.22462,110 332.000983,109.776362 332.000983,109.500491 Z" id="Shape" fill="url(#linearGradient-39)" fill-rule="nonzero"></path>
                <path d="M133,97.5004914 C133,97.2246204 133.223638,97.0009828 133.499509,97.0009828 C133.634475,96.9922473 133.766666,97.0420622 133.862302,97.1376978 C133.957938,97.2333335 134.007753,97.3655246 133.999017,97.5004914 C133.999017,97.6329693 133.946391,97.7600213 133.852714,97.8536973 C133.759038,97.9473734 133.631987,98 133.499509,98 C133.229918,97.9853961 133.014604,97.7700817 133,97.5004914 Z" id="Shape" fill="#C0CDDF" fill-rule="nonzero"></path>
                <path d="M140,161.5 C140,161.223858 140.223858,161 140.5,161 C140.776142,161 141,161.223858 141,161.5 C141,161.776142 140.776142,162 140.5,162 C140.223858,162 140,161.776142 140,161.5 Z" id="Shape" fill="url(#linearGradient-40)" fill-rule="nonzero"></path>
                <path d="M114,19.0000001 C114,18.6427345 114.190599,18.3126074 114.5,18.1339746 C114.809401,17.9553418 115.190599,17.9553418 115.5,18.1339746 C115.809401,18.3126074 116,18.6427345 116,19.0000001 C116,19.5522848 115.552285,20 115,20 C114.447715,20 114,19.5522848 114,19.0000001 Z" id="Shape" fill="#C0CDDF" fill-rule="nonzero"></path>
                <path d="M80.0008051,47.0400114 C79.9844843,46.6323099 80.2175024,46.2555837 80.5895804,46.0881236 C80.9616585,45.9206636 81.3981597,45.9960613 81.6925039,46.2786337 C81.9868481,46.5612062 82.0799914,46.9942709 81.9278526,47.372874 C81.7757137,47.7514772 81.4088108,47.9996731 81.0007858,47.9999997 C80.4637626,48.0004295 80.0222859,47.5766088 80.0008051,47.0400114 Z" id="Shape" fill="#C0CDDF" fill-rule="nonzero"></path>
                <g id="Group-29" transform="translate(0.000000, 100.000000)" fill-rule="nonzero">
                    <path d="M106.186275,47.7539278 C108.285428,46.4492977 108.156909,42.622383 105.800716,39.0563942 C105.256522,38.2061442 104.640137,37.4058228 103.958602,36.6645725 C104.701378,35.1244772 104.483267,33.2850801 103.401684,31.9679044 C102.543199,30.3016465 100.950396,29.1536559 99.1176968,28.8802799 C97.8096426,19.624103 92.5000664,11.4436279 84.6378217,6.57110633 C81.4873108,4.16281536 77.3199763,3.61749673 73.6708156,5.13601329 L68.9584302,7.91922403 C66.7959542,6.40269631 63.9962794,6.18663708 61.6328129,7.35388435 L56.749068,10.2240704 C55.1017202,11.4114059 54.2035371,13.4007111 54.3928753,15.4425906 C55.0470822,22.1909657 58.8138594,28.2250475 64.5459239,31.7069783 C67.6303943,33.5769481 94.87655,49.6673852 96.5044649,50.6241139 C97.8413518,51.5014671 99.505233,51.6945004 101.002651,51.1459659 L101.43105,50.8850399 L106.186275,47.7539278 Z" id="Shape" fill="#ADC4EA"></path>
                    <path d="M100.467839,42.0069151 C99.9387051,41.1023356 99.3264191,40.2505008 98.6391521,39.462779 C99.4471764,38.6003599 99.277066,36.703038 98.0862933,34.8488371 C97.2443638,33.1800446 95.6614234,32.0244259 93.8335337,31.7441285 C92.4582892,22.6522941 87.219606,14.6294653 79.5017338,9.79556391 C72.9099564,5.91467822 67.3388413,7.12206488 65.5952099,12.2103372 L64.4469648,11.4341601 C58.8758497,8.15696773 54.3679245,10.0542896 54.3679245,15.7462553 C55.0173627,22.4377239 58.7566829,28.4209224 64.4469648,31.8734914 C67.5089517,33.7276923 94.5565029,49.6824446 96.1725515,50.6311056 C97.4996934,51.5010604 99.1514462,51.6924659 100.637949,51.148557 C102.934439,50.0274122 102.934439,45.9740427 100.467839,42.0069151 Z" id="Shape" fill="#708BB7"></path>
                    <polygon id="Shape" fill="#BCD3C2" opacity="0.2" style="mix-blend-mode: color-dodge;" points="109.801887 125.417266 108.913522 125.676929 104.471698 138.660083 105.31776 139.352518"></polygon>
                    <path d="M94.5806782,86.1424435 C94.5806782,86.3562041 94.4084517,86.5294913 94.1959995,86.5294913 C93.9835473,86.5294913 93.8113208,86.3562041 93.8113208,86.1424435 C93.8113208,85.9286829 93.9835473,85.7553957 94.1959995,85.7553957 C94.4084517,85.7553957 94.5806782,85.9286829 94.5806782,86.1424435 Z" id="Shape" fill="url(#linearGradient-41)"></path>
                    <path d="M28.7848048,62.731734 C28.772823,62.5875801 28.8215237,62.4449844 28.9190412,62.3386898 C29.0165587,62.2323953 29.1539389,62.1721618 29.2977098,62.172665 C29.6045852,62.172665 29.8533568,62.4229687 29.8533568,62.731734 C29.8533568,63.0404993 29.6045852,63.2908031 29.2977098,63.2908031 C29.1539389,63.2913063 29.0165587,63.2310728 28.9190412,63.1247782 C28.8215237,63.0184837 28.772823,62.8758879 28.7848048,62.731734 Z" id="Shape" fill="url(#linearGradient-42)"></path>
                    <path d="M0,120.788644 C0,120.384874 0.32531677,120.057554 0.726615344,120.057554 C1.12791392,120.057554 1.45323069,120.384874 1.45323069,120.788644 C1.45323069,121.192414 1.12791392,121.519734 0.726615344,121.519734 C0.32531677,121.519734 0,121.192414 0,120.788644 Z" id="Shape" fill="url(#linearGradient-43)"></path>
                    <path d="M21.3218252,0.86118325 C21.3218252,0.386159712 21.7045508,0.00107704905 22.1766668,0.00107704905 C22.4106955,-0.0107113842 22.6392741,0.0746753511 22.8089554,0.237271886 C22.9786368,0.399868421 23.0745435,0.625418459 23.0742504,0.86118325 C23.0742504,1.35995796 22.6723885,1.76429476 22.1766668,1.76429476 C21.9423451,1.76458966 21.7181756,1.66809228 21.5565743,1.49736592 C21.394973,1.32663956 21.3101089,1.09665333 21.3218252,0.86118325 Z" id="Shape" fill="url(#linearGradient-44)"></path>
                    <path d="M97.1862141,60.7535516 L104.471698,65.0314493 L104.471698,114.697842 L97.1862141,110.419944 C96.4675022,110.100686 95.9878254,109.407227 95.9433962,108.623227 L95.9433962,58.9568345 C95.9878254,59.7408343 96.4675022,60.4342935 97.1862141,60.7535516 Z" id="Shape" fill="url(#linearGradient-45)"></path>
                    <path d="M111.320183,61.0957834 C112.205893,60.7077562 112.836715,59.9045161 113,58.9568345 L113,108.623227 C112.836715,109.570909 112.205893,110.374149 111.320183,110.762176 L104.471698,114.697842 L104.471698,65.0314493 L111.320183,61.0957834 Z" id="Shape" fill="url(#linearGradient-46)"></path>
                    <path d="M97.618982,57.375342 L104.49318,53.5971223 L111.797015,57.7490121 C112.500812,58.0706123 112.963499,58.7413021 113,59.4928058 C112.837126,60.4125728 112.207893,61.192153 111.324414,61.5687506 L104.49318,65.3884892 L97.1893446,61.2365995 C96.4688224,60.9267453 95.9879373,60.2537124 95.9433962,59.4928058 C96.1074115,58.5635679 96.7339726,57.7717728 97.618982,57.375342 Z" id="Shape" fill="url(#linearGradient-47)"></path>
                    <path d="M82.2248904,90.752052 L89.5471698,94.992121 L89.5471698,123.273381 L82.2248904,119.033312 C81.5057018,118.720608 81.035479,118.02627 81.0188679,117.252483 L81.0188679,88.971223 C81.035479,89.7450101 81.5057018,90.4393474 82.2248904,90.752052 Z" id="Shape" fill="url(#linearGradient-45)"></path>
                    <path d="M96.4387269,91.0912575 C97.3344208,90.7289737 97.9607076,89.9177601 98.0754717,88.971223 L98.0754717,117.252483 C97.9498405,118.20477 97.3297447,119.024028 96.4387269,119.414918 L89.5471698,123.273381 L89.5471698,94.992121 L96.4387269,91.0912575 Z" id="Shape" fill="url(#linearGradient-46)"></path>
                    <path d="M82.6556127,87.4312494 L89.5471698,83.6115108 L96.8694492,87.7634005 C97.5886378,88.0696019 98.0588607,88.7494994 98.0754717,89.5071942 C97.9607076,90.4340465 97.3344208,91.2283896 96.4387269,91.5831391 L89.5471698,95.4028777 L82.2248904,91.2509879 C81.5057018,90.9447865 81.035479,90.2648891 81.0188679,89.5071942 C81.133632,88.580342 81.7599188,87.7859989 82.6556127,87.4312494 Z" id="Shape" fill="url(#linearGradient-47)"></path>
                    <path d="M68.3663998,80.0555479 L75.6886792,84.3501891 L75.6886792,131.848921 L68.3663998,127.55428 C67.6474334,127.214572 67.1811575,126.500597 67.1603774,125.707584 L67.1603774,78.2517986 C67.1872653,79.0322865 67.6541803,79.7306131 68.3663998,80.0555479 Z" id="Shape" fill="url(#linearGradient-45)"></path>
                    <path d="M82.5802363,80.3991192 C83.470237,80.0248237 84.0935914,79.2070165 84.2169811,78.2517986 L84.2169811,125.75053 C84.1081667,126.721776 83.4825056,127.559026 82.5802363,127.940797 L75.6886792,131.848921 L75.6886792,84.3501891 L82.5802363,80.3991192 Z" id="Shape" fill="url(#linearGradient-46)"></path>
                    <path d="M68.7971222,76.670306 L75.6886792,72.8920863 L83.0109586,77.0439761 C83.7301473,77.3501775 84.2003701,78.0300749 84.2169811,78.7877698 C84.0935914,79.7112368 83.470237,80.5018605 82.5802363,80.8637147 L75.6886792,84.6834532 L68.3663998,80.5315635 C67.6541803,80.2174293 67.1872653,79.5423147 67.1603774,78.7877698 C67.2860086,77.8552874 67.9061043,77.0530669 68.7971222,76.670306 Z" id="Shape" fill="url(#linearGradient-47)"></path>
                    <path d="M53.4418715,103.647153 L60.7641509,107.962917 L60.7641509,141.496403 L53.4418715,137.180639 C52.7426425,136.839026 52.2816256,136.14613 52.2358491,135.368018 L52.2358491,101.834532 C52.2724424,102.615698 52.7362972,103.31286 53.4418715,103.647153 Z" id="Shape" fill="url(#linearGradient-45)"></path>
                    <path d="M67.6210771,103.992414 C68.5073098,103.607408 69.1374169,102.793889 69.2924528,101.834532 L69.2924528,135.368018 C69.1374169,136.327375 68.5073098,137.140894 67.6210771,137.5259 L60.7641509,141.496403 L60.7641509,107.91976 L67.6210771,103.992414 Z" id="Shape" fill="url(#linearGradient-46)"></path>
                    <path d="M60.7426691,96.4748201 L68.0465044,100.62671 C68.7736934,100.928749 69.2578367,101.606342 69.2924528,102.370504 C69.1370263,103.293432 68.5053321,104.076062 67.6168671,104.446448 L60.7426691,108.266187 L53.4388337,104.114297 C52.7350367,103.792697 52.2723503,103.122007 52.2358491,102.370504 C52.3998643,101.441266 53.0264255,100.649471 53.9114348,100.25304 L60.7426691,96.4748201 Z" id="Shape" fill="url(#linearGradient-47)"></path>
                    <path d="M38.5541386,95.0682063 L45.8396226,99.3758576 L45.8396226,149 L38.5541386,144.692349 C37.8287767,144.378979 37.3458499,143.675965 37.3113208,142.883135 L37.3113208,93.2589928 C37.3458499,94.051823 37.8287767,94.7548365 38.5541386,95.0682063 Z" id="Shape" fill="url(#linearGradient-45)"></path>
                    <path d="M52.7901887,95.4558949 C53.6454126,95.0346749 54.2369434,94.211004 54.3679245,93.2589928 L54.3679245,142.883135 C54.2051394,143.847234 53.5832774,144.668734 52.7049057,145.080037 L45.8396226,149 L45.8396226,99.3758576 L52.7901887,95.4558949 Z" id="Shape" fill="url(#linearGradient-46)"></path>
                    <path d="M39.1403331,91.6908509 L45.9459606,87.8992806 L53.1769397,92.0658413 C53.8614593,92.4023202 54.3141232,93.0674351 54.3679245,93.8157968 C54.2199795,94.7544123 53.59502,95.5549595 52.7090528,95.9407428 L45.7758199,99.6906475 L38.5448407,95.5240867 C37.8249055,95.2209808 37.3455916,94.5409935 37.3113208,93.7741312 C37.5057475,92.8135195 38.1998261,92.0229506 39.1403331,91.6908509 Z" id="Shape" fill="url(#linearGradient-47)"></path>
                </g>
                <path d="M178,99.972465 L178.89199,99.4636154 L180.426515,103.672026 L180.449193,103.659089 L181.976159,97.7042034 L182.868149,97.1953539 L180.932984,104.430778 L179.935165,105 L178,99.972465 Z M183.926443,96.505759 C184.085187,96.415201 184.221253,96.3891049 184.327082,96.448958 C184.432912,96.5002237 184.485826,96.6160253 184.485826,96.7963629 C184.485826,96.9767006 184.425353,97.1571865 184.319523,97.3377835 C184.213694,97.5097931 184.077628,97.6475268 183.926443,97.7337725 C183.767699,97.8243304 183.639192,97.8375267 183.533362,97.7862611 C183.427533,97.726408 183.374618,97.6020189 183.374618,97.4302687 C183.374618,97.2499311 183.427533,97.0737575 183.533362,96.9017479 C183.639192,96.7211508 183.767699,96.596317 183.926443,96.505759 Z M183.525803,98.511924 L184.327082,98.0548218 L184.327082,102.494563 L183.525803,102.951665 L183.525803,98.511924 Z M188.22009,94.0220315 L189.021369,93.5649293 L189.021369,99.8166343 L188.273005,100.24355 L188.273005,99.711125 C188.000872,100.295743 187.592673,100.751881 187.063527,101.053741 C186.489025,101.381475 186.03547,101.408349 185.710423,101.130052 C185.408053,100.873168 185.256869,100.401226 185.256869,99.7228126 C185.256869,99.0701621 185.400494,98.4472157 185.702864,97.845349 C186.020352,97.2005077 186.466347,96.7142203 187.02573,96.3951112 C187.501962,96.1234373 187.902602,96.1525114 188.22009,96.4952334 L188.22009,94.0220315 Z M187.207152,97.030142 C186.814072,97.2543808 186.519262,97.5685475 186.330281,97.9855048 C186.163977,98.3380003 186.080826,98.7632857 186.080826,99.2527736 C186.080826,99.7422615 186.156418,100.076989 186.315162,100.261231 C186.496584,100.475474 186.791394,100.470458 187.184474,100.246219 C187.532199,100.047854 187.796773,99.7337612 187.993313,99.3124916 C188.159616,98.9342336 188.242768,98.5261232 188.242768,98.0795728 L188.242768,98.0022853 C188.242768,97.5213849 188.136939,97.1953191 187.940398,97.0154632 C187.743858,96.8527824 187.501962,96.8619629 187.207152,97.030142 Z M191.583951,93.7948038 C192.218927,93.4325719 192.710278,93.3927236 193.042884,93.7010585 C193.345254,93.9751175 193.503998,94.50286 193.511557,95.2885983 L190.548336,96.9790138 C190.578572,97.39114 190.676843,97.669993 190.858264,97.7983609 C191.039686,97.9181413 191.289141,97.896061 191.606629,97.714945 C191.886321,97.5553905 192.113098,97.3487344 192.28696,97.1035643 C192.423027,96.9057181 192.536415,96.6435211 192.642245,96.3255239 L193.443524,95.8684218 C193.352813,96.3323695 193.17895,96.7836399 192.906818,97.2136823 C192.566652,97.7426479 192.135776,98.1601982 191.614188,98.4577458 C191.039686,98.7854794 190.578572,98.8424286 190.245966,98.6285563 C189.883123,98.4061706 189.701701,97.9343025 189.701701,97.2043644 C189.701701,96.5431264 189.868004,95.8986557 190.215729,95.2537403 C190.548336,94.6088619 191.009449,94.1225374 191.583951,93.7948038 Z M191.606629,94.52898 C191.304259,94.7014714 191.069923,94.9296148 190.888501,95.2392098 C190.722198,95.5315927 190.608809,95.8796647 190.563454,96.2833887 L192.672481,95.0802613 C192.596889,94.3505086 192.241605,94.1667481 191.606629,94.52898 Z M195.990987,91.280742 C196.580608,90.9443838 197.05684,90.8959851 197.412124,91.1398581 C197.759849,91.3794559 197.941271,91.834149 197.941271,92.512562 C197.941271,93.1823875 197.767408,93.839758 197.419683,94.4674984 C197.05684,95.1210384 196.580608,95.624575 195.990987,95.9609332 C195.401366,96.2972914 194.925134,96.3371026 194.562291,96.0975419 C194.214566,95.8665317 194.040704,95.4075263 194.040704,94.7377007 C194.040704,94.0592877 194.214566,93.4019172 194.56985,92.761277 C194.925134,92.1120493 195.401366,91.6171002 195.990987,91.280742 Z M195.990987,92.0278551 C195.620584,92.239157 195.333333,92.5661865 195.129234,93.0175309 C194.947812,93.4044135 194.864661,93.8211114 194.864661,94.2676617 C194.864661,94.7142121 194.947812,95.0274522 195.129234,95.2073451 C195.333333,95.4172387 195.620584,95.4251221 195.990987,95.2138201 C196.36139,95.0025182 196.648641,94.6669013 196.860299,94.219832 C197.041721,93.824362 197.132432,93.4119393 197.132432,92.9739764 C197.132432,92.5274261 197.041721,92.2099107 196.860299,92.0300178 C196.648641,91.815849 196.36139,91.8165532 195.990987,92.0278551 Z M198.629161,91.7337063 L202.446577,89.5560028 L202.446577,90.3117034 L198.629161,92.4894069 L198.629161,91.7337063 Z M203.353685,85.5090634 L204.177642,85.0390244 L204.177642,87.6238639 L207.004797,86.0110696 L207.004797,83.42623 L207.828754,82.9561911 L207.828754,89.0876709 L207.004797,89.5577099 L207.004797,86.8097077 L204.177642,88.422502 L204.177642,91.1705042 L203.353685,91.6405432 L203.353685,85.5090634 Z M210.610554,82.9407842 C211.200174,82.604426 211.676406,82.5560273 212.031691,82.7999002 C212.379416,83.039498 212.560837,83.4941911 212.560837,84.1726042 C212.560837,84.8424297 212.386975,85.4998002 212.03925,86.1275406 C211.676406,86.7810806 211.200174,87.2846172 210.610554,87.6209754 C210.020933,87.9573335 209.544701,87.9971448 209.181858,87.7575841 C208.834133,87.5265738 208.66027,87.0675684 208.66027,86.3977429 C208.66027,85.7193298 208.834133,85.0619594 209.189417,84.4213191 C209.544701,83.7720914 210.020933,83.2771423 210.610554,82.9407842 Z M210.610554,83.6878973 C210.240151,83.8991992 209.9529,84.2262286 209.748801,84.6775731 C209.567379,85.0644556 209.484227,85.4811535 209.484227,85.9277039 C209.484227,86.3742542 209.567379,86.6874944 209.748801,86.8673873 C209.9529,87.0772809 210.240151,87.0851642 210.610554,86.8738623 C210.980957,86.6625603 211.268208,86.3269434 211.479866,85.8798742 C211.661288,85.4844041 211.751999,85.0719814 211.751999,84.6340186 C211.751999,84.1874682 211.661288,83.8699529 211.479866,83.69006 C211.268208,83.4758911 210.980957,83.4765953 210.610554,83.6878973 Z M214.783253,80.5604032 C215.796191,79.9825571 216.355575,80.1271735 216.446286,81.0114643 L215.667684,81.4556296 C215.60721,81.2496776 215.516499,81.1382624 215.387992,81.1171087 C215.251926,81.0916797 215.040267,81.1608986 214.768135,81.3161409 C214.526239,81.454134 214.344818,81.5919788 214.22387,81.7468504 C214.080244,81.9146589 214.012211,82.0908696 214.012211,82.2626197 C214.012211,82.4171948 214.11804,82.4856355 214.329699,82.4765291 C214.465765,82.467608 214.722779,82.4068654 215.11586,82.2942642 C215.561855,82.1600646 215.894461,82.1163117 216.10612,82.1501428 C216.416049,82.1966143 216.574793,82.4152066 216.574793,82.8102319 C216.574793,83.7462702 215.992732,84.5506289 214.836168,85.2104084 C213.762756,85.8227528 213.188254,85.6266485 213.097543,84.6478951 L213.883704,84.1994175 C213.929059,84.4741066 214.02733,84.6327345 214.163396,84.6753385 C214.299462,84.709355 214.511121,84.6487236 214.81349,84.4762322 C215.433348,84.1226249 215.750836,83.7354088 215.750836,83.3403835 C215.750836,83.1256958 215.629888,83.0229422 215.403111,83.0320856 C215.282163,83.0323821 215.01759,83.097437 214.61695,83.222938 C214.155837,83.3657623 213.830789,83.4223779 213.649368,83.3884726 C213.346998,83.3462763 213.195813,83.1319592 213.195813,82.7541089 C213.195813,82.3504961 213.339439,81.950825 213.634249,81.5593707 C213.929059,81.1593289 214.314581,80.8277649 214.783253,80.5604032 Z M218.441925,77.1593691 L218.441925,78.5934827 L219.333915,78.0846332 L219.333915,78.8403338 L218.441925,79.3491833 L218.441925,81.9254353 C218.441925,82.0456604 218.464602,82.1185986 218.509958,82.1528375 C218.555313,82.1784888 218.623346,82.1740283 218.721617,82.1179686 L219.235645,81.8247333 L219.235645,82.5804339 L218.593109,82.946978 C218.260503,83.1367185 218.011048,83.1759738 217.859863,83.0647069 C217.708679,82.9620274 217.640645,82.7346253 217.640645,82.3825375 L217.640645,79.8062854 L216.914959,80.2202647 L216.914959,79.4645641 L217.640645,79.0505849 L217.640645,77.9943215 L218.441925,77.1593691 Z M220.543393,75.6170538 C220.702137,75.5264958 220.838203,75.5003997 220.944033,75.5602528 C221.049862,75.6115184 221.102777,75.7273201 221.102777,75.9076577 C221.102777,76.0879954 221.042303,76.2684812 220.936473,76.4490783 C220.830644,76.6210879 220.694578,76.7588216 220.543393,76.8450672 C220.384649,76.9356252 220.256142,76.9488215 220.150313,76.8975559 C220.044483,76.8377028 219.991569,76.7133136 219.991569,76.5415635 C219.991569,76.3612259 220.044483,76.1850523 220.150313,76.0130427 C220.256142,75.8324456 220.384649,75.7076117 220.543393,75.6170538 Z M220.142753,77.6232187 L220.944033,77.1661166 L220.944033,81.6058576 L220.142753,82.0629597 L220.142753,77.6232187 Z M224.005524,75.2994164 C224.973107,74.747444 225.464457,75.068271 225.464457,76.2876969 L225.464457,79.0271116 L224.663178,79.4842137 L224.663178,76.8220866 C224.663178,76.066386 224.353249,75.8653394 223.74851,76.2103221 C223.521733,76.3396907 223.317633,76.5419974 223.15133,76.8257928 C222.969908,77.1353878 222.85652,77.4834598 222.826283,77.8613842 L222.826283,80.5320988 L222.025004,80.9892009 L222.025004,76.5494599 L222.826283,76.0923578 L222.826283,76.6419582 C222.977468,76.3324374 223.15133,76.0700922 223.34787,75.8463352 C223.544411,75.6139907 223.763628,75.4374095 224.005524,75.2994164 Z M228.004361,73.018218 C228.518389,72.7249826 228.91147,72.7326065 229.198721,73.0496401 L229.198721,72.4571021 L230,72 L230,76.1477658 C230,77.5561169 229.387702,78.6095875 228.178224,79.299553 C227.633958,79.6100374 227.2182,79.726988 226.930949,79.6589921 C226.643698,79.5824087 226.469836,79.320916 226.394243,78.8745509 L227.195523,78.4174488 C227.240878,78.6492003 227.331589,78.786378 227.482774,78.8117699 C227.626399,78.8328866 227.860736,78.7593183 228.178224,78.5782024 C228.858555,78.1900968 229.198721,77.5752562 229.198721,76.742268 L229.198721,76.0552675 C228.91147,76.7086222 228.518389,77.1818986 228.004361,77.475134 C227.475214,77.7769939 227.044338,77.8166939 226.719291,77.5985093 C226.386684,77.384637 226.22794,76.9427696 226.22794,76.272944 C226.22794,75.6031185 226.386684,74.9801351 226.719291,74.3781943 C227.044338,73.7719782 227.475214,73.3200779 228.004361,73.018218 Z M228.125309,73.687747 C227.785143,73.8817998 227.52057,74.1615423 227.339148,74.5398374 C227.142608,74.909582 227.051897,75.3305922 227.051897,75.8029051 C227.051897,76.2322804 227.127489,76.5326578 227.278674,76.6954498 C227.452537,76.8882425 227.732229,76.8832631 228.125309,76.6590243 C228.465475,76.4649715 228.730048,76.185229 228.926588,75.8154844 C229.10801,75.4457769 229.20628,75.0290419 229.20628,74.573904 C229.20628,74.1101787 229.10801,73.7969756 228.926588,73.6342577 C228.730048,73.4715769 228.465475,73.4936942 228.125309,73.687747 Z" id="Video-Hosting" fill="#FFFFFF"></path>
            </g>
        </g>
    </g>
</svg>