<?xml version="1.0" encoding="UTF-8" standalone="no"?>
<svg width="408px" height="402px" viewBox="0 0 408 402" version="1.1" xmlns="http://www.w3.org/2000/svg" xmlns:xlink="http://www.w3.org/1999/xlink">
    <!-- Generator: Sketch 50.2 (55047) - http://www.bohemiancoding.com/sketch -->
    <title>Group 20</title>
    <desc>Created with Sketch.</desc>
    <defs>
        <ellipse id="path-1" cx="136" cy="134.5" rx="136" ry="134.5"></ellipse>
    </defs>
    <g id="官网" stroke="none" stroke-width="1" fill="none" fill-rule="evenodd">
        <g id="视频云" transform="translate(-1140.000000, -844.000000)">
            <g id="Group-20" transform="translate(1141.000000, 845.000000)">
                <ellipse id="Oval-2" stroke="#D3DCEA" stroke-width="2" cx="203" cy="200" rx="203" ry="200"></ellipse>
                <g id="Rectangle-4" transform="translate(66.000000, 66.000000)">
                    <mask id="mask-2" fill="white">
                        <use xlink:href="#path-1"></use>
                    </mask>
                    <use id="Mask" stroke="#D3DCEA" fill="#FFFFFF" xlink:href="#path-1"></use>
                    <rect fill-opacity="0.9" fill="#FFCA75" mask="url(#mask-2)" x="0.891803279" y="-16.757377" width="278.242623" height="74.9672131"></rect>
                </g>
                <ellipse id="Oval-3" fill="#A8BAD5" cx="38" cy="77.5" rx="38" ry="37.5"></ellipse>
                <ellipse id="Oval-3-Copy-2" fill="#A8BAD5" cx="38" cy="334.5" rx="38" ry="37.5"></ellipse>
                <ellipse id="Oval-3-Copy" fill="#A8BAD5" cx="367" cy="77.5" rx="38" ry="37.5"></ellipse>
                <ellipse id="Oval-3-Copy-3" fill="#A8BAD5" cx="367" cy="334.5" rx="38" ry="37.5"></ellipse>
                <path d="M53,90.8176796 C53,92.4088398 52.2,94 49.6,94 L23.4,94 C20,94 20,92.4088398 20,90.8176796 C20,83.4585635 25,76.8950276 31.8,74.9060773 C28.8,73.3149171 27.4,70.3314917 27.4,66.9502762 C27.4,61.9779006 31.6,58 36.6,58 C41.6,58 45.8,61.9779006 45.8,66.9502762 C45.8,70.3314917 44.2,73.3149171 41.2,74.9060773 C47.8,76.8950276 53,83.4585635 53,90.8176796" id="Shape" fill="#FFFFFF" fill-rule="nonzero"></path>
                <path d="M384,90.8176796 C384,92.4088398 383.2,94 380.6,94 L354.4,94 C351,94 351,92.4088398 351,90.8176796 C351,83.4585635 356,76.8950276 362.8,74.9060773 C359.8,73.3149171 358.4,70.3314917 358.4,66.9502762 C358.4,61.9779006 362.6,58 367.6,58 C372.6,58 376.8,61.9779006 376.8,66.9502762 C376.8,70.3314917 375.2,73.3149171 372.2,74.9060773 C378.8,76.8950276 384,83.4585635 384,90.8176796" id="Shape-Copy-4" fill="#FFFFFF" fill-rule="nonzero"></path>
                <path d="M53,350.81768 C53,352.40884 52.2,354 49.6,354 L23.4,354 C20,354 20,352.40884 20,350.81768 C20,343.458564 25,336.895028 31.8,334.906077 C28.8,333.314917 27.4,330.331492 27.4,326.950276 C27.4,321.977901 31.6,318 36.6,318 C41.6,318 45.8,321.977901 45.8,326.950276 C45.8,330.331492 44.2,333.314917 41.2,334.906077 C47.8,336.895028 53,343.458564 53,350.81768" id="Shape-Copy-3" fill="#FFFFFF" fill-rule="nonzero"></path>
                <path d="M384,350.81768 C384,352.40884 383.2,354 380.6,354 L354.4,354 C351,354 351,352.40884 351,350.81768 C351,343.458564 356,336.895028 362.8,334.906077 C359.8,333.314917 358.4,330.331492 358.4,326.950276 C358.4,321.977901 362.6,318 367.6,318 C372.6,318 376.8,321.977901 376.8,326.950276 C376.8,330.331492 375.2,333.314917 372.2,334.906077 C378.8,336.895028 384,343.458564 384,350.81768" id="Shape-Copy-5" fill="#FFFFFF" fill-rule="nonzero"></path>
                <text id="活动直播" font-family="PingFangSC-Medium, PingFang SC" font-size="24" font-weight="400" fill="#FFFFFF">
                    <tspan x="155" y="110">活动直播</tspan>
                </text>
                <circle id="Oval-4" fill-opacity="0.252264493" fill="#FFD695" cx="243.5" cy="155.5" r="17.5"></circle>
                <circle id="Oval-4-Copy-5" fill="#FFE5BC" cx="158" cy="148" r="18"></circle>
                <circle id="Oval-4-Copy-7" fill="#98B1D5" cx="291.5" cy="170.5" r="20.5"></circle>
                <g id="场景" transform="translate(281.000000, 160.000000)" fill="#FFFFFF" fill-rule="nonzero">
                    <path d="M17.4848865,8.3647054 L4.88921812,8.3647054 L17.5483472,4.06215913 C18.3419823,3.81904612 18.7942616,2.97683794 18.557346,2.17864274 L18.2328069,1.08529903 C18.0431328,0.446290777 17.4460976,0 16.7809107,0 C16.6349378,0 16.489518,0.0212751587 16.3487671,0.0631827891 L16.3383674,0.0662854164 L1.07197208,5.25494204 C0.278336988,5.49805505 -0.173942301,6.34026324 0.0629732737,7.13845844 L0.387534555,8.23180214 C0.477016818,8.53322238 0.657176209,8.79171556 0.892343737,8.98075421 C0.70574534,9.23297565 0.595175888,9.54487834 0.595175888,9.88217826 L0.595175888,19.4825271 C0.595175888,20.3192392 1.27483394,21 2.11028938,21 L17.4848865,21 C18.3203198,21 19,20.3192392 19,19.4825271 L19,9.88220042 C19.0000221,9.04544399 18.3203419,8.3647054 17.4848865,8.3647054 Z M17.8679078,9.88217826 L17.8679078,11.4063882 L13.4280918,11.4063882 L14.9665937,9.49860487 L17.4848865,9.49860487 C17.6960682,9.49860487 17.8679078,9.67066772 17.8679078,9.88217826 Z M2.11026725,9.49860487 L5.96344781,9.49860487 L4.27244547,11.1922626 C4.21208973,11.2525517 4.16616793,11.3257622 4.13813357,11.4063882 L1.7273345,11.4063882 L1.7273345,9.88217826 C1.7273345,9.67066772 1.89912982,9.49860487 2.11028938,9.49860487 L2.11026725,9.49860487 Z M7.44563607,9.61770144 C7.48107884,9.5822082 7.51166019,9.54215951 7.53657873,9.49860487 L13.5112899,9.49860487 L12.1094675,11.2369183 C12.0685737,11.28756 12.0367149,11.3448917 12.0152943,11.4063882 L5.65973032,11.4063882 L7.44561395,9.6177236 L7.44563607,9.61770144 Z M1.40613655,6.33833518 L1.41651419,6.33525471 L16.6794576,1.14779481 C16.7128697,1.1386199 16.7469455,1.13396596 16.7808664,1.13396596 C16.9488116,1.13396596 17.0995862,1.24685727 17.1475579,1.40845983 L17.4721191,2.5018257 C17.5322829,2.70453807 17.4165799,2.91853071 17.2141385,2.97878816 L17.203783,2.98186863 L1.94086166,8.16935069 C1.90782859,8.17848307 1.87372125,8.1831342 1.83945286,8.18317954 C1.67150766,8.18317954 1.52073315,8.07028823 1.47276145,7.90866351 L1.14822229,6.8153198 C1.08801427,6.61260743 1.20371723,6.39861479 1.40613655,6.33833518 Z M17.4848865,19.8661005 L2.11026725,19.8661005 C1.89912982,19.8661005 1.72731237,19.6940155 1.72731237,19.4825271 L1.72731237,12.5402877 L17.8678635,12.5402877 L17.8678635,19.4825271 C17.8678856,19.6940155 17.6960682,19.8661005 17.4848865,19.8661005 Z" id="Shape"></path>
                </g>
                <circle id="Oval-4-Copy-6" fill="#718CB5" cx="204.5" cy="207.5" r="28.5"></circle>
                <g id="可靠" transform="translate(191.000000, 191.000000)" fill="#FFFFFF" fill-rule="nonzero">
                    <path d="M27.3810983,10.8651281 C26.8154764,10.1199119 25.9592312,9.69094283 25.0373613,9.69094283 L18.4498978,9.69094283 C18.6967714,9.18369477 18.8342707,8.66079091 18.8686455,8.37585527 L18.9717699,7.94688623 C19.4217674,6.16212455 19.3405179,4.28342804 18.7436462,2.54250261 L18.5498972,1.99454946 C18.1530244,0.820364142 16.9999058,0 15.7499127,0 L15.6686632,0 C14.0374222,0 12.6061802,1.37144845 12.6061802,2.93389772 L12.6061802,3.71042561 C12.6061802,7.51478604 9.75619595,10.3860605 5.97184192,10.3860605 L2.9781085,10.3860605 C1.39374228,10.3860605 0,11.8577061 0,13.5328772 L0,24.0535776 C0.00312498269,25.6786501 1.33436761,26.9968688 2.9781085,27 L21.7405046,27 C23.0904971,26.9906065 24.2654906,26.0888322 24.6092387,24.7987939 L27.8842205,13.5046967 C28.1467191,12.6029224 27.9560951,11.6197379 27.3810983,10.8651281 Z M1.39686726,24.0504465 L1.39686726,13.529746 C1.39686726,12.6060536 2.15311307,11.7669025 2.9781085,11.7669025 L5.59996898,11.7669025 L5.59996898,25.6128957 L2.9781085,25.6128957 C2.10936331,25.6128957 1.39686726,24.9115157 1.39686726,24.0504465 Z M26.540478,13.1164328 L23.2686211,24.4261858 C23.0842471,25.1150412 22.4592506,25.6003711 21.7405046,25.6128957 L6.99996122,25.6128957 L6.99996122,11.7669025 C6.99996122,11.7481155 6.99996122,11.7261974 6.99683624,11.7074104 C11.0561888,11.231474 14.0030474,7.95314856 14.0030474,3.70729445 L14.0030474,2.93076655 C14.0030474,2.1354517 14.809293,1.38084193 15.6686632,1.38084193 L15.7499127,1.38084193 C16.418659,1.39649774 17.0092808,1.81920445 17.2311545,2.44543662 L17.4342784,2.99025861 C17.9405256,4.48382234 18.0030253,6.08697669 17.6186524,7.61498318 L17.503028,8.10031312 L17.4842781,8.24434652 C17.4530283,8.58877421 17.0061558,9.57508988 16.8061569,9.68468051 L16.8061569,11.0717848 L25.0436113,11.0717848 C25.5279836,11.0749159 25.9842311,11.3034907 26.2686045,11.6917546 C26.5811027,12.0988055 26.6842272,12.6279717 26.540478,13.1164328 Z" id="Shape"></path>
                </g>
                <circle id="Oval-4-Copy" fill="#718CB5" opacity="0.0996668199" cx="112" cy="202" r="14"></circle>
                <circle id="Oval-4-Copy-2" fill-opacity="0.15050385" fill="#FFCA75" cx="151.5" cy="287.5" r="10.5"></circle>
                <text id="低延时" font-family="PingFangSC-Medium, PingFang SC" font-size="14" font-weight="400" fill="#FFCF82">
                    <tspan x="137" y="182">低延时</tspan>
                </text>
                <text id="全场景" font-family="PingFangSC-Medium, PingFang SC" font-size="14" font-weight="400" fill="#98B1D5">
                    <tspan x="272" y="207">全场景</tspan>
                </text>
                <text id="高可靠" font-family="PingFangSC-Medium, PingFang SC" font-size="14" font-weight="400" fill="#718CB5">
                    <tspan x="183" y="255">高可靠</tspan>
                </text>
                <circle id="Oval-4-Copy-4" fill-opacity="0.10657269" fill="#718CB5" cx="271.5" cy="231.5" r="10.5"></circle>
                <circle id="Oval-4-Copy-3" fill-opacity="0.081323596" fill="#718CB5" cx="191.5" cy="287.5" r="18.5"></circle>
                <circle id="Oval-4-Copy-8" fill="#FFE5BC" cx="263.5" cy="253.5" r="20.5"></circle>
                <circle id="Oval-4-Copy-9" fill="#98B1D5" cx="123.5" cy="236.5" r="20.5"></circle>
                <g id="终端" transform="translate(114.000000, 227.000000)" fill="#FFFFFF" fill-rule="nonzero">
                    <path d="M18.2483333,9.25185854e-16 L1.75166667,9.25185854e-16 C0.785387774,0.0027464275 0.0027464275,0.785387774 0,1.75166667 L0,14.0816667 C-9.25185854e-16,15.045 0.788333333,15.8333333 1.75166667,15.8333333 L6.66666667,15.8333333 L6.66666667,19.1666667 L5.83333333,19.1666667 L5.83333333,20 L13.3333333,20 L13.3333333,19.1666667 L12.5,19.1666667 L12.5,15.8333333 L18.2483333,15.8333333 C19.2146122,15.8305869 19.9972536,15.0479456 20,14.0816667 L20,1.75166667 C19.9972536,0.785387774 19.2146122,0.0027464275 18.2483333,9.25185854e-16 Z M18.3333333,11.6666667 L1.66666667,11.6666667 L1.66666667,1.66666667 L18.3333333,1.66666667 L18.3333333,11.6666667 Z" id="Shape"></path>
                    <path d="M3.57142857,3.57142857 L8.63636364,3.57142857 L8.63636364,5.17857143 L3.57142857,5.17857143 L3.57142857,3.57142857 Z M3.57142857,5.98214286 L9.48051948,5.98214286 L9.48051948,7.58928571 L3.57142857,7.58928571 L3.57142857,5.98214286 Z M3.57142857,8.39285714 L12.8571429,8.39285714 L12.8571429,10 L3.57142857,10 L3.57142857,8.39285714 Z" id="Shape"></path>
                </g>
                <text id="易接入" font-family="PingFangSC-Medium, PingFang SC" font-size="14" font-weight="400" fill="#FFCF82">
                    <tspan x="243" y="293">易接入</tspan>
                </text>
                <text id="多终端-copy" font-family="PingFangSC-Medium, PingFang SC" font-size="14" font-weight="400" fill="#98B1D5">
                    <tspan x="102" y="274">多终端</tspan>
                </text>
                <g id="延时" transform="translate(150.000000, 141.000000)" fill="#FFFFFF" fill-rule="nonzero">
                    <path d="M14.4095928,4.58332467 C14.0313445,3.69053548 13.4900721,2.88839998 12.8008629,2.19916401 C12.1116537,1.50992804 11.3094913,0.96868572 10.4167314,0.590414461 C9.49207149,0.198652523 8.51076977,0 7.49997247,0 L7.05592353,0 L7.05592353,3.09004431 C7.05592353,3.33489552 7.25512425,3.53409868 7.49997247,3.53409868 C7.74482068,3.53409868 7.94402141,3.33489552 7.94402141,3.09004431 L7.94402141,0.902829188 C9.58720255,1.01216792 11.1171185,1.72579723 12.2668956,2.92277826 C13.4566119,4.16135095 14.1118103,5.78689501 14.1118103,7.50002753 C14.1118103,11.1457776 11.145733,14.1118362 7.49997247,14.1118362 C3.85415685,14.1118362 0.888079526,11.1457776 0.888079526,7.50002753 C0.888079526,5.73491461 1.57517795,4.07501062 2.82280258,2.82610425 C2.99577481,2.65283622 2.99557291,2.37118391 2.8224722,2.19826463 C2.73866583,2.11445723 2.62723603,2.06833196 2.50859294,2.06833196 C2.50853787,2.06833196 2.5084461,2.06833196 2.50839104,2.06833196 C2.38971124,2.06838703 2.27822637,2.11465914 2.19447507,2.19861337 C0.779366185,3.61507946 0,5.49784577 0,7.50006424 C0,11.6355168 3.36446042,15 7.49999082,15 C11.6355212,15 15,11.6355535 15,7.50006424 C15,6.48932799 14.8013866,5.50795919 14.4096295,4.58330631 L14.4095928,4.58332467 Z" id="Shape"></path>
                    <path d="M6.90834856,8.28657326 C7.09825049,8.47648835 7.34772202,8.57142857 7.59717622,8.57142857 C7.8466131,8.57142857 8.09604998,8.47648835 8.28595191,8.28662524 C8.47004936,8.10267099 8.57142857,7.85799936 8.57142857,7.59764586 C8.57142857,7.33732703 8.47006668,7.09258608 8.28600389,6.90856252 C7.95533889,6.57780528 4.35075421,4.10563408 4.19746385,4.00059163 L3.57142857,3.57142857 L4.0005099,4.19752457 C4.10559706,4.35086021 6.57761425,7.95591999 6.90829658,8.2866599 L6.90834856,8.28657326 Z" id="Shape"></path>
                </g>
                <g id="接口" transform="translate(249.000000, 248.000000)" fill="#FFFFFF" fill-rule="nonzero">
                    <path d="M17.0991896,8.99908607 L13.9588668,8.99908607 L13.9588668,4.19959028 L16.889131,4.19959028 L16.889131,2.79977936 L13.9588668,2.79977936 L13.9588668,0.00015751504 L10.4015936,0.00015751504 C6.94921782,-0.0226181415 4.0254995,2.42705054 3.59844048,5.70025212 L0,5.70025212 L0,7.10006304 L3.49393898,7.19990547 C3.59844048,8.69955881 4.33100654,9.9995273 5.37707709,10.99896 C6.63320621,12.1990861 8.41184281,12.8989916 10.2960365,12.8989916 L13.8543653,12.8989916 L13.8543653,10.2990546 L16.9936325,10.2990546 L17.0991896,8.99908607 Z M10.400538,11.3993382 C8.93540587,11.3993382 7.57477525,10.8991176 6.63320621,9.9995273 C5.69163714,9.09892849 5.06357258,7.89981091 5.1680741,6.59984243 L5.1680741,6.40015758 C5.1680741,3.80022059 7.47027377,1.59965328 10.400538,1.59965328 L12.2847317,1.59965328 L12.2847317,11.3993382 L10.400538,11.3993382 Z M31,7.29974788 L31,5.89993697 L28.6112435,5.79908603 C28.5056865,4.29943269 27.774176,3.0004727 26.7270498,2.00003147 C25.4709207,0.799905399 23.6922841,0.0999999384 21.8080904,0.0999999384 L18.3542631,0.00015751504 L18.3542631,12.9998425 L21.7035889,12.9998425 C25.1559647,13.0226181 28.079683,10.5729495 28.506742,7.29974788 L31,7.29974788 Z M21.7035889,11.3993382 L20.0294538,11.3993382 L20.0294538,1.59965328 L21.7035889,1.59965328 C23.1687211,1.59965328 24.5293517,2.09886539 25.4719763,2.99946421 C26.4135454,3.89905451 27.0405543,5.09918059 26.9360528,6.39814056 L26.9360528,6.59883392 C27.0416099,9.29861334 24.6349087,11.3983297 21.7035889,11.3983297 L21.7035889,11.3993382 Z" id="Shape"></path>
                </g>
            </g>
        </g>
    </g>
</svg>