<?xml version="1.0" encoding="UTF-8" standalone="no"?>
<svg width="520px" height="417px" viewBox="0 0 520 417" version="1.1" xmlns="http://www.w3.org/2000/svg" xmlns:xlink="http://www.w3.org/1999/xlink">
    <!-- Generator: Sketch 50.2 (55047) - http://www.bohemiancoding.com/sketch -->
    <title>Group 3</title>
    <desc>Created with Sketch.</desc>
    <defs>
        <rect id="path-1" x="0" y="0" width="107" height="108" rx="8"></rect>
    </defs>
    <g id="官网" stroke="none" stroke-width="1" fill="none" fill-rule="evenodd">
        <g id="视频云" transform="translate(-1007.000000, -1927.000000)">
            <g id="Group-3" transform="translate(1007.000000, 1927.000000)">
                <g id="Group-23" transform="translate(70.000000, 0.000000)">
                    <g id="点播" transform="translate(336.000000, 272.000000)" fill="#6E8CB5" fill-rule="nonzero">
                        <path d="M10.0212931,23.934518 C9.65358113,24.4145674 8.98343411,24.5719906 8.43215758,24.2850542 L7.95238757,24.2850542 L7.71250257,24.0464025 C7.47261757,24.0464025 7.47261757,23.8077508 7.23273257,23.8077508 C6.701696,23.5747129 6.21536387,23.2517134 5.79540508,22.8531438 C4.59598007,21.8985369 3.87830759,22.1371886 3.15865258,22.8531438 C1.95922757,24.0464025 2.43899758,25.7149923 4.59598007,27.6222339 C7.47261757,30.2434583 8.43017506,31.1980653 11.0669276,33.1053068 C14.9011225,36.2058071 18.7353175,37.1584417 23.7689375,35.2512001 C25.686035,34.5293279 27.6031325,31.8982418 27.6031325,30.7148448 L27.6031325,26.388681 C27.4748009,26.1966969 27.3998593,25.9652125 27.3998593,25.7160249 L27.3998593,19.9472386 C27.3998593,19.0058096 26.4878085,18.0624707 25.5555181,18.024813 L25.5555181,22.3475339 C25.5555181,23.0046587 25.0168228,23.5373636 24.3523083,23.5373636 C23.6877939,23.5373636 23.1490985,23.0046587 23.1490985,22.3475339 L23.1490985,17.5882153 C23.1566882,17.0811562 22.956342,16.5926629 22.5937254,16.2340787 C22.2311087,15.8754945 21.737122,15.6773762 21.2243608,15.6848815 C20.8472223,15.6848815 20.4637227,15.6848815 20.2020178,15.8065832 C20.2468115,16.0605764 20.2692587,16.3198293 20.2681816,16.5814501 L20.2681816,21.3914244 C20.2681816,22.0555433 19.7358747,22.593918 19.0792408,22.593918 C18.422607,22.593918 17.8903,22.0555433 17.8903,21.3914244 L17.8903,16.5814501 C17.8977997,16.0689941 17.6998295,15.5753015 17.3415132,15.2129008 C16.9831969,14.8505 16.4950685,14.6502731 15.9883882,14.6578582 C15.9114302,14.6578582 15.8095859,14.6578582 15.6989506,14.6659975 L15.6989506,21.1665616 C15.6989506,21.8236863 15.1602552,22.3563912 14.4957408,22.3563912 C13.8312263,22.3563912 13.2925309,21.8236863 13.2925309,21.1665616 L13.2925309,14.5675225 C13.0264822,14.2184257 13.0760603,13.7792577 13.2925309,13.3917456 L13.2925309,11.1735671 C13.2396317,10.408166 12.6234836,9.79886983 11.8494753,9.74655884 C11.1289427,9.74655884 10.4064197,10.2130429 10.4064197,10.9275312 L10.4064197,23.0620222 C10.4064197,23.4067398 10.2581765,23.7172184 10.0212931,23.934518 Z M8,21.5646628 L8,10.9275312 C8,9.02419742 9.68389664,7.36296296 11.8494753,7.36296296 C14.015054,7.36296296 15.6989506,9.02813399 15.6989506,10.9314678 L15.6989506,12.2567616 C15.7944565,12.2520092 15.8903379,12.2506948 15.9864214,12.2528711 C17.1232767,12.2475551 18.2151169,12.7018291 19.0191882,13.5146926 C19.0988577,13.5952332 19.1750477,13.6786328 19.2476611,13.7646525 C19.8544425,13.4506023 20.5342503,13.2919072 21.2243608,13.3071905 C22.374516,13.3024569 23.4789462,13.7521793 24.2922357,14.5564247 C24.6202302,14.8807717 24.8899145,15.2519449 25.0946601,15.6540256 C25.2345461,15.6316036 25.3704952,15.6186596 25.4979474,15.6186596 C26.6344627,15.6138756 27.7257953,16.0683846 28.5294399,16.88119 C29.3330845,17.6939953 29.7824709,18.7977681 29.7777408,19.9472386 L29.7777408,23.585361 C29.9176752,23.780441 30,24.0192384 30,24.2771649 L30,30.7128725 C30,32.8587658 27.6031325,36.4444588 24.4885925,37.6278558 C18.497415,39.7737491 13.9495126,38.5804905 9.38971506,35.0046591 C6.99284757,33.0974175 5.79540508,32.1447829 2.91876758,29.5215861 C-0.19775492,26.6656546 -0.917409925,23.5612097 1.23957257,21.184554 C2.6709525,19.5159642 4.83388255,19.2773124 7.23075005,20.9459023 C7.54781156,21.2535984 7.77037761,21.427209 8,21.5646628 Z M20.4444444,9.31919345 L20.4186451,9.31919345 C20.4186451,9.78696879 19.9483033,10.5034348 19.2279065,10.5034348 C18.9072625,10.5200874 18.594567,10.4006764 18.3675285,10.1748768 C18.14049,9.94907711 18.0204239,9.63808787 18.0371678,9.31919345 C18.0371678,5.50198878 15.1575649,2.63809842 11.5595496,2.63809842 C9.77829871,2.63547633 8.06918707,3.33778323 6.80927885,4.59007619 C5.54937062,5.84236915 4.84220026,7.54173952 4.84378367,9.31327224 C4.84378367,10.9889738 5.56219599,12.4219058 6.52272516,13.8528641 C6.92731052,14.3227241 6.90010866,15.0231246 6.46028666,15.4605467 C6.02046466,15.8979688 5.31622147,15.9250222 4.84378367,15.5226445 C3.32208984,13.8077695 2.47058447,11.6062159 2.44444531,9.31919345 C2.44339212,6.91440604 3.40332913,4.60778283 5.11291404,2.9071561 C6.82249895,1.20652937 9.14156829,0.251328148 11.5595496,0.251852067 C16.5983586,0.251852067 20.4444444,4.30787874 20.4444444,9.31919345 Z" id="Combined-Shape"></path>
                    </g>
                    <g id="直播" transform="translate(22.000000, 274.000000)" fill="#6E8CB5" fill-rule="nonzero">
                        <path d="M17,34 C7.703125,34 0,26.296875 0,17 C0,7.703125 7.703125,0 17,0 C26.296875,0 34,7.7010498 34,17 C34,26.2989502 26.296875,34 17,34 Z M17,2.125 C6.74542236,2.125 -1.03759766,12.4221191 3.39865112,23.2738342 C4.7603642,26.5993966 7.40008456,29.239117 10.725647,30.6008301 C21.5758057,35.0375977 31.875,27.2545776 31.875,17 C31.8814861,13.0529199 30.3163861,9.26563569 27.5253752,6.4746248 C24.7343643,3.68361392 20.9470801,2.11851387 17,2.125 Z M13.015625,25.5 C12.4533484,25.5039553 11.9867352,25.06632 11.9546814,24.5049438 L11.9546814,10.359375 C11.9546814,9.828125 12.4859314,9.296875 13.0171814,9.296875 C13.5484314,9.296875 14.0796814,9.828125 14.0796814,10.359375 L14.0796814,20.610321 C14.0789542,21.0013081 14.2929198,21.361135 14.6367896,21.5472127 C14.9806595,21.7332904 15.3989214,21.7155796 15.7258301,21.5010986 L20.5345764,18.3504333 C20.8223048,18.1620539 21.0011211,17.8461151 21.0145127,17.5024654 C21.0279043,17.1588157 20.8742165,16.8299196 20.6020203,16.6197205 L15.9764099,13.0446777 C15.9502097,13.0256705 15.9228314,13.0083425 15.8944397,12.9927979 C15.4067688,12.7064209 15.4135132,11.9385986 15.671875,11.4223938 C15.9115601,10.9430237 16.5849609,10.8963318 17.1042786,11.0872498 C17.1970333,11.121447 17.2843926,11.1687958 17.363678,11.2278442 L24.3736877,16.4215393 C24.41601,16.4530822 24.4558973,16.4877669 24.4930115,16.5252991 C24.7389221,16.7722473 24.96875,17.0191956 24.96875,17.2661438 C24.96875,17.513092 24.7513733,17.7465515 24.5132446,17.9867554 C24.4639677,18.0365396 24.4099269,18.0813708 24.3518982,18.1206055 L13.9100342,25.1695251 C13.8596332,25.2030326 13.8114569,25.2397714 13.7658081,25.2795105 C13.5162659,25.5 13.2667236,25.5 13.0171814,25.5 L13.015625,25.5 Z" id="Shape"></path>
                    </g>
                    <circle id="Oval-5-Copy" stroke="#6E8CB5" cx="350.5" cy="293.5" r="38.5"></circle>
                    <circle id="Oval-5-Copy-2" stroke="#6E8CB5" cx="193.5" cy="371.5" r="38.5"></circle>
                    <circle id="Oval-5-Copy-3" stroke="#6E8CB5" cx="38.5" cy="292.5" r="38.5"></circle>
                    <rect id="Rectangle-3" fill="#6E8CB5" x="318" y="314" width="65" height="25" rx="12.5"></rect>
                    <rect id="Rectangle-3-Copy" fill="#6E8CB5" x="161" y="392" width="65" height="25" rx="12.5"></rect>
                    <rect id="Rectangle-3-Copy-2" fill="#6E8CB5" x="6" y="313" width="65" height="25" rx="12.5"></rect>
                    <polygon id="Path-2" fill="#E0EAF2" transform="translate(289.393439, 246.149010) scale(-1, 1) translate(-289.393439, -246.149010) " points="306.655016 234 285.860269 247.569168 283.273437 243.898206 270 258.29802 289.264097 254.020648 287.363621 250.566123 308.786878 237.243939"></polygon>
                    <polygon id="Path-2-Copy-2" fill="#E0EAF2" points="107.655016 233 86.8602687 246.569168 84.2734369 242.898206 71 257.29802 90.2640973 253.020648 88.3636209 249.566123 109.786878 236.243939"></polygon>
                    <polygon id="Path-2-Copy" fill="#E0EAF2" transform="translate(191.579902, 302.884563) scale(-1, 1) rotate(-58.000000) translate(-191.579902, -302.884563) " points="208.841479 290.735553 188.046731 304.304721 185.4599 300.63376 172.186463 315.033573 191.45056 310.756201 189.550084 307.301676 210.973341 293.979492"></polygon>
                    <text id="媒体处理" font-family="PingFangSC-Medium, PingFang SC" font-size="13" font-weight="400" fill="#FFFFFF">
                        <tspan x="168" y="409">媒体处理</tspan>
                    </text>
                    <text id="直播" font-family="PingFangSC-Medium, PingFang SC" font-size="15" font-weight="400" fill="#FFFFFF">
                        <tspan x="24" y="331">直播</tspan>
                    </text>
                    <text id="点播" font-family="PingFangSC-Medium, PingFang SC" font-size="15" font-weight="400" fill="#FFFFFF">
                        <tspan x="336" y="332">点播</tspan>
                    </text>
                    <g id="多媒体处理16px" transform="translate(176.000000, 353.000000)" fill="#6E8CB5" fill-rule="nonzero">
                        <path d="M23.4719009,28.1354355 C22.6385206,28.6053136 21.7498448,28.9764779 20.8058737,29.2410311 L20.5214975,34.3899481 C20.5096485,34.5873759 20.3319133,34.7532153 20.0988828,34.7927008 C18.3886757,35.0690997 16.6231733,35.0690997 14.9129662,34.7927008 C14.675986,34.7532153 14.4982509,34.5873759 14.4903515,34.3899481 L14.2059753,29.2410311 C13.2659538,28.9764779 12.3772781,28.6053136 11.5399481,28.1354355 L7.69296959,31.5785763 C7.5468318,31.7088786 7.30195227,31.7009815 7.10841844,31.562782 C5.70628562,30.5480032 4.45818992,29.3002595 3.44312475,27.8985221 C3.30488631,27.7050429 3.29698697,27.4602324 3.42732607,27.3141358 L6.86748857,23.4642938 C6.39747785,22.6311485 6.02225921,21.7348263 5.74578232,20.8029671 L0.60726175,20.518671 C0.409778254,20.5068254 0.243892118,20.3291403 0.204395418,20.092227 C-0.0681318061,18.3825023 -0.0681318061,16.6214463 0.204395418,14.907773 C0.243892118,14.6708597 0.409778254,14.4931746 0.60726175,14.4852775 L5.74578232,14.2009815 C6.02225921,13.2691223 6.39747785,12.3767486 6.86748857,11.5436033 L3.4233764,7.68981273 C3.2930373,7.54371616 3.30093664,7.29890569 3.43917508,7.10542644 C4.45424025,5.70368908 5.70233595,4.4559454 7.10446877,3.44116652 C7.2980026,3.30296706 7.54288213,3.29506995 7.68901992,3.42537229 L11.5399481,6.87246164 C12.3733284,6.40258348 13.2620042,6.03141922 14.1980759,5.76686597 L14.4824522,0.610051895 C14.4982509,0.416572653 14.675986,0.246784747 14.9129662,0.207299188 C16.6231733,-0.0690997292 18.3886757,-0.0690997292 20.0988828,0.207299188 C20.335863,0.246784747 20.5135981,0.412624097 20.5214975,0.610051895 L20.8058737,5.76686597 C21.7458952,6.03141922 22.6306212,6.40258348 23.4640016,6.87246164 L27.3149298,3.42537229 C27.4610675,3.29506995 27.7059471,3.2990185 27.8994809,3.44116652 C29.3016137,4.4559454 30.5497094,5.70368908 31.5647746,7.10542644 C31.703013,7.29890569 31.7109124,7.54371616 31.5805733,7.68981273 L28.1325114,11.5436033 C28.6025221,12.3767486 28.9777408,13.2691223 29.2542177,14.2009815 L34.3927382,14.4852775 C34.5902217,14.4971232 34.7561079,14.6748082 34.7956046,14.907773 C35.0681318,16.6174977 35.0681318,18.3785537 34.7956046,20.092227 C34.7561079,20.3291403 34.5902217,20.5068254 34.3927382,20.5147225 L29.2542177,20.7990185 C28.9777408,21.7308777 28.6025221,22.6271999 28.1325114,23.4603452 L31.5766236,27.3101873 C31.7069627,27.4562838 31.6990634,27.7010943 31.5608249,27.8945736 C30.5457597,29.2963109 29.2976641,30.5440546 27.8955312,31.5588335 C27.7019974,31.6970329 27.4571179,31.7049301 27.3109801,31.5746277 L23.4719009,28.1354355 Z M24,17.4979707 C24,13.9182017 21.0849469,11 17.5,11 C13.9191131,11 11,13.914143 11,17.4979707 C11,21.0817983 13.9150531,24 17.5,24 C21.0849469,24 24,21.0777396 24,17.4979707 Z" id="Shape"></path>
                    </g>
                    <g id="Group-21" transform="translate(9.000000, 0.000000)" fill="#6E8CB5">
                        <path d="M97.3063648,186.013034 L0.627426603,186.013034 C-0.0747281858,145.711013 13.2816916,107.110982 40.6966861,70.2129409 C68.1116805,33.3149003 106.212608,11.1499869 154.999468,3.71820076 L170.312377,99.999741 C146.10285,101.926318 127.580106,112.822746 114.744145,132.689024 C101.908183,152.555302 96.0955899,170.329972 97.3063648,186.013034 Z" id="Path-3" opacity="0.6"></path>
                        <path d="M157.062999,3.73885417 L172.052931,99.5524055 C183.838549,97.4273539 195.318277,97.8900057 206.492116,100.940361 C217.665954,103.990716 228.861884,109.289547 240.079905,116.836853 L300.925387,42.6001951 C281.37678,25.0283167 257.365921,12.8973119 228.89281,6.20718075 C200.419698,-0.482950397 176.476428,-1.30572592 157.062999,3.73885417 Z" id="Path-4" opacity="0.5"></path>
                        <path d="M301.843004,43.4741784 L241.318184,118.196405 C246.923186,123.497573 250.921697,127.633846 253.313718,130.605224 C255.70574,133.576601 258.65991,138.236547 262.176228,144.585061 L348.03757,99.2945669 C340.24844,86.5160612 333.237904,76.1531449 327.005962,68.2058182 C320.774021,60.2584915 312.386368,52.0146116 301.843004,43.4741784 Z" id="Path-5" opacity="0.4"></path>
                        <path d="M263.094609,145.926906 L348.941962,100.52134 C352.50772,105.627634 355.717487,111.739704 358.571263,118.857548 C361.425039,125.975393 363.599731,134.998512 365.095338,145.926906 L270.949086,167.280517 C269.473003,162.255069 268.297389,158.552736 267.422243,156.173516 C266.547096,153.794296 265.104552,150.378759 263.094609,145.926906 Z" id="Path-6" opacity="0.3"></path>
                        <path d="M271.464871,168.563279 C272.065264,171.813575 272.465841,174.305736 272.666602,176.03976 C272.867362,177.773784 273.023791,180.092642 273.135889,182.996332 L369.560022,182.996332 C369.090276,175.012948 368.628889,169.024828 368.175861,165.031974 C367.722833,161.03912 366.875087,155.278446 365.632623,147.749952 L271.464871,168.563279 Z" id="Path-7" opacity="0.2"></path>
                    </g>
                    <g id="Group-22" transform="translate(140.000000, 153.000000)">
                        <g id="Rectangle-20">
                            <mask id="mask-2" fill="white">
                                <use xlink:href="#path-1"></use>
                            </mask>
                            <use id="Mask" fill="#FFCA75" xlink:href="#path-1"></use>
                            <rect fill="#FBD9A1" mask="url(#mask-2)" x="0" y="-7" width="108" height="25"></rect>
                        </g>
                        <text id="API/SDK" font-family="PingFangSC-Medium, PingFang SC" font-size="20" font-weight="400" fill="#FFFFFF">
                            <tspan x="12" y="70">API/SDK</tspan>
                        </text>
                    </g>
                </g>
                <g id="Group-24" transform="translate(0.000000, 171.000000)" fill="#FFCA75">
                    <circle id="Oval-5" opacity="0.6" cx="54.5" cy="54.5" r="10.5"></circle>
                    <circle id="Oval-5-Copy-4" opacity="0.2" cx="49.5" cy="8.5" r="8.5"></circle>
                    <circle id="Oval-5-Copy-5" opacity="0.1" cx="19.5" cy="28.5" r="5.5"></circle>
                    <circle id="Oval-5-Copy-6" opacity="0.4" cx="5.5" cy="62.5" r="5.5"></circle>
                </g>
                <g id="Group-25" transform="translate(460.000000, 142.000000)" fill="#FFCB76">
                    <circle id="Oval-8" opacity="0.3" cx="7" cy="7" r="7"></circle>
                    <circle id="Oval-8-Copy" opacity="0.8" cx="21" cy="75" r="7"></circle>
                    <circle id="Oval-8-Copy-2" opacity="0.6" cx="55" cy="55" r="5"></circle>
                </g>
            </g>
        </g>
    </g>
</svg>