<?xml version="1.0" encoding="UTF-8" standalone="no"?>
<svg width="550px" height="371px" viewBox="0 0 550 371" version="1.1" xmlns="http://www.w3.org/2000/svg" xmlns:xlink="http://www.w3.org/1999/xlink">
    <!-- Generator: Sketch 50.2 (55047) - http://www.bohemiancoding.com/sketch -->
    <title>05</title>
    <desc>Created with Sketch.</desc>
    <defs>
        <path d="M485,3041 C527.5,3041 559.5,3059.5 581.5,3097.5 C600.5,3129.5 610,3172.5 610,3226.5 C610,3280.5 600.5,3323.5 581.5,3355.5 C559.5,3393 527.5,3412 485,3412 C442,3412 410,3393 388.5,3355.5 C369.5,3323.5 360,3280.5 360,3226.5 C360,3172.5 369.5,3129.5 388.5,3097.5 C410,3059.5 442,3041 485,3041 Z M485,3076 C453,3076 430,3093 416,3127.5 C406,3151.5 401,3184.5 401,3226.5 C401,3268 406,3301 416,3325.5 C430,3359.5 453,3377 485,3377 C517,3377 540,3359.5 554,3325.5 C564,3301 569.5,3268 569.5,3226.5 C569.5,3184.5 564,3151.5 554,3127.5 C540,3093 517,3076 485,3076 Z M687.5,3048 L895,3048 L895,3084.5 L721,3084.5 L709,3204 L711,3204 C721,3192 734,3183 749.5,3177 C763.5,3171 778.5,3168.5 795,3168.5 C829,3168.5 856.5,3179 877.5,3200.5 C898.5,3222.5 909.5,3252.5 909.5,3291 C909.5,3327 896.5,3356.5 871,3379.5 C847,3401 817,3412 782,3412 C750.5,3412 723.5,3403.5 701.5,3386.5 C676.5,3367.5 663,3341.5 660.5,3309 L701,3309 C703,3331.5 712,3349 728,3361 C742,3371.5 760.5,3377 782.5,3377 C807.5,3377 828,3369 844.5,3353 C860.5,3337 869,3316.5 869,3291.5 C869,3263 861,3241 846,3225.5 C831.5,3209.5 811,3202 785,3202 C768,3202 753,3205.5 739.5,3213 C725.5,3220 714.5,3231 707.5,3245 L668.5,3245 L687.5,3048 Z" id="path-1"></path>
    </defs>
    <g id="官网" stroke="none" stroke-width="1" fill="none" fill-rule="evenodd" opacity="0.1">
        <g id="视频云" transform="translate(-360.000000, -3041.000000)">
            <g id="05">
                <use fill="#000000" xlink:href="#path-1"></use>
                <use fill="#718CB5" xlink:href="#path-1"></use>
            </g>
        </g>
    </g>
</svg>