<?xml version="1.0" encoding="UTF-8" standalone="no"?>
<svg width="544px" height="371px" viewBox="0 0 544 371" version="1.1" xmlns="http://www.w3.org/2000/svg" xmlns:xlink="http://www.w3.org/1999/xlink">
    <!-- Generator: Sketch 50.2 (55047) - http://www.bohemiancoding.com/sketch -->
    <title>02</title>
    <desc>Created with Sketch.</desc>
    <defs>
        <path d="M1141,1423 C1183.5,1423 1215.5,1441.5 1237.5,1479.5 C1256.5,1511.5 1266,1554.5 1266,1608.5 C1266,1662.5 1256.5,1705.5 1237.5,1737.5 C1215.5,1775 1183.5,1794 1141,1794 C1098,1794 1066,1775 1044.5,1737.5 C1025.5,1705.5 1016,1662.5 1016,1608.5 C1016,1554.5 1025.5,1511.5 1044.5,1479.5 C1066,1441.5 1098,1423 1141,1423 Z M1141,1458 C1109,1458 1086,1475 1072,1509.5 C1062,1533.5 1057,1566.5 1057,1608.5 C1057,1650 1062,1683 1072,1707.5 C1086,1741.5 1109,1759 1141,1759 C1173,1759 1196,1741.5 1210,1707.5 C1220,1683 1225.5,1650 1225.5,1608.5 C1225.5,1566.5 1220,1533.5 1210,1509.5 C1196,1475 1173,1458 1141,1458 Z M1446,1423 C1479,1423 1506,1432.5 1527.5,1451.5 C1548.5,1470.5 1559.5,1496 1559.5,1527 C1559.5,1558 1547.5,1586 1524.5,1611 C1512,1624 1487.5,1643.5 1450.5,1668.5 C1405,1699 1379,1726.5 1372.5,1750.5 L1560,1750.5 L1560,1787 L1322,1787 C1322,1754.5 1333.5,1725 1357.5,1698.5 C1371.5,1682.5 1397,1661 1435,1635 C1463,1615 1481.5,1600.5 1491,1590.5 C1509,1571 1518.5,1549.5 1518.5,1526.5 C1518.5,1504.5 1512,1488 1499,1476 C1486,1464 1467.5,1458 1444.5,1458 C1420,1458 1401,1466 1388,1483 C1374,1499 1366.5,1523 1366,1554.5 L1325,1554.5 C1325,1514.5 1336.5,1482.5 1358.5,1459 C1380.5,1435 1410,1423 1446,1423 Z" id="path-1"></path>
    </defs>
    <g id="官网" stroke="none" stroke-width="1" fill="none" fill-rule="evenodd" opacity="0.1">
        <g id="视频云" transform="translate(-1016.000000, -1423.000000)" fill="#718CB5">
            <g id="02">
                <use xlink:href="#path-1"></use>
                <use xlink:href="#path-1"></use>
            </g>
        </g>
    </g>
</svg>