<?xml version="1.0" encoding="UTF-8" standalone="no"?>
<svg width="1920px" height="511px" viewBox="0 0 1920 511" version="1.1" xmlns="http://www.w3.org/2000/svg" xmlns:xlink="http://www.w3.org/1999/xlink">
    <!-- Generator: Sketch 50.2 (55047) - http://www.bohemiancoding.com/sketch -->
    <title>Group-9</title>
    <desc>Created with Sketch.</desc>
    <defs></defs>
    <g id="官网" stroke="none" stroke-width="1" fill="none" fill-rule="evenodd">
        <g id="视频云" transform="translate(0.000000, -1338.000000)" fill-rule="nonzero">
            <g id="Group-9" transform="translate(-52.000000, 1338.000000)">
                <rect id="Rectangle-2-Copy" fill="#FFFFFF" x="53" y="0" width="1920" height="510"></rect>
                <path d="M688,27 C657.59069,128.866381 595.826779,170.508764 502.708267,151.927152 C363.030499,124.054732 418.79819,196.83984 359.807099,221.155196 C283.63298,252.553172 271.824142,237.952623 173.739649,262.805264 C142.963346,270.603362 108.683703,331.346623 114.673682,368.889505 C129.314285,460.651175 92.0006358,452.665998 65.4113445,462.532326 C47.6851503,469.109878 25.8813688,485.074853 0,510.427251 L741,510.427251 L741,87.020934 L688,27 Z" id="Path-2" fill="#718CB5" opacity="0.05" transform="translate(370.500000, 268.713626) scale(-1, 1) translate(-370.500000, -268.713626) "></path>
            </g>
        </g>
    </g>
</svg>