<?xml version="1.0" encoding="UTF-8" standalone="no"?>
<svg width="424px" height="414px" viewBox="0 0 424 414" version="1.1" xmlns="http://www.w3.org/2000/svg" xmlns:xlink="http://www.w3.org/1999/xlink">
    <!-- Generator: Sketch 50.2 (55047) - http://www.bohemiancoding.com/sketch -->
    <title>Group 38</title>
    <desc>Created with Sketch.</desc>
    <defs>
        <linearGradient x1="7.53010564%" y1="33.6392964%" x2="84.3496625%" y2="65.4561972%" id="linearGradient-1">
            <stop stop-color="#C5D1E1" offset="0%"></stop>
            <stop stop-color="#6E8CB5" offset="100%"></stop>
        </linearGradient>
        <linearGradient x1="50%" y1="0%" x2="50%" y2="100%" id="linearGradient-2">
            <stop stop-color="#C5D1E1" offset="0%"></stop>
            <stop stop-color="#B6C5DA" offset="100%"></stop>
        </linearGradient>
        <linearGradient x1="50%" y1="0%" x2="50%" y2="100%" id="linearGradient-3">
            <stop stop-color="#FBFDFE" offset="0%"></stop>
            <stop stop-color="#D9E6F8" offset="100%"></stop>
        </linearGradient>
        <linearGradient x1="50%" y1="3.07758309%" x2="50%" y2="100%" id="linearGradient-4">
            <stop stop-color="#B2E3FF" offset="0%"></stop>
            <stop stop-color="#C8D6E8" offset="100%"></stop>
        </linearGradient>
        <linearGradient x1="50%" y1="3.07758309%" x2="50%" y2="100%" id="linearGradient-5">
            <stop stop-color="#F7FBFE" offset="0%"></stop>
            <stop stop-color="#DDE8F8" offset="100%"></stop>
        </linearGradient>
    </defs>
    <g id="官网" stroke="none" stroke-width="1" fill="none" fill-rule="evenodd">
        <g id="视频云" transform="translate(-355.000000, -2456.000000)">
            <g id="Group-38" transform="translate(355.000000, 2456.000000)">
                <path d="M0,186 L0,206.070307 L19.5333646,227.900363 C17.9116899,268.547299 34.6632178,303.085044 69.7879485,331.513596 C104.912679,359.942149 162.156947,373.372947 241.520753,371.80599 C315.73154,362.914974 366.972495,343.907384 395.24362,314.783219 C423.514745,285.659055 430.263094,245.994543 415.488667,195.789682 L0,186 Z" id="Path-9" fill="url(#linearGradient-1)"></path>
                <path d="M1,186.419456 L44.8522845,168.770138 C92.4345629,124.891127 155.670201,104.389523 234.559198,107.265328 C320.167988,110.386096 380.260849,139.888668 414.837782,195.773046 C427.68309,227.267346 424.366485,254.519303 404.887968,277.528917 C367.466272,325.519044 283.07997,345.215191 208.209977,345.215191 C114.239618,345.215191 43.752109,303.593111 24.8710135,247.573894 C22.4388508,240.692651 21.5874999,227.848785 22.3169608,209.042294 L1,186.419456 Z" id="Path-8" fill="url(#linearGradient-2)"></path>
                <g id="Group-32" transform="translate(18.000000, 221.000000)">
                    <g id="Group-30" transform="translate(42.000000, 13.000000)">
                        <path d="M15.6867694,123.236949 C14.7710769,104.578909 14.7710769,93.8277243 15.6867694,90.9833954 C16.602462,88.1390665 22.4920294,81.4779347 33.3554716,71 L51.707869,71 L63.0757639,82.2948506 C51.3879927,92.3146496 44.9622797,98.6753531 43.7986248,101.376961 C42.63497,104.078569 41.1625173,112.523959 39.3812667,126.713131 L33.3554716,126.713131 C33.3228456,109.181657 33.3228456,99.5322526 33.3554716,97.7649172 C33.3880975,95.9975819 36.0895217,92.5435572 41.4597442,87.4028432 L34.830329,84.6227176 C30.21241,88.6337902 27.3209054,91.8432645 26.1558153,94.2511403 C24.9907251,96.6590161 23.547711,106.320952 21.8267729,123.236949 L15.6867694,123.236949 Z" id="Path-16" fill="#69727B"></path>
                        <path d="M28.3150981,44 L23.3841441,49.8220732 L14.0210075,45.2238699 L11,49.8220732 C15.9640635,54.1447579 19.9920735,56.0587248 23.08403,55.563974 C26.1759864,55.0692231 29.2752743,53.1545968 32.3818936,49.8200952 L33.4390333,44 L28.3150981,44 Z" id="Path-13" fill="#FDDDA3"></path>
                        <path d="M40.4136229,26.0225194 C33.6216267,25.8139641 29.3522201,27.0540048 27.6054031,29.7426417 C25.8585862,32.4312786 25.5372848,37.6330405 26.6414989,45.3479273 L31.5601502,45.3479273 L31.5601502,71.9481968 L49.8668583,71.9481968 L61.2414263,83.572832 C63.1267566,83.6168527 64.4687503,83.4508055 65.2674076,83.0746902 C66.0660649,82.698575 66.8345161,81.7884701 67.5727612,80.3443755 C67.8195536,52.1897425 67.8195536,37.3626165 67.5727612,35.8629976 C67.2025724,33.6135691 64.2040757,31.1130892 61.9836574,29.3421358 C59.7632392,27.5711824 57.8650805,26.5098471 55.7588785,26.0225194 C54.3547439,25.6976342 49.2396587,25.6976342 40.4136229,26.0225194 Z" id="Path-12" fill="#FFCA75"></path>
                        <path d="M32,13.3681905 C32.8039092,18.0200528 33.8249754,20.8800617 35.0631985,21.9482169 C36.3014216,23.0163721 38.9632202,23.1300698 43.0485943,22.28931 L44.2197361,30.8740006 C44.273788,32.0467399 44.9217891,32.6610379 46.1637396,32.7168946 C47.8328608,32.9395653 48.8446876,32.5931123 49.1992202,31.6775356 C50.1804291,29.4840629 51.0477947,27.5398215 51.8013171,25.8448113 C52.5548395,24.1498011 53.1970266,22.2188214 53.7278785,20.0518721 L50.7519581,12.3905103 L49.8850779,10.04052 L45.2669442,14.1686388 L32,13.3681905 Z" id="Path-11" fill="#FDDDA4"></path>
                        <path d="M27,9.06616676 L32.1002093,9.06616676 C34.49177,2.3087708 38.9978002,-0.671196279 45.6183,0.126265508 C52.2387997,0.923727296 55.2768714,7.89398622 54.732515,21.0370423 L49.3817082,15.8559616 L49.3817082,11.87753 L46.5723604,16.7140919 L32.1002093,16.7140919 L27,9.06616676 Z" id="Path-10" fill="#4B3E37"></path>
                        <path d="M55.5939618,50 L55.5939618,67.1198517 L42.9472913,79.6527799 L37,79.6527799 L37,82.9172022 C36.8714567,83.4206603 37.4597983,84.2101373 38.7650247,85.2856331 C40.0702512,86.361129 41.0980296,86.8511829 41.84836,86.7557949 C55.2175818,76.3466875 62.1132225,70.4349338 62.5352819,69.0205337 C62.9573413,67.6061336 63.307075,61.2659557 63.584483,50 L55.5939618,50 Z" id="Path-15" fill="#FCDCA4"></path>
                        <path d="M15.1106114,122 C14.2859716,123.874059 13.4138028,125.036644 12.4941049,125.487756 C11.5744071,125.938868 10.0763721,125.938868 8,125.487756 C9.22158779,128.818357 11.5917916,130.127989 15.1106114,129.416652 C18.6294313,128.705315 21.0466899,126.233098 22.3623874,122 L15.1106114,122 Z" id="Path-18" fill="#373946"></path>
                        <path d="M33.546383,124 C32.655274,125.75818 31.7586943,126.94652 30.8566438,127.56502 C29.9545934,128.183521 28.0023788,128.948488 25,129.859921 C27.6740384,132.916784 30.8113165,133.768173 34.4118343,132.414087 C38.0123521,131.060002 40.2817214,128.255306 41.2199421,124 L33.546383,124 Z" id="Path-19" fill="#373946"></path>
                        <polygon id="Path-20" fill="#4D526D" points="6.32150029 35 0 40.6398855 12.3344133 52.2985836 16.6981999 45.6544281"></polygon>
                        <polygon id="Path-20" fill="#FFFFFF" points="6.43684551 37 2 40.9584434 12.124828 50.341505 15.1876209 45.6781988"></polygon>
                    </g>
                    <g id="Group-31" fill="#FFFFFF">
                        <ellipse id="Oval-9" cx="32" cy="21" rx="32" ry="21"></ellipse>
                        <polygon id="Path-21" points="33 41.4376988 43.0305966 49.7472309 39.9956074 39"></polygon>
                    </g>
                    <text id="开会了！" font-family="PingFangSC-Semibold, PingFang SC" font-size="12" font-weight="500" fill="#98B1D5">
                        <tspan x="12" y="26">开会了！</tspan>
                    </text>
                </g>
                <g id="Group-35" transform="translate(261.000000, 259.000000)">
                    <g id="Group-33" transform="translate(0.000000, 10.000000)">
                        <path d="M15.5250012,29.7561976 C18.075306,28.2611056 20.5020199,27.3902829 22.8051428,27.1437293 C25.1082658,26.8971758 30.1561799,26.967826 37.9488852,27.3556798 L41.4512279,68.6280736 L10.502406,70.1849475 L10,39.8170977 L15.5250012,29.7561976 Z" id="Path-24" fill="#FFCA75"></path>
                        <path d="M19,15.3539666 C19.6879742,17.8808269 20.0948043,19.7192233 20.2204903,20.869156 C20.3461764,22.0190887 20.2672802,24.6709167 19.9838017,28.82464 L23.63704,32.9121507 L32.1269602,32.9121507 L32.1269602,25.6667327 C37.0029758,21.9094428 39.7410179,19.1256637 40.3410866,17.3153955 C40.793425,16.2062746 40.2491554,13.7678094 38.7082778,10 L22.7067506,10 L19,15.3539666 Z" id="Path-23" fill="#FDDDA4"></path>
                        <path d="M11,69.7353353 L12.5399376,135.081256 L17.8152054,136.815322 L20.5809856,133.067995 L25.5279806,79.3599452 C25.8712583,79.46789 26.4127723,79.46789 27.1525224,79.3599452 C27.4173054,79.3213078 29.8715313,80.6387725 30.4437275,84.7871286 C31.1279966,89.7480005 32.3206729,104.416994 34.0217564,128.794109 L40.4581111,126.795595 L42.3905376,68 L11,69.7353353 Z" id="Path-29" fill="#676E78"></path>
                        <path d="M18.839049,17.5051497 L16.1252601,15.6831291 C15.0273588,5.52334008 21.146765,0.296144578 34.4834785,0.00154254634 C38.3165154,-0.0831275214 40.0741748,3.31784503 39.7564568,10.2044602 L26.117179,14.5047209 L26.117179,11.2733878 C23.3950095,11.4927103 21.6510628,11.9301899 20.8853388,12.5858266 C20.1196149,13.2414634 19.4375183,14.8812377 18.839049,17.5051497 Z" id="Path-22" fill="#3D342B"></path>
                        <path d="M12.9242115,26 C20.5288752,29.2915243 24.8237556,38.1010614 25.8088526,52.4286112 C26.0021311,58.5124313 25.1481874,64.412993 23.2470215,70.1302964 L13.2212468,75.1395347 L10.6313532,72.9558078 C17.8576337,69.4635575 21.5894577,66.6728821 21.8268251,64.5837817 C21.972101,63.3051909 23.1088678,58.2529191 22.4567617,51.5107609 C22.181178,48.6614873 21.1441987,43.6371364 19.3458236,36.4377082 C14.6986776,31.8186187 11.2927003,29.8606717 9.12789179,30.563867 C6.96308327,31.2670624 6.45004904,30.9254849 7.58878909,29.5391346 L12.9242115,26 Z" id="Path-27" fill="#373A47"></path>
                        <polygon id="Path-28" fill="#373A47" points="11.4838362 61.1007703 11.4838362 73.7000078 3.93313894 73.7000078 0 68.8178783 0 39.5588327 7.95759437 29.4221344 11.4838362 29.9917177"></polygon>
                        <path d="M12.2851791,30.9978375 C6.92643295,38.3419275 6.50762448,47.1267643 11.0287537,57.352348 C13.0849578,62.1521735 20.5283663,66.5689805 33.3589791,70.6027692 L36.803877,65.8455293 C25.2457924,61.1953834 19.1333729,56.643008 18.4666185,52.188403 C17.799864,47.7337981 17.9128292,42.1580593 18.805514,35.4611867 C17.4905943,34.0085303 16.2912525,32.9951457 15.2074887,32.4210329 C14.1237249,31.8469201 13.1496217,31.3725217 12.2851791,30.9978375 Z" id="Path-25" fill="#FDDDA4"></path>
                        <path d="M37.852937,27.5781246 L40.7520336,62.8480727 L45.7984565,62.2699482 L44.3863281,38.5631243 C43.6172333,35.8225604 42.9003337,33.8505195 42.2356293,32.6470017 C41.5709249,31.4434839 40.1100275,29.7538582 37.852937,27.5781246 Z" id="Path-26" fill="#FDDDA4"></path>
                        <path d="M13,134.005772 L13,139.24458 C21.0957244,143.645402 25.7912681,145.456675 27.086631,144.678398 C28.381994,143.900121 29.108209,143.046252 29.2652762,142.116791 L19.8265638,131 C20.0563636,132.520293 19.6609422,133.522217 18.6402998,134.005772 C17.6196573,134.489327 15.7395574,134.489327 13,134.005772 Z" id="Path-30" fill="#373A47"></path>
                        <path d="M34,126.917702 L34,131.576392 C36.1765668,132.517398 37.8146893,133.262798 38.9143677,133.812591 C40.0140461,134.362385 41.4585237,135.158158 43.2478005,136.199909 L48.0731721,136.199909 C46.7555614,132.913628 45.574259,130.53879 44.5292651,129.075395 C43.4842711,127.612 41.7616341,125.920201 39.361354,124 L34,126.917702 Z" id="Path-31" fill="#373A47"></path>
                        <path d="M33,68.3129957 L60.591725,51.4474336 L62.5559739,54.2635498 L37.9969073,70.1548142 C36.1298879,70.9156318 34.9274713,71.1969237 34.3896575,70.99869 C33.8518437,70.8004564 33.3886246,69.9052249 33,68.3129957 Z" id="Path-32" fill="#E6F4FF"></path>
                        <polygon id="Path-33" fill="#373A47" points="59 46.6228119 59 52.4960987 62.9467364 56.651174 72.2642491 51.636993 72.2642491 41"></polygon>
                    </g>
                    <g id="Group-31" transform="translate(89.000000, 25.000000) scale(-1, 1) translate(-89.000000, -25.000000) translate(57.000000, 0.000000)" fill="#FFFFFF">
                        <ellipse id="Oval-9" cx="32" cy="21" rx="32" ry="21"></ellipse>
                        <polygon id="Path-21" points="33 41.4376988 43.0305966 49.7472309 39.9956074 39"></polygon>
                    </g>
                    <text id="正在接入" font-family="PingFangSC-Semibold, PingFang SC" font-size="12" font-weight="500" fill="#98B1D5">
                        <tspan x="67" y="26">正在接入</tspan>
                    </text>
                </g>
                <g id="Group-37" transform="translate(149.000000, 174.000000)">
                    <rect id="Rectangle-19-Copy" fill="#D4E1F4" opacity="0.54084329" x="0" y="11" width="109" height="82" rx="8"></rect>
                    <rect id="Rectangle-19" fill="url(#linearGradient-3)" x="0" y="0" width="109" height="82" rx="8"></rect>
                    <path d="M124,66.7187186 L124,34.6914878 L149.205369,13.3253469 C150.70771,12.843283 151.900544,12.8969218 152.783872,13.4862631 C153.667199,14.0756045 154.050202,14.8167321 153.932882,15.7096459 L153.932882,84.2899444 C153.765907,85.4686149 153.382801,86.1894797 152.783565,86.4525388 C152.184329,86.715598 151.303614,86.7811006 150.141422,86.6490465 L124,66.7187186 Z" id="Path-34-Copy" fill="url(#linearGradient-4)" opacity="0.54084329"></path>
                    <path d="M124,58.7187186 L124,26.6914878 L149.205369,5.32534692 C150.70771,4.84328302 151.900544,4.89692176 152.783872,5.48626314 C153.667199,6.07560451 154.050202,6.81673211 153.932882,7.70964593 L153.932882,76.2899444 C153.765907,77.4686149 153.382801,78.1894797 152.783565,78.4525388 C152.184329,78.715598 151.303614,78.7811006 150.141422,78.6490465 L124,58.7187186 Z" id="Path-34" fill="url(#linearGradient-5)"></path>
                </g>
                <g id="Group-36" transform="translate(38.000000, 0.000000)">
                    <path d="M7.0474355,37.7044884 L61.6650606,11.6785113 C65.5572517,9.82383387 68.7124961,11.9020427 68.7124961,16.3203207 L68.7124961,64.3203207 C68.7124961,68.7385987 65.5572517,73.8238339 61.6650606,75.6785113 L7.0474355,101.704488 C3.15524435,103.559166 0,101.480957 0,97.062679 L0,49.062679 C0,44.644401 3.15524435,39.5591659 7.0474355,37.7044884 Z" id="Rectangle-21-Copy" fill="#A4B8D6"></path>
                    <path d="M292.047435,40.7044884 L346.665061,14.6785113 C350.557252,12.8238339 353.712496,14.9020427 353.712496,19.3203207 L353.712496,67.3203207 C353.712496,71.7385987 350.557252,76.8238339 346.665061,78.6785113 L292.047435,104.704488 C288.155244,106.559166 285,104.480957 285,100.062679 L285,52.062679 C285,47.644401 288.155244,42.5591659 292.047435,40.7044884 Z" id="Rectangle-21-Copy-2" fill="#A4B8D6" transform="translate(319.356248, 59.691500) scale(-1, 1) translate(-319.356248, -59.691500) "></path>
                    <path d="M14.0474355,40.7044884 L68.6650606,14.6785113 C72.5572517,12.8238339 75.7124961,14.9020427 75.7124961,19.3203207 L75.7124961,67.3203207 C75.7124961,71.7385987 72.5572517,76.8238339 68.6650606,78.6785113 L14.0474355,104.704488 C10.1552443,106.559166 7,104.480957 7,100.062679 L7,52.062679 C7,47.644401 10.1552443,42.5591659 14.0474355,40.7044884 Z" id="Rectangle-21" fill="#6D8CB6"></path>
                    <path d="M55.1794588,63.370798 C54.5239511,63.0317361 54.5239511,62.1788053 55.1794588,61.2199288 C59.3747083,55.1387454 59.3747083,48.6861378 55.1794588,46.5717679 C54.5239511,46.2327061 54.5239511,45.3797752 55.1794588,44.4208988 C55.8349665,43.4620223 56.7339486,43.0370066 57.3894563,43.3760684 C60.0302161,44.7234613 61.5847059,47.2148421 61.5847059,50.6636496 C61.5847059,54.1124571 60.0302161,58.2961876 57.3894563,61.8995022 C57.1647108,62.2282599 56.7339486,62.635875 56.2844576,62.8483828 C55.8349665,63.5058981 55.4042043,63.4870478 55.1794588,63.370798 Z M50.7594638,63.1056277 C50.3099727,63.3181356 49.8792105,63.2992853 49.654465,63.2015775 C48.9989573,62.8625156 48.9989573,62.0095847 49.654465,61.0507083 C52.3139535,57.2160354 52.3139535,53.3407625 49.654465,52.0022241 C48.9989573,51.6631623 48.9989573,50.8102314 49.654465,49.8513549 C50.3099727,48.8924785 51.2089548,48.4674627 51.8644625,48.8065246 C55.8349665,50.582141 55.8349665,56.4043214 51.8644625,61.9342434 C51.4149715,62.5732167 51.190226,62.9019744 50.7594638,63.1056277 Z M42.5749814,44.7802968 C44.5602334,42.3398204 46.1147232,42.4578282 46.1147232,44.8312011 L46.1147232,71.7541499 C46.1147232,74.1275228 44.5602334,75.511415 42.7997269,74.8232955 L34.8399901,72.133848 L30.419995,74.2235087 C27.985252,75.374593 26,74.3662619 26,72.011431 L26,63.1669085 C26,60.7935356 27.985252,57.9265938 30.419995,56.7755095 L34.6152446,54.7921027 L42.5749814,44.7802968 Z" id="Shape" fill="#FFFFFF" fill-rule="nonzero"></path>
                    <path d="M285.047435,43.7044884 L339.665061,17.6785113 C343.557252,15.8238339 346.712496,17.9020427 346.712496,22.3203207 L346.712496,70.3203207 C346.712496,74.7385987 343.557252,79.8238339 339.665061,81.6785113 L285.047435,107.704488 C281.155244,109.559166 278,107.480957 278,103.062679 L278,55.062679 C278,50.644401 281.155244,45.5591659 285.047435,43.7044884 Z" id="Rectangle-21-Copy-3" fill="#708EB6" transform="translate(312.356248, 62.691500) scale(-1, 1) translate(-312.356248, -62.691500) "></path>
                    <path d="M323,66.4808175 C323,69.5797833 321.975691,71.819922 319.927074,73.2012337 C317.878457,74.5825454 315.347205,74.7711038 312.333317,73.766909 L312.333317,76.5433675 L317.666659,78.915945 C318.027766,79.0765865 318.340262,79.3488143 318.604148,79.7326285 C318.868033,80.1164427 318.999976,80.4906397 318.999976,80.8552196 C318.999976,81.2197995 318.868033,81.4766051 318.604148,81.6256366 C318.340262,81.774668 318.027766,81.768863 317.666659,81.6082216 L304.333341,75.6767941 C303.972234,75.5161527 303.659738,75.2439249 303.395852,74.8601107 C303.131967,74.4762965 303.000024,74.1020994 303.000024,73.7375195 C303.000024,73.3729397 303.131967,73.116134 303.395852,72.9671026 C303.659738,72.8180711 303.972234,72.8238761 304.333341,72.9845175 L309.666683,75.357095 L309.666683,72.5806365 C306.652795,70.9033542 304.121543,68.462702 302.072926,65.25868 C300.024309,62.0546579 299,58.9031763 299,55.804235 L299,53.1119216 C299,52.7473417 299.131943,52.4905361 299.395828,52.3415047 C299.659713,52.1924732 299.97221,52.1982782 300.333317,52.3589196 C300.694425,52.519561 301.006921,52.7917888 301.270806,53.175603 C301.534692,53.5594172 301.666634,53.9336143 301.666634,54.2981942 L301.666634,56.9905075 C301.666634,59.5846515 302.57983,62.2099427 304.406222,64.866381 C306.232613,67.5228192 308.430527,69.422555 310.999964,70.5655884 C313.5694,71.7086217 315.767314,71.7644034 317.593705,70.7329334 C319.420097,69.7014635 320.333293,67.8886565 320.333293,65.2945125 L320.333293,62.6021992 C320.333293,62.2376193 320.465235,61.9808136 320.729121,61.8317822 C320.993006,61.6827508 321.305502,61.6885558 321.66661,61.8491972 C322.027717,62.0098386 322.340214,62.2820664 322.604099,62.6658806 C322.867984,63.0496948 322.999927,63.4238918 322.999927,63.7884717 L323,66.4808175 Z M317.666659,53.3389866 L317.666659,64.1082032 C317.666659,65.9591755 317.013885,67.2533213 315.708336,67.9906405 C314.402788,68.7279596 312.833343,68.688831 311,67.8732544 C309.166657,67.0576779 307.597212,65.700447 306.291664,63.8015619 C304.986115,61.9026767 304.333341,60.027748 304.333341,58.1767757 L304.333341,47.4075591 C304.333341,45.5565867 304.986115,44.262441 306.291664,43.5251218 C307.597212,42.7878026 309.166657,42.8269313 311,43.6425078 C312.833343,44.4580844 314.402788,45.8153152 315.708336,47.7142004 C317.013885,49.6130855 317.666659,51.4880142 317.666659,53.3389866 Z" id="Shape" fill="#FFFFFF" fill-rule="nonzero"></path>
                    <rect id="Rectangle-22-Copy" fill="#A4B8D6" x="134" y="0" width="81" height="63" rx="8"></rect>
                    <rect id="Rectangle-22" fill="#708EB6" x="138" y="5" width="81" height="63" rx="8"></rect>
                    <path d="M171.960968,27.3571308 L172.392325,23.8771165 C172.525253,22.8045743 173.429498,21.9997692 174.501375,22 L183.498625,22 C184.570502,21.9997692 185.474747,22.8045743 185.607675,23.8771165 L186.039032,27.3571308 L193.874963,27.3571308 C194.438554,27.3571208 194.979066,27.5828813 195.377589,27.9847466 C195.776112,28.3866118 196,28.9316623 196,29.4999906 L196,49.8571025 C196.00001,50.4254373 195.776126,50.9704975 195.377602,51.3723709 C194.979078,51.7742443 194.438561,52.00001 193.874963,52 L164.125037,52 C163.561439,52.00001 163.020922,51.7742443 162.622398,51.3723709 C162.223874,50.9704975 161.99999,50.4254373 162,49.8571025 L162,29.5000283 C161.99999,28.9316869 162.223879,28.3866211 162.622411,27.9847466 C163.020943,27.5828721 163.56147,27.3571108 164.125075,27.3571308 L171.961005,27.3571308 L171.960968,27.3571308 Z M179.5,47 C183.642136,47 187,43.6421356 187,39.5 C187,35.3578644 183.642136,32 179.5,32 C175.357864,32.0000001 172,35.3578644 172,39.5 C172,43.6421356 175.357864,46.9999999 179.5,47 Z M179.5,45 C176.462434,45 174,42.5375661 174,39.5 C174,36.4624339 176.462434,34 179.5,34 C182.537566,34 185,36.4624339 185,39.5 C185,42.5375661 182.537566,45 179.5,45 Z M165.995529,26 C165.639861,26 165.31121,25.8094011 165.133376,25.5 C164.955541,25.1905989 164.955541,24.8094011 165.133376,24.5 C165.31121,24.1905989 165.639861,24 165.995529,24 L168.004471,24 C168.554287,24 169,24.4477153 169,25 C169,25.5522847 168.554287,26 168.004471,26 L165.995564,26 L165.995529,26 Z" id="Shape" fill="#FFFFFF" fill-rule="nonzero"></path>
                </g>
            </g>
        </g>
    </g>
</svg>