<?xml version="1.0" encoding="UTF-8" standalone="no"?>
<svg width="527px" height="371px" viewBox="0 0 527 371" version="1.1" xmlns="http://www.w3.org/2000/svg" xmlns:xlink="http://www.w3.org/1999/xlink">
    <!-- Generator: Sketch 50.2 (55047) - http://www.bohemiancoding.com/sketch -->
    <title>07</title>
    <desc>Created with Sketch.</desc>
    <defs>
        <path d="M485,4120 C527.5,4120 559.5,4138.5 581.5,4176.5 C600.5,4208.5 610,4251.5 610,4305.5 C610,4359.5 600.5,4402.5 581.5,4434.5 C559.5,4472 527.5,4491 485,4491 C442,4491 410,4472 388.5,4434.5 C369.5,4402.5 360,4359.5 360,4305.5 C360,4251.5 369.5,4208.5 388.5,4176.5 C410,4138.5 442,4120 485,4120 Z M485,4155 C453,4155 430,4172 416,4206.5 C406,4230.5 401,4263.5 401,4305.5 C401,4347 406,4380 416,4404.5 C430,4438.5 453,4456 485,4456 C517,4456 540,4438.5 554,4404.5 C564,4380 569.5,4347 569.5,4305.5 C569.5,4263.5 564,4230.5 554,4206.5 C540,4172 517,4155 485,4155 Z M652,4127 L886.5,4127 L886.5,4160.5 L755,4484 L711.5,4484 L844.5,4164.5 L652,4164.5 L652,4127 Z" id="path-1"></path>
    </defs>
    <g id="官网" stroke="none" stroke-width="1" fill="none" fill-rule="evenodd" opacity="0.1">
        <g id="视频云" transform="translate(-360.000000, -4120.000000)">
            <g id="07">
                <use fill="#000000" xlink:href="#path-1"></use>
                <use fill="#718CB5" xlink:href="#path-1"></use>
            </g>
        </g>
    </g>
</svg>