<?xml version="1.0" encoding="UTF-8" standalone="no"?>
<svg width="550px" height="371px" viewBox="0 0 550 371" version="1.1" xmlns="http://www.w3.org/2000/svg" xmlns:xlink="http://www.w3.org/1999/xlink">
    <!-- Generator: Sketch 50.2 (55047) - http://www.bohemiancoding.com/sketch -->
    <title>06</title>
    <desc>Created with Sketch.</desc>
    <defs>
        <path d="M1143,3573 C1185.5,3573 1217.5,3591.5 1239.5,3629.5 C1258.5,3661.5 1268,3704.5 1268,3758.5 C1268,3812.5 1258.5,3855.5 1239.5,3887.5 C1217.5,3925 1185.5,3944 1143,3944 C1100,3944 1068,3925 1046.5,3887.5 C1027.5,3855.5 1018,3812.5 1018,3758.5 C1018,3704.5 1027.5,3661.5 1046.5,3629.5 C1068,3591.5 1100,3573 1143,3573 Z M1143,3608 C1111,3608 1088,3625 1074,3659.5 C1064,3683.5 1059,3716.5 1059,3758.5 C1059,3800 1064,3833 1074,3857.5 C1088,3891.5 1111,3909 1143,3909 C1175,3909 1198,3891.5 1212,3857.5 C1222,3833 1227.5,3800 1227.5,3758.5 C1227.5,3716.5 1222,3683.5 1212,3659.5 C1198,3625 1175,3608 1143,3608 Z M1448,3573 C1514,3573 1552,3604.5 1562,3668.5 L1521.5,3668.5 C1513.5,3627.5 1489,3607.5 1447.5,3607.5 C1419.5,3607.5 1397.5,3621 1381.5,3649 C1365.5,3675 1358,3708.5 1358,3749 C1358,3751 1358,3755.5 1358.5,3762 L1360.5,3762 C1369.5,3743.5 1382,3729 1399,3719 C1415,3708.5 1433.5,3703.5 1454.5,3703.5 C1488.5,3703.5 1516,3714.5 1537,3736.5 C1557.5,3758.5 1568,3786.5 1568,3821.5 C1568,3856.5 1556.5,3886 1534,3909 C1511,3932 1482.5,3944 1447.5,3944 C1404,3944 1371.5,3927.5 1349.5,3895.5 C1328.5,3865 1318.5,3822.5 1318.5,3768 C1318.5,3711 1329.5,3664.5 1352,3629 C1375.5,3591.5 1407.5,3573 1448,3573 Z M1446.5,3737.5 C1423,3737.5 1403.5,3745.5 1388,3761.5 C1372.5,3777.5 1365,3797.5 1365,3822.5 C1365,3847.5 1372,3868 1387,3884 C1402,3901 1421.5,3909.5 1446.5,3909.5 C1470.5,3909.5 1490,3901 1505,3885 C1520,3868 1527.5,3847 1527.5,3821.5 C1527.5,3796 1520,3776 1505.5,3761 C1490.5,3745 1471,3737.5 1446.5,3737.5 Z" id="path-1"></path>
    </defs>
    <g id="官网" stroke="none" stroke-width="1" fill="none" fill-rule="evenodd" opacity="0.1">
        <g id="视频云" transform="translate(-1018.000000, -3573.000000)">
            <g id="06">
                <use fill="#000000" xlink:href="#path-1"></use>
                <use fill="#718CB5" xlink:href="#path-1"></use>
            </g>
        </g>
    </g>
</svg>