<?xml version="1.0" encoding="UTF-8" standalone="no"?>
<svg width="564px" height="371px" viewBox="0 0 564 371" version="1.1" xmlns="http://www.w3.org/2000/svg" xmlns:xlink="http://www.w3.org/1999/xlink">
    <!-- Generator: Sketch 50.2 (55047) - http://www.bohemiancoding.com/sketch -->
    <title>04</title>
    <desc>Created with Sketch.</desc>
    <defs>
        <path d="M1124,2494 C1166.5,2494 1198.5,2512.5 1220.5,2550.5 C1239.5,2582.5 1249,2625.5 1249,2679.5 C1249,2733.5 1239.5,2776.5 1220.5,2808.5 C1198.5,2846 1166.5,2865 1124,2865 C1081,2865 1049,2846 1027.5,2808.5 C1008.5,2776.5 999,2733.5 999,2679.5 C999,2625.5 1008.5,2582.5 1027.5,2550.5 C1049,2512.5 1081,2494 1124,2494 Z M1124,2529 C1092,2529 1069,2546 1055,2580.5 C1045,2604.5 1040,2637.5 1040,2679.5 C1040,2721 1045,2754 1055,2778.5 C1069,2812.5 1092,2830 1124,2830 C1156,2830 1179,2812.5 1193,2778.5 C1203,2754 1208.5,2721 1208.5,2679.5 C1208.5,2637.5 1203,2604.5 1193,2580.5 C1179,2546 1156,2529 1124,2529 Z M1466,2501 L1504.5,2501 L1504.5,2743.5 L1562.5,2743.5 L1562.5,2777 L1504.5,2777 L1504.5,2858 L1465.5,2858 L1465.5,2777 L1286,2777 L1286,2738 L1466,2501 Z M1464,2554.5 L1320.5,2743.5 L1465.5,2743.5 L1465.5,2554.5 L1464,2554.5 Z" id="path-1"></path>
    </defs>
    <g id="官网" stroke="none" stroke-width="1" fill="none" fill-rule="evenodd" opacity="0.1">
        <g id="视频云" transform="translate(-999.000000, -2494.000000)">
            <g id="04">
                <use fill="#000000" xlink:href="#path-1"></use>
                <use fill="#718CB5" xlink:href="#path-1"></use>
            </g>
        </g>
    </g>
</svg>