<?xml version="1.0" encoding="UTF-8" standalone="no"?>
<svg width="550px" height="371px" viewBox="0 0 550 371" version="1.1" xmlns="http://www.w3.org/2000/svg" xmlns:xlink="http://www.w3.org/1999/xlink">
    <!-- Generator: Sketch 50.2 (55047) - http://www.bohemiancoding.com/sketch -->
    <title>03</title>
    <desc>Created with Sketch.</desc>
    <defs>
        <path d="M488,1956 C530.5,1956 562.5,1974.5 584.5,2012.5 C603.5,2044.5 613,2087.5 613,2141.5 C613,2195.5 603.5,2238.5 584.5,2270.5 C562.5,2308 530.5,2327 488,2327 C445,2327 413,2308 391.5,2270.5 C372.5,2238.5 363,2195.5 363,2141.5 C363,2087.5 372.5,2044.5 391.5,2012.5 C413,1974.5 445,1956 488,1956 Z M488,1991 C456,1991 433,2008 419,2042.5 C409,2066.5 404,2099.5 404,2141.5 C404,2183 409,2216 419,2240.5 C433,2274.5 456,2292 488,2292 C520,2292 543,2274.5 557,2240.5 C567,2216 572.5,2183 572.5,2141.5 C572.5,2099.5 567,2066.5 557,2042.5 C543,2008 520,1991 488,1991 Z M791.5,1956 C825.5,1956 853.5,1964.5 874.5,1982 C895,1999.5 905.5,2023 905.5,2053 C905.5,2093 886,2120 847,2133 C868,2139.5 884,2149.5 895,2163.5 C907,2177.5 913,2195 913,2216 C913,2248.5 901.5,2275 879,2295.5 C856,2316.5 826,2327 789,2327 C755,2327 727.5,2318 706,2301 C680.5,2280 666.5,2249.5 663.5,2209.5 L705,2209.5 C706,2237.5 715.5,2259 733,2273.5 C748,2285.5 766.5,2292 789,2292 C814.5,2292 835,2284.5 850.5,2270 C864.5,2256 872,2238.5 872,2217.5 C872,2196 865,2179.5 851,2167.5 C837,2155.5 818,2150 793,2150 L764,2150 L764,2118 L791.5,2118 C815.5,2118 833.5,2112.5 846,2102 C858.5,2091 865,2075.5 865,2055.5 C865,2035.5 858.5,2020 846.5,2009 C833.5,1997 815,1991.5 792,1991.5 C768,1991.5 749.5,1997.5 736,2010.5 C722,2023.5 714,2042 711.5,2066 L671,2066 C674,2031.5 687,2004.5 709,1985 C730,1965.5 757.5,1956 791.5,1956 Z" id="path-1"></path>
    </defs>
    <g id="官网" stroke="none" stroke-width="1" fill="none" fill-rule="evenodd" opacity="0.1">
        <g id="视频云" transform="translate(-363.000000, -1956.000000)">
            <g id="03">
                <use fill="#000000" xlink:href="#path-1"></use>
                <use fill="#718CB5" xlink:href="#path-1"></use>
            </g>
        </g>
    </g>
</svg>