<?xml version="1.0" encoding="UTF-8" standalone="no"?>
<svg width="422px" height="371px" viewBox="0 0 422 371" version="1.1" xmlns="http://www.w3.org/2000/svg" xmlns:xlink="http://www.w3.org/1999/xlink">
    <!-- Generator: Sketch 50.2 (55047) - http://www.bohemiancoding.com/sketch -->
    <title>01</title>
    <desc>Created with Sketch.</desc>
    <defs>
        <path d="M488,873 C530.5,873 562.5,891.5 584.5,929.5 C603.5,961.5 613,1004.5 613,1058.5 C613,1112.5 603.5,1155.5 584.5,1187.5 C562.5,1225 530.5,1244 488,1244 C445,1244 413,1225 391.5,1187.5 C372.5,1155.5 363,1112.5 363,1058.5 C363,1004.5 372.5,961.5 391.5,929.5 C413,891.5 445,873 488,873 Z M488,908 C456,908 433,925 419,959.5 C409,983.5 404,1016.5 404,1058.5 C404,1100 409,1133 419,1157.5 C433,1191.5 456,1209 488,1209 C520,1209 543,1191.5 557,1157.5 C567,1133 572.5,1100 572.5,1058.5 C572.5,1016.5 567,983.5 557,959.5 C543,925 520,908 488,908 Z M753,880 L785,880 L785,1237 L744,1237 L744,930 C721.5,953 693.5,969 660,979 L660,938 C676,933.5 693,926.5 710,916.5 C727,905.5 741,893.5 753,880 Z" id="path-1"></path>
    </defs>
    <g id="官网" stroke="none" stroke-width="1" fill="none" fill-rule="evenodd" opacity="0.1">
        <g id="视频云" transform="translate(-363.000000, -873.000000)">
            <g id="01">
                <use fill="#000000" xlink:href="#path-1"></use>
                <use fill="#6F8DB5" xlink:href="#path-1"></use>
            </g>
        </g>
    </g>
</svg>