<?xml version="1.0" encoding="UTF-8"?>
<svg width="286px" height="381px" viewBox="0 0 286 381" version="1.1" xmlns="http://www.w3.org/2000/svg" xmlns:xlink="http://www.w3.org/1999/xlink">
    <title>编组 8备份 5</title>
    <defs>
        <linearGradient x1="50%" y1="0%" x2="50%" y2="100%" id="linearGradient-1">
            <stop stop-color="#FFFFFF" offset="0%"></stop>
            <stop stop-color="#D3E6FD" offset="100%"></stop>
        </linearGradient>
        <linearGradient x1="10.0246618%" y1="0%" x2="80.9963902%" y2="92.2908186%" id="linearGradient-2">
            <stop stop-color="#18B1FD" offset="0%"></stop>
            <stop stop-color="#0A79F9" offset="100%"></stop>
        </linearGradient>
    </defs>
    <g id="页面-1" stroke="none" stroke-width="1" fill="none" fill-rule="evenodd">
        <g id="听鉴云页面" transform="translate(-659.000000, -1281.000000)">
            <g id="编组-8备份-5" transform="translate(659.000000, 1281.000000)">
                <rect id="矩形备份-3" fill="#0A79F9" x="29" y="0" width="228" height="112" rx="8"></rect>
                <rect id="矩形" stroke="#979797" fill="#DEFFEB" opacity="0.541583833" x="29.5" y="92.5" width="227" height="63" rx="8"></rect>
                <text id="有效促进成交" font-family="PingFangSC-Semibold, PingFang SC" font-size="20" font-weight="500" fill="#FFFFFF">
                    <tspan x="83" y="49">有效促进成交</tspan>
                </text>
                <g id="编组-8" transform="translate(0.000000, 79.000000)">
                    <rect id="矩形" stroke="url(#linearGradient-1)" fill-opacity="0.21" fill="#E6F2FF" x="0.5" y="0.5" width="285" height="301" rx="8"></rect>
                    <rect id="矩形" stroke="url(#linearGradient-1)" fill-opacity="0.21" fill="#E6F2FF" x="0.5" y="0.5" width="285" height="301" rx="8"></rect>
                    <g id="编组-12" transform="translate(51.000000, 89.000000)">
                        <text id="留店时长" opacity="0.903918312" font-family="PingFangSC-Regular, PingFang SC" font-size="16" font-weight="normal" fill="#04223E">
                            <tspan x="0" y="78">留店时长</tspan>
                        </text>
                        <rect id="矩形" fill="url(#linearGradient-2)" x="5" y="0" width="54" height="54" rx="27"></rect>
                        <g id="时长" transform="translate(17.000000, 12.000000)" fill="#FFFFFF" fill-rule="nonzero">
                            <rect id="矩形" opacity="0" x="0" y="0" width="30" height="30"></rect>
                            <path d="M15,0 C6.75,0 0,6.75 0,15 C0,23.25 6.75,30 15,30 C23.25,30 30,23.25 30,15 C30,6.75 23.25,0 15,0 Z M16.2500098,27.375 L16.2500098,24.9999902 C16.2500098,24.2499902 15.75,23.7500098 15,23.7500098 C14.25,23.7500098 13.7499902,24.2499902 13.7499902,24.9999902 L13.7499902,27.375 C7.875,26.7500098 3.125,22.125 2.625,16.2500098 L5.00000977,16.2500098 C5.75000977,16.2500098 6.24999023,15.75 6.24999023,15 C6.24999023,14.25 5.75000977,13.7499902 5.00000977,13.7499902 L2.625,13.7499902 C3.125,7.875 7.875,3.125 13.7499902,2.625 L13.7499902,5.00000977 C13.7499902,5.75000977 14.25,6.24999023 15,6.24999023 C15.75,6.24999023 16.2500098,5.75000977 16.2500098,5.00000977 L16.2500098,2.625 C22.125,3.24999023 26.8749902,7.875 27.375,13.7499902 L24.9999902,13.7499902 C24.2499902,13.7499902 23.7500098,14.25 23.7500098,15 C23.7500098,15.75 24.2499902,16.2500098 24.9999902,16.2500098 L27.375,16.2500098 C26.8749902,22.125 22.125,26.8749902 16.2500098,27.375 Z M20.625,17.0000098 L16.125,14.3750098 L14.7500098,9.24999023 C14.625,8.625 13.875,8.12499023 13.2500098,8.37500977 C12.5000098,8.625 12.1250098,9.375 12.2499902,9.99999023 L13.7499902,15.6249902 C13.7499902,15.75 13.875,15.8750098 14.0000098,15.9999902 L14.1249902,16.125 L14.3750098,16.3749902 L19.3749902,19.2500098 C19.6250098,19.3749902 19.7499902,19.3749902 20.0000098,19.3749902 C20.3750098,19.3749902 20.8749902,19.125 21.1250098,18.75 C21.375,18.1250098 21.2499902,17.3750098 20.625,17.0000098 L20.625,17.0000098 Z" id="形状"></path>
                        </g>
                    </g>
                    <g id="编组-12备份" transform="translate(171.000000, 89.000000)">
                        <text id="接待规范" opacity="0.903918312" font-family="PingFangSC-Regular, PingFang SC" font-size="16" font-weight="normal" fill="#04223E">
                            <tspan x="0" y="78">接待规范</tspan>
                        </text>
                        <rect id="矩形" fill="url(#linearGradient-2)" x="5" y="0" width="54" height="54" rx="27"></rect>
                        <g id="接待人次" transform="translate(17.000000, 12.000002)" fill="#FFFFFF" fill-rule="nonzero">
                            <rect id="矩形" opacity="0" x="0" y="0" width="29.9988816" height="29.9988816"></rect>
                            <path d="M11.60113,27.9481768 C11.1294679,27.9481768 10.6753833,27.690374 10.4468762,27.2421485 L0.755831198,8.34636854 C0.524394513,7.8922839 0.577126922,7.34738234 0.893521377,6.94895969 C0.996056617,6.81712867 3.50377563,3.74986021 8.98794618,4.13363496 C10.739834,4.25667725 12.0991583,3.43639533 13.2885671,2.71278949 C14.407666,2.03312733 15.5619199,1.33002854 16.8333568,1.72845119 C18.0110473,2.09757805 18.6321179,3.23718401 18.9983152,4.06332508 C20.3429916,7.10129777 21.3976398,10.1920029 20.0148788,12.198764 C18.7903151,13.977018 16.3118919,14.0590462 14.5570745,13.9652997 C12.6762852,13.8686236 11.1031017,14.3637223 10.0132986,15.400793 C9.06118564,16.3089623 8.71842498,17.3929063 8.72135456,17.8967937 C8.72135456,17.9817515 8.7154954,18.0637797 8.69791793,18.1458079 L12.7583134,26.0615284 C13.0864262,26.7001765 12.8344825,27.4823739 12.1958344,27.8075571 C12.0054118,27.9013036 11.8003413,27.9481768 11.60113,27.9481768 Z M3.51549394,8.03876282 L7.06028367,14.949638 C7.36203023,14.463328 7.74287541,13.977018 8.22332625,13.5200038 C9.35414347,12.441919 11.39313,11.1968482 14.6947647,11.3696933 C16.3997792,11.4575807 17.5305965,11.2290736 17.8792163,10.7222565 C18.3772446,10.0015803 17.9553853,8.11200227 16.6282864,5.11211411 C16.2796665,4.32698713 16.0511594,4.20101526 16.0482299,4.19808568 L16.0453003,4.19808568 C15.8402298,4.19808568 15.116624,4.63752243 14.6391027,4.92755068 C13.2680601,5.75955091 11.3960595,6.90208644 8.80631233,6.72045259 C6.04957916,6.52710042 4.33870544,7.42941053 3.51549394,8.03876282 Z" id="形状"></path>
                            <path d="M22.4552176,22.2413583 C20.0383155,22.2413583 18.075498,20.2756113 18.075498,17.8616388 C18.075498,15.4476663 20.0412451,13.4819193 22.4552176,13.4819193 C24.8691901,13.4819193 26.8349371,15.4476663 26.8349371,17.8616388 C26.8320075,20.2756113 24.8691901,22.2413583 22.4552176,22.2413583 Z M22.4552176,16.0775256 C21.4708793,16.0775256 20.6711044,16.8773005 20.6711044,17.8616388 C20.6711044,18.8459771 21.4708793,19.645752 22.4552176,19.645752 C23.4395559,19.645752 24.2393307,18.8459771 24.2393307,17.8616388 C24.2364012,16.8773005 23.4366263,16.0775256 22.4552176,16.0775256 Z" id="形状"></path>
                            <path d="M28.0272755,27.6112753 C27.3095288,27.6112753 26.7294723,27.0312188 26.7294723,26.3134722 C26.7294723,25.2207395 25.8418101,24.3330772 24.7490774,24.3330772 L20.1584282,24.3330772 C19.0656955,24.3330772 18.1780333,25.2207395 18.1780333,26.3134722 C18.1780333,27.0312188 17.5979768,27.6112753 16.8802301,27.6112753 C16.1624834,27.6112753 15.5824269,27.0312188 15.5824269,26.3134722 C15.5824269,23.7911053 17.6360613,21.7374709 20.1584282,21.7374709 L24.7490774,21.7374709 C27.2714443,21.7374709 29.3250786,23.7911053 29.3250786,26.3134722 C29.3250786,27.0312188 28.7420926,27.6112753 28.0272755,27.6112753 L28.0272755,27.6112753 Z" id="路径"></path>
                        </g>
                    </g>
                    <g id="编组-12备份-3" transform="translate(51.000000, 199.000000)">
                        <text id="跟进策略" opacity="0.903918312" font-family="PingFangSC-Regular, PingFang SC" font-size="16" font-weight="normal" fill="#04223E">
                            <tspan x="0" y="78">跟进策略</tspan>
                        </text>
                        <rect id="矩形" fill="url(#linearGradient-2)" x="5" y="0" width="54" height="54" rx="27"></rect>
                        <g id="跟进时间" transform="translate(17.000000, 12.000000)" fill="#FFFFFF" fill-rule="nonzero">
                            <rect id="矩形" opacity="0" x="0" y="4.54827931e-05" width="29.9999545" height="29.9999545"></rect>
                            <path d="M14.3823708,2.26523608e-05 C17.7798656,2.26523608e-05 20.8998609,1.17572729 23.3617322,3.14447431 L25.6829493,0.825102826 L27.9423209,3.0844744 L25.6210744,5.40572088 C30.3186201,11.2882936 29.6846587,19.798129 24.1673304,24.9197191 C18.6500021,30.0413093 10.1165852,30.0413093 4.59925688,24.9197191 C-0.918071413,19.798129 -1.55203286,11.2882936 3.14551281,5.40572088 L0.826141326,3.08441581 L3.0836379,0.825044232 L5.40488438,3.14629071 C7.95168182,1.10432856 11.1199307,-0.00578246254 14.3842458,2.26523608e-05 L14.3823708,2.26523608e-05 Z M14.3716513,26.3811991 C18.6957764,26.4379828 22.7159917,24.1637481 24.8948212,20.4282448 C27.0736506,16.6927415 27.0740378,12.0738375 24.8958345,8.33796901 C22.7176313,4.60210053 18.6977973,2.32719197 14.3736627,2.38325077 C7.80786925,2.46892299 2.53023292,7.81587258 2.53023292,14.3822249 C2.53023292,20.9485773 7.80786925,26.2955269 14.3736627,26.3811991 L14.3716513,26.3811991 Z M15.9817433,12.7837761 L20.7761111,12.7837761 L12.7848439,23.1712604 L12.7848439,15.9806463 L7.99050546,15.9806463 L15.9817141,5.58569131 L15.9817141,12.7856804 L15.9817433,12.7837761 Z" id="形状"></path>
                        </g>
                    </g>
                    <g id="编组-12备份-2" transform="translate(171.000000, 199.000000)">
                        <text id="潜客分析" opacity="0.903918312" font-family="PingFangSC-Regular, PingFang SC" font-size="16" font-weight="normal" fill="#04223E">
                            <tspan x="0" y="78">潜客分析</tspan>
                        </text>
                        <rect id="矩形" fill="url(#linearGradient-2)" x="5" y="0" width="54" height="54" rx="27"></rect>
                        <g id="我的顾问" transform="translate(17.000000, 12.000002)" fill="#FFFFFF" fill-rule="nonzero">
                            <rect id="矩形" opacity="0" x="0" y="0" width="29.9889739" height="29.9889739"></rect>
                            <path d="M15.1391603,3.98853353 C11.3658211,3.98853353 8.30694576,7.04740886 8.30694576,10.8207188 C8.30694576,14.5940287 11.3658211,17.6529333 15.1397167,17.6529333 C18.9124702,17.6529333 21.9719313,14.594058 21.9719313,10.8207188 C21.9719313,7.04737958 18.9124702,3.9879478 15.139131,3.9879478 L15.1391603,3.98853353 Z M15.1391603,6.34060324 C16.7424799,6.33651868 18.2257653,7.18952622 19.0286108,8.57736255 C19.8314563,9.96519888 19.8314563,11.676268 19.0286108,13.0641043 C18.2257653,14.4519406 16.7424799,15.3049482 15.1391603,15.3008636 C12.6693329,15.2945342 10.6704847,13.2905689 10.6704847,10.8207334 C10.6704847,8.35089796 12.6693329,6.34693265 15.1391603,6.34060324 Z" id="形状"></path>
                            <path d="M15.1391603,15.3008196 C20.7435548,15.3008196 25.4782691,19.8050815 26.6049349,25.9228322 L26.643739,26.1421558 L24.3245721,26.5337697 C23.452549,21.378009 19.5922301,17.6529333 15.1397167,17.6529333 C10.7495828,17.6529333 6.93509664,21.2739555 5.99307971,26.3167889 L5.95427562,26.5343847 L3.63510878,26.1421558 C4.68771005,19.9132937 9.46831564,15.3008196 15.1391603,15.3008196 Z" id="路径"></path>
                            <path d="M16.0999496,15.4019738 L13.8725362,15.4372636 L11.2217627,23.6848171 L12.3413706,25.220727 L17.9375357,25.220727 L19.0453413,23.6489417 L16.0993639,15.4019738 L16.0999496,15.4019738 Z M15.0503355,19.4575433 L16.2681397,22.8680569 L13.9542444,22.8680569 L15.0503063,19.4575433 L15.0503355,19.4575433 Z" id="形状"></path>
                        </g>
                    </g>
                    <text id="员工-业务赋能-能力提升" opacity="0.982184274" font-family="PingFangSC-Semibold, PingFang SC" font-size="18" font-weight="500" fill="#061E42">
                        <tspan x="125" y="39">员工</tspan>
                        <tspan x="161" y="39" font-family="PingFangSC-Regular, PingFang SC" font-weight="normal"></tspan>
                        <tspan x="65.006" y="64" font-family="PingFangSC-Regular, PingFang SC" font-weight="normal">业务赋能  能力提升</tspan>
                    </text>
                </g>
            </g>
        </g>
    </g>
</svg>