<?xml version="1.0" encoding="UTF-8"?>
<svg width="286px" height="381px" viewBox="0 0 286 381" version="1.1" xmlns="http://www.w3.org/2000/svg" xmlns:xlink="http://www.w3.org/1999/xlink">
    <title>编组 8备份 6</title>
    <defs>
        <linearGradient x1="50%" y1="0%" x2="50%" y2="100%" id="linearGradient-1">
            <stop stop-color="#FFFFFF" offset="0%"></stop>
            <stop stop-color="#D3E6FD" offset="100%"></stop>
        </linearGradient>
        <linearGradient x1="10.0246618%" y1="0%" x2="80.9963902%" y2="92.2908186%" id="linearGradient-2">
            <stop stop-color="#18B1FD" offset="0%"></stop>
            <stop stop-color="#0A79F9" offset="100%"></stop>
        </linearGradient>
    </defs>
    <g id="页面-1" stroke="none" stroke-width="1" fill="none" fill-rule="evenodd">
        <g id="听鉴云页面" transform="translate(-975.000000, -1281.000000)">
            <g id="编组-8备份-6" transform="translate(975.000000, 1281.000000)">
                <rect id="矩形备份-3" fill="#0A79F9" x="29" y="0" width="228" height="112" rx="8"></rect>
                <rect id="矩形" stroke="#979797" fill="#DEFFEB" opacity="0.541583833" x="29.5" y="92.5" width="227" height="63" rx="8"></rect>
                <text id="挖掘潜客需求" font-family="PingFangSC-Semibold, PingFang SC" font-size="20" font-weight="500" fill="#FFFFFF">
                    <tspan x="83" y="49">挖掘潜客需求</tspan>
                </text>
                <g id="编组-8" transform="translate(0.000000, 79.000000)">
                    <rect id="矩形" stroke="url(#linearGradient-1)" fill-opacity="0.21" fill="#E6F2FF" x="0.5" y="0.5" width="285" height="301" rx="8"></rect>
                    <rect id="矩形" stroke="url(#linearGradient-1)" fill-opacity="0.21" fill="#E6F2FF" x="0.5" y="0.5" width="285" height="301" rx="8"></rect>
                    <g id="编组-12" transform="translate(51.000000, 89.000000)">
                        <text id="群体画像" opacity="0.903918312" font-family="PingFangSC-Regular, PingFang SC" font-size="16" font-weight="normal" fill="#04223E">
                            <tspan x="0" y="78">群体画像</tspan>
                        </text>
                        <rect id="矩形" fill="url(#linearGradient-2)" x="5" y="0" width="54" height="54" rx="27"></rect>
                        <g id="用户-群体" transform="translate(17.000000, 12.000000)" fill="#FFFFFF" fill-rule="nonzero">
                            <rect id="矩形" opacity="0" x="0" y="0" width="30" height="30"></rect>
                            <path d="M11.2524902,5.00375977 C8.49,5.00375977 6.25250977,7.24125 6.25250977,10.0037402 C6.25250977,12.7662305 8.49,15.0037598 11.2524902,15.0037598 C14.0149805,15.0037598 16.2525098,12.7662598 16.2525098,10.0037402 C16.2525098,7.2412207 14.0150098,5.00375977 11.2524902,5.00375977 Z M11.2525,7.50375 C12.6275098,7.50375 13.7525,8.62875 13.7525,10.00375 C13.7525,11.3787305 12.6275098,12.50375 11.2525,12.50375 C9.8774707,12.50375 8.7525,11.3787598 8.7525,10.00375 C8.7525,8.6287207 9.8775,7.50375 11.2525,7.50375 L11.2525,7.50375 Z M11.2525,17.5037402 C7.91499023,17.5037402 1.2525,19.1787598 1.2525,22.5037402 L1.2525,25.0037402 L21.2525,25.0037402 L21.2525,22.5037402 C21.2525,19.1787598 14.5899902,17.5037402 11.2525,17.5037402 Z M11.2524902,20.0037598 C14.6150098,20.0037598 18.465,21.60375 18.7524902,22.5037598 L3.75249023,22.5037598 C4.00250977,21.6162598 7.87749023,20.0037598 11.2524902,20.0037598 Z M18.75,5.00000977 C18.1625098,5.00000977 17.6124902,5.12499023 17.0874902,5.30000977 C19.3040941,8.04131819 19.3040941,11.9586916 17.0874902,14.7 C17.6124902,14.8749902 18.1625098,15.0000098 18.75,15.0000098 C21.5124902,15.0000098 23.7500098,12.7625098 23.7500098,9.99999023 C23.7500098,7.2374707 21.5124902,5.00000977 18.75,5.00000977 Z M20.8374902,16.4124902 C22.5500098,17.5749902 23.7500098,19.1499902 23.7500098,21.2499902 L23.7500098,24.9999902 L28.7499902,24.9999902 L28.7499902,21.2499902 C28.7499902,18.525 24.2874902,16.9124902 20.8374902,16.4124902 L20.8374902,16.4124902 Z" id="形状"></path>
                        </g>
                    </g>
                    <g id="编组-12备份" transform="translate(171.000000, 89.000000)">
                        <text id="潜客分级" opacity="0.903918312" font-family="PingFangSC-Regular, PingFang SC" font-size="16" font-weight="normal" fill="#04223E">
                            <tspan x="0" y="78">潜客分级</tspan>
                        </text>
                        <rect id="矩形" fill="url(#linearGradient-2)" x="5" y="0" width="54" height="54" rx="27"></rect>
                        <g id="慢sql分析" transform="translate(17.000000, 12.000002)" fill="#FFFFFF" fill-rule="nonzero">
                            <rect id="矩形" opacity="0" x="0" y="0" width="29.9988816" height="29.9988816"></rect>
                            <path d="M4.79651064,18.4406114 C4.32974093,18.4406114 3.88725743,18.3521381 3.46818125,18.1745178 C3.06242481,18.0059022 2.69329425,17.7600572 2.38130771,17.4506483 C2.07182289,17.1385455 1.82587537,16.7693257 1.65711596,16.3634818 C1.47965263,15.943436 1.3893349,15.4917278 1.39159463,15.0357383 C1.39159463,14.5692615 1.47952492,14.1300592 1.65714525,13.7199768 C1.82795993,13.318965 2.07375637,12.9542477 2.38133701,12.6454075 C2.69304894,12.3355291 3.06222741,12.0894466 3.46818125,11.9209521 C3.97112118,11.7087292 4.51805392,11.6217407 5.06201832,11.6674557 C5.14269891,11.6752776 5.22311583,11.679174 5.30408937,11.679174 L10.0130349,5.98026534 C9.93043253,5.81351152 9.87705271,5.63382161 9.85521854,5.44901561 C9.83084409,5.24885631 9.81872234,5.0473947 9.81892106,4.84575685 C9.81892106,4.37866489 9.90771658,3.93588843 10.0853369,3.51769113 C10.2533277,3.11169632 10.4992514,2.74255688 10.8092064,2.43113984 C11.1211355,2.12135913 11.4902609,1.8751097 11.89608,1.70606921 C12.3148339,1.52938634 12.7576103,1.44056153 13.2247023,1.44056153 C13.6917943,1.44056153 14.1345707,1.52906409 14.552768,1.70606921 C14.958627,1.87503517 15.327766,2.12129367 15.6396416,2.43113984 C15.9493301,2.74290582 16.1953886,3.11195874 16.364097,3.51772042 C16.5412556,3.93796264 16.6315599,4.3897034 16.6295754,4.84575685 C16.6295754,5.23184597 16.5695776,5.59813115 16.448088,5.94431941 C16.3277226,6.29101955 16.1614446,6.62002849 15.9536924,6.92256419 L20.0347414,16.0506321 L22.3770564,11.8723797 C22.1957756,11.5894996 22.0498957,11.2854413 21.9426878,10.9670228 C21.8287149,10.6286906 21.7717403,10.2737746 21.7740906,9.91676898 C21.7740906,9.44967701 21.8625639,9.00719351 22.039569,8.58870325 C22.2080701,8.18280791 22.4540514,7.81363698 22.7637607,7.50182971 C23.0755181,7.19214429 23.4445608,6.94608596 23.850312,6.77737429 C24.2707218,6.59968943 24.7228457,6.50926066 25.1792566,6.51157366 C25.6451475,6.51157366 26.0882169,6.60007622 26.5067071,6.77737429 C26.9151872,6.94799652 27.2880294,7.19374245 27.6058849,7.501859 C27.9219468,7.81095395 28.1724287,8.18061371 28.3423516,8.58873255 C28.5193274,9.00748647 28.6072441,9.44996997 28.6072441,9.91676898 C28.6072441,10.3997393 28.5193567,10.8503377 28.3423516,11.2691209 C28.1705909,11.6796896 27.9204247,12.0528293 27.6058556,12.3676542 C27.2907091,12.6821925 26.9173954,12.9324347 26.5067071,13.1044431 C26.0866516,13.2815405 25.6351146,13.3718439 25.1792566,13.3699215 L24.5993759,13.3699215 L22.3050767,17.5481739 C22.6578932,17.8674316 22.944956,18.2525272 23.1501428,18.6818328 C23.3589339,19.1168166 23.4639007,19.5926094 23.4639007,20.1073656 C23.4639007,20.5738717 23.3754274,21.0166481 23.1987445,21.4351384 C22.8525502,22.2605733 22.1987343,22.9188965 21.3756973,23.2707536 C20.9647067,23.4474657 20.5183269,23.5365542 20.0347414,23.5365542 C19.5526793,23.5365542 19.1050983,23.4474657 18.6950159,23.2707536 C18.2915005,23.0988537 17.9261449,22.8485219 17.6201537,22.5342869 C17.3118674,22.2163894 17.0658393,21.8435713 16.8947901,21.4351091 C16.7179564,21.0148887 16.6278465,20.5632727 16.6298683,20.1073656 C16.6298683,19.5926094 16.7303529,19.1168166 16.9313805,18.6818328 C17.1296034,18.2516109 17.4128817,17.8659774 17.7641424,17.5481739 L13.6114066,8.25027837 C13.4499869,8.28209359 13.3216127,8.29861641 13.2247023,8.29861641 C12.975973,8.29987562 12.7282233,8.2673732 12.4882356,8.20199892 C12.2605846,8.13990106 12.0384433,8.0591322 11.8240709,7.96051378 L7.69412723,13.1760713 C7.85551769,13.4496939 7.98389182,13.7436478 8.08141748,14.0577572 C8.1770975,14.3712221 8.225084,14.6973134 8.225084,15.035416 C8.225084,15.5021858 8.13690369,15.9449622 7.95960561,16.3631595 C7.79008814,16.7715903 7.53954562,17.1414245 7.22310963,17.450326 C6.90878293,17.7568409 6.54024911,18.002295 6.13626538,18.1741955 C5.72618301,18.3520795 5.27951021,18.4405821 4.79651064,18.4405821 L4.79651064,18.4406114 Z M1.39195983,25.2740578 L28.6063359,25.2740578 L28.6063359,28.5583494 L1.39195983,28.5583494 L1.39195983,25.2740578 Z" id="形状"></path>
                        </g>
                    </g>
                    <g id="编组-12备份-3" transform="translate(51.000000, 199.000000)">
                        <text id="潜客分类" opacity="0.903918312" font-family="PingFangSC-Regular, PingFang SC" font-size="16" font-weight="normal" fill="#04223E">
                            <tspan x="0" y="78">潜客分类</tspan>
                        </text>
                        <rect id="矩形" fill="url(#linearGradient-2)" x="5" y="0" width="54" height="54" rx="27"></rect>
                        <g id="分类" transform="translate(17.000000, 12.000000)" fill="#FFFFFF" fill-rule="nonzero">
                            <rect id="矩形" opacity="0" x="0" y="0" width="30" height="30"></rect>
                            <path d="M2,5 L5.20671875,5 L5.20671875,8.20671875 L2,8.20671875 L2,5 Z M18.0335352,8.20671875 L8.41337891,8.20671875 L8.41337891,5 L18.0335352,5 L19.1024316,6.60333008 L18.0335352,8.20671875 Z M23.3780469,16.2234277 L8.41337891,16.2234277 L8.41337891,13.0167676 L23.3780469,13.0167676 L24.4469434,14.6200977 L23.3780469,16.2234277 Z M27.1191992,24.2402246 L8.41337891,24.2402246 L8.41337891,21.0335059 L27.1191992,21.0335059 L28.1880957,22.6368652 L27.1191992,24.2402246 Z M2,13.0167383 L5.20671875,13.0167383 L5.20671875,16.223457 L2,16.223457 L2,13.0167383 L2,13.0167383 Z M2,21.0335352 L5.20671875,21.0335352 L5.20671875,24.2402246 L2,24.2402246 L2,21.0335352 Z" id="形状" stroke="#FFFFFF" stroke-width="0.2"></path>
                        </g>
                    </g>
                    <g id="编组-12备份-2" transform="translate(171.000000, 199.000000)">
                        <text id="竞品分析" opacity="0.903918312" font-family="PingFangSC-Regular, PingFang SC" font-size="16" font-weight="normal" fill="#04223E">
                            <tspan x="0" y="78">竞品分析</tspan>
                        </text>
                        <rect id="矩形" fill="url(#linearGradient-2)" x="5" y="0" width="54" height="54" rx="27"></rect>
                        <g id="fsux_图表_对比图" transform="translate(17.000000, 12.000002)" fill="#FFFFFF" fill-rule="nonzero">
                            <rect id="矩形" opacity="0" x="0" y="0" width="29.9889739" height="29.9889739"></rect>
                            <polygon id="路径" points="15.8887382 5.72607827 20.9118913 5.72607827 20.9118913 8.67961148 15.8887382 8.67961148"></polygon>
                            <polygon id="路径" points="15.8887382 9.86110091 26.3918199 9.86110091 26.3918199 12.8146341 15.8887382 12.8146341"></polygon>
                            <polygon id="路径" points="15.8887382 13.996065 22.7386123 13.996065 22.7386123 16.949686 15.8887382 16.949686"></polygon>
                            <polygon id="路径" points="15.8887382 18.1310876 19.5419751 18.1310876 19.5419751 21.0846794 15.8887382 21.0846794"></polygon>
                            <polygon id="路径" points="9.27883452 18.1311462 14.3019876 18.1311462 14.3019876 21.0846501 9.27883452 21.0846501"></polygon>
                            <polygon id="路径" points="3.79890598 13.9961235 14.3019876 13.9961235 14.3019876 16.9496275 3.79890598 16.9496275"></polygon>
                            <polygon id="路径" points="7.45214286 9.86107162 14.3019876 9.86107162 14.3019876 12.8146927 7.45214286 12.8146927"></polygon>
                            <polygon id="路径" points="10.6487215 5.72607827 14.3019291 5.72607827 14.3019291 8.67964077 10.6487215 8.67964077"></polygon>
                        </g>
                    </g>
                    <text id="AI-员工画像-客户画像" opacity="0.982184274" font-family="PingFangSC-Semibold, PingFang SC" font-size="18" font-weight="500" fill="#061E42">
                        <tspan x="134.576" y="39">AI</tspan>
                        <tspan x="151.424" y="39" font-family="PingFangSC-Regular, PingFang SC" font-weight="normal"></tspan>
                        <tspan x="65.006" y="64" font-family="PingFangSC-Regular, PingFang SC" font-weight="normal">员工画像  客户画像</tspan>
                    </text>
                </g>
            </g>
        </g>
    </g>
</svg>