<?xml version="1.0" encoding="UTF-8"?>
<svg width="286px" height="381px" viewBox="0 0 286 381" version="1.1" xmlns="http://www.w3.org/2000/svg" xmlns:xlink="http://www.w3.org/1999/xlink">
    <title>编组 8备份 7</title>
    <defs>
        <linearGradient x1="50%" y1="0%" x2="50%" y2="100%" id="linearGradient-1">
            <stop stop-color="#FFFFFF" offset="0%"></stop>
            <stop stop-color="#D3E6FD" offset="100%"></stop>
        </linearGradient>
        <linearGradient x1="10.0246618%" y1="0%" x2="80.9963902%" y2="92.2908186%" id="linearGradient-2">
            <stop stop-color="#18B1FD" offset="0%"></stop>
            <stop stop-color="#0A79F9" offset="100%"></stop>
        </linearGradient>
    </defs>
    <g id="页面-1" stroke="none" stroke-width="1" fill="none" fill-rule="evenodd">
        <g id="听鉴云页面" transform="translate(-1291.000000, -1281.000000)">
            <g id="编组-8备份-7" transform="translate(1291.000000, 1281.000000)">
                <rect id="矩形备份-3" fill="#0A79F9" x="29" y="0" width="228" height="112" rx="8"></rect>
                <rect id="矩形" stroke="#979797" fill="#DEFFEB" opacity="0.541583833" x="29.5" y="92.5" width="227" height="63" rx="8"></rect>
                <text id="加强风控合规" font-family="PingFangSC-Semibold, PingFang SC" font-size="20" font-weight="500" fill="#FFFFFF">
                    <tspan x="83" y="49">加强风控合规</tspan>
                </text>
                <g id="编组-8" transform="translate(0.000000, 79.000000)">
                    <rect id="矩形" stroke="url(#linearGradient-1)" fill-opacity="0.21" fill="#E6F2FF" x="0.5" y="0.5" width="285" height="301" rx="8"></rect>
                    <rect id="矩形" stroke="url(#linearGradient-1)" fill-opacity="0.21" fill="#E6F2FF" x="0.5" y="0.5" width="285" height="301" rx="8"></rect>
                    <g id="编组-12" transform="translate(51.000000, 89.000000)">
                        <text id="禁忌监控" opacity="0.903918312" font-family="PingFangSC-Regular, PingFang SC" font-size="16" font-weight="normal" fill="#04223E">
                            <tspan x="0" y="78">禁忌监控</tspan>
                        </text>
                        <rect id="矩形" fill="url(#linearGradient-2)" x="5" y="0" width="54" height="54" rx="27"></rect>
                        <g id="视频监控" transform="translate(17.000000, 12.000000)" fill="#FFFFFF" fill-rule="nonzero">
                            <rect id="矩形" opacity="0" x="0" y="0" width="30" height="30"></rect>
                            <path d="M8.1355957,20.4474609 L6.06208008,22.6384863 L1.79651367,22.6384863 L1.79651367,17.7767578 C1.79651367,17.2517578 1.39397461,16.8258105 0.898271484,16.8258105 C0.402568359,16.8258105 0,17.2517578 0,17.7767578 L0,26.8646484 C0,27.3896484 0.402539062,27.8155957 0.898242187,27.8155957 C1.39394531,27.8155957 1.79648437,27.3896484 1.79648437,26.8646484 L1.79648437,24.5403516 L6.52186523,24.5403516 C6.52918945,24.5403516 6.54,24.5365137 6.54697266,24.5365137 C6.55429687,24.5365137 6.5578125,24.5365137 6.56475586,24.5326758 C6.5755957,24.5326758 6.58256836,24.5288379 6.59337891,24.5288379 C6.59686523,24.5288379 6.60418945,24.5288379 6.60767578,24.525 C6.61851562,24.5211621 6.62545898,24.5211621 6.63662109,24.5173242 C6.64013672,24.5173242 6.64746094,24.5135156 6.65091797,24.5135156 C6.66175781,24.5096484 6.66908203,24.5096484 6.67989258,24.5058105 C6.68370117,24.5058105 6.69070312,24.502002 6.69418945,24.502002 C6.70194596,24.4977492 6.71049005,24.4951271 6.71929687,24.4942969 C6.72662109,24.4904883 6.73013672,24.4904883 6.73708008,24.4866211 C6.7444043,24.4828125 6.75140625,24.4789453 6.75873047,24.4789453 C6.76605469,24.4751367 6.77302734,24.4751367 6.77651367,24.4712695 C6.78383789,24.4674609 6.79081055,24.4635938 6.79467773,24.4635938 L6.81626953,24.4520801 C6.82359375,24.4482715 6.82710937,24.4444043 6.83408203,24.4444043 L6.85570312,24.4329199 C6.85918945,24.429082 6.86651367,24.429082 6.87,24.4252441 C6.87732422,24.4214063 6.8877832,24.414082 6.89510742,24.4098926 C6.89894531,24.4060547 6.90243164,24.4060547 6.90594727,24.4022168 C6.91327148,24.3983789 6.92373047,24.3907031 6.93105469,24.3868652 C6.93454102,24.3830273 6.93837891,24.3791895 6.94186523,24.3791895 C6.94918945,24.3715137 6.95616211,24.3680273 6.96697266,24.3603516 C6.97100682,24.3556848 6.97585006,24.3517844 6.98126953,24.3488379 C6.98859375,24.3411621 6.9955957,24.3373242 7.00291992,24.33 C7.00989258,24.3261621 7.01373047,24.3188379 7.02070312,24.3146484 C7.02802734,24.3108398 7.03151367,24.3035156 7.03848633,24.2992969 C7.04932617,24.2916211 7.05665039,24.280459 7.06708008,24.2727832 L9.40640625,21.7964063 C9.75837891,21.4234863 9.75837891,20.8224316 9.40640625,20.4498926 C9.05545898,20.074541 8.48756836,20.074541 8.1355957,20.4474316 L8.1355957,20.4474609 Z M28.959375,14.718457 L13.1877832,4.01408203 C13.1734863,3.99873047 13.1553516,3.98756836 13.1375684,3.97605469 C13.1048206,3.95323275 13.0711913,3.93170257 13.0367578,3.91151367 L10.6869727,2.31767578 C10.5443421,2.21906677 10.3751562,2.16603913 10.2017578,2.1655957 L7.76513672,2.1655957 C7.46337891,2.1655957 7.18324219,2.32535156 7.01756836,2.59186523 L2.16662109,10.3098633 C2.16313477,10.3136719 2.15929687,10.3175391 2.15929687,10.3252148 C1.5628125,11.3141602 1.83243164,12.630293 2.76662109,13.2655664 L17.3522461,23.1634863 C17.9322136,23.5607919 18.6184337,23.7741362 19.3214355,23.7757031 C19.9494031,23.7749716 20.5654278,23.6040269 21.1039746,23.2810547 L28.8477832,18.693457 C29.5269727,18.2902148 29.9438379,17.5597266 29.9689746,16.7382129 C29.9909473,15.9167285 29.6134863,15.1597266 28.9594043,14.7184863 L28.959375,14.718457 Z M3.66873047,11.3557031 L8.24686523,4.07091797 L9.9394043,4.07091797 L11.3623242,5.0372168 L6.05126953,13.2310547 L3.73710938,11.664082 C3.63881252,11.5938985 3.60931254,11.4608579 3.66873047,11.3557031 Z M28.1724316,16.6814063 C28.1689453,16.7689453 28.14,16.9321875 27.9711621,17.0312695 L20.2273242,21.6226758 C19.6353846,21.9768824 18.891206,21.9531603 18.3230273,21.5619727 L7.56383789,14.2583789 L12.8752441,6.06105469 L27.9927832,16.3203516 C28.1546484,16.4302148 28.1762695,16.5938379 28.1724316,16.6814062 L28.1724316,16.6814063 Z" id="形状"></path>
                        </g>
                    </g>
                    <g id="编组-12备份" transform="translate(171.000000, 89.000000)">
                        <text id="行为追踪" opacity="0.903918312" font-family="PingFangSC-Regular, PingFang SC" font-size="16" font-weight="normal" fill="#04223E">
                            <tspan x="0" y="78">行为追踪</tspan>
                        </text>
                        <rect id="矩形" fill="url(#linearGradient-2)" x="5" y="0" width="54" height="54" rx="27"></rect>
                        <g id="审计追踪" transform="translate(17.000000, 12.000002)" fill="#FFFFFF" fill-rule="nonzero">
                            <rect id="矩形" opacity="0" x="0" y="0" width="29.9988816" height="29.9988816"></rect>
                            <path d="M23.2608516,11.7183131 L21.6202878,11.7183131 C21.4908508,11.7183131 21.3859215,11.8232425 21.3859215,11.9526794 L21.3859215,21.2101468 C21.3859215,23.0850769 20.0717127,24.6084576 18.4563432,24.6084576 C16.8409737,24.6084576 15.5267649,23.0850769 15.5267649,21.2101468 L15.5267649,8.78580528 C15.5267649,7.3365429 15.0170183,5.96842984 14.0912716,4.93399575 C13.1359361,3.86704334 11.8562963,3.2781981 10.4878903,3.2781981 C9.11948425,3.2781981 7.83984445,3.86704334 6.88450897,4.93399575 C5.95846928,5.96842984 5.44901561,7.33624994 5.44901561,8.78580528 L5.44901561,17.2458415 C3.45870285,17.7754449 2.16982316,19.6989668 2.43687947,21.7411484 C2.70393577,23.78333 4.44409473,25.3107442 6.50366379,25.3107442 C8.56323286,25.3107442 10.3033918,23.78333 10.5704481,21.7411484 C10.8375044,19.6989668 9.54862474,17.7754449 7.55831198,17.2458415 L7.55831198,8.78580528 C7.55831198,6.91087518 8.8725208,5.38749447 10.4878903,5.38749447 C12.1032597,5.38749447 13.4174685,6.91087518 13.4174685,8.78580528 L13.4174685,21.2101468 C13.4174685,22.6594092 13.9272152,24.0272293 14.8529619,25.0619563 C15.8082974,26.1318383 17.0879372,26.717754 18.4563432,26.717754 C19.8247492,26.717754 21.104389,26.1318383 22.0597245,25.0628352 C22.9854712,24.0281081 23.4952179,22.660581 23.4952179,21.2110257 L23.4952179,11.9526794 C23.4952179,11.8232425 23.3902885,11.7183131 23.2608516,11.7183131 Z M8.49577703,21.2101468 C8.49577703,22.3103605 7.60387755,23.20226 6.50366379,23.20226 C5.40345004,23.20226 4.51155056,22.3103605 4.51155056,21.2101468 C4.51155056,20.109933 5.40345004,19.2180336 6.50366379,19.2180336 C7.60340901,19.2191639 8.49464668,20.1104016 8.49577703,21.2101468 Z M21.6202878,4.68732526 L23.2608516,4.68732526 C23.4170958,4.68732526 23.4952179,4.76544735 23.4952179,4.92169152 L23.4952179,7.73408667 C23.4952179,7.89033085 23.4170958,7.96845294 23.2608516,7.96845294 L21.6202878,7.96845294 C21.4640436,7.96845294 21.3859215,7.89033085 21.3859215,7.73408667 L21.3859215,4.92169152 C21.3859215,4.76544735 21.4640436,4.68732526 21.6202878,4.68732526 Z M24.549866,8.78873486 L27.3622612,8.78873486 C27.5185054,8.78873486 27.5966275,8.86685695 27.5966275,9.02310112 L27.5966275,10.663665 C27.5966275,10.8199091 27.5185054,10.8980312 27.3622612,10.8980312 L24.549866,10.8980312 C24.3936219,10.8980312 24.3154998,10.8199091 24.3154998,10.663665 L24.3154998,9.02310112 C24.3154998,8.86685695 24.3936219,8.78873486 24.549866,8.78873486 Z M17.5188781,8.78873486 L20.3312733,8.78873486 C20.4875175,8.78873486 20.5656396,8.86685695 20.5656396,9.02310112 L20.5656396,10.663665 C20.5656396,10.8199091 20.4875175,10.8980312 20.3312733,10.8980312 L17.5188781,10.8980312 C17.362634,10.8980312 17.2845119,10.8199091 17.2845119,10.663665 L17.2845119,9.02310112 C17.2845119,8.86685695 17.362634,8.78873486 17.5188781,8.78873486 Z" id="形状"></path>
                        </g>
                    </g>
                    <g id="编组-12备份-3" transform="translate(51.000000, 199.000000)">
                        <text id="作弊记录" opacity="0.903918312" font-family="PingFangSC-Regular, PingFang SC" font-size="16" font-weight="normal" fill="#04223E">
                            <tspan x="0" y="78">作弊记录</tspan>
                        </text>
                        <rect id="矩形" fill="url(#linearGradient-2)" x="5" y="0" width="54" height="54" rx="27"></rect>
                        <g id="违规举报@3x" transform="translate(17.000000, 12.000000)" fill="#FFFFFF" fill-rule="nonzero">
                            <rect id="矩形" opacity="0" x="0" y="0" width="30" height="30"></rect>
                            <path d="M15,1.25000977 C22.59375,1.25000977 28.7499902,7.40625 28.7499902,15 C28.7499902,22.59375 22.59375,28.7499902 15,28.7499902 C7.40625,28.7499902 1.25000977,22.59375 1.25000977,15 C1.25000977,7.40625 7.40625,1.25000977 15,1.25000977 Z M15,3.75 C8.78686523,3.75 3.75,8.78686523 3.75,15 C3.75,21.2131348 8.78686523,26.25 15,26.25 C21.2131348,26.25 26.25,21.2131348 26.25,15 C26.25,8.78686523 21.2131348,3.75 15,3.75 Z M15.8581055,19.5268652 C16.0238733,19.5268652 16.182854,19.5927051 16.3000696,19.7099206 C16.4172852,19.8271362 16.4831348,19.9861169 16.4831348,20.1518848 L16.4831348,21.4018652 C16.4831348,21.567628 16.4172892,21.7266043 16.30008,21.843819 C16.1828707,21.9610337 16.0238976,22.0268848 15.8581348,22.0268848 L14.608125,22.0268848 C14.4423622,22.0268848 14.2833891,21.9610337 14.1661798,21.843819 C14.0489706,21.7266043 13.9831348,21.567628 13.9831348,21.4018652 L13.9831348,20.1518848 C13.9831348,19.986122 14.0489706,19.8271457 14.1661798,19.709931 C14.2833891,19.5927163 14.4423622,19.5268652 14.608125,19.5268652 L15.8581348,19.5268652 L15.8581055,19.5268652 Z M15.8581055,8.27686523 C16.0238733,8.27686523 16.182854,8.34270505 16.3000696,8.45992064 C16.4172852,8.57713622 16.4831348,8.7361169 16.4831348,8.90188477 L16.4831348,16.4018848 C16.4831348,16.7470573 16.2033073,17.026875 15.8581348,17.026875 L14.608125,17.026875 C14.2629524,17.026875 13.9831348,16.7470573 13.9831348,16.4018848 L13.9831348,8.90188477 C13.9831348,8.73612197 14.0489706,8.57714574 14.1661798,8.45993099 C14.2833891,8.34271625 14.4423622,8.27686523 14.608125,8.27686523 L15.8581348,8.27686523 L15.8581055,8.27686523 Z" id="形状"></path>
                        </g>
                    </g>
                    <g id="编组-12备份-2" transform="translate(171.000000, 199.000000)">
                        <text id="审核回听" opacity="0.903918312" font-family="PingFangSC-Regular, PingFang SC" font-size="16" font-weight="normal" fill="#04223E">
                            <tspan x="0" y="78">审核回听</tspan>
                        </text>
                        <rect id="矩形" fill="url(#linearGradient-2)" x="5" y="0" width="54" height="54" rx="27"></rect>
                        <g id="耳机" transform="translate(17.000000, 12.000002)" fill="#FFFFFF" fill-rule="nonzero">
                            <rect id="矩形" opacity="0" x="0.0595679527" y="0" width="29.9294059" height="29.7839764"></rect>
                            <path d="M0,20.7892155 C0,19.8162723 0.129063898,18.9723929 0.387191693,18.2575775 C0.645319488,17.5427621 1.11193512,16.8676586 1.78703858,16.2322671 L1.78703858,25.3461639 C1.09207913,24.7306284 0.620499507,24.0654529 0.372299704,23.3506375 C0.124099901,22.635822 0,21.7820147 0,20.7892155 L0,20.7892155 Z M27.9075858,16.2322671 C28.5032654,16.6889547 28.984773,17.3193822 29.3521087,18.1235496 C29.7194444,18.927717 29.9031123,19.8162723 29.9031123,20.7892155 C29.9031123,21.7820147 29.7591564,22.630858 29.4712446,23.3357455 C29.1833328,24.0406329 28.6621132,24.7107724 27.9075858,25.3461639 L27.9075858,16.2322671 Z M24.3632927,14.8919882 C24.7405564,14.8919882 25.1178201,15.0409081 25.4950838,15.3387478 C25.8723475,15.6365876 26.0609793,16.0535633 26.0609793,16.5896748 L26.0609793,24.3037247 C26.0609793,24.5419965 26.0063754,24.7653763 25.8971674,24.9738642 C25.7879595,25.182352 25.6539316,25.3709839 25.4950838,25.5397597 C25.3362359,25.7085356 25.152568,25.8375995 24.9440802,25.9269514 C24.7355924,26.0163033 24.5419965,26.0609793 24.3632927,26.0609793 L22.2784143,26.0609793 C21.7621587,26.0609793 21.3302911,25.9021314 20.9828113,25.5844357 C20.6353316,25.2667399 20.4615918,24.8398363 20.4615918,24.3037247 L20.4615918,16.5896748 C20.4615918,16.0535633 20.6551876,15.6365876 21.0423793,15.3387478 C21.429571,15.0409081 21.8415827,14.8919882 22.2784143,14.8919882 L24.3632927,14.8919882 L24.3632927,14.8919882 Z M7.32685818,14.8919882 C7.90268173,14.8919882 8.36929736,15.0309801 8.72670507,15.3089638 C9.08411279,15.5869476 9.26281665,16.0237793 9.26281665,16.6194588 L9.26281665,24.1250208 C9.26281665,24.7207004 9.10893277,25.187316 8.80116501,25.5248677 C8.49339726,25.8624195 8.09131358,26.0311953 7.59491397,26.0311953 L5.4206837,26.0311953 C4.82500417,26.0311953 4.38320852,25.8524915 4.09529675,25.4950838 C3.80738498,25.137676 3.66342909,24.7008444 3.66342909,24.1845888 L3.66342909,16.6194588 C3.66342909,16.0237793 3.84213295,15.5869476 4.19954067,15.3089638 C4.55694838,15.0309801 4.98385204,14.8919882 5.48025165,14.8919882 L7.32685818,14.8919882 Z M14.8919882,1.81682256 C16.4606109,1.81682256 17.9398818,2.08487834 19.3298007,2.62098992 C20.7197195,3.15710149 21.9358986,3.91659289 22.9783378,4.89946411 C24.0207769,5.88233533 24.8398363,7.0588024 25.4355158,8.42886531 C26.0311953,9.79892822 26.3290351,11.307983 26.3290351,12.9560297 L24.3632927,12.9560297 C23.8668931,12.9560297 23.4201334,12.9609937 23.0230137,12.9709217 C22.625894,12.9808497 22.4273342,12.9758857 22.4273342,12.9560297 C22.4273342,11.7249587 22.2188464,10.6378436 21.8018707,9.6946843 C21.384895,8.75152505 20.8338915,7.96224968 20.14886,7.32685818 C19.4638285,6.69146669 18.6695892,6.21492307 17.7661419,5.89722732 C16.8626946,5.57953157 15.9046434,5.4206837 14.8919882,5.4206837 C13.899189,5.4206837 12.9560297,5.62917153 12.0625104,6.0461472 C11.1689911,6.46312287 10.3797158,7.02405442 9.6946843,7.72894186 C9.00965285,8.4338293 8.45864928,9.23799667 8.04167362,10.1414439 C7.62469795,11.0448912 7.41621011,11.9830865 7.41621011,12.9560297 L3.48472523,12.9560297 C3.48472523,11.307983 3.782565,9.79892822 4.37824452,8.42886531 C4.97392405,7.0588024 5.7880194,5.88233533 6.82053058,4.89946411 C7.85304176,3.91659289 9.0642568,3.15710149 10.4541757,2.62098992 C11.8440946,2.08487834 13.3233654,1.81682256 14.8919882,1.81682256 Z" id="形状"></path>
                        </g>
                    </g>
                    <text id="管理-业务增效-合规追踪" opacity="0.982184274" font-family="PingFangSC-Semibold, PingFang SC" font-size="18" font-weight="500" fill="#061E42">
                        <tspan x="125" y="39">管理</tspan>
                        <tspan x="161" y="39" font-family="PingFangSC-Regular, PingFang SC" font-weight="normal"></tspan>
                        <tspan x="65.006" y="64" font-family="PingFangSC-Regular, PingFang SC" font-weight="normal">业务增效  合规追踪</tspan>
                    </text>
                </g>
            </g>
        </g>
    </g>
</svg>