<?xml version="1.0" encoding="UTF-8"?>
<svg width="286px" height="381px" viewBox="0 0 286 381" version="1.1" xmlns="http://www.w3.org/2000/svg" xmlns:xlink="http://www.w3.org/1999/xlink">
    <title>编组 8备份</title>
    <defs>
        <linearGradient x1="50%" y1="0%" x2="50%" y2="100%" id="linearGradient-1">
            <stop stop-color="#FFFFFF" offset="0%"></stop>
            <stop stop-color="#D3E6FD" offset="100%"></stop>
        </linearGradient>
        <linearGradient x1="10.0246618%" y1="0%" x2="80.9963902%" y2="92.2908186%" id="linearGradient-2">
            <stop stop-color="#18B1FD" offset="0%"></stop>
            <stop stop-color="#0A79F9" offset="100%"></stop>
        </linearGradient>
    </defs>
    <g id="页面-1" stroke="none" stroke-width="1" fill="none" fill-rule="evenodd">
        <g id="听鉴云页面" transform="translate(-343.000000, -1281.000000)">
            <g id="编组-8备份" transform="translate(343.000000, 1281.000000)">
                <rect id="矩形备份-3" fill="#0A79F9" x="29" y="0" width="228" height="112" rx="8"></rect>
                <rect id="矩形" stroke="#979797" fill="#DEFFEB" opacity="0.541583833" x="29.5" y="92.5" width="227" height="63" rx="8"></rect>
                <text id="提升客户感受" font-family="PingFangSC-Semibold, PingFang SC" font-size="20" font-weight="500" fill="#FFFFFF">
                    <tspan x="83" y="49">提升客户感受</tspan>
                </text>
                <g id="编组-8" transform="translate(0.000000, 79.000000)">
                    <rect id="矩形" stroke="url(#linearGradient-1)" fill-opacity="0.21" fill="#E6F2FF" x="0.5" y="0.5" width="285" height="301" rx="8"></rect>
                    <rect id="矩形" stroke="url(#linearGradient-1)" fill-opacity="0.21" fill="#E6F2FF" x="0.5" y="0.5" width="285" height="301" rx="8"></rect>
                    <g id="编组-12" transform="translate(51.000000, 89.000000)">
                        <text id="流程演练" opacity="0.903918312" font-family="PingFangSC-Regular, PingFang SC" font-size="16" font-weight="normal" fill="#04223E">
                            <tspan x="0" y="78">流程演练</tspan>
                        </text>
                        <rect id="矩形" fill="url(#linearGradient-2)" x="5" y="0" width="54" height="54" rx="27"></rect>
                        <g id="异步流程" transform="translate(17.000000, 12.000000)" fill="#FFFFFF" fill-rule="nonzero">
                            <rect id="矩形" opacity="0" x="0" y="0" width="30" height="30"></rect>
                            <path d="M12.1875,3.5625 C11.25,5.0625 11.8125,7.125 13.5,8.0625 C15,9 17.0625,8.4375 18,6.9375 C18.9375,5.4375 18.375,3.375 16.875,2.4375 C16.125,2.0625 15.1875,1.875 14.4375,2.0625 C13.3125,2.25 12.5625,2.8125 12.1875,3.5625 Z M27.1875,19.5 C26.0625,18.375 24.5625,18.1875 23.25,18.9375 C21.9375,19.6875 21.375,21.1875 21.75,22.5 C21.9375,23.25 22.5,24 23.25,24.5625 C24.75,25.5 26.8125,24.9375 27.75,23.4375 C28.5,22.3125 28.3125,20.625 27.1875,19.5 Z M23.625,16.3125 C24.375,16.125 25.3125,16.125 26.0625,16.3125 L26.0625,9.375 L20.4375,6.75 C20.25,7.5 19.6875,8.25 19.125,8.8125 L23.625,10.6875 L23.625,16.3125 L23.625,16.3125 Z M2.0625,22.6875 C2.25,23.4375 2.8125,24.1875 3.5625,24.75 C4.3125,25.125 5.25,25.3125 6,25.125 C6.75,24.9375 7.5,24.375 8.0625,23.625 C8.625,22.6875 8.625,21.375 8.0625,20.4375 C7.5,19.5 6.375,18.75 5.25,18.75 C4.125,18.75 3,19.3125 2.4375,20.4375 C1.875,21 1.6875,21.75 2.0625,22.6875 L2.0625,22.6875 Z M6.375,16.3125 L6.375,10.875 L10.6875,9 C10.125,8.4375 9.75,7.6875 9.375,6.9375 L3.75,9.5625 L3.75,16.5 C4.875,16.125 5.625,16.125 6.375,16.3125 L6.375,16.3125 Z M15,25.3125 L10.6875,23.4375 C10.5,23.8125 10.3125,24.375 10.125,24.75 C9.9375,25.125 9.75,25.3125 9.5625,25.6875 L15.1875,28.125 L20.8125,25.6875 C20.25,25.125 19.875,24.375 19.5,23.625 L15,25.3125 Z" id="形状"></path>
                        </g>
                    </g>
                    <g id="编组-12备份" transform="translate(171.000000, 89.000000)">
                        <text id="需求听诊" opacity="0.903918312" font-family="PingFangSC-Regular, PingFang SC" font-size="16" font-weight="normal" fill="#04223E">
                            <tspan x="0" y="78">需求听诊</tspan>
                        </text>
                        <rect id="矩形" fill="url(#linearGradient-2)" x="5" y="0" width="54" height="54" rx="27"></rect>
                        <g id="智能制造诊断" transform="translate(17.000000, 12.000002)" fill="#FFFFFF" fill-rule="nonzero">
                            <rect id="矩形" opacity="0" x="0" y="0" width="29.9988816" height="29.9988816"></rect>
                            <g id="编组-13" transform="translate(2.000000, 1.999998)">
                                <path d="M24.6933212,25.1785668 L19.9638411,20.3479353 C23.0556854,16.7129113 23.7846597,11.564154 21.8280526,7.18097946 C19.8714455,2.79780487 15.5906455,-0.0102076361 10.8807304,0 C6.39245676,0.00197182202 2.27895657,2.56152251 0.212836568,6.63793082 C0.0180473389,6.97747313 0.0224682462,7.39931332 0.224328719,7.7345046 C0.426189192,8.06969588 0.792482796,8.26343074 1.17650911,8.23811846 C1.56053543,8.21280618 1.89950188,7.9725856 2.05765257,7.61366495 C4.1637853,3.4487346 8.78089982,1.29764419 13.2344283,2.40646143 C17.6879567,3.51527867 20.8226386,7.59637255 20.8226386,12.2856773 C20.8226386,16.9749821 17.6879567,21.0560759 13.2344283,22.1648932 C8.78089982,23.2737104 4.1637853,21.12262 2.05765257,16.9576897 C1.7842096,16.4542573 1.16883736,16.2648596 0.669286143,16.5303818 C0.16973493,16.7959039 -0.0325793834,17.4199195 0.212836568,17.9382488 C2.27630639,22.0193614 6.39276214,24.5818413 10.8839003,24.5809504 C13.6481242,24.5853163 16.3285765,23.6104537 18.4698505,21.8219907 L23.2165457,26.6798321 C23.4780334,26.9534648 23.8630186,27.0623358 24.2247481,26.9649443 C24.5864776,26.8675527 24.8692107,26.5789063 24.9651718,26.2090346 C25.0611329,25.839163 24.9555348,25.4450614 24.6886308,25.1769584 L24.6933212,25.1785668 Z" id="路径"></path>
                                <path d="M7.10345007,9.82631684 L11.6856726,17.6626692 C11.8524751,17.947788 12.1533508,18.1223698 12.4781415,18.1224958 C12.504749,18.1240948 12.5314252,18.1240948 12.5580327,18.1224958 C12.908438,18.0880867 13.2106528,17.8561861 13.3410435,17.5216628 L15.0198404,13.0755561 L15.9594637,13.0755561 C16.4678521,13.0728091 16.878564,12.650392 16.878564,12.1302617 C16.878564,11.6101314 16.4678521,11.1877143 15.9594637,11.1849674 L14.3934163,11.1849674 C14.0123223,11.1806657 13.6680186,11.4169918 13.5273961,11.7793934 L12.3011954,15.0270507 L7.91625254,7.53356442 C7.75179224,7.25053646 7.45503337,7.07566968 7.13321598,7.07215445 C6.81264676,7.07159915 6.51391988,7.23828588 6.34079865,7.51431709 L3.60174273,11.9572599 L0.919100292,11.9572599 C0.410711924,11.9600068 0,12.3824239 0,12.9025542 C0,13.4226845 0.410711924,13.8451016 0.919100292,13.8478486 L4.10915475,13.8478486 C4.42706401,13.8493901 4.72318601,13.6827701 4.89216554,13.4072693 L7.10345007,9.82634321 L7.10345007,9.82631684 Z" id="路径"></path>
                            </g>
                        </g>
                    </g>
                    <g id="编组-12备份-3" transform="translate(51.000000, 199.000000)">
                        <text id="品牌传递" opacity="0.903918312" font-family="PingFangSC-Regular, PingFang SC" font-size="16" font-weight="normal" fill="#04223E">
                            <tspan x="0" y="78">品牌传递</tspan>
                        </text>
                        <rect id="矩形" fill="url(#linearGradient-2)" x="5" y="0" width="54" height="54" rx="27"></rect>
                        <g id="标签传播" transform="translate(17.000000, 12.000000)" fill="#FFFFFF" fill-rule="nonzero">
                            <rect id="矩形" opacity="0" x="0" y="0" width="30" height="30"></rect>
                            <polygon id="路径" opacity="0.01" points="0.121376953 0.0696972656 29.6598633 0.0696972656 29.6598633 29.6081543 0.121376953 29.6081543"></polygon>
                            <path d="M17.3506055,11.1922852 L17.988457,11.859668 L17.058457,12.748623 C17.5217556,13.4288415 17.658549,14.279868 17.4317559,15.0710113 C17.2049629,15.8621545 16.6380767,16.5114608 15.8847656,16.8429199 L15.8847656,22.8493652 C17.0833951,23.3772117 17.7484516,24.6724881 17.4789153,25.9541607 C17.209379,27.2358333 16.0789363,28.1535154 14.7692285,28.1538574 C13.6797095,28.1538574 12.6913889,27.5151537 12.2440137,26.5217218 C11.7966384,25.5282899 11.973356,24.3648481 12.6955371,23.5490625 L6.01570313,16.3578516 C5.0885662,17.1994203 3.71206924,17.3141568 2.65839857,16.6376962 C1.6047279,15.9612356 1.13606919,14.6619022 1.51533028,13.4685951 C1.89459137,12.275288 3.02740043,11.4849387 4.27827503,11.5409169 C5.52914962,11.5968951 6.58683366,12.4852716 6.85798828,13.7076855 L12.0646289,13.7076855 C12.2681486,12.7918475 12.9213829,12.0412547 13.8003593,11.7132607 C14.6793357,11.3852666 15.6645935,11.5244487 16.4183203,12.0830859 L17.3506055,11.1922852 L17.3506055,11.1922852 Z M12.0650684,14.9067773 L6.85798828,14.9067773 C6.82448922,15.0586006 6.77817074,15.2072784 6.71953125,15.3512402 L13.6753711,22.8397266 C14.0208978,22.6912042 14.3931337,22.6148668 14.7692285,22.6154004 L14.6842969,22.6168066 L14.6842969,17.0755371 C13.4180749,17.0364376 12.3396514,16.1434871 12.0650684,14.9067773 L12.0650684,14.9067773 Z M19.0190625,9.59818359 L19.6569141,10.2655664 L18.6553711,11.221875 L18.0179883,10.5544922 L19.0190625,9.59818359 L19.0190625,9.59818359 Z M20.6875195,8.00402344 L21.3253711,8.67140625 L20.3238574,9.62771484 L19.6864746,8.96033203 L20.6875488,8.00402344 L20.6875195,8.00402344 Z M22.3559766,6.40939453 L22.9938574,7.07677734 L21.9923145,8.03355469 L21.3549316,7.36617188 L22.3560059,6.40942383 L22.3559766,6.40939453 Z M25.3846582,1.38462888 C26.5885548,1.38474665 27.6544699,2.16264968 28.0217031,3.30916913 C28.3889363,4.45568857 27.9733435,5.70812249 26.9935378,6.40765652 C26.0137321,7.10719056 24.6942164,7.09354053 23.7290918,6.37388672 L23.6612695,6.43942383 L23.023418,5.77204102 L23.0912695,5.70650391 C22.5166192,4.85783579 22.4577011,3.76117494 22.9381167,2.85582341 C23.4185324,1.95047188 24.3597091,1.38450126 25.3846289,1.38462888 L25.3846582,1.38462888 Z" id="形状"></path>
                        </g>
                    </g>
                    <g id="编组-12备份-2" transform="translate(171.000000, 199.000000)">
                        <text id="顾问排名" opacity="0.903918312" font-family="PingFangSC-Regular, PingFang SC" font-size="16" font-weight="normal" fill="#04223E">
                            <tspan x="0" y="78">顾问排名</tspan>
                        </text>
                        <rect id="矩形" fill="url(#linearGradient-2)" x="5" y="0" width="54" height="54" rx="27"></rect>
                        <g id="我的顾问" transform="translate(17.000000, 12.000002)" fill="#FFFFFF" fill-rule="nonzero">
                            <rect id="矩形" opacity="0" x="0" y="0" width="29.9889739" height="29.9889739"></rect>
                            <path d="M15.1391603,3.98853353 C11.3658211,3.98853353 8.30694576,7.04740886 8.30694576,10.8207188 C8.30694576,14.5940287 11.3658211,17.6529333 15.1397167,17.6529333 C18.9124702,17.6529333 21.9719313,14.594058 21.9719313,10.8207188 C21.9719313,7.04737958 18.9124702,3.9879478 15.139131,3.9879478 L15.1391603,3.98853353 Z M15.1391603,6.34060324 C16.7424799,6.33651868 18.2257653,7.18952622 19.0286108,8.57736255 C19.8314563,9.96519888 19.8314563,11.676268 19.0286108,13.0641043 C18.2257653,14.4519406 16.7424799,15.3049482 15.1391603,15.3008636 C12.6693329,15.2945342 10.6704847,13.2905689 10.6704847,10.8207334 C10.6704847,8.35089796 12.6693329,6.34693265 15.1391603,6.34060324 Z" id="形状"></path>
                            <path d="M15.1391603,15.3008196 C20.7435548,15.3008196 25.4782691,19.8050815 26.6049349,25.9228322 L26.643739,26.1421558 L24.3245721,26.5337697 C23.452549,21.378009 19.5922301,17.6529333 15.1397167,17.6529333 C10.7495828,17.6529333 6.93509664,21.2739555 5.99307971,26.3167889 L5.95427562,26.5343847 L3.63510878,26.1421558 C4.68771005,19.9132937 9.46831564,15.3008196 15.1391603,15.3008196 Z" id="路径"></path>
                            <path d="M16.0999496,15.4019738 L13.8725362,15.4372636 L11.2217627,23.6848171 L12.3413706,25.220727 L17.9375357,25.220727 L19.0453413,23.6489417 L16.0993639,15.4019738 L16.0999496,15.4019738 Z M15.0503355,19.4575433 L16.2681397,22.8680569 L13.9542444,22.8680569 L15.0503063,19.4575433 L15.0503355,19.4575433 Z" id="形状"></path>
                        </g>
                    </g>
                    <text id="市场-需求调研-提升体验" opacity="0.982184274" font-family="PingFangSC-Semibold, PingFang SC" font-size="18" font-weight="500" fill="#061E42">
                        <tspan x="125" y="39">市场</tspan>
                        <tspan x="161" y="39" font-family="PingFangSC-Regular, PingFang SC" font-weight="normal"></tspan>
                        <tspan x="65.006" y="64" font-family="PingFangSC-Regular, PingFang SC" font-weight="normal">需求调研  提升体验</tspan>
                    </text>
                </g>
            </g>
        </g>
    </g>
</svg>