<?xml version="1.0" encoding="UTF-8" standalone="no"?>
<svg width="45px" height="42px" viewBox="0 0 45 42" version="1.1" xmlns="http://www.w3.org/2000/svg" xmlns:xlink="http://www.w3.org/1999/xlink">
    <!-- Generator: Sketch 50.2 (55047) - http://www.bohemiancoding.com/sketch -->
    <title>互动</title>
    <desc>Created with Sketch.</desc>
    <defs></defs>
    <g id="解决方案" stroke="none" stroke-width="1" fill="none" fill-rule="evenodd">
        <g id="直播" transform="translate(-150.000000, -102.000000)">
            <g id="互动" transform="translate(151.000000, 103.000000)">
                <path d="M37.9613867,26.8083442 C37.8861654,29.6326419 36.9605407,32.1639371 35.2340589,34.4005703 C33.5598285,36.5648537 31.2413056,38.1592046 28.5678429,38.9020466 C29.4103683,38.7305595 28.0285279,39.1684987 26.5582254,39.3242452 C26.3080258,39.3492784 26.0649449,39.3839361 25.8141283,39.3993923 C24.5170483,39.4900903 24.0894499,37.2516554 25.9514249,37.0249341 C27.1254458,36.8821309 28.1913095,36.6196613 29.202881,36.2455379 C29.6972531,36.1858943 31.3654563,35.1587736 32.6449293,33.7689081 C33.3910672,33.300436 34.6045733,31.507052 35.2112789,29.3199637 C35.461526,28.413742 35.623928,27.4890298 35.6179957,26.5452109 C35.612016,25.9330822 35.048877,22.5772552 36.4874774,21.1400258 C36.5686784,21.0589048 36.624774,20.9777365 36.7561857,21.1090661 C38.2091659,22.5713288 37.9899565,25.8018474 37.9612918,26.8083442 L37.9613867,26.8083442 Z" id="Shape" fill="#464646" fill-rule="nonzero"></path>
                <path d="M42.9896778,4.2064245 L42.9897253,4.18376185 C42.9897253,3.95590261 42.9738268,3.73174147 42.9431688,3.51227406 C42.6581823,1.59448254 40.8505944,0.00695890343 38.8804622,0.00695890343 C34.67073,0.00057416695 30.4609979,-0.00141711225 26.2512658,0.000985065832 C25.9973262,0.00190760729 25.7440634,0.0272152678 25.4949719,0.0765588526 C23.5795115,0.472870825 22.1299008,2.17678947 22.1259143,4.21965229 L22.1259143,12.9423086 L22.1258669,12.9629325 C22.1258669,13.1739133 22.1417654,13.3812908 22.1723285,13.5837375 C22.4382367,15.5667197 24.2901031,17.1727338 26.2793136,17.1542908 C28.3694201,17.1358478 30.4512215,17.148317 32.5342094,17.148317 C34.6171972,17.148317 36.6876086,17.1423431 38.7646167,17.1542908 C39.45912,17.1602646 40.1094872,17.023056 40.7096436,16.6919347 C42.1428812,15.9044312 42.9676098,14.7046855 42.986688,13.0526823 C43.0147832,10.1054943 42.9896778,7.1559357 42.9896778,4.20637709 L42.9896778,4.2064245 Z" id="Path" stroke="#464646" stroke-width="2"></path>
                <path d="M20.8819875,27.2403096 C20.8883322,26.9309169 20.8682958,26.6215463 20.8220952,26.31555 C20.4943489,24.3331368 18.6550589,22.8338458 16.73509,22.8457935 C14.6395732,22.8642365 12.5506531,22.8517673 10.4551363,22.8517673 C8.32198512,22.8517673 6.18949838,22.8577411 4.049798,22.8517673 L4.04415047,22.8517673 C3.8000255,22.8517673 3.56230737,22.8791711 3.33389106,22.9310392 C1.42711552,23.3582634 0.00692889713,25.0516567 0.00265765917,27.0771669 C-0.00332207397,29.969737 0.00265765917,32.8566652 0.00265765917,35.7495671 C0.00265765917,36.899199 0.409374429,37.8931792 1.21611636,38.7176162 C1.97929167,39.4985769 2.90496385,39.9799924 4.00613646,39.9859662 C8.30344479,40.0046779 12.59857,40.0046779 16.8915122,39.9859662 C18.0362989,39.9799924 18.999558,39.4609323 19.768713,38.6239313 C20.5569937,37.7678234 20.8944215,36.7494264 20.8883943,35.5867089 C20.8776213,32.807784 20.8901503,30.0210836 20.8818451,27.240357 L20.8819875,27.2403096 Z" id="Path" stroke="#464646" stroke-width="2"></path>
                <path d="M35.2342456,25.2517596 L33.0350616,27.8942633 C33.0350616,27.8942633 32.4060711,28.7394454 31.6206684,28.2506313 C30.5320437,27.5747122 31.133828,26.6950734 31.133828,26.6950734 L35.0429078,21.9346111 C35.0429078,21.9346111 35.7335595,21.177931 36.6799871,21.2432573 C37.7620692,21.3180709 38.3686076,22.3948686 38.3686076,22.3948686 L41.8826797,27.3542833 C41.8826797,27.3542833 42.2973155,28.0272287 41.5675961,28.6544363 C40.7549872,29.3552776 40.2219244,28.7731942 40.2219244,28.7731942 L37.4973971,25.2214093 L35.2395645,25.2499187 L35.2342456,25.2517596 Z" id="Shape" fill="#464646" fill-rule="nonzero"></path>
                <path d="M5.01963618,13.7785522 L5.01963618,13.7669407 C5.01963618,12.5862536 5.18946316,11.4453569 5.50595888,10.3674736 C6.16686257,8.08199861 7.40182661,6.04772759 9.22548963,4.38053917 C11.0337609,2.72935191 13.1340047,1.68465098 15.5251383,1.21778536 C16.2311817,1.08637763 17.046756,1.00807108 17.8794165,1.00184054 C18.3165986,0.927310074 18.775668,3.13971787 16.9839652,3.38270889 C15.9592609,3.5217632 14.9666109,3.71231385 14.0053564,4.08595739 C12.138154,4.83829499 10.5902244,6.05575177 9.45645996,7.59814061 C9.26229803,7.48688773 8.14284269,9.33395936 7.65501377,11.4247772 C7.72086408,10.7994105 7.37862131,12.2216726 7.3367294,13.7193621 C7.35809899,13.2440475 7.34562555,13.5671859 7.34562555,13.8843298 C7.34562555,14.4378565 7.89761028,17.7663804 6.47083778,19.197186 C6.3837591,19.2845079 6.33461848,19.3528078 6.20371803,19.2221081 C4.76150672,17.7598195 5.0155882,14.4545657 5.01973032,13.7785994 L5.01963618,13.7785522 Z" id="Path" fill="#E81A23"></path>
                <path d="M7.7435951,14.8637656 L9.93868562,12.138307 C9.93868562,12.138307 10.5658342,11.2664057 11.3489369,11.770673 C12.434937,12.467376 11.8343517,13.371707 11.8343517,13.371707 L7.93671914,18.2826647 C7.93671914,18.2826647 7.24808998,19.0632662 6.30443384,18.9958747 C5.22552048,18.9186959 4.62075831,17.8078568 4.62075831,17.8078568 L1.11697672,12.6977437 C1.11697672,12.6977437 0.703555177,12.0035241 1.43113767,11.3564882 C2.24131999,10.6334908 2.77286867,11.233976 2.77286867,11.233976 L5.48941755,14.8980456 L7.74063841,14.8686349 L7.7435951,14.8637656 Z" id="Shape" fill="#E81A23" fill-rule="nonzero"></path>
                <polygon id="Path" fill="#E81A23" points="9.8412787 27 11.3061224 27 11.0365912 33 10.1108099 33"></polygon>
                <path d="M10.501035,34 C10.7947413,34 11.0464895,34.0839161 11.2422937,34.2797203 C11.4380979,34.4615385 11.536,34.6993007 11.536,34.993007 C11.536,35.2867133 11.4380979,35.5244755 11.2422937,35.7202797 C11.0325035,35.9020979 10.7807552,36 10.501035,36 C10.2213147,36 9.98355245,35.9020979 9.78774825,35.7062937 C9.57795804,35.5104895 9.48005594,35.2727273 9.48005594,34.993007 C9.48005594,34.6993007 9.57795804,34.4615385 9.78774825,34.2797203 C9.98355245,34.0839161 10.2213147,34 10.501035,34 Z" id="Path" fill="#E81A23"></path>
            </g>
        </g>
    </g>
</svg>