<svg xmlns="http://www.w3.org/2000/svg" viewBox="0 0 42 40"><defs><style>.cls-1{fill:none;stroke:#464646;stroke-width:2px;}.cls-2{fill:#e81a23;}</style></defs><title>资源 2</title><g id="图层_2" data-name="图层 2"><g id="图层_1-2" data-name="图层 1"><g id="解决方案"><g id="直播"><g id="发布-3"><path id="Shape" class="cls-1" d="M13.6,39a1.68,1.68,0,0,1-1.67-1.57L11.33,26,1.79,20.08A1.63,1.63,0,0,1,2,17.17l36.65-16a1.68,1.68,0,0,1,1.65.17A1.62,1.62,0,0,1,41,2.81l-3.3,34.62a1.66,1.66,0,0,1-.86,1.3,1.71,1.71,0,0,1-1.57,0L22.89,32.43l-8.28,6.23A1.68,1.68,0,0,1,13.6,39Z"/><path id="Shape-2" data-name="Shape" class="cls-2" d="M19.36,25.8a1.16,1.16,0,0,1-.09-1.87L32,11.1c.63-.63,1.14-.54,1.79.07s.39.88-.24,1.52L20.83,25.51C20.52,25.82,19.68,26.09,19.36,25.8Z"/></g></g></g></g></g></svg>