<svg xmlns="http://www.w3.org/2000/svg" viewBox="0 0 47 40"><defs><style>.cls-1,.cls-3{fill:#464646;}.cls-2{fill:none;stroke:#e71a22;}.cls-3{stroke:#464646;stroke-width:0.3px;}</style></defs><title>资源 1</title><g id="图层_2" data-name="图层 2"><g id="图层_1-2" data-name="图层 1"><g id="官网"><g id="首页"><g id="Group-7"><g id="媒体号对比"><path id="Shape" class="cls-1" d="M36.29,40a.93.93,0,0,1-.92-.94V17L32.7,21a.89.89,0,0,1-1.27.24.94.94,0,0,1-.24-1.3l4.34-6.54a.91.91,0,0,1,.76-.41.92.92,0,0,1,.28,0,.94.94,0,0,1,.64.9V39.06a.93.93,0,0,1-.92.94Zm5.45,0a1.26,1.26,0,0,1-.28,0,.94.94,0,0,1-.64-.9V13.92a.92.92,0,1,1,1.84,0V36l2.66-4a.91.91,0,0,1,1.28-.24,1,1,0,0,1,.24,1.31L42.5,39.59a.92.92,0,0,1-.76.41Z"/><path id="Shape-2" data-name="Shape" class="cls-1" d="M35,0H2.41A2.42,2.42,0,0,0,0,2.43V36.48a2.42,2.42,0,0,0,2.41,2.44H32.76c.39,0,.58-.29.58-.86s-.19-.9-.58-1H2.41a.59.59,0,0,1-.6-.61v-34a.61.61,0,0,1,.6-.61H35a.6.6,0,0,1,.6.61v8.89c0,.29.45.5.85.5s1-.14,1-.5V2.43A2.42,2.42,0,0,0,35,0Z"/></g><path id="Shape-3" data-name="Shape" class="cls-2" d="M25.42,23,14.75,17.15a1.17,1.17,0,0,0-1.75,1V29.88a1.17,1.17,0,0,0,1.75,1L25.42,25A1.09,1.09,0,0,0,25.42,23Z"/><path id="Shape-4" data-name="Shape" class="cls-1" d="M25,11a1,1,0,0,0,1-1,1,1,0,0,0-1-1,1,1,0,0,0-1,1A1,1,0,0,0,25,11Z"/><rect id="Rectangle" class="cls-3" x="0.85" y="9.85" width="21.3" height="1.3" rx="0.65" ry="0.65"/><rect id="Rectangle-Copy" class="cls-3" x="27.85" y="9.85" width="9.3" height="1.3" rx="0.65" ry="0.65"/></g></g></g></g></g></svg>