<?xml version="1.0" encoding="UTF-8" standalone="no"?>
<svg width="46px" height="46px" viewBox="0 0 46 46" version="1.1" xmlns="http://www.w3.org/2000/svg" xmlns:xlink="http://www.w3.org/1999/xlink">
    <!-- Generator: Sketch 50.2 (55047) - http://www.bohemiancoding.com/sketch -->
    <title>Group</title>
    <desc>Created with Sketch.</desc>
    <defs></defs>
    <g id="解决方案" stroke="none" stroke-width="1" fill="none" fill-rule="evenodd">
        <g id="直播" transform="translate(-90.000000, -98.000000)">
            <g id="Group" transform="translate(91.000000, 99.000000)">
                <g id="录制--常态">
                    <path d="M33.7552341,28.9349801 L33.2512659,28.7837896 C32.6727105,28.5567016 32.2948351,28.3738115 31.6233479,28.0228481 L28.3454381,25.961467 L28.3454381,28.9014158 C28.3454381,30.0333788 27.548614,30.9511552 26.4110066,30.9511552 L10.2988417,30.9511552 C9.16118391,30.9511552 8.14861106,30.0333284 8.14861101,28.9014158 L8.14861101,15.073033 C8.14861101,13.9410197 9.16118386,13.0232936 10.2988417,13.0232936 L26.4110066,13.0232936 C27.5486644,13.0232936 28.3454381,13.9410197 28.3454381,15.073033 L28.3454381,17.4115461 L31.6216344,15.3522818 C32.188649,14.9950692 32.6119319,14.752862 33.1168576,14.5635212 C34.057615,14.2107435 35.8428719,14.4241236 35.8428719,17.8750961 L35.8448373,25.4989755 C35.8448373,28.9982785 35.485508,29.2205789 33.7552341,28.9349801 Z M26.0740535,14.6666835 L11.4074204,14.6666835 L10.3296845,14.6634077 C9.93769803,14.6634077 9.78504609,15.0960644 9.78504609,15.4767619 L9.7852981,23.866421 C9.82758104,25.8244381 9.79915722,24.1661308 9.7852981,26.2982186 L9.78449175,28.608056 C9.78449175,29.0028142 10.1074849,29.322834 10.5058718,29.322834 L25.5764354,29.3361891 L26.2344666,29.3361891 C26.6236308,29.3361891 26.8924475,29.0699932 26.8924474,28.6752853 L26.8924474,24.9105926 L26.8850391,24.9059561 L26.8850391,22.0045609 C26.8891716,22.0148418 26.8881133,22.0248708 26.8925482,22.0351014 L26.8932034,21.4624424 C26.8883149,21.4736305 26.889474,21.484365 26.8850391,21.4954523 L26.8889701,18.7407118 L26.899503,15.3551544 C26.8994022,14.9792949 26.3912007,14.7666708 26.0740535,14.6666835 Z M34.2267971,17.581585 C34.2267971,17.1945374 34.1673793,16.2948534 33.6145262,16.2948535 C33.4189865,16.2948535 33.1841373,16.3948912 32.9341691,16.5855927 L28.5236412,19.6956307 L28.5236412,23.4979698 L32.9220739,26.6288217 C33.1732013,26.8079824 33.4112758,26.9021237 33.6095369,26.9021237 C34.1681856,26.9021237 34.2282082,26.0553563 34.2282082,25.6925497 L34.2267971,17.581585 Z" id="Shape" fill="#464646" fill-rule="nonzero"></path>
                    <path d="M15.005602,21.4973164 C13.7633636,21.4973164 12.7562046,20.4952292 12.7562045,19.2591347 C12.7562045,18.0229578 13.7633636,17.0208706 15.005602,17.0208706 C16.2478817,17.0208706 17.2549995,18.0229578 17.2549995,19.2591347 C17.2549995,20.4952292 16.247923,21.4973164 15.005602,21.4973164 Z" id="Path" stroke="#E81A23"></path>
                    <path d="M21.9999748,44 C9.84970522,44 0,34.1502948 0,22.0000252 C0,9.84975565 9.84970522,0 21.9999748,0 C34.1502444,0 44,9.84975565 44,22.0000252 C44,34.1502948 34.1502444,44 21.9999748,44 Z" id="Path" stroke="#464646" stroke-width="2"></path>
                </g>
                <polygon id="x" fill="#E81A23" points="30.1334623 20 30.8529981 20 31.5145068 20.9516441 32.1702128 20 32.8897485 20 31.8510638 21.4042553 33.0174081 23 32.2978723 23 31.5145068 21.8568665 30.7253385 23 30 23 31.172147 21.4042553"></polygon>
            </g>
        </g>
    </g>
</svg>