<?xml version="1.0" encoding="UTF-8" standalone="no"?>
<svg width="46px" height="46px" viewBox="0 0 46 46" version="1.1" xmlns="http://www.w3.org/2000/svg" xmlns:xlink="http://www.w3.org/1999/xlink">
    <!-- Generator: Sketch 50.2 (55047) - http://www.bohemiancoding.com/sketch -->
    <title>婚庆</title>
    <desc>Created with Sketch.</desc>
    <defs></defs>
    <g id="解决方案" stroke="none" stroke-width="1" fill="none" fill-rule="evenodd">
        <g id="直播" transform="translate(-147.000000, -151.000000)">
            <g id="婚庆" transform="translate(147.000000, 151.000000)">
                <path d="M44.0078309,13.6236486 C43.4224719,14.1213738 42.7373143,14.5052327 41.9862583,14.7403449 C43.0885412,17.2705968 43.7000173,20.0638654 43.7000173,23 C43.7000173,34.4322856 34.4322856,43.7000173 23,43.7000173 C11.5677144,43.7000173 2.2999827,34.4322856 2.2999827,23 C2.2999827,11.5677144 11.5677144,2.2999827 23,2.2999827 C27.5726952,2.2999827 31.7989487,3.78283822 35.2245064,6.29371849 C35.6149955,5.61997629 36.1370506,5.03208057 36.7555605,4.56502721 C32.9191619,1.69784651 28.1578811,0 23,0 C10.2974284,0 0,10.2974284 0,23 C0,35.7025716 10.2974284,46 23,46 C35.7025716,46 46,35.7025716 46,23 C46,19.6604618 45.287918,16.4873124 44.0078309,13.6236486 Z M40.2500144,12.6499914 C42.1554722,12.6499914 43.7000173,11.1054463 43.7000173,9.19998847 C43.7000173,7.29453066 42.1554722,5.74998559 40.2500144,5.74998559 C38.3445566,5.74998559 36.8000115,7.29453066 36.8000115,9.19998847 C36.8000115,11.1054463 38.3445566,12.6499914 40.2500144,12.6499914 Z" id="Shape" fill="#464646" fill-rule="nonzero"></path>
                <path d="M21.8697551,14.9499741 L14.9499741,14.9499741 L11.4999712,20.6999596 L22.999827,34.4999712 L34.4997982,20.6999596 L31.0499106,14.9499741 L24.2928863,14.9499741 C24.2112485,15.2186984 24.1499049,15.4368027 24.1498472,15.5249553 L24.1498472,20.1249784 C24.1498472,20.4424778 23.8924807,20.6999596 23.574866,20.6999596 L22.4248458,20.6999596 C22.1073463,20.6999596 21.8498645,20.4424778 21.8498645,20.1249784 L21.8498645,15.525013 C21.8498645,15.4121845 21.8524013,15.1898138 21.8697551,14.9499741 Z" id="Path" stroke="#E81A23" stroke-width="1.5"></path>
            </g>
        </g>
    </g>
</svg>