<?xml version="1.0" encoding="UTF-8" standalone="no"?>
<svg width="54px" height="44px" viewBox="0 0 54 44" version="1.1" xmlns="http://www.w3.org/2000/svg" xmlns:xlink="http://www.w3.org/1999/xlink">
    <!-- Generator: Sketch 50.2 (55047) - http://www.bohemiancoding.com/sketch -->
    <title>传播</title>
    <desc>Created with Sketch.</desc>
    <defs></defs>
    <g id="解决方案" stroke="none" stroke-width="1" fill="none" fill-rule="evenodd">
        <g id="直播" transform="translate(-201.000000, -41.000000)">
            <g id="传播" transform="translate(202.000000, 42.000000)">
                <path d="M44.9875519,20.9982317 C44.9875519,16.8631685 43.719917,12.8641272 41.2925311,9.49078614 C40.7261411,8.70185961 39.6473029,8.53863343 38.8651452,9.0827207 C38.0829876,9.65401232 37.9211618,10.7421868 38.4605809,11.5311134 C40.4564315,14.3331628 41.5082988,17.5976863 41.5082988,20.9982317 C41.5082988,24.3987771 40.4564315,27.690505 38.4605809,30.4653501 C37.8941909,31.2542766 38.0829876,32.3424511 38.8651452,32.9137427 C39.1618257,33.1313776 39.5124481,33.2401951 39.8630705,33.2401951 C40.4024896,33.2401951 40.9419087,32.9953558 41.2655602,32.5056773 C43.746888,29.1323363 44.9875519,25.1332949 44.9875519,20.9982317 Z M12.9460581,9.0827207 C12.1639004,8.51142907 11.0850622,8.70185961 10.5186722,9.49078614 C8.09128631,12.8641272 6.82365145,16.8359642 6.82365145,20.9982317 C6.82365145,25.1604993 8.09128631,29.1323363 10.5186722,32.5056773 C10.8423237,32.9681515 11.3817427,33.2401951 11.9211618,33.2401951 C12.2717842,33.2401951 12.6493776,33.1313776 12.9190871,32.9137427 C13.7012448,32.3424511 13.8630705,31.2542766 13.3236515,30.4653501 C11.3278008,27.690505 10.2759336,24.3987771 10.2759336,20.9982317 C10.2759336,17.5976863 11.3547718,14.3059584 13.3236515,11.503909 C13.8900415,10.7421868 13.7012448,9.62680796 12.9460581,9.0827207 Z M44.3941909,0.59495942 C43.746888,-0.139558383 42.6680498,-0.193967109 41.939834,0.431733242 C41.2116183,1.05743359 41.1576763,2.17281248 41.7780083,2.90733028 C46.1473029,7.94013745 48.5477178,14.3603671 48.5477178,20.9982317 C48.5477178,27.6360963 46.1473029,34.056326 41.7780083,39.0891332 C41.1576763,39.823651 41.2116183,40.9118255 41.939834,41.5647302 C42.2634855,41.8367738 42.6680498,42 43.0726141,42 C43.5580913,42 44.0435685,41.8095695 44.3672199,41.401504 C49.3029046,35.7429965 52,28.4794316 52,20.9982317 C52,13.5170319 49.3029046,6.25346694 44.3941909,0.59495942 Z M3.47925311,20.9982317 C3.47925311,14.3603671 5.87966805,7.94013745 10.2489627,2.90733028 C10.8692946,2.17281248 10.8153527,1.08463796 10.0871369,0.431733242 C9.35892116,-0.193967109 8.28008299,-0.139558383 7.63278008,0.59495942 C2.69709544,6.25346694 0,13.5170319 0,20.9982317 C0,28.4794316 2.69709544,35.7429965 7.63278008,41.401504 C7.98340249,41.8095695 8.44190871,42 8.92738589,42 C9.35892116,42 9.76348548,41.8367738 10.060166,41.5647302 C10.7883817,40.9390298 10.8423237,39.823651 10.2219917,39.0891332 C5.87966805,34.056326 3.47925311,27.6360963 3.47925311,20.9982317 Z M26.0809129,8.75626834 C19.3921162,8.75626834 13.9439834,14.2515497 13.9439834,20.9982317 C13.9439834,24.4531858 15.4273859,27.7721181 17.9896266,30.1116933 C18.6908714,30.7645981 19.7966805,30.682985 20.4439834,29.9756715 C21.0912863,29.2683581 21.0103734,28.1529792 20.3091286,27.5000745 C18.4751037,25.8406083 17.4232365,23.4738288 17.4232365,20.9982317 C17.4232365,16.1830595 21.3070539,12.2384268 26.1078838,12.2384268 C30.9087137,12.2384268 34.7925311,16.1558551 34.7925311,20.9982317 C34.7925311,25.8406083 30.8547718,29.7308323 26.0809129,29.7308323 L25.4605809,29.7308323 C24.7323651,29.7308323 24.0580913,30.1933064 23.8153527,30.9006199 C23.4107884,32.0976118 22.7365145,33.158582 21.846473,34.0835303 C21.1721992,34.7636394 21.1991701,35.8790183 21.873444,36.5591274 C22.1970954,36.8855797 22.6286307,37.0488059 23.0871369,37.0488059 C23.5456432,37.0488059 23.9771784,36.8855797 24.3278008,36.531923 C25.2717842,35.552566 26.026971,34.4371871 26.593361,33.2401951 C33.0394191,32.9409471 38.1639004,27.5816876 38.1639004,20.9982317 C38.2178423,14.2243453 32.7697095,8.75626834 26.0809129,8.75626834 Z" id="Shape" stroke="#FFFFFF" fill="#464646" fill-rule="nonzero"></path>
                <path d="M25.7509976,17.7717143 L27.05712,17.7717143 L26.8167935,23.1215918 L25.9913241,23.1215918 L25.7509976,17.7717143 Z M26.3988343,23.7380816 C26.6182629,23.7380816 26.8063445,23.8007755 26.9526303,23.9470612 C27.098916,24.082898 27.1720588,24.2605306 27.1720588,24.4799592 C27.1720588,24.6993878 27.098916,24.8770204 26.9526303,25.0233061 C26.7958956,25.1591429 26.6078139,25.2322857 26.3988343,25.2322857 C26.1898547,25.2322857 26.0122221,25.1591429 25.8659364,25.0128571 C25.7092017,24.8665714 25.6360588,24.6889388 25.6360588,24.4799592 C25.6360588,24.2605306 25.7092017,24.082898 25.8659364,23.9470612 C26.0122221,23.8007755 26.1898547,23.7380816 26.3988343,23.7380816 Z" id="！" stroke="#E81A23" stroke-width="0.4" fill="#E81A23"></path>
            </g>
        </g>
    </g>
</svg>