<?xml version="1.0" encoding="UTF-8" standalone="no"?>
<svg width="47px" height="44px" viewBox="0 0 47 44" version="1.1" xmlns="http://www.w3.org/2000/svg" xmlns:xlink="http://www.w3.org/1999/xlink">
    <!-- Generator: Sketch 50.2 (55047) - http://www.bohemiancoding.com/sketch -->
    <title>会展项目</title>
    <desc>Created with Sketch.</desc>
    <defs></defs>
    <g id="解决方案" stroke="none" stroke-width="1" fill="none" fill-rule="evenodd">
        <g id="直播" transform="translate(-204.000000, -153.000000)">
            <g id="会展项目" transform="translate(204.000000, 153.000000)">
                <path d="M45.7313947,41.4856288 L40.0952718,41.4856288 L40.0952718,20.1142216 L44.1658326,20.1142216 C44.791958,20.1142216 45.4183319,19.4857535 45.4183319,18.857036 C45.4183319,18.2283185 44.791958,17.5998504 44.1658326,17.5998504 L2.83434779,17.5998504 C2.20822235,17.5998504 1.58184844,18.2285679 1.58184844,18.857036 C1.58184844,19.4855041 2.20822235,20.1142216 2.83434779,20.1142216 L6.90490857,20.1142216 L6.90490857,41.4856288 L1.26878572,41.4856288 C0.642411808,41.4856288 0.0162863627,42.1143463 0.0162863627,42.7428144 C0.0162863627,43.3712825 0.64266027,44 1.26878572,44 L45.7313947,44 C46.3577686,44 46.983894,43.3712825 46.983894,42.7428144 C46.983894,42.1143463 46.3575201,41.4856288 45.7313947,41.4856288 Z M37.5902731,41.4856288 L29.9189941,41.4856288 L29.9189941,20.1142216 L37.5902731,20.1142216 L37.5902731,41.4856288 Z M27.4139954,41.4856288 L19.7424679,41.4856288 L19.7424679,20.1142216 L27.4137469,20.1142216 L27.4137469,41.4856288 L27.4139954,41.4856288 Z M9.40990728,20.1142216 L17.0811863,20.1142216 L17.0811863,41.4856288 L9.40990728,41.4856288 L9.40990728,20.1142216 Z" id="Shape" fill="#464646" fill-rule="nonzero"></path>
                <path d="M1.89491116,14.6143775 C0.0162863627,14.6143775 -0.766618906,11.9428892 0.955722993,10.9996883 L21.6208442,0.471351082 C22.2472181,0.157117027 22.8733436,0 23.4997175,0 C24.1260914,0 24.7522168,0.157117027 25.3785908,0.471351082 L46.0442089,11.1570547 C47.7665508,12.1000062 46.983894,14.6143775 45.1050208,14.6143775 L1.89491116,14.6143775 Z M22.7173091,2.67123886 L4.55644123,11.9426398 L42.600022,11.9426398 L24.2826228,2.67123886 C23.96956,2.51412183 23.8132771,2.51412183 23.499966,2.51412183 C23.1869032,2.51412183 22.8738405,2.51412183 22.7173091,2.67123886 Z" id="Combined-Shape" fill="#E81A23"></path>
            </g>
        </g>
    </g>
</svg>