<?xml version="1.0" encoding="UTF-8" standalone="no"?>
<svg width="48px" height="47px" viewBox="0 0 48 47" version="1.1" xmlns="http://www.w3.org/2000/svg" xmlns:xlink="http://www.w3.org/1999/xlink">
    <!-- Generator: Sketch 50.2 (55047) - http://www.bohemiancoding.com/sketch -->
    <title>解决方案03-1视频行业-技术门槛</title>
    <desc>Created with Sketch.</desc>
    <defs></defs>
    <g id="解决方案" stroke="none" stroke-width="1" fill="none" fill-rule="evenodd">
        <g id="直播" transform="translate(-143.000000, -40.000000)" fill-rule="nonzero">
            <g id="解决方案03-1视频行业-技术门槛" transform="translate(144.000000, 41.000000)">
                <path d="M23.0008993,45 C10.3178495,45 0,34.9065 0,22.5 C0,10.0935 10.3178495,0 23.0008993,0 C35.6830499,0 46,10.0935 46,22.5 C46,34.9065 35.6830499,45 23.0008993,45 Z" id="Shape" stroke="#464646" stroke-width="2"></path>
                <path d="M20.2927807,28.9999965 C20.1099759,28.9999965 19.9320589,28.9489194 19.776626,28.8526587 L16.459745,26.7683204 C16.2392087,26.6315749 16.0827635,26.41136 16.0257058,26.1573597 C15.9662119,25.9034407 16.0109594,25.636147 16.1498567,25.4157596 C16.4424518,24.9655728 17.0365389,24.8277185 17.4959648,25.1034035 L20.8118682,27.1857774 C21.0327981,27.3232926 21.1872535,27.539388 21.2459074,27.7957558 C21.3045614,28.0521235 21.2615485,28.315367 21.1227341,28.5383381 C20.9443116,28.8262512 20.6303288,29.0009029 20.2927807,28.9999965 Z M16.9768774,25.9353708 L20.2927807,28.0177447 L20.2937583,28.0177447 L16.9768774,25.9353708 Z M26.346846,28.3458168 C26.2334186,28.3455494 26.1209191,28.325269 26.0144736,28.2858994 C25.7692885,28.1976934 25.5698299,28.0139208 25.4611714,27.7761107 C25.3514644,27.540189 25.3402008,27.2699837 25.4298893,27.0256703 L28.1045094,19.6420835 C28.2961103,19.1391258 28.8500149,18.879311 29.3567713,19.0546969 C29.8633387,19.2401156 30.1248773,19.8026141 29.9413557,20.3119792 L27.2667355,27.6975306 C27.125966,28.0855201 26.7564461,28.3458168 26.346846,28.3458168 Z" id="Shape" fill="#464646"></path>
                <path d="M24,34 C21.794,34 20,32.206 20,30 C20,27.794 21.794,26 24,26 C26.206,26 28,27.794 28,30 C28,32.206 26.206,34 24,34 Z M24,28 C22.897,28 22,28.897 22,30 C22,31.103 22.897,32 24,32 C25.103,32 26,31.103 26,30 C26,28.897 25.103,28 24,28 Z M30,20 C27.794,20 26,18.206 26,16 C26,13.794 27.794,12 30,12 C32.206,12 34,13.794 34,16 C34,18.206 32.206,20 30,20 Z M30,14 C28.897,14 28,14.897 28,16 C28,17.103 28.897,18 30,18 C31.103,18 32,17.103 32,16 C32,14.897 31.103,14 30,14 Z" id="Shape" fill="#464646"></path>
                <path d="M14,27 C11.794,27 10,25.206 10,23 C10,20.794 11.794,19 14,19 C16.206,19 18,20.794 18,23 C18,25.206 16.206,27 14,27 Z M14,21 C12.897,21 12,21.897 12,23 C12,24.103 12.897,25 14,25 C15.103,25 16,24.103 16,23 C16,21.897 15.103,21 14,21 Z" id="Shape" fill="#E81A23"></path>
            </g>
        </g>
    </g>
</svg>