<svg xmlns="http://www.w3.org/2000/svg" viewBox="0 0 40 40.6"><defs><style>.cls-1,.cls-3{fill:#464646;}.cls-2{fill:#e81a23;}.cls-3{stroke:#fff;stroke-width:0.6px;}</style></defs><title>资源 1</title><g id="图层_2" data-name="图层 2"><g id="图层_1-2" data-name="图层 1"><g id="解决方案"><g id="直播"><g id="高清版本"><path id="Shape" class="cls-1" d="M37.61,10.3H2.39A2.39,2.39,0,0,0,0,12.69V27.91A2.39,2.39,0,0,0,2.39,30.3H37.61A2.39,2.39,0,0,0,40,27.91V12.69A2.39,2.39,0,0,0,37.61,10.3Zm.57,16.14c0,1.26-.55,2-1.91,2H3.73a1.85,1.85,0,0,1-1.91-2V14.16a1.78,1.78,0,0,1,1.91-2H36.27a1.87,1.87,0,0,1,1.91,2V26.44Z"/><polygon id="Path" class="cls-2" points="18.18 19.39 13.64 19.39 13.64 15.76 11.82 15.76 11.82 25.75 13.64 25.75 13.64 21.21 18.18 21.21 18.18 25.75 20 25.75 20 15.76 18.18 15.76 18.18 19.39"/><path id="Combined-Shape" class="cls-2" d="M28.75,16.87a4.31,4.31,0,0,1,.93,1.62A7.6,7.6,0,0,1,30,20.85,6.76,6.76,0,0,1,29.7,23a4.27,4.27,0,0,1-1.05,1.76,3.31,3.31,0,0,1-1.38.8,5.89,5.89,0,0,1-1.74.21H21.82v-10h3.6a6.75,6.75,0,0,1,1.86.2A3.17,3.17,0,0,1,28.75,16.87Zm-1.5,6.69a3.64,3.64,0,0,0,.93-2.35,4.78,4.78,0,0,0-1-3.2,1.59,1.59,0,0,0-.84-.44,17.34,17.34,0,0,0-1.81,0h-.91v6.37h1.81a4.31,4.31,0,0,0,.91,0A2.33,2.33,0,0,0,27.25,23.56Z"/><path id="Path-2" data-name="Path" class="cls-3" d="M7.27,4.85A1.64,1.64,0,0,1,9.09,3H30.91a1.72,1.72,0,0,1,1.82,1.82V7.57h2.72V2.69A2.38,2.38,0,0,0,33.07.3H6.93A2.38,2.38,0,0,0,4.55,2.69V7.57H7.27V4.85Z"/><path id="Path-3" data-name="Path" class="cls-3" d="M32.73,35.75a1.61,1.61,0,0,1-1.82,1.82H9.09a1.7,1.7,0,0,1-1.82-1.82V33H4.55v4.88A2.38,2.38,0,0,0,6.93,40.3H33.07a2.38,2.38,0,0,0,2.38-2.39V33H32.73Z"/></g></g></g></g></g></svg>