<?xml version="1.0" encoding="UTF-8" standalone="no"?>
<svg width="550px" height="371px" viewBox="0 0 550 371" version="1.1" xmlns="http://www.w3.org/2000/svg" xmlns:xlink="http://www.w3.org/1999/xlink">
    <!-- Generator: Sketch 50.2 (55047) - http://www.bohemiancoding.com/sketch -->
    <title>03</title>
    <desc>Created with Sketch.</desc>
    <defs>
        <path d="M427,1957 C469.5,1957 501.5,1975.5 523.5,2013.5 C542.5,2045.5 552,2088.5 552,2142.5 C552,2196.5 542.5,2239.5 523.5,2271.5 C501.5,2309 469.5,2328 427,2328 C384,2328 352,2309 330.5,2271.5 C311.5,2239.5 302,2196.5 302,2142.5 C302,2088.5 311.5,2045.5 330.5,2013.5 C352,1975.5 384,1957 427,1957 Z M427,1992 C395,1992 372,2009 358,2043.5 C348,2067.5 343,2100.5 343,2142.5 C343,2184 348,2217 358,2241.5 C372,2275.5 395,2293 427,2293 C459,2293 482,2275.5 496,2241.5 C506,2217 511.5,2184 511.5,2142.5 C511.5,2100.5 506,2067.5 496,2043.5 C482,2009 459,1992 427,1992 Z M730.5,1957 C764.5,1957 792.5,1965.5 813.5,1983 C834,2000.5 844.5,2024 844.5,2054 C844.5,2094 825,2121 786,2134 C807,2140.5 823,2150.5 834,2164.5 C846,2178.5 852,2196 852,2217 C852,2249.5 840.5,2276 818,2296.5 C795,2317.5 765,2328 728,2328 C694,2328 666.5,2319 645,2302 C619.5,2281 605.5,2250.5 602.5,2210.5 L644,2210.5 C645,2238.5 654.5,2260 672,2274.5 C687,2286.5 705.5,2293 728,2293 C753.5,2293 774,2285.5 789.5,2271 C803.5,2257 811,2239.5 811,2218.5 C811,2197 804,2180.5 790,2168.5 C776,2156.5 757,2151 732,2151 L703,2151 L703,2119 L730.5,2119 C754.5,2119 772.5,2113.5 785,2103 C797.5,2092 804,2076.5 804,2056.5 C804,2036.5 797.5,2021 785.5,2010 C772.5,1998 754,1992.5 731,1992.5 C707,1992.5 688.5,1998.5 675,2011.5 C661,2024.5 653,2043 650.5,2067 L610,2067 C613,2032.5 626,2005.5 648,1986 C669,1966.5 696.5,1957 730.5,1957 Z" id="path-1"></path>
    </defs>
    <g id="官网" stroke="none" stroke-width="1" fill="none" fill-rule="evenodd" opacity="0.15">
        <g id="智能AI" transform="translate(-302.000000, -1957.000000)">
            <g id="03">
                <use fill="#000000" xlink:href="#path-1"></use>
                <use fill="#2F5188" xlink:href="#path-1"></use>
            </g>
        </g>
    </g>
</svg>