<?xml version="1.0" encoding="UTF-8" standalone="no"?>
<svg width="544px" height="371px" viewBox="0 0 544 371" version="1.1" xmlns="http://www.w3.org/2000/svg" xmlns:xlink="http://www.w3.org/1999/xlink">
    <!-- Generator: Sketch 50.2 (55047) - http://www.bohemiancoding.com/sketch -->
    <title>02</title>
    <desc>Created with Sketch.</desc>
    <defs>
        <path d="M1173,1415 C1215.5,1415 1247.5,1433.5 1269.5,1471.5 C1288.5,1503.5 1298,1546.5 1298,1600.5 C1298,1654.5 1288.5,1697.5 1269.5,1729.5 C1247.5,1767 1215.5,1786 1173,1786 C1130,1786 1098,1767 1076.5,1729.5 C1057.5,1697.5 1048,1654.5 1048,1600.5 C1048,1546.5 1057.5,1503.5 1076.5,1471.5 C1098,1433.5 1130,1415 1173,1415 Z M1173,1450 C1141,1450 1118,1467 1104,1501.5 C1094,1525.5 1089,1558.5 1089,1600.5 C1089,1642 1094,1675 1104,1699.5 C1118,1733.5 1141,1751 1173,1751 C1205,1751 1228,1733.5 1242,1699.5 C1252,1675 1257.5,1642 1257.5,1600.5 C1257.5,1558.5 1252,1525.5 1242,1501.5 C1228,1467 1205,1450 1173,1450 Z M1478,1415 C1511,1415 1538,1424.5 1559.5,1443.5 C1580.5,1462.5 1591.5,1488 1591.5,1519 C1591.5,1550 1579.5,1578 1556.5,1603 C1544,1616 1519.5,1635.5 1482.5,1660.5 C1437,1691 1411,1718.5 1404.5,1742.5 L1592,1742.5 L1592,1779 L1354,1779 C1354,1746.5 1365.5,1717 1389.5,1690.5 C1403.5,1674.5 1429,1653 1467,1627 C1495,1607 1513.5,1592.5 1523,1582.5 C1541,1563 1550.5,1541.5 1550.5,1518.5 C1550.5,1496.5 1544,1480 1531,1468 C1518,1456 1499.5,1450 1476.5,1450 C1452,1450 1433,1458 1420,1475 C1406,1491 1398.5,1515 1398,1546.5 L1357,1546.5 C1357,1506.5 1368.5,1474.5 1390.5,1451 C1412.5,1427 1442,1415 1478,1415 Z" id="path-1"></path>
    </defs>
    <g id="官网" stroke="none" stroke-width="1" fill="none" fill-rule="evenodd" opacity="0.15">
        <g id="智能AI" transform="translate(-1048.000000, -1415.000000)">
            <g id="02">
                <use fill="#000000" xlink:href="#path-1"></use>
                <use fill="#02D7F7" xlink:href="#path-1"></use>
            </g>
        </g>
    </g>
</svg>