<?xml version="1.0" encoding="UTF-8" standalone="no"?>
<svg width="422px" height="371px" viewBox="0 0 422 371" version="1.1" xmlns="http://www.w3.org/2000/svg" xmlns:xlink="http://www.w3.org/1999/xlink">
    <!-- Generator: Sketch 50.2 (55047) - http://www.bohemiancoding.com/sketch -->
    <title>01</title>
    <desc>Created with Sketch.</desc>
    <defs></defs>
    <g id="官网" stroke="none" stroke-width="1" fill="none" fill-rule="evenodd" opacity="0.15">
        <g id="智能AI" transform="translate(-310.000000, -873.000000)" fill="#ED9127">
            <path d="M435,873 C477.5,873 509.5,891.5 531.5,929.5 C550.5,961.5 560,1004.5 560,1058.5 C560,1112.5 550.5,1155.5 531.5,1187.5 C509.5,1225 477.5,1244 435,1244 C392,1244 360,1225 338.5,1187.5 C319.5,1155.5 310,1112.5 310,1058.5 C310,1004.5 319.5,961.5 338.5,929.5 C360,891.5 392,873 435,873 Z M435,908 C403,908 380,925 366,959.5 C356,983.5 351,1016.5 351,1058.5 C351,1100 356,1133 366,1157.5 C380,1191.5 403,1209 435,1209 C467,1209 490,1191.5 504,1157.5 C514,1133 519.5,1100 519.5,1058.5 C519.5,1016.5 514,983.5 504,959.5 C490,925 467,908 435,908 Z M700,880 L732,880 L732,1237 L691,1237 L691,930 C668.5,953 640.5,969 607,979 L607,938 C623,933.5 640,926.5 657,916.5 C674,905.5 688,893.5 700,880 Z" id="01"></path>
        </g>
    </g>
</svg>