<?xml version="1.0" encoding="UTF-8" standalone="no"?>
<svg width="35px" height="41px" viewBox="0 0 35 41" version="1.1" xmlns="http://www.w3.org/2000/svg" xmlns:xlink="http://www.w3.org/1999/xlink">
    <!-- Generator: Sketch 50.2 (55047) - http://www.bohemiancoding.com/sketch -->
    <title>智能</title>
    <desc>Created with Sketch.</desc>
    <defs></defs>
    <g id="官网" stroke="none" stroke-width="1" fill="none" fill-rule="evenodd">
        <g id="首页-copy-2" transform="translate(-792.000000, -830.000000)">
            <g id="Group-5" transform="translate(372.000000, 799.000000)">
                <g id="智能" transform="translate(421.000000, 32.000000)">
                    <g fill-rule="nonzero" id="Shape" stroke="#3C3C3C" stroke-width="2">
                        <path d="M31.5243527,20.2510135 C32.2865384,17.5939189 33.0044109,15.0817568 32.9999796,13.0570946 C32.977823,5.97736486 26.4992451,0 18.8552321,0 L18.6735483,0 C10.8522828,0.0966216216 3.9527302,6.21891892 3.81979084,13.1405405 C3.78877166,13.3557432 3.78877166,13.6016892 3.79320297,13.9135135 C3.79320297,13.9969595 3.79763428,14.0804054 3.79763428,14.1594595 C0.434268565,17.9716216 0,19.3989865 0,20.2114865 C0,21.5510135 0.779910891,22.6753378 2.14032364,23.3033784 C2.57902352,23.5054054 3.26587686,23.6152027 4.86114914,23.7337838 L5.19349753,23.7601351 L5.1846349,27.6206081 C5.20679146,29.4476351 6.7887698,30.9364865 8.74297834,30.9364865 L12.1107754,30.9364865 L12.0974814,37.7746622 C12.0974814,38.1787162 12.3057531,38.5608108 12.6558267,38.7891892 C12.8685297,38.9253378 13.1166832,39 13.3736993,39 C13.5332265,39 13.6927537,38.9692568 13.8434183,38.9121622 L29.5346937,32.9216216 C30.1240582,32.6976351 30.4519753,32.0915541 30.305742,31.4986486 C30.2968793,31.4722973 29.6454765,28.7976351 30.234841,25.389527 C30.5095823,23.7952703 31.0280458,21.9945946 31.5243527,20.2510135 Z"></path>
                    </g>
                    <path d="M19.4204879,16.2736578 L19.4204879,16.2152076 L16.6898724,14.616768 C15.9593482,15.2602055 15.023598,15.6134576 14.0559068,15.6111082 C11.8169759,15.6084557 10.0026162,13.7689409 10,11.4989685 C10.0026162,9.22899614 11.8169759,7.38948139 14.0559068,7.38682888 C15.2068037,7.38872109 16.3027374,7.88616657 17.0707071,8.75524996 L18.2471235,8.06760118 C18.2440714,8.017059 18.2427149,7.96720446 18.2427149,7.91872521 C18.2447696,6.30775566 19.5322483,5.00227297 21.1211879,5 C22.7102599,5.00208361 23.9979449,6.30762163 24,7.91872521 C23.9977581,9.52969451 22.7101277,10.8350234 21.1211879,10.8371066 C20.2111164,10.8327859 19.3564007,10.3933861 18.815154,9.65160011 L17.894436,10.1907167 C18.0393084,10.6115162 18.113588,11.0539591 18.1141875,11.4996562 C18.1150277,12.1219549 17.9758484,12.736249 17.7072403,13.2957948 L17.4619008,13.6485687 L19.9630931,15.0834657 L20.2591382,14.7893679 C20.520489,14.6316077 20.8190575,14.5484462 21.1232226,14.5486908 C22.0624805,14.5496385 22.8236663,15.3213776 22.8246009,16.2736578 C22.8244137,17.2271459 22.0619764,18 21.121527,18 C20.1826083,17.9976771 19.4214225,17.2259379 19.4204879,16.2736578 Z M14.0582806,8.4489024 C12.3975857,8.45079721 11.0517926,9.81524902 11.0499237,11.4989685 C11.0517926,13.1826881 12.3975857,14.5471399 14.0582806,14.5490347 C14.8831967,14.5497589 15.6714492,14.2035176 16.2351089,13.5928591 L16.4385825,13.3769373 L16.5593101,13.1947104 C16.8915753,12.6933999 17.0686966,12.1029506 17.0679941,11.4989685 C17.0651417,11.0459219 16.9616325,10.5993503 16.7651576,10.1924359 L16.6410387,9.92906638 L16.5172589,9.75096535 C15.954634,8.93748073 15.0368859,8.45230135 14.0569242,8.45027772 L14.0582806,8.4489024 Z M19.3669065,8.47915897 L19.4716954,8.70436394 C19.7684085,9.35761677 20.4135287,9.77552482 21.1228835,9.77400161 C21.6085645,9.77400161 22.0743532,9.57839065 22.4177815,9.23020092 C22.7612098,8.88201118 22.9541458,8.40976456 22.9541458,7.91734992 C22.953211,6.89234234 22.1338743,6.061646 21.1228835,6.06069823 C20.1115053,6.06069825 19.2916213,6.89194952 19.2916213,7.91734992 C19.2927194,8.03059585 19.3040711,8.14350037 19.3255335,8.25464165 L19.3669065,8.47915897 Z M20.5694354,15.8978577 L20.5016108,16.1292515 C20.4857053,16.1762729 20.4743478,16.2247511 20.4676986,16.2740016 C20.4680724,16.6397605 20.7604307,16.9361722 21.1211879,16.9365512 C21.4819451,16.9361722 21.7743034,16.6397605 21.7746772,16.2740016 C21.7743034,15.9082427 21.4819451,15.611831 21.1211879,15.611452 C20.9496845,15.6116156 20.7852154,15.6805898 20.6637115,15.803306 L20.5694354,15.8978577 Z" id="Combined-Shape" fill="#E71A22"></path>
                </g>
            </g>
        </g>
    </g>
</svg>