<?xml version="1.0" encoding="UTF-8" standalone="no"?>
<svg width="48px" height="40px" viewBox="0 0 48 40" version="1.1" xmlns="http://www.w3.org/2000/svg" xmlns:xlink="http://www.w3.org/1999/xlink">
    <!-- Generator: Sketch 50.2 (55047) - http://www.bohemiancoding.com/sketch -->
    <title>媒体云</title>
    <desc>Created with Sketch.</desc>
    <defs></defs>
    <g id="官网" stroke="none" stroke-width="1" fill="none" fill-rule="evenodd">
        <g id="首页-copy-2" transform="translate(-1084.000000, -830.000000)">
            <g id="Group-5" transform="translate(372.000000, 799.000000)">
                <g id="媒体云" transform="translate(712.000000, 32.000000)">
                    <rect id="Rectangle-7" stroke="#3C3C3C" stroke-width="2" x="1" y="16" width="36" height="22" rx="3"></rect>
                    <circle id="Oval-6" stroke="#3C3C3C" stroke-width="2" cx="10.5" cy="9.5" r="6.5"></circle>
                    <circle id="Oval-6-Copy" stroke="#3C3C3C" stroke-width="2" cx="26" cy="8" r="8"></circle>
                    <path d="M42.3786544,22.4881431 L47.8073593,30.3783219 C48.1204092,30.8333144 48.005342,31.4559358 47.5503495,31.7689858 C47.383591,31.8837212 47.1859395,31.945149 46.9835225,31.945149 L36.1261128,31.945149 C35.573828,31.945149 35.1261128,31.4974337 35.1261128,30.945149 C35.1261128,30.742732 35.1875405,30.5450805 35.302276,30.3783219 L40.7309808,22.4881431 C41.0440308,22.0331506 41.6666522,21.9180834 42.1216447,22.2311334 C42.2222951,22.3003842 42.3094036,22.3874927 42.3786544,22.4881431 Z" id="Triangle" stroke="#3C3C3C" stroke-width="2" transform="translate(41.554864, 27.000013) scale(-1, 1) rotate(90.000000) translate(-41.554864, -27.000013) "></path>
                    <rect id="Rectangle-8" fill="#E71A22" x="13" y="26" width="13" height="1" rx="0.5"></rect>
                </g>
            </g>
        </g>
    </g>
</svg>