<?xml version="1.0" encoding="UTF-8" standalone="no"?>
<svg width="1920px" height="560px" viewBox="0 0 1920 560" version="1.1" xmlns="http://www.w3.org/2000/svg" xmlns:xlink="http://www.w3.org/1999/xlink">
    <!-- Generator: Sketch 50.2 (55047) - http://www.bohemiancoding.com/sketch -->
    <title>Group 30</title>
    <desc>Created with Sketch.</desc>
    <defs>
        <linearGradient x1="50%" y1="0%" x2="50%" y2="100%" id="linearGradient-1">
            <stop stop-color="#FFFFFF" offset="0%"></stop>
            <stop stop-color="#F5FAFF" offset="100%"></stop>
        </linearGradient>
        <linearGradient x1="100%" y1="19.83232%" x2="6.77291246%" y2="70.6330062%" id="linearGradient-2">
            <stop stop-color="#ACCFFF" offset="0%"></stop>
            <stop stop-color="#A2C7FC" offset="100%"></stop>
        </linearGradient>
        <linearGradient x1="28.5473608%" y1="0%" x2="91.8161552%" y2="82.2797956%" id="linearGradient-3">
            <stop stop-color="#C8E4FF" offset="0%"></stop>
            <stop stop-color="#BBD9FF" offset="100%"></stop>
        </linearGradient>
        <linearGradient x1="88.8377069%" y1="60.4171157%" x2="15.3334122%" y2="23.5446529%" id="linearGradient-4">
            <stop stop-color="#DFEFFF" offset="0%"></stop>
            <stop stop-color="#D2E9FF" offset="100%"></stop>
        </linearGradient>
        <linearGradient x1="73.8539409%" y1="0%" x2="33.0473972%" y2="86.1304574%" id="linearGradient-5">
            <stop stop-color="#DFEFFF" offset="0%"></stop>
            <stop stop-color="#CDE6FF" offset="100%"></stop>
        </linearGradient>
        <linearGradient x1="0%" y1="53.4955197%" x2="100%" y2="39.2617209%" id="linearGradient-6">
            <stop stop-color="#C1E2FF" offset="0%"></stop>
            <stop stop-color="#B9DBFF" offset="100%"></stop>
        </linearGradient>
        <linearGradient x1="50%" y1="0%" x2="40.3284618%" y2="100%" id="linearGradient-7">
            <stop stop-color="#B6D4FF" offset="0%"></stop>
            <stop stop-color="#AACBFC" offset="100%"></stop>
        </linearGradient>
        <linearGradient x1="50%" y1="0%" x2="50%" y2="100%" id="linearGradient-8">
            <stop stop-color="#8CC1FF" offset="0%"></stop>
            <stop stop-color="#5E99F8" offset="100%"></stop>
        </linearGradient>
        <linearGradient x1="50%" y1="0%" x2="50%" y2="100%" id="linearGradient-9">
            <stop stop-color="#FEDDE5" offset="0%"></stop>
            <stop stop-color="#FFD0DC" offset="100%"></stop>
        </linearGradient>
        <linearGradient x1="50%" y1="0%" x2="50%" y2="100%" id="linearGradient-10">
            <stop stop-color="#FFA37A" offset="0%"></stop>
            <stop stop-color="#FF732D" offset="100%"></stop>
        </linearGradient>
        <linearGradient x1="5.06052501%" y1="8.39795803%" x2="85.4659846%" y2="79.9578708%" id="linearGradient-11">
            <stop stop-color="#FFD1DE" offset="0%"></stop>
            <stop stop-color="#FFD0DC" offset="100%"></stop>
        </linearGradient>
    </defs>
    <g id="媒体云" stroke="none" stroke-width="1" fill="none" fill-rule="evenodd">
        <g id="Group-30">
            <rect id="Rectangle-6" stroke="#979797" fill="#FFFFFF" x="0.5" y="0.5" width="1919" height="559"></rect>
            <g id="Group-28" transform="translate(655.000000, 38.000000)">
                <path d="M125.391225,108 C130.663578,186.408092 124.063131,237.656244 105.589882,261.744457 C77.8800096,297.876776 -9.20985917,301.376714 0.796236144,403.389334 C10.8023315,505.401954 173.708868,457.856924 198.790956,457.856924 C209.823409,457.856924 240.602429,451.452881 296.075355,457.856924 C314.846447,460.023943 350.884851,475.742173 402.088787,479.924074 C453.292723,484.105975 523.829673,486.482863 546.948367,479.924074 C570.06706,473.365286 597.142568,448.859108 603.756264,427.089093 C618.753186,377.724379 589.564881,325.671999 584.65597,313.465562 C579.718016,301.186907 593.597546,262.334682 579.333454,221.518488 C573.163834,203.864337 558.873857,178.016793 534.72693,172.852606 C510.580003,167.68842 430.833733,193.087401 402.088787,172.852606 C373.343841,152.617812 295.649921,120.113229 259.761483,115.665207 C235.835857,112.69986 191.045771,110.14479 125.391225,108 Z" id="Path-41" fill="url(#linearGradient-1)"></path>
                <g id="Group-14" transform="translate(176.000000, 190.000000)">
                    <polygon id="Path-10" fill="#EEF7FF" points="139.82638 27.6218486 139.82638 134.931199 272.637133 174.235479 272.637133 69.0472708"></polygon>
                    <polygon id="Path-8" fill="url(#linearGradient-2)" points="61.5263158 69.4646465 61.5263158 179.474807 182.614765 215.740414 182.614765 107.154136"></polygon>
                    <polygon id="Path-4" fill="url(#linearGradient-3)" points="57.9032957 67.2626263 4.39473684 92.3442555 134.148895 130.734711 183.391896 108.123854"></polygon>
                    <polygon id="Path-6" fill="url(#linearGradient-4)" points="139.905516 27.8460421 193.623858 0.683696388 324.734526 40.5685346 271.115313 68.267316"></polygon>
                    <polygon id="Path-7" fill="url(#linearGradient-5)" points="0 47.5581558 59.3368542 66.6308186 141.622925 27.3383052 82.2197985 7.60015929"></polygon>
                    <polygon id="Path-9" fill="url(#linearGradient-6)" points="182.381579 106.623442 182.381579 215.954219 273.138887 175.851074 273.138887 67.2626263"></polygon>
                    <polygon id="Path-5" fill="url(#linearGradient-7)" points="182.012851 106.971599 272.503527 67.5680776 332.522161 87.870811 241.545205 126.394348"></polygon>
                </g>
                <g id="Group-24" transform="translate(81.000000, 40.000000)">
                    <path d="M18.7781562,268.418724 L29.9796384,266.707801 L32.0470697,274.111802 C28.8264105,275.14499 26.6149249,275.595216 25.412613,275.462481 C24.210301,275.329746 22.4171336,274.685241 20.0331107,273.528965 L18.7781562,268.418724 Z" id="Path-19" fill="#FFD0DD"></path>
                    <path d="M19.8105358,273.303437 C25.2692803,291.834221 30.9983233,300.24994 36.9976648,298.550592 C42.9970064,296.851244 41.4195831,288.435525 32.265395,273.303437 C30.5330238,273.818609 28.7393547,274.243578 26.8843876,274.578342 C25.0294206,274.913106 22.67147,274.488138 19.8105358,273.303437 Z" id="Path-20" fill="#978495"></path>
                    <path d="M55,259.992306 C54.6092082,263.069689 54.4138122,265.408201 54.4138122,267.007843 C54.4138122,269.407305 54.5166687,270.458499 55.6817933,271.34946 C56.846918,272.240422 81.7834233,282.905488 87.3061816,276.571997 C89.4357359,274.321282 82.5657515,268.606106 66.6962284,259.426471 L55,259.992306 Z" id="Path-22" fill="#978495"></path>
                    <path d="M55,253.786274 L55,259.450387 C55.9426371,261.333875 58.1505032,262.069382 61.6235984,261.656909 C65.0966936,261.244436 66.8332411,260.508928 66.8332411,259.450387 L66.8332411,250.632353 L55,253.786274 Z" id="Path-21" fill="#FFD0DD"></path>
                    <path d="M15.4,139.332026 L17.5553707,267.314038 C18.1274722,269.150444 20.5169183,269.728966 24.723709,269.049607 C28.9304997,268.370248 30.9427221,267.158591 30.7603762,265.414636 C33.5674758,244.720043 35.1338977,229.862103 35.4596419,220.840815 C36.9099121,180.676471 39.4602812,160.440551 41.2034033,160.440551 C44.650775,160.440551 52.7066615,186.892392 53.8549426,192.784554 C54.6204633,196.712661 54.6204633,216.88277 53.8549426,253.294879 C54.7702557,254.644119 57.1977729,254.949752 61.1374942,254.211779 C65.0772155,253.473805 67.2646172,252.170172 67.6996993,250.30088 C71.2252756,219.230981 72.4773022,198.515792 71.455779,188.155313 C70.4342558,177.794834 66.6323191,159.046985 60.0499689,131.911765 C54.9567405,139.188709 47.6182086,143.577327 38.0343731,145.077619 C28.4505376,146.577912 20.9057466,144.662714 15.4,139.332026 Z" id="Path-11" fill="url(#linearGradient-8)"></path>
                    <path d="M67.710878,84.2078961 C69.0281503,99.6107405 70.3166751,110.601082 71.5764523,117.17892 C72.8362296,123.756758 76.025861,135.53393 81.1453468,152.510436 C83.077719,158.154367 83.077719,162.378467 81.1453468,165.182736 C79.2129746,167.987006 76.5183337,167.987006 73.0614239,165.182736 C74.9196443,159.586916 74.9196443,155.362816 73.0614239,152.510436 C71.2032035,149.658055 67.3827288,141.359096 61.6,127.613557 L61.6,84.2078961 L67.710878,84.2078961 Z" id="Path-15" fill="url(#linearGradient-9)"></path>
                    <path d="M13.4278284,97.8309572 L13.4278284,139.908453 C23.5493424,146.54446 32.8966117,149.252507 41.4696363,148.032594 C50.042661,146.812682 57.1573542,141.916409 62.8137162,133.343774 L62.8137162,87.0806123 L70.0933141,85.9027195 C68.8180053,68.8691281 66.3914727,57.5386849 62.8137162,51.9113898 C59.2359597,46.2840947 52.1212664,43.83975 41.4696363,44.5783556 C47.752437,50.3596534 47.4170062,53.9639505 40.4633439,55.3912468 C33.5096816,56.8185431 28.1509742,54.3568461 24.3872215,48.0061559 C16.4833186,50.56264 10.6485216,55.2410105 6.88283076,62.0412673 C3.11713987,68.841524 0.822862947,79.2653217 0,93.3126602 C1.31757678,94.3572796 3.09943199,95.371484 5.34556561,96.3552732 C7.59169924,97.3390625 10.2857868,97.8309572 13.4278284,97.8309572 Z" id="Path-13" fill="url(#linearGradient-10)"></path>
                    <path d="M44.279161,101.45599 C45.5904112,109.70371 45.5904112,115.900366 44.279161,120.045957 C42.9679108,124.191548 39.9415238,129.130955 35.2,134.864179 L59.5306241,129.839057 C62.465299,123.143672 64.3174323,117.902326 65.0870241,114.115018 C65.856616,110.327711 66.2467427,104.534469 66.2574042,96.7352941 L44.279161,101.45599 Z" id="Path-18" fill="#FFFFFF"></path>
                    <path d="M1.60402671,94.4539228 C-1.02946675,111.436287 -0.420205074,121.19716 3.43181172,123.736542 C5.31164382,124.975792 9.87449566,127.669679 15.7813964,127.436121 C19.9127934,127.272765 28.093833,125.591089 40.324515,122.39109 C48.8337037,124.130279 52.1002538,122.147493 50.1241653,116.442732 C48.1480768,110.73797 44.1986667,110.31686 38.2759349,115.1794 C25.6940791,116.882699 18.1958996,116.882699 15.7813964,115.1794 C13.3668931,113.476101 12.4148124,107.647284 12.9251541,97.692948 C11.2597664,97.692948 9.40597688,97.398147 7.36378559,96.808545 C5.3215943,96.218943 3.40167467,95.4340689 1.60402671,94.4539228 Z" id="Path-14" fill="url(#linearGradient-11)"></path>
                    <path d="M24.2,25.9052887 C24.2,21.1604849 24.2,17.3724961 24.2,14.5413223 C24.2,12.2227557 25.8464325,8.55039469 27.8363301,6.61507888 C30.1144131,4.39948254 33.0769558,1.81559149 38.5411626,0.344416754 C46.9571533,-1.26086435 53.0527718,2.74535733 56.8280183,12.3630818 L54.6639064,11.2712518 L24.6910755,25.9052887" id="Path-25" fill="#8A4260"></path>
                    <path d="M31.122434,37.2650798 C25.9655711,33.3798727 23.6850091,29.3610118 24.2807482,25.2084971 C25.1743567,18.9797251 31.8485191,11.9995893 37.576989,9.8626082 C41.395969,8.43795413 46.2400916,8.43795413 52.1093568,9.8626082 L31.122434,37.2650798 Z" id="Path-24" fill="#D285A3"></path>
                    <path d="M43.3720973,9.26369636 C39.5293318,10.8015537 37.2023637,12.3523706 36.3911929,13.9161473 C35.5800221,15.479924 35.0795463,19.2510319 34.8897657,25.229471 C34.0465124,26.1156816 33.4274759,26.5587869 33.0326563,26.5587869 C32.6378367,26.5587869 31.8808072,26.1156816 30.761568,25.229471 C29.7466796,23.6164759 28.919217,23.2132272 28.2791804,24.0197247 C27.3191255,25.229471 30.7340676,30.2493265 32.3356737,30.2493265 C33.4034111,30.2493265 32.8787092,32.5835373 30.761568,37.2519589 L33.5449729,37.2519589 L32.3356737,43.4141078 L24.2,47.9791522 C24.352662,53.6441956 28.7738565,56.2806912 37.4635835,55.888639 C46.1533106,55.4965869 49.4629885,52.8600913 47.3926173,47.9791522 L41.8515747,44.4466424 L42.4032898,40.1137437 C51.749978,39.399675 56.8525155,33.5761945 57.7109023,22.6433024 C58.5692892,11.7104103 53.7896875,7.25054162 43.3720973,9.26369636 Z" id="Path-23" fill="#FFD1DD"></path>
                </g>
                <g id="Group-27" transform="translate(193.000000, 0.000000)">
                    <g id="Group-25" transform="translate(0.000000, 112.282258)">
                        <path d="M39.665317,2.2016129 L2.44144515,0.570908457 L-4.54747351e-13,2.2016129 C7.23893996,25.7131414 18.1657787,38.0193878 32.7805163,39.1203523 C47.3952539,40.2213168 59.1640053,40.2213168 68.0867705,39.1203523 C69.1030212,37.7050604 69.4058583,36.8412941 68.9952817,36.5290533 C61.9874211,31.1996232 54.4546932,28.1116467 52.0151567,24.9427513 C49.3612288,21.495367 45.2446156,13.9149876 39.665317,2.2016129 Z" id="Path-34-Copy" fill="#D8EBFE"></path>
                        <path d="M41.861636,0 L2.19631902,0 C9.43525898,23.5115285 20.3620977,35.8177749 34.9768353,36.9187394 C49.5915729,38.0197039 61.3603243,38.0197039 70.2830895,36.9187394 C62.2226082,30.9143897 56.8654036,26.1885227 54.2114757,22.7411384 C51.5575478,19.2937541 47.4409346,11.7133747 41.861636,0 Z" id="Path-34" fill="#EFF7FF"></path>
                    </g>
                    <path d="M298.699387,33.2223089 C307.198068,28.4771766 312.867138,24.1850363 315.706598,20.345888 C318.546058,16.5067397 321.067468,9.72477702 323.270829,0 L356.023251,0 C349.937569,17.141539 344.157501,27.2986807 338.683048,30.4714254 C333.208594,33.64417 319.880707,34.5611311 298.699387,33.2223089 Z" id="Path-35" fill="#D0E8FF"></path>
                    <path d="M70.8253187,172.379891 C73.1543432,189.956058 76.1182592,202.978254 79.7170669,211.44648 C83.3158745,219.914707 90.2759214,230.244235 100.597207,242.435064" id="Path-39" stroke="#C4DDFC"></path>
                    <path d="M142.542649,270.800849 C165.728844,263.994169 181.966015,255.920646 191.254159,246.58028 C198.203352,239.592018 209.119933,221.379753 209.119933,201.346383 C209.119933,181.313013 199.252427,180.228098 194.482343,180.228098 C184.64239,180.228098 177.321942,187.288886 177.321942,194.557376 C177.321942,201.825867 179.697065,213.826223 195.943787,213.826223 C203.058636,213.826223 249.036781,212.761118 274.00322,175.491813 C282.697033,162.513896 288.193798,132.106438 290.493516,84.2694386" id="Path-40" stroke="#C4DDFC"></path>
                </g>
            </g>
        </g>
    </g>
</svg>