<?xml version="1.0" encoding="UTF-8"?>
<svg width="50px" height="50px" viewBox="0 0 50 50" version="1.1" xmlns="http://www.w3.org/2000/svg" xmlns:xlink="http://www.w3.org/1999/xlink">
    <title>1</title>
    <defs>
        <linearGradient x1="134.308334%" y1="-0.174567272%" x2="5.74562241%" y2="68.3348664%" id="linearGradient-1">
            <stop stop-color="#FFFFFF" offset="0%"></stop>
            <stop stop-color="#FFD3D3" offset="100%"></stop>
        </linearGradient>
        <path d="M0,5.26318257 C0,2.35683615 2.30017461,0 5.13830752,0 L32.5356976,0 C35.3748607,0 37.6740051,2.35683615 37.6740051,5.26318257 L37.6740051,20.350531 C37.6740051,23.2578766 35.3738305,25.6136765 32.5356976,25.6136765 L5.13830752,25.6136765 C2.3002114,25.6136765 0,23.2578766 0,20.350531 L0,5.26318257 Z M0,29.8242078 C0,28.8557464 0.76709278,28.0705044 1.71207015,28.0705044 L35.960868,28.0705044 C36.5730706,28.0705044 37.1381807,28.4041924 37.4448339,28.9473746 C37.7509469,29.4917531 37.7509469,30.1576987 37.4448339,30.7020772 C37.1436105,31.242186 36.5765483,31.577261 35.960868,31.5789474 L1.71210694,31.5789474 C0.76709278,31.5789474 0,30.7936684 0,29.8242078 Z" id="path-2"></path>
        <filter x="-9.4%" y="-11.2%" width="118.7%" height="122.3%" filterUnits="objectBoundingBox" id="filter-3">
            <feGaussianBlur stdDeviation="3" in="SourceAlpha" result="shadowBlurInner1"></feGaussianBlur>
            <feOffset dx="0" dy="0" in="shadowBlurInner1" result="shadowOffsetInner1"></feOffset>
            <feComposite in="shadowOffsetInner1" in2="SourceAlpha" operator="arithmetic" k2="-1" k3="1" result="shadowInnerInner1"></feComposite>
            <feColorMatrix values="0 0 0 0 1   0 0 0 0 0   0 0 0 0 0  0 0 0 0.184140079 0" type="matrix" in="shadowInnerInner1"></feColorMatrix>
        </filter>
        <path d="M6,17.1698113 L6,25.8301887 L7.48909091,25.8301887 L7.48909091,22.5067385 L9.74181818,22.5067385 C11.9563636,22.5067385 13.0636364,21.6091644 13.0636364,19.8261456 C13.0636364,18.0552561 11.9563636,17.1698113 9.76727273,17.1698113 L6,17.1698113 Z M7.48909091,18.3827493 L9.65272727,18.3827493 C10.3018182,18.3827493 10.7854545,18.4919137 11.0909091,18.722372 C11.3963636,18.9407008 11.5618182,19.3045822 11.5618182,19.8261456 C11.5618182,20.3477089 11.4090909,20.7237197 11.1036364,20.9541779 C10.7981818,21.1725067 10.3145455,21.2938005 9.65272727,21.2938005 L7.48909091,21.2938005 L7.48909091,18.3827493 Z M16.5636364,19.3894879 C15.7236364,19.3894879 15.0618182,19.5229111 14.5781818,19.8140162 C14.0054545,20.1293801 13.6490909,20.638814 13.5090909,21.3301887 L14.9472727,21.4393531 C15.0236364,21.1118598 15.2145455,20.8692722 15.4945455,20.7115903 C15.7363636,20.5660377 16.0545455,20.5053908 16.4618182,20.5053908 C17.4036364,20.5053908 17.8745455,20.9056604 17.8745455,21.7304582 L17.8745455,21.9730458 L16.4363636,22.009434 C15.4690909,22.0336927 14.7181818,22.2277628 14.1836364,22.5916442 C13.5981818,22.967655 13.3181818,23.5134771 13.3181818,24.2169811 C13.3181818,24.7385445 13.5218182,25.1630728 13.9290909,25.5026954 C14.3236364,25.8301887 14.8581818,26 15.5454545,26 C16.1181818,26 16.6145455,25.902965 17.0345455,25.7210243 C17.4036364,25.5512129 17.7218182,25.3207547 17.9763636,25.0053908 L17.9763636,25.8301887 L19.3254545,25.8301887 L19.3254545,21.8274933 C19.3254545,21.0633423 19.1218182,20.4811321 18.7145455,20.0808625 C18.2563636,19.6199461 17.5309091,19.3894879 16.5636364,19.3894879 Z M17.8745455,22.967655 L17.8745455,23.2830189 C17.8745455,23.7681941 17.6709091,24.1684636 17.2890909,24.4838275 C16.9072727,24.787062 16.4363636,24.9447439 15.8763636,24.9447439 C15.5581818,24.9447439 15.3036364,24.8598383 15.1,24.7142857 C14.8963636,24.5687332 14.8072727,24.3867925 14.8072727,24.1684636 C14.8072727,23.416442 15.38,23.0283019 16.5381818,23.0040431 L17.8745455,22.967655 Z M23.2072727,19.3894879 C22.3672727,19.3894879 21.7054545,19.5229111 21.2218182,19.8140162 C20.6490909,20.1293801 20.2927273,20.638814 20.1527273,21.3301887 L21.5909091,21.4393531 C21.6672727,21.1118598 21.8581818,20.8692722 22.1381818,20.7115903 C22.38,20.5660377 22.6981818,20.5053908 23.1054545,20.5053908 C24.0472727,20.5053908 24.5181818,20.9056604 24.5181818,21.7304582 L24.5181818,21.9730458 L23.08,22.009434 C22.1127273,22.0336927 21.3618182,22.2277628 20.8272727,22.5916442 C20.2418182,22.967655 19.9618182,23.5134771 19.9618182,24.2169811 C19.9618182,24.7385445 20.1654545,25.1630728 20.5727273,25.5026954 C20.9672727,25.8301887 21.5018182,26 22.1890909,26 C22.7618182,26 23.2581818,25.902965 23.6781818,25.7210243 C24.0472727,25.5512129 24.3654545,25.3207547 24.62,25.0053908 L24.62,25.8301887 L25.9690909,25.8301887 L25.9690909,21.8274933 C25.9690909,21.0633423 25.7654545,20.4811321 25.3581818,20.0808625 C24.9,19.6199461 24.1745455,19.3894879 23.2072727,19.3894879 Z M24.5181818,22.967655 L24.5181818,23.2830189 C24.5181818,23.7681941 24.3145455,24.1684636 23.9327273,24.4838275 C23.5509091,24.787062 23.08,24.9447439 22.52,24.9447439 C22.2018182,24.9447439 21.9472727,24.8598383 21.7436364,24.7142857 C21.54,24.5687332 21.4509091,24.3867925 21.4509091,24.1684636 C21.4509091,23.416442 22.0236364,23.0283019 23.1818182,23.0040431 L24.5181818,22.967655 Z M30.1945455,17 C29.2145455,17 28.4127273,17.2061995 27.7763636,17.6307278 C27.0890909,18.0673854 26.7581818,18.6738544 26.7581818,19.4380054 C26.7581818,20.2021563 27.1018182,20.7843666 27.8018182,21.1846361 C28.0690909,21.3301887 28.7690909,21.5727763 29.8890909,21.9123989 C30.8945455,22.203504 31.48,22.3975741 31.6581818,22.4824798 C32.2181818,22.7493261 32.5109091,23.1132075 32.5109091,23.574124 C32.5109091,23.9380054 32.3072727,24.2169811 31.9254545,24.43531 C31.5436364,24.6415094 31.0090909,24.7506739 30.3472727,24.7506739 C29.5963636,24.7506739 29.0490909,24.6172507 28.6927273,24.3746631 C28.2981818,24.0956873 28.0563636,23.6226415 27.9545455,22.967655 L26.4781818,22.967655 C26.5418182,24.0714286 26.9618182,24.8719677 27.7254545,25.3814016 C28.3490909,25.7938005 29.2272727,26 30.3472727,26 C31.5054545,26 32.4090909,25.7695418 33.0454545,25.3328841 C33.6818182,24.884097 34,24.2654987 34,23.4892183 C34,22.6886792 33.6054545,22.0700809 32.8163636,21.6212938 C32.46,21.4272237 31.6709091,21.1361186 30.4363636,20.7722372 C29.5963636,20.5175202 29.0745455,20.3355795 28.8836364,20.2385445 C28.4509091,20.0202156 28.2472727,19.7169811 28.2472727,19.3530997 C28.2472727,18.9407008 28.4254545,18.6374663 28.8072727,18.4555256 C29.1127273,18.2978437 29.5454545,18.2250674 30.1181818,18.2250674 C30.78,18.2250674 31.2890909,18.3342318 31.62,18.5768194 C31.9509091,18.8072776 32.1927273,19.1954178 32.32,19.7291105 L33.7963636,19.7291105 C33.7072727,18.7830189 33.3381818,18.0795148 32.7018182,17.6307278 C32.1036364,17.2061995 31.2636364,17 30.1945455,17 Z" id="path-4"></path>
        <filter x="-21.4%" y="-66.7%" width="142.9%" height="233.3%" filterUnits="objectBoundingBox" id="filter-5">
            <feOffset dx="0" dy="0" in="SourceAlpha" result="shadowOffsetOuter1"></feOffset>
            <feGaussianBlur stdDeviation="2" in="shadowOffsetOuter1" result="shadowBlurOuter1"></feGaussianBlur>
            <feColorMatrix values="0 0 0 0 1   0 0 0 0 0   0 0 0 0 0  0 0 0 0.333916084 0" type="matrix" in="shadowBlurOuter1"></feColorMatrix>
        </filter>
    </defs>
    <g id="页面-1" stroke="none" stroke-width="1" fill="none" fill-rule="evenodd">
        <g id="首页-助力用户轻松搭建视频业务" transform="translate(-167.000000, -65.000000)">
            <g id="1" transform="translate(167.000000, 65.000000)">
                <rect id="矩形" x="0" y="0" width="50" height="50"></rect>
                <g id="编组-11" transform="translate(3.000000, 5.000000)">
                    <g id="编组-8">
                        <path d="M42.4145324,0 L25.6087802,0 C24.1867318,0 23.0232558,1.19667605 23.0232558,2.65927363 L23.0232558,22.6038843 C23.0232558,24.0664818 24.1867318,25.2631579 25.6087802,25.2631579 L42.414504,25.2631579 C43.836524,25.2631579 45,24.0664818 45,22.6038843 L45,2.65927363 C45,1.19667605 43.836524,0 42.414504,0 L42.4145324,0 Z M27.8000863,5.26315789 L33.9441257,5.26315789 C34.2985805,5.26315789 34.5348837,5.68420127 34.5348837,6.31576634 C34.5348837,6.94733141 34.2985805,7.36842105 33.9441257,7.36842105 L27.8000863,7.36842105 C27.4456055,7.36842105 27.2093023,6.94737767 27.2093023,6.31576634 C27.2093023,5.68415502 27.4456055,5.26315789 27.8000863,5.26315789 L27.8000863,5.26315789 Z M41.1914496,18.9473684 L27.8783178,18.9473684 C27.4768968,18.9473684 27.2093023,18.526325 27.2093023,17.89476 C27.2093023,17.2631949 27.4768968,16.8421053 27.8783178,16.8421053 L41.1914496,16.8421053 C41.5928707,16.8421053 41.8604651,17.2631949 41.8604651,17.89476 C41.8604651,18.526325 41.5928707,18.9473684 41.1914496,18.9473684 Z M41.1377654,13.6842105 L27.8663178,13.6842105 C27.472097,13.6842105 27.2093023,13.2631671 27.2093023,12.6316021 C27.2093023,12.000037 27.472097,11.5789474 27.8663178,11.5789474 L41.2034785,11.5789474 C41.5976705,11.5789474 41.8604651,11.9999907 41.8604651,12.6316021 C41.8604651,13.2632134 41.5319574,13.6842105 41.1377654,13.6842105 L41.1377654,13.6842105 Z" id="形状" fill="#FF0000"></path>
                        <g id="编组-7" transform="translate(0.000000, 8.421053)" fill-rule="nonzero">
                            <g id="形状">
                                <use fill-opacity="0" fill="#FFFFFF" xlink:href="#path-2"></use>
                                <use fill="black" fill-opacity="1" filter="url(#filter-3)" xlink:href="#path-2"></use>
                                <use stroke="url(#linearGradient-1)" stroke-width="1.04651163" xlink:href="#path-2"></use>
                            </g>
                            <rect id="矩形" fill-opacity="0.691870629" fill="#FFFFFF" x="16" y="2.57894737" width="6" height="1.5" rx="0.75"></rect>
                        </g>
                    </g>
                    <g id="形状结合" fill-rule="nonzero">
                        <use fill="black" fill-opacity="1" filter="url(#filter-5)" xlink:href="#path-4"></use>
                        <use fill="#FFFFFF" xlink:href="#path-4"></use>
                    </g>
                </g>
            </g>
        </g>
    </g>
</svg>