<?xml version="1.0" encoding="UTF-8"?>
<svg width="50px" height="50px" viewBox="0 0 50 50" version="1.1" xmlns="http://www.w3.org/2000/svg" xmlns:xlink="http://www.w3.org/1999/xlink">
    <title>4</title>
    <defs>
        <linearGradient x1="134.308334%" y1="-5.33470236%" x2="5.74562241%" y2="70.2204908%" id="linearGradient-1">
            <stop stop-color="#FFFFFF" offset="0%"></stop>
            <stop stop-color="#FFD3D3" offset="100%"></stop>
        </linearGradient>
        <path d="M36.1030048,16.9874248 L36.1030048,11.3038465 C36.1030048,8.76668197 34.0400641,6.78716458 31.5646234,6.78716458 L24.8081731,6.78716458 L24.8081731,4.50367309 C24.8081731,3.28560861 23.8284856,2.22018161 22.5389824,2.22018161 L13.5133413,2.22018161 C12.2754006,2.22018161 11.2441506,3.23530762 11.2441506,4.50367309 L11.2441506,6.78716458 L4.53882212,6.78716458 C2.06338141,6.78716458 0.0520032051,8.81698296 0.0520032051,11.3038465 L0.0520032051,16.9874248 M13.5129006,6.78716458 L13.5129006,5.62026834 C13.5129006,5.01145291 14.0285256,4.50367309 14.6477163,4.50367309 L21.4041667,4.50367309 C22.0229167,4.50367309 22.5389824,5.01101928 22.5389824,5.62026834 L22.5905449,6.78716458 L13.5129006,6.78716458 Z M0,17 L0,29.4837517 C0,31.9701816 2.01137821,34 4.48725962,34 L31.5641827,34 C34.0396234,34 36.0514423,31.9701816 36.0514423,29.4837517 L36.0514423,17" id="path-2"></path>
        <filter x="-9.8%" y="-11.1%" width="119.5%" height="122.2%" filterUnits="objectBoundingBox" id="filter-3">
            <feGaussianBlur stdDeviation="3" in="SourceAlpha" result="shadowBlurInner1"></feGaussianBlur>
            <feOffset dx="0" dy="0" in="shadowBlurInner1" result="shadowOffsetInner1"></feOffset>
            <feComposite in="shadowOffsetInner1" in2="SourceAlpha" operator="arithmetic" k2="-1" k3="1" result="shadowInnerInner1"></feComposite>
            <feColorMatrix values="0 0 0 0 1   0 0 0 0 0   0 0 0 0 0  0 0 0 0.184140079 0" type="matrix" in="shadowInnerInner1"></feColorMatrix>
        </filter>
        <path d="M25.8094551,19.2097745 C25.8059295,19.1785532 25.8024038,19.1525355 25.7971154,19.1369248 L25.7971154,19.1230487 L25.7900641,19.0848893 C25.6649038,18.4847465 25.2612179,18.0979492 24.7588141,18.0979492 L24.6759615,18.0979492 C23.8192308,18.0979492 23.1246795,17.4110805 23.1246795,16.5715743 C23.1246795,16.3773084 23.2163462,16.1015203 23.2551282,16.0043873 C23.4983974,15.4458729 23.2392628,14.8093052 22.638141,14.4849505 L20.7466346,13.4320988 L20.7113782,13.4199571 C20.5703526,13.3748597 20.4064103,13.3210897 20.2230769,13.3210897 C19.8810897,13.3210897 19.4967949,13.4771962 19.2588141,13.711356 C18.9608974,14.0010203 18.35625,14.432915 17.9966346,14.432915 C17.6387821,14.432915 17.0323718,14.0027548 16.7344551,13.711356 C16.480609,13.4650546 16.1298077,13.3210897 15.7701923,13.3210897 C15.5815705,13.3210897 15.4229167,13.3731252 15.281891,13.4199571 L15.2501603,13.4320988 L13.2669872,14.4884195 L13.2546474,14.4953576 C12.7733974,14.79196 12.5777244,15.4718906 12.8227564,16.0113254 L12.8262821,16.0182634 L12.8298077,16.0252015 C12.8685897,16.1101928 12.9884615,16.3981226 12.9884615,16.6496276 C12.9884615,17.4926028 12.2903846,18.1760024 11.4371795,18.1760024 L11.3543269,18.1760024 C10.8290064,18.1760024 10.4358974,18.5575962 10.3230769,19.1698806 L10.3160256,19.204571 L10.3160256,19.2167126 C10.3160256,19.2340577 10.3089744,19.258341 10.3036859,19.2895623 C10.2596154,19.5514743 10.1538462,20.1689624 10.1538462,20.6737068 C10.1538462,21.1784512 10.2578526,21.7959392 10.3036859,22.0578512 C10.3072115,22.0890725 10.3107372,22.1150903 10.3160256,22.1307009 L10.3160256,22.1445771 L10.3230769,22.1827365 C10.4482372,22.7828793 10.8519231,23.1696766 11.3543269,23.1696766 L11.3966346,23.1696766 C12.2533654,23.1696766 12.9479167,23.8565453 12.9479167,24.6960514 C12.9479167,24.8903173 12.85625,25.1661055 12.8174679,25.2632384 C12.5830128,25.7887971 12.8051282,26.4635241 13.3233974,26.8034894 L13.3375,26.8104275 L15.2060897,27.8337925 L15.2413462,27.8459341 C15.3823718,27.8910315 15.5427885,27.9448016 15.7261218,27.9448016 C16.1174679,27.9448016 16.4700321,27.7973676 16.6903846,27.5545353 C16.7115385,27.5389246 16.7326923,27.5181104 16.7573718,27.4972962 C16.9830128,27.3030303 17.5894231,26.7896133 17.9895833,26.7896133 C18.2875,26.7896133 18.7863782,27.0966228 19.2887821,27.5909601 C19.5426282,27.8372615 19.8934295,27.9812264 20.2530449,27.9812264 C20.4963141,27.9812264 20.6761218,27.9153148 20.880609,27.8164473 L20.8876603,27.8129783 L22.8038462,26.7705336 L22.8108974,26.7635956 C23.2921474,26.4669932 23.4878205,25.7870625 23.2427885,25.2476278 L23.2392628,25.2406897 L23.2357372,25.2337517 C23.2322115,25.2320171 23.0823718,24.9250077 23.1105769,24.6492195 L23.1141026,24.6318743 L23.1141026,24.6145291 C23.1141026,23.7715539 23.8121795,23.0881543 24.6653846,23.0881543 L24.7535256,23.0881543 C25.2788462,23.0881543 25.6719551,22.7065606 25.7847756,22.0942761 L25.7918269,22.0595858 L25.7918269,22.0474441 C25.7953526,22.033568 25.7988782,22.0127538 25.8041667,21.9850015 C25.85,21.7300275 25.9558567,21.1350883 25.9558567,20.59045 C25.9592949,20.0874401 25.8552885,19.4716866 25.8094551,19.2097745 L25.8094551,19.2097745 Z M18.0530449,23.0673401 C16.6974359,23.0673401 15.5991987,21.986736 15.5991987,20.6528926 C15.5991987,19.3190491 16.6974359,18.2384451 18.0530449,18.2384451 C19.4086538,18.2384451 20.506891,19.3190491 20.506891,20.6528926 C20.506891,21.986736 19.4086538,23.0673401 18.0530449,23.0673401 L18.0530449,23.0673401 Z" id="path-4"></path>
        <filter x="-38.0%" y="-40.9%" width="175.9%" height="181.9%" filterUnits="objectBoundingBox" id="filter-5">
            <feOffset dx="0" dy="0" in="SourceAlpha" result="shadowOffsetOuter1"></feOffset>
            <feGaussianBlur stdDeviation="2" in="shadowOffsetOuter1" result="shadowBlurOuter1"></feGaussianBlur>
            <feColorMatrix values="0 0 0 0 1   0 0 0 0 0   0 0 0 0 0  0 0 0 0.333916084 0" type="matrix" in="shadowBlurOuter1"></feColorMatrix>
        </filter>
    </defs>
    <g id="页面-1" stroke="none" stroke-width="1" fill="none" fill-rule="evenodd">
        <g id="首页-助力用户轻松搭建视频业务" transform="translate(-905.000000, -65.000000)">
            <g id="4" transform="translate(905.000000, 65.000000)">
                <rect id="矩形" x="0" y="0" width="50" height="50"></rect>
                <g id="编组-5" transform="translate(3.000000, 8.000000)">
                    <ellipse id="椭圆形" fill="#FF0000" cx="32.7179487" cy="11.1009081" rx="11.2820513" ry="11.1009081"></ellipse>
                    <g id="形状结合" fill-rule="nonzero">
                        <use fill-opacity="0" fill="#FFFFFF" xlink:href="#path-2"></use>
                        <use fill="black" fill-opacity="1" filter="url(#filter-3)" xlink:href="#path-2"></use>
                        <use stroke="url(#linearGradient-1)" stroke-width="1.04651163" xlink:href="#path-2"></use>
                    </g>
                    <g id="形状" fill-rule="nonzero">
                        <use fill="black" fill-opacity="1" filter="url(#filter-5)" xlink:href="#path-4"></use>
                        <use fill="#FFFFFF" xlink:href="#path-4"></use>
                    </g>
                </g>
            </g>
        </g>
    </g>
</svg>