<svg xmlns="http://www.w3.org/2000/svg" viewBox="0 0 1153.5 768.8"><defs><style>.cls-1{fill:#d3d3d3;}.cls-11,.cls-2,.cls-3,.cls-6{fill:#fff;}.cls-2{stroke:#d3d3d3;}.cls-11,.cls-12,.cls-13,.cls-15,.cls-3,.cls-8,.cls-9{stroke:#0070cc;}.cls-13,.cls-4,.cls-5{isolation:isolate;}.cls-5{font-size:12.5px;font-family:PingFangSC-Medium-GBpc-EUC-H, PingFang SC;}.cls-10,.cls-5{fill:#0070cc;}.cls-12,.cls-7{fill:#d0e7f9;}.cls-13,.cls-15,.cls-16,.cls-18,.cls-8,.cls-9{fill:none;}.cls-12,.cls-8{stroke-width:0.8px;}.cls-11,.cls-9{stroke-width:1.5px;}.cls-13,.cls-16{stroke-dasharray:2;}.cls-13{opacity:0.6;}.cls-14{fill:#d0e8fa;}.cls-15{stroke-width:0.4px;}.cls-16{stroke:#7c7e7f;}.cls-17{fill:#ff7a04;}.cls-18{stroke:#7ebeee;}.cls-19{fill:#7ebeee;}</style></defs><title>资源 1</title><g id="图层_2" data-name="图层 2"><g id="图层_1-2" data-name="图层 1"><g id="内页"><g id="Group-160"><g id="Group-161"><g id="Group-152"><polygon id="Path-131-Copy" class="cls-1" points="852.21 65.85 1079.9 190.6 1142.07 153.04 1142.07 149.47 914.75 22.87 852.21 62.31 852.21 65.85"/><polygon id="Path-131" class="cls-2" points="853.13 62.37 1080.1 186.81 1141.17 149.43 914.77 22.94 853.13 62.37"/></g><rect id="Rectangle-16" class="cls-3" x="1044" y="175.36" width="72" height="22"/><g id="发布矩阵" class="cls-4"><text class="cls-5" transform="translate(1054.5 190.86)">发布矩阵</text></g><g id="Group-155"><g id="Group-138"><polygon id="Path-116" class="cls-6" points="915.44 34.86 890.5 49.1 915.44 61.86 939.5 49.1 915.44 34.86"/><polygon id="Path-115" class="cls-7" points="890.5 48.86 915.78 62.32 940.49 48.86 940.49 64.3 915 77.86 890.5 65.14 890.5 48.86"/><polyline id="Path-110" class="cls-8" points="890.5 48.86 915.44 62.19 940.38 48.86"/><path id="Path-114" class="cls-8" d="M915.5,61.88V78.06"/><polygon id="Path-109" class="cls-9" points="915.87 34.82 890.5 49.02 890.5 64.52 915.87 77.86 940.5 64.52 940.5 49.02 915.87 34.82"/></g><path id="Shape" class="cls-10" d="M912,44.57c3.69-1.35,7.39-1.73,10.59-.31a6.78,6.78,0,0,0,.76.36,7.21,7.21,0,0,0,1,.17c1.37.24,4.19.9,4.24,2s-2.17,2.11-4.06,2.6a9.31,9.31,0,0,1-3.61,2.8c-2.7-1.35-5.59-3.07-8.13-4.43-1.51,1-1.9,2.17-.82,3s2.7.75,4.17.51l3.1,1.7c-3.56,1.19-7.74,1.33-10.63-.58a4.36,4.36,0,0,1-1.3-1.4c-1.71-.17-5-.84-4.51-2.18.38-1,2.78-1.93,4.43-2.47a38.84,38.84,0,0,1,10.23-1.87c.06,0,.1,0,.16,0A34.07,34.07,0,0,0,912,44.57Zm12.71,1.36a3.2,3.2,0,0,1,.08,3.09,10.23,10.23,0,0,0,2.09-.83C928.68,47.07,926.5,46.08,924.7,45.93Zm-10,.71,4.91,2.71C923.26,47,918.35,44.67,914.72,46.64Zm-7.59,3.89c-.38-1.11.21-2.29,1.12-3.49a12.81,12.81,0,0,0-3.77,1.52C903.05,49.69,905.5,50.48,907.13,50.53Z"/></g><g id="Group-156"><g id="Group-138-2" data-name="Group-138"><polygon id="Path-116-2" data-name="Path-116" class="cls-6" points="956.44 57.86 931.5 72.1 956.44 84.86 980.5 72.1 956.44 57.86"/><polygon id="Path-115-2" data-name="Path-115" class="cls-7" points="931.5 71.86 956.78 85.32 981.49 71.86 981.49 87.3 956 100.86 931.5 88.14 931.5 71.86"/><polyline id="Path-110-2" data-name="Path-110" class="cls-8" points="931.5 71.86 956.44 85.19 981.38 71.86"/><path id="Path-114-2" data-name="Path-114" class="cls-8" d="M956.5,84.88v16.18"/><polygon id="Path-109-2" data-name="Path-109" class="cls-9" points="956.87 57.82 931.5 72.02 931.5 87.52 956.87 100.86 981.5 87.52 981.5 72.02 956.87 57.82"/></g><path id="Shape-2" data-name="Shape" class="cls-10" d="M949.24,76.28c-4.52-2.65-4.9-7-.85-9.68s11-2.76,15.53-.12,4.91,7,.86,9.68S953.77,78.92,949.24,76.28Zm4.28-9.75-5.94,2.66,1.59.92.72-.32.89.52-.46.47,1.59.93,3.85-3.87Zm-2.07,3.1-.51-.3,1.44-.64Zm9.21,1.07-3.56-2.08-4.9,3.26,2.24,1.31.06-.34,1.31-.88,1.57.91h1l2.32-1.54Zm-2.28-.08-1.38.92-.28-.17,1.38-.92Zm3.11.56-4.89,3.26,2.23,1.31.06-.34,1.32-.88,1.56.92h1l2.32-1.55,0-.64Zm1.28,2-1.38.92-.28-.17,1.38-.92Z"/></g><g id="Group-157"><g id="Group-138-3" data-name="Group-138"><polygon id="Path-116-3" data-name="Path-116" class="cls-6" points="997.44 80.86 972.5 95.1 997.44 107.86 1021.5 95.1 997.44 80.86"/><polygon id="Path-115-3" data-name="Path-115" class="cls-7" points="972.5 94.86 997.78 108.32 1022.49 94.86 1022.49 110.3 997 123.86 972.5 111.14 972.5 94.86"/><polyline id="Path-110-3" data-name="Path-110" class="cls-8" points="972.5 94.86 997.44 108.19 1022.38 94.86"/><path id="Path-114-3" data-name="Path-114" class="cls-8" d="M997.5,107.88v16.18"/><polygon id="Path-109-3" data-name="Path-109" class="cls-9" points="997.87 80.82 972.5 95.02 972.5 110.52 997.87 123.86 1022.5 110.52 1022.5 95.02 997.87 80.82"/></g><path id="Shape-3" data-name="Shape" class="cls-10" d="M1008.71,93.37l-9.26-5.69a3.08,3.08,0,0,0-3.09.06l-9.31,6a1.06,1.06,0,0,0,0,2l9.25,5.68a3.12,3.12,0,0,0,3.1-.05l9.31-6A1.05,1.05,0,0,0,1008.71,93.37Zm-5.38,3.35-3.2-.14a1.16,1.16,0,0,0-.77.24l-1.66,1.79a1.12,1.12,0,0,1-1.08.18.58.58,0,0,1-.36-.28l-.72-2a.66.66,0,0,0-.56-.34l-3.2-.4c-.41-.06-.72-.31-.61-.57s.15-.24.36-.3l2.79-1.1c.26-.1.41-.26.36-.49l-.3-2a.78.78,0,0,1,.78-.57,1.25,1.25,0,0,1,.62.12l2.42,1.29a1,1,0,0,0,.82.05l2.94-.87a1.05,1.05,0,0,1,1,.24.27.27,0,0,1,0,.39l-1.3,1.88c-.05.23-.05.42.16.55l2.1,1.49c.31.19.26.48-.05.69A.84.84,0,0,1,1003.33,96.72Z"/></g><g id="Group-158"><g id="Group-138-4" data-name="Group-138"><polygon id="Path-116-4" data-name="Path-116" class="cls-6" points="1037.44 104.86 1012.5 119.1 1037.44 131.86 1061.5 119.1 1037.44 104.86"/><polygon id="Path-115-4" data-name="Path-115" class="cls-7" points="1012.5 118.86 1037.78 132.32 1062.49 118.86 1062.49 134.3 1037 147.86 1012.5 135.14 1012.5 118.86"/><polyline id="Path-110-4" data-name="Path-110" class="cls-8" points="1012.5 118.86 1037.44 132.19 1062.38 118.86"/><path id="Path-114-4" data-name="Path-114" class="cls-8" d="M1037.5,131.88v16.18"/><polygon id="Path-109-4" data-name="Path-109" class="cls-9" points="1037.87 104.82 1012.5 119.02 1012.5 134.52 1037.87 147.86 1062.5 134.52 1062.5 119.02 1037.87 104.82"/></g><path id="Shape-4" data-name="Shape" class="cls-10" d="M1043.48,117.45a5.72,5.72,0,0,1,.48.32c2.19-1.77,1.86-4.19-.75-5.68a12.11,12.11,0,0,0-10.89.13c-1.8,1-2.49,2.32-2.31,3.73l-2.51.82,3,.41a7.61,7.61,0,0,0,1.54,1.24,3.63,3.63,0,0,0,.52.27,6.49,6.49,0,0,1,1.21-.87C1036.64,116.19,1041,116,1043.48,117.45Zm-1.07-2.64c.4.23.33.56-.16.84a1.55,1.55,0,0,1-1.48.09c-.41-.23-.48-.64,0-.92A1.81,1.81,0,0,1,1042.41,114.81Zm-5.36-1.2c-.4-.22-.47-.64,0-.92a1.81,1.81,0,0,1,1.62,0c.4.23.34.57-.16.85A1.57,1.57,0,0,1,1037.05,113.61Zm6.16,9.52c2.63-1.49,2.64-3.92.25-5.28a10.3,10.3,0,0,0-9.27.12c-2.64,1.49-2.78,3.84-.25,5.28a9.37,9.37,0,0,0,1.92.73l.47,1.4,1.24-1.17A11.31,11.31,0,0,0,1043.21,123.13Zm-5.15-3.88c-.27-.15-.2-.49.12-.68a1.51,1.51,0,0,1,1.19-.07.4.4,0,0,1,0,.76A1.49,1.49,0,0,1,1038.06,119.25Zm2.92,1.67c-.26-.15-.2-.49.13-.68a1.44,1.44,0,0,1,1.18-.06c.4.22.34.56,0,.75A1.53,1.53,0,0,1,1041,120.92Z"/></g><g id="Group-159"><g id="Group-138-Copy"><polygon id="Path-116-5" data-name="Path-116" class="cls-6" points="1080.44 126.86 1055.5 141.1 1080.44 153.86 1104.5 141.1 1080.44 126.86"/><polygon id="Path-115-5" data-name="Path-115" class="cls-7" points="1055.5 140.86 1080.78 154.32 1105.49 140.86 1105.49 156.3 1080 169.86 1055.5 157.14 1055.5 140.86"/><polyline id="Path-110-5" data-name="Path-110" class="cls-8" points="1055.5 140.86 1080.44 154.19 1105.38 140.86"/><path id="Path-114-5" data-name="Path-114" class="cls-8" d="M1080.5,153.88v16.18"/><polygon id="Path-109-5" data-name="Path-109" class="cls-9" points="1080.87 126.82 1055.5 141.02 1055.5 156.52 1080.87 169.86 1105.5 156.52 1105.5 141.02 1080.87 126.82"/></g><g id="微博"><path id="Shape-5" data-name="Shape" class="cls-10" d="M1087.67,142.92l-.06,0c-.13-.11-.06-.25.15-.32,1.07-.35,1.62-.71,1.62-1.07,0-.59-1.44-1-1.45-1-.21-.06-.27-.2-.14-.31a.74.74,0,0,1,.61-.08c.07,0,1.87.57,1.87,1.41,0,.52-.69,1-2,1.46A.74.74,0,0,1,1087.67,142.92Z"/><path id="Shape-6" data-name="Shape" class="cls-10" d="M1089.35,144.43l-.06,0c-.19-.13-.12-.32.14-.42,2.47-.91,3.68-1.82,3.61-2.68-.13-1.34-3.3-2.21-3.33-2.22-.28-.07-.38-.25-.23-.4a1,1,0,0,1,.8-.12c.16,0,3.76,1,3.92,2.69.11,1.08-1.27,2.16-4.1,3.21A1,1,0,0,1,1089.35,144.43Z"/><path id="Shape-7" data-name="Shape" class="cls-10" d="M1085.47,142.8s6-1.34-1.89-3.14c2.45-1.07,2.88-2.25-1.61-2.81,0,0-15.65-1.28-13.11,4.21,0,0,4.78,6.08,15.33,4.54C1087.37,144.74,1086.13,143.09,1085.47,142.8Zm-11.92.61c-3.11-1.23-4.25-3.11-2.53-4.21s5.62-1,8.74.24,4.25,3.11,2.53,4.2S1076.66,144.63,1073.55,143.41Z"/><path id="Shape-8" data-name="Shape" class="cls-10" d="M1078.87,142.84c1.31-.79,1-2-.67-2.68a6.84,6.84,0,0,0-5.42.18c-1.31.79-1,2,.67,2.68A6.84,6.84,0,0,0,1078.87,142.84Zm-5.44-.9c-.47-.23-.46-.63,0-.88a2.15,2.15,0,0,1,1.74,0c.48.24.46.63,0,.88A2.15,2.15,0,0,1,1073.43,141.94Zm3,0c-.21-.1-.19-.29,0-.41a1,1,0,0,1,.81,0c.22.11.2.29,0,.41A1,1,0,0,1,1076.4,141.92Z"/></g></g></g><g id="Group-154"><g id="Group-152-2" data-name="Group-152"><polygon id="Path-131-Copy-2" data-name="Path-131-Copy" class="cls-1" points="1053.5 40.21 1103.35 67.86 1153.5 38.1 1153.5 34.53 1103.64 5.86 1053.5 36.67 1053.5 40.21"/><polygon id="Path-131-2" data-name="Path-131" class="cls-2" points="1054.5 36.41 1103.64 63.86 1152.5 34.36 1103.93 4.86 1054.5 36.41"/></g><g id="Group-153"><path id="Path-132" class="cls-11" d="M1134.3,19.41l-32-18.55q-6.13,3.33-8.8,4.83c-4.47,2.53-8.21,4.7-9.78,8q-3.77,7.77-1.08,27.81,18.08,4.39,26.83,2.81t24.85-13Z"/><path id="Path-132-Copy" class="cls-12" d="M1081.86,30.53c12.06,2.93,21.76,3.79,27.59,2.73s14.12-5.38,24.85-13V30.79q-16.4,11.46-24.85,13.1t-26.57-2.59Z"/><polyline id="Path-133" class="cls-8" points="1102.5 0.86 1102.5 19.69 1134.18 19.69"/><path id="Path-134" class="cls-8" d="M1102.86,19.42,1082,30.21"/></g><rect id="Rectangle-16-2" data-name="Rectangle-16" class="cls-3" x="1072" y="57.36" width="72" height="22"/><g id="精准触达" class="cls-4"><text class="cls-5" transform="translate(1082.5 72.86)">精准触达</text></g></g><g id="Group-172"><path id="Path-137-Copy" class="cls-13" d="M387.5,326.68,571,218.86l138.11,81.23L526,408.18Z"/><path id="Path-137-Copy-2" class="cls-13" d="M563.5,434.68,747,326.86l138.11,81.23L702,516.18Z"/><g id="Group-163"><g id="Group-152-3" data-name="Group-152"><polygon id="Path-131-Copy-3" data-name="Path-131-Copy" class="cls-1" points="452.5 333.21 502.35 360.86 552.5 331.1 552.5 327.53 502.64 298.86 452.5 329.67 452.5 333.21"/><polygon id="Path-131-3" data-name="Path-131" class="cls-2" points="453.5 329.41 502.64 356.86 551.5 327.36 502.93 297.86 453.5 329.41"/></g><rect id="Rectangle-16-3" data-name="Rectangle-16" class="cls-3" x="471" y="350.36" width="72" height="22"/><g id="内容聚合" class="cls-4"><text class="cls-5" transform="translate(481.5 365.86)">内容聚合</text></g><g id="Group-162"><path id="Oval-42" class="cls-11" d="M525.5,327.86V296.91c0-7.21-10.07-13.05-22.5-13.05s-22.5,5.84-22.5,13.05v30.95"/><path id="Oval-42-Copy-4" class="cls-12" d="M525.5,297.86c0,7.2-10,13-22.59,13s-22.41-5.84-22.41-13v30.52q5.29,11.47,22.41,11.48t22.59-11.48Z"/><path id="Oval-42-Copy" class="cls-9" d="M525.5,325.86c0,7.18-10.17,13-22.55,13s-22.45-5.82-22.45-13"/><path id="Oval-42-Copy-2" class="cls-8" d="M525.5,316.86c0,7.18-10.07,13-22.5,13s-22.5-5.82-22.5-13"/><path id="Oval-42-Copy-3" class="cls-8" d="M525.5,306.86c0,7.18-10.07,13-22.5,13s-22.5-5.82-22.5-13"/><polygon id="Path-136" class="cls-10" points="516.5 310.97 516.5 312.86 519.5 310.97 519.5 308.86 516.5 310.97"/><polygon id="Path-136-Copy" class="cls-10" points="516.5 320.97 516.5 322.86 519.5 320.97 519.5 318.86 516.5 320.97"/><polygon id="Path-136-Copy-2" class="cls-10" points="516.5 330.97 516.5 332.86 519.5 330.97 519.5 328.86 516.5 330.97"/></g></g><g id="Group-166"><g id="Group-152-4" data-name="Group-152"><polygon id="Path-131-Copy-4" data-name="Path-131-Copy" class="cls-1" points="627.5 440.21 677.35 467.86 727.5 438.1 727.5 434.53 677.64 405.86 627.5 436.67 627.5 440.21"/><polygon id="Path-131-4" data-name="Path-131" class="cls-2" points="628.5 436.41 677.64 463.86 726.5 434.36 677.93 404.86 628.5 436.41"/></g><g id="Group-145-Copy"><g id="Group-144"><polygon id="Path-129" class="cls-6" points="684.49 395.22 660.17 408.39 674.52 417.39 697.97 403.5 684.49 395.22"/><polygon id="Path-127" class="cls-14" points="659.61 409.06 674.39 417.56 699.16 402.61 699.16 431.26 674.39 446.6 659.61 437.59 659.61 409.06"/><polyline id="Path-124" class="cls-8" points="659.5 408.92 674.4 417.47 698.57 403.1"/><path id="Path-125" class="cls-8" d="M674.57,417.47v28.82"/><polygon id="Path-123" class="cls-9" points="684.56 395.43 659.5 408.85 659.5 437.72 674.81 446.3 698.93 431.6 698.93 403.53 684.56 395.43"/></g><polygon id="Path-126" class="cls-10" points="667.5 417.86 667.5 420.52 672.5 422.86 672.5 420.31 667.5 417.86"/><path id="Path-128" class="cls-15" d="M662.5,426.86l9,5"/><path id="Path-128-Copy" class="cls-15" d="M662.5,429.86l9,5"/><path id="Path-128-Copy-2" class="cls-15" d="M662.5,432.86l9,5"/></g><rect id="Rectangle-16-4" data-name="Rectangle-16" class="cls-3" x="646" y="457.36" width="72" height="22"/><g id="内容交换" class="cls-4"><text class="cls-5" transform="translate(656.5 472.86)">内容交换</text></g></g><g id="Group-164"><g id="Group-152-5" data-name="Group-152"><polygon id="Path-131-Copy-5" data-name="Path-131-Copy" class="cls-1" points="538.5 286.21 588.35 313.86 638.5 284.1 638.5 280.53 588.64 251.86 538.5 282.67 538.5 286.21"/><polygon id="Path-131-5" data-name="Path-131" class="cls-2" points="539.5 282.41 588.64 309.86 637.5 280.36 588.93 250.86 539.5 282.41"/></g><rect id="Rectangle-16-5" data-name="Rectangle-16" class="cls-3" x="557" y="303.36" width="72" height="22"/><g id="加工生产" class="cls-4"><text class="cls-5" transform="translate(567.5 318.86)">加工生产</text></g><g id="Group-126"><polygon id="Path-91" class="cls-14" points="563.5 267.78 583.27 278.9 592.29 274.73 605.07 274.73 620.5 266.86 620.5 283.57 606.09 291.07 592 291.07 584.07 294.86 563.5 283.57 563.5 267.78"/><polygon id="Path-92" class="cls-6" points="583.79 246.86 570.39 253.74 570.39 263.65 563.5 268.58 583.79 278.86 592.11 274.98 605.01 274.98 619.5 267.66 583.79 246.86"/><polyline id="Path-87" class="cls-8" points="563.5 268.54 584.17 278.86 592.13 274.92 605.33 274.92 619.5 267.86"/><path id="Path-88" class="cls-8" d="M584,278.78v15.61"/><path id="Path-89" class="cls-8" d="M592.5,274.86v16"/><path id="Path-90" class="cls-8" d="M604.91,275v16"/><polygon id="Path-86" class="cls-9" points="583.9 246.86 570.89 253.93 570.89 263.25 563.5 268.06 563.5 283.63 583.9 294.86 592.15 291.19 605.14 291.19 620.5 283.63 620.5 268.06 583.9 246.86"/><path id="Shape-9" data-name="Shape" class="cls-10" d="M592.34,268.69a.67.67,0,0,0-.78-.43,1.72,1.72,0,0,0-.28.14l-1.41.88-8.22-4.88c-1.09-.65-1.22-1.65-.28-2.25a3.89,3.89,0,0,1,3.68.11l7.45,4.43a7.21,7.21,0,0,0,6.84.2c1.74-1.09,1.5-3-.54-4.17l-7.29-4.33c.67-.89.25-2-1-2.77a5.73,5.73,0,0,0-5.4-.16c-1.37.88-1.18,2.35.43,3.3a6,6,0,0,0,4.54.54l7.3,4.34c1.09.65,1.22,1.65.29,2.24a3.89,3.89,0,0,1-3.68-.11l-7.46-4.42a7.24,7.24,0,0,0-6.84-.21c-1.74,1.1-1.5,3,.54,4.18l8.22,4.88-1.33.84a1.12,1.12,0,0,0-.25.2c-.12.22.28.47.68.48l4.5.14a.86.86,0,0,0,.5-.12.29.29,0,0,0,.17-.3Zm-5.55-12.21a2.38,2.38,0,0,1,2.24.06c.66.4.74,1,.17,1.37a2.35,2.35,0,0,1-2.24-.07C586.3,257.45,586.22,256.83,586.79,256.48Z"/></g></g><path id="Path-137" class="cls-16" d="M331.72,333.05,738.27,91.86,1109.08,310,703.66,551.89Z"/><g id="Group-167"><g id="Group-152-6" data-name="Group-152"><polygon id="Path-131-Copy-6" data-name="Path-131-Copy" class="cls-1" points="691.5 169.21 741.35 196.86 791.5 167.1 791.5 163.53 741.64 134.86 691.5 165.67 691.5 169.21"/><polygon id="Path-131-6" data-name="Path-131" class="cls-2" points="692.5 165.41 741.64 192.86 790.5 163.36 741.93 133.86 692.5 165.41"/></g><g id="Group-135"><g id="Group-134"><polygon id="Path-108" class="cls-6" points="738.41 129 719.46 142.24 728.04 157.64 753.43 160.03 770.79 149.41 763.41 133.14 738.41 129"/><polygon id="Path-107" class="cls-14" points="719.55 143.8 719.55 158.93 726.37 173.18 753.4 176.57 771.06 166.35 771.06 149.39 752.92 160.19 728.06 158.03 719.55 143.8"/><polyline id="Path-104" class="cls-8" points="719.5 142.42 727.92 158.16 753.03 159.95 770.66 149.6"/><path id="Path-105" class="cls-8" d="M727.85,158.22v15.26"/><path id="Path-106" class="cls-8" d="M753,159.78v16.56"/><polygon id="Path-103" class="cls-9" points="738.18 128.86 719.5 141.86 719.5 159.04 726.96 173.89 753.77 176.34 770.97 166.48 770.97 150.21 763.68 133.23 738.18 128.86"/></g><g id="审核"><path id="Shape-10" data-name="Shape" class="cls-10" d="M746.78,151l-13.55-5.69a1,1,0,0,0-.78.13l-.44.27c-.24.15-.29.33-.11.41l13.52,5.67a1.07,1.07,0,0,0,.77-.13l.44-.27C746.88,151.28,746.93,151.1,746.78,151Zm2.81-1.39c.57-.34.56-.47,0-.72l-2.12-.88a.47.47,0,0,1-.24-.35.49.49,0,0,1,0-.24.62.62,0,0,1,0-.13,1.7,1.7,0,0,1,0-.22c.23-1.43,2.07-1.71,4.37-2.19.38-.06.75-.11,1.12-.2a9.32,9.32,0,0,0,2.78-1.08c2.52-1.53,2.47-3.67-.19-4.79a11.61,11.61,0,0,0-9.36.78,3.45,3.45,0,0,0-1.79,2.12c-.53,1.36-.13,2.82-4.79,2.91l-2.54-1.06a1.49,1.49,0,0,0-1.4.11l-1.4.85c-.41.25,0,.32.44.52l13,5.46c.46.15.29.21.74-.06Z"/></g></g><rect id="Rectangle-16-6" data-name="Rectangle-16" class="cls-3" x="710" y="186.36" width="72" height="22"/><g id="一键发布" class="cls-4"><text class="cls-5" transform="translate(720.5 201.86)">一键发布</text></g></g><g id="Group-168"><g id="Group-152-7" data-name="Group-152"><polygon id="Path-131-Copy-7" data-name="Path-131-Copy" class="cls-1" points="798.5 229.21 848.35 256.86 898.5 227.1 898.5 223.53 848.64 194.86 798.5 225.67 798.5 229.21"/><polygon id="Path-131-7" data-name="Path-131" class="cls-2" points="799.5 225.41 848.64 252.86 897.5 223.36 848.93 193.86 799.5 225.41"/></g><g id="Group-135-2" data-name="Group-135"><g id="Group-134-2" data-name="Group-134"><polygon id="Path-108-2" data-name="Path-108" class="cls-6" points="846.41 188 827.46 201.24 836.04 216.64 861.43 219.03 878.79 208.41 871.41 192.14 846.41 188"/><polygon id="Path-107-2" data-name="Path-107" class="cls-14" points="827.55 202.8 827.55 217.93 834.37 232.18 861.4 235.57 879.06 225.35 879.06 208.39 860.92 219.19 836.06 217.03 827.55 202.8"/><polyline id="Path-104-2" data-name="Path-104" class="cls-8" points="827.5 201.42 835.92 217.16 861.03 218.95 878.66 208.6"/><path id="Path-105-2" data-name="Path-105" class="cls-8" d="M835.85,217.22v15.26"/><path id="Path-106-2" data-name="Path-106" class="cls-8" d="M861,218.78v16.56"/><polygon id="Path-103-2" data-name="Path-103" class="cls-9" points="846.18 187.86 827.5 200.86 827.5 218.04 834.96 232.89 861.77 235.34 878.97 225.48 878.97 209.21 871.68 192.23 846.18 187.86"/></g><path id="Shape-11" data-name="Shape" class="cls-10" d="M863.73,197.74c.42.3.37.51-.13.72-.67.28-1.31.5-2,.78-1,.47-1.39,1.24-1,2.09a1.92,1.92,0,0,0,2.42,1,14.41,14.41,0,0,0,2-.64c.56-.2.78-.13.69.39-.35,3.25-4.21,5.71-8,5.14a5.6,5.6,0,0,1-2.35-.79,1.57,1.57,0,0,0-1.5-.11c-2.91,1.06-5.8,2.08-8.74,3.08a3.83,3.83,0,0,1-3.07.3,2.22,2.22,0,0,1-1.64-2,2.44,2.44,0,0,1,1.38-2.3,5.72,5.72,0,0,1,1.26-.51l8.58-3a1.51,1.51,0,0,0,1.1-1.07c1-3.32,5.36-5.32,9.2-4A5.53,5.53,0,0,1,863.73,197.74Z"/></g><rect id="Rectangle-16-7" data-name="Rectangle-16" class="cls-3" x="817" y="246.36" width="72" height="22"/><g id="可管可控" class="cls-4"><text class="cls-5" transform="translate(827.5 261.86)">可管可控</text></g></g><g id="Group-169"><g id="Group-152-8" data-name="Group-152"><polygon id="Path-131-Copy-8" data-name="Path-131-Copy" class="cls-1" points="908.5 290.21 958.35 317.86 1008.5 288.1 1008.5 284.53 958.64 255.86 908.5 286.67 908.5 290.21"/><polygon id="Path-131-8" data-name="Path-131" class="cls-2" points="909.5 286.41 958.64 313.86 1007.5 284.36 958.93 254.86 909.5 286.41"/></g><g id="Group-129"><g id="Group-128"><path id="Path-96" class="cls-6" d="M939.57,266.11Q947.48,255,960.86,255t24.43,11.14q-11.46,13.27-22.86,13.28T939.57,266.11Z"/><path id="Path-95" class="cls-14" d="M939.5,267.53v14.52q10.9,11.82,22.38,11.94t23.33-11.45V269q-12.57,10-24,9.61T939.5,267.53Z"/><path id="Path-93" class="cls-8" d="M939.5,267.53q11.47,11,23,11t22.78-11"/><path id="Path-94" class="cls-9" d="M939.5,265.85q5.85-10.62,21.67-10.62t23.69,10.62v17q-9.18,10.8-22.68,10.8t-22.68-11.7Z"/></g><path id="Shape-12" data-name="Shape" class="cls-10" d="M974.27,265.78l-14.47,2.85,1-4.6c.14-.67-.49-1.06-1.42-.88a2.52,2.52,0,0,0-1.94,1.54l-1.26,5.81a.67.67,0,0,0,.31.76,1.57,1.57,0,0,0,1.11.12l16.16-3.19a2.48,2.48,0,0,0,1.94-1.54C975.83,266,975.2,265.59,974.27,265.78Z"/></g><rect id="Rectangle-16-8" data-name="Rectangle-16" class="cls-3" x="927" y="307.36" width="72" height="22"/><g id="一键删除" class="cls-4"><text class="cls-5" transform="translate(937.5 322.86)">一键删除</text></g></g><g id="Group-165"><g id="Group-152-9" data-name="Group-152"><polygon id="Path-131-Copy-9" data-name="Path-131-Copy" class="cls-1" points="715.5 395.21 765.35 422.86 815.5 393.1 815.5 389.53 765.64 360.86 715.5 391.67 715.5 395.21"/><polygon id="Path-131-9" data-name="Path-131" class="cls-2" points="716.5 391.41 765.64 418.86 814.5 389.36 765.93 359.86 716.5 391.41"/></g><rect id="Rectangle-16-9" data-name="Rectangle-16" class="cls-3" x="734" y="412.36" width="72" height="22"/><g id="媒体大数据" class="cls-4"><text class="cls-5" transform="translate(740.5 427.86)">媒体大数据</text></g><g id="Group-132"><polygon id="Path-101" class="cls-6" points="752.17 347.86 746.5 350.31 778.43 399.86 784.5 396.7 784.5 368.76 752.17 347.86"/><polygon id="Path-100" class="cls-14" points="745.67 350.92 745.67 380.7 756.68 387.37 757.42 395.74 765.41 400.86 765.41 393.18 771.61 396.29 777.72 399.28 778.29 372 776.21 368.49 748.25 351.72 745.67 350.92"/><path id="Path-98" class="cls-8" d="M746.5,350.86l30.07,18.39a4.66,4.66,0,0,1,1.22,1.25,5.88,5.88,0,0,1,.71,1.65l-.71,27.06L765.43,393v7.84"/><path id="Path-97" class="cls-9" d="M745.5,353v25.5a5.64,5.64,0,0,0,.68,2.27,4.64,4.64,0,0,0,1.58,1.63l9,4.91V396l7,4.3a3.78,3.78,0,0,0,1.55.52,4.1,4.1,0,0,0,1.59-.52l4.6-4.3,5.58,3a7.77,7.77,0,0,0,2.23.48,5.29,5.29,0,0,0,1.93-.48,5.89,5.89,0,0,0,1.71-1.33,5.19,5.19,0,0,0,1.24-1.94,6.75,6.75,0,0,0,.32-2.56V370a7.58,7.58,0,0,0-.5-2.4,7,7,0,0,0-1.64-1.79l-28.94-17.35a5.26,5.26,0,0,0-4.91,0A5.37,5.37,0,0,0,745.5,353Z"/><polygon id="Path-99" class="cls-8" points="749.5 355.86 749.5 374.3 775.5 389.86 775.5 371.83 749.5 355.86"/><polyline id="Path-102" class="cls-8" points="749.5 367.72 752.33 365.86 754.36 372.48 757.28 370.71 759.08 376.08 763.25 369.48 766.96 380.58 770.16 376.08 775.5 383.86"/></g></g><path id="内容中心" class="cls-17" d="M721.68,255a33.25,33.25,0,0,1-12.32.7l.29-2.16a29.62,29.62,0,0,0,12.31-1c1-.36,2.12-.78,3.22-1.28l-6.58-3.89-17,10.5-2.46-1.46,19.28-11.93,9.33,5.52c1.33-.7,2.72-1.46,4.09-2.31l2.49,1.47c-1.38.85-2.73,1.63-4.07,2.33l8.87,5.24L723,266.7a5,5,0,0,1-5.5.17l-4-2.38,1.72-1.86,3.74,2.36a1.94,1.94,0,0,0,2.13-.08l13.35-8.25-6.67-3.94c-1,.45-2,.87-2.94,1.23a28,28,0,0,1-.39,8.09l-3.7,0A24,24,0,0,0,721.68,255ZM759,263.65c-.38.54-.82,1.13-1.32,1.74l9.36,5.54-4.77,2.94L760,272.48l2.58-1.6-16.82-9.94L743,262.61l-2.35-1.39,4.89-3,9.61,5.69a10.62,10.62,0,0,0,.83-1.54Zm-9.54,4.07,1.79,1.06c-.38,2.75,1.08,6.19,4.3,10.34l-3.24.42c-.52-.73-1-1.42-1.43-2.06l-7.9,4.89L740.68,281l.91-.56L730.69,274l-.9.56-2.36-1.4,8-4.95c-1.27-.26-2.55-.59-3.82-.92l.62-2A59.53,59.53,0,0,0,749.5,267.72Zm-16.65,4.93,10.89,6.45,3.49-2.16-10.89-6.44Zm4.57-4.06,12.63,7.47a11.79,11.79,0,0,1-1.69-6.55A58.84,58.84,0,0,1,737.42,268.59Zm19.26-.38a34.57,34.57,0,0,1,3.16,7.47h-3.33a26.51,26.51,0,0,0-2.87-7.49Zm-6.46-3.82.19,1.81a71,71,0,0,1-13-1.69l.4-2A70.91,70.91,0,0,0,750.22,264.39Zm32.53,13.31,2.51,1.49-4.34,2.68,9.13,5.4-12.12,7.49-2.43-1.44,1.43-.88-6.69-4-8.41,5.2-2.51-1.49,8.4-5.2-6.66-3.94-1.43.89-2.44-1.44,12.12-7.5,9.1,5.39Zm-19.36,3.91,6.67,3.94,6-3.72-6.67-3.94Zm9.18,5.43,6.69,3.95,6-3.72-6.69-4Zm18,22.43-5.69-3.36c-2-1.19-2-2.38-.12-3.56l14.2-8.78,2.43,1.44-13.69,8.47c-.7.43-.62.91.25,1.42l4.49,2.65a2.39,2.39,0,0,0,1.83.21,30,30,0,0,0,5.58-2.77l1.55,1.83c-3.76,2.08-6.25,3.15-7.52,3.26A5.65,5.65,0,0,1,790.6,309.47Zm2-16.46,1.85,1.68A98.2,98.2,0,0,1,780,300.08l-.83-2A91.39,91.39,0,0,0,792.64,293Zm17.9,9.77a70,70,0,0,1-6.79,9l-3.21-.72a61.11,61.11,0,0,0,6.86-9.17Zm-2-9.78a30.59,30.59,0,0,1-1.42,7.2l-3.4-.38a28.44,28.44,0,0,0,1.59-7.25Z"/></g><g id="Group-177"><path id="Path-137-2" data-name="Path-137" class="cls-16" d="M1,554.06,257.41,386.94,620.69,599.28,366.44,768.21Z"/><g id="Group-175"><path id="Path-139" class="cls-18" d="M431.39,601l-46.9,28.68"/><polygon id="Path-140" class="cls-19" points="392.5 632.86 378.73 624.1 378.73 632.86 392.5 632.86"/></g><g id="Group-175-2" data-name="Group-175"><path id="Path-139-2" data-name="Path-139" class="cls-18" d="M339.5,519l48.91,26.85"/><polygon id="Path-140-2" data-name="Path-140" class="cls-19" points="392.84 540.3 379.9 550.25 394.36 549.34 392.84 540.3"/></g><g id="Group-175-Copy-4"><path id="Path-139-3" data-name="Path-139" class="cls-18" d="M290.5,620.75,241.59,593.9"/><polygon id="Path-140-3" data-name="Path-140" class="cls-19" points="237.16 599.42 250.1 589.47 235.64 590.38 237.16 599.42"/></g><g id="Group-173"><g id="Group-152-10" data-name="Group-152"><polygon id="Path-131-Copy-10" data-name="Path-131-Copy" class="cls-1" points="266.5 642.21 385.06 709.18 435.22 679.42 435.22 675.85 316.64 607.86 266.5 638.67 266.5 642.21"/><polygon id="Path-131-10" data-name="Path-131" class="cls-2" points="267.5 638.41 385.53 705.21 434.39 675.71 316.93 606.86 267.5 638.41"/></g><g id="Group-145-Copy-2" data-name="Group-145-Copy"><g id="Group-144-2" data-name="Group-144"><polygon id="Path-129-2" data-name="Path-129" class="cls-6" points="335.49 607.22 311.17 620.39 325.52 629.39 348.97 615.5 335.49 607.22"/><polygon id="Path-127-2" data-name="Path-127" class="cls-14" points="310.61 621.06 325.39 629.56 350.16 614.61 350.16 643.26 325.39 658.6 310.61 649.59 310.61 621.06"/><polyline id="Path-124-2" data-name="Path-124" class="cls-8" points="310.5 620.92 325.4 629.47 349.57 615.1"/><path id="Path-125-2" data-name="Path-125" class="cls-8" d="M325.57,629.47v28.82"/><polygon id="Path-123-2" data-name="Path-123" class="cls-9" points="335.56 607.42 310.5 620.85 310.5 649.72 325.81 658.29 349.93 643.6 349.93 615.53 335.56 607.42"/></g><polygon id="Path-126-2" data-name="Path-126" class="cls-10" points="318.5 629.86 318.5 632.52 323.5 634.86 323.5 632.31 318.5 629.86"/><path id="Path-128-2" data-name="Path-128" class="cls-15" d="M313.5,638.86l9,5"/><path id="Path-128-Copy-2-2" data-name="Path-128-Copy" class="cls-15" d="M313.5,641.86l9,5"/><path id="Path-128-Copy-2-3" data-name="Path-128-Copy-2" class="cls-15" d="M313.5,644.86l9,5"/></g><g id="Group-145-Copy-2-2" data-name="Group-145-Copy-2"><g id="Group-144-3" data-name="Group-144"><polygon id="Path-129-3" data-name="Path-129" class="cls-6" points="357.49 620.22 333.17 633.39 347.52 642.39 370.97 628.5 357.49 620.22"/><polygon id="Path-127-3" data-name="Path-127" class="cls-14" points="332.61 634.06 347.39 642.56 372.16 627.61 372.16 656.26 347.39 671.6 332.61 662.59 332.61 634.06"/><polyline id="Path-124-3" data-name="Path-124" class="cls-8" points="332.5 633.92 347.4 642.47 371.57 628.1"/><path id="Path-125-3" data-name="Path-125" class="cls-8" d="M347.57,642.47v28.82"/><polygon id="Path-123-3" data-name="Path-123" class="cls-9" points="357.56 620.42 332.5 633.85 332.5 662.72 347.81 671.29 371.93 656.6 371.93 628.53 357.56 620.42"/></g><polygon id="Path-126-3" data-name="Path-126" class="cls-10" points="340.5 642.86 340.5 645.52 345.5 647.86 345.5 645.31 340.5 642.86"/><path id="Path-128-3" data-name="Path-128" class="cls-15" d="M335.5,651.86l9,5"/><path id="Path-128-Copy-3" data-name="Path-128-Copy" class="cls-15" d="M335.5,654.86l9,5"/><path id="Path-128-Copy-2-4" data-name="Path-128-Copy-2" class="cls-15" d="M335.5,657.86l9,5"/></g><g id="Group-145-Copy-3"><g id="Group-144-4" data-name="Group-144"><polygon id="Path-129-4" data-name="Path-129" class="cls-6" points="380.49 633.22 356.17 646.39 370.52 655.39 393.97 641.5 380.49 633.22"/><polygon id="Path-127-4" data-name="Path-127" class="cls-14" points="355.61 647.06 370.39 655.56 395.16 640.61 395.16 669.26 370.39 684.6 355.61 675.59 355.61 647.06"/><polyline id="Path-124-4" data-name="Path-124" class="cls-8" points="355.5 646.92 370.4 655.47 394.57 641.1"/><path id="Path-125-4" data-name="Path-125" class="cls-8" d="M370.57,655.47v28.82"/><polygon id="Path-123-4" data-name="Path-123" class="cls-9" points="380.56 633.42 355.5 646.85 355.5 675.72 370.81 684.29 394.93 669.6 394.93 641.53 380.56 633.42"/></g><polygon id="Path-126-4" data-name="Path-126" class="cls-10" points="363.5 655.86 363.5 658.52 368.5 660.86 368.5 658.31 363.5 655.86"/><path id="Path-128-4" data-name="Path-128" class="cls-15" d="M358.5,664.86l9,5"/><path id="Path-128-Copy-4" data-name="Path-128-Copy" class="cls-15" d="M358.5,667.86l9,5"/><path id="Path-128-Copy-2-5" data-name="Path-128-Copy-2" class="cls-15" d="M358.5,670.86l9,5"/></g><rect id="Rectangle-16-10" data-name="Rectangle-16" class="cls-3" x="338" y="695.36" width="94" height="22"/><g id="市融媒体中心" class="cls-4"><text class="cls-5" transform="translate(348.5 710.86)">市融媒体中心</text></g></g><g id="Group-173-Copy"><g id="Group-152-11" data-name="Group-152"><polygon id="Path-131-Copy-11" data-name="Path-131-Copy" class="cls-1" points="84.5 537.21 203.06 604.18 253.22 574.42 253.22 570.85 134.64 502.86 84.5 533.67 84.5 537.21"/><polygon id="Path-131-11" data-name="Path-131" class="cls-2" points="85.5 533.41 203.53 600.21 252.4 570.71 134.93 501.86 85.5 533.41"/></g><g id="Group-145-Copy-3-2" data-name="Group-145-Copy"><g id="Group-144-5" data-name="Group-144"><polygon id="Path-129-5" data-name="Path-129" class="cls-6" points="153.49 502.22 129.17 515.39 143.52 524.39 166.97 510.5 153.49 502.22"/><polygon id="Path-127-5" data-name="Path-127" class="cls-14" points="128.61 516.06 143.39 524.56 168.16 509.61 168.16 538.26 143.39 553.6 128.61 544.59 128.61 516.06"/><polyline id="Path-124-5" data-name="Path-124" class="cls-8" points="128.5 515.92 143.4 524.47 167.57 510.1"/><path id="Path-125-5" data-name="Path-125" class="cls-8" d="M143.57,524.47v28.82"/><polygon id="Path-123-5" data-name="Path-123" class="cls-9" points="153.56 502.43 128.5 515.85 128.5 544.72 143.81 553.29 167.93 538.6 167.93 510.53 153.56 502.43"/></g><polygon id="Path-126-5" data-name="Path-126" class="cls-10" points="136.5 524.86 136.5 527.52 141.5 529.86 141.5 527.31 136.5 524.86"/><path id="Path-128-5" data-name="Path-128" class="cls-15" d="M131.5,533.86l9,5"/><path id="Path-128-Copy-5" data-name="Path-128-Copy" class="cls-15" d="M131.5,536.86l9,5"/><path id="Path-128-Copy-2-6" data-name="Path-128-Copy-2" class="cls-15" d="M131.5,539.86l9,5"/></g><g id="Group-145-Copy-2-3" data-name="Group-145-Copy-2"><g id="Group-144-6" data-name="Group-144"><polygon id="Path-129-6" data-name="Path-129" class="cls-6" points="175.49 515.22 151.17 528.39 165.52 537.39 188.97 523.5 175.49 515.22"/><polygon id="Path-127-6" data-name="Path-127" class="cls-14" points="150.61 529.06 165.39 537.56 190.16 522.61 190.16 551.26 165.39 566.6 150.61 557.59 150.61 529.06"/><polyline id="Path-124-6" data-name="Path-124" class="cls-8" points="150.5 528.92 165.4 537.47 189.57 523.1"/><path id="Path-125-6" data-name="Path-125" class="cls-8" d="M165.57,537.47v28.82"/><polygon id="Path-123-6" data-name="Path-123" class="cls-9" points="175.56 515.42 150.5 528.85 150.5 557.72 165.81 566.29 189.93 551.6 189.93 523.53 175.56 515.42"/></g><polygon id="Path-126-6" data-name="Path-126" class="cls-10" points="158.5 537.86 158.5 540.52 163.5 542.86 163.5 540.31 158.5 537.86"/><path id="Path-128-6" data-name="Path-128" class="cls-15" d="M153.5,546.86l9,5"/><path id="Path-128-Copy-6" data-name="Path-128-Copy" class="cls-15" d="M153.5,549.86l9,5"/><path id="Path-128-Copy-2-7" data-name="Path-128-Copy-2" class="cls-15" d="M153.5,552.86l9,5"/></g><g id="Group-145-Copy-3-3" data-name="Group-145-Copy-3"><g id="Group-144-7" data-name="Group-144"><polygon id="Path-129-7" data-name="Path-129" class="cls-6" points="198.49 528.22 174.17 541.39 188.52 550.39 211.97 536.5 198.49 528.22"/><polygon id="Path-127-7" data-name="Path-127" class="cls-14" points="173.61 542.06 188.39 550.56 213.16 535.61 213.16 564.26 188.39 579.6 173.61 570.59 173.61 542.06"/><polyline id="Path-124-7" data-name="Path-124" class="cls-8" points="173.5 541.92 188.4 550.47 212.57 536.1"/><path id="Path-125-7" data-name="Path-125" class="cls-8" d="M188.57,550.47v28.82"/><polygon id="Path-123-7" data-name="Path-123" class="cls-9" points="198.56 528.42 173.5 541.85 173.5 570.72 188.81 579.29 212.93 564.6 212.93 536.53 198.56 528.42"/></g><polygon id="Path-126-7" data-name="Path-126" class="cls-10" points="181.5 550.86 181.5 553.52 186.5 555.86 186.5 553.31 181.5 550.86"/><path id="Path-128-7" data-name="Path-128" class="cls-15" d="M176.5,559.86l9,5"/><path id="Path-128-Copy-7" data-name="Path-128-Copy" class="cls-15" d="M176.5,562.86l9,5"/><path id="Path-128-Copy-2-8" data-name="Path-128-Copy-2" class="cls-15" d="M176.5,565.86l9,5"/></g><rect id="Rectangle-16-11" data-name="Rectangle-16" class="cls-3" x="133" y="590.36" width="95" height="22"/><g id="指挥调度中心" class="cls-4"><text class="cls-5" transform="translate(143.5 605.86)">指挥调度中心</text></g></g><g id="Group-173-Copy-2"><g id="Group-152-12" data-name="Group-152"><polygon id="Path-131-Copy-12" data-name="Path-131-Copy" class="cls-1" points="188.5 470.21 307.06 537.18 357.22 507.42 357.22 503.85 238.64 435.86 188.5 466.67 188.5 470.21"/><polygon id="Path-131-12" data-name="Path-131" class="cls-2" points="189.5 466.41 307.53 533.21 356.39 503.71 238.93 434.86 189.5 466.41"/></g><g id="Group-145-Copy-4" data-name="Group-145-Copy"><g id="Group-144-8" data-name="Group-144"><polygon id="Path-129-8" data-name="Path-129" class="cls-6" points="257.49 435.22 233.17 448.39 247.52 457.39 270.97 443.5 257.49 435.22"/><polygon id="Path-127-8" data-name="Path-127" class="cls-14" points="232.61 449.06 247.39 457.56 272.16 442.61 272.16 471.26 247.39 486.6 232.61 477.59 232.61 449.06"/><polyline id="Path-124-8" data-name="Path-124" class="cls-8" points="232.5 448.92 247.4 457.47 271.57 443.1"/><path id="Path-125-8" data-name="Path-125" class="cls-8" d="M247.57,457.47v28.82"/><polygon id="Path-123-8" data-name="Path-123" class="cls-9" points="257.56 435.43 232.5 448.85 232.5 477.72 247.81 486.3 271.93 471.6 271.93 443.53 257.56 435.43"/></g><polygon id="Path-126-8" data-name="Path-126" class="cls-10" points="240.5 457.86 240.5 460.52 245.5 462.86 245.5 460.31 240.5 457.86"/><path id="Path-128-8" data-name="Path-128" class="cls-15" d="M235.5,466.86l9,5"/><path id="Path-128-Copy-8" data-name="Path-128-Copy" class="cls-15" d="M235.5,469.86l9,5"/><path id="Path-128-Copy-2-9" data-name="Path-128-Copy-2" class="cls-15" d="M235.5,472.86l9,5"/></g><g id="Group-145-Copy-2-4" data-name="Group-145-Copy-2"><g id="Group-144-9" data-name="Group-144"><polygon id="Path-129-9" data-name="Path-129" class="cls-6" points="279.49 448.22 255.17 461.39 269.52 470.39 292.97 456.5 279.49 448.22"/><polygon id="Path-127-9" data-name="Path-127" class="cls-14" points="254.61 462.06 269.39 470.56 294.16 455.61 294.16 484.26 269.39 499.6 254.61 490.59 254.61 462.06"/><polyline id="Path-124-9" data-name="Path-124" class="cls-8" points="254.5 461.92 269.4 470.47 293.57 456.1"/><path id="Path-125-9" data-name="Path-125" class="cls-8" d="M269.57,470.47v28.82"/><polygon id="Path-123-9" data-name="Path-123" class="cls-9" points="279.56 448.43 254.5 461.85 254.5 490.72 269.81 499.3 293.93 484.6 293.93 456.53 279.56 448.43"/></g><polygon id="Path-126-9" data-name="Path-126" class="cls-10" points="262.5 470.86 262.5 473.52 267.5 475.86 267.5 473.31 262.5 470.86"/><path id="Path-128-9" data-name="Path-128" class="cls-15" d="M257.5,479.86l9,5"/><path id="Path-128-Copy-9" data-name="Path-128-Copy" class="cls-15" d="M257.5,482.86l9,5"/><path id="Path-128-Copy-2-10" data-name="Path-128-Copy-2" class="cls-15" d="M257.5,485.86l9,5"/></g><g id="Group-145-Copy-3-4" data-name="Group-145-Copy-3"><g id="Group-144-10" data-name="Group-144"><polygon id="Path-129-10" data-name="Path-129" class="cls-6" points="302.49 461.22 278.17 474.39 292.52 483.39 315.97 469.5 302.49 461.22"/><polygon id="Path-127-10" data-name="Path-127" class="cls-14" points="277.61 475.06 292.39 483.56 317.16 468.61 317.16 497.26 292.39 512.6 277.61 503.59 277.61 475.06"/><polyline id="Path-124-10" data-name="Path-124" class="cls-8" points="277.5 474.92 292.4 483.47 316.57 469.1"/><path id="Path-125-10" data-name="Path-125" class="cls-8" d="M292.57,483.47v28.82"/><polygon id="Path-123-10" data-name="Path-123" class="cls-9" points="302.56 461.43 277.5 474.85 277.5 503.72 292.81 512.29 316.93 497.6 316.93 469.53 302.56 461.43"/></g><polygon id="Path-126-10" data-name="Path-126" class="cls-10" points="285.5 483.86 285.5 486.52 290.5 488.86 290.5 486.31 285.5 483.86"/><path id="Path-128-10" data-name="Path-128" class="cls-15" d="M280.5,492.86l9,5"/><path id="Path-128-Copy-10" data-name="Path-128-Copy" class="cls-15" d="M280.5,495.86l9,5"/><path id="Path-128-Copy-2-11" data-name="Path-128-Copy-2" class="cls-15" d="M280.5,498.86l9,5"/></g><rect id="Rectangle-16-12" data-name="Rectangle-16" class="cls-3" x="255" y="523.36" width="108" height="22"/><g id="国家级媒体机构" class="cls-4"><text class="cls-5" transform="translate(265.5 538.86)">国家级媒体机构</text></g></g><g id="Group-173-Copy-3"><g id="Group-152-13" data-name="Group-152"><polygon id="Path-131-Copy-13" data-name="Path-131-Copy" class="cls-1" points="373.5 568.21 492.06 635.18 542.22 605.42 542.22 601.85 423.64 533.86 373.5 564.67 373.5 568.21"/><polygon id="Path-131-13" data-name="Path-131" class="cls-2" points="374.5 564.41 492.53 631.21 541.39 601.71 423.93 532.86 374.5 564.41"/></g><g id="Group-145-Copy-5" data-name="Group-145-Copy"><g id="Group-144-11" data-name="Group-144"><polygon id="Path-129-11" data-name="Path-129" class="cls-6" points="442.49 533.22 418.17 546.39 432.52 555.39 455.97 541.5 442.49 533.22"/><polygon id="Path-127-11" data-name="Path-127" class="cls-14" points="417.61 547.06 432.39 555.56 457.16 540.61 457.16 569.26 432.39 584.6 417.61 575.59 417.61 547.06"/><polyline id="Path-124-11" data-name="Path-124" class="cls-8" points="417.5 546.92 432.4 555.47 456.57 541.1"/><path id="Path-125-11" data-name="Path-125" class="cls-8" d="M432.57,555.47v28.82"/><polygon id="Path-123-11" data-name="Path-123" class="cls-9" points="442.56 533.42 417.5 546.85 417.5 575.72 432.81 584.29 456.93 569.6 456.93 541.53 442.56 533.42"/></g><polygon id="Path-126-11" data-name="Path-126" class="cls-10" points="425.5 555.86 425.5 558.52 430.5 560.86 430.5 558.31 425.5 555.86"/><path id="Path-128-11" data-name="Path-128" class="cls-15" d="M420.5,564.86l9,5"/><path id="Path-128-Copy-11" data-name="Path-128-Copy" class="cls-15" d="M420.5,567.86l9,5"/><path id="Path-128-Copy-2-12" data-name="Path-128-Copy-2" class="cls-15" d="M420.5,570.86l9,5"/></g><g id="Group-145-Copy-2-5" data-name="Group-145-Copy-2"><g id="Group-144-12" data-name="Group-144"><polygon id="Path-129-12" data-name="Path-129" class="cls-6" points="464.49 546.22 440.17 559.39 454.52 568.39 477.97 554.5 464.49 546.22"/><polygon id="Path-127-12" data-name="Path-127" class="cls-14" points="439.61 560.06 454.39 568.56 479.16 553.61 479.16 582.26 454.39 597.6 439.61 588.59 439.61 560.06"/><polyline id="Path-124-12" data-name="Path-124" class="cls-8" points="439.5 559.92 454.4 568.47 478.57 554.1"/><path id="Path-125-12" data-name="Path-125" class="cls-8" d="M454.57,568.47v28.82"/><polygon id="Path-123-12" data-name="Path-123" class="cls-9" points="464.56 546.42 439.5 559.85 439.5 588.72 454.81 597.29 478.93 582.6 478.93 554.53 464.56 546.42"/></g><polygon id="Path-126-12" data-name="Path-126" class="cls-10" points="447.5 568.86 447.5 571.52 452.5 573.86 452.5 571.31 447.5 568.86"/><path id="Path-128-12" data-name="Path-128" class="cls-15" d="M442.5,577.86l9,5"/><path id="Path-128-Copy-12" data-name="Path-128-Copy" class="cls-15" d="M442.5,580.86l9,5"/><path id="Path-128-Copy-2-13" data-name="Path-128-Copy-2" class="cls-15" d="M442.5,583.86l9,5"/></g><g id="Group-145-Copy-3-5" data-name="Group-145-Copy-3"><g id="Group-144-13" data-name="Group-144"><polygon id="Path-129-13" data-name="Path-129" class="cls-6" points="487.49 559.22 463.17 572.39 477.52 581.39 500.97 567.5 487.49 559.22"/><polygon id="Path-127-13" data-name="Path-127" class="cls-14" points="462.61 573.06 477.39 581.56 502.16 566.61 502.16 595.26 477.39 610.6 462.61 601.59 462.61 573.06"/><polyline id="Path-124-13" data-name="Path-124" class="cls-8" points="462.5 572.92 477.4 581.47 501.57 567.1"/><path id="Path-125-13" data-name="Path-125" class="cls-8" d="M477.57,581.47v28.82"/><polygon id="Path-123-13" data-name="Path-123" class="cls-9" points="487.56 559.42 462.5 572.85 462.5 601.72 477.81 610.29 501.93 595.6 501.93 567.53 487.56 559.42"/></g><polygon id="Path-126-13" data-name="Path-126" class="cls-10" points="470.5 581.86 470.5 584.52 475.5 586.86 475.5 584.31 470.5 581.86"/><path id="Path-128-13" data-name="Path-128" class="cls-15" d="M465.5,590.86l9,5"/><path id="Path-128-Copy-13" data-name="Path-128-Copy" class="cls-15" d="M465.5,593.86l9,5"/><path id="Path-128-Copy-2-14" data-name="Path-128-Copy-2" class="cls-15" d="M465.5,596.86l9,5"/></g><rect id="Rectangle-16-13" data-name="Rectangle-16" class="cls-3" x="444" y="621.36" width="95" height="22"/><g id="省融媒体中心" class="cls-4"><text class="cls-5" transform="translate(454.5 636.86)">省融媒体中心</text></g></g></g><g id="Group-175-3" data-name="Group-175"><path id="Path-139-4" data-name="Path-139" class="cls-18" d="M431.61,483.74,496,446.36"/><polygon id="Path-140-4" data-name="Path-140" class="cls-19" points="487.39 442.22 501.16 450.97 501.16 442.22 487.39 442.22"/></g><g id="Group-175-Copy"><path id="Path-139-5" data-name="Path-139" class="cls-18" d="M840.61,146.74,905,109.36"/><polygon id="Path-140-5" data-name="Path-140" class="cls-19" points="896.39 105.22 910.16 113.97 910.16 105.22 896.39 105.22"/></g><g id="Group-175-Copy-3"><path id="Path-139-6" data-name="Path-139" class="cls-18" d="M1027,80.36l33-21"/><polygon id="Path-140-6" data-name="Path-140" class="cls-19" points="1051.39 55.22 1065.16 63.97 1065.16 55.22 1051.39 55.22"/></g><g id="Group-175-Copy-2"><path id="Path-139-7" data-name="Path-139" class="cls-18" d="M950.61,211.74,1015,174.36"/><polygon id="Path-140-7" data-name="Path-140" class="cls-19" points="1006.39 170.22 1020.16 178.97 1020.16 170.22 1006.39 170.22"/></g></g></g></g></g></svg>