<?xml version="1.0" encoding="UTF-8" standalone="no"?>
<svg width="71px" height="65px" viewBox="0 0 71 65" version="1.1" xmlns="http://www.w3.org/2000/svg" xmlns:xlink="http://www.w3.org/1999/xlink">
    <!-- Generator: Sketch 50.2 (55047) - http://www.bohemiancoding.com/sketch -->
    <title>多渠道</title>
    <desc>Created with Sketch.</desc>
    <defs></defs>
    <g id="官网" stroke="none" stroke-width="1" fill="none" fill-rule="evenodd">
        <g id="Artboard" transform="translate(-661.000000, -1508.000000)" stroke="#FFFFFF">
            <g id="多渠道" transform="translate(662.000000, 1509.000000)">
                <path d="M34.4961543,21.0460863 C28.5429718,21.0460863 23.7127411,16.3376006 23.7127411,10.5230432 C23.7127411,4.70848574 28.5352803,0 34.4961543,0 C40.4493368,0 45.2795675,4.70848574 45.2795675,10.5230432 C45.2795675,16.3376006 40.4570282,21.0460863 34.4961543,21.0460863 Z M34.4961543,16.8368691 C38.0649872,16.8368691 40.9646639,14.0102414 40.9646639,10.5230432 C40.9646639,7.03584492 38.0726786,4.20921726 34.4961543,4.20921726 C30.9273214,4.20921726 28.0276446,7.03584492 28.0276446,10.5230432 C28.0276446,14.0102414 30.9273214,16.8368691 34.4961543,16.8368691 Z M10.7834132,56.1945867 C4.83023074,56.1945867 0,51.486101 0,45.6715435 C0,39.8569861 4.83023074,35.1485004 10.7834132,35.1485004 C16.7365957,35.1485004 21.5668264,39.8569861 21.5668264,45.6715435 C21.5668264,51.4784199 16.7365957,56.1945867 10.7834132,56.1945867 Z M10.7834132,51.9853694 C14.3522461,51.9853694 17.2519229,49.1587418 17.2519229,45.6715435 C17.2519229,42.1843453 14.3522461,39.3577176 10.7834132,39.3577176 C7.21458031,39.3577176 4.31490358,42.1843453 4.31490358,45.6715435 C4.31490358,49.1587418 7.20688886,51.9853694 10.7834132,51.9853694 Z M58.2165868,56.1945867 C52.2634043,56.1945867 47.4331736,51.486101 47.4331736,45.6715435 C47.4331736,39.8569861 52.2634043,35.1485004 58.2165868,35.1485004 C64.1697693,35.1485004 69,39.8569861 69,45.6715435 C69,51.4784199 64.1697693,56.1945867 58.2165868,56.1945867 Z M58.2165868,51.9853694 C61.7854197,51.9853694 64.6850964,49.1587418 64.6850964,45.6715435 C64.6850964,42.1843453 61.7854197,39.3577176 58.2165868,39.3577176 C54.6477539,39.3577176 51.7480771,42.1843453 51.7480771,45.6715435 C51.7480771,49.1587418 54.6477539,51.9853694 58.2165868,51.9853694 Z" id="Shape" stroke-width="1.8" fill="#E71A22" fill-rule="nonzero"></path>
                <path d="M20.6823097,59.4436723 C24.7587783,61.701902 29.4813287,63 34.5038457,63 C39.2187047,63 43.6566715,61.8632041 47.5562368,59.8584492 C48.2177015,59.4974396 48.6638056,58.8138259 48.6638056,58.0226774 C48.6638056,56.8628383 47.7023743,55.9180688 46.5101995,55.9180688 C46.1410099,55.9180688 45.7872032,56.0102414 45.4641623,56.1792246 C42.1876045,57.8460132 38.4572511,58.7907827 34.5115372,58.7907827 C30.2273994,58.7907827 26.2124624,57.684711 22.7436183,55.7414045 L22.7359269,55.7490856 C22.3898116,55.5340161 21.9898562,55.4188003 21.5745179,55.4188003 C20.3823431,55.4188003 19.4209118,56.3635699 19.4209118,57.5234089 C19.4055289,58.3760059 19.9285475,59.113387 20.6823097,59.4436723 Z" id="Path" stroke-width="1.5" fill="#3C3C3C"></path>
                <path d="M57.3628358,29.3953914 L57.3397615,29.3953914 C56.0475978,24.886613 53.3940475,20.9385516 49.8405975,17.9890271 C49.2945045,17.6049744 48.9406978,16.9828091 48.9406978,16.2761522 C48.9406978,15.1163131 49.9098205,14.1715435 51.0943039,14.1715435 C51.6173225,14.1715435 52.0941924,14.3558888 52.4710735,14.6554499 L52.4787649,14.6477688 C56.8090514,18.1887345 60.0240776,22.9740307 61.5469847,28.4506218 C61.6162078,28.6580102 61.6469736,28.8807608 61.6469736,29.0958303 C61.6469736,30.2556693 60.6855423,31.2004389 59.4933675,31.2004389 C58.408873,31.2004389 57.5089734,30.4169715 57.3628358,29.3953914 Z" id="Path" stroke-width="1.5" fill="#3C3C3C"></path>
                <path d="M7.51454687,28.2201902 C9.06821982,22.8357718 12.2601717,18.127286 16.536618,14.6400878 L16.5443094,14.6477688 C16.928882,14.3405267 17.4057519,14.1792246 17.9056961,14.1792246 C19.0978709,14.1792246 20.0593022,15.1239941 20.0593022,16.2838332 C20.0593022,16.9904901 19.7054955,17.6126554 19.1594025,17.9967081 C15.5828782,20.9615947 12.9216364,24.9403804 11.6448556,29.479883 L11.6371642,29.479883 C11.4064207,30.3939283 10.5526697,31.0775421 9.54508973,31.0775421 C8.35291495,31.0775421 7.39148367,30.1327725 7.39148367,28.9729334 C7.39148367,28.8807608 7.39917512,28.7885881 7.40686657,28.7040966 L7.39917512,28.7040966 C7.40686657,28.6733723 7.41455802,28.6426481 7.42224947,28.6042429 C7.42994092,28.4659839 7.46839817,28.335406 7.51454687,28.2201902 Z" id="Path" stroke-width="1.5" fill="#3C3C3C"></path>
            </g>
        </g>
    </g>
</svg>