<?xml version="1.0" encoding="UTF-8" standalone="no"?>
<svg width="43px" height="53px" viewBox="0 0 43 53" version="1.1" xmlns="http://www.w3.org/2000/svg" xmlns:xlink="http://www.w3.org/1999/xlink">
    <!-- Generator: Sketch 50.2 (55047) - http://www.bohemiancoding.com/sketch -->
    <title>智能-2</title>
    <desc>Created with Sketch.</desc>
    <defs></defs>
    <g id="解决方案" stroke="none" stroke-width="1" fill="none" fill-rule="evenodd">
        <g id="直播" transform="translate(-212.000000, -312.000000)" fill-rule="nonzero">
            <g id="智能-2" transform="translate(212.000000, 312.000000)">
                <path d="M39.8743032,27.1913775 L39.8743242,27.1913014 C41.3011193,21.9999481 41.7575639,19.8935574 41.7499302,17.7504007 C41.7213513,8.82948497 33.8494387,1.25 24.5771591,1.24997058 L24.3479868,1.25152002 C14.8257313,1.37441785 6.38976591,9.16556476 6.22904499,17.8807702 L6.21639972,18.0365493 C6.19346555,18.1952101 6.18931936,18.3817923 6.19516274,18.8926951 C6.19745799,19.0605759 6.19745799,19.0605759 6.20003754,19.2223236 L6.20784174,19.6918591 L5.90455823,20.0503888 C2.37469239,24.2232558 1.25,26.294595 1.25,27.4684557 C1.25,28.7941445 1.98096625,29.8950149 3.33008539,30.5425919 C3.71392044,30.7266017 4.51529117,30.8582987 6.43322179,31.0061584 L8.01857438,31.1309655 L8.01647705,32.2885265 L8.00689297,37.5215136 C8.02672227,39.3230098 9.53416999,40.7923539 11.3925448,40.7923539 L17.0331108,40.7931129 L17.0313233,42.0447297 L17.0180542,51.334612 C17.0180542,51.4740873 17.08585,51.6028278 17.1961982,51.6779191 C17.265367,51.7248272 17.3468546,51.7499079 17.4288388,51.75 C17.4804522,51.75 17.5314064,51.7402268 17.5796817,51.7209642 L38.0249864,43.5819817 C38.2151257,43.5065353 38.3211158,43.3019238 38.2830803,43.1404761 C38.1765667,42.7523394 37.9995358,41.6797909 37.9050033,40.4796328 C37.7508311,38.5223064 37.8103178,36.4356872 38.1646928,34.3002064 C38.4738556,32.4368925 38.8791794,30.8130028 39.8743032,27.1913775 Z" id="Shape" stroke="#464646" stroke-width="2.5"></path>
                <path d="M23.7240446,7 C20.0478992,7 17,9.45216839 17,12.2148425 C17,14.292317 18.6221044,14.9495773 22.8171223,14.9956707 C23.144862,14.9992718 23.4090563,15 23.999159,15 C24.5908396,15 24.8557547,14.9992659 25.18438,14.9956362 C29.377596,14.9493209 31,14.2916612 31,12.2148425 C31,9.4128237 27.7869064,7 23.7240446,7 Z" id="Shape" stroke="#E91B23" stroke-width="2"></path>
            </g>
        </g>
    </g>
</svg>