<?xml version="1.0" encoding="UTF-8" standalone="no"?>
<svg width="50px" height="50px" viewBox="0 0 50 50" version="1.1" xmlns="http://www.w3.org/2000/svg" xmlns:xlink="http://www.w3.org/1999/xlink">
    <!-- Generator: Sketch 50.2 (55047) - http://www.bohemiancoding.com/sketch -->
    <title>用户画像-2</title>
    <desc>Created with Sketch.</desc>
    <defs></defs>
    <g id="解决方案" stroke="none" stroke-width="1" fill="none" fill-rule="evenodd">
        <g id="直播" transform="translate(-327.000000, -314.000000)" fill-rule="nonzero">
            <g id="用户画像-2" transform="translate(327.000000, 314.000000)">
                <path d="M46.4285714,1.25 L3.57142857,1.25 C2.29191844,1.25 1.25,2.29191844 1.25,3.57142857 L1.25,46.4285714 C1.25,47.7080816 2.29191844,48.75 3.57142857,48.75 L46.4285714,48.75 C47.7080816,48.75 48.75,47.7080816 48.75,46.4285714 L48.75,3.57142857 C48.75,2.29191844 47.7080816,1.25 46.4285714,1.25 Z" id="Shape" stroke="#464646" stroke-width="2.5"></path>
                <path d="M10.7777778,43 C11.7611111,43 12.5555556,42.1993779 12.5555556,41.2083981 C12.5555556,37.8603421 13.85,34.7082426 16.2,32.3399689 C18.55,29.9716952 21.6777778,28.6671851 25,28.6671851 C28.3222222,28.6671851 31.45,29.9716952 33.8,32.3399689 C36.15,34.7082426 37.4444444,37.8603421 37.4444444,41.2083981 C37.4444444,42.1993779 38.2388889,43 39.2222222,43 C40.2055556,43 41,42.1993779 41,41.2083981 C41,36.9029549 39.3333333,32.8494557 36.3111111,29.8093313 C34.8833333,28.370451 33.2333333,27.2395023 31.4444444,26.444479 C34.0444444,24.4681182 35.7222222,21.3328149 35.7222222,17.8055988 C35.7222222,11.837325 30.9222222,7 25,7 C19.0777778,7 14.2777778,11.837325 14.2777778,17.8055988 C14.2777778,21.3328149 15.9555556,24.4681182 18.5555556,26.4388802 C16.7611111,27.2339036 15.1166667,28.3648523 13.6888889,29.8037325 C10.6666667,32.8494557 9,36.9029549 9,41.2083981 C9,42.1993779 9.79444444,43 10.7777778,43 Z M19.9333333,12.6995334 C21.2888889,11.333437 23.0888889,10.5832037 25,10.5832037 C26.9111111,10.5832037 28.7166667,11.333437 30.0666667,12.6995334 C31.4222222,14.0656299 32.1666667,15.8796267 32.1666667,17.8055988 C32.1666667,19.7371695 31.4222222,21.5511664 30.0666667,22.9116641 C28.7166667,24.2777605 26.9166667,25.0279938 25,25.0279938 C23.0833333,25.0279938 21.2833333,24.2777605 19.9333333,22.9116641 C18.5777778,21.5511664 17.8333333,19.7371695 17.8333333,17.8055988 C17.8333333,15.874028 18.5777778,14.0600311 19.9333333,12.6995334 Z" id="Shape" stroke="#FFFFFF" stroke-width="1.5" fill="#E91B23"></path>
            </g>
        </g>
    </g>
</svg>