<?xml version="1.0" encoding="UTF-8" standalone="no"?>
<svg width="52px" height="52px" viewBox="0 0 52 52" version="1.1" xmlns="http://www.w3.org/2000/svg" xmlns:xlink="http://www.w3.org/1999/xlink">
    <!-- Generator: Sketch 50.2 (55047) - http://www.bohemiancoding.com/sketch -->
    <title>流量</title>
    <desc>Created with Sketch.</desc>
    <defs></defs>
    <g id="解决方案" stroke="none" stroke-width="1" fill="none" fill-rule="evenodd">
        <g id="直播" transform="translate(-269.000000, -313.000000)" fill-rule="nonzero" stroke="#FFFFFF">
            <g id="流量" transform="translate(269.000000, 313.000000)">
                <path d="M26,51.5 C29.4422075,51.5 32.781253,50.8256581 35.9262439,49.4954936 C38.9631247,48.210996 41.6895751,46.3729121 44.0312385,44.0313069 C46.3728584,41.6896286 48.2109071,38.9631942 49.4954295,35.9262545 C50.8256445,32.7810861 51.5,29.4421482 51.5,26.0000001 C51.5,22.5577205 50.8256532,19.2187383 49.495434,16.0737561 C48.2108991,13.0367872 46.3728448,10.310359 44.0312473,7.96876154 C41.689538,5.62711052 38.9631538,3.78907589 35.9262441,2.50456616 C32.7812618,1.1743468 29.4422796,0.5 26,0.5 C22.5577204,0.5 19.2187382,1.17434679 16.0737561,2.50456603 C13.0367871,3.78910086 10.3103589,5.62715519 7.96875706,7.96875707 C5.62715518,10.310359 3.78910085,13.0367871 2.5045674,16.0737528 C1.17433834,19.2188164 0.5,22.5577422 0.5,26 C0.5,28.4685768 0.8523594,30.9094141 1.54724753,33.2548803 C1.80484997,34.1243798 2.71841733,34.6203865 3.58786201,34.3628003 C4.45726093,34.1052141 4.95327475,33.1915534 4.69572317,32.3221629 C4.09055878,30.2792992 3.78375289,28.152175 3.78375289,26 C3.78375289,20.0667783 6.09533457,14.4862026 10.2908016,10.2907964 C14.4862852,6.09537368 20.0668662,3.78381238 26.0000595,3.78381238 C31.9332976,3.78381238 37.5139873,6.09540553 41.7093225,10.2908016 C45.9047453,14.4862852 48.2163066,20.0668661 48.2163066,26.0000595 C48.2163066,31.9332752 45.9047294,37.5139106 41.70932,41.70932 C37.5139106,45.9047293 31.9332752,48.2163066 26.0000595,48.2163066 C22.4544002,48.2163066 19.0645434,47.4058106 15.9288771,45.8081235 C12.9354496,44.282861 10.2816437,42.0556646 8.25248348,39.3658616 C7.70630559,38.6418966 6.67681813,38.4977545 5.95294244,39.0438994 C5.22904185,39.5900175 5.08489243,40.6195717 5.63099196,41.3434478 C7.95801482,44.4281726 11.0041102,46.9842999 14.4380474,48.7339427 C18.0408129,50.5696386 21.9294113,51.5 26,51.5 Z" id="Shape" fill="#464646"></path>
                <path d="M39.3934331,19.6698666 C38.5846097,18.7767111 37.2611227,18.7767111 36.4522994,19.6698666 L27.5366991,29.5192012 L20.9349193,22.2290848 C20.5216979,21.7727787 19.9741636,21.5502074 19.4295178,21.5601591 C18.8848719,21.5502074 18.3373377,21.7727787 17.9241163,22.2290848 L11.6066175,29.1804642 C10.7977942,30.0736198 10.7977942,31.5351006 11.6066175,32.4282561 C12.4154408,33.3214116 13.7389278,33.3214116 14.5477511,32.4282561 L19.4269759,27.0594352 L26.0117717,34.3307966 C26.430019,34.7926527 26.985872,35.0150325 27.5369879,34.999212 C28.0881616,35.0150325 28.6439569,34.7926527 29.0622042,34.3307966 L39.3933752,22.9175947 C40.2021986,22.024503 40.2021986,20.5630222 39.3934331,19.6698666 Z" id="Shape" stroke-width="2" fill="#E91B23"></path>
            </g>
        </g>
    </g>
</svg>