<?xml version="1.0" encoding="UTF-8" standalone="no"?>
<svg width="49px" height="51px" viewBox="0 0 49 51" version="1.1" xmlns="http://www.w3.org/2000/svg" xmlns:xlink="http://www.w3.org/1999/xlink">
    <!-- Generator: Sketch 50.2 (55047) - http://www.bohemiancoding.com/sketch -->
    <title>模板</title>
    <desc>Created with Sketch.</desc>
    <defs></defs>
    <g id="解决方案" stroke="none" stroke-width="1" fill="none" fill-rule="evenodd">
        <g id="直播" transform="translate(-90.000000, -310.000000)">
            <g id="模板" transform="translate(90.000000, 310.000000)">
                <path d="M2.36626029,17.8852326 L46.63308,17.8852326 C47.9382126,17.8852326 49,16.8250621 49,15.5219485 L49,2.36328408 C49,1.06017051 47.9382126,0 46.63308,0 L2.36626029,0 C1.06153362,0 0,1.06017051 0,2.36328408 L0,15.5219485 C0,16.8250621 1.06153362,17.8852326 2.36626029,17.8852326 Z M2.06115248,2.36328408 C2.06134824,2.19506708 2.19783505,2.05874901 2.36626029,2.05855349 L46.63308,2.05855349 C46.8016708,2.05855349 46.9388475,2.19525649 46.9388475,2.36328408 L46.9388475,15.5219485 C46.9388475,15.6899761 46.8016708,15.8266791 46.63308,15.8266791 L2.36626029,15.8266791 C2.19783505,15.8264836 2.06134824,15.6901655 2.06115248,15.5219485 L2.06115248,2.36328408 Z M16.5981289,21.8711614 L2.83300622,21.8711614 C1.49762667,21.8711614 0.411174899,22.95627 0.411174899,24.2900492 L0.411174899,48.5805547 C0.411174899,49.914638 1.49762667,51 2.83300622,51 L16.5980781,51 C17.9340667,51 19.0209752,49.914638 19.0209752,48.5805547 L19.0209752,24.2900492 C19.0209752,22.9563207 17.9340667,21.8711614 16.5981289,21.8711614 Z M16.9025262,48.5805547 C16.9025262,48.7480247 16.7659585,48.8842208 16.5980781,48.8842208 L2.83300622,48.8842208 C2.66573487,48.8842208 2.5296239,48.747974 2.5296239,48.5805547 L2.5296239,24.2900492 C2.5298196,24.1227758 2.66552574,23.9872148 2.83300622,23.9869913 L16.5980781,23.9869913 C16.7659585,23.9869913 16.9025262,24.122934 16.9025262,24.2900492 L16.9025262,48.5805547 Z" id="Shape" fill="#464646" fill-rule="nonzero"></path>
                <path d="M23.6847109,26 L48.3156431,26 C48.6929142,26 49,25.679113 49,25.2841467 L49,23.7151135 C49,23.3201472 48.6929142,23 48.3156431,23 L23.6847109,23 C23.3067319,23 23,23.3201472 23,23.7151135 L23,25.2841467 C23.0000506,25.679113 23.3067319,26 23.6847109,26 Z" id="Path" fill="#E81A23"></path>
                <path d="M49,33.2848865 L49,31.7158533 C49,31.320887 48.69291,31 48.3156338,31 L23.6843662,31 C23.3057247,31 23,31.320887 23,31.7158533 L23,33.2848865 C23,33.6798528 23.3056741,34 23.6843662,34 L48.3156338,34 C48.69291,34 49,33.6798528 49,33.2848865 Z" id="Path" fill="#E81A23"></path>
                <path d="M48.3156338,39 L23.6843662,39 C23.3057247,39 23,39.320887 23,39.7151664 L23,41.2849922 C23,41.6791659 23.3056741,42 23.6843662,42 L48.3156338,42 C48.69291,42 49,41.6791659 49,41.2849922 L49,39.7151664 C49,39.320887 48.69291,39 48.3156338,39 Z" id="Path" fill="#E81A23"></path>
                <path d="M48.3156338,47 L23.6847202,47 C23.3060787,47 23,47.3202791 23,47.7153427 L23,49.2847101 C23,49.6798266 23.3060281,50 23.6847202,50 L48.3156338,50 C48.69291,50 49,49.6797738 49,49.2847101 L49,47.7153427 C49,47.3202791 48.69291,47 48.3156338,47 Z" id="Path" fill="#E81A23"></path>
            </g>
        </g>
    </g>
</svg>