<?xml version="1.0" encoding="UTF-8" standalone="no"?>
<svg width="54px" height="47px" viewBox="0 0 54 47" version="1.1" xmlns="http://www.w3.org/2000/svg" xmlns:xlink="http://www.w3.org/1999/xlink">
    <!-- Generator: Sketch 50.2 (55047) - http://www.bohemiancoding.com/sketch -->
    <title>智能-3</title>
    <desc>Created with Sketch.</desc>
    <defs></defs>
    <g id="解决方案" stroke="none" stroke-width="1" fill="none" fill-rule="evenodd">
        <g id="直播" transform="translate(-92.000000, -370.000000)">
            <g id="智能-3" transform="translate(93.000000, 371.000000)">
                <path d="M45.2549473,31.4481936 C45.0900258,31.4481936 44.9265077,31.454453 44.7645052,31.4662387 L35.7515858,20.7771731 L42.1404125,12.7848335 C43.0726848,13.2744758 44.1321004,13.5518627 45.2549473,13.5518627 C48.9742129,13.5518627 52,10.5122236 52,6.7759313 C52,3.03963899 48.9742129,5.6374474e-05 45.2549473,5.6374474e-05 C41.5356817,5.6374474e-05 38.5098947,3.03969542 38.5098947,6.77598773 C38.5098947,8.36705714 39.0588845,9.83158542 39.9762251,10.9890652 L33.903713,18.5856534 L27.0814201,10.4946861 C27.0628959,10.4722425 27.0436419,10.4503065 27.0236022,10.4288779 C27.0206832,10.4257764 27.017652,10.4228441 27.014733,10.4197426 C27.0021029,10.4064907 26.9893605,10.3932952 26.9761129,10.3804382 C26.9635388,10.3682014 26.9506842,10.356472 26.9377734,10.3447991 C26.9339563,10.3413592 26.9302514,10.3377502 26.9263782,10.3343104 C26.8182081,10.238615 26.69825,10.1620362 26.5711627,10.1052505 C26.4266179,10.0404573 26.2743826,10.0021115 26.1209125,9.98891603 C26.1190039,9.98874686 26.1170392,9.98846493 26.1151307,9.98835213 C26.0984028,9.98699877 26.0816749,9.98615288 26.0649469,9.98536342 C26.0586599,9.98508144 26.0524291,9.98457397 26.046142,9.98434836 C26.0337364,9.98395363 26.021387,9.98401001 26.0089813,9.98395363 C25.9982598,9.98389726 25.9875943,9.98361528 25.9769289,9.98378445 C25.9690701,9.98389726 25.9612114,9.98440473 25.9533526,9.98463034 C25.9381403,9.98513787 25.922928,9.9856454 25.9077157,9.98660404 C25.9044038,9.98682959 25.9010919,9.98722432 25.89778,9.98744992 C25.7229789,10.0001379 25.5495813,10.0454762 25.3873542,10.124649 C25.2624563,10.1854384 25.1453048,10.2656827 25.0405027,10.3646487 C25.0360681,10.3688216 25.0318581,10.3732201 25.0274796,10.3774495 C25.0156353,10.3888968 25.0037911,10.4003441 24.9922837,10.412299 C24.9787554,10.426284 24.9657323,10.4406636 24.9528776,10.4550997 C24.9507445,10.4575245 24.9484992,10.4597801 24.9464222,10.462205 C24.9269438,10.484423 24.9082512,10.5070921 24.8904006,10.5302688 L18.4478537,18.6905404 L11.9742086,11.0508132 C12.9213002,9.8838598 13.4901053,8.3954782 13.4901053,6.77593136 C13.4901053,3.03969547 10.4643183,0 6.74505267,0 C3.02578706,0 1.66302485e-15,3.03963904 1.66302485e-15,6.77593136 C1.66302485e-15,10.5122237 3.02578706,13.5518627 6.74505267,13.5518627 C7.83955196,13.5518627 8.8738757,13.2884044 9.7888587,12.8216005 L16.6700361,20.9423422 L8.24270582,31.6167461 C7.76085221,31.5065583 7.25963238,31.4481372 6.74505267,31.4481372 C3.02584323,31.4481372 0,34.4877763 0,38.2240122 C0,41.9603045 3.02578706,44.9999435 6.74505267,44.9999435 C10.4643183,44.9999435 13.4901053,41.9603045 13.4901053,38.2240122 C13.4901053,36.0383006 12.454266,34.0913482 10.8501829,32.8514813 L18.5245327,23.1308169 L22.0276827,27.2650598 C20.8585252,28.3446073 20.1245181,29.8927069 20.1245181,31.6099792 C20.1245181,34.864524 22.7602304,37.5123026 26,37.5123026 C29.2397135,37.5123026 31.8754259,34.864524 31.8754259,31.6099792 C31.8754259,30.0604135 31.2776557,28.6486671 30.3019358,27.5944955 L33.9614749,23.0164562 L41.8528385,32.3753166 C39.8546391,33.5528151 38.5098386,35.7334515 38.5098386,38.2240686 C38.5098386,41.960361 41.5356257,45 45.2548913,45 C48.9741569,45 51.9999439,41.960361 51.9999439,38.2240686 C52,34.4878326 48.9742129,31.4481936 45.2549473,31.4481936 Z M45.2549473,2.81960171 C47.4266006,2.81960171 49.1933037,4.59444909 49.1933037,6.77598773 C49.1933037,8.95752637 47.4265445,10.7323738 45.2549473,10.7323738 C43.0833502,10.7323738 41.316591,8.95752637 41.316591,6.77598773 C41.316591,4.59444909 43.0833502,2.81960171 45.2549473,2.81960171 Z M2.80675247,6.77598773 C2.80675247,4.59444909 4.57351167,2.81960171 6.74510878,2.81960171 C8.9167059,2.81960171 10.6834651,4.59444909 10.6834651,6.77598773 C10.6834651,8.95752637 8.9167059,10.7323738 6.74510878,10.7323738 C4.57351167,10.7323738 2.80675247,8.95752637 2.80675247,6.77598773 Z M6.74505267,42.1804546 C4.57345555,42.1804546 2.80669635,40.4056072 2.80669635,38.2240686 C2.80669635,36.0425299 4.57345555,34.2677389 6.74505267,34.2677389 C8.91664979,34.2677389 10.683409,36.0425863 10.683409,38.2240686 C10.683409,40.4056072 8.91664973,42.1804546 6.74505267,42.1804546 Z M27.9446476,26.040362 C27.3357068,25.8251744 26.6812975,25.7076557 26,25.7076557 C25.4991731,25.7076557 25.0128849,25.7710954 24.5484328,25.8900803 L20.3022941,20.8790716 L26.0357573,13.6168814 L32.1136582,20.8250491 L27.9446476,26.040362 Z M45.2549473,42.1804546 C43.0832941,42.1804546 41.316591,40.4056072 41.316591,38.2240686 C41.316591,36.0425299 43.0833502,34.2677389 45.2549473,34.2677389 C47.4265445,34.2677389 49.1933037,36.0425863 49.1933037,38.2240686 C49.1933037,40.4056072 47.4266006,42.1804546 45.2549473,42.1804546 Z" id="Shape" stroke="#FFFFFF" stroke-width="0.6" fill="#464646" fill-rule="nonzero"></path>
                <path d="M26.0000561,36.0928136 C23.5332779,36.0928136 21.5312705,34.0816665 21.5312705,31.6100355 C21.5312705,29.1383608 23.5332652,27.127201 26.0000561,27.127201 C28.4668036,27.127201 30.4687856,29.1383735 30.4687856,31.6100818 C30.468704,34.0816309 28.4667117,36.0928136 26.0000561,36.0928136 Z" id="Path" stroke="#E81A23" stroke-width="2.8" fill="#FFFFFF"></path>
            </g>
        </g>
    </g>
</svg>