<?xml version="1.0" encoding="UTF-8" standalone="no"?>
<svg width="74px" height="57px" viewBox="0 0 74 57" version="1.1" xmlns="http://www.w3.org/2000/svg" xmlns:xlink="http://www.w3.org/1999/xlink">
    <!-- Generator: Sketch 50.2 (55047) - http://www.bohemiancoding.com/sketch -->
    <title>体验</title>
    <desc>Created with Sketch.</desc>
    <defs></defs>
    <g id="官网" stroke="none" stroke-width="1" fill="none" fill-rule="evenodd">
        <g id="Artboard" transform="translate(-660.000000, -1442.000000)" fill-rule="nonzero" stroke="#FFFFFF">
            <g id="体验" transform="translate(661.000000, 1443.000000)">
                <path d="M72,40.3214286 L72,40.2857143 C72,39.7857143 71.963982,39.3214286 71.927964,38.8214286 L71.855928,38.8214286 C71.7118559,37.2857143 71.3516758,35.8571429 70.6313157,34.4642857 C70.6313157,34.4285714 70.6673337,34.3571429 70.6313157,34.3214286 L59.1055528,6.92857143 L59.1055528,6.85714286 C57.5207604,2.75 53.5227614,0 49.1285643,0 C43.2216108,0 38.4312156,4.75 38.4312156,10.6071429 C38.4312156,10.8571429 38.4312156,10.9285714 38.4672336,11.0714286 C38.4672336,11.1428571 38.5032516,11.2857143 38.5032516,11.5357143 L38.5032516,11.75 L38.7913957,13.75 L33.2806403,13.75 L33.5327664,11.75 L33.5327664,11.5357143 C33.5327664,11.2857143 33.5687844,11.1428571 33.5687844,11.0714286 C33.5687844,10.9285714 33.6048024,10.8571429 33.6048024,10.6071429 C33.6048024,4.78571429 28.7783892,0 22.9074537,0 C18.4772386,0 14.5152576,2.71428571 12.9304652,6.85714286 C12.9304652,6.89285714 12.8944472,6.89285714 12.8944472,6.92857143 L1.29664832,34.3214286 C1.26063032,34.3571429 1.22461231,34.4285714 1.22461231,34.4642857 C0.504252126,36.25 0,38.1071429 0,40.1785714 L0,40.1071429 C0,48.1428571 5.83491746,54.0357143 13.2546273,54.7857143 C13.7588794,54.8214286 14.2631316,54.9285714 14.7673837,54.9285714 C15.2356178,54.9285714 15.7038519,54.9285714 16.172086,54.8928571 C16.3881941,54.8571429 16.6403202,54.8571429 16.8564282,54.8214286 C17.0725363,54.7857143 17.2886443,54.7857143 17.5047524,54.7142857 C17.7928964,54.6428571 18.1170585,54.5714286 18.4052026,54.5 C18.5492746,54.4642857 18.6573287,54.4285714 18.8014007,54.3928571 C19.1615808,54.2857143 19.4857429,54.1785714 19.809905,54.0714286 C19.881941,54.0357143 19.953977,54.0357143 20.026013,54 C20.3861931,53.8571429 20.7463732,53.7142857 21.1065533,53.5357143 C21.1065533,53.5357143 21.1425713,53.5357143 21.1425713,53.5 C25.0685343,51.6428571 27.985993,48.0714286 29.0305153,43.8571429 L29.0305153,43.7857143 C29.1385693,43.3928571 29.2106053,42.9642857 29.2826413,42.5714286 L29.2826413,42.4642857 C29.2826413,42.4285714 29.2826413,42.3928571 29.3186593,42.3571429 L29.3546773,42.0357143 C29.3546773,41.9642857 29.3906953,41.8928571 29.3906953,41.8214286 L31.0835418,29.1785714 L40.7003502,29.1785714 L42.3931966,41.8214286 C42.3931966,41.8928571 42.4292146,41.9642857 42.4292146,42.0357143 L42.4652326,42.3571429 C42.4652326,42.3928571 42.4652326,42.4285714 42.5012506,42.4642857 L42.5012506,42.5714286 C42.5732866,43 42.6453227,43.3928571 42.7533767,43.7857143 L42.7533767,43.8571429 C43.7978989,48.1428571 46.7873937,51.6428571 50.6413207,53.5 C50.6413207,53.5 50.6773387,53.5 50.6773387,53.5357143 C51.0375188,53.7142857 51.3976988,53.8571429 51.7578789,54 C51.829915,54.0357143 51.901951,54.0357143 51.937969,54.0714286 C52.2621311,54.1785714 52.6223112,54.3214286 52.9464732,54.3928571 C53.0905453,54.4285714 53.1985993,54.4642857 53.3426713,54.5 C53.6308154,54.5714286 53.9189595,54.6428571 54.2431216,54.7142857 L54.8914457,54.8214286 C55.1075538,54.8571429 55.3596798,54.8928571 55.5757879,54.9285714 C56.044022,54.9642857 56.5122561,55 56.9804902,55 C57.4847424,55 57.9889945,54.9642857 58.4932466,54.9285714 C66.1650825,54.1428571 72,47.8928571 72,40.3214286 Z M49.1285643,2.92857143 C52.3341671,2.92857143 55.2876438,4.96428571 56.4042021,8 C56.4402201,8.07142857 56.4402201,8.10714286 56.4762381,8.17857143 L64.7243622,27.75 C62.5272636,26.4642857 59.969985,25.7142857 57.2326163,25.7142857 C51.6858429,25.7142857 46.8954477,28.7142857 44.3381691,33.2142857 L41.4207104,11.5 C41.3846923,11.1071429 41.3846923,10.9642857 41.3846923,10.8214286 L41.3846923,10.6428571 C41.3846923,6.39285714 44.8424212,2.92857143 49.1285643,2.92857143 Z M15.5957979,8.17857143 C15.6318159,8.10714286 15.6318159,8.07142857 15.6678339,8 C16.7843922,5 19.7378689,2.92857143 22.9434717,2.92857143 C27.2296148,2.92857143 30.6873437,6.39285714 30.6873437,10.5714286 L30.6873437,10.75 C30.6873437,10.8571429 30.6513257,11.0357143 30.6513257,11.4285714 L27.7338669,33.1428571 C25.2126063,28.6785714 20.3861931,25.6428571 14.8394197,25.6428571 C12.138069,25.6428571 9.54477239,26.3928571 7.34767384,27.6785714 C7.34767384,27.7142857 15.5957979,8.17857143 15.5957979,8.17857143 Z M9.04052026,50.6071429 C5.33066533,48.6428571 2.70135068,44.75 2.70135068,40.3214286 C2.70135068,39.9285714 2.84542271,39.5 2.91745873,39.1071429 C2.91745873,39.0357143 2.98949475,39 3.02551276,38.9285714 C3.06153077,38.5714286 3.16958479,38.25 3.24162081,37.8928571 C3.24162081,37.8571429 3.27763882,37.8214286 3.27763882,37.7857143 C3.34967484,37.4285714 3.45772886,37.0714286 3.56578289,36.7142857 C3.56578289,36.6785714 3.6018009,36.6785714 3.6018009,36.6428571 C3.70985493,36.2857143 3.85392696,35.9285714 4.03401701,35.5714286 C5.87093547,31.5 10.0130065,28.6428571 14.7673837,28.6428571 C21.2866433,28.6428571 26.5812906,33.8928571 26.5812906,40.3571429 C26.5812906,40.75 26.5452726,41.1071429 26.5092546,41.5 L26.4732366,41.7857143 C26.4732366,41.8571429 26.4372186,41.8928571 26.4372186,41.9642857 L26.4372186,42 C25.8609305,45.9642857 23.3396698,49.2142857 19.881941,50.8571429 L19.845923,50.8571429 C19.5577789,51 19.2696348,51.1428571 18.9454727,51.25 C18.9094547,51.2857143 18.8374187,51.2857143 18.8014007,51.2857143 C18.5132566,51.3928571 18.2611306,51.4642857 17.9729865,51.5714286 C17.8649325,51.6071429 17.7568784,51.6071429 17.6848424,51.6428571 C17.4327164,51.7142857 17.2166083,51.75 16.9644822,51.8214286 C16.7843922,51.8571429 16.6043022,51.8928571 16.4602301,51.8928571 C16.2801401,51.9285714 16.10005,51.9642857 15.91996,51.9642857 C15.5597799,52 15.0915458,52.0357143 14.7313657,52.0357143 C12.7143572,52.0714286 10.6973487,51.5 9.04052026,50.6071429 Z M31.5877939,26.2142857 L32.8844422,16.7142857 L39.1515758,16.7142857 L40.4482241,26.2142857 L31.5877939,26.2142857 Z M57.2326163,52.0714286 C56.8364182,52.0714286 56.4762381,52.0357143 56.116058,52 C55.935968,52 55.7558779,51.9642857 55.5757879,51.9285714 C55.3956978,51.8928571 55.2156078,51.8928571 55.0715358,51.8571429 C54.8194097,51.8214286 54.6033017,51.75 54.3511756,51.6785714 C54.2431216,51.6428571 54.1350675,51.6428571 54.0630315,51.6071429 C53.7748874,51.5357143 53.5227614,51.4285714 53.2346173,51.3214286 C53.1985993,51.3214286 53.1265633,51.2857143 53.0905453,51.2857143 C52.8024012,51.1785714 52.4782391,51.0357143 52.190095,50.8928571 C48.7683842,49.25 46.2111056,45.9642857 45.6348174,42.0357143 L45.6348174,42 C45.6348174,41.9285714 45.5987994,41.8928571 45.5987994,41.8214286 L45.5627814,41.5357143 C45.5267634,41.1785714 45.4907454,40.7857143 45.4907454,40.3928571 C45.4907454,33.9285714 50.7853927,28.6785714 57.3046523,28.6785714 C62.0950475,28.6785714 66.2011006,31.5 68.038019,35.6071429 L68.4702351,36.6785714 C68.4702351,36.7142857 68.5062531,36.75 68.5062531,36.75 C68.6143072,37.1071429 68.7223612,37.4642857 68.7943972,37.8214286 C68.7943972,37.8571429 68.8304152,37.8928571 68.8304152,37.9642857 C68.9024512,38.2857143 68.9384692,38.6428571 69.0105053,39 C69.0105053,39.0714286 69.0825413,39.1428571 69.0825413,39.1785714 C69.1185593,39.5714286 69.1905953,39.9642857 69.1905953,40.3928571 C69.1905953,44.8571429 66.6333167,48.7142857 62.9594797,50.6785714 C61.2666333,51.5 59.2856428,52.0714286 57.2326163,52.0714286 Z" id="Shape" fill="#3C3C3C"></path>
                <path d="M16.2188366,34.4414062 C16.2188366,33.6679688 15.5706371,33 14.7423823,33 C14.1301939,33 13.5180055,33.0703125 12.9058172,33.2109375 C9.44875346,34.0195312 7,37.078125 7,40.5585938 C7,41.3671875 7.64819945,42 8.47645429,42 C9.26869806,42 9.95290859,41.3671875 9.95290859,40.5585938 C9.95290859,38.4140625 11.465374,36.515625 13.6260388,35.9882812 C13.9861496,35.9179688 14.3822715,35.8476562 14.7423823,35.8476562 C15.534626,35.8476562 16.2188366,35.2148438 16.2188366,34.4414062 M57.5235457,33 C56.9113573,33 56.299169,33.0703125 55.6869806,33.2109375 C52.2299169,34.0195312 49.7811634,37.078125 49.7811634,40.5585938 C49.7811634,41.3671875 50.4293629,42 51.2576177,42 C52.0498615,42 52.734072,41.3671875 52.734072,40.5585938 C52.734072,38.4140625 54.2465374,36.515625 56.4072022,35.9882812 C56.767313,35.9179688 57.1634349,35.8476562 57.5235457,35.8476562 C58.3518006,35.8476562 59,35.2148438 59,34.40625 C59,33.6328125 58.3518006,33 57.5235457,33" id="Shape" fill="#E71A22"></path>
            </g>
        </g>
    </g>
</svg>