<svg xmlns="http://www.w3.org/2000/svg" viewBox="0 0 51.5 46.5"><defs><style>.cls-1{fill:none;stroke:#464646;stroke-width:2.5px;}.cls-2{fill:#e81a23;stroke:#fff;stroke-width:2px;}</style></defs><title>资源 1</title><g id="图层_2" data-name="图层 2"><g id="图层_1-2" data-name="图层 1"><g id="解决方案"><g id="直播"><g id="数据-3"><path id="Shape" class="cls-1" d="M48.43,1.25H3.07a1.81,1.81,0,0,0-1.82,1.8v40.4a1.81,1.81,0,0,0,1.82,1.8H48.43a1.81,1.81,0,0,0,1.82-1.8V3.05A1.81,1.81,0,0,0,48.43,1.25Z"/><path id="Shape-2" data-name="Shape" class="cls-2" d="M10.06,26.57h6.48a1.8,1.8,0,0,0,1.7-1.17l2.84-7.58,5.36,12.06A1.81,1.81,0,0,0,28.1,31h0a1.82,1.82,0,0,0,1.65-1.13l4.58-11.44h7.08a1.79,1.79,0,1,0,0-3.58H33.12A1.83,1.83,0,0,0,31.43,16L28,24.51,22.6,12.32a1.83,1.83,0,0,0-1.72-1.07,1.81,1.81,0,0,0-1.65,1.17L15.27,23H10.06a1.79,1.79,0,1,0,0,3.57Zm0,8.68H20.53a1.79,1.79,0,1,0,0-3.57H10.06a1.79,1.79,0,1,0,0,3.57Z"/></g></g></g></g></g></svg>