<?xml version="1.0" encoding="UTF-8" standalone="no"?>
<svg width="65px" height="65px" viewBox="0 0 65 65" version="1.1" xmlns="http://www.w3.org/2000/svg" xmlns:xlink="http://www.w3.org/1999/xlink">
    <!-- Generator: Sketch 50.2 (55047) - http://www.bohemiancoding.com/sketch -->
    <title>页面</title>
    <desc>Created with Sketch.</desc>
    <defs></defs>
    <g id="官网" stroke="none" stroke-width="1" fill="none" fill-rule="evenodd">
        <g id="Artboard" transform="translate(-745.000000, -1434.000000)">
            <g id="页面" transform="translate(746.000000, 1435.000000)">
                <path d="M57.2727273,0 L17.1818182,0 C14.0321257,0 11.4545454,2.57758031 11.4545454,5.72727275 L11.4545454,7.16062887 C11.4545454,8.02187292 12.0266576,8.59398498 12.8879016,8.59398498 C13.7491455,8.59398498 14.3212577,8.02187285 14.3212577,7.16062887 L14.3212577,5.72727275 C14.3212577,4.15242653 15.606972,2.86671223 17.1818182,2.86671223 L57.2727273,2.86671223 C58.8475735,2.86671223 60.1332878,4.15242653 60.1332878,5.72727275 L60.1332878,45.8181818 C60.1332878,47.393028 58.8475735,48.6787423 57.2727273,48.6787423 L55.8393711,48.6787423 C54.9781271,48.6787423 54.406015,49.2508545 54.406015,50.1120984 C54.406015,50.9733424 54.9781271,51.5454546 55.8393711,51.5454546 L57.2727273,51.5454546 C60.4224197,51.5454546 63,48.9678743 63,45.8181818 L63,5.72727275 C63,2.57758031 60.4224197,0 57.2727273,0 Z M45.8181818,11.4545454 L5.72727275,11.4545454 C2.57758031,11.4545454 0,14.0321257 0,17.1818182 L0,57.2727273 C0,60.4224197 2.57758031,63 5.72727275,63 L45.8181818,63 C48.9678743,63 51.5454546,60.4224197 51.5454546,57.2727273 L51.5454546,17.1818182 C51.5454546,14.0321257 48.9678743,11.4545454 45.8181818,11.4545454 Z M48.684894,57.2727273 C48.684894,58.8475735 47.3991797,60.1332878 45.8243336,60.1332878 L5.72727275,60.1332878 C4.15242653,60.1332878 2.86671223,58.8475735 2.86671223,57.2727273 L2.86671223,25.7758032 L48.684894,25.7758032 L48.684894,57.2727273 Z M48.684894,22.9090909 L2.86671223,22.9090909 L2.86671223,17.1818182 C2.86671223,15.606972 4.15242653,14.3212577 5.72727275,14.3212577 L45.8181818,14.3212577 C47.393028,14.3212577 48.6787423,15.606972 48.6787423,17.1818182 L48.6787423,22.9090909 L48.684894,22.9090909 Z" id="Shape" stroke="#FFFFFF" stroke-width="0.6" fill="#3C3C3C" fill-rule="nonzero"></path>
                <path d="M13,18 C12.3991416,18 12,18.3991417 12,19 C12,19.6008583 12.3991417,20 13,20 C13.6008583,20 14,19.6008583 14,19 C14,18.3991417 13.6008583,18 13,18 Z" id="Path" fill="#E71A22"></path>
                <path d="M7,18 C6.39914161,18 6,18.3991417 6,19 C6,19.6008583 6.39914165,20 7,20 C7.60085835,20 8,19.6008583 8,19 C8,18.3991417 7.60085835,18 7,18 Z" id="Path" fill="#E71A22"></path>
                <path d="M44.560956,18 L24.439044,18 C23.5743824,18 23,18.3991417 23,19 C23,19.6008583 23.5743824,20 24.439044,20 L44.560956,20 C45.4256176,20 46,19.6008583 46,19 C46,18.3991417 45.4256176,18 44.560956,18 Z" id="Path" fill="#E71A22"></path>
                <path d="M19,18 C18.3991416,18 18,18.3991417 18,19 C18,19.6008583 18.3991417,20 19,20 C19.6008583,20 20,19.6008583 20,19 C20,18.3991417 19.6008583,18 19,18 Z" id="Path" fill="#E71A22"></path>
            </g>
        </g>
    </g>
</svg>