<?xml version="1.0" encoding="UTF-8" standalone="no"?>
<svg width="62px" height="62px" viewBox="0 0 62 62" version="1.1" xmlns="http://www.w3.org/2000/svg" xmlns:xlink="http://www.w3.org/1999/xlink">
    <!-- Generator: Sketch 50.2 (55047) - http://www.bohemiancoding.com/sketch -->
    <title>车间</title>
    <desc>Created with Sketch.</desc>
    <defs></defs>
    <g id="解决方案" stroke="none" stroke-width="1" fill="none" fill-rule="evenodd">
        <g id="直播" transform="translate(-777.000000, -247.000000)">
            <g id="车间" transform="translate(778.000000, 248.000000)">
                <path d="M58.3393615,60 L1.65120302,60 C0.726529329,60 6.83312164e-10,59.1352029 0,58.1576061 L0,1.56979477 C0,0.592198024 0.726529329,-1.36148487e-09 1.65120302,0 L12.4925303,0 C13.417204,0 14.1342978,0.592198026 14.1342978,1.56979477 L14.1342978,24.5527182 C14.1342978,25.5303149 13.4077685,26.3199123 12.4925303,26.3199123 C11.577292,26.3199123 10.8507627,25.5303149 10.8507627,24.5527182 L10.8507627,3.48738838 L3.44393773,3.48738838 L3.44393773,56.5032117 L56.6598522,56.5032117 L56.6598522,26.395112 L49.9984274,26.395112 C49.0737537,26.395112 48.3283535,25.6619145 48.3283535,24.6843177 C48.3283535,23.706721 49.0737537,22.9735234 49.9984274,22.9735234 L58.3393615,22.9735234 C59.2640352,22.9735234 60,23.5751214 60,24.5527182 L60,58.1482062 C60,59.1258029 59.2545998,60 58.3393615,60 Z" id="Shape" stroke="#F3F5FF" fill="#464646" fill-rule="nonzero"></path>
                <path d="M45.8279604,59.9154003 L15.0401006,59.9154003 C14.115427,59.9154003 13.3700267,59.1258029 13.3700267,58.1482062 L13.3700267,45.6274479 C13.3700267,44.6498512 14.115427,43.8602538 15.0401006,43.8602538 L45.8279604,43.8602538 C46.7526341,43.8602538 47.4980343,44.6498512 47.4980343,45.6274479 L47.4980343,58.1482062 C47.4980343,59.1258029 46.7526341,59.9154003 45.8279604,59.9154003 Z M16.7101746,56.3810121 L44.1578865,56.3810121 L44.1578865,47.394642 L16.7101746,47.394642 L16.7101746,56.3810121 Z" id="Combined-Shape" stroke="#F3F5FF" fill="#464646"></path>
                <path d="M12.4830948,26.3199123 C11.9735808,26.3199123 11.4640667,26.0661131 11.1338261,25.5961147 C10.5865702,24.8065173 10.7469728,23.706721 11.492373,23.1239229 L23.9943387,13.3761554 C24.5038528,12.9813567 25.1832049,12.9249569 25.7398962,13.2257559 C26.2965875,13.5265549 26.6645699,14.1375529 26.6645699,14.8049507 L26.6645699,21.0559298 L36.5057399,13.3855554 C37.015254,12.9907567 37.7417833,12.9343569 38.30791,13.2351559 C38.8646014,13.5359549 39.279761,14.1469528 39.279761,14.8143506 L39.279761,21.0653298 L49.0643183,13.3949554 C49.5738324,13.0001567 50.1965718,12.9437569 50.7532631,13.2445559 C51.3099544,13.5453548 51.6213241,14.1563528 51.6213241,14.8237506 L51.6213241,24.5715181 C51.6213241,25.5491148 50.8664884,26.3387122 49.9418148,26.3387122 C49.0171411,26.3387122 48.2623054,25.5491148 48.2623054,24.5715181 L48.2623054,18.3205389 L38.4400063,25.9909134 C37.9304922,26.385712 37.2888819,26.4421119 36.7321906,26.1413129 C36.1754993,25.8405139 35.8452587,25.2295159 35.8452587,24.5621181 L35.8452587,18.311139 L25.9757824,25.9815134 C25.4662683,26.3763121 24.7869162,26.4327119 24.2207894,26.1319129 C23.6640981,25.8311139 23.2961157,25.2201159 23.2961157,24.5527182 L23.2961157,18.301739 L13.4549457,25.9721134 C13.1718824,26.2071126 12.8322063,26.3199123 12.4830948,26.3199123 Z" id="Path" stroke="#F3F5FF" fill="#464646"></path>
                <polygon id="Path" fill="#E81A23" points="28.8347224 34.1218863 32.3730146 34.1218863 32.3730146 37.8724738 28.8347224 37.8724738"></polygon>
                <polygon id="Path" fill="#E81A23" points="44.063532 34.1218863 47.6018242 34.1218863 47.6018242 37.8724738 44.063532 37.8724738"></polygon>
                <polygon id="Path" fill="#E81A23" points="13.6059129 34.1218863 17.1442051 34.1218863 17.1442051 37.8724738 13.6059129 37.8724738"></polygon>
            </g>
        </g>
    </g>
</svg>