<?xml version="1.0" encoding="UTF-8" standalone="no"?>
<svg width="64px" height="57px" viewBox="0 0 64 57" version="1.1" xmlns="http://www.w3.org/2000/svg" xmlns:xlink="http://www.w3.org/1999/xlink">
    <!-- Generator: Sketch 50.2 (55047) - http://www.bohemiancoding.com/sketch -->
    <title>汽车</title>
    <desc>Created with Sketch.</desc>
    <defs></defs>
    <g id="解决方案" stroke="none" stroke-width="1" fill="none" fill-rule="evenodd">
        <g id="直播" transform="translate(-701.000000, -252.000000)" fill-rule="nonzero" stroke="#F3F5FF">
            <g id="汽车" transform="translate(702.000000, 253.000000)">
                <path d="M11.9887126,27.0000553 C9.25477191,27.0019399 7.03086923,29.2057397 7.00003596,31.943637 C6.989648,34.7243539 9.23096705,36.9875684 12.0074812,37 C14.751441,37 16.9924041,34.7556515 16.9999115,32.0000277 C17.0078046,30.678459 16.4874063,29.408664 15.5547343,28.4737314 C14.6107515,27.5245427 13.3263625,26.9937626 11.9887126,27.0000553 Z M11.9924663,34.0977604 C10.8282348,34.0874217 9.89164804,33.135972 9.89789778,31.9699526 C9.91229778,30.8243834 10.8447827,29.903903 11.9887126,29.9060543 L11.9887126,28.4549345 L11.9887126,29.9060543 C12.5667835,29.9060543 13.1035636,30.1316169 13.4977029,30.5263516 C13.8880884,30.9173268 14.098296,31.436121 14.098296,31.9962683 C14.0840444,33.1538512 13.1483467,34.0876217 11.9924663,34.0977604 Z" id="Shape" fill="#E81A23"></path>
                <path d="M62,37.7819104 C62,34.6082452 61.6126917,23.8827864 61.5973528,23.4621802 C61.5628402,20.8658927 59.741341,18.9655173 58.1882732,18.1319522 L57.8623206,17.959886 C57.0263483,17.523985 56.4051212,17.1913237 55.9372835,16.93896 C57.4750124,16.2430478 58.349332,15.7383204 58.4682089,15.6656702 C59.1609268,15.2466678 59.3870871,14.3502088 58.9756535,13.6542509 C58.5642199,12.958293 57.6680989,12.7214844 56.9649926,13.1229144 C56.0551404,13.6277977 55.1180404,14.0822334 54.1579664,14.484149 C53.7744929,13.3867492 53.3833498,12.1516963 53.0113805,10.9395856 C52.3019545,8.64919357 51.5695201,6.28615126 50.8064078,4.66872919 C49.3798862,1.62889324 46.848961,0.0191185023 43.4974023,0.0114711014 L36.5680356,0.00764740092 L27.6292677,0.00764740092 C24.7915636,0.00764740092 21.9576942,0.00764740092 19.0969817,0 C15.5421821,0 12.9844136,1.62506954 11.5003711,4.83314797 C10.5570262,6.85970525 9.01546266,11.471079 7.99542304,14.5185623 L7.91489358,14.7479839 C6.97937638,14.4058204 6.05827158,14.0256832 5.15388417,13.6085234 C4.4179258,13.2526906 3.53202118,13.5591253 3.17516081,14.2929645 C2.81830043,15.0268036 3.12562006,15.9101572 3.86157842,16.26599 C3.98428992,16.3233454 4.78191487,16.7057147 6.15091541,17.2448554 C4.62085601,17.9904755 2.58844632,19.0611096 2.04391392,19.7379033 C1.36133106,20.5791157 0.962518548,21.4317993 0.7516081,22.4947859 C0.552201881,23.5157119 0,35.6406424 0,38.2254589 C0,43.2039071 3.13297871,45.6701892 5.57570507,46.5916991 C5.56076851,46.7786941 5.55309331,46.9661953 5.55269668,47.153782 C5.55653142,51.4707314 8.86207322,54.9885289 12.9115537,55 L12.9230579,55 C17.0607372,55 20.5618506,51.413376 20.5695201,47.1652531 L41.8446314,47.1384872 L41.8446314,47.2264322 C41.8561356,50.9698276 44.3372093,54.9961763 49.7556903,54.9961763 C53.5252351,54.9961763 55.9833004,52.3425334 56.6850569,49.8456619 C57.0877041,48.7444383 57.1145473,47.6355673 57.0992083,46.6222887 C59.2696685,45.746663 62,43.2383204 62,37.7819104 Z M10.8024493,15.4515434 C11.8033152,12.4652392 13.3103661,7.94945773 14.1808511,6.0758482 C15.1702127,3.94605121 16.73095,2.95571474 19.1123206,2.95571467 L27.6292677,2.95953838 L36.5680356,2.95953838 L43.4935676,2.96336208 C45.7062098,2.96336208 47.1787482,3.90399057 48.1259278,5.92290045 C48.8046759,7.3529616 49.5025977,9.6165879 50.1851806,11.807564 C50.5839931,13.0846774 50.9866403,14.3923804 51.396957,15.5700779 C44.8874455,17.8831489 38.0255084,19.0552066 31.115042,19.0343437 C22.7246412,19.0343437 15.4156358,17.2486791 10.7104156,15.7268493 L10.8024493,15.4515434 Z M17.6052697,47.1614294 C17.6014349,49.7615406 15.4118011,52.0442853 12.9192231,52.0442853 L12.9192231,53.5240545 L12.9153884,52.0442853 C10.488001,52.0404616 8.51311237,49.8418382 8.50927756,47.1461346 L8.5131123,46.9970106 L17.6091044,46.9970106 L17.6091044,47.1614294 L17.6052697,47.1614294 Z M53.8895349,48.8706201 C53.4115966,50.7532299 51.703181,52.0648272 49.7556903,52.0442853 C46.1126918,52.0442853 44.8088817,49.4441741 44.805047,47.2149611 L44.805047,46.9970106 L54.1426274,46.9970106 C54.1426274,47.6814516 54.1004453,48.323832 53.8895349,48.8706201 Z M55.4732805,44.0451196 L7.33968331,44.0451196 C6.54972785,43.8692297 2.96041562,42.8330089 2.96041562,38.2292825 C2.96041562,35.5029894 3.5126175,24.0013209 3.65833746,23.0721635 C3.74448134,22.5555481 3.96236395,22.0696864 4.29106874,21.6612208 C4.83943587,21.1564934 8.33671447,19.4320078 8.88891635,19.217881 C9.24319456,19.1005341 9.53936329,18.8530703 9.71721917,18.5257926 C14.6218456,20.1279199 22.2337951,21.9862347 31.115042,21.9862347 C40.4181098,21.9862347 47.8114794,20.0437986 52.5588818,18.3116657 C52.8694953,18.6481507 53.6517813,19.0916991 56.4856507,20.575292 L56.7770906,20.7282397 C57.4596735,21.0953142 58.6139288,22.0932981 58.6331025,23.5348304 C58.6331025,23.6457175 59.0319149,34.661777 59.0319149,37.7895578 C59.0395844,43.0662542 56.059995,43.9227614 55.4732805,44.0451196 Z" id="Shape" stroke-width="0.5" fill="#464646"></path>
                <path d="M22.4775288,7.07134418 C22.2019656,6.79836024 21.8281529,6.64498991 21.4383666,6.64498991 C21.0485803,6.64498991 20.6747676,6.79836024 20.3992044,7.07134418 L16.4252654,11.0026805 C16.0082582,11.420602 15.8851461,12.0454605 16.1129293,12.5879504 C16.3407124,13.1304403 16.8749266,13.4846654 17.468234,13.4866217 C17.8568901,13.486982 18.2296026,13.333655 18.5035898,13.0606956 L22.4737223,9.12935923 C23.0467641,8.5613035 23.0484654,7.64147464 22.4775288,7.07134418 Z M31.8566338,5.4204091 C31.5802074,5.14914707 31.2061716,4.99790075 30.8170065,5.00002202 C30.4278413,5.00214328 30.0555097,5.1574579 29.7821159,5.43171689 L22.1349478,13.0908496 C21.6156592,13.6709339 21.6452626,14.5518948 22.2023452,15.0965126 C22.7594277,15.6411305 23.6493885,15.6591587 24.2284981,15.1375569 L31.8718596,7.47842407 C32.4396588,6.90518968 32.4328535,5.98534428 31.8566338,5.4204091 Z M49.9525207,26.9730277 C48.574584,26.9730277 47.2880022,27.5082624 46.3211626,28.4694233 C45.3739563,29.4077816 44.8507879,30.6859249 44.8709033,32.012526 C44.9040968,34.7681826 47.1618961,36.9888237 49.9449077,37.0030239 C51.2922939,36.9970413 52.582036,36.461021 53.5301396,35.5129918 C54.4782432,34.5649627 55.0069638,33.2826631 54.99988,31.9484486 C55.0091631,30.6221559 54.4796287,29.3478438 53.5303753,28.4121198 C52.5811218,27.4763957 51.2918459,26.9578205 49.9525207,26.9730277 Z M51.4332317,33.4900753 C51.0374397,33.881241 50.5002873,34.0997013 49.9411013,34.0969258 C48.7717524,34.0747889 47.8297555,33.1403316 47.8094865,31.9823719 C47.7996979,31.4336065 48.0153802,30.9044311 48.4071,30.5161305 C48.8146692,30.1092427 49.3699648,29.8811488 49.9487142,29.8828951 C51.1287153,29.8828951 52.0536838,30.7950556 52.0574902,31.9597564 C52.0621996,32.5315825 51.8377025,33.0819186 51.4332317,33.4900753 Z M36.2911538,35.0844715 L24.6167564,35.0844715 C23.8042379,35.0844715 23.1455616,35.7367113 23.1455616,36.5412898 C23.1455616,37.3458683 23.8042379,37.9981081 24.6167564,37.9981081 L36.2911538,37.9981081 C36.8346161,38.0254905 37.3490584,37.7539665 37.6290876,37.2919431 C37.9091169,36.8299198 37.9091169,36.2526598 37.6290876,35.7906365 C37.3490584,35.3286131 36.8346161,35.0570891 36.2911538,35.0844715 Z" id="Shape" fill="#E81A23"></path>
            </g>
        </g>
    </g>
</svg>