<?xml version="1.0" encoding="UTF-8" standalone="no"?>
<svg width="49px" height="49px" viewBox="0 0 49 49" version="1.1" xmlns="http://www.w3.org/2000/svg" xmlns:xlink="http://www.w3.org/1999/xlink">
    <!-- Generator: Sketch 50.2 (55047) - http://www.bohemiancoding.com/sketch -->
    <title>视频</title>
    <desc>Created with Sketch.</desc>
    <defs></defs>
    <g id="官网" stroke="none" stroke-width="1" fill="none" fill-rule="evenodd">
        <g id="Artboard" transform="translate(-748.000000, -1519.000000)">
            <g id="视频" transform="translate(748.000000, 1519.000000)">
                <path d="M39.7012641,49 L9.29647251,49 C4.18499698,49 0,44.8142485 0,39.7012641 L0,9.29647251 C0,4.18348807 4.18348807,0 9.29647251,0 L39.7012641,0 C44.8142485,0 49,4.18499698 49,9.29647251 L49,39.7012641 C49,44.8142485 44.8142485,49 39.7012641,49 Z M47.009731,39.3262968 L47.009731,9.67596655 C47.009731,5.45098308 43.5512803,1.99026898 39.3240335,1.99026898 L9.67370317,1.99026898 C5.4487197,1.99026898 1.9880056,5.4487197 1.98800561,9.67596655 L1.98800561,39.3262968 C1.98800561,43.5512803 5.44645633,47.0119944 9.67370317,47.0119944 L39.3240335,47.0119944 C43.5512803,47.009731 47.009731,43.5512803 47.009731,39.3240335 L47.009731,39.3262968 Z" id="Shape" fill="#3C3C3C" fill-rule="nonzero"></path>
                <path d="M11.0332213,11.7820641 L8.71892497,11.7820641 C8.32691942,11.7808184 8.00944147,11.459145 8.00821199,11.0619591 L8.00821199,8.72086142 C8.00943909,8.3235517 8.32679871,8.00166043 8.71892497,8 L11.0332213,8 C11.4253476,8.00166045 11.7427072,8.32355171 11.7439343,8.72086142 L11.7439343,11.0619591 C11.7427048,11.459145 11.4252269,11.7808184 11.0332213,11.7820641 Z M21.162374,11.0619591 L21.162374,8.72086142 C21.1615544,8.32338019 20.843957,8.00124776 20.4516611,8 L18.1410974,8 C17.7486796,8.00124576 17.4308674,8.3232578 17.4296379,8.72086142 L17.4296379,11.0619591 C17.4308694,11.4594393 17.7488004,11.7812337 18.1410974,11.7820641 L20.4516611,11.7820641 C20.8438363,11.781232 21.1615527,11.4593169 21.162374,11.0619591 Z M30.5815603,11.0619591 L30.5815603,8.72086142 C30.5803307,8.3232578 30.2625186,8.00124576 29.8701008,8 L27.5632699,8 C27.1709739,8.00124774 26.8533765,8.32338018 26.8525569,8.72086142 L26.8525569,11.0619591 C26.8533782,11.4593169 27.1710946,11.781232 27.5632699,11.7820641 L29.8701008,11.7820641 C30.2623978,11.7812337 30.5803288,11.4594393 30.5815603,11.0619591 Z M40,11.0619591 L40,8.72086142 C39.9991804,8.32338018 39.681583,8.00124774 39.289287,8 L36.9749907,8 C36.5825728,8.00124576 36.2647607,8.3232578 36.2635312,8.72086142 L36.2635312,11.0619591 C36.2647626,11.4594393 36.5826936,11.7812337 36.9749907,11.7820641 L39.289287,11.7820641 C39.6814623,11.781232 39.9991787,11.4593169 40,11.0619591 Z M11.7364688,41.279895 L11.7364688,38.9350152 C11.7356492,38.537534 11.4180518,38.2154016 11.0257559,38.2141538 L8.7114595,38.2141538 C8.31904168,38.2153996 8.00122951,38.5374116 8,38.9350152 L8,41.279895 C8.00123149,41.6773751 8.31916247,41.9991695 8.7114595,42 L11.0257559,42 C11.4179311,41.9991678 11.7356475,41.6772528 11.7364688,41.279895 Z M21.1556551,41.279895 L21.1556551,38.9350152 C21.1544256,38.5374116 20.8366134,38.2153996 20.4441956,38.2141538 L18.133632,38.2141538 C17.741336,38.2154016 17.4237386,38.537534 17.422919,38.9350152 L17.422919,41.279895 C17.4237403,41.6772528 17.7414567,41.9991678 18.133632,42 L20.4441956,42 C20.8364926,41.9991695 21.1544236,41.6773751 21.1556551,41.279895 Z M30.5740948,41.279895 L30.5740948,38.9350152 C30.5732752,38.537534 30.2556778,38.2154016 29.8633819,38.2141538 L27.5528182,38.2141538 C27.1604004,38.2153996 26.8425882,38.5374116 26.8413587,38.9350152 L26.8413587,41.279895 C26.8425902,41.6773751 27.1605212,41.9991695 27.5528182,42 L29.8633819,42 C30.2555571,41.9991678 30.5732735,41.6772528 30.5740948,41.279895 Z M39.993281,41.279895 L39.993281,38.9350152 C39.9920515,38.5374116 39.6742394,38.2153996 39.2818215,38.2141538 L36.9697648,38.2141538 C36.5774689,38.2154016 36.2598715,38.537534 36.2590518,38.9350152 L36.2590518,41.279895 C36.2598732,41.6772528 36.5775896,41.9991678 36.9697648,42 L39.2840612,42 C39.6754835,41.9979255 39.9920568,41.6764934 39.993281,41.279895 Z" id="Shape" fill="#3C3C3C" fill-rule="nonzero"></path>
                <path d="M18.2549458,19.8537453 L18.2549458,30.4768071 C18.2549458,32.2799949 20.164245,33.3963955 21.6899344,32.503891 L30.7697258,27.1926309 C32.3057498,26.2930224 32.3057498,24.0364717 30.7701882,23.1381922 L21.6899149,17.82665 C20.1652194,16.934727 18.2549458,18.0524495 18.2549458,19.8537453 Z" id="Path" stroke="#E71A22" stroke-width="2"></path>
            </g>
        </g>
    </g>
</svg>