<svg xmlns="http://www.w3.org/2000/svg" viewBox="0 0 46.73 40.15"><defs><style>.cls-1,.cls-2{fill:#464646;}.cls-2{stroke:#464646;stroke-width:0.3px;}.cls-3{fill:#e71a22;}.cls-4{fill:#fff;}.cls-5{fill:none;stroke:#e71a22;}</style></defs><title>资源 1</title><g id="图层_2" data-name="图层 2"><g id="图层_1-2" data-name="图层 1"><g id="官网"><g id="首页"><g id="Group-5"><g id="Group-4"><path id="Shape" class="cls-1" d="M24.35,3.26A.77.77,0,0,0,23.28,3L14.13,9a.78.78,0,1,0,.85,1.3l9.14-5.93a.74.74,0,0,0,.34-.49A.71.71,0,0,0,24.35,3.26Z"/><path id="Shape-Copy" class="cls-1" d="M12.51,7.6a.92.92,0,0,0-1.27-.26L.42,14.13a.87.87,0,0,0-.27,1.23.92.92,0,0,0,1.27.26L12.24,8.83a.9.9,0,0,0,.4-.57A.85.85,0,0,0,12.51,7.6Z"/><path id="Shape-Copy-2" class="cls-1" d="M34.67,7.6a1.35,1.35,0,0,1,1.58-.25q2.88,1.89,4.35,3,1.9,1.42,5.86,4.6a.86.86,0,0,1,0,1.25.77.77,0,0,1-1.15.13l-.21-.16q-3.18-2.71-10.16-7.46c-.2-.14-.41-.2-.44-.43A.87.87,0,0,1,34.67,7.6Z"/><path id="Shape-2" data-name="Shape" class="cls-1" d="M11.73,12.2a1,1,0,0,0,.95-1.06,1,1,0,0,0-2,.11A1,1,0,0,0,11.73,12.2Z"/><path id="Shape-3" data-name="Shape" class="cls-2" d="M38.27,8.84l-.15-.1L26.19.85a5.06,5.06,0,0,0-5.48.22c-.81.56-8.39,5.56-11.57,7.66a5.86,5.86,0,0,0-2.51,4.7V37.6a1.48,1.48,0,0,0,1.42,1.54H13a.77.77,0,0,0,.73-.81.78.78,0,0,0-.69-.81H8.05V13.68a4.2,4.2,0,0,1,1.7-3.48L10,10c3-2,10.11-6.69,11.44-7.58a3.79,3.79,0,0,1,4-.18L37.23,10a4.22,4.22,0,0,1,2,3.68v6.64a.71.71,0,1,0,1.42,0V13.48A6,6,0,0,0,38.27,8.84Z"/><path id="Shape-4" data-name="Shape" class="cls-3" d="M36,30.19a2.09,2.09,0,0,1-.65-1.58A2.2,2.2,0,0,1,36,27a1.77,1.77,0,0,1,1-.57l.65-.21-.14-.65A12.64,12.64,0,0,0,37,24.1a7.41,7.41,0,0,0-.72-1.37l-.36-.57-.57.36a2.09,2.09,0,0,1-1.08.29,2,2,0,0,1-1.51-.65,2.06,2.06,0,0,1-.65-1.5,2.09,2.09,0,0,1,.29-1.08l.22-.71L32,18.51a9.11,9.11,0,0,0-1.43-.72,13.33,13.33,0,0,0-1.51-.5l-.65-.14-.14.64a1.6,1.6,0,0,1-.58.93,2.31,2.31,0,0,1-3.09,0,2.52,2.52,0,0,1-.58-.93l-.21-.64-.65.14a13.33,13.33,0,0,0-1.51.5,9.11,9.11,0,0,0-1.43.72l-.58.36.36.57A2.09,2.09,0,0,1,19.66,22a2,2,0,0,1-1.58.71A2.08,2.08,0,0,1,17,22.45l-.65-.29-.36.57a12.91,12.91,0,0,0-.71,1.44,12.64,12.64,0,0,0-.51,1.5l-.14.65.65.14a1.62,1.62,0,0,1,.93.57,2.24,2.24,0,0,1,.65,1.58,1.94,1.94,0,0,1-.65,1.5,1.75,1.75,0,0,1-1,.58l-.57.21.21.65c.15.5.29.93.44,1.29l.07.21a12.89,12.89,0,0,0,.72,1.44l.28.57.58-.36A1.93,1.93,0,0,1,18,34.41a2.24,2.24,0,0,1,1.58.65,2.06,2.06,0,0,1,.65,1.5A1.93,1.93,0,0,1,20,37.64l-.29.71.58.36a13.67,13.67,0,0,0,1.43.72c.51.21,1,.36,1.44.5l.65.22L24,39.5a2,2,0,0,1,.58-1,2.31,2.31,0,0,1,3.09,0,1.71,1.71,0,0,1,.57,1l.22.65.65-.22a8.59,8.59,0,0,0,1.43-.5A8.8,8.8,0,0,0,32,38.71l.58-.36-.29-.57A2,2,0,0,1,32,36.71a2,2,0,0,1,.65-1.51,2.06,2.06,0,0,1,1.51-.64,1.92,1.92,0,0,1,1.08.28l.57.36.36-.57a13.67,13.67,0,0,0,.72-1.43,13.33,13.33,0,0,0,.5-1.51l.22-.64L37,30.76A2,2,0,0,1,36,30.19Z"/><path id="Path" class="cls-4" d="M36.15,32.67c-.08.23-.23.45-.31.75a3.1,3.1,0,0,0-1.2-.15A3.56,3.56,0,0,0,32,34.4,3.86,3.86,0,0,0,30.87,37a7.16,7.16,0,0,0,.15,1.2,2.31,2.31,0,0,1-.75.3c-.22.07-.53.22-.75.3a3,3,0,0,0-.76-1,3.76,3.76,0,0,0-2.63-1.05,3.81,3.81,0,0,0-2.64,1.05,4.89,4.89,0,0,0-.75,1,3.18,3.18,0,0,1-.75-.3,6.34,6.34,0,0,0-.76-.3,3.12,3.12,0,0,0,.15-1.2,3.5,3.5,0,0,0-1.13-2.63,3.8,3.8,0,0,0-2.63-1.13,7.15,7.15,0,0,0-1.21.15c-.07-.22-.22-.37-.3-.6L16,32.67,15.81,32a4.89,4.89,0,0,0,1-.75,3.86,3.86,0,0,0,1.05-2.63A3.74,3.74,0,0,0,16.79,26a4.89,4.89,0,0,0-1-.75,6.12,6.12,0,0,1,.3-.75c.08-.23.23-.53.3-.75a3.17,3.17,0,0,0,1.21.15,3.52,3.52,0,0,0,2.63-1.13,3.79,3.79,0,0,0,1.13-2.62,6.26,6.26,0,0,0-.15-1.21,2.46,2.46,0,0,1,.76-.3c.22-.07.52-.22.75-.3a3.06,3.06,0,0,0,.75,1,3.81,3.81,0,0,0,2.64,1.05,3.76,3.76,0,0,0,2.63-1.05,4.59,4.59,0,0,0,.76-1,3.36,3.36,0,0,1,.75.3c.23.08.53.23.75.3a3.36,3.36,0,0,0-.15,1.21A3.51,3.51,0,0,0,32,22.76a3.84,3.84,0,0,0,2.64,1.13,6.91,6.91,0,0,0,1.2-.15,2.12,2.12,0,0,1,.31.75c.07.22.22.53.3.75a3.06,3.06,0,0,0-1,.75,3.87,3.87,0,0,0-1.06,2.63,3.75,3.75,0,0,0,1.06,2.63,2.81,2.81,0,0,0,1,.67A5.55,5.55,0,0,1,36.15,32.67Z"/><circle id="Oval" class="cls-5" cx="26.13" cy="28.65" r="4.5"/></g></g></g></g></g></g></svg>