<?xml version="1.0" encoding="UTF-8" standalone="no"?>
<svg width="46px" height="43px" viewBox="0 0 46 43" version="1.1" xmlns="http://www.w3.org/2000/svg" xmlns:xlink="http://www.w3.org/1999/xlink">
    <!-- Generator: Sketch 50.2 (55047) - http://www.bohemiancoding.com/sketch -->
    <title>会计实训</title>
    <desc>Created with Sketch.</desc>
    <defs></defs>
    <g id="解决方案" stroke="none" stroke-width="1" fill="none" fill-rule="evenodd">
        <g id="直播" transform="translate(-404.000000, -259.000000)">
            <g id="会计实训" transform="translate(404.000000, 259.000000)">
                <path d="M44.9985199,21.0005607 C44.7334036,21.0005604 44.4791659,21.105978 44.2918299,21.2935838 C44.1044939,21.4811896 43.9994336,21.7355874 43.9998,22.0007188 L43.9998,26.0008914 C43.9998,28.2105324 42.2075325,30.0006038 39.9980199,30.0006038 L5.99967998,30.0006038 C4.93882993,30.0007258 3.92138107,29.5793973 3.17116054,28.8293057 C2.42094,28.0792141 1.99940196,27.0618031 1.99927996,26.0008914 L1.99927996,6.00002875 C1.99927996,3.79084779 3.79062744,2.00077634 5.99967998,2.00077634 L39.9980199,2.00077634 C42.2075325,2.00077634 43.9998,3.79084779 43.9998,6.00002875 C43.9994335,6.26511791 44.1045084,6.51946851 44.2918577,6.70700132 C44.479207,6.89453412 44.7334459,6.99984926 44.9985199,6.99972684 C45.550553,6.99972684 45.99954,6.55209397 45.99954,6.00002875 C45.99954,2.68625731 43.3120587,0 39.9980199,0 L5.99967998,0 C2.68610117,-0.000460054344 0,2.68625731 0,6.00002875 L0,26.0008914 C0,29.3146628 2.68656119,32 6.00014001,32 L39.9984799,32 C43.3125188,32 46,29.3146628 46,26.0008914 L46,22.0007188 C45.9992385,21.4481236 45.5510836,21.0005602 44.9985199,21.0005607 Z" id="Shape" fill="#464646" fill-rule="nonzero"></path>
                <path d="M44.9959284,13.0920094 C44.7308686,13.0918867 44.4766433,13.19744 44.289304,13.385397 C44.1019647,13.5733539 43.9968954,13.8282797 43.9972619,14.0939684 L43.9972619,18.1036486 C43.9972619,18.6569623 44.4434648,19.1056075 44.9959284,19.1056075 C45.547932,19.1056075 45.996895,18.6569623 45.996895,18.1036486 L45.996895,14.0939684 C45.996895,13.5406546 45.548392,13.0920094 44.9959284,13.0920094 Z M44.2870638,9.37420222 C44.0982241,9.56086398 43.9913784,9.81526203 43.9901698,10.0811023 C43.9889611,10.3469425 44.0934892,10.6023061 44.2806237,10.7906854 L44.2870638,10.7971407 C44.4737094,10.9857398 44.7274625,11.0922803 44.992485,11.093318 C45.2575074,11.0943557 45.5120832,10.9898056 45.700193,10.8026738 L45.7070931,10.7971407 L45.8253139,10.6371408 C45.8653341,10.5850371 45.8952343,10.5278614 45.9163945,10.4665357 C45.9521067,10.4108322 45.9792446,10.3500544 45.996895,10.2862477 C46.001035,10.2193889 46.001035,10.1525302 45.996895,10.0856715 C45.9996983,9.53207499 45.5546499,9.08081184 45.0023685,9.07725718 C44.7336866,9.07522205 44.4756364,9.18234665 44.2870638,9.37420222 Z M40.9966622,40.995621 L4.99958654,40.995621 C4.44712293,40.995621 4,41.4456495 4,41.9989632 C4,42.552277 4.44758293,43 4.99958654,43 L40.9966622,43 C41.5404899,42.9883067 41.9752618,42.5430543 41.9752618,41.9978105 C41.9752618,41.4525667 41.5404899,41.0073143 40.9966622,40.995621 Z M30.9966568,39.1507808 C31.5491204,39.1507808 31.9980833,38.7030578 31.9980833,38.149744 C31.9980833,37.5964303 31.5491204,37.1464018 30.9966568,37.1464018 L14.998212,37.1464018 C14.4462084,37.1464018 13.9986255,37.5964303 13.9986255,38.149744 C13.9986255,38.7030578 14.4462084,39.1507808 14.998212,39.1507808 L30.9966568,39.1507808 Z" id="Shape" fill="#464646" fill-rule="nonzero"></path>
                <path d="M10.9980258,26.1220867 C10.9982798,25.5681362 11.4463534,25.1192055 11.9989924,25.1192056 L22.9976644,25.1192056 L21.9980778,18.2641095 L21.9980778,18.1041096 C22.0032638,17.9497134 22.0442098,17.798643 22.1176786,17.6628419 L27.2664923,4.63276461 C27.2683324,4.63276461 27.2683324,4.63138133 27.2683324,4.63045914 C27.3665644,4.38359725 27.5586604,4.18599753 27.8023139,4.08117851 C28.0459674,3.97635948 28.3211947,3.9729181 28.5673809,4.07161227 L35.9964295,7.07795022 C36.2563797,7.18844765 36.4578113,7.40367538 36.5512404,7.67076041 C36.6446696,7.93784545 36.621438,8.23203623 36.4872527,8.48106163 L31.337059,21.511139 C31.3031045,21.5901506 31.259034,21.6643958 31.2059581,21.7320034 L31.1364977,21.8020898 L31.0477171,21.8920033 L24.7465958,26.9045646 C24.5708747,27.0447374 24.3528333,27.1235846 24.1288118,27.1235846 L11.9989924,27.1235846 C11.4469888,27.1235846 10.9980258,26.6758616 10.9980258,26.1220867 Z M24.2281724,19.687048 L24.8671166,24.235748 L28.4574401,21.3709662 L24.2281724,19.687048 Z M28.7072218,6.37708616 L24.2980929,17.5623233 L29.8668894,19.7774226 L34.2870583,8.59126328 L28.7072218,6.37708616 Z" id="Combined-Shape" fill="#E81A23"></path>
            </g>
        </g>
    </g>
</svg>