<?xml version="1.0" encoding="UTF-8" standalone="no"?>
<svg width="38px" height="42px" viewBox="0 0 38 42" version="1.1" xmlns="http://www.w3.org/2000/svg" xmlns:xlink="http://www.w3.org/1999/xlink">
    <!-- Generator: Sketch 50.2 (55047) - http://www.bohemiancoding.com/sketch -->
    <title>Group 3</title>
    <desc>Created with Sketch.</desc>
    <defs></defs>
    <g id="解决方案" stroke="none" stroke-width="1" fill="none" fill-rule="evenodd">
        <g id="直播" transform="translate(-392.000000, -323.000000)">
            <g id="Group-3" transform="translate(393.000000, 324.000000)">
                <path d="M12.8499526,2.30645703 L15.7334102,0.572215719 C16.9799656,-0.177518847 18.5352717,-0.191425661 19.7950342,0.535898591 L33.5070416,8.45252971 C34.7446459,9.16706089 35.5070416,10.487569 35.5070416,11.9166313 L35.5070416,27.7978292 C35.5070416,29.2268915 34.7446459,30.5473996 33.5070416,31.2619308 L30.765836,32.8445665 M23.5163997,37.0300306 C22.2621067,37.7541969 21.0078137,38.4783633 19.7535208,39.2025297 C18.5159165,39.9170609 16.9911251,39.9170609 15.7535208,39.2025297 L2,31.2619308 C0.762395693,30.5473996 0,29.2268915 0,27.7978292 L0,11.9386114 C0,10.4977915 0.774884049,9.16830652 2.02855232,8.45818125 C4.25224852,7.19859536 5.36409661,6.56880241 5.36409661,6.56880241 C5.36409661,6.56880241 5.3796351,6.55998936 5.38739696,6.55556983" id="Polygon" stroke="#464646" stroke-width="2"></path>
                <path d="M24.4622344,18.6057361 L14.6124553,13.1398914 C13.8954345,12.7420814 13,13.2401524 13,14.0357724 L13,24.9642276 C13,25.7598476 13.8954345,26.2579186 14.6124553,25.8601086 L24.4622344,20.3942639 C25.1792552,19.9964539 25.1792552,19.0035461 24.4622344,18.6057361 Z" id="Shape" stroke="#E71A22" fill-rule="nonzero"></path>
                <circle id="Oval-7-Copy-3" fill="#46463C" cx="9" cy="4" r="1"></circle>
                <circle id="Oval-7-Copy-5" fill="#46463C" cx="27" cy="35" r="1"></circle>
                <path d="M12.7223478,1.21349409 L13.7119641,2.93218375 C13.0751427,3.44770193 12.5762762,3.37163251 12.2153645,2.70397549 C11.8544528,2.03631846 12.0234473,1.53949132 12.7223478,1.21349409 Z" id="Path-62" fill="#464646"></path>
                <path d="M4.6425555,5.82519735 L5.61006341,7.57086901 C6.19174174,7.32581667 6.29714162,6.87358294 5.92626306,6.21416781 C5.58322798,5.61069432 5.15532546,5.4810375 4.6425555,5.82519735 Z" id="Path-17" fill="#464646"></path>
                <path d="M22.6212404,36.4296889 L23.5482169,38.1156085 C24.2912441,37.8729987 24.4715347,37.4081011 24.089089,36.7209157 C23.7066432,36.0337304 23.2173603,35.9366547 22.6212404,36.4296889 Z" id="Path-63" fill="#464646"></path>
                <path d="M30.8243558,31.6652128 L31.7803168,33.4192655 C31.0501724,33.9720493 30.5121292,33.8897289 30.1661875,33.1723044 C29.8202457,32.4548799 30.0396351,31.952516 30.8243558,31.6652128 Z" id="Path-64" fill="#464646"></path>
            </g>
        </g>
    </g>
</svg>